<svg width="95" height="99" viewBox="0 0 95 99" fill="none" xmlns="http://www.w3.org/2000/svg">
<g clip-path="url(#clip0)">
<path d="M19.677 85.544H18.9885V82.4715H16.0628V85.544H15.3744V78.8017H16.0628V81.8173H18.9885V78.8017H19.677V85.544Z" fill="white"/>
<path d="M25.5858 85.544C25.5284 85.3164 25.471 85.0035 25.471 84.6052C25.2702 84.9465 25.0121 85.2026 24.6679 85.3733C24.3237 85.5441 23.9794 85.6578 23.6066 85.6578C23.033 85.6578 22.574 85.4871 22.2584 85.1741C21.9429 84.8328 21.7708 84.3776 21.7708 83.7802C21.7708 83.1259 22.0002 82.5854 22.4305 82.2156C22.8895 81.8173 23.4918 81.6465 24.295 81.6181H25.4423V80.6793C25.4423 80.1957 25.3276 79.8543 25.0982 79.6552C24.8686 79.4561 24.5245 79.3422 24.0656 79.3422C23.6353 79.3422 23.2911 79.4561 23.033 79.7121C22.7748 79.9681 22.6314 80.2811 22.6314 80.6793H21.9429C21.9429 80.1388 22.1437 79.6552 22.574 79.2854C22.9755 78.9156 23.4918 78.7164 24.1229 78.7164C24.7826 78.7164 25.2989 78.8871 25.6431 79.2285C25.9874 79.5698 26.1594 80.0535 26.1594 80.7078V84.0078C26.1594 84.6621 26.2168 85.1741 26.3315 85.4871V85.5724H25.5858V85.544ZM23.6926 85.0035C24.0942 85.0035 24.467 84.8897 24.7539 84.6906C25.0695 84.4914 25.2989 84.2069 25.4423 83.8371V82.1871H24.381C23.75 82.1871 23.291 82.3293 22.9755 82.6138C22.66 82.8983 22.4879 83.2397 22.4879 83.7233C22.4879 84.5767 22.8895 85.0035 23.6926 85.0035Z" fill="white"/>
<path d="M28.5402 78.8017H29.2286V84.8897H32.1543V78.8017H32.8426V84.8897H33.4164L33.3589 87.5354H32.7279V85.544H28.5402V78.8017Z" fill="white"/>
<path d="M39.0097 78.8017H39.698V85.544H39.0097V80.025L36.0553 85.544H35.3669V78.8017H36.0553V84.3207L39.0097 78.8017Z" fill="white"/>
<path d="M41.8207 81.8172C41.8207 80.85 42.0501 80.0819 42.4804 79.513C42.9107 78.9439 43.513 78.6595 44.2587 78.6595C45.0045 78.6595 45.6069 78.9439 46.0371 79.4845C46.4674 80.0535 46.6968 80.7931 46.6968 81.7889V82.5C46.6968 83.4957 46.4674 84.2639 46.0371 84.8043C45.6069 85.3448 45.0045 85.6293 44.2587 85.6293C43.513 85.6293 42.9107 85.3733 42.4804 84.8328C42.0501 84.2923 41.8207 83.5526 41.7919 82.6139V81.8172H41.8207ZM42.5091 82.5285C42.5091 83.2965 42.6525 83.9224 42.968 84.3491C43.2836 84.8043 43.7137 85.0035 44.2587 85.0035C44.8325 85.0035 45.2626 84.7759 45.5495 84.3491C45.8364 83.9224 46.0085 83.2965 46.0085 82.5V81.7889C46.0085 81.0207 45.8651 80.3948 45.5495 79.9681C45.234 79.513 44.8038 79.2854 44.2587 79.2854C43.7137 79.2854 43.3123 79.513 42.9967 79.9397C42.6811 80.3665 42.5378 80.9639 42.5091 81.7319V82.5285Z" fill="white"/>
<path d="M53.1506 85.544H52.4622V82.4715H49.5365V85.544H48.8481V78.8017H49.5365V81.8173H52.4622V78.8017H53.1506V85.544Z" fill="white"/>
<path d="M59.0594 85.544C59.0021 85.3164 58.9447 85.0035 58.9447 84.6052C58.744 84.9465 58.4858 85.2026 58.1417 85.3733C57.8261 85.5441 57.4532 85.6578 57.0803 85.6578C56.5066 85.6578 56.0477 85.4871 55.7322 85.1741C55.4167 84.8328 55.2446 84.3776 55.2446 83.7802C55.2446 83.1259 55.474 82.5854 55.9043 82.2156C56.3632 81.8173 56.9656 81.6465 57.7687 81.6181H58.9161V80.6793C58.9161 80.1957 58.8013 79.8543 58.5718 79.6552C58.3424 79.4561 57.9982 79.3422 57.5392 79.3422C57.109 79.3422 56.7648 79.4561 56.5066 79.7121C56.2485 79.9681 56.105 80.2811 56.105 80.6793H55.4167C55.4167 80.1388 55.6174 79.6552 56.0477 79.2854C56.4493 78.9156 56.9656 78.7164 57.5966 78.7164C58.2564 78.7164 58.7727 78.8871 59.1169 79.2285C59.461 79.5698 59.6332 80.0535 59.6332 80.7078V84.0078C59.6332 84.6621 59.6905 85.1741 59.8053 85.4871V85.5724H59.0594V85.544ZM57.1664 85.0035C57.5679 85.0035 57.9408 84.8897 58.2277 84.6906C58.5431 84.4914 58.7727 84.2069 58.9161 83.8371V82.1871H57.8261C57.1951 82.1871 56.7361 82.3293 56.4206 82.6138C56.105 82.8983 55.933 83.2397 55.933 83.7233C55.933 84.5767 56.3632 85.0035 57.1664 85.0035Z" fill="white"/>
<path d="M66.3451 78.8017V85.544H65.6567V79.4561H63.4194L63.3333 81.9595C63.276 83.2682 63.1326 84.2069 62.9031 84.7189C62.6736 85.2311 62.2721 85.5156 61.7271 85.544H61.4115V84.8612H61.6123C61.9565 84.8328 62.2147 84.6336 62.3581 84.2354C62.5015 83.8371 62.6163 83.1259 62.645 82.1017L62.7597 78.8017H66.3451Z" fill="white"/>
<path d="M69.4716 81.2483H71.0206C71.6516 81.2483 72.1679 81.4474 72.5408 81.8173C72.9136 82.1871 73.1144 82.7276 73.1144 83.3819C73.1144 84.0362 72.9136 84.5483 72.5408 84.9465C72.1679 85.3448 71.6516 85.544 71.0206 85.544H68.7832V78.8017H69.4716V81.2483ZM69.4716 81.9026V84.9182H71.0492C71.4794 84.9182 71.8236 84.7759 72.0532 84.5198C72.2826 84.2638 72.426 83.8939 72.426 83.4388C72.426 82.9836 72.3113 82.6138 72.0532 82.3578C71.795 82.0733 71.4794 81.9595 71.0492 81.9595H69.4716V81.9026Z" fill="white"/>
<path d="M79.5109 85.544H78.8224V82.4715H75.8967V85.544H75.2083V78.8017H75.8967V81.8173H78.8224V78.8017H79.5109V85.544Z" fill="white"/>
<path d="M82.666 81.2483H84.2149C84.8459 81.2483 85.3622 81.4474 85.7352 81.8173C86.1081 82.1871 86.3088 82.7276 86.3088 83.3819C86.3088 84.0362 86.1081 84.5483 85.7352 84.9465C85.3622 85.3448 84.8459 85.544 84.2149 85.544H81.9777V78.8017H82.666V81.2483ZM82.666 81.9026V84.9182H84.2436C84.6739 84.9182 85.0181 84.7759 85.2475 84.5198C85.4771 84.2638 85.6204 83.8939 85.6204 83.4388C85.6204 82.9836 85.5057 82.6138 85.2475 82.3578C84.9894 82.0733 84.6739 81.9595 84.2436 81.9595H82.666V81.9026ZM88.2019 85.544H87.5136V78.8017H88.2019V85.544Z" fill="white"/>
<path d="M92.8775 85.6578C92.103 85.6578 91.4719 85.4017 91.0417 84.8897C90.5827 84.3776 90.382 83.638 90.3533 82.6707V81.8457C90.3533 80.85 90.5541 80.0819 90.9843 79.513C91.4146 78.9439 91.9882 78.6595 92.7626 78.6595C93.4798 78.6595 94.0534 78.8871 94.4264 79.3707C94.7993 79.8543 95 80.5656 95 81.5613V82.2156H91.0417V82.5854C91.0417 83.3535 91.2137 83.9509 91.5293 84.3776C91.8449 84.8043 92.3325 85.0035 92.9061 85.0035C93.5658 85.0035 94.1108 84.7474 94.5124 84.2639L94.8566 84.7189C94.4264 85.3733 93.7667 85.6578 92.8775 85.6578ZM92.7626 79.3139C92.2177 79.3139 91.8162 79.513 91.5293 79.8828C91.2424 80.2811 91.0704 80.8215 91.0417 81.5613H94.3116V81.3906C94.283 80.025 93.7666 79.3139 92.7626 79.3139Z" fill="white"/>
<path d="M21.4266 98.8578H19.6196V91.319H16.952V98.8578H15.145V89.7828H21.4553V98.8578H21.4266Z" fill="white"/>
<path d="M25.4424 95.6716V98.8578H23.6353V89.7828H26.6757C27.5649 89.7828 28.282 90.0673 28.7983 90.6078C29.3146 91.1768 29.6015 91.888 29.6015 92.7699C29.6015 93.6518 29.3433 94.363 28.827 94.8751C28.3107 95.3871 27.5936 95.6432 26.6471 95.6432H25.4424V95.6716ZM25.4424 94.1639H26.6757C27.02 94.1639 27.2781 94.0501 27.4789 93.8225C27.6797 93.5949 27.7657 93.2535 27.7657 92.8267C27.7657 92.3716 27.6797 92.0018 27.4789 91.7458C27.2781 91.4897 27.02 91.3475 26.7044 91.3475H25.4424V94.1639Z" fill="white"/>
<path d="M35.9406 89.8111H37.7476V98.8862H35.9406V92.8836L33.3016 98.8862H31.4659V89.8111H33.3016V95.8138L35.9406 89.8111Z" fill="white"/>
<path d="M46.238 95.1595C46.238 96.3828 45.9511 97.3216 45.3774 98.0043C44.8038 98.6871 44.0293 99.0001 42.9967 99.0001C41.9928 99.0001 41.1896 98.6587 40.6159 98.0043C40.0423 97.3501 39.7554 96.4113 39.7267 95.2165V93.6518C39.7267 92.4001 40.0136 91.4328 40.5872 90.7216C41.1609 90.0104 41.9641 89.669 42.968 89.669C43.9719 89.669 44.7463 90.0104 45.3201 90.6932C45.8937 91.376 46.1805 92.3432 46.2092 93.5949V95.1595H46.238ZM44.4309 93.6234C44.4309 92.7984 44.3162 92.201 44.0866 91.8027C43.8572 91.4043 43.4843 91.2052 43.0254 91.2052C42.5377 91.2052 42.1935 91.4043 41.9641 91.7742C41.7346 92.1725 41.6198 92.7414 41.6198 93.538V95.1595C41.6198 95.9561 41.7346 96.5251 41.9641 96.9234C42.1935 97.2932 42.5664 97.4923 43.054 97.4923C43.513 97.4923 43.8859 97.3216 44.1153 96.9518C44.3448 96.5819 44.4595 96.013 44.4595 95.2449V93.6234H44.4309Z" fill="white"/>
<path d="M50.0815 95.6716V98.8578H48.2745V89.7828H51.3436C52.2328 89.7828 52.9499 90.0673 53.4662 90.6078C53.9825 91.1768 54.2693 91.888 54.2693 92.7699C54.2693 93.6518 54.0112 94.363 53.4949 94.8751C52.9786 95.3871 52.2615 95.6432 51.3149 95.6432H50.0815V95.6716ZM50.0815 94.1639H51.3149C51.6591 94.1639 51.9173 94.0501 52.118 93.8225C52.3189 93.5949 52.4049 93.2535 52.4049 92.8267C52.4049 92.3716 52.3189 92.0018 52.118 91.7458C51.9173 91.4897 51.6591 91.3475 51.3436 91.3475H50.0815V94.1639Z" fill="white"/>
<path d="M60.5796 89.8111H62.3867V98.8862H60.5796V92.8836L57.9408 98.8862H56.105V89.8111H57.9408V95.8138L60.5796 89.8111Z" fill="white"/>
<path d="M70.2174 91.319H67.98V98.8578H66.1444V91.319H63.9644V89.7828H70.1887V91.319H70.2174Z" fill="white"/>
<path d="M76.6139 94.9319H73.7742V97.3501H77.1588V98.8578H71.9958V89.7828H77.1588V91.319H73.8315V93.4526H76.6712V94.9319H76.6139Z" fill="white"/>
<path d="M84.8461 91.319H82.6087V98.8578H80.7729V91.319H78.593V89.7828H84.8173V91.319H84.8461Z" fill="white"/>
<path d="M88.4602 93.0543H89.5214C90.4393 93.0543 91.1564 93.3104 91.7014 93.8225C92.2463 94.3345 92.5045 95.0458 92.5045 95.8992C92.5045 96.7811 92.2463 97.4638 91.7014 98.0043C91.1851 98.5449 90.468 98.8293 89.6075 98.8293H86.6244V89.7543H88.4602V93.0543ZM88.4602 94.5621V97.3216H89.5501C89.8944 97.3216 90.1811 97.1793 90.382 96.9234C90.5827 96.6673 90.6974 96.2975 90.6974 95.8992C90.6974 95.501 90.6114 95.188 90.4107 94.9319C90.2098 94.676 89.923 94.5621 89.5788 94.5621H88.4602ZM94.7993 98.8578H92.9922V89.7828H94.7993V98.8578Z" fill="white"/>
<rect x="51" y="34" width="13" height="2" fill="white"/>
<rect x="80" y="34" width="14" height="2" fill="white"/>
<path d="M5.9375 85.5439H0L8.40429 71.3483H14.3418L5.9375 85.5439Z" fill="white"/>
<path d="M44.4595 70.3921H29.4581L50.6551 35.1162H65.6567L44.4595 70.3921Z" fill="white"/>
<path d="M73.6307 70.3921H58.6292L79.7977 35.1162H94.7992L73.6307 70.3921Z" fill="white"/>
<path d="M73.6307 0H58.6292L79.7977 35.2759H94.7992L73.6307 0Z" fill="white"/>
<path d="M37.8624 34.337L51.4583 11.7207H36.4568L30.3759 21.8483L37.8624 34.337Z" fill="white"/>
<path d="M22.8608 34.337L15.2597 46.9965H30.2611L30.3759 46.8259L22.8608 34.337Z" fill="white"/>
<path d="M51.4583 11.6637L44.4596 0H29.4581L43.9719 24.1241L51.4583 11.6637Z" fill="white"/>
<path d="M59.1455 24.437H58.7727H44.144L50.6551 35.2759H65.6567L59.1455 24.437Z" fill="white"/>
</g>
<defs>
<clipPath id="clip0">
<rect width="95" height="99" fill="white"/>
</clipPath>
</defs>
</svg>
