<svg xmlns="http://www.w3.org/2000/svg" viewBox="0 0 150.55 154.49"><defs><style>.cls-1,.cls-10,.cls-3,.cls-4,.cls-5,.cls-6,.cls-7,.cls-9{fill:#fff;}.cls-1{fill-rule:evenodd;}.cls-2,.cls-3,.cls-4,.cls-5,.cls-6,.cls-7,.cls-9{isolation:isolate;}.cls-3,.cls-4,.cls-5,.cls-6,.cls-7,.cls-9{font-size:12px;font-family:MuseoCyrl-500, Museo Cyrl;font-weight:500;}.cls-3{letter-spacing:-0.02em;}.cls-4{letter-spacing:-0.01em;}.cls-6{letter-spacing:-0.02em;}.cls-7,.cls-8{letter-spacing:-0.01em;}.cls-9{letter-spacing:-0.07em;}</style></defs><g id="Слой_2" data-name="Слой 2"><g id="_Слой_2" data-name=" Слой 2"><g id="_Слой_3" data-name=" Слой 3"><path class="cls-1" d="M112.22,33.75a7.16,7.16,0,0,0-4-.64c2.36-.79,4-2.59,4.12-4.18a7.4,7.4,0,0,0-3.72.07c1.2-.87,3.1-2.46,2.88-4.79-1.13-.26-3.19.5-4.1.88,2.81-1.57,3.81-5.22,2.33-7.32-.86.5-4.83,4.56-5.46,5a17.49,17.49,0,0,0,3.55-5.59c.62-1.73.68-4.71-1.43-5.74A67.64,67.64,0,0,1,99.93,22.1a1.54,1.54,0,0,0-.61-.49A10.47,10.47,0,0,1,96.18,26a3,3,0,0,0-.41-.81c-1.33,2-4.8,4.74-5.93,6.4a2.48,2.48,0,0,0,.34,3.59c.48.47,1.43,1.35.62,2.55-1.32,1.91-4.23,1.84-5.08.19A2.28,2.28,0,0,0,87,34.14a2,2,0,0,1-2.62.85,4.12,4.12,0,0,1-1.49-1,1.84,1.84,0,0,0,2.63-1.94,1.91,1.91,0,0,1-2.68-.23,3.56,3.56,0,0,1-.69-3.42,9.26,9.26,0,0,1,2.57-4.17.7.7,0,0,0,.74.35c.29-.06.74-.31,1-.4a3,3,0,0,1,2.37.29,1.75,1.75,0,0,1,.94,1.89c1.6-.93,1-2.39-1-3A4.87,4.87,0,0,1,91.6,24.9a2.79,2.79,0,0,0,2.58.12c1.26-.59,1.54-2.06,1.19-2.4a1.41,1.41,0,0,1-1.26,1.08,5.81,5.81,0,0,1-3-.68,6.67,6.67,0,0,0-2.61-.45c1.42-.81,3.65-.71,4.43.51a2.25,2.25,0,0,0,.91-1.54c.37-2.1-1.24-3.2-3-3.2a.59.59,0,0,0-.8-.63.54.54,0,0,0-.19-.45H90a7,7,0,0,0,4.39-1.66c1.61-1.69-.93-3.87,0-5.56a8.21,8.21,0,0,0,2.74,1.07,6,6,0,0,1,.26,1c.39,1.93-1.5,2.23-1,4.28.21.92.91,1.2,1.14,2.29a1.72,1.72,0,0,1-.58,1.45,1.8,1.8,0,0,0,1.86-2.49c-.19-.48-.73-1-.71-1.54.78,1.08,1.46,1,2.68.63.55-.16.59.6.28,1.2a2,2,0,0,0,1-1.66,1,1,0,0,0-1.29-1.08c-.37.08-1.1.54-1.17-.17-.09-1.2,1.78-1.14,1.39-3.1-.2-1-1.3-1.51-3-1.75a4.17,4.17,0,0,1-.82-.91c-1-1.58-1.94-2-2.51-1.66s-1,.67-1.6,1a3.14,3.14,0,0,0-1.2.68c-.72.92-.06,2.35.35,3.22A4.06,4.06,0,0,1,92.84,15c-.32,1-2,1.7-3.08,1.93l-.19,0v-.4a14.08,14.08,0,0,0,.8-1.78c.69-1.85-.34-2.65-1.92-3a.76.76,0,0,0-.67-.08h0l0,.29-.21,0,0-.37h0a.79.79,0,0,0,.24-.58.88.88,0,0,0-.18-.52h.24l-.1-.1c-.06-.07-.16-.18-.25-.3a1.63,1.63,0,0,1-.11-.17l.17.12c.12.09.22.19.29.25l.1.09V8.7l-.1.1a3.12,3.12,0,0,1-.3.24l-.17.13A.88.88,0,0,1,87.42,9a3,3,0,0,1,.25-.3l.08-.1H86l.09.1a3.12,3.12,0,0,1,.24.3l.13.17A.64.64,0,0,1,86.3,9,3.07,3.07,0,0,1,86,8.8l-.1-.1v1.74l.1-.08a2.63,2.63,0,0,1,.29-.25l.17-.13a.88.88,0,0,1-.12.17,1.54,1.54,0,0,1-.25.29l-.09.1h.24a.84.84,0,0,0-.18.52.81.81,0,0,0,.24.58h0l0,.37-.21,0,0-.27h0a.73.73,0,0,0-.67.07c-1.57.34-2.61,1.13-1.91,3a11.72,11.72,0,0,0,.8,1.78v.26a14,14,0,0,1-5.16-3.27c-.09-.13-.16-.2-.21-.27V12.19a15.59,15.59,0,0,0,1.45-3.06c1-2.69-.48-3.83-2.81-4.33a1,1,0,0,0-.92-.11l-.06.44L76,5.06l0-.54-.28,0A1.11,1.11,0,0,0,76,2.72h.37a3.35,3.35,0,0,1-.66-.93,3.33,3.33,0,0,1,.93.67V.26a3.11,3.11,0,0,1-.93.66A3.46,3.46,0,0,1,76.35,0H74.16a3,3,0,0,1,.66.92A3.19,3.19,0,0,1,73.9.26v2.2a3.29,3.29,0,0,1,.92-.67,3.11,3.11,0,0,1-.66.93h.38a1.08,1.08,0,0,0-.4.85,1.12,1.12,0,0,0,.58,1l-.29,0,0,.54L74,5.14l-.06-.45a1,1,0,0,0-.92.12c-2.33.5-3.81,1.63-2.81,4.33a16.18,16.18,0,0,0,1.45,3.06v1.16c-.05.05-.11.13-.2.24a14,14,0,0,1-5.15,3.27v-.26a11.29,11.29,0,0,0,.8-1.78c.69-1.85-.35-2.65-1.92-3a.73.73,0,0,0-.67-.08h0l0,.29-.2,0,0-.38h0a.78.78,0,0,0,.24-.57.83.83,0,0,0-.19-.52h.24l-.08-.1-.25-.29c0-.06-.08-.12-.12-.17l.18.12.29.25.1.09V8.72l-.1.09-.29.25a.88.88,0,0,1-.17.12A.86.86,0,0,1,64.19,9l.24-.29.09-.1H62.78l.09.1c.06.07.16.18.24.29a1.36,1.36,0,0,1,.12.17l-.17-.12c-.12-.09-.23-.19-.3-.25l-.1-.09v1.74l.1-.1a3.12,3.12,0,0,1,.3-.24l.17-.12a1.36,1.36,0,0,1-.12.17l-.25.3-.09.1H63a.84.84,0,0,0-.18.52.83.83,0,0,0,.24.58h0L63,12l-.21,0,0-.27h0a.73.73,0,0,0-.67.07c-1.58.34-2.61,1.13-1.92,3a11.61,11.61,0,0,0,.8,1.77V17l-.19,0c-1.05-.23-2.76-.88-3.08-1.92a4.18,4.18,0,0,1,.6-2.55c.42-.87,1.08-2.3.35-3.22a3.1,3.1,0,0,0-1.19-.68c-.58-.31-.92-.6-1.6-1s-1.53.07-2.51,1.65a4.43,4.43,0,0,1-.82.91c-1.67.24-2.76.73-3,1.76-.39,2,1.49,1.89,1.38,3.1-.05.71-.79.24-1.16.16a1,1,0,0,0-1.29,1.09,2,2,0,0,0,1,1.65c-.32-.6-.27-1.36.28-1.2,1.21.37,1.91.45,2.68-.62,0,.56-.52,1.05-.71,1.53a1.79,1.79,0,0,0,1.86,2.49,1.72,1.72,0,0,1-.58-1.45c.23-1.08.93-1.37,1.14-2.29.47-2-1.42-2.35-1-4.28a5.17,5.17,0,0,1,.26-1,8.21,8.21,0,0,0,2.74-1.07c.9,1.69-1.64,3.88,0,5.56a7.11,7.11,0,0,0,4.4,1.66h.13a.52.52,0,0,0-.19.46.58.58,0,0,0-.8.62c-1.78,0-3.4,1.1-3,3.2a2.26,2.26,0,0,0,.91,1.54c.79-1.22,3-1.32,4.43-.51a6.66,6.66,0,0,0-2.6.45,6,6,0,0,1-3,.69,1.45,1.45,0,0,1-1.26-1.08c-.35.34-.05,1.8,1.2,2.39a2.74,2.74,0,0,0,2.57-.12,5.06,5.06,0,0,1,2.87-1.48c-2.06.58-2.64,2-1,3a1.72,1.72,0,0,1,.94-1.88,2.91,2.91,0,0,1,2.37-.3c.29.09.74.35,1,.4a.71.71,0,0,0,.75-.34,9,9,0,0,1,2.56,4.16,3.63,3.63,0,0,1-.68,3.43,1.92,1.92,0,0,1-2.68.22,1.83,1.83,0,0,0,2.62,1.94,3.86,3.86,0,0,1-1.48,1,2,2,0,0,1-2.63-.85A2.28,2.28,0,0,0,64.82,38c-.84,1.65-3.76,1.72-5.07-.19-.82-1.19.13-2.08.62-2.55a2.48,2.48,0,0,0,.34-3.59c-1.13-1.67-4.6-4.4-5.93-6.4a3,3,0,0,0-.41.81,10.41,10.41,0,0,1-3.14-4.42,1.45,1.45,0,0,0-.62.48,66.37,66.37,0,0,1-6.5-10.65c-2.11,1-2,4-1.43,5.74a17.78,17.78,0,0,0,3.55,5.59c-.64-.45-4.6-4.51-5.46-5-1.48,2.1-.48,5.75,2.32,7.32-.9-.37-3-1.15-4.09-.88-.23,2.33,1.67,3.92,2.87,4.79A7.37,7.37,0,0,0,38.16,29c.11,1.58,1.75,3.38,4.12,4.18a7.06,7.06,0,0,0-4,.64c.21,1.64,2,3.09,4.33,3.41a5.25,5.25,0,0,0-3.56,1.75A4.52,4.52,0,0,0,43,40.81a3.81,3.81,0,0,0-1.37.86.18.18,0,0,0-.21-.06.16.16,0,0,0-.08.21s0,0,0,0a.68.68,0,0,0-.32.45,3.2,3.2,0,0,0-.43.79l.13.1a.65.65,0,0,0,.13.46.67.67,0,0,0-.17.36l-1.09-.47a3.06,3.06,0,0,0,.64,2.32c.41.43.82.36.71.5l1.17.75a.68.68,0,0,0,.95.29v.1a1,1,0,0,0,.77,1c-.1.4,0,.67.56.83l4.45,10.76a.84.84,0,0,0,.41,1.13.59.59,0,0,0-.19.49.34.34,0,0,1,.55.21c.09.25-.38,1,.32,1.63a1.08,1.08,0,0,0,.69,1.19c0,.28.23,1.11.28,1.42-.32.42-1.06,1.11-1,1.85a.9.9,0,0,0,.72.84c-.19.94.35,1.39,1.19,1.43,0,.71.65.94,1.08,1a3.73,3.73,0,0,0,1,.65c-.41.52-.1,1.17.64,1.4a.92.92,0,0,0,.77.64.77.77,0,0,0,1,.33.79.79,0,0,0,.22-1c.17-.2.09-.58,0-.85a.9.9,0,0,0-.29-1.23,2.82,2.82,0,0,0-.17-.93c.58-.35,1.37-.84,1.64-1A10.42,10.42,0,0,1,62.89,67a14.75,14.75,0,0,1,1.89,0c.82.07,1.87.3,2.55-.19a.57.57,0,0,0,.26-.55c-.08-.49-.62-.91-.79-1.36,0-.12-.14-.31-.21-.5A2.63,2.63,0,0,0,68,64.29a2,2,0,0,0,1.14-1.65c-.66.31-2.25.74-2.46-.9-.17-1.43,1.11-2.62,3-2.13,1.37.35,3.31,3.25,1.54,4.45-.9.61-2.22,1.18-2.06,2.74a2.54,2.54,0,0,1,2.37-1c-1.48,1.09-2.63,1.2-4.12,2S65.06,70,64,70c-.83,0-1.27-.93-.51-1.65a2.06,2.06,0,0,0-2.12,1.26A1.89,1.89,0,0,0,62,72a2.51,2.51,0,0,0-1.31,3c.29,1.14,1.49,1.15,1,2.62A1.75,1.75,0,0,0,63,76.34a2.64,2.64,0,0,1,.39-1.14A3,3,0,0,0,65.06,78a2.64,2.64,0,0,0,3.14-.48,3.41,3.41,0,0,0,3.2,2.17,3.65,3.65,0,0,0,1.77-.58,4.71,4.71,0,0,0,2.11,2.17,4.75,4.75,0,0,0,2.11-2.17,3.83,3.83,0,0,0,1.78.58,3.42,3.42,0,0,0,3.19-2.17A2.64,2.64,0,0,0,85.5,78a3,3,0,0,0,1.66-2.82,2.64,2.64,0,0,1,.4,1.14,1.7,1.7,0,0,0,1.26,1.26c-.46-1.47.74-1.47,1-2.62a2.51,2.51,0,0,0-1.31-3,1.9,1.9,0,0,0,.63-2.4A2.06,2.06,0,0,0,87,68.35c.76.72.31,1.69-.51,1.65-1,0-2-1.34-3.39-2.11s-2.64-1-4.11-2a2.56,2.56,0,0,1,2.37,1c.16-1.56-1.16-2.13-2.06-2.74-1.77-1.2.17-4.1,1.54-4.45,1.92-.49,3.2.7,3,2.13-.2,1.64-1.79,1.2-2.46.9a2,2,0,0,0,1.14,1.65,2.45,2.45,0,0,0,1.78,0c0,.17,0,.31,0,.36-.16,1.38-.87,1.52-.61,2.08s2.72.36,3.41.46c1.11.16,2.08.58,3.17.8a20.5,20.5,0,0,1,3.57.69A23.17,23.17,0,0,1,96,69.92c1,.15.89.56,1.52.59s.87-.52,1.6-.74c.53-.15,1.15.07,1.69-.07s.54-.5.88-.71,1-.28,1.45-.63a.88.88,0,0,0,.23-.72,4.94,4.94,0,0,0,1.78-2.38.47.47,0,0,0,.38-.45.31.31,0,0,0,0-.1.83.83,0,0,0,.35-.7,1,1,0,0,0-.36-.74.36.36,0,0,0,0-.1.48.48,0,0,0-.2-.38,4.91,4.91,0,0,0-3.52-3.85s0,0,0-.06l0,0a.53.53,0,0,0-.12-.14,3,3,0,0,1-.6-.87,3.41,3.41,0,0,1,1,.74V56.11a3.45,3.45,0,0,1-1,.75,3.45,3.45,0,0,1,.75-1H99.36a3.41,3.41,0,0,1,.74,1,3.71,3.71,0,0,1-1-.75v2.47a3.88,3.88,0,0,1,1-.74,3.67,3.67,0,0,1-.74,1h.08a4.89,4.89,0,0,0-3.69,3.86.52.52,0,0,0-.24.42.18.18,0,0,0,0,.1,1,1,0,0,0-.36.75.86.86,0,0,0,.36.69.44.44,0,0,1,0,.1.47.47,0,0,0,.42.45,4.23,4.23,0,0,0,.3.69,1.81,1.81,0,0,1-1.18,1.11,10.45,10.45,0,0,1-4.72-1,4.32,4.32,0,0,1-2.07-1.24,2.81,2.81,0,0,1-.31-.89c0-.13,0-.24.06-.32a2,2,0,0,0,.83.65,2,2,0,0,1,.14-.59,1.9,1.9,0,0,0,1.73.81,2.43,2.43,0,0,1-.43-2.24c.62,1,3,1.27,3.39-.59a1.11,1.11,0,0,1-1.61-.55c-.25-.71.62-2.55-.18-3.94a3.56,3.56,0,0,0-3-1.94,1.52,1.52,0,0,0,.22-.68c-1.51.57-2.84.17-3.42-1.09a2.63,2.63,0,0,0,1.15.2c-1.33-1.12-1.26-4.18-.3-5.8.12-.06.19-.14.3-.2.31.62,1.17.62,1.61,1.08a2.8,2.8,0,0,1,.45-.34,35.31,35.31,0,0,0,.2,3.53c.19,1.19,1.29,1,1.89,1.57.69-.71,1.91-.7,1.73-2s-.45-2.51-.49-3.35c.39.77,1.12,3.72,1.44,4.59.47,1.26,1.67.9,2.36,1.34.46-.87,1.57-1.11,1.13-2.39-.12-.35-2-4.28-2.21-5,.64.94,2.39,4.36,3,5.31s1.73.54,2.54.8c.16-.76,1.25-1.56.47-2.81-1-1.67-3.34-4.57-3.51-5,.51.41,4.12,4.93,4.42,5.2.84.73,2.09.18,2.79.17,0-.84.69-1.79-.28-2.72s-2.85-2.27-3.29-2.74c1.34.89,2.91,2.37,3.87,2.61a3.47,3.47,0,0,0,2.86-.49c-.54-1.51.14-2.22-3.37-3.7,3.07,1.09,4.4.56,5.47-.3a4.22,4.22,0,0,0-2.37-2.3,4.55,4.55,0,0,0,3.89-1.87,5.26,5.26,0,0,0-3.57-1.75c2.3-.33,4.13-1.78,4.34-3.41ZM73.84,14.23c.44,0,.92,0,1.43,0s1,0,1.46,0a12.94,12.94,0,0,0,5.92,3h0c-1.39,0-3.82-.1-4.11-.45,0,.87,1.92,1.88,3.14,2.13A5.15,5.15,0,0,1,79,18.5a3.2,3.2,0,0,0,1.73,1.37,5.12,5.12,0,0,1-4.32,1.55,2.13,2.13,0,0,0,1.89.75,17.29,17.29,0,0,0-3,8,17.08,17.08,0,0,0-3-8,2.13,2.13,0,0,0,1.89-.75,5.12,5.12,0,0,1-4.32-1.55,3.26,3.26,0,0,0,1.74-1.37,5.28,5.28,0,0,1-2.73.37c1.23-.25,3.1-1.26,3.15-2.13-.29.35-2.72.45-4.11.45h0a13,13,0,0,0,5.91-3Zm-1,63.12c-1.79-.91-.79-4.46-.12-6A25,25,0,0,0,74.62,65c.32.78-.74,5-1,6.16a21,21,0,0,0-.7,6.21ZM68,75.13c-1.07,0-1.81-.65-1.28-1.56a1.93,1.93,0,0,0,1.33.64A3.65,3.65,0,0,0,68,75.13Zm-6.61-9.74A14.39,14.39,0,0,1,58,66.58a2.26,2.26,0,0,1-2.34-1.34c-.31-1-1.16-1.33-1.78-.71-.2-.13-.68-.22-.86.08a2.3,2.3,0,0,0-.45-.67,1.09,1.09,0,0,0-.45-1.35c-.06-1-.67-1-.88-1.38s-.1-.45.2-.53a.65.65,0,0,0-.47-.2.91.91,0,0,0-.6-1.14L46,50.42c.72.07,1.85.51,2.63-.17.3-.27,3.92-4.79,4.41-5.2-.16.38-2.47,3.28-3.5,5-.79,1.25.31,2,.47,2.81.81-.26,1.92.19,2.54-.8s2.34-4.38,3-5.31c-.26.72-2.1,4.64-2.21,5-.45,1.29.66,1.52,1.12,2.39.69-.44,1.9-.08,2.36-1.34.32-.87,1-3.82,1.45-4.59,0,.84-.31,2-.5,3.35s1.05,1.26,1.73,2c.6-.52,1.71-.38,1.9-1.57.16-1,.19-3.53.19-3.53a2.87,2.87,0,0,1,.46.34c.44-.46,1.3-.46,1.61-1.08.11.06.18.14.3.2,1,1.62,1,4.68-.3,5.8a2.63,2.63,0,0,0,1.15-.2c-.58,1.25-1.91,1.65-3.43,1.09a1.82,1.82,0,0,0,.23.68,3.59,3.59,0,0,0-3,1.94c-.8,1.39.07,3.23-.17,3.94a1.11,1.11,0,0,1-1.61.55c.42,1.87,2.77,1.62,3.39.59a2.4,2.4,0,0,1-.43,2.24,1.91,1.91,0,0,0,1.73-.81,2.82,2.82,0,0,1,.14.59,2.11,2.11,0,0,0,.83-.65,2.77,2.77,0,0,1,0,1.13,13,13,0,0,1-1.2.65Zm-15.27-22-.69.31v-.08l.7-.23ZM43.85,44l0,.08h-.14a.13.13,0,0,1,0-.06Zm-2.12.3.07.06-.15.07c0,.17.07.34.11.5a1.09,1.09,0,0,1-.1.11c-.27,0-.26-.35-.21-.6a.4.4,0,0,0,.29-.14Zm.85,2.41-.44-.26a.44.44,0,0,1,.52-.09.46.46,0,0,1-.08.34Zm3,.91c.95-.24,2.52-1.72,3.87-2.61-.45.46-2.43,1.9-3.29,2.73s-.45,1.6-.33,2.34L45.32,49a.65.65,0,0,0-.22-1l0-.12a.78.78,0,0,0,0-.18A3,3,0,0,0,45.59,47.58Zm27.3,18.9c-.45.76-1.52,2-2,2.65a11.61,11.61,0,0,0-1.92,3.22c-.9-.11-.72-1.24-.41-1.8.6-1.11,3.12-2.59,4.39-4.07Zm4.78,10.88a20.73,20.73,0,0,0-.7-6.21c-.29-1.12-1.35-5.38-1-6.16a25.16,25.16,0,0,0,1.85,6.37c.68,1.53,1.67,5.08-.12,6Zm4.86-3.14a2,2,0,0,0,1.33-.64c.53.9-.2,1.55-1.28,1.56A4.22,4.22,0,0,0,82.53,74.22Zm-.47-3.67c.3.56.48,1.68-.42,1.8a12.14,12.14,0,0,0-1.93-3.22c-.53-.7-1.59-1.9-2-2.65C78.93,68,81.45,69.44,82.06,70.55Z"/><g class="cls-2"><text class="cls-3" transform="translate(24.76 100.87)">P</text><text class="cls-4" transform="translate(30.93 100.87)">r</text><text class="cls-5" transform="translate(34.72 100.87)">e</text><text class="cls-4" transform="translate(40.62 100.87)">s</text><text class="cls-5" transform="translate(45.21 100.87)">i</text><text class="cls-5" transform="translate(47.94 100.87)">d</text><text class="cls-5" transform="translate(54.63 100.87)">e</text><text class="cls-6" transform="translate(60.57 100.87)">n</text><text class="cls-7" transform="translate(67.04 100.87)">t</text><text class="cls-7" transform="translate(70.87 100.87)">i</text><text class="cls-4" transform="translate(73.54 100.87)">a</text><text class="cls-5" transform="translate(79.19 100.87)">l </text><text class="cls-3" transform="translate(84.57 100.87)">C</text><text class="cls-5" transform="translate(91.27 100.87)">o</text><text class="cls-7" transform="translate(97.78 100.87)">u</text><text class="cls-5" transform="translate(104.27 100.87)">n</text><text class="cls-7" transform="translate(110.86 100.87)">c</text><text class="cls-7" transform="translate(116.08 100.87)">i</text><text class="cls-5" transform="translate(118.75 100.87)">l </text><text class="cls-5" transform="translate(9.4 113.31)">f</text><text class="cls-5" transform="translate(12.82 113.31)">o</text><text class="cls-5" transform="translate(19.34 113.31)">r </text><text class="cls-5" transform="translate(25.81 113.31)">S</text><text class="cls-7" transform="translate(31.68 113.31)">c</text><text class="cls-5" transform="translate(36.9 113.31)">ie</text><text class="cls-5" transform="translate(45.55 113.31)">n</text><text class="cls-6" transform="translate(52.14 113.31)">c</text><text class="cls-5" transform="translate(57.28 113.31)">e </text><text class="cls-4" transform="translate(65.84 113.31)">a</text><text class="cls-5" transform="translate(71.49 113.31)">n</text><text class="cls-5" transform="translate(78.09 113.31)">d </text><text class="cls-3" transform="translate(87.4 113.31)">E</text><text class="cls-7" transform="translate(93.09 113.31)">d</text><text class="cls-5" transform="translate(99.71 113.31)">u</text><text class="cls-5" transform="translate(106.25 113.31)">c</text><text class="cls-4" transform="translate(111.59 113.31)">a</text><text class="cls-7" transform="translate(117.2 113.31)">t</text><text class="cls-5" transform="translate(121.03 113.31)">i</text><text class="cls-5" transform="translate(123.75 113.31)">o</text><text class="cls-5" transform="translate(130.27 113.31)">n</text></g><g class="cls-2"><text class="cls-3" transform="translate(20.36 138.92)">C</text><text class="cls-5" transform="translate(27.06 138.92)">o</text><text class="cls-5" transform="translate(33.65 138.92)">o</text><text class="cls-6" transform="translate(40.17 138.92)">r<tspan class="cls-8" x="4.27" y="0">d</tspan></text><text class="cls-7" transform="translate(50.61 138.92)">i</text><text class="cls-4" transform="translate(53.28 138.92)">n</text><text class="cls-4" transform="translate(59.82 138.92)">a</text><text class="cls-7" transform="translate(65.43 138.92)">t</text><text class="cls-5" transform="translate(69.25 138.92)">i</text><text class="cls-5" transform="translate(71.98 138.92)">o</text><text class="cls-5" transform="translate(78.5 138.92)">n </text><text class="cls-3" transform="translate(87.7 138.92)">C</text><text class="cls-5" transform="translate(94.4 138.92)">o</text><text class="cls-7" transform="translate(100.92 138.92)">u</text><text class="cls-5" transform="translate(107.41 138.92)">n</text><text class="cls-7" transform="translate(114 138.92)">c</text><text class="cls-7" transform="translate(119.22 138.92)">i</text><text class="cls-5" transform="translate(121.88 138.92)">l </text><text class="cls-5" transform="translate(36.88 151.65)">f</text><text class="cls-5" transform="translate(40.3 151.65)">o</text><text class="cls-5" transform="translate(46.82 151.65)">r </text><text class="cls-9" transform="translate(53.28 151.65)">Y</text><text class="cls-5" transform="translate(58.95 151.65)">o</text><text class="cls-5" transform="translate(65.46 151.65)">u</text><text class="cls-7" transform="translate(71.99 151.65)">t</text><text class="cls-5" transform="translate(75.81 151.65)">h </text><text class="cls-3" transform="translate(85.02 151.65)">A</text><text class="cls-5" transform="translate(92.17 151.65)">ff</text><text class="cls-4" transform="translate(99.15 151.65)">a</text><text class="cls-7" transform="translate(104.8 151.65)">i</text><text class="cls-5" transform="translate(107.47 151.65)">rs</text></g><rect class="cls-10" y="123.21" width="150.55" height="1.11"/></g></g></g></svg>