<?xml version="1.0" encoding="utf-8"?>
<!-- Generator: Adobe Illustrator 24.1.0, SVG Export Plug-In . SVG Version: 6.00 Build 0)  -->
<svg version="1.1" id="Layer_3" xmlns="http://www.w3.org/2000/svg" xmlns:xlink="http://www.w3.org/1999/xlink" x="0px" y="0px"
	 viewBox="0 0 164 113" style="enable-background:new 0 0 164 113;" xml:space="preserve">
<style type="text/css">
	.st0{opacity:0.7;}
	.st1{fill:#FFFFFF;}
	.st2{fill:#FFFFFF;filter:url(#Adobe_OpacityMaskFilter);}
	.st3{mask:url(#path-1-outside-1_1_1776_1_);fill:#FFFFFF;}
</style>
<g>
	<g class="st0">
		<path class="st1" d="M161.8,78.5l-0.3,0c0.2-1.9-0.6-3.9-2.3-6c-8.6-10.3-39.7-20.1-75.6-23.9c-35.8-3.8-68.2-0.7-78.8,7.6
			c-2.1,1.6-3.3,3.5-3.5,5.4l-0.3,0l1.2-11.6c0.2-1.9,1.3-3.8,3.4-5.4c10.4-8.4,43-11.6,79.2-7.8c21.4,2.3,41.4,6.6,56.1,12.3
			c14.8,5.7,22.6,12.1,22,17.9L161.8,78.5C161.8,78.5,161.8,78.5,161.8,78.5z M54.2,46.7c9.2,0,19.2,0.5,29.4,1.6
			c35.9,3.8,67.1,13.7,75.8,24c1.2,1.5,2,2.9,2.3,4.3l1-9.7c1.2-11.8-33.7-25.2-77.9-29.9c-36.2-3.8-68.6-0.7-79,7.7
			c-2,1.6-3.1,3.4-3.3,5.2l-1,9.7c0.6-1.3,1.6-2.6,3.1-3.7C12.2,50,31,46.7,54.2,46.7z"/>
		<path class="st1" d="M41.5,103.5h-0.2v-0.1l0,0.1c-2.5-0.2-4.5-1-5.9-2.5l-0.2-0.2c-1-1.1-1.7-2.5-2-4.2c-0.3-1.7-0.3-3.6,0.1-5.8
			c0.4-2.2,1.1-4.6,2.1-7.2c1-2.6,2.3-5.4,3.9-8.3c3.2-5.9,7.5-12.2,12.7-18.8c5.4-6.8,11.5-13.6,18.2-20.1
			c6.7-6.6,13.7-12.5,20.6-17.7c6.7-5,13.1-9.1,19-12.1c2.9-1.5,5.7-2.7,8.3-3.6c2.6-0.9,5-1.5,7.1-1.8c2.2-0.3,4.1-0.2,5.7,0.1
			c1.7,0.4,3,1.1,4.1,2.2l0.2,0.2c1.4,1.5,2.1,3.5,2.2,6.1l0,0.2l-0.5,0c-12.4-0.7-36.3,13.8-58.4,35.3
			c-22,21.5-37.3,45.2-37.2,57.8L41.5,103.5z M128,1.3c-0.8,0-1.7,0.1-2.7,0.2c-2.1,0.3-4.5,0.9-7.1,1.8c-2.6,0.9-5.3,2.1-8.3,3.6
			c-5.9,3-12.3,7.1-19,12C84.1,24.1,77.2,30,70.5,36.6c-6.7,6.5-12.9,13.3-18.2,20.1c-5.2,6.6-9.4,12.9-12.7,18.8
			c-1.6,2.9-2.9,5.7-3.9,8.2c-1,2.6-1.7,5-2.1,7.1c-0.4,2.2-0.4,4.1-0.1,5.7c0.3,1.7,0.9,3,1.9,4.1l0.2,0.2c1.3,1.4,3.2,2.2,5.5,2.4
			v0C40.9,90.5,56.2,66.6,78.4,45C100,24,123.5,9.6,136.1,9.6c0.3,0,0.7,0,1,0h0c-0.1-2.4-0.8-4.4-2.1-5.7l-0.2-0.2
			c-1-1-2.3-1.8-3.9-2.1C130.1,1.4,129.1,1.3,128,1.3z"/>
		<path class="st1" d="M108.7,93.6c-9.5,0-19.4-0.5-29.5-1.6c-10.8-1.1-21.3-2.8-31.1-5c-9.5-2.1-17.9-4.6-25-7.3
			c-3.5-1.4-6.7-2.8-9.5-4.2c-2.8-1.5-5.2-3-7-4.5c-1.9-1.5-3.4-3.1-4.3-4.6c-1-1.6-1.4-3.1-1.2-4.6l0-0.3c0.2-2,1.4-3.9,3.6-5.6
			l0.1-0.1l0.3,0.4h0C14,66.4,44.9,76.1,80.4,79.8c35.5,3.8,67.7,0.7,78.5-7.3l0.4-0.3l0.1,0.1c1.8,2.1,2.6,4.2,2.4,6.2l0,0.3
			c-0.2,1.5-0.9,2.9-2.1,4.3c-1.2,1.3-2.9,2.5-5.1,3.6c-2.2,1.1-4.8,2-7.8,2.9c-3,0.8-6.4,1.6-10.1,2.2c-7.6,1.2-16.3,1.8-26,1.9
			C110,93.6,109.3,93.6,108.7,93.6z M4.7,56.2c-2,1.6-3.2,3.4-3.4,5.3l0,0.3c-0.1,1.4,0.2,2.9,1.2,4.4c0.9,1.5,2.3,3,4.2,4.5
			c1.9,1.5,4.2,3,7,4.4c2.8,1.4,5.9,2.9,9.5,4.2c7.2,2.8,15.6,5.2,25,7.3c9.8,2.2,20.2,3.9,31,5c10.8,1.1,21.4,1.7,31.4,1.6
			c9.7-0.1,18.4-0.7,25.9-1.9c3.7-0.6,7.1-1.3,10.1-2.2c3-0.8,5.6-1.8,7.7-2.9c2.2-1.1,3.9-2.3,5-3.5c1.2-1.3,1.9-2.7,2-4.1l0-0.3
			c0.2-1.9-0.6-3.9-2.2-5.9l-0.1,0c-10.7,8.2-43.2,11.3-78.8,7.5C44.7,76.3,13.6,66.5,4.7,56.2L4.7,56.2z"/>
		<path class="st1" d="M50.4,112c-0.1,0-0.2,0-0.4,0c-2.9-0.1-5.2-0.9-6.7-2.5l-7.9-8.4l0.2-0.2c1.3,1.4,3.2,2.2,5.7,2.4
			c0.4,0,0.8,0,1.2,0C55.1,103.3,78.4,89,100,68c22.3-21.7,37.5-45.6,37.2-58.1c-0.1-2.5-0.8-4.5-2.1-5.9l0.2-0.2l7.9,8.4
			c8.2,8.7-7.5,37.6-35.1,64.5C86.4,97.9,63.3,112,50.4,112z M37,102.3l6.6,7c1.5,1.6,3.7,2.4,6.5,2.4c6,0.1,14.9-3.2,25.1-9.4
			C85.8,96,97.1,87,108,76.4c27.4-26.7,43.1-55.4,35-64.1l-6.6-7c0.6,1.2,1,2.7,1,4.4c0.4,12.6-14.9,36.6-37.2,58.4
			c-21.6,21.1-45,35.4-57.7,35.4c-0.4,0-0.8,0-1.2,0C39.6,103.4,38.2,103,37,102.3z"/>
		<defs>
			<filter id="Adobe_OpacityMaskFilter" filterUnits="userSpaceOnUse" x="0.6" y="0.6" width="162.8" height="111.8">
				<feColorMatrix  type="matrix" values="1 0 0 0 0  0 1 0 0 0  0 0 1 0 0  0 0 0 1 0"/>
			</filter>
		</defs>
		<mask maskUnits="userSpaceOnUse" x="0.6" y="0.6" width="162.8" height="111.8" id="path-1-outside-1_1_1776_1_">
			<rect class="st2" width="164" height="113"/>
			<path d="M161.8,78.5l-0.3,0c0.2-1.9-0.6-3.9-2.3-6c-8.6-10.3-39.7-20.1-75.6-23.9c-35.8-3.8-68.2-0.7-78.8,7.6
				c-2.1,1.6-3.3,3.5-3.5,5.4l-0.3,0l1.2-11.6c0.2-1.9,1.3-3.8,3.4-5.4c10.4-8.4,43-11.6,79.2-7.8c21.4,2.3,41.4,6.6,56.1,12.3
				c14.8,5.7,22.6,12.1,22,17.9L161.8,78.5C161.8,78.5,161.8,78.5,161.8,78.5z M54.2,46.7c9.2,0,19.2,0.5,29.4,1.6
				c35.9,3.8,67.1,13.7,75.8,24c1.2,1.5,2,2.9,2.3,4.3l1-9.7c1.2-11.8-33.7-25.2-77.9-29.9c-36.2-3.8-68.6-0.7-79,7.7
				c-2,1.6-3.1,3.4-3.3,5.2l-1,9.7c0.6-1.3,1.6-2.6,3.1-3.7C12.2,50,31,46.7,54.2,46.7z"/>
			<path d="M41.5,103.5h-0.2v-0.1l0,0.1c-2.5-0.2-4.5-1-5.9-2.5l-0.2-0.2c-1-1.1-1.7-2.5-2-4.2c-0.3-1.7-0.3-3.6,0.1-5.8
				c0.4-2.2,1.1-4.6,2.1-7.2c1-2.6,2.3-5.4,3.9-8.3c3.2-5.9,7.5-12.2,12.7-18.8c5.4-6.8,11.5-13.6,18.2-20.1
				c6.7-6.6,13.7-12.5,20.6-17.7c6.7-5,13.1-9.1,19-12.1c2.9-1.5,5.7-2.7,8.3-3.6c2.6-0.9,5-1.5,7.1-1.8c2.2-0.3,4.1-0.2,5.7,0.1
				c1.7,0.4,3,1.1,4.1,2.2l0.2,0.2c1.4,1.5,2.1,3.5,2.2,6.1l0,0.2l-0.5,0c-12.4-0.7-36.3,13.8-58.4,35.3
				c-22,21.5-37.3,45.2-37.2,57.8L41.5,103.5z M128,1.3c-0.8,0-1.7,0.1-2.7,0.2c-2.1,0.3-4.5,0.9-7.1,1.8c-2.6,0.9-5.3,2.1-8.3,3.6
				c-5.9,3-12.3,7.1-19,12C84.1,24.1,77.2,30,70.5,36.6c-6.7,6.5-12.9,13.3-18.2,20.1c-5.2,6.6-9.4,12.9-12.7,18.8
				c-1.6,2.9-2.9,5.7-3.9,8.2c-1,2.6-1.7,5-2.1,7.1c-0.4,2.2-0.4,4.1-0.1,5.7c0.3,1.7,0.9,3,1.9,4.1l0.2,0.2
				c1.3,1.4,3.2,2.2,5.5,2.4v0C40.9,90.5,56.2,66.6,78.4,45C100,24,123.5,9.6,136.1,9.6c0.3,0,0.7,0,1,0h0c-0.1-2.4-0.8-4.4-2.1-5.7
				l-0.2-0.2c-1-1-2.3-1.8-3.9-2.1C130.1,1.4,129.1,1.3,128,1.3z"/>
			<path d="M108.7,93.6c-9.5,0-19.4-0.5-29.5-1.6c-10.8-1.1-21.3-2.8-31.1-5c-9.5-2.1-17.9-4.6-25-7.3c-3.5-1.4-6.7-2.8-9.5-4.2
				c-2.8-1.5-5.2-3-7-4.5c-1.9-1.5-3.4-3.1-4.3-4.6c-1-1.6-1.4-3.1-1.2-4.6l0-0.3c0.2-2,1.4-3.9,3.6-5.6l0.1-0.1l0.3,0.4h0
				C14,66.4,44.9,76.1,80.4,79.8c35.5,3.8,67.7,0.7,78.5-7.3l0.4-0.3l0.1,0.1c1.8,2.1,2.6,4.2,2.4,6.2l0,0.3
				c-0.2,1.5-0.9,2.9-2.1,4.3c-1.2,1.3-2.9,2.5-5.1,3.6c-2.2,1.1-4.8,2-7.8,2.9c-3,0.8-6.4,1.6-10.1,2.2c-7.6,1.2-16.3,1.8-26,1.9
				C110,93.6,109.3,93.6,108.7,93.6z M4.7,56.2c-2,1.6-3.2,3.4-3.4,5.3l0,0.3c-0.1,1.4,0.2,2.9,1.2,4.4c0.9,1.5,2.3,3,4.2,4.5
				c1.9,1.5,4.2,3,7,4.4c2.8,1.4,5.9,2.9,9.5,4.2c7.2,2.8,15.6,5.2,25,7.3c9.8,2.2,20.2,3.9,31,5c10.8,1.1,21.4,1.7,31.4,1.6
				c9.7-0.1,18.4-0.7,25.9-1.9c3.7-0.6,7.1-1.3,10.1-2.2c3-0.8,5.6-1.8,7.7-2.9c2.2-1.1,3.9-2.3,5-3.5c1.2-1.3,1.9-2.7,2-4.1l0-0.3
				c0.2-1.9-0.6-3.9-2.2-5.9l-0.1,0c-10.7,8.2-43.2,11.3-78.8,7.5C44.7,76.3,13.6,66.5,4.7,56.2L4.7,56.2z"/>
			<path d="M50.4,112c-0.1,0-0.2,0-0.4,0c-2.9-0.1-5.2-0.9-6.7-2.5l-7.9-8.4l0.2-0.2c1.3,1.4,3.2,2.2,5.7,2.4c0.4,0,0.8,0,1.2,0
				C55.1,103.3,78.4,89,100,68c22.3-21.7,37.5-45.6,37.2-58.1c-0.1-2.5-0.8-4.5-2.1-5.9l0.2-0.2l7.9,8.4c8.2,8.7-7.5,37.6-35.1,64.5
				C86.4,97.9,63.3,112,50.4,112z M37,102.3l6.6,7c1.5,1.6,3.7,2.4,6.5,2.4c6,0.1,14.9-3.2,25.1-9.4C85.8,96,97.1,87,108,76.4
				c27.4-26.7,43.1-55.4,35-64.1l-6.6-7c0.6,1.2,1,2.7,1,4.4c0.4,12.6-14.9,36.6-37.2,58.4c-21.6,21.1-45,35.4-57.7,35.4
				c-0.4,0-0.8,0-1.2,0C39.6,103.4,38.2,103,37,102.3z"/>
		</mask>
		<path class="st3" d="M107.8,76.6l0.1,0.1l0.3-0.3l-0.1-0.1L107.8,76.6z M161.8,78.5l0,0.4l0.4,0.1v-0.5L161.8,78.5z M161.5,78.5
			l-0.4,0l0,0.4l0.4,0L161.5,78.5z M159.2,72.5l0.3-0.3l0,0L159.2,72.5z M83.6,48.6l0,0.4l0,0L83.6,48.6z M4.8,56.1l0.2,0.3l0,0
			L4.8,56.1z M1.3,61.5l0,0.4l0.4,0l0-0.4L1.3,61.5z M1.1,61.5l-0.4,0l0,0.4l0.4,0L1.1,61.5z M2.2,49.9l-0.4,0l0,0L2.2,49.9z
			 M5.6,44.5l0.3,0.3l0,0L5.6,44.5z M84.8,36.7l0-0.4l0,0L84.8,36.7z M140.9,49.1l-0.1,0.4l0,0L140.9,49.1z M163,66.9l0.4,0v0
			L163,66.9z M161.8,78.5l-0.3,0.3l0.6,0.6l0.1-0.8L161.8,78.5z M83.6,48.3l0-0.4l0,0L83.6,48.3z M159.4,72.3l0.3-0.3v0L159.4,72.3z
			 M161.7,76.6l-0.4,0.1l0.8,0L161.7,76.6z M162.7,66.9l-0.4,0v0L162.7,66.9z M84.8,37l0-0.4h0L84.8,37z M5.8,44.7L6.1,45l0,0
			L5.8,44.7z M2.5,49.9l-0.4,0l0,0L2.5,49.9z M1.5,59.7l-0.4,0l0.8,0.2L1.5,59.7z M4.6,55.9l0.2,0.3h0L4.6,55.9z M41.5,103.5v0.4
			h0.4l0-0.4L41.5,103.5z M41.3,103.5h-0.4v0.4h0.4V103.5z M41.3,103.4h0.4l-0.8,0L41.3,103.4z M41.3,103.5l0,0.4l0.4,0l0-0.4
			L41.3,103.5z M35.4,101l-0.3,0.3l0,0L35.4,101z M35.2,100.8l0.3-0.3l0,0L35.2,100.8z M33.2,96.6l0.4-0.1l0,0L33.2,96.6z
			 M33.3,90.8l-0.4-0.1l0,0L33.3,90.8z M35.4,83.6l0.4,0.1l0,0L35.4,83.6z M39.3,75.3l0.4,0.2l0,0L39.3,75.3z M52,56.5l-0.3-0.2
			L52,56.5z M70.3,36.4L70,36.1l0,0L70.3,36.4z M90.8,18.7l-0.2-0.3v0L90.8,18.7z M109.9,6.6l0.2,0.4v0L109.9,6.6z M118.2,3l0.1,0.4
			v0L118.2,3z M125.3,1.2l-0.1-0.4l0,0L125.3,1.2z M131,1.3l-0.1,0.4l0,0L131,1.3z M135.1,3.5l0.3-0.3l0,0L135.1,3.5z M135.3,3.7
			L135,4l0,0L135.3,3.7z M137.5,9.8l-0.4,0l0,0L137.5,9.8z M137.5,10l0,0.4l0.4,0l0-0.4L137.5,10z M137,10l0-0.4l0,0L137,10z
			 M78.6,45.2l-0.3-0.3v0L78.6,45.2z M41.4,103.1l-0.4,0v0L41.4,103.1z M125.3,1.5l0.1,0.4v0L125.3,1.5z M118.3,3.3l0.1,0.4l0,0
			L118.3,3.3z M110,6.9l-0.2-0.4v0L110,6.9z M91,18.9l-0.2-0.3l0,0L91,18.9z M52.3,56.7l0.3,0.2l0,0L52.3,56.7z M39.6,75.5l-0.4-0.2
			l0,0L39.6,75.5z M35.7,83.7l0.4,0.1l0,0L35.7,83.7z M33.6,90.8l-0.4-0.1l0,0L33.6,90.8z M33.5,96.6l0.4-0.1l0,0L33.5,96.6z
			 M35.4,100.6l0.3-0.3l0,0L35.4,100.6z M35.6,100.8l-0.3,0.3l0,0L35.6,100.8z M41.1,103.2l0,0.4l0.4,0v-0.4H41.1z M41.1,103.2h0.4
			l0,0L41.1,103.2z M78.4,45l-0.3-0.3l0,0L78.4,45z M137.1,9.7l0,0.4l0,0h0V9.7z M137.2,9.7v0.4h0.4l0-0.4L137.2,9.7z M135.1,3.9
			l-0.3,0.3l0,0L135.1,3.9z M134.9,3.7l0.3-0.3l0,0L134.9,3.7z M131,1.6l0.1-0.4l0,0L131,1.6z M79.2,92l0-0.4l0,0L79.2,92z M48.1,87
			L48,87.4h0L48.1,87z M23.1,79.7L22.9,80l0,0L23.1,79.7z M13.6,75.4l0.2-0.4l0,0L13.6,75.4z M6.5,71l-0.2,0.3l0,0L6.5,71z
			 M2.2,66.4l0.3-0.2l0,0L2.2,66.4z M1,61.8l-0.4,0l0,0L1,61.8z M1.1,61.5l0.4,0l0,0L1.1,61.5z M4.6,55.9l0.2,0.3l0,0L4.6,55.9z
			 M4.8,55.8l0.3-0.3l-0.3-0.3l-0.3,0.2L4.8,55.8z M5.1,56.2v0.4H6l-0.6-0.7L5.1,56.2z M5.1,56.2v-0.4H4.2l0.6,0.7L5.1,56.2z
			 M158.9,72.5l0.2,0.3l0,0l0,0L158.9,72.5z M159.3,72.2l0.3-0.3l-0.3-0.3l-0.3,0.2L159.3,72.2z M159.4,72.3l0.3-0.3l0,0l0,0
			L159.4,72.3z M161.8,78.5l0.4,0v0L161.8,78.5z M161.8,78.8l-0.4,0l0,0L161.8,78.8z M159.7,83l-0.3-0.3l0,0L159.7,83z M154.5,86.6
			l0.2,0.4l0,0L154.5,86.6z M146.7,89.5l-0.1-0.4l0,0L146.7,89.5z M136.6,91.7l-0.1-0.4l0,0L136.6,91.7z M110.6,93.6l0-0.4l0,0
			L110.6,93.6z M4.7,56.2L5,56l-0.2-0.3l-0.3,0.3L4.7,56.2z M1.3,61.5l0.4,0l0,0L1.3,61.5z M1.3,61.8l-0.4,0l0,0L1.3,61.8z
			 M2.5,66.2L2.8,66l0,0L2.5,66.2z M6.7,70.7L7,70.4l0,0L6.7,70.7z M13.7,75.1l0.2-0.4l0,0L13.7,75.1z M23.2,79.4L23,79.7l0,0
			L23.2,79.4z M48.2,86.7l-0.1,0.4h0L48.2,86.7z M110.6,93.3l0,0.4l0,0L110.6,93.3z M136.5,91.4l0.1,0.4l0,0L136.5,91.4z
			 M146.6,89.2l-0.1-0.4l0,0L146.6,89.2z M154.4,86.4l-0.2-0.4l0,0L154.4,86.4z M159.4,82.8l-0.3-0.3v0L159.4,82.8z M161.5,78.7
			l-0.4,0l0,0L161.5,78.7z M161.5,78.5l0.4,0v0L161.5,78.5z M159.3,72.6l0.3-0.3l-0.3-0.3l-0.3,0.3L159.3,72.6z M159.2,72.6l0.2,0.3
			l0,0l0,0L159.2,72.6z M80.4,80.1l0-0.4h0L80.4,80.1z M4.7,56.3l-0.3,0.2l0,0l0,0L4.7,56.3z M50.1,112l0-0.4l0,0h0L50.1,112z
			 M43.3,109.5l-0.3,0.3h0L43.3,109.5z M35.4,101l-0.3-0.3l-0.3,0.3l0.3,0.3L35.4,101z M35.6,100.8l0.3-0.3l-0.3-0.3l-0.3,0.3
			L35.6,100.8z M41.3,103.2l0-0.4l0,0L41.3,103.2z M100,68l0.3,0.3v0L100,68z M137.2,9.8l0.4,0v0L137.2,9.8z M135.3,3.7l0.3-0.3
			l-0.3-0.3L135,3.4L135.3,3.7z M143.2,12.2l0.3-0.3l0,0L143.2,12.2z M108.2,76.6l-0.3-0.3v0L108.2,76.6z M37,102.3l0.2-0.3
			l-0.5,0.6L37,102.3z M43.6,109.3l0.3-0.3h0L43.6,109.3z M50.1,111.7l0-0.4h0L50.1,111.7z M75.2,102.3l0.2,0.3h0L75.2,102.3z
			 M108,76.4l0.3,0.3v0L108,76.4z M143,12.4l-0.3,0.3l0,0L143,12.4z M136.4,5.4l0.3-0.3l-0.6,0.5L136.4,5.4z M137.4,9.8l-0.4,0v0
			L137.4,9.8z M100.2,68.2l0.3,0.3l0,0L100.2,68.2z M42.5,103.6v0.4h0L42.5,103.6z M41.3,103.5l0,0.4h0L41.3,103.5z M161.8,78.1
			l-0.3,0l-0.1,0.8l0.3,0L161.8,78.1z M161.9,78.5c0.2-2.1-0.6-4.2-2.4-6.3l-0.6,0.5c1.7,2,2.4,3.9,2.2,5.7L161.9,78.5z M159.5,72.2
			c-2.2-2.6-5.8-5.2-10.5-7.6c-4.7-2.4-10.6-4.8-17.2-6.9c-13.4-4.2-30.1-7.6-48.1-9.5L83.6,49c17.9,1.9,34.6,5.3,47.9,9.5
			c6.7,2.1,12.4,4.4,17.1,6.8c4.7,2.4,8.2,4.9,10.3,7.4L159.5,72.2z M83.6,48.2c-17.9-1.9-35-2.1-49-0.7c-7,0.7-13.1,1.7-18.3,3.1
			c-5.1,1.4-9.2,3.2-11.9,5.3l0.5,0.6c2.6-2,6.5-3.7,11.6-5.1c5.1-1.4,11.2-2.4,18.1-3.1c13.9-1.3,30.9-1.2,48.8,0.7L83.6,48.2z
			 M4.6,55.8c-2.2,1.7-3.4,3.6-3.6,5.7l0.8,0.1c0.2-1.8,1.3-3.5,3.3-5.1L4.6,55.8z M1.4,61.1l-0.3,0L1,61.9l0.3,0L1.4,61.1z
			 M1.5,61.5L2.6,50l-0.8-0.1L0.7,61.5L1.5,61.5z M2.6,50c0.2-1.8,1.2-3.5,3.2-5.2l-0.5-0.6c-2.1,1.7-3.3,3.6-3.5,5.7L2.6,50z
			 M5.9,44.8c2.5-2.1,6.5-3.8,11.5-5.2c5.1-1.4,11.2-2.5,18.2-3.2c13.9-1.4,31.1-1.2,49.2,0.7l0.1-0.8c-18.1-1.9-35.4-2.1-49.4-0.7
			c-7,0.7-13.2,1.8-18.3,3.2C12.1,40.2,8,42,5.4,44.2L5.9,44.8z M84.8,37.1c21.4,2.3,41.3,6.6,56,12.3l0.3-0.7
			c-14.8-5.7-34.7-10.1-56.2-12.4L84.8,37.1z M140.8,49.4c7.4,2.8,13,5.8,16.7,8.8c3.7,3,5.4,5.9,5.1,8.6l0.8,0.1
			c0.3-3.1-1.6-6.3-5.4-9.3c-3.8-3.1-9.5-6.1-16.9-9L140.8,49.4z M162.6,66.9l-1.2,11.6l0.8,0.1l1.2-11.6L162.6,66.9z M162.1,78.2
			c0,0-0.1-0.1-0.2-0.1c-0.1,0-0.1,0-0.2,0c-0.1,0-0.2,0.1-0.2,0.1c-0.1,0.1-0.1,0.2-0.1,0.2c0,0,0,0,0,0c0,0,0,0,0,0c0,0,0,0,0,0
			c0,0,0,0,0,0c0,0,0,0,0,0c0,0,0,0,0,0c0,0,0,0,0,0c0,0,0,0,0.4,0c0.4,0,0.4,0,0.4,0c0,0,0,0,0,0c0,0,0,0,0,0c0,0,0,0,0,0
			c0,0,0,0,0,0c0,0,0,0,0,0c0,0,0,0,0,0c0,0,0,0,0,0c0,0,0,0,0,0.1c0,0,0,0.1-0.1,0.1c0,0-0.1,0.1-0.2,0.1c-0.1,0-0.2,0-0.2,0
			c-0.1,0-0.1-0.1-0.2-0.1L162.1,78.2z M54.2,47.1c9.2,0,19.2,0.5,29.4,1.6l0.1-0.8c-10.2-1.1-20.2-1.6-29.5-1.6V47.1z M83.6,48.7
			c17.9,1.9,34.7,5.3,48,9.5c6.7,2.1,12.5,4.4,17.2,6.8c4.7,2.4,8.2,5,10.3,7.5l0.6-0.5c-2.2-2.6-5.9-5.2-10.6-7.7
			c-4.7-2.5-10.6-4.8-17.3-6.9c-13.4-4.2-30.2-7.7-48.2-9.6L83.6,48.7z M159.1,72.6c1.2,1.4,1.9,2.8,2.2,4.1l0.8-0.2
			c-0.3-1.5-1.1-3-2.4-4.5L159.1,72.6z M162.1,76.7l1-9.7l-0.8-0.1l-1,9.7L162.1,76.7z M163.1,66.9c0.3-3.2-1.8-6.3-5.6-9.4
			c-3.8-3-9.5-6-16.6-8.7c-14.1-5.4-34-10-56.1-12.3l-0.1,0.8c22.1,2.3,41.8,6.8,55.9,12.2c7,2.7,12.6,5.6,16.4,8.6
			c3.8,3,5.6,5.9,5.3,8.6L163.1,66.9z M84.8,36.6c-18.1-1.9-35.3-2.1-49.3-0.7c-7,0.7-13.2,1.7-18.3,3.2c-5.1,1.4-9.1,3.2-11.8,5.3
			L6.1,45c2.5-2,6.4-3.8,11.5-5.2c5-1.4,11.2-2.5,18.1-3.1c13.9-1.4,31-1.2,49.1,0.7L84.8,36.6z M5.6,44.4c-2,1.6-3.2,3.5-3.4,5.5
			L2.9,50c0.2-1.7,1.2-3.4,3.1-5L5.6,44.4z M2.1,49.9l-1,9.7l0.8,0.1l1-9.7L2.1,49.9z M1.9,59.8c0.5-1.2,1.5-2.5,3-3.6l-0.5-0.6
			c-1.5,1.2-2.6,2.5-3.2,3.9L1.9,59.8z M4.9,56.2c3.7-2.9,10.2-5.2,18.7-6.8c8.5-1.6,19-2.4,30.6-2.4v-0.8
			c-11.6,0-22.2,0.8-30.7,2.4c-8.6,1.6-15.2,3.9-19.1,6.9L4.9,56.2z M41.5,103.1h-0.2v0.8h0.2V103.1z M41.7,103.5v-0.1h-0.8v0.1
			H41.7z M40.9,103.3l0,0.1l0.8,0.1l0-0.1L40.9,103.3z M41.3,103.1c-2.5-0.2-4.3-1-5.6-2.4l-0.6,0.5c1.5,1.6,3.5,2.4,6.2,2.6
			L41.3,103.1z M35.7,100.8l-0.2-0.2l-0.6,0.5l0.2,0.2L35.7,100.8z M35.5,100.6c-1-1-1.6-2.4-1.9-4l-0.8,0.1c0.3,1.8,1,3.3,2.1,4.4
			L35.5,100.6z M33.6,96.5c-0.3-1.6-0.3-3.5,0.1-5.7l-0.8-0.1c-0.4,2.2-0.4,4.2-0.1,6L33.6,96.5z M33.7,90.8
			c0.4-2.1,1.1-4.5,2.1-7.1l-0.7-0.3c-1,2.6-1.7,5.1-2.1,7.2L33.7,90.8z M35.8,83.7c1-2.6,2.3-5.3,3.9-8.2L39,75.1
			c-1.6,2.9-2.9,5.7-3.9,8.3L35.8,83.7z M39.7,75.5c3.2-5.9,7.5-12.2,12.7-18.8l-0.6-0.5c-5.2,6.6-9.5,12.9-12.7,18.9L39.7,75.5z
			 M52.3,56.8c5.4-6.8,11.5-13.6,18.2-20.1L70,36.1c-6.7,6.6-12.9,13.4-18.3,20.2L52.3,56.8z M70.6,36.7
			c6.7-6.5,13.6-12.5,20.5-17.6l-0.5-0.6C83.7,23.5,76.7,29.5,70,36.1L70.6,36.7z M91.1,19c6.7-5,13.1-9,19-12l-0.4-0.7
			c-6,3-12.4,7.1-19.1,12.1L91.1,19z M110.1,7c2.9-1.5,5.7-2.7,8.2-3.6L118,2.6c-2.6,0.9-5.4,2.1-8.3,3.6L110.1,7z M118.3,3.4
			c2.6-0.9,5-1.5,7.1-1.8l-0.1-0.8c-2.2,0.3-4.6,0.9-7.2,1.8L118.3,3.4z M125.4,1.6c2.2-0.3,4-0.2,5.6,0.1l0.2-0.8
			c-1.7-0.4-3.7-0.4-5.9-0.1L125.4,1.6z M130.9,1.7c1.6,0.4,2.9,1.1,3.9,2.1l0.6-0.5c-1.1-1.2-2.5-1.9-4.3-2.3L130.9,1.7z
			 M134.8,3.8L135,4l0.6-0.5l-0.2-0.2L134.8,3.8z M135,4c1.3,1.4,2,3.3,2.1,5.8l0.8,0c-0.1-2.7-0.8-4.8-2.3-6.4L135,4z M137.1,9.9
			l0,0.2l0.8,0l0-0.2L137.1,9.9z M137.5,9.6l-0.5,0l-0.1,0.8l0.5,0L137.5,9.6z M137,9.6c-3.2-0.2-7.1,0.6-11.4,2.2
			c-4.4,1.6-9.2,4-14.4,7.2c-10.3,6.2-21.9,15.2-32.9,26l0.6,0.6c11-10.7,22.5-19.7,32.7-25.9c5.1-3.1,10-5.5,14.3-7.1
			c4.3-1.6,8.1-2.3,11.1-2.2L137,9.6z M78.3,44.9C67.3,55.7,58,67,51.4,77.2c-3.3,5.1-5.9,10-7.7,14.3C42,95.9,41,99.8,41,103.1
			l0.8,0c0-3.1,0.9-6.9,2.6-11.2c1.7-4.3,4.3-9.1,7.6-14.2c6.5-10.2,15.8-21.4,26.8-32.2L78.3,44.9z M41,103.1l0,0.5l0.8,0l0-0.5
			L41,103.1z M128,0.9c-0.9,0-1.8,0.1-2.7,0.2l0.1,0.8c0.9-0.1,1.8-0.2,2.6-0.2V0.9z M125.3,1.1c-2.1,0.3-4.6,0.9-7.2,1.8l0.3,0.8
			c2.6-0.9,4.9-1.5,7-1.8L125.3,1.1z M118.1,2.9c-2.6,0.9-5.4,2.1-8.3,3.6l0.4,0.7c2.9-1.5,5.7-2.7,8.2-3.6L118.1,2.9z M109.8,6.5
			c-5.9,3-12.4,7.1-19,12.1l0.5,0.6c6.7-5,13-9,18.9-12L109.8,6.5z M90.8,18.6c-6.9,5.2-13.8,11.1-20.6,17.7l0.6,0.6
			c6.7-6.5,13.6-12.5,20.5-17.6L90.8,18.6z M70.2,36.3c-6.7,6.6-12.9,13.3-18.3,20.2l0.6,0.5c5.4-6.8,11.5-13.5,18.2-20.1L70.2,36.3
			z M51.9,56.4c-5.2,6.6-9.5,12.9-12.7,18.8l0.7,0.4c3.2-5.9,7.5-12.2,12.6-18.7L51.9,56.4z M39.2,75.3c-1.6,2.9-2.9,5.7-3.9,8.3
			l0.7,0.3c1-2.6,2.3-5.3,3.9-8.2L39.2,75.3z M35.3,83.6c-1,2.6-1.7,5-2.1,7.2l0.8,0.1c0.4-2.1,1.1-4.5,2.1-7L35.3,83.6z M33.2,90.8
			c-0.4,2.2-0.4,4.2-0.1,5.9l0.8-0.1c-0.3-1.6-0.2-3.5,0.1-5.6L33.2,90.8z M33.1,96.6c0.3,1.7,1,3.2,2,4.3l0.6-0.5
			c-0.9-1-1.5-2.3-1.8-3.9L33.1,96.6z M35.1,100.9l0.2,0.2l0.6-0.5l-0.2-0.2L35.1,100.9z M35.3,101.1c1.4,1.5,3.3,2.3,5.8,2.5
			l0.1-0.8c-2.3-0.2-4.1-1-5.3-2.3L35.3,101.1z M41.5,103.2L41.5,103.2l-0.8,0v0H41.5z M41.5,103.2c-0.1-3.1,0.8-6.9,2.6-11.2
			c1.7-4.3,4.3-9.2,7.6-14.3c6.6-10.2,15.9-21.6,27-32.4l-0.6-0.6C67,55.5,57.6,66.9,51,77.2c-3.3,5.1-5.9,10-7.7,14.4
			c-1.8,4.4-2.7,8.3-2.6,11.6L41.5,103.2z M78.7,45.3c10.8-10.5,22-19.3,32.1-25.5c10.1-6.2,19.1-9.7,25.3-9.7V9.2
			c-6.5,0-15.6,3.6-25.7,9.9c-10.2,6.2-21.5,15.1-32.3,25.6L78.7,45.3z M136.1,10c0.3,0,0.7,0,1,0l0.1-0.8c-0.3,0-0.7,0-1,0V10z
			 M137.1,10.1L137.1,10.1l0-0.8h0V10.1z M137.6,9.7c-0.1-2.5-0.8-4.5-2.2-6l-0.6,0.5c1.2,1.3,1.9,3.1,2,5.5L137.6,9.7z M135.4,3.7
			l-0.2-0.2L134.6,4l0.2,0.2L135.4,3.7z M135.2,3.5c-1-1.1-2.4-1.9-4.1-2.3L130.9,2c1.6,0.4,2.8,1,3.7,2L135.2,3.5z M131.1,1.2
			c-0.9-0.2-1.9-0.3-3-0.3v0.8c1.1,0,2,0.1,2.9,0.3L131.1,1.2z M108.7,93.2c-9.4,0-19.4-0.5-29.5-1.6l-0.1,0.8
			c10.2,1.1,20.1,1.6,29.6,1.6V93.2z M79.2,91.6c-10.8-1.1-21.3-2.8-31-5L48,87.4c9.8,2.2,20.3,3.9,31.1,5L79.2,91.6z M48.2,86.6
			c-9.4-2.1-17.8-4.6-25-7.3L22.9,80c7.2,2.8,15.6,5.2,25.1,7.3L48.2,86.6z M23.2,79.3c-3.5-1.4-6.7-2.8-9.4-4.2l-0.4,0.7
			c2.8,1.5,6,2.9,9.5,4.3L23.2,79.3z M13.8,75.1c-2.8-1.5-5.1-2.9-7-4.4l-0.5,0.6c1.9,1.5,4.3,3,7.1,4.5L13.8,75.1z M6.8,70.6
			c-1.9-1.5-3.3-3-4.2-4.5l-0.7,0.4c1,1.6,2.4,3.1,4.4,4.7L6.8,70.6z M2.6,66.2c-0.9-1.5-1.3-3-1.2-4.4l-0.8-0.1
			c-0.2,1.6,0.3,3.2,1.3,4.9L2.6,66.2z M1.4,61.8l0-0.3l-0.8-0.1l0,0.3L1.4,61.8z M1.5,61.5c0.2-1.9,1.3-3.7,3.4-5.3l-0.5-0.6
			c-2.2,1.7-3.5,3.7-3.7,5.9L1.5,61.5z M4.9,56.2L5,56.1l-0.5-0.6l-0.1,0.1L4.9,56.2z M4.5,56.1l0.3,0.4l0.6-0.5l-0.3-0.4L4.5,56.1z
			 M5.1,55.8L5.1,55.8l0,0.8h0V55.8z M4.8,56.5c2.3,2.6,5.9,5.1,10.7,7.5c4.7,2.4,10.6,4.7,17.2,6.8C46,75,62.6,78.3,80.4,80.2
			l0.1-0.8c-17.7-1.9-34.3-5.2-47.6-9.4c-6.6-2.1-12.4-4.4-17.1-6.7c-4.7-2.4-8.2-4.9-10.4-7.4L4.8,56.5z M80.4,80.2
			c17.8,1.9,34.7,2.1,48.6,0.8c6.9-0.6,13.1-1.7,18.2-3c5.1-1.4,9.2-3.1,12-5.1l-0.5-0.6c-2.6,2-6.6,3.7-11.7,5
			c-5.1,1.4-11.2,2.4-18.1,3c-13.8,1.3-30.7,1.1-48.4-0.8L80.4,80.2z M159.2,72.8l0.4-0.3l-0.5-0.6l-0.4,0.3L159.2,72.8z M159,72.5
			l0.1,0.1l0.6-0.6l-0.1-0.1L159,72.5z M159.1,72.5c1.7,2.1,2.5,4.1,2.3,5.9l0.8,0.1c0.2-2.2-0.6-4.3-2.5-6.5L159.1,72.5z
			 M161.4,78.5l0,0.3l0.8,0.1l0-0.3L161.4,78.5z M161.4,78.7c-0.1,1.4-0.8,2.8-2,4l0.6,0.5c1.3-1.4,2.1-2.9,2.2-4.5L161.4,78.7z
			 M159.4,82.7c-1.2,1.2-2.8,2.4-5,3.5l0.4,0.7c2.2-1.1,4-2.3,5.2-3.7L159.4,82.7z M154.3,86.2c-2.1,1.1-4.7,2-7.7,2.9l0.2,0.8
			c3-0.9,5.7-1.8,7.9-2.9L154.3,86.2z M146.6,89.1c-3,0.8-6.4,1.6-10.1,2.1l0.1,0.8c3.7-0.6,7.2-1.3,10.2-2.2L146.6,89.1z
			 M136.5,91.3c-7.5,1.2-16.3,1.8-25.9,1.9l0,0.8c9.7-0.1,18.5-0.7,26.1-1.9L136.5,91.3z M110.6,93.2c-0.6,0-1.2,0-1.9,0V94
			c0.6,0,1.3,0,1.9,0L110.6,93.2z M4.5,55.9c-2.1,1.7-3.3,3.5-3.5,5.6l0.8,0.1c0.2-1.7,1.2-3.4,3.2-5L4.5,55.9z M0.9,61.5l0,0.3
			l0.8,0.1l0-0.3L0.9,61.5z M0.9,61.7c-0.2,1.5,0.3,3.1,1.2,4.7L2.8,66c-0.9-1.4-1.2-2.9-1.1-4.2L0.9,61.7z M2.1,66.4
			c0.9,1.5,2.4,3.1,4.3,4.6L7,70.4c-1.9-1.5-3.3-3-4.1-4.4L2.1,66.4z M6.5,71c1.9,1.5,4.3,3,7.1,4.5l0.4-0.7
			c-2.8-1.4-5.1-2.9-6.9-4.4L6.5,71z M13.5,75.5c2.8,1.5,6,2.9,9.5,4.2l0.3-0.7c-3.5-1.4-6.7-2.8-9.4-4.2L13.5,75.5z M23,79.7
			c7.2,2.8,15.6,5.2,25.1,7.3l0.2-0.8c-9.4-2.1-17.8-4.6-24.9-7.3L23,79.7z M48.1,87.1c9.8,2.2,20.2,3.9,31.1,5l0.1-0.8
			c-10.8-1.1-21.2-2.8-31-5L48.1,87.1z M79.2,92.1c10.8,1.1,21.4,1.7,31.4,1.6l0-0.8c-10,0.1-20.5-0.5-31.3-1.6L79.2,92.1z
			 M110.6,93.7c9.7-0.1,18.4-0.7,26-1.9l-0.1-0.8c-7.5,1.2-16.2,1.8-25.9,1.9L110.6,93.7z M136.6,91.8c3.7-0.6,7.1-1.3,10.2-2.2
			l-0.2-0.8c-3,0.8-6.4,1.6-10.1,2.1L136.6,91.8z M146.8,89.6c3-0.8,5.7-1.8,7.8-2.9l-0.4-0.7c-2.1,1-4.7,2-7.7,2.8L146.8,89.6z
			 M154.6,86.7c2.2-1.1,3.9-2.3,5.2-3.6l-0.6-0.5c-1.1,1.2-2.8,2.4-4.9,3.4L154.6,86.7z M159.7,83.1c1.3-1.3,2-2.8,2.1-4.3l-0.8-0.1
			c-0.1,1.3-0.8,2.6-1.9,3.9L159.7,83.1z M161.9,78.8l0-0.3l-0.8-0.1l0,0.3L161.9,78.8z M161.9,78.5c0.2-2-0.6-4.1-2.3-6.2l-0.6,0.5
			c1.6,2,2.3,3.9,2.1,5.6L161.9,78.5z M159,72.3L159,72.3l0.5,0.7l0.1,0L159,72.3z M159,72.3c-2.6,2-6.6,3.7-11.7,5.1
			c-5.1,1.4-11.2,2.4-18.2,3.1c-13.9,1.3-30.9,1.1-48.7-0.7l-0.1,0.8c17.9,1.9,34.9,2.1,48.9,0.7c7-0.7,13.2-1.7,18.3-3.1
			c5.1-1.4,9.2-3.1,12-5.2L159,72.3z M80.4,79.7c-17.8-1.9-34.5-5.3-47.8-9.5c-6.7-2.1-12.5-4.4-17.2-6.8C10.8,61,7.2,58.5,5.1,56
			l-0.6,0.5c2.3,2.6,5.9,5.2,10.7,7.6c4.7,2.4,10.6,4.7,17.3,6.9c13.4,4.2,30.1,7.6,48,9.5L80.4,79.7z M5.1,56L5.1,56l-0.7,0.4
			l0,0.1L5.1,56z M50.4,111.6c-0.1,0-0.2,0-0.3,0l0,0.8c0.1,0,0.3,0,0.4,0V111.6z M50.1,111.6c-2.9-0.1-5-0.9-6.4-2.4l-0.6,0.5
			c1.6,1.7,4,2.6,7,2.7L50.1,111.6z M43.6,109.2l-7.9-8.4l-0.6,0.5l7.9,8.4L43.6,109.2z M35.7,101.3l0.2-0.2l-0.5-0.6l-0.2,0.2
			L35.7,101.3z M35.3,101.1c1.4,1.5,3.4,2.3,6,2.5l0.1-0.8c-2.4-0.2-4.2-1-5.4-2.3L35.3,101.1z M41.3,103.6c0.4,0,0.8,0,1.2,0v-0.8
			c-0.4,0-0.8,0-1.1,0L41.3,103.6z M42.5,103.7c6.4,0,15.5-3.6,25.6-9.8c10.1-6.2,21.4-15,32.2-25.6l-0.6-0.6
			C89,78.2,77.7,87,67.7,93.2c-10.1,6.2-19,9.7-25.2,9.7V103.7z M100.3,68.3c11.1-10.9,20.6-22.3,27.1-32.6c3.3-5.1,5.9-10,7.6-14.4
			c1.7-4.4,2.6-8.3,2.5-11.5l-0.8,0c0.1,3.1-0.8,6.8-2.5,11.2c-1.7,4.3-4.3,9.1-7.5,14.2c-6.5,10.2-15.9,21.6-27,32.4L100.3,68.3z
			 M137.6,9.8c-0.1-2.6-0.8-4.7-2.2-6.2l-0.6,0.5c1.2,1.3,1.9,3.2,2,5.6L137.6,9.8z M135.3,4.2l0.2-0.2L135,3.4l-0.2,0.2L135.3,4.2z
			 M135,4l7.9,8.4l0.6-0.5l-7.9-8.4L135,4z M142.9,12.4c1.9,2,2.5,5.3,1.8,9.6c-0.7,4.3-2.8,9.5-5.9,15.3
			c-6.3,11.6-17.1,25.5-30.9,38.9l0.6,0.6c13.8-13.4,24.6-27.4,31-39.1c3.2-5.9,5.3-11.2,6-15.6c0.8-4.4,0.2-8-2-10.3L142.9,12.4z
			 M107.9,76.3C97,86.9,85.8,95.8,75.7,101.9c-10.1,6.2-19,9.7-25.3,9.7v0.8c6.5,0,15.6-3.6,25.7-9.8c10.1-6.2,21.4-15.1,32.3-25.7
			L107.9,76.3z M36.7,102.5l6.6,7l0.6-0.5l-6.6-7L36.7,102.5z M43.3,109.5c1.6,1.7,3.9,2.5,6.8,2.6l0-0.8c-2.8-0.1-4.9-0.9-6.2-2.3
			L43.3,109.5z M50.1,112.1c6.1,0.1,15.1-3.2,25.4-9.4L75,102c-10.2,6.2-19.1,9.4-24.9,9.3L50.1,112.1z M75.4,102.7
			c10.6-6.4,22-15.4,32.8-26l-0.6-0.6C96.8,86.7,85.5,95.6,75,102L75.4,102.7z M108.2,76.7c13.7-13.4,24.5-27.3,30.9-38.9
			c3.2-5.8,5.3-11.1,6-15.5c0.8-4.4,0.3-7.9-1.9-10.2l-0.6,0.5c1.9,2,2.4,5.3,1.7,9.5c-0.8,4.3-2.8,9.5-6,15.2
			c-6.3,11.6-17.1,25.4-30.8,38.7L108.2,76.7z M143.3,12.1l-6.6-7l-0.6,0.5l6.6,7L143.3,12.1z M136.1,5.6c0.6,1.2,0.9,2.6,1,4.3
			l0.8,0c-0.1-1.8-0.4-3.3-1.1-4.6L136.1,5.6z M137.1,9.8c0.1,3.1-0.8,6.9-2.5,11.2c-1.7,4.3-4.3,9.2-7.6,14.3
			c-6.6,10.3-15.9,21.7-27.1,32.5l0.6,0.6c11.2-10.9,20.6-22.4,27.2-32.7c3.3-5.2,5.9-10,7.6-14.4c1.7-4.4,2.6-8.3,2.5-11.5
			L137.1,9.8z M99.9,67.9c-10.8,10.5-22,19.3-32.1,25.5c-10.1,6.2-19.1,9.7-25.3,9.7l0,0.8c6.5,0,15.6-3.6,25.7-9.8
			c10.2-6.2,21.5-15.1,32.3-25.6L99.9,67.9z M42.5,103.2c-0.4,0-0.8,0-1.2,0l-0.1,0.8c0.4,0,0.8,0,1.2,0V103.2z M41.3,103.1
			c-1.6-0.1-3-0.5-4.1-1.2l-0.4,0.7c1.2,0.7,2.7,1.2,4.5,1.3L41.3,103.1z"/>
	</g>
	<g>
		<defs>
			<path id="SVGID_1_" d="M38.2,82.1l0.8,2.1h-1.6L38.2,82.1z M36.8,79.3l-3.7,8.4H36l0.6-1.5h3.2l0.6,1.5h2.9l-3.7-8.4H36.8z
				 M49.3,79.3v3.8l-3.2-3.8h-2.3v8.4h2.7v-3.8l3.2,3.8h2.3v-8.4H49.3z M56.4,81.5h1.2c0.6,0,1.1,0.2,1.5,0.5
				c0.4,0.3,0.5,0.8,0.5,1.5c0,0.6-0.2,1.1-0.5,1.5c-0.4,0.3-0.8,0.5-1.5,0.5h-1.2V81.5z M53.6,79.3v8.4h4.1c0.9,0,1.8-0.2,2.5-0.5
				c0.7-0.3,1.3-0.8,1.7-1.5c0.4-0.6,0.6-1.4,0.6-2.2s-0.2-1.6-0.6-2.2c-0.4-0.6-0.9-1.1-1.7-1.5c-0.7-0.3-1.5-0.5-2.5-0.5H53.6z
				 M66.4,79.3v2.2h2.4v6.2h2.8v-6.2h2.5v-2.2H66.4z M74.8,79.3v8.4h7v-2.1h-4.2v-1.1h3.5v-2h-3.5v-1h4v-2.1H74.8z M97.2,79.3v3
				h-2.6v-3h-2.8v8.4h2.8v-3.1h2.6v3.1h2.8v-8.4H97.2z M107,79.3v3.8l-3.2-3.8h-2.3v8.4h2.7v-3.8l3.2,3.8h2.3v-8.4H107z M121.4,79.3
				v8.4h6.6v-2.2h-3.8v-6.2H121.4z M153.4,79.3l-1.7,2.9l-1.7-2.9h-3l3.2,5.3v3.1h2.8v-3l3.2-5.3H153.4z M84.8,79.7
				c-0.7,0.4-1.3,0.9-1.7,1.6c-0.4,0.7-0.6,1.4-0.6,2.3c0,0.8,0.2,1.6,0.6,2.3c0.4,0.7,1,1.2,1.7,1.6c0.7,0.4,1.5,0.6,2.4,0.6
				c0.8,0,1.5-0.1,2.2-0.4c0.6-0.3,1.2-0.7,1.6-1.2l-1.8-1.6c-0.5,0.7-1.1,1-1.8,1c-0.6,0-1.1-0.2-1.4-0.6c-0.4-0.4-0.5-0.9-0.5-1.5
				c0-0.6,0.2-1.1,0.5-1.5c0.4-0.4,0.8-0.6,1.4-0.6c0.7,0,1.3,0.3,1.8,1l1.8-1.6c-0.4-0.5-0.9-1-1.6-1.2c-0.6-0.3-1.4-0.4-2.2-0.4
				C86.3,79.1,85.5,79.3,84.8,79.7 M114.6,85.3c-0.3-0.2-0.5-0.4-0.7-0.7c-0.2-0.3-0.3-0.7-0.3-1.1c0-0.4,0.1-0.8,0.3-1.1
				c0.2-0.3,0.4-0.6,0.7-0.7c0.3-0.2,0.6-0.3,0.9-0.3c0.4,0,0.7,0.1,0.9,0.3c0.3,0.2,0.5,0.4,0.7,0.7c0.2,0.3,0.3,0.7,0.3,1.1
				c0,0.4-0.1,0.8-0.3,1.1c-0.2,0.3-0.4,0.6-0.7,0.7c-0.3,0.2-0.6,0.3-0.9,0.3C115.2,85.6,114.9,85.5,114.6,85.3 M113.2,79.7
				c-0.7,0.4-1.3,0.9-1.7,1.6c-0.4,0.7-0.6,1.4-0.6,2.3c0,0.8,0.2,1.6,0.6,2.3c0.4,0.7,1,1.2,1.7,1.6c0.7,0.4,1.5,0.6,2.4,0.6
				c0.9,0,1.7-0.2,2.4-0.6c0.7-0.4,1.3-0.9,1.7-1.6c0.4-0.7,0.6-1.4,0.6-2.3c0-0.8-0.2-1.6-0.6-2.3c-0.4-0.7-1-1.2-1.7-1.6
				c-0.7-0.4-1.5-0.6-2.4-0.6C114.7,79.1,113.9,79.3,113.2,79.7 M132.1,85.3c-0.3-0.2-0.5-0.4-0.7-0.7c-0.2-0.3-0.3-0.7-0.3-1.1
				c0-0.4,0.1-0.8,0.3-1.1c0.2-0.3,0.4-0.6,0.7-0.7c0.3-0.2,0.6-0.3,0.9-0.3c0.4,0,0.7,0.1,1,0.3c0.3,0.2,0.5,0.4,0.7,0.7
				c0.2,0.3,0.3,0.7,0.3,1.1c0,0.4-0.1,0.8-0.3,1.1c-0.2,0.3-0.4,0.6-0.7,0.7c-0.3,0.2-0.6,0.3-1,0.3
				C132.7,85.6,132.4,85.5,132.1,85.3 M130.6,79.7c-0.7,0.4-1.3,0.9-1.7,1.6c-0.4,0.7-0.6,1.4-0.6,2.3c0,0.8,0.2,1.6,0.6,2.3
				c0.4,0.7,1,1.2,1.7,1.6c0.7,0.4,1.5,0.6,2.4,0.6c0.9,0,1.7-0.2,2.4-0.6c0.7-0.4,1.3-0.9,1.7-1.6c0.4-0.7,0.6-1.4,0.6-2.3
				c0-0.8-0.2-1.6-0.6-2.3c-0.4-0.7-1-1.2-1.7-1.6c-0.7-0.4-1.5-0.6-2.4-0.6C132.2,79.1,131.4,79.3,130.6,79.7 M140.7,79.7
				c-0.7,0.4-1.3,0.9-1.7,1.6c-0.4,0.7-0.6,1.4-0.6,2.3c0,0.8,0.2,1.6,0.6,2.3c0.4,0.7,1,1.2,1.7,1.6c0.7,0.4,1.5,0.6,2.4,0.6
				c0.6,0,1.3-0.1,1.9-0.3c0.7-0.2,1.2-0.4,1.7-0.8v-3.5h-2.4v2.1c-0.3,0.1-0.7,0.2-1,0.2c-0.6,0-1.1-0.2-1.5-0.6
				c-0.4-0.4-0.5-0.9-0.5-1.5c0-0.6,0.2-1.2,0.5-1.5c0.4-0.4,0.9-0.6,1.5-0.6c0.7,0,1.4,0.3,1.9,0.9l1.8-1.6c-0.4-0.5-1-0.9-1.6-1.2
				c-0.6-0.3-1.4-0.4-2.2-0.4C142.3,79.1,141.5,79.3,140.7,79.7 M23.6,66.5h1.2c0.6,0,1.1,0.2,1.5,0.5c0.4,0.3,0.5,0.8,0.5,1.5
				c0,0.6-0.2,1.1-0.5,1.5c-0.4,0.3-0.8,0.5-1.5,0.5h-1.2V66.5z M20.8,64.3v8.4h4.1c0.9,0,1.8-0.2,2.5-0.5c0.7-0.3,1.3-0.8,1.7-1.5
				c0.4-0.6,0.6-1.4,0.6-2.2c0-0.9-0.2-1.6-0.6-2.2c-0.4-0.6-0.9-1.1-1.7-1.5c-0.7-0.3-1.5-0.5-2.5-0.5H20.8z M30.7,64.3v8.4h7v-2.1
				h-4.2v-1.1H37v-2h-3.5v-1h4v-2.1H30.7z M51.9,67.1l0.8,2.1H51L51.9,67.1z M50.5,64.3l-3.7,8.4h2.9l0.6-1.5h3.2l0.6,1.5h2.9
				l-3.7-8.4H50.5z M60.3,66.5h1.2c0.6,0,1.1,0.2,1.5,0.5c0.4,0.3,0.5,0.8,0.5,1.5c0,0.6-0.2,1.1-0.5,1.5c-0.4,0.3-0.8,0.5-1.5,0.5
				h-1.2V66.5z M57.5,64.3v8.4h4.1c0.9,0,1.8-0.2,2.5-0.5c0.7-0.3,1.3-0.8,1.7-1.5c0.4-0.6,0.6-1.4,0.6-2.2c0-0.9-0.2-1.6-0.6-2.2
				c-0.4-0.6-0.9-1.1-1.7-1.5c-0.7-0.3-1.5-0.5-2.5-0.5H57.5z M67.4,64.3v8.4h7v-2.1h-4.2v-1.1h3.5v-2h-3.5v-1h4v-2.1H67.4z
				 M89.2,64.3v8.4H92V70h3.5v-2.1H92v-1.4h4v-2.1H89.2z M117.3,72.7h2.8v-8.4h-2.8V72.7z M121.6,64.3v8.4h7v-2.1h-4.2v-1.1h3.5v-2
				h-3.5v-1h4v-2.1H121.6z M135.3,64.3v3.8l-3.2-3.8h-2.3v8.4h2.7v-3.8l3.2,3.8h2.3v-8.4H135.3z M148.4,64.3v8.4h7v-2.1h-4.2v-1.1
				h3.5v-2h-3.5v-1h4v-2.1H148.4z M40.7,64.7c-0.7,0.4-1.3,0.9-1.7,1.6c-0.4,0.7-0.6,1.4-0.6,2.3c0,0.8,0.2,1.6,0.6,2.3
				c0.4,0.7,1,1.2,1.7,1.6c0.7,0.4,1.5,0.6,2.4,0.6c0.8,0,1.5-0.1,2.2-0.4c0.6-0.3,1.2-0.7,1.6-1.2l-1.8-1.6c-0.5,0.7-1.1,1-1.8,1
				c-0.6,0-1.1-0.2-1.4-0.6c-0.4-0.4-0.5-0.9-0.5-1.5c0-0.6,0.2-1.1,0.5-1.5c0.4-0.4,0.8-0.6,1.4-0.6c0.7,0,1.3,0.3,1.8,1l1.8-1.6
				c-0.4-0.5-0.9-1-1.6-1.2c-0.6-0.3-1.4-0.4-2.2-0.4C42.2,64.1,41.4,64.3,40.7,64.7 M82.5,70.3c-0.3-0.2-0.5-0.4-0.7-0.7
				c-0.2-0.3-0.3-0.7-0.3-1.1c0-0.4,0.1-0.8,0.3-1.1c0.2-0.3,0.4-0.6,0.7-0.7c0.3-0.2,0.6-0.3,0.9-0.3c0.4,0,0.7,0.1,0.9,0.3
				c0.3,0.2,0.5,0.4,0.7,0.7c0.2,0.3,0.3,0.7,0.3,1.1c0,0.4-0.1,0.8-0.3,1.1c-0.2,0.3-0.4,0.6-0.7,0.7c-0.3,0.2-0.6,0.3-0.9,0.3
				C83.1,70.6,82.7,70.5,82.5,70.3 M81,64.7c-0.7,0.4-1.3,0.9-1.7,1.6c-0.4,0.7-0.6,1.4-0.6,2.3c0,0.8,0.2,1.6,0.6,2.3
				c0.4,0.7,1,1.2,1.7,1.6c0.7,0.4,1.5,0.6,2.4,0.6c0.9,0,1.7-0.2,2.4-0.6c0.7-0.4,1.3-0.9,1.7-1.6c0.4-0.7,0.6-1.4,0.6-2.3
				c0-0.8-0.2-1.6-0.6-2.3c-0.4-0.7-1-1.2-1.7-1.6c-0.7-0.4-1.5-0.6-2.4-0.6C82.5,64.1,81.7,64.3,81,64.7 M101.9,64.5
				c-0.6,0.2-1,0.6-1.3,1c-0.3,0.4-0.4,0.9-0.4,1.4c0,0.6,0.2,1.1,0.5,1.4c0.3,0.4,0.7,0.6,1.1,0.8c0.4,0.2,1,0.3,1.6,0.4
				c0.5,0.1,0.9,0.2,1.1,0.3c0.2,0.1,0.3,0.2,0.3,0.4c0,0.2-0.1,0.3-0.3,0.3c-0.2,0.1-0.4,0.1-0.8,0.1c-0.5,0-0.9-0.1-1.4-0.2
				c-0.5-0.1-0.9-0.3-1.3-0.6L100,72c0.4,0.3,1,0.5,1.6,0.6c0.7,0.2,1.3,0.2,2,0.2c0.8,0,1.5-0.1,2.1-0.4c0.6-0.3,1-0.6,1.3-1
				c0.3-0.4,0.4-0.9,0.4-1.4c0-0.6-0.2-1.1-0.5-1.4c-0.3-0.3-0.7-0.6-1.1-0.8c-0.4-0.2-1-0.3-1.6-0.4c-0.5-0.1-0.8-0.2-1.1-0.3
				c-0.2-0.1-0.3-0.2-0.3-0.4c0-0.4,0.4-0.5,1.1-0.5c0.7,0,1.5,0.2,2.3,0.6l0.8-2c-0.4-0.2-0.9-0.4-1.5-0.5
				c-0.6-0.1-1.1-0.2-1.7-0.2C103.2,64.1,102.4,64.3,101.9,64.5 M110.3,64.7c-0.7,0.4-1.3,0.9-1.7,1.6c-0.4,0.7-0.6,1.4-0.6,2.3
				c0,0.8,0.2,1.6,0.6,2.3c0.4,0.7,1,1.2,1.7,1.6c0.7,0.4,1.5,0.6,2.4,0.6c0.8,0,1.5-0.1,2.2-0.4c0.6-0.3,1.2-0.7,1.6-1.2l-1.8-1.6
				c-0.5,0.7-1.1,1-1.8,1c-0.6,0-1.1-0.2-1.4-0.6c-0.4-0.4-0.5-0.9-0.5-1.5c0-0.6,0.2-1.1,0.5-1.5c0.4-0.4,0.8-0.6,1.4-0.6
				c0.7,0,1.3,0.3,1.8,1l1.8-1.6c-0.4-0.5-0.9-1-1.6-1.2c-0.6-0.3-1.4-0.4-2.2-0.4C111.8,64.1,111,64.3,110.3,64.7 M141.4,64.7
				c-0.7,0.4-1.3,0.9-1.7,1.6c-0.4,0.7-0.6,1.4-0.6,2.3c0,0.8,0.2,1.6,0.6,2.3c0.4,0.7,1,1.2,1.7,1.6c0.7,0.4,1.5,0.6,2.4,0.6
				c0.8,0,1.5-0.1,2.2-0.4c0.6-0.3,1.2-0.7,1.6-1.2l-1.8-1.6c-0.5,0.7-1.1,1-1.8,1c-0.6,0-1.1-0.2-1.4-0.6c-0.4-0.4-0.5-0.9-0.5-1.5
				c0-0.6,0.2-1.1,0.5-1.5c0.4-0.4,0.8-0.6,1.4-0.6c0.7,0,1.3,0.3,1.8,1l1.8-1.6c-0.4-0.5-0.9-1-1.6-1.2c-0.6-0.3-1.4-0.4-2.2-0.4
				C143,64.1,142.2,64.3,141.4,64.7 M128.9,41.5l0,4h3.3l0.2,14.3h5.1l-0.2-18.2H128.9z M67.5,41.5c0,3.7,2.9,6.7,6.6,6.7
				c3.6,0,6.6-3,6.6-6.7c0-3.7-2.9-6.7-6.6-6.7C70.5,34.8,67.5,37.8,67.5,41.5 M86.3,29h4.8c0-3,4.3-2.8,4.4,0.2
				c0,1.2-0.8,2.1-2.2,3.1l-7.1,5l0.1,4.9h15.3v-4.4h-8.5c3.2-2.4,7.4-4.4,7.3-9.1c-0.1-4.3-3.5-6.3-6.9-6.3
				C89.9,22.3,86.2,24.6,86.3,29 M103.5,29h4.8c0-3,4.3-2.8,4.4,0.2c0,1.2-0.8,2.1-2.2,3.1l-7.1,5l0.1,4.9h11.8l0,3.3h7l-3.1,3.5
				l0,3.3h2.1c1.8,0,2.7,0.6,2.8,1.8c0,0.6-0.2,1.1-0.7,1.4c-0.5,0.3-1.2,0.5-2.1,0.5c-0.9,0-1.7-0.1-2.6-0.4
				c-0.8-0.2-1.6-0.6-2.2-1c0,0-1.7-1.2-1.8-1.4l-2.8,3.2c0.3,0.3,1.7,1.4,2.8,2c0.9,0.6,2,1,3.2,1.3c1.2,0.3,2.5,0.5,3.7,0.5
				c1.7,0,3.2-0.3,4.3-0.8c1.2-0.6,2-1.3,2.6-2.2c0.6-0.9,0.8-1.9,0.8-3c0-1.3-0.4-2.4-1.2-3.4c-0.8-0.9-1.9-1.6-3.4-1.9l3.7-4.1
				l0-3.2h-9.4l0-3.8h-8.5c3.2-2.4,7.4-4.4,7.3-9.1c-0.1-4.3-3.5-6.3-6.9-6.3C107.1,22.3,103.4,24.6,103.5,29"/>
		</defs>
		<use xlink:href="#SVGID_1_"  style="overflow:visible;fill:#FFFFFF;"/>
		<clipPath id="SVGID_2_">
			<use xlink:href="#SVGID_1_"  style="overflow:visible;"/>
		</clipPath>
	</g>
</g>
</svg>
