<svg width="107" height="122" viewBox="0 0 107 122" fill="none" xmlns="http://www.w3.org/2000/svg">
<g clip-path="url(#clip0_524:88)">
<path d="M83.9114 91.0156C83.5668 91.0156 83.2222 91.3677 83.2222 91.7198C83.2222 92.0719 83.5668 92.424 83.9114 92.424C84.256 92.424 84.6006 92.0719 84.6006 91.7198C84.6006 91.3677 84.256 91.0156 83.9114 91.0156Z" fill="white"/>
<path d="M85.979 97.1778C85.979 97.5299 86.3236 97.882 86.6682 97.882C87.0128 97.882 87.3574 97.5299 87.3574 97.1778C87.3574 96.8257 87.0128 96.4736 86.6682 96.4736C86.3236 96.4736 85.979 96.8257 85.979 97.1778Z" fill="white"/>
<path d="M83.9114 96.4736C83.5668 96.4736 83.2222 96.8257 83.2222 97.1778C83.2222 97.5299 83.5668 97.882 83.9114 97.882C84.256 97.882 84.6006 97.5299 84.6006 97.1778C84.6006 96.8257 84.256 96.4736 83.9114 96.4736Z" fill="white"/>
<path d="M88.7358 97.1778C88.7358 97.5299 89.0805 97.882 89.4251 97.882C89.7697 97.882 90.1143 97.5299 90.1143 97.1778C90.1143 96.8257 89.7697 96.4736 89.4251 96.4736C89.0805 96.4736 88.7358 96.8257 88.7358 97.1778Z" fill="white"/>
<path d="M83.0499 84.854L83.2222 86.4384L81.8438 86.2624V88.0228L83.2222 87.8468L83.0499 89.4312H84.7729L84.6006 87.8468L85.979 88.0228V86.2624L84.6006 86.4384L84.7729 84.854H83.0499Z" fill="white"/>
<path d="M85.1172 90.4873V96.1208H90.4586C89.9417 93.304 87.874 91.0154 85.1172 90.4873Z" fill="white"/>
<path d="M83.9114 93.6567C83.5668 93.6567 83.2222 94.0088 83.2222 94.3609C83.2222 94.713 83.5668 95.0651 83.9114 95.0651C84.256 95.0651 84.6006 94.713 84.6006 94.3609C84.6006 94.0088 84.256 93.6567 83.9114 93.6567Z" fill="white"/>
<path d="M86.1518 101.05C85.9795 101.05 85.6349 102.459 85.9795 103.515C86.1518 104.043 86.6687 104.219 87.1856 104.219C87.7025 104.043 87.7025 103.691 87.7025 103.339C87.8748 102.107 86.841 101.05 86.1518 101.05Z" fill="white"/>
<path d="M81.6714 101.05C80.9821 101.05 79.9483 102.107 80.1206 103.163C80.1206 103.515 80.2929 103.867 80.6375 104.043C81.1544 104.219 81.6714 104.043 81.8437 103.339C82.1883 102.459 81.8437 101.05 81.6714 101.05Z" fill="white"/>
<path d="M83.911 100.347C83.3941 100.347 82.0157 103.163 83.0495 104.748C83.2218 105.1 83.5664 105.1 83.911 105.1C84.2556 105.1 84.6003 104.924 84.7726 104.748C85.8064 103.163 84.428 100.347 83.911 100.347Z" fill="white"/>
<path d="M77.3641 97.1772C77.3641 96.6491 77.5364 96.1209 77.5364 96.1209H82.7054V95.5928V91.5438V90.3114C80.1209 90.8396 78.0533 92.7761 77.3641 95.4168C77.1918 95.5928 76.6748 95.7689 76.3302 95.7689C74.2626 95.5928 70.2996 94.7126 70.2996 93.8324C70.2996 92.6 71.1612 92.0719 71.8504 92.0719C72.8842 92.0719 74.2626 92.7761 75.2964 91.1917C71.6781 91.3677 74.4349 85.9103 71.5058 84.854C71.6781 86.2624 71.5058 88.727 70.9889 89.9593C70.9889 89.9593 69.955 88.727 68.7489 88.3749C68.9212 89.4312 68.5766 91.5438 68.232 92.424C68.232 92.424 67.0259 91.1917 65.6475 90.8396C66.8536 92.6 66.8536 95.2407 66.509 96.8251C66.3367 97.3533 66.6813 97.8814 67.7151 97.8814C69.0935 97.8814 74.0903 98.0575 76.3302 98.9377C77.0194 99.2898 77.5364 99.4658 77.881 99.994C78.0533 100.698 78.7425 101.754 79.4317 102.283C79.7763 101.05 81.1547 99.994 82.0162 99.994C82.3608 99.994 82.5331 100.522 82.7054 100.874C82.7054 100.522 83.3946 99.2898 84.0839 99.2898C84.7731 99.2898 85.29 100.17 85.6346 101.05C85.6346 100.522 85.9792 99.994 86.3238 99.994C87.1853 99.994 88.2191 100.874 88.736 102.107C89.0806 101.754 90.6314 99.6419 90.8037 98.2335H77.7087C77.364 98.4095 77.3641 97.8814 77.3641 97.1772Z" fill="white"/>
<path d="M80.6372 97.1778C80.6372 97.5299 80.9818 97.882 81.3264 97.882C81.671 97.882 82.0156 97.5299 82.0156 97.1778C82.0156 96.8257 81.671 96.4736 81.3264 96.4736C80.8095 96.4736 80.6372 96.8257 80.6372 97.1778Z" fill="white"/>
<path d="M77.8809 97.1778C77.8809 97.5299 78.2255 97.882 78.5701 97.882C78.9147 97.882 79.2593 97.5299 79.2593 97.1778C79.2593 96.8257 78.9147 96.4736 78.5701 96.4736C78.2255 96.4736 77.8809 96.8257 77.8809 97.1778Z" fill="white"/>
<path d="M26.534 99.9946C26.3617 100.171 25.8448 101.579 26.0171 102.459C26.1894 102.811 26.3617 102.987 26.7063 102.987C27.0509 102.987 27.2232 102.811 27.3955 102.459C27.3955 101.579 26.7063 100.171 26.534 99.9946Z" fill="white"/>
<path d="M31.1868 104.043C30.8422 104.395 30.4976 104.571 30.4976 104.747C30.6699 104.923 31.0145 105.099 31.3591 105.099C31.5314 105.099 31.876 105.099 32.0483 104.923C32.3929 104.219 32.0483 103.515 31.876 103.339C31.5314 103.339 31.3591 103.691 31.1868 104.043Z" fill="white"/>
<path d="M29.2912 102.107C29.8081 101.579 29.9804 101.227 29.8081 101.051C29.6358 100.699 28.602 99.4662 27.2236 98.2339C27.2236 98.586 27.0513 98.762 27.0513 99.1141C27.9128 100.346 28.2574 101.579 27.9128 102.811C28.0851 102.811 28.0851 102.987 28.0851 102.987C28.602 102.811 29.1189 102.459 29.2912 102.107Z" fill="white"/>
<path d="M31.014 102.283C31.014 102.107 31.014 101.931 30.8417 101.755C30.8417 101.755 30.6694 101.931 30.4971 102.107C30.3248 102.283 30.1525 102.459 29.9802 102.811C29.8079 102.987 29.6356 103.163 29.4633 103.339C29.291 103.515 29.1187 103.691 29.1187 103.867C29.1187 103.867 29.291 104.043 29.4633 104.043C29.6356 104.043 29.9802 103.867 30.6694 103.339C30.8417 102.811 31.014 102.459 31.014 102.283Z" fill="white"/>
<path d="M22.9164 95.5928C22.9164 95.5928 22.7441 95.7689 22.5718 95.9449C22.9164 95.9449 23.261 95.9449 23.4333 96.121C23.4333 95.7689 23.4333 95.4168 23.4333 95.2407C23.261 95.2407 22.9164 95.4168 22.9164 95.5928Z" fill="white"/>
<path d="M26.1894 95.9451C26.1894 95.9451 28.7739 98.2337 29.6355 99.114C29.8078 99.29 30.1524 99.29 30.3247 99.29C30.497 99.29 30.6693 99.114 30.8416 98.9379C33.4261 98.0577 37.7337 97.8816 39.2844 98.0577C40.1459 98.0577 40.4905 97.5295 40.4905 97.0014C40.1459 95.593 40.1459 92.7763 41.352 91.0158C39.9736 91.544 38.7675 92.6003 38.7675 92.6003C38.2506 91.72 38.0783 89.6075 38.2506 88.5512C37.0445 89.0793 36.0106 90.1356 36.0106 90.1356C35.4937 88.9033 35.3214 86.4386 35.4937 85.0303C32.5646 86.0866 35.3214 91.544 31.7031 91.3679C32.7369 92.9524 33.943 92.2482 35.1491 92.2482C36.0106 92.2482 36.8722 92.7763 36.6999 94.0086C36.5276 94.8889 31.7031 95.9451 29.6355 95.9451C28.257 95.9451 27.3955 95.593 26.7063 94.5368C26.3617 94.0086 26.0171 93.8326 25.6725 93.8326C25.1556 93.8326 24.6387 94.3607 24.6387 95.593C24.6387 96.4733 24.9833 98.2337 25.8448 98.2337C26.3617 98.2337 26.534 96.8254 26.1894 95.9451Z" fill="white"/>
<path d="M21.3656 95.0651C21.538 95.0651 21.538 95.0651 21.7103 95.0651C21.3656 95.5932 21.3656 95.9453 21.538 96.1213C21.7103 96.2974 21.8826 95.9453 22.5718 95.2411C23.261 94.5369 23.6056 94.3609 23.4333 94.1848C23.261 94.0088 22.9164 94.0088 22.3995 94.3609C22.3995 94.1848 22.3995 94.1848 22.3995 94.0088C22.2272 93.4807 21.1933 92.6004 20.6764 92.6004H20.5041C20.6764 92.2483 20.6764 91.8962 20.5041 91.7202C20.3318 91.5441 20.1595 91.7202 19.9872 91.8962C19.9872 91.7202 19.9872 91.5441 19.8149 91.192C18.9534 89.9597 14.8181 85.9107 13.9566 85.5586C13.4397 85.3825 13.2674 85.7346 13.2674 85.7346C13.2674 85.7346 12.9228 85.9107 13.2674 86.6149C13.612 87.6711 17.7473 91.8962 18.9534 92.6004C19.1257 92.7765 19.4703 92.7765 19.6426 92.7765C19.4703 92.9525 19.298 93.1286 19.4703 93.3046C19.6426 93.4806 19.9872 93.4806 20.3318 93.3046V93.4806C19.8149 94.0088 20.6764 94.889 21.3656 95.0651Z" fill="white"/>
<path d="M24.2941 98.2338C24.2941 97.8817 23.4326 97.0015 22.5711 97.0015C21.1926 97.0015 20.5034 97.8817 20.5034 98.4098C20.5034 99.2901 21.3649 99.4661 21.5372 99.4661C22.5711 99.4661 24.1218 98.4098 24.2941 98.2338Z" fill="white"/>
<path d="M23.0885 100.346C22.7439 100.874 22.5716 101.226 22.7439 101.754C22.9162 102.283 23.4331 102.459 23.7777 102.459C24.2946 102.459 24.6392 102.283 24.9838 101.754C25.5007 100.874 25.5007 98.9378 25.3284 98.7617C24.8115 98.9378 23.6054 99.4659 23.0885 100.346Z" fill="white"/>
<path d="M10.8548 80.453C10.5102 80.1009 9.64864 80.629 9.13173 80.453C9.30404 79.2207 10.1655 80.453 11.0271 79.5728C11.3717 79.2207 11.1994 78.6925 11.0271 78.5165C10.6825 78.8686 10.1655 78.6925 10.1655 78.5165C11.0271 76.2279 9.30404 73.7632 7.58101 74.1153C7.92561 74.6435 8.09792 76.2279 7.92561 76.58C8.61482 77.1081 8.09792 78.1644 7.40871 77.8123C6.8918 77.6362 6.03028 76.4039 7.0641 75.5237C7.0641 75.1716 6.54719 75.1716 5.85798 75.8758C6.20259 74.4674 3.61805 74.8195 3.10114 75.1716C2.75653 75.6997 2.41193 78.5165 3.79035 77.9883C3.10114 78.6925 3.10114 79.2207 3.44574 79.2207C4.30726 78.1644 5.51338 79.0446 5.68568 79.5728C6.03028 80.2769 4.99647 80.8051 4.47956 80.1009C4.13495 80.2769 2.58423 80.2769 2.06732 79.9248C1.89502 81.6853 4.30726 83.6218 6.37489 82.5655C6.54719 82.5655 6.71949 83.0937 6.37489 83.6218C6.54719 83.7979 7.0641 83.9739 7.40871 83.6218C8.27022 82.7416 6.8918 81.8614 8.09792 81.6853C8.44252 82.2134 7.75331 83.0937 8.27022 83.4458C8.78713 84.15 9.47634 82.9176 10.3379 82.7416C10.3379 82.0374 11.544 81.1572 10.8548 80.453ZM4.30726 77.6362C4.30726 77.6362 3.96265 77.2842 4.30726 76.756C4.82416 76.2279 5.16877 76.756 5.16877 76.756C5.16877 76.756 5.68568 77.8123 5.68568 78.3404C5.34107 78.1644 4.30726 77.6362 4.30726 77.6362ZM8.27022 80.8051C8.09792 80.8051 7.4087 81.3332 7.0641 81.1572L5.68568 79.7488L6.37489 79.0446L7.0641 78.3404L8.61482 79.5728C8.78713 79.9248 8.44252 80.629 8.27022 80.8051Z" fill="white"/>
<path d="M11.1995 83.0938C11.0272 83.0938 10.8549 83.0937 10.6826 83.2698C10.5103 83.4458 10.5103 83.6219 10.5103 83.974C10.5103 84.3261 10.6826 84.5021 11.0272 84.8542C11.3718 85.2063 11.7164 85.3823 11.8887 85.3823C12.061 85.3823 12.2333 85.3823 12.2333 85.2063C12.5779 84.8542 12.4056 84.3261 11.8887 83.7979C11.8887 83.2698 11.5441 83.0938 11.1995 83.0938Z" fill="white"/>
<path d="M7.23609 78.8687L6.89148 79.3968L6.54688 79.7489C6.54688 79.7489 7.23609 80.8052 7.9253 80.4531C8.2699 79.7489 7.23609 78.8687 7.23609 78.8687Z" fill="white"/>
<path d="M79.776 74.9959C79.776 75.172 78.7422 75.7001 78.053 74.2918C77.3638 74.1157 76.5023 73.9397 75.9854 73.7636C76.8469 75.5241 77.7084 77.1085 78.9145 77.8127C80.6375 79.045 83.5667 78.6929 84.6005 77.4606C83.0497 76.5803 81.1544 74.2917 80.1206 72.1792C79.9483 72.7073 79.6037 73.5876 79.2591 74.1157C79.2591 74.4678 79.6037 74.8199 79.776 74.9959Z" fill="white"/>
<path d="M97.1785 47.3567C99.2461 46.4765 102.003 44.54 103.381 43.1316C103.554 43.3077 104.071 44.54 102.52 45.7723C101.486 46.6525 99.2461 47.7088 97.5231 48.413C96.8339 49.6453 95.2832 50.8776 93.2155 52.286C97.1785 51.5818 102.003 49.9974 104.243 47.7088C108.723 43.3077 106.311 37.8502 105.794 36.7939C102.864 40.4909 97.5231 44.3639 92.354 46.3004C94.077 46.4765 95.9724 46.8286 97.1785 47.3567Z" fill="white"/>
<path d="M93.9047 39.0821C96.4893 36.9695 99.2461 32.5684 99.763 30.9839C100.28 31.336 100.625 32.7444 99.763 34.1528C98.3846 36.6174 95.9724 38.73 93.9047 40.4904C93.7324 42.0749 93.2155 43.8353 92.354 45.2437C95.4555 43.1311 99.0738 39.9623 100.625 37.6737C102.692 34.857 103.554 32.0402 103.209 29.2235C103.381 26.0547 101.141 22.8858 100.28 22.1816C99.763 25.7026 96.317 31.5121 93.2155 34.857C93.5601 36.0893 93.9047 37.6737 93.9047 39.0821Z" fill="white"/>
<path d="M91.8371 59.3276C92.5263 60.0318 93.0432 60.912 93.5601 61.7923C95.9724 62.3204 98.9015 62.1444 98.9015 62.1444C98.9015 62.1444 98.7292 63.3767 97.1785 63.5527C96.4893 63.5527 94.2493 63.2006 93.3878 63.0246C93.0432 63.2006 91.3202 63.5527 89.5972 63.9048C92.0094 64.785 95.6278 65.6653 98.04 65.6653C98.2123 65.6653 98.5569 65.6653 98.7292 65.6653C102.348 65.3132 104.243 61.9683 104.243 59.8558C103.209 60.0318 101.314 60.2079 99.4184 60.2079C97.3508 60.0318 94.2493 59.8558 91.8371 59.3276Z" fill="white"/>
<path d="M107 49.6445C103.726 51.405 98.0399 53.1655 93.5601 53.1655C94.7662 53.8696 95.8 54.7499 96.4892 55.4541C98.3845 55.278 100.969 54.7499 102.52 54.0457C102.52 54.3978 102.52 55.6301 100.797 56.1582C99.5907 56.5103 97.6953 56.5103 96.3169 56.5103C95.2831 57.2145 93.5601 57.9187 92.1816 58.4468C93.3878 58.6229 94.9385 58.7989 96.4892 58.7989C98.9014 58.7989 100.969 58.6229 102.348 58.0948C103.554 57.5666 107.689 55.8062 107 49.6445Z" fill="white"/>
<path d="M89.4249 67.0741C90.8034 67.7782 92.1818 68.1303 93.5602 68.3064C93.5602 68.3064 93.3879 69.5387 91.4926 69.3627C90.4587 69.1866 89.0803 68.4824 88.908 68.1303C88.0465 68.3064 86.3235 68.1303 85.6343 68.1303C87.7019 69.7148 90.9757 71.4752 93.7325 71.6513C93.9048 71.6513 94.0771 71.6513 94.0771 71.6513C97.0062 71.6513 99.2462 68.6585 99.7631 67.2501C96.8339 67.2501 92.0095 66.0178 88.908 64.2573C89.0803 65.1376 89.4249 66.0178 89.4249 67.0741Z" fill="white"/>
<path d="M84.6002 70.9465C85.2894 71.8268 86.4956 72.3549 86.4956 72.3549C86.4956 72.3549 86.1509 73.0591 85.4617 73.0591C85.2894 73.0591 84.9448 73.0591 84.7725 72.883C84.2556 72.531 83.5664 71.8268 83.5664 71.8268C82.5326 71.6507 81.6711 71.4747 80.8096 71.2986C82.3603 73.2351 84.7725 75.5237 87.5294 76.2279C87.874 76.404 88.3909 76.404 88.7355 76.404C91.1477 76.404 93.043 74.6435 93.56 73.4112C90.8031 73.0591 86.8402 70.9465 84.7725 68.834C84.7725 69.5382 84.7725 70.4184 84.6002 70.9465Z" fill="white"/>
<path d="M66.6814 102.283C68.0598 102.283 68.9213 101.755 69.4382 100.346C67.5429 101.227 65.4752 100.698 61.8569 99.6421C61.8569 99.6421 60.4785 100.346 59.6169 100.346C61.8569 101.05 64.9583 102.107 65.6475 103.339C65.8198 104.395 65.3029 104.571 65.3029 104.571C64.0968 102.987 62.5461 102.107 59.4446 101.227C59.4446 101.755 59.2723 102.283 59.2723 102.283C59.2723 102.283 58.5831 102.459 57.2047 102.283C58.4108 103.339 61.5123 105.98 61.8569 108.796C62.0292 110.733 60.8231 110.733 60.8231 110.733C60.6508 107.916 59.4447 105.98 56.6878 103.163C56.6878 103.163 56.1709 103.867 55.654 104.219C55.654 104.219 54.6202 104.043 53.931 103.515C54.2756 107.212 54.4479 116.366 54.2756 117.951C54.1033 119.007 53.5864 119.359 53.5864 119.359C53.5864 119.359 53.0694 119.007 52.8971 117.951C52.7248 116.543 52.8971 107.388 53.2417 103.515C52.3802 104.043 51.5187 104.219 51.5187 104.219C51.0018 103.867 50.4849 103.163 50.4849 103.163C47.9004 106.156 46.6942 107.916 46.3496 110.733C46.3496 110.733 44.9712 110.557 45.3158 108.796C45.6604 105.98 48.7619 103.339 49.968 102.283C48.5896 102.459 47.9004 102.283 47.9004 102.283C47.9004 102.283 47.7281 101.931 47.7281 101.227C44.4543 102.283 43.0759 103.163 41.8698 104.571C41.8698 104.571 41.1806 104.395 41.5252 103.339C42.0421 102.107 45.3158 101.05 47.5558 100.346C46.6942 100.346 45.3158 99.6421 45.3158 99.6421C41.6975 100.698 39.6298 101.227 37.7345 100.346C38.2514 101.755 39.2852 102.283 40.4913 102.283C38.7683 102.987 37.0453 104.571 36.7007 106.508C37.9068 111.261 41.8698 112.67 41.8698 112.67C40.8359 110.381 41.3529 105.98 47.2112 102.811C43.5928 106.508 42.2144 109.853 43.0759 113.022C43.9374 116.014 46.8665 117.071 49.1065 117.247C47.5558 112.317 48.245 108.092 51.5187 104.571C50.1403 108.444 48.245 120.24 53.7587 122.176C59.2723 120.24 57.377 108.444 55.9986 104.571C59.2723 108.092 59.9616 112.493 58.4108 117.247C60.6508 117.247 63.5799 116.014 64.4414 113.022C65.4752 109.853 63.9245 106.508 60.3062 102.811C66.3368 105.98 66.6814 110.381 65.6475 112.67C65.6475 112.67 69.6105 111.261 70.8166 106.508C70.1274 104.571 68.4044 102.811 66.6814 102.283Z" fill="white"/>
<path d="M28.2573 77.8127C29.4635 76.9324 30.325 75.5241 31.1865 73.7636C30.6696 73.9397 29.9804 74.2918 29.1189 74.2918C28.4296 75.7001 27.3958 75.172 27.3958 74.9959C27.5681 74.8199 27.9127 74.2918 28.085 74.1157C27.7404 73.5876 27.3958 72.7073 27.2235 72.1792C26.1897 74.4678 24.2944 76.5804 22.7437 77.4606C23.4329 78.869 26.362 79.045 28.2573 77.8127Z" fill="white"/>
<path d="M13.7841 52.286C11.7164 50.8776 10.338 49.6453 9.47649 48.413C7.75346 47.7088 5.51353 46.6525 4.47971 45.7723C2.92899 44.54 3.44589 43.3077 3.6182 43.1316C4.99662 44.54 7.75346 46.4765 9.8211 47.3567C11.0272 46.8286 12.9225 46.4765 14.6456 46.3004C9.47649 44.1879 4.13511 40.3149 1.20596 36.7939C0.689051 38.0263 -1.72319 43.3077 2.75668 47.7088C4.99662 49.9974 9.8211 51.5818 13.7841 52.286Z" fill="white"/>
<path d="M14.6457 45.2437C13.9565 43.8353 13.2673 42.0749 13.095 40.4904C11.0274 38.73 8.61512 36.6174 7.2367 34.1528C6.37518 32.7444 6.71979 31.5121 7.2367 30.9839C7.7536 32.5684 10.5104 36.7935 13.095 39.0821C13.095 37.6737 13.2673 36.0893 13.7842 34.857C10.8551 31.5121 7.409 25.7026 6.71979 22.1816C5.85827 22.8858 3.61834 26.0547 3.79064 29.2235C3.44604 32.0402 4.30755 34.857 6.37518 37.6737C7.92591 39.9623 11.5443 43.1311 14.6457 45.2437Z" fill="white"/>
<path d="M13.4393 61.616C13.7839 60.9118 14.4731 60.0316 15.1623 59.1514C12.7501 59.8556 9.64864 60.0316 8.09791 60.0316C6.20258 60.0316 4.30725 59.8556 3.27344 59.6795C3.27344 61.616 4.99646 65.1369 8.78712 65.489C8.95943 65.489 9.13173 65.489 9.47634 65.489C11.7163 65.489 15.3346 64.6088 17.9192 63.7286C16.1961 63.5525 14.4731 63.0244 14.1285 62.8483C12.9224 63.0244 10.6825 63.3765 9.99324 63.3765C8.44252 63.2004 8.27022 61.9681 8.27022 61.9681C8.27022 61.9681 11.1994 62.1442 13.4393 61.616Z" fill="white"/>
<path d="M4.65197 58.0948C6.03039 58.6229 8.09803 58.7989 10.5103 58.7989C12.061 58.7989 13.6117 58.6229 14.8178 58.4468C13.4394 57.9187 11.7164 57.2145 10.6826 56.5103C9.30414 56.5103 7.40881 56.5103 6.2027 56.1582C4.47967 55.6301 4.47967 54.3978 4.47967 54.0457C6.03039 54.7499 8.61493 55.278 10.5103 55.4541C11.1995 54.7499 12.2333 53.8696 13.4394 53.1655C8.95954 53.1655 3.10125 51.405 -0.000203133 49.6445C-0.689414 55.8062 3.44585 57.5666 4.65197 58.0948Z" fill="white"/>
<path d="M13.0947 71.6505C13.267 71.6505 13.4393 71.6505 13.4393 71.6505C16.1961 71.2984 19.4699 69.538 21.5375 68.1296C20.8483 68.3056 19.1253 68.3056 18.2638 68.1296C17.9192 68.3056 16.713 69.1859 15.6792 69.3619C13.7839 69.538 13.6116 68.3056 13.6116 68.3056C14.8177 68.1296 16.3684 67.7775 17.7469 67.0733C17.9192 66.017 18.0915 65.1368 18.2638 64.4326C15.3346 66.1931 10.3378 67.4254 7.40869 67.4254C7.9256 68.6577 10.1655 71.6505 13.0947 71.6505Z" fill="white"/>
<path d="M18.2634 76.2277C18.608 76.2277 19.125 76.2277 19.4696 76.0516C22.0541 75.3475 24.6386 73.0589 26.1894 71.1224C25.3279 71.4745 24.4663 71.6505 23.4325 71.6505C23.4325 71.6505 22.7433 72.5307 22.2264 72.7068C21.8818 72.8828 21.7095 72.8828 21.5372 72.8828C20.848 72.8828 20.5034 72.1786 20.5034 72.1786C20.5034 72.1786 21.7095 71.6505 22.3987 70.7703C22.3987 70.4182 22.2264 69.5379 22.2264 68.6577C20.1588 70.7703 16.1958 72.8828 13.439 73.2349C13.9559 74.4672 15.8512 76.2277 18.2634 76.2277Z" fill="white"/>
<path d="M52.5522 6.68958C52.5522 7.21772 53.0692 7.74585 53.5861 7.74585C54.103 7.74585 54.6199 7.21772 54.6199 6.68958C54.6199 6.16144 54.103 5.6333 53.5861 5.6333C52.8969 5.6333 52.5522 6.16144 52.5522 6.68958Z" fill="white"/>
<path d="M52.897 4.40115H54.2754L54.1031 2.64069L55.4815 2.81674V1.58442L54.1031 1.76046L54.2754 0H52.897L53.0693 1.76046L51.5186 1.58442V2.81674L53.0693 2.64069L52.897 4.40115Z" fill="white"/>
<path d="M48.0726 21.3014C48.2449 21.3014 48.4172 21.3014 48.5895 21.3014H58.583C58.7553 21.3014 58.9276 21.3014 59.0999 21.3014C59.4446 21.1253 59.6169 20.9493 59.6169 20.5972H47.5557C47.5557 20.9493 47.728 21.1253 48.0726 21.3014Z" fill="white"/>
<path d="M58.9273 19.7174C59.0996 19.7174 59.0996 19.7174 59.0996 19.5414V18.8372C59.0996 18.6611 59.0996 18.6611 58.9273 18.6611H48.0722C47.8999 18.6611 47.8999 18.6611 47.8999 18.8372V19.5414C47.8999 19.7174 47.8999 19.7174 48.0722 19.7174H58.9273Z" fill="white"/>
<path d="M60.1336 17.7807C60.4782 17.4286 61.8566 14.6119 61.8566 11.9712C61.8566 9.50651 58.7552 8.09814 57.0321 8.09814C56.8598 11.6191 55.4814 17.2525 53.7584 17.2525C52.0354 17.2525 50.6569 11.6191 50.4846 8.09814C48.5893 8.09814 45.6602 9.50651 45.6602 11.9712C45.6602 14.7879 47.0386 17.4286 47.3832 17.7807H60.1336Z" fill="white"/>
<path d="M53.5861 15.3162C54.4476 15.3162 55.4815 12.6755 55.8261 10.0348C55.8261 9.5067 54.9646 8.62646 53.5861 8.62646C52.2077 8.62646 51.3462 9.5067 51.3462 10.0348C51.5185 12.4995 52.7246 15.3162 53.5861 15.3162Z" fill="white"/>
<path d="M69.2653 57.0387C69.2653 56.6866 68.9207 56.3345 68.5761 56.3345H38.4231C38.0785 56.3345 37.7339 56.6866 37.7339 57.0387V78.1642V78.3402V78.5163C37.7339 78.5163 37.7339 79.5726 38.2508 80.9809C38.94 82.5653 41.5245 85.03 44.7983 86.7905C49.4505 89.2551 52.2073 91.1916 53.4134 92.2479C54.7919 91.1916 57.5487 89.2551 62.0286 86.7905C65.3023 85.03 67.8869 82.5653 68.5761 80.9809C69.093 79.5726 69.093 78.5163 69.093 78.5163L69.2653 57.0387ZM59.0994 64.7847V64.9607C59.444 66.5452 59.7886 68.1296 59.9609 69.714C61.1671 70.7703 62.3732 71.8265 63.2347 72.8828C65.13 70.7703 65.9915 68.6577 66.1638 67.0733C65.3023 67.0733 64.6131 66.3691 64.6131 65.4889C64.6131 65.1368 64.7854 64.9607 64.9577 64.6086C64.0962 64.0805 63.0624 64.0805 62.2009 64.0805C61.5117 64.0805 60.6502 64.0805 59.7886 64.2565H59.6163H59.444V64.0805C59.6163 63.9045 59.6163 63.7284 59.6163 63.5524C62.0286 63.0242 64.0962 63.3763 65.3023 64.0805C65.4746 63.9045 65.8192 63.9045 66.1638 63.9045C67.0254 63.9045 67.7146 64.6086 67.7146 65.4889C67.7146 66.017 67.37 66.5451 66.8531 66.8972C66.8531 68.6577 65.8192 70.9463 63.7516 73.411C63.9239 73.587 63.9239 73.763 64.0962 73.763L64.2685 73.9391C64.0962 74.1151 64.0962 74.1151 63.9239 74.2912L63.7516 74.1151C63.7516 73.9391 63.5793 73.9391 63.5793 73.763C63.407 73.9391 63.0624 74.2912 62.8901 74.4672L62.7178 74.6433C62.3732 74.9954 62.0286 74.9954 61.684 74.8193H61.5117L61.684 74.6433C62.3732 74.1151 62.8901 73.587 63.2347 73.0589C62.3732 72.1786 61.5117 71.2984 60.4779 70.4182C60.4779 71.2984 60.6502 72.1786 60.6502 73.0589C60.6502 73.763 60.6502 74.6433 60.4779 75.6996C60.3055 75.6996 60.1332 75.8756 59.9609 76.0516H59.7886V75.8756C59.9609 74.8193 59.9609 73.9391 59.9609 73.0589C59.9609 72.7068 59.9609 72.5307 59.9609 72.1786V72.0026C59.9609 71.4744 59.7886 69.5379 59.6163 68.4817C59.444 67.4254 59.2717 66.3691 59.0994 65.4889C58.7548 65.3128 58.9271 65.1368 59.0994 64.7847ZM48.7613 62.4961C49.9674 59.5033 51.6904 57.9189 53.5857 57.9189C55.3088 57.9189 57.0318 59.5033 58.4102 62.4961C58.4102 62.4961 58.2379 62.6721 57.8933 62.6721C56.6872 60.0314 55.3088 58.447 53.758 58.447C52.2073 58.447 50.8289 60.0314 49.6228 62.6721C49.1059 62.6721 48.9336 62.6721 48.7613 62.4961ZM48.4167 63.2003C48.9336 63.5524 49.9674 64.0805 51.1735 63.7284C52.2073 63.3763 53.5857 63.3763 53.5857 63.3763C53.5857 63.3763 54.9642 63.3763 55.998 63.7284C57.2041 64.0805 58.2379 63.5524 58.7548 63.2003C58.7548 63.2003 58.9271 63.2003 58.9271 63.3763C58.7548 63.9045 58.4102 65.1368 56.5149 65.6649C54.7919 66.017 53.9303 68.1296 53.758 69.0098C53.758 69.1858 53.5857 69.1858 53.5857 69.0098C53.2411 68.1296 52.5519 66.1931 50.8289 65.6649C48.7613 65.1368 48.4167 63.9045 48.4167 63.2003C48.2444 63.2003 48.2444 63.2003 48.4167 63.2003ZM51.3458 68.3056C51.6904 68.3056 51.8627 68.1296 52.2073 67.9535C52.3796 68.3056 52.5519 68.4817 52.5519 68.8337C52.2073 69.0098 51.6904 69.1858 51.3458 69.1858C49.9674 69.1858 48.9336 68.1296 48.9336 66.7212C48.9336 66.3691 48.9336 66.017 49.1059 65.841C49.2782 66.017 49.6228 66.1931 49.9674 66.1931C49.9674 66.3691 49.7951 66.5452 49.7951 66.7212C49.9674 67.6014 50.6566 68.3056 51.3458 68.3056ZM50.6566 66.8972C50.6566 66.7212 50.6566 66.7212 50.6566 66.5451C51.0012 66.7212 51.3458 67.0733 51.6904 67.4254C51.5181 67.4254 51.5181 67.6014 51.3458 67.6014C51.0012 67.6014 50.6566 67.2493 50.6566 66.8972ZM51.3458 70.0661C51.8627 70.0661 52.3796 69.89 52.8965 69.5379C53.0688 69.714 53.2411 70.2421 53.4134 70.2421C53.5857 70.2421 53.758 69.714 53.9303 69.5379C54.4473 69.89 54.9642 70.0661 55.4811 70.0661C56.3426 70.0661 57.2041 69.714 57.721 69.1858C58.0656 70.2421 58.0656 71.4744 58.0656 72.0026C58.0656 72.5307 57.8933 73.0589 57.721 73.587C57.5487 74.2912 57.3764 74.6433 57.3764 74.6433C57.3764 74.6433 57.3764 74.8193 57.2041 74.9954C57.0318 75.5235 56.6872 76.4037 56.1703 77.284C55.3088 76.7558 54.1027 76.4037 52.8965 76.4037C51.8627 76.4037 50.8289 76.7558 49.9674 77.1079C49.6228 76.2277 49.2782 75.5235 49.1059 74.9954C48.9336 74.6433 48.9336 74.6433 48.9336 74.6433C48.9336 74.6433 48.7613 74.1151 48.4167 73.411C48.2444 73.0589 48.2444 72.5307 48.0721 72.0026C48.0721 71.6505 48.0721 70.2421 48.2444 69.1858C48.2444 69.0098 48.4167 68.8337 48.4167 68.8337C49.6228 69.714 50.4843 70.0661 51.3458 70.0661ZM55.6534 68.3056C56.5149 68.3056 57.2041 67.6014 57.2041 66.7212C57.2041 66.5452 57.2041 66.3691 57.0318 66.1931C57.3764 66.017 57.5487 66.017 57.8933 65.841C58.0656 66.1931 58.0656 66.3691 58.0656 66.7212C58.0656 68.1296 57.0318 69.1858 55.6534 69.1858C55.1365 69.1858 54.7919 69.0098 54.4473 68.8337C54.4473 68.6577 54.6196 68.3056 54.7919 67.9535C55.1365 68.3056 55.4811 68.3056 55.6534 68.3056ZM55.3088 67.4254C55.6534 67.0733 55.998 66.7212 56.3426 66.5451C56.3426 66.5451 56.3426 66.7212 56.3426 66.8972C56.3426 67.2493 55.998 67.6014 55.6534 67.6014C55.4811 67.6014 55.4811 67.4254 55.3088 67.4254ZM40.8353 63.7284C41.1799 63.7284 41.3522 63.9045 41.6969 64.0805C42.5584 63.5524 43.5922 63.2003 44.9706 63.2003C45.6598 63.2003 46.5213 63.2003 47.3828 63.3763H47.5551C47.5551 63.5524 47.7275 63.7284 47.7275 63.9045V64.0805H47.3828H47.2105C46.349 63.9045 45.6598 63.9045 44.9706 63.9045C44.1091 63.9045 43.0753 64.0805 42.2138 64.4326C42.3861 64.6086 42.3861 64.9607 42.3861 65.3128C42.3861 66.1931 41.6969 66.8972 40.8353 66.8972C40.8353 68.4817 41.8692 70.4182 43.7645 72.7068C44.7983 71.6505 45.8321 70.5942 47.0382 69.5379C47.2105 67.9535 47.5551 66.3691 47.8997 64.7847V64.6086L48.0721 64.7847C48.2444 64.9607 48.2444 65.1368 48.4167 65.1368C48.2444 66.017 47.8997 67.0733 47.8997 68.1296C47.7274 68.8338 47.7275 69.89 47.7275 70.9463C47.7275 71.6505 47.7275 72.3547 47.7275 72.8828C47.7275 73.587 47.7274 74.4672 47.8997 75.3475V75.5235H47.7275C47.5551 75.5235 47.3828 75.3475 47.2105 75.3475C47.2105 74.6433 47.0382 73.763 47.0382 73.0589C47.0382 72.1786 47.0382 71.2984 47.2105 70.4182C46.1767 71.2984 45.3152 72.1786 44.4537 73.0589C45.1429 73.763 46.0044 74.6433 46.8659 75.3475L47.0382 75.5235H46.8659C46.5213 75.5235 46.1767 75.5235 46.0044 75.5235C45.1429 74.8193 44.626 74.1151 44.1091 73.587C43.9368 73.763 43.9368 73.763 43.7645 73.9391L43.5922 74.1151C43.4199 74.1151 43.2476 74.2912 43.0753 74.2912C43.0753 74.2912 43.0753 74.2912 42.903 74.1151C42.903 74.1151 42.903 74.1151 42.7307 74.1151C43.0753 73.763 43.2476 73.4109 43.4199 73.2349C41.3522 70.7703 40.3184 68.4817 40.3184 66.7212C39.8015 66.3691 39.4569 65.841 39.4569 65.3128C39.2846 64.4326 39.9738 63.7284 40.8353 63.7284ZM58.5825 83.4456C57.721 85.9102 56.3426 87.6707 55.1365 88.5509C54.9642 89.2551 54.4473 89.9593 53.5857 89.9593C52.7242 89.9593 52.2073 89.4311 52.035 88.5509C50.6566 87.8467 49.4505 86.0863 48.589 83.6216V83.4456L49.2782 83.2695C50.1397 85.3821 51.0012 86.9665 52.2073 87.6707C52.3796 86.9665 53.0688 86.6144 53.758 86.6144C54.4473 86.6144 54.9642 87.1425 55.3088 87.6707C56.3426 86.9665 57.3764 85.3821 58.2379 83.2695C58.2379 83.2695 58.4102 83.4456 58.5825 83.4456ZM52.2073 83.4456C52.2073 82.9174 52.3796 81.5091 52.5519 81.157C52.8965 80.9809 53.2411 80.8049 53.5857 80.8049C53.9303 80.8049 54.4473 80.9809 54.6196 81.157C54.7919 81.6851 54.9642 82.9174 54.9642 83.4456C54.9642 83.9737 53.758 84.3258 53.5857 84.3258C53.4134 84.3258 52.2073 83.9737 52.2073 83.4456ZM68.2315 78.1642C68.2315 78.3402 68.0592 78.3402 67.8869 78.3402C67.7146 78.3402 67.5423 78.5163 67.37 78.5163H67.1977C67.0254 78.5163 66.6808 78.5163 66.5084 78.3402C66.5084 78.3402 66.3361 78.3402 66.3361 78.1642C65.9915 78.1642 65.13 78.5163 64.7854 78.5163C64.9577 78.5163 65.9915 78.6923 66.8531 79.2205C67.1977 79.3965 67.8869 79.5726 68.2315 79.5726C68.2315 79.7486 67.0254 80.6288 64.6131 80.1007L64.0962 79.9247C63.0624 79.5726 62.0286 79.5726 60.8225 79.5726C60.9948 79.5726 60.9948 79.5726 61.1671 79.7486C61.5117 79.9247 61.684 79.9247 62.0286 80.1007C62.0286 80.1007 62.0286 80.1007 62.2009 80.1007H62.3732C62.5455 80.1007 62.5455 80.1007 62.7178 80.1007C62.8901 80.1007 63.0624 80.2767 63.0624 80.2767C63.2347 80.4528 63.407 80.4528 63.407 80.6288C63.407 80.6288 63.5793 80.8049 63.5793 80.9809C63.5793 81.157 63.5793 81.333 63.407 81.5091C62.8901 82.0372 62.5455 82.0372 62.0286 81.5091C62.0286 81.5091 62.0286 81.5091 61.8563 81.333C61.8563 81.333 61.684 80.9809 61.5117 80.8049V80.6288C61.3394 80.4528 61.1671 80.2767 60.8225 80.2767C60.3055 80.1007 59.9609 79.9247 59.6163 79.9247C59.444 79.9247 59.444 79.9247 59.2717 79.9247C59.6163 80.1007 59.9609 80.4528 60.1333 80.8049C60.3056 81.157 60.3055 81.5091 60.4779 81.8612C60.8225 82.7414 60.9948 82.7414 61.3394 83.0935C60.9948 83.2695 59.0994 83.0935 58.2379 81.8612C58.2379 81.8612 58.2379 81.6851 58.0656 81.6851C57.8933 81.157 57.721 80.6288 57.5487 80.2767C57.3764 79.9247 57.5487 79.5726 57.3764 79.3965C57.2041 79.2205 57.0318 79.3965 57.0318 79.3965C56.8595 79.3965 56.8595 79.5726 56.8595 79.5726V79.7486C56.8595 79.7486 56.8595 79.7486 56.8595 79.9247H56.6872C56.6872 79.9247 56.6872 79.9247 56.5149 79.9247C56.3426 79.9247 56.3426 79.9247 56.1703 79.9247C55.998 79.9247 55.998 79.7486 55.998 79.7486V79.5726H55.8257C55.6534 79.5726 55.6534 79.5726 55.6534 79.3965C55.6534 79.2205 55.6534 79.2205 55.6534 79.0444L55.4811 79.2205C55.3088 79.2205 55.3088 79.2205 55.3088 79.2205L55.1365 79.0444V78.8684C54.9642 78.8684 54.7919 78.6923 54.6196 78.6923C54.4473 78.6923 54.275 78.8684 54.1027 78.8684C54.1027 78.8684 54.1026 78.8684 53.9303 78.8684V78.6923H53.758V78.8684V79.0444C53.758 79.2205 53.758 79.2205 53.758 79.3965C53.758 79.3965 53.5857 79.5726 53.5857 79.3965C53.5857 79.3965 53.5857 79.3965 53.4134 79.3965C53.4134 79.3965 53.4134 79.3965 53.2411 79.2205C53.2411 79.2205 53.2411 79.2205 53.2411 79.3965V79.5726C53.2411 79.7486 53.0688 79.7486 52.8965 79.7486C52.8965 79.7486 52.8965 79.7486 52.7242 79.7486C52.7242 79.7486 52.7242 79.7486 52.5519 79.7486C52.5519 79.7486 52.7242 79.9247 52.5519 79.9247C52.5519 80.1007 52.3796 80.1007 52.3796 80.1007C52.2073 80.1007 52.2073 80.1007 52.035 80.1007C52.035 80.1007 52.035 80.1007 51.8627 80.1007C51.8627 80.1007 51.8627 80.1007 51.6904 80.1007C51.6904 80.1007 51.5181 80.1007 51.5181 79.9247H51.3458L51.1735 79.7486C50.8289 79.5726 50.4843 80.4528 50.4843 80.4528C49.2782 82.9174 46.6936 83.2695 46.5213 83.2695C46.5213 83.2695 47.2105 82.9174 47.3828 82.0372C47.5551 81.5091 47.5551 81.333 47.7275 80.9809L47.8997 80.8049C48.0721 80.6288 48.4167 80.2768 48.589 80.1007C48.4167 80.1007 48.4167 80.1007 48.2444 80.1007C47.8998 80.1007 47.3828 80.2768 47.0382 80.4528C46.8659 80.4528 46.6936 80.6288 46.349 80.8049V80.9809C46.349 81.157 46.1767 81.333 46.0044 81.5091C46.0044 81.5091 46.0044 81.5091 45.8321 81.6851C45.3152 82.2133 44.9706 82.2133 44.4537 81.6851C44.4537 81.6851 44.4537 81.5091 44.2814 81.5091C44.2814 81.333 44.1091 81.157 44.2814 80.9809C44.2814 80.8049 44.4537 80.6288 44.4537 80.6288C44.626 80.4528 44.626 80.4528 44.7983 80.4528C44.9706 80.4528 45.1429 80.2767 45.1429 80.2767C45.3152 80.2767 45.3152 80.2767 45.4875 80.2767H45.6598C45.6598 80.2767 45.6598 80.2767 45.8321 80.2767C46.0044 80.2767 46.0044 80.1007 46.1767 80.1007C46.349 80.1007 46.349 79.9247 46.5213 79.9247H46.6936C45.6598 79.9247 44.626 79.9247 43.5922 80.2767C43.4199 80.2767 43.2476 80.4528 42.903 80.4528C41.6969 80.8049 39.2846 80.1007 39.2846 79.9247C39.2846 79.7486 39.8015 79.7486 40.663 79.3965C41.1799 79.2205 41.5245 78.8684 41.8692 78.8684C42.2138 78.6923 42.903 78.6923 42.903 78.6923C42.5584 78.5163 41.5245 78.3402 41.1799 78.3402L41.0076 78.5163C40.8353 78.6923 40.4907 78.6923 40.1461 78.6923C39.9738 78.6923 39.8015 78.6923 39.6292 78.5163C39.4569 78.5163 39.2846 78.3402 39.2846 78.3402C39.2846 78.1642 39.1123 77.9882 39.1123 77.8121C39.2846 77.284 39.6292 77.1079 40.3184 77.284C40.663 77.46 40.8353 77.46 41.0076 77.6361C41.0076 77.6361 41.0076 77.6361 41.1799 77.8121C41.5245 77.8121 42.0415 77.9882 42.5584 78.1642C43.0753 78.3402 43.4199 78.5163 43.7645 78.5163C43.5922 78.5163 43.5922 78.3402 43.4199 78.3402C43.4199 78.3402 43.2476 78.1642 43.0753 78.1642C42.903 78.1642 42.7307 77.9881 42.7307 77.9881C42.0415 77.6361 41.1799 77.284 40.663 76.7558C39.6292 76.0516 39.6292 75.6995 39.4569 75.3475C39.2846 74.2912 38.7677 73.763 38.94 73.587C39.1123 73.4109 40.8353 74.2912 41.3522 74.9954C41.6969 75.5235 41.8692 75.8756 42.0415 76.2277C42.2138 76.5798 42.5584 76.9319 43.0753 77.46L43.2476 77.6361C43.0753 77.46 42.903 77.284 42.903 77.1079C42.903 77.1079 42.903 77.1079 42.903 76.9319C42.903 76.9319 42.7307 76.9319 42.7307 76.7558L42.5584 76.5798C42.5584 76.4037 42.3861 76.4037 42.3861 76.2277C42.2138 75.8756 42.2138 75.5235 42.3861 75.3475C42.3861 75.1714 42.5584 74.9954 42.903 74.9954C43.4199 74.8193 43.7645 75.1714 43.9368 75.8756C43.9368 76.0516 43.9368 76.2277 43.9368 76.2277C43.9368 76.4037 43.9368 76.4037 43.9368 76.5798C43.9368 76.5798 43.9368 76.5798 43.9368 76.7558C44.2814 77.6361 44.7983 78.1642 45.4875 78.6923C44.626 77.9882 44.1091 76.2277 44.2814 76.0516C44.4537 76.0516 45.1429 76.4037 46.0044 76.7558C46.349 76.9319 46.6936 77.1079 47.0382 77.284C47.2105 77.46 47.5551 77.6361 47.7275 77.8121C47.8998 77.9882 48.0721 78.1642 48.2444 78.3402C48.4167 78.5163 48.4167 78.5163 48.589 78.6923C48.589 78.6923 48.7613 78.8684 48.9336 78.8684C49.1059 79.0444 49.4505 78.8684 49.4505 78.8684C49.4505 78.8684 49.6228 78.8684 49.7951 78.8684C49.9674 78.6923 50.1397 78.6923 50.1397 78.6923C50.1397 78.6923 50.1397 78.6923 50.1397 78.5163C50.1397 78.3402 50.312 78.1642 50.4843 77.9881H50.6566C50.6566 77.9881 50.6566 77.9881 50.8289 77.9881C50.8289 77.9881 50.8289 77.9881 51.0012 77.9881H51.1735C51.1735 77.8121 51.3458 77.8121 51.3458 77.8121C51.6904 77.6361 52.035 77.8121 52.2073 77.9881C52.3796 78.1642 52.3796 78.1642 52.3796 78.3402V78.5163V78.6923V78.8684C52.5519 78.8684 52.7242 78.8684 52.8965 78.8684H53.0688C53.2411 78.8684 53.2411 78.8684 53.4134 78.8684C53.5857 78.8684 53.5857 78.8684 53.758 78.6923H53.9303H54.1027C54.1027 78.5163 54.1027 78.5163 54.1027 78.3402C54.1027 78.1642 54.1027 78.1642 54.1027 77.9881C54.1027 77.9881 54.1027 77.8121 54.275 77.8121C54.275 77.8121 54.275 77.8121 54.4473 77.6361C54.6196 77.46 54.9642 77.46 55.1365 77.6361C55.3088 77.6361 55.3088 77.8121 55.3088 77.8121C55.4811 77.8121 55.4811 77.8121 55.6534 77.8121H55.8257C55.8257 77.8121 55.8257 77.8121 55.998 77.8121C56.1703 77.9882 56.3426 78.1642 56.3426 78.3402H56.5149C56.5149 78.3402 57.2041 78.3402 57.3764 78.3402H58.0656L58.2379 78.1642C58.4102 77.9882 58.5825 77.8121 58.7548 77.6361C58.9271 77.46 59.0994 77.284 59.444 77.1079C59.7886 76.9319 60.3056 76.7558 60.6502 76.5798C61.8563 76.0516 62.0286 75.3475 62.2009 75.3475C62.3732 75.3475 61.8563 77.46 60.9948 78.3402C61.684 77.8121 62.3732 77.284 62.5455 76.4037C62.5455 76.4037 62.5455 76.4037 62.5455 76.2277C62.5455 76.0516 62.5455 76.0516 62.5455 75.8756C62.5455 75.6995 62.5455 75.6996 62.5455 75.5235C62.7178 74.8193 63.0624 74.4672 63.5793 74.6433C63.9239 74.6433 64.0962 74.8193 64.0962 74.9954C64.2685 75.1714 64.2685 75.5235 64.0962 75.8756C64.0962 76.0516 63.9239 76.2277 63.9239 76.2277C63.9239 76.4037 63.7516 76.4037 63.7516 76.4037C63.7516 76.4037 63.5793 76.4037 63.5793 76.5798C63.5793 76.5798 63.5793 76.5798 63.5793 76.7558C63.407 76.9319 63.407 77.1079 63.0624 77.46C63.2347 77.46 63.2347 77.284 63.407 77.284C64.0962 76.7558 64.4408 76.4037 64.4408 76.0516C64.6131 75.6996 64.6131 75.3475 65.13 74.8193C65.6469 74.1151 65.8192 73.9391 66.5084 73.587C66.6808 73.587 67.5423 73.2349 67.5423 73.411C67.5423 73.587 66.8531 73.763 66.6808 75.1714C66.5085 75.5235 66.5085 76.2277 65.9915 76.5798C65.4746 77.1079 64.9577 77.284 64.2685 77.6361H64.0962C63.9239 77.6361 63.7516 77.8121 63.5793 77.8121C63.407 77.9882 63.2347 77.9882 63.0624 78.1642C63.407 78.1642 63.7516 77.9882 64.2685 77.8121C64.6131 77.6361 65.13 77.46 65.6469 77.46C65.6469 77.46 65.6469 77.284 65.8192 77.284C65.9915 77.1079 66.1638 76.9319 66.5084 76.9319C67.1977 76.7558 67.5423 76.9319 67.7146 77.46C68.4038 77.9881 68.2315 78.1642 68.2315 78.1642Z" fill="white"/>
<path d="M89.9419 52.6383C91.8372 51.758 94.9387 49.6455 96.1448 48.061C94.4218 47.5329 90.8034 47.0048 88.9081 47.0048C93.0433 44.188 93.2156 38.0264 92.0095 33.4492C91.148 37.1462 88.5635 39.9629 86.8404 41.7234C87.0127 43.4839 86.4958 46.4766 85.462 48.4131C86.8404 48.9413 88.3912 49.6455 89.5973 50.5257C88.9081 51.4059 87.185 52.9903 86.1512 53.8706C87.0127 54.7508 88.3912 56.5113 89.0804 57.3915C88.0465 58.0957 86.1512 58.9759 84.9451 59.328C85.462 60.3843 86.1512 62.4968 86.4958 63.7292C85.2897 63.9052 83.5667 64.0813 81.8437 64.0813C81.8437 65.3136 81.6713 67.4261 81.499 68.6585C79.9483 68.4824 78.053 67.7782 77.1915 67.4261C76.6746 69.1866 75.6408 70.9471 75.6408 71.1231C74.09 69.3626 72.5393 68.6585 71.3332 68.6585V67.4261C72.7116 67.4261 74.09 67.9543 75.2962 69.0105C75.8131 68.1303 76.33 66.3699 76.5023 65.4896C77.5361 66.0178 79.0868 66.5459 80.4652 66.898C80.6375 65.6657 80.6375 64.0812 80.4652 62.6729C81.8437 62.8489 83.3944 62.8489 84.9451 62.4968C84.7728 61.4406 83.739 59.5041 83.0498 58.4478C84.4282 58.0957 86.1512 57.3915 87.0127 56.8634C86.3235 55.8071 84.9451 54.3987 84.0836 53.6945C85.1174 52.9903 86.6681 51.582 87.3573 50.8778C86.3235 50.1736 84.7728 49.2934 83.5667 48.9413C85.2897 46.4766 85.6343 41.5473 85.2897 39.2587C83.739 44.5401 79.2591 48.2371 76.6746 49.9976C76.5023 50.1736 76.33 50.1736 76.33 50.3497C76.1577 50.5257 75.6407 51.0538 75.9854 51.9341C75.9854 52.1101 76.1577 52.2862 76.1577 52.4622C76.33 53.5185 76.33 55.1029 74.9515 56.5113C73.7454 57.7436 72.1947 57.7436 71.3332 57.5675V54.7508C71.3332 54.3987 70.9886 54.0466 70.644 54.0466H68.7486L67.8871 53.1664C67.8871 53.1664 68.7486 53.1664 69.7825 53.1664C70.8163 53.1664 71.8501 52.6383 71.8501 52.6383C71.8501 52.6383 70.8163 52.6383 70.1271 52.4622C69.6102 52.2862 68.2317 51.758 67.0256 50.5257C66.681 49.9976 66.3364 49.4694 65.9918 48.9413C64.958 48.061 63.9242 46.8287 63.235 45.2443C62.718 44.188 62.5457 42.4276 62.3734 41.3713C62.0288 41.7234 61.6842 42.0755 61.1673 42.7797C60.3058 44.012 59.9612 45.5964 59.9612 45.5964L59.6166 46.8287L58.9274 45.7725C58.9274 45.7725 58.0659 44.3641 57.8936 42.4276C57.8936 41.5473 57.8936 40.8432 58.0659 40.139C57.7213 40.315 57.3767 40.4911 57.0321 40.8432C55.4813 41.8994 54.7921 43.1318 54.7921 43.1318C53.9306 44.188 53.586 45.0683 53.4137 45.4204C53.2414 44.8922 52.8968 44.188 52.0353 43.1318C52.0353 43.1318 51.1738 41.8994 49.7953 40.8432C49.4507 40.6671 49.1061 40.315 48.7615 40.139C48.7615 40.8432 48.9338 41.5473 48.9338 42.4276C48.7615 44.3641 47.9 45.7725 47.9 45.7725L47.2108 46.8287L46.8662 45.5964C46.8662 45.5964 46.3493 43.8359 45.6601 42.7797C45.1432 42.0755 44.7986 41.7234 44.454 41.3713C44.2817 42.4276 44.1093 44.188 43.5924 45.2443C42.9032 46.8287 41.8694 48.061 40.8356 48.9413C40.6633 49.4694 40.3187 49.9976 39.8018 50.5257C38.768 51.9341 37.2172 52.4622 36.7003 52.4622C36.1834 52.6383 34.9773 52.6383 34.9773 52.6383C34.9773 52.6383 36.0111 53.1664 37.0449 53.1664C38.0788 53.1664 38.9403 53.1664 38.9403 53.1664L38.0788 54.0466H36.1834C35.8388 54.0466 35.4942 54.3987 35.4942 54.7508V57.5675C34.6327 57.7436 33.082 57.5675 31.8759 56.5113C30.4974 55.1029 30.4974 53.5185 30.6697 52.4622C30.6697 52.2862 30.842 52.1101 30.842 51.9341C31.1866 51.0538 30.4974 50.5257 30.4974 50.3497C30.3251 50.1736 30.3251 50.1736 30.1528 49.9976C27.396 48.2371 23.0884 44.3641 21.5377 39.2587C21.1931 41.5473 21.71 46.4766 23.2607 48.9413C22.0546 49.4694 20.5039 50.1736 19.4701 50.8778C20.1593 51.582 21.71 52.9903 22.7438 53.6945C21.8823 54.3987 20.5039 55.9831 19.8147 56.8634C20.6762 57.3915 22.3992 58.0957 23.7776 58.4478C23.0884 59.5041 22.2269 61.4406 21.8823 62.4968C23.433 62.8489 24.9837 62.8489 26.3622 62.6729C26.1899 64.0812 26.3622 65.6657 26.3622 66.898C27.7406 66.7219 29.2913 66.0178 30.3251 65.4896C30.4974 66.3699 31.0143 68.1303 31.5312 69.0105C32.7374 67.9543 34.1158 67.2501 35.4942 67.4261V68.6585C34.1158 68.6585 32.7374 69.3626 31.1866 71.1231C31.1866 70.9471 29.9805 69.1866 29.6359 67.4261C28.7744 67.7782 26.8791 68.4824 25.3284 68.6585C25.156 67.4261 24.9837 65.3136 24.9837 64.0813C23.2607 64.0813 21.5377 63.9052 20.3316 63.7292C20.5039 62.3208 21.3654 60.3843 21.8823 59.328C20.8485 58.9759 18.7808 58.0957 17.747 57.3915C18.4362 56.3352 19.8147 54.7508 20.6762 53.8706C19.6424 52.9903 18.0916 51.582 17.2301 50.5257C18.4362 49.6455 19.987 48.9413 21.3654 48.4131C20.5039 46.4766 19.8147 43.4839 19.987 41.7234C18.2639 39.9629 15.8517 37.1462 14.8179 33.4492C13.6118 37.8504 13.7841 44.012 17.9193 47.0048C15.8517 47.0048 12.4056 47.5329 10.6826 48.061C11.8887 49.4694 14.9902 51.758 16.8855 52.6383C15.3348 53.1664 12.7503 54.5748 11.7164 55.631C13.0949 56.5113 16.1963 57.5675 17.747 57.9196C16.8855 58.6238 15.1625 60.7364 14.4733 61.7926C15.6794 62.1447 18.2639 62.4968 19.8147 62.6729C19.2978 63.7292 18.7808 65.6657 18.6085 66.898C19.4701 66.898 22.0546 66.898 23.2607 66.5459C23.0884 67.6022 23.2607 69.5387 23.433 70.4189C24.6391 70.2429 26.5345 69.7147 27.396 69.3626C27.5683 70.4189 28.6021 72.3554 28.7744 72.8836C29.2913 72.7075 29.9805 72.5315 30.6697 72.3554C32.3928 71.6512 34.2881 72.5315 34.9773 74.1159C36.1834 77.1087 35.6665 80.4535 33.2543 79.7494C30.4974 80.2775 32.3928 83.7984 30.842 84.8547C32.9097 86.4391 33.5989 82.7421 36.1834 83.4463C35.8388 84.8547 36.0111 87.1433 36.1834 88.1996C37.0449 87.4954 38.2511 86.9673 39.1126 86.9673C38.9403 87.6714 38.768 89.6079 39.1126 90.6642C39.6295 90.3121 43.2478 89.2559 43.2478 89.2559C43.2478 89.2559 41.8694 92.0726 42.7309 94.8893C43.2478 95.2414 46.3493 93.657 46.5216 92.6007C46.6939 93.8331 45.3155 96.2977 43.2478 96.8258C45.4878 99.1144 47.5554 98.9384 47.7277 98.9384C48.0723 98.9384 48.4169 98.9384 48.5892 98.7623C48.4169 99.4665 48.4169 100.171 48.4169 100.875C48.5892 100.875 48.7615 100.875 48.7615 100.875C49.2784 100.875 49.7953 100.699 50.3122 100.523C50.3122 101.051 50.6569 101.931 51.1738 102.283C51.3461 102.459 51.3461 102.459 51.5184 102.459C52.0353 102.459 53.2414 101.931 53.586 101.403C53.9306 101.755 55.1367 102.459 55.6536 102.459C55.8259 102.459 55.8259 102.283 55.9982 102.283C56.5151 101.755 56.6875 101.051 56.8598 100.523C57.3767 100.699 57.7213 100.875 58.4105 100.875C58.5828 100.875 58.7551 100.875 58.7551 100.875C58.9274 100.347 58.7551 99.4665 58.5828 98.7623C58.9274 98.9384 59.0997 98.9384 59.4443 98.9384C59.7889 98.9384 61.6842 98.9384 63.9242 96.8258C61.8565 96.2977 60.4781 93.8331 60.6504 92.6007C60.6504 93.657 63.9242 95.2414 64.4411 94.8893C65.3026 92.0726 63.9242 89.2559 63.9242 89.2559C63.9242 89.2559 67.3702 90.1361 68.0594 90.6642C68.404 89.6079 68.2317 87.6714 68.0594 86.9673C68.9209 86.9673 70.1271 87.4954 70.9886 88.1996C71.1609 87.1433 71.1609 84.8547 70.9886 83.4463C73.5731 82.9182 74.2623 86.4391 76.33 84.8547C74.7792 83.7984 76.6746 80.1015 73.9177 79.7494C71.5055 80.4535 70.9886 76.9326 72.1947 74.1159C72.8839 72.3554 74.9515 71.6512 76.5023 72.3554C77.1915 72.5315 77.7084 72.7075 78.3976 72.8836C78.7422 72.3554 79.6037 70.2429 79.776 69.3626C80.6375 69.7147 82.5329 70.2429 83.739 70.4189C83.9113 69.5387 83.9113 67.6022 83.9113 66.5459C85.2897 66.898 87.8743 66.898 88.5635 66.898C88.3912 65.6657 87.8742 63.7292 87.3573 62.6729C88.9081 62.4968 91.4926 62.3208 92.6987 61.7926C92.0095 60.7364 90.2865 58.6238 89.425 57.9196C90.9757 57.5675 94.0771 56.5113 95.4556 55.631C93.9048 54.7508 91.3203 53.3424 89.9419 52.6383ZM69.7825 81.3338C69.7825 81.5098 69.6102 81.6859 69.4379 82.038L69.2656 82.214C69.0932 82.3901 69.0932 82.5661 68.9209 82.7421L68.7486 82.9182C68.5763 83.0942 68.404 83.2703 68.2317 83.6224C68.0594 83.7984 67.8871 83.9745 67.8871 83.9745C67.7148 84.1505 67.7148 84.1505 67.5425 84.3266C67.3702 84.5026 67.1979 84.6787 67.0256 84.8547C66.8533 84.8547 66.8533 85.0307 66.681 85.0307C66.3364 85.3828 65.8195 85.7349 65.3026 86.087C64.6134 86.6152 64.0965 86.9673 63.4073 87.3193C63.235 87.4954 62.8904 87.6714 62.718 87.6714C57.2044 90.6642 54.4475 92.7768 53.586 93.657C52.7245 92.9528 49.9676 90.6642 44.454 87.6714C44.2817 87.4954 43.937 87.3193 43.7647 87.3193C43.0755 86.9673 42.3863 86.4391 41.8694 86.087C41.3525 85.7349 41.0079 85.3828 40.491 85.0307C40.3187 85.0307 40.3187 84.8547 40.1464 84.8547C39.8018 84.5026 39.6295 84.3266 39.6295 84.1505C39.4572 83.9745 39.4572 83.9745 39.2849 83.7984C39.1126 83.6224 38.9403 83.4463 38.9403 83.4463C38.768 83.2703 38.5957 83.0942 38.4234 82.7421L38.2511 82.5661C38.0788 82.3901 38.0788 82.214 37.9065 82.038L37.7341 81.8619C37.5618 81.6859 37.5618 81.5098 37.3895 81.1577C36.7003 79.5733 36.7003 78.1649 36.7003 78.1649V55.9831C36.7003 55.631 37.0449 55.2789 37.3895 55.2789H39.2849H53.586H67.8871H69.7825C70.1271 55.2789 70.4717 55.631 70.4717 55.9831V78.1649C70.2994 78.341 70.4717 79.5733 69.7825 81.3338Z" fill="white"/>
<path d="M69.0934 20.2453C69.6104 20.2453 69.955 19.8932 69.955 19.3651C69.955 18.837 69.6104 18.4849 69.0934 18.4849C68.5765 18.4849 68.2319 18.837 68.2319 19.3651C68.2319 19.8932 68.5765 20.2453 69.0934 20.2453Z" fill="white"/>
<path d="M69.0934 24.9988C69.6103 24.9988 70.1272 22.8862 70.1272 21.8299C70.1272 21.3018 69.6103 20.9497 69.0934 20.9497C68.5765 20.9497 68.0596 21.3018 68.0596 21.8299C68.0596 22.8862 68.5765 24.9988 69.0934 24.9988Z" fill="white"/>
<path d="M68.5762 17.2524H69.6101L69.4378 15.844L70.8162 16.02V14.9638L69.4378 15.1398L69.6101 13.7314H68.5762V15.1398L67.3701 14.9638V16.02L68.5762 15.844V17.2524Z" fill="white"/>
<path d="M64.2687 27.6391C64.6133 27.6391 64.958 27.8151 65.4749 27.8151C65.4749 27.8151 65.4749 27.8151 65.6472 27.8151H65.8195H65.9918H66.1641C66.3364 27.8151 66.3364 27.8151 66.5087 27.8151H66.681C66.8533 27.8151 66.8533 27.8151 67.0256 27.8151C68.0594 27.8151 69.0932 27.4631 69.9547 27.287C70.9886 27.111 72.0224 26.7589 73.0562 26.7589H73.2285H73.4008H73.5731C73.5731 26.7589 73.5731 26.7589 73.7454 26.7589C74.09 25.7026 74.2623 24.2942 74.2623 23.59C74.2623 22.0056 73.4008 20.4212 70.4716 19.8931C70.4716 21.8296 69.6101 26.2307 68.5763 26.2307H68.9209C67.8871 26.2307 67.0256 21.6535 67.0256 19.8931C64.0964 20.4212 63.4072 22.0056 63.4072 23.59C63.4072 24.4703 63.7518 26.0547 64.0964 27.287C64.0964 27.4631 64.0964 27.4631 64.2687 27.6391Z" fill="white"/>
<path d="M79.0871 19.5416C79.0871 19.5416 78.2256 17.429 79.604 16.9009C80.9825 16.3728 79.2594 16.7249 80.1209 13.9081C81.3271 10.5632 83.7393 11.2674 83.7393 11.2674C82.0163 9.85905 80.6379 10.0351 79.7763 10.7393C79.2594 11.2674 78.3979 12.1477 77.7087 14.2602C76.8472 16.9009 77.7087 19.3655 79.0871 19.5416Z" fill="white"/>
<path d="M85.6342 14.612C85.8065 18.8371 92.6986 20.5976 92.6986 20.5976C92.6986 20.5976 88.7356 17.6048 89.5971 15.4923C89.5971 15.4923 92.1817 16.7246 95.2831 16.1965C88.9079 14.7881 90.9756 12.8516 89.4248 11.0911C87.8741 9.33065 85.2896 9.15461 84.7727 9.15461C83.2219 8.97856 83.0496 8.97856 81.1543 9.5067C85.1173 9.5067 85.4619 11.7953 85.6342 14.612Z" fill="white"/>
<path d="M84.6007 22.534C85.4622 19.1891 83.9115 17.7808 83.9115 17.7808C83.3946 17.2526 80.81 17.2526 79.9485 17.9568C79.9485 17.9568 82.3607 17.9568 82.0161 21.6538C81.6715 25.3507 76.6748 26.0549 75.2963 26.231L75.124 26.7591C77.364 26.5831 83.7392 25.8789 84.6007 22.534Z" fill="white"/>
<path d="M58.7554 22.3579H56.1709C57.377 25.8788 60.9954 27.1112 63.4076 27.4633L63.2353 27.1112C60.8231 26.0549 59.4447 24.9986 58.7554 22.3579Z" fill="white"/>
<path d="M38.0788 20.2453C38.5957 20.2453 38.9403 19.8932 38.9403 19.3651C38.9403 18.837 38.5957 18.4849 38.0788 18.4849C37.5619 18.4849 37.2173 18.837 37.2173 19.3651C37.2173 19.8932 37.5619 20.2453 38.0788 20.2453Z" fill="white"/>
<path d="M38.0792 24.9988C38.5961 24.9988 39.113 22.8862 39.113 21.8299C39.113 21.3018 38.5961 20.9497 38.0792 20.9497C37.5623 20.9497 37.0454 21.3018 37.0454 21.8299C37.0454 22.8862 37.39 24.9988 38.0792 24.9988Z" fill="white"/>
<path d="M37.5621 17.2524H38.5959L38.4236 15.844L39.802 16.02V14.9638L38.4236 15.1398L38.5959 13.7314H37.5621V15.1398L36.356 14.9638V16.02L37.5621 15.844V17.2524Z" fill="white"/>
<path d="M33.0822 26.7591H33.2545H33.4268H33.5991C34.6329 26.7591 35.8391 27.1112 36.7006 27.2872C37.5621 27.4633 38.5959 27.8154 39.6297 27.8154C39.802 27.8154 39.802 27.8154 39.9743 27.8154H40.1466C40.3189 27.8154 40.3189 27.8154 40.4912 27.8154H40.6635H40.8358H41.0081C41.0081 27.8154 41.0081 27.8154 41.1804 27.8154C41.525 27.8154 42.042 27.6393 42.3866 27.6393V27.4633C42.7312 26.407 43.0758 24.6465 43.0758 23.7663C43.0758 22.1819 42.2143 20.5975 39.4574 20.0693C39.4574 21.8298 38.5959 26.407 37.5621 26.407H37.9067C36.8729 26.407 36.0114 22.0058 36.0114 20.0693C33.0822 20.5975 32.2207 22.1819 32.2207 23.7663C32.393 24.4705 32.5653 25.7028 33.0822 26.7591C32.9099 26.9351 33.0822 26.7591 33.0822 26.7591Z" fill="white"/>
<path d="M23.2612 11.2674C23.2612 11.2674 25.8458 10.5632 26.8796 13.9081C27.9134 16.7249 26.0181 16.3728 27.3965 16.9009C28.7749 17.429 27.9134 19.5416 27.9134 19.5416C29.2918 19.3655 30.1533 16.9009 29.2918 14.2602C28.6026 12.1477 27.7411 11.2674 27.2242 10.7393C26.3627 10.0351 24.9843 9.85905 23.2612 11.2674Z" fill="white"/>
<path d="M17.5752 15.492C18.4367 17.6045 14.4738 20.5973 14.4738 20.5973C14.4738 20.5973 21.3659 18.8368 21.5382 14.6117C21.5382 11.795 22.0551 9.50639 26.1903 9.50639C24.295 9.1543 24.1227 9.1543 22.572 9.1543C22.0551 9.1543 19.4705 9.33034 17.9198 11.0908C16.3691 12.8513 18.4367 14.7878 12.0615 16.1961C14.9907 16.5482 17.5752 15.492 17.5752 15.492Z" fill="white"/>
<path d="M25.1556 21.4775C24.811 17.7805 27.2232 17.7805 27.2232 17.7805C26.3617 17.0764 23.6049 17.0764 23.2603 17.6045C23.2603 17.6045 21.5372 19.0129 22.5711 22.3577C23.4326 25.7026 29.8078 26.4068 32.0477 26.4068L31.8754 25.8787C30.497 25.8787 25.5002 25.1745 25.1556 21.4775Z" fill="white"/>
<path d="M50.8295 22.3579H48.245C47.3834 24.9986 46.1773 26.0549 43.7651 26.9351L43.5928 27.2872C46.1773 27.1112 49.6234 25.8788 50.8295 22.3579Z" fill="white"/>
<path d="M56.6873 38.026C55.9981 39.2583 55.3089 40.4906 54.792 41.7229C55.1366 41.1948 55.8258 40.6666 56.515 40.3146C57.7211 39.4343 58.5827 39.0822 58.5827 39.0822L59.6165 38.7301L59.4442 39.7864C59.4442 39.7864 59.0996 41.3708 59.0996 42.9552C59.0996 43.6594 59.2719 44.1876 59.4442 44.7157C59.6165 44.1876 59.9611 43.4834 60.478 42.7792C61.6841 41.1948 62.7179 40.4906 62.7179 40.4906L63.4071 40.1385V41.0187C63.4071 41.0187 63.5794 44.0115 64.2686 45.4199C65.4748 48.0606 67.5424 49.469 68.7485 49.9971C68.5762 49.821 68.4039 49.645 68.0593 49.2929C67.5424 48.5887 66.8532 47.5324 66.5086 45.0678C66.164 42.9552 67.0255 41.0187 67.3701 40.3146C67.5424 40.8427 67.7147 41.3708 68.0593 41.5469C68.0593 41.5469 68.0593 41.0187 68.2316 40.4906C68.4039 39.0822 69.9546 36.9697 72.0223 35.5613C72.3669 35.2092 72.7115 35.0332 73.0561 34.8571C73.4007 34.6811 73.573 34.505 73.9176 34.329C73.573 34.329 73.0561 34.505 72.7115 34.505H72.5392C72.1946 34.505 71.85 34.505 71.5054 34.505C70.6438 34.505 69.4377 34.329 68.5762 33.6248C67.7147 32.9206 67.3701 32.0404 67.1978 31.5122C66.8532 31.5122 66.3363 31.5122 65.6471 31.5122C64.9579 31.5122 64.2686 31.3362 63.924 31.1602C62.8902 31.8643 61.8564 32.0404 60.6503 32.0404C60.478 32.0404 60.3057 32.0404 60.1334 32.0404C60.478 32.3925 60.9949 32.5685 61.5118 32.9206L61.1672 33.0967C60.9949 32.9206 59.4442 33.9769 56.6873 38.026Z" fill="white"/>
<path d="M73.0562 30.8081C72.5393 30.8081 72.1946 30.8081 71.6777 30.8081C71.6777 31.1602 71.6777 31.3362 71.6777 31.6883C71.6777 32.0404 72.0223 32.3925 72.1947 32.5686C72.5393 32.2165 72.8839 31.6883 73.0562 30.8081Z" fill="white"/>
<path d="M73.918 27.9913C73.7457 27.9913 73.7457 27.9913 73.7457 27.9913C73.5734 27.9913 73.5734 27.9913 73.4011 27.9913C72.3673 27.9913 71.5058 28.3433 70.472 28.5194C69.4381 28.6954 68.4043 29.0475 67.3705 29.0475C67.1982 29.0475 67.0259 29.0475 66.6813 29.0475C66.509 29.0475 66.509 29.0475 66.3367 29.0475H66.1644H65.9921C63.7521 28.6954 62.2014 27.9913 61.5122 27.6392C61.6845 27.8152 61.8568 28.1673 62.2014 28.5194C62.3737 28.6954 62.3737 28.6954 62.546 28.8715C62.8906 29.0475 63.2352 29.3996 63.5798 29.5757C64.0968 29.9278 66.1644 30.6319 68.9212 30.2799C72.0227 29.7517 72.5396 29.9278 73.4011 29.9278H73.7457C74.7795 29.9278 76.5026 30.808 77.0195 31.1601C77.3641 30.6319 77.5364 29.9278 77.7087 29.2236C77.5364 29.0475 77.3641 28.8715 76.8472 28.6954C76.6749 28.6954 76.5026 28.5194 76.3303 28.5194C75.9857 28.3433 75.641 28.3433 75.2964 28.1673C74.4349 27.9913 74.2626 27.9913 73.918 27.9913Z" fill="white"/>
<path d="M82.7052 38.3781C82.5329 38.3781 81.4991 39.0823 79.0868 37.4978C76.6746 35.9134 74.9516 35.2092 73.9177 35.0332C73.7454 35.2092 73.5731 35.3853 73.2285 35.3853C72.8839 35.5613 72.7116 35.7374 72.1947 36.0895C72.0224 36.0895 72.0224 36.2655 71.8501 36.4416H72.0224C74.2623 36.6176 75.9854 38.026 76.1577 38.5541C76.33 37.8499 76.1577 37.1458 76.1577 37.1458C76.1577 37.1458 77.1915 37.8499 79.2591 38.9062C81.4991 40.1385 82.3606 38.9062 82.7052 38.3781Z" fill="white"/>
<path d="M70.8164 32.0407C70.644 31.8646 70.4717 31.6886 70.4717 31.5125C70.2994 31.3365 70.2994 31.1604 70.2994 30.9844C69.7825 30.9844 69.2656 31.1604 68.4041 31.1604C68.2318 31.1604 68.0595 31.1604 67.8872 31.1604C68.2318 31.8646 68.921 32.7448 70.1271 32.9209H70.2994H70.4717C70.9887 32.9209 71.5056 33.0969 72.0225 33.0969C72.884 33.0969 73.9178 32.9209 74.7793 32.7448C74.9516 32.3927 75.1239 32.2167 75.4685 31.8646C75.4685 31.8646 75.2962 31.8646 75.2962 31.6886C75.1239 31.5125 74.4347 31.1604 74.0901 30.9844C73.9178 31.3365 73.7455 31.6886 73.4009 32.0407C73.0563 32.3927 72.5394 32.3927 72.0225 32.3927C71.5056 32.3927 70.9887 32.2167 70.6441 32.0407C70.9887 32.2167 70.8164 32.2167 70.8164 32.0407Z" fill="white"/>
<path d="M77.5361 30.2798C76.8469 32.2163 75.6408 33.8007 74.7793 34.5049C80.293 32.9205 81.3268 35.9133 81.3268 35.9133C81.3268 36.0893 81.3268 36.0893 81.4991 35.9133C81.6714 35.7372 83.3944 33.8007 82.1883 31.8642C80.8099 30.4558 78.2253 30.2798 77.5361 30.2798ZM77.5361 31.6882C77.7084 31.3361 77.8807 30.984 77.8807 30.984C78.2253 30.984 79.0869 31.16 79.0869 31.6882C78.57 31.5121 77.8807 31.5121 77.5361 31.6882Z" fill="white"/>
<path d="M35.4937 31.6883C35.4937 31.5123 35.4937 31.1602 35.4937 30.8081C34.9768 30.8081 34.4598 30.8081 34.1152 30.8081C34.2875 31.6883 34.6321 32.2165 34.9768 32.3925C35.1491 32.3925 35.3214 32.0404 35.4937 31.6883Z" fill="white"/>
<path d="M41.6968 28.872C41.5245 28.872 41.5245 28.872 41.5245 28.872H41.3522H41.1799C41.0076 28.872 41.0076 28.872 40.8353 28.872C40.663 28.872 40.4907 28.872 40.1461 28.872C39.1123 28.872 38.0785 28.5199 37.0446 28.3439C36.0108 28.1678 35.1493 27.8157 34.1155 27.8157C33.9432 27.8157 33.9432 27.8157 33.7709 27.8157C33.5986 27.8157 33.254 27.8157 33.0817 27.8157C32.5648 27.8157 32.2202 27.9918 32.0479 28.1678C31.8756 28.1678 31.7033 28.3439 31.5309 28.3439C31.1863 28.5199 30.8417 28.696 30.6694 28.872C30.8417 29.5762 31.1863 30.2804 31.3586 30.8085C32.0479 30.4564 33.5986 29.7522 34.6324 29.5762H34.977C35.6662 29.5762 36.3554 29.4002 39.4569 29.9283C42.2137 30.2804 44.2814 29.4002 44.7983 29.2241C45.1429 29.0481 45.4875 28.696 45.8321 28.5199C46.0044 28.3439 46.1767 28.3439 46.1767 28.1678C46.5213 27.8157 46.6936 27.6397 46.8659 27.2876C45.4875 27.8157 43.9368 28.5199 41.6968 28.872C41.8691 28.872 41.8691 28.872 41.6968 28.872Z" fill="white"/>
<path d="M24.2949 38.3781C24.6395 38.7302 25.501 40.1385 27.5687 38.9062C29.6363 37.6739 30.6701 37.1458 30.6701 37.1458C30.6701 37.1458 30.3255 37.6739 30.6701 38.5541C30.8424 38.026 32.5655 36.6176 34.8054 36.4416C34.9777 36.4416 34.9777 36.4416 34.9777 36.4416C34.8054 36.2655 34.8054 36.2655 34.6331 36.0895C34.2885 35.7374 33.9439 35.5613 33.5993 35.3853C33.427 35.2093 33.2547 35.2092 32.9101 35.0332C31.8762 35.2092 30.1532 35.9134 27.741 37.4978C25.501 39.0823 24.4672 38.3781 24.2949 38.3781C24.4672 38.3781 24.2949 38.3781 24.2949 38.3781Z" fill="white"/>
<path d="M32.7378 31.3364C32.3932 31.5125 31.704 31.8646 31.5317 32.0406C31.3594 32.0406 31.3594 32.0406 31.3594 32.2167C31.5317 32.5688 31.704 32.9208 32.0486 33.0969C33.0824 33.2729 34.1162 33.449 34.8054 33.449C35.3223 33.449 35.8392 33.449 36.3562 33.2729C36.5285 33.2729 36.5285 33.2729 36.5285 33.2729C36.7008 33.2729 36.7008 33.2729 36.7008 33.2729C37.9069 32.9208 38.5961 32.2167 38.9407 31.5125C38.7684 31.5125 38.5961 31.5125 38.4238 31.5125C37.5623 31.3364 37.0454 31.3364 36.5285 31.3364C36.5285 31.5125 36.3562 31.6885 36.3562 31.8646C36.1839 32.0406 36.1839 32.2167 36.0115 32.3927L35.8392 32.5688C35.4946 32.9208 34.9777 32.9208 34.4608 32.9208C33.9439 32.9208 33.427 32.7448 33.0824 32.5688C33.0824 32.0406 32.9101 31.6885 32.7378 31.3364Z" fill="white"/>
<path d="M24.9835 32.0408C23.6051 33.9773 25.5004 35.9138 25.6727 36.0898C25.6727 36.2659 25.845 36.0898 25.845 36.0898C25.845 35.9138 26.8789 33.0971 32.3925 34.6815C31.531 33.9773 30.3249 32.3929 29.6357 30.4564C28.7742 30.2803 26.1896 30.4564 24.9835 32.0408ZM29.6357 31.6887C29.1188 31.5126 28.6019 31.5126 28.085 31.5126C28.085 30.9845 28.7742 30.8085 29.2911 30.8085C29.2911 30.9845 29.4634 31.5126 29.6357 31.6887Z" fill="white"/>
<path d="M47.0386 32.0404C46.8663 32.0404 46.694 32.0404 46.5217 32.0404C45.3156 32.0404 44.2818 31.6883 43.248 31.1602C42.9034 31.3362 42.2141 31.3362 41.5249 31.5122C40.8357 31.5122 40.3188 31.5122 39.9742 31.5122C39.8019 32.0404 39.4573 32.9206 38.5958 33.6248C37.7343 34.329 36.5282 34.505 35.6666 34.505C35.1497 34.505 34.8051 34.505 34.6328 34.505H34.4605C34.1159 34.505 33.599 34.329 33.2544 34.329C33.599 34.505 33.9436 34.6811 34.1159 34.8571C34.4605 35.0332 34.8051 35.2092 35.1497 35.5613C37.0451 36.9697 38.5958 39.0822 38.9404 40.4906C39.1127 41.0187 38.9404 41.5469 39.1127 41.5469C39.4573 41.3708 39.6296 40.8427 39.8019 40.3146C40.1465 40.8427 40.8357 42.9552 40.6634 45.0678C40.3188 47.5324 39.6296 48.5887 39.1127 49.2929C38.9404 49.645 38.5958 49.821 38.4235 49.9971C39.6296 49.2929 41.6972 48.0606 42.9034 45.4199C43.5926 44.0115 43.7649 41.0187 43.7649 41.0187V40.1385L44.4541 40.4906C44.4541 40.4906 45.4879 41.0187 46.694 42.7792C47.0386 43.3073 47.3832 44.0115 47.7278 44.7157C47.9001 44.1876 48.0724 43.6594 48.0724 42.9552C48.2447 41.5469 47.9001 39.9625 47.7278 39.7864L47.5555 38.7301L48.5893 39.0822C48.5893 39.0822 49.6232 39.4343 50.657 40.3146C51.3462 40.8427 51.8631 41.3708 52.38 41.7229C51.8631 40.4906 51.3462 39.2583 50.4847 38.026C47.9001 33.9769 46.1771 33.0967 46.1771 33.0967L45.8325 32.9206C46.3494 32.5685 46.694 32.3925 47.0386 32.0404Z" fill="white"/>
</g>
<defs>
<clipPath id="clip0_524:88">
<rect width="107" height="122" fill="white"/>
</clipPath>
</defs>
</svg>
