<svg width="169" height="192" viewBox="0 0 169 192" fill="none" xmlns="http://www.w3.org/2000/svg">
<g clip-path="url(#clip0_1_85)">
<mask id="mask0_1_85" style="mask-type:luminance" maskUnits="userSpaceOnUse" x="31" y="0" width="107" height="122">
<path d="M138 0H31V122H138V0Z" fill="white"/>
</mask>
<g mask="url(#mask0_1_85)">
<path d="M114.911 91.0156C114.567 91.0156 114.222 91.3677 114.222 91.7198C114.222 92.0719 114.567 92.424 114.911 92.424C115.256 92.424 115.601 92.0719 115.601 91.7198C115.601 91.3677 115.256 91.0156 114.911 91.0156Z" fill="white"/>
<path d="M116.979 97.1778C116.979 97.5299 117.324 97.882 117.668 97.882C118.013 97.882 118.357 97.5299 118.357 97.1778C118.357 96.8257 118.013 96.4736 117.668 96.4736C117.324 96.4736 116.979 96.8257 116.979 97.1778Z" fill="white"/>
<path d="M114.911 96.4736C114.567 96.4736 114.222 96.8257 114.222 97.1778C114.222 97.5299 114.567 97.882 114.911 97.882C115.256 97.882 115.601 97.5299 115.601 97.1778C115.601 96.8257 115.256 96.4736 114.911 96.4736Z" fill="white"/>
<path d="M119.736 97.1778C119.736 97.5299 120.081 97.882 120.425 97.882C120.77 97.882 121.114 97.5299 121.114 97.1778C121.114 96.8257 120.77 96.4736 120.425 96.4736C120.081 96.4736 119.736 96.8257 119.736 97.1778Z" fill="white"/>
<path d="M114.05 84.854L114.222 86.4384L112.844 86.2624V88.0228L114.222 87.8468L114.05 89.4312H115.773L115.601 87.8468L116.979 88.0228V86.2624L115.601 86.4384L115.773 84.854H114.05Z" fill="white"/>
<path d="M116.117 90.4873V96.1208H121.459C120.942 93.304 118.874 91.0154 116.117 90.4873Z" fill="white"/>
<path d="M114.911 93.6567C114.567 93.6567 114.222 94.0088 114.222 94.3609C114.222 94.713 114.567 95.0651 114.911 95.0651C115.256 95.0651 115.601 94.713 115.601 94.3609C115.601 94.0088 115.256 93.6567 114.911 93.6567Z" fill="white"/>
<path d="M117.152 101.05C116.98 101.05 116.635 102.459 116.98 103.515C117.152 104.043 117.669 104.219 118.186 104.219C118.703 104.043 118.703 103.691 118.703 103.339C118.875 102.107 117.841 101.05 117.152 101.05Z" fill="white"/>
<path d="M112.671 101.05C111.982 101.05 110.948 102.107 111.121 103.163C111.121 103.515 111.293 103.867 111.637 104.043C112.154 104.219 112.671 104.043 112.844 103.339C113.188 102.459 112.844 101.05 112.671 101.05Z" fill="white"/>
<path d="M114.911 100.347C114.394 100.347 113.016 103.163 114.049 104.748C114.222 105.1 114.566 105.1 114.911 105.1C115.256 105.1 115.6 104.924 115.773 104.748C116.806 103.163 115.428 100.347 114.911 100.347Z" fill="white"/>
<path d="M108.364 97.1772C108.364 96.6491 108.536 96.1209 108.536 96.1209H113.705V95.5928V91.5438V90.3114C111.121 90.8396 109.053 92.7761 108.364 95.4168C108.192 95.5928 107.675 95.7689 107.33 95.7689C105.263 95.5928 101.3 94.7126 101.3 93.8324C101.3 92.6 102.161 92.0719 102.85 92.0719C103.884 92.0719 105.263 92.7761 106.296 91.1917C102.678 91.3677 105.435 85.9103 102.506 84.854C102.678 86.2624 102.506 88.727 101.989 89.9593C101.989 89.9593 100.955 88.727 99.7489 88.3749C99.9212 89.4312 99.5766 91.5438 99.232 92.424C99.232 92.424 98.0259 91.1917 96.6475 90.8396C97.8536 92.6 97.8536 95.2407 97.509 96.8251C97.3367 97.3533 97.6813 97.8814 98.7151 97.8814C100.093 97.8814 105.09 98.0575 107.33 98.9377C108.019 99.2898 108.536 99.4658 108.881 99.994C109.053 100.698 109.742 101.754 110.432 102.283C110.776 101.05 112.155 99.994 113.016 99.994C113.361 99.994 113.533 100.522 113.705 100.874C113.705 100.522 114.395 99.2898 115.084 99.2898C115.773 99.2898 116.29 100.17 116.635 101.05C116.635 100.522 116.979 99.994 117.324 99.994C118.185 99.994 119.219 100.874 119.736 102.107C120.081 101.754 121.631 99.6419 121.804 98.2335H108.709C108.364 98.4095 108.364 97.8814 108.364 97.1772Z" fill="white"/>
<path d="M111.637 97.1778C111.637 97.5299 111.982 97.882 112.326 97.882C112.671 97.882 113.016 97.5299 113.016 97.1778C113.016 96.8257 112.671 96.4736 112.326 96.4736C111.81 96.4736 111.637 96.8257 111.637 97.1778Z" fill="white"/>
<path d="M108.881 97.1778C108.881 97.5299 109.225 97.882 109.57 97.882C109.915 97.882 110.259 97.5299 110.259 97.1778C110.259 96.8257 109.915 96.4736 109.57 96.4736C109.225 96.4736 108.881 96.8257 108.881 97.1778Z" fill="white"/>
<path d="M57.534 99.9946C57.3617 100.171 56.8448 101.579 57.0171 102.459C57.1894 102.811 57.3617 102.987 57.7063 102.987C58.0509 102.987 58.2232 102.811 58.3955 102.459C58.3955 101.579 57.7063 100.171 57.534 99.9946Z" fill="white"/>
<path d="M62.1868 104.043C61.8422 104.395 61.4976 104.571 61.4976 104.747C61.6699 104.923 62.0145 105.099 62.3591 105.099C62.5314 105.099 62.876 105.099 63.0483 104.923C63.3929 104.219 63.0483 103.515 62.876 103.339C62.5314 103.339 62.3591 103.691 62.1868 104.043Z" fill="white"/>
<path d="M60.2912 102.107C60.8081 101.579 60.9804 101.227 60.8081 101.051C60.6358 100.699 59.602 99.4662 58.2236 98.2339C58.2236 98.586 58.0513 98.762 58.0513 99.1141C58.9128 100.346 59.2574 101.579 58.9128 102.811C59.0851 102.811 59.0851 102.987 59.0851 102.987C59.602 102.811 60.1189 102.459 60.2912 102.107Z" fill="white"/>
<path d="M62.014 102.283C62.014 102.107 62.014 101.931 61.8417 101.755C61.8417 101.755 61.6694 101.931 61.4971 102.107C61.3248 102.283 61.1525 102.459 60.9802 102.811C60.8079 102.987 60.6356 103.163 60.4633 103.339C60.291 103.515 60.1187 103.691 60.1187 103.867C60.1187 103.867 60.291 104.043 60.4633 104.043C60.6356 104.043 60.9802 103.867 61.6694 103.339C61.8417 102.811 62.014 102.459 62.014 102.283Z" fill="white"/>
<path d="M53.9164 95.5928C53.9164 95.5928 53.7441 95.7689 53.5718 95.9449C53.9164 95.9449 54.261 95.9449 54.4333 96.121C54.4333 95.7689 54.4333 95.4168 54.4333 95.2407C54.261 95.2407 53.9164 95.4168 53.9164 95.5928Z" fill="white"/>
<path d="M57.1894 95.9451C57.1894 95.9451 59.7739 98.2337 60.6355 99.114C60.8078 99.29 61.1524 99.29 61.3247 99.29C61.497 99.29 61.6693 99.114 61.8416 98.9379C64.4261 98.0577 68.7337 97.8816 70.2844 98.0577C71.1459 98.0577 71.4905 97.5295 71.4905 97.0014C71.1459 95.593 71.1459 92.7763 72.352 91.0158C70.9736 91.544 69.7675 92.6003 69.7675 92.6003C69.2506 91.72 69.0783 89.6075 69.2506 88.5512C68.0445 89.0793 67.0106 90.1356 67.0106 90.1356C66.4937 88.9033 66.3214 86.4386 66.4937 85.0303C63.5646 86.0866 66.3214 91.544 62.7031 91.3679C63.7369 92.9524 64.943 92.2482 66.1491 92.2482C67.0106 92.2482 67.8722 92.7763 67.6999 94.0086C67.5276 94.8889 62.7031 95.9451 60.6355 95.9451C59.257 95.9451 58.3955 95.593 57.7063 94.5368C57.3617 94.0086 57.0171 93.8326 56.6725 93.8326C56.1556 93.8326 55.6387 94.3607 55.6387 95.593C55.6387 96.4733 55.9833 98.2337 56.8448 98.2337C57.3617 98.2337 57.534 96.8254 57.1894 95.9451Z" fill="white"/>
<path d="M52.3656 95.0651C52.538 95.0651 52.538 95.0651 52.7103 95.0651C52.3656 95.5932 52.3656 95.9453 52.538 96.1213C52.7103 96.2974 52.8826 95.9453 53.5718 95.2411C54.261 94.5369 54.6056 94.3609 54.4333 94.1848C54.261 94.0088 53.9164 94.0088 53.3995 94.3609C53.3995 94.1848 53.3995 94.1848 53.3995 94.0088C53.2272 93.4807 52.1933 92.6004 51.6764 92.6004H51.5041C51.6764 92.2483 51.6764 91.8962 51.5041 91.7202C51.3318 91.5441 51.1595 91.7202 50.9872 91.8962C50.9872 91.7202 50.9872 91.5441 50.8149 91.192C49.9534 89.9597 45.8181 85.9107 44.9566 85.5586C44.4397 85.3825 44.2674 85.7346 44.2674 85.7346C44.2674 85.7346 43.9228 85.9107 44.2674 86.6149C44.612 87.6711 48.7473 91.8962 49.9534 92.6004C50.1257 92.7765 50.4703 92.7765 50.6426 92.7765C50.4703 92.9525 50.298 93.1286 50.4703 93.3046C50.6426 93.4806 50.9872 93.4806 51.3318 93.3046V93.4806C50.8149 94.0088 51.6764 94.889 52.3656 95.0651Z" fill="white"/>
<path d="M55.2941 98.2338C55.2941 97.8817 54.4326 97.0015 53.5711 97.0015C52.1926 97.0015 51.5034 97.8817 51.5034 98.4098C51.5034 99.2901 52.3649 99.4661 52.5372 99.4661C53.5711 99.4661 55.1218 98.4098 55.2941 98.2338Z" fill="white"/>
<path d="M54.0885 100.346C53.7439 100.874 53.5716 101.226 53.7439 101.754C53.9162 102.283 54.4331 102.459 54.7777 102.459C55.2946 102.459 55.6392 102.283 55.9838 101.754C56.5007 100.874 56.5007 98.9378 56.3284 98.7617C55.8115 98.9378 54.6054 99.4659 54.0885 100.346Z" fill="white"/>
<path d="M41.8548 80.453C41.5102 80.1009 40.6486 80.629 40.1317 80.453C40.304 79.2207 41.1655 80.453 42.0271 79.5728C42.3717 79.2207 42.1994 78.6925 42.0271 78.5165C41.6825 78.8686 41.1655 78.6925 41.1655 78.5165C42.0271 76.2279 40.304 73.7632 38.581 74.1153C38.9256 74.6435 39.0979 76.2279 38.9256 76.58C39.6148 77.1081 39.0979 78.1644 38.4087 77.8123C37.8918 77.6362 37.0303 76.4039 38.0641 75.5237C38.0641 75.1716 37.5472 75.1716 36.858 75.8758C37.2026 74.4674 34.6181 74.8195 34.1011 75.1716C33.7565 75.6997 33.4119 78.5165 34.7904 77.9883C34.1011 78.6925 34.1011 79.2207 34.4457 79.2207C35.3073 78.1644 36.5134 79.0446 36.6857 79.5728C37.0303 80.2769 35.9965 80.8051 35.4796 80.1009C35.135 80.2769 33.5842 80.2769 33.0673 79.9248C32.895 81.6853 35.3073 83.6218 37.3749 82.5655C37.5472 82.5655 37.7195 83.0937 37.3749 83.6218C37.5472 83.7979 38.0641 83.9739 38.4087 83.6218C39.2702 82.7416 37.8918 81.8614 39.0979 81.6853C39.4425 82.2134 38.7533 83.0937 39.2702 83.4458C39.7871 84.15 40.4763 82.9176 41.3379 82.7416C41.3379 82.0374 42.544 81.1572 41.8548 80.453ZM35.3073 77.6362C35.3073 77.6362 34.9627 77.2842 35.3073 76.756C35.8242 76.2279 36.1688 76.756 36.1688 76.756C36.1688 76.756 36.6857 77.8123 36.6857 78.3404C36.3411 78.1644 35.3073 77.6362 35.3073 77.6362ZM39.2702 80.8051C39.0979 80.8051 38.4087 81.3332 38.0641 81.1572L36.6857 79.7488L37.3749 79.0446L38.0641 78.3404L39.6148 79.5728C39.7871 79.9248 39.4425 80.629 39.2702 80.8051Z" fill="white"/>
<path d="M42.1995 83.0938C42.0272 83.0938 41.8549 83.0937 41.6826 83.2698C41.5103 83.4458 41.5103 83.6219 41.5103 83.974C41.5103 84.3261 41.6826 84.5021 42.0272 84.8542C42.3718 85.2063 42.7164 85.3823 42.8887 85.3823C43.061 85.3823 43.2333 85.3823 43.2333 85.2063C43.5779 84.8542 43.4056 84.3261 42.8887 83.7979C42.8887 83.2698 42.5441 83.0938 42.1995 83.0938Z" fill="white"/>
<path d="M38.2361 78.8687L37.8915 79.3968L37.5469 79.7489C37.5469 79.7489 38.2361 80.8052 38.9253 80.4531C39.2699 79.7489 38.2361 78.8687 38.2361 78.8687Z" fill="white"/>
<path d="M110.776 74.9959C110.776 75.172 109.742 75.7001 109.053 74.2918C108.364 74.1157 107.502 73.9397 106.985 73.7636C107.847 75.5241 108.708 77.1085 109.914 77.8127C111.637 79.045 114.567 78.6929 115.601 77.4606C114.05 76.5803 112.154 74.2917 111.121 72.1792C110.948 72.7073 110.604 73.5876 110.259 74.1157C110.259 74.4678 110.604 74.8199 110.776 74.9959Z" fill="white"/>
<path d="M128.179 47.3567C130.246 46.4765 133.003 44.54 134.381 43.1316C134.554 43.3077 135.071 44.54 133.52 45.7723C132.486 46.6525 130.246 47.7088 128.523 48.413C127.834 49.6453 126.283 50.8776 124.216 52.286C128.179 51.5818 133.003 49.9974 135.243 47.7088C139.723 43.3077 137.311 37.8502 136.794 36.7939C133.864 40.4909 128.523 44.3639 123.354 46.3004C125.077 46.4765 126.972 46.8286 128.179 47.3567Z" fill="white"/>
<path d="M124.905 39.0821C127.489 36.9695 130.246 32.5684 130.763 30.9839C131.28 31.336 131.625 32.7444 130.763 34.1528C129.385 36.6174 126.972 38.73 124.905 40.4904C124.732 42.0749 124.216 43.8353 123.354 45.2437C126.456 43.1311 130.074 39.9623 131.625 37.6737C133.692 34.857 134.554 32.0402 134.209 29.2235C134.381 26.0547 132.141 22.8858 131.28 22.1816C130.763 25.7026 127.317 31.5121 124.216 34.857C124.56 36.0893 124.905 37.6737 124.905 39.0821Z" fill="white"/>
<path d="M122.837 59.3276C123.526 60.0318 124.043 60.912 124.56 61.7923C126.972 62.3204 129.901 62.1444 129.901 62.1444C129.901 62.1444 129.729 63.3767 128.178 63.5527C127.489 63.5527 125.249 63.2006 124.388 63.0246C124.043 63.2006 122.32 63.5527 120.597 63.9048C123.009 64.785 126.628 65.6653 129.04 65.6653C129.212 65.6653 129.557 65.6653 129.729 65.6653C133.348 65.3132 135.243 61.9683 135.243 59.8558C134.209 60.0318 132.314 60.2079 130.418 60.2079C128.351 60.0318 125.249 59.8558 122.837 59.3276Z" fill="white"/>
<path d="M138 49.6445C134.726 51.405 129.04 53.1655 124.56 53.1655C125.766 53.8696 126.8 54.7499 127.489 55.4541C129.385 55.278 131.969 54.7499 133.52 54.0457C133.52 54.3978 133.52 55.6301 131.797 56.1582C130.591 56.5103 128.695 56.5103 127.317 56.5103C126.283 57.2145 124.56 57.9187 123.182 58.4468C124.388 58.6229 125.939 58.7989 127.489 58.7989C129.901 58.7989 131.969 58.6229 133.348 58.0948C134.554 57.5666 138.689 55.8062 138 49.6445Z" fill="white"/>
<path d="M120.425 67.0741C121.803 67.7782 123.182 68.1303 124.56 68.3064C124.56 68.3064 124.388 69.5387 122.493 69.3627C121.459 69.1866 120.08 68.4824 119.908 68.1303C119.047 68.3064 117.324 68.1303 116.634 68.1303C118.702 69.7148 121.976 71.4752 124.733 71.6513C124.905 71.6513 125.077 71.6513 125.077 71.6513C128.006 71.6513 130.246 68.6585 130.763 67.2501C127.834 67.2501 123.01 66.0178 119.908 64.2573C120.08 65.1376 120.425 66.0178 120.425 67.0741Z" fill="white"/>
<path d="M115.6 70.9465C116.289 71.8268 117.496 72.3549 117.496 72.3549C117.496 72.3549 117.151 73.0591 116.462 73.0591C116.289 73.0591 115.945 73.0591 115.772 72.883C115.256 72.531 114.566 71.8268 114.566 71.8268C113.533 71.6507 112.671 71.4747 111.81 71.2986C113.36 73.2351 115.773 75.5237 118.529 76.2279C118.874 76.404 119.391 76.404 119.735 76.404C122.148 76.404 124.043 74.6435 124.56 73.4112C121.803 73.0591 117.84 70.9465 115.772 68.834C115.772 69.5382 115.772 70.4184 115.6 70.9465Z" fill="white"/>
<path d="M97.6814 102.283C99.0598 102.283 99.9213 101.755 100.438 100.346C98.5429 101.227 96.4752 100.698 92.8569 99.6421C92.8569 99.6421 91.4785 100.346 90.6169 100.346C92.8569 101.05 95.9583 102.107 96.6475 103.339C96.8198 104.395 96.3029 104.571 96.3029 104.571C95.0968 102.987 93.5461 102.107 90.4446 101.227C90.4446 101.755 90.2723 102.283 90.2723 102.283C90.2723 102.283 89.5831 102.459 88.2047 102.283C89.4108 103.339 92.5123 105.98 92.8569 108.796C93.0292 110.733 91.8231 110.733 91.8231 110.733C91.6508 107.916 90.4447 105.98 87.6878 103.163C87.6878 103.163 87.1709 103.867 86.654 104.219C86.654 104.219 85.6202 104.043 84.931 103.515C85.2756 107.212 85.4479 116.366 85.2756 117.951C85.1033 119.007 84.5864 119.359 84.5864 119.359C84.5864 119.359 84.0694 119.007 83.8971 117.951C83.7248 116.543 83.8971 107.388 84.2417 103.515C83.3802 104.043 82.5187 104.219 82.5187 104.219C82.0018 103.867 81.4849 103.163 81.4849 103.163C78.9004 106.156 77.6942 107.916 77.3496 110.733C77.3496 110.733 75.9712 110.557 76.3158 108.796C76.6604 105.98 79.7619 103.339 80.968 102.283C79.5896 102.459 78.9004 102.283 78.9004 102.283C78.9004 102.283 78.7281 101.931 78.7281 101.227C75.4543 102.283 74.0759 103.163 72.8698 104.571C72.8698 104.571 72.1806 104.395 72.5252 103.339C73.0421 102.107 76.3158 101.05 78.5558 100.346C77.6942 100.346 76.3158 99.6421 76.3158 99.6421C72.6975 100.698 70.6298 101.227 68.7345 100.346C69.2514 101.755 70.2852 102.283 71.4913 102.283C69.7683 102.987 68.0453 104.571 67.7007 106.508C68.9068 111.261 72.8698 112.67 72.8698 112.67C71.8359 110.381 72.3529 105.98 78.2112 102.811C74.5928 106.508 73.2144 109.853 74.0759 113.022C74.9374 116.014 77.8665 117.071 80.1065 117.247C78.5558 112.317 79.245 108.092 82.5187 104.571C81.1403 108.444 79.245 120.24 84.7587 122.176C90.2723 120.24 88.377 108.444 86.9986 104.571C90.2723 108.092 90.9616 112.493 89.4108 117.247C91.6508 117.247 94.5799 116.014 95.4414 113.022C96.4752 109.853 94.9245 106.508 91.3062 102.811C97.3368 105.98 97.6814 110.381 96.6475 112.67C96.6475 112.67 100.61 111.261 101.817 106.508C101.127 104.571 99.4044 102.811 97.6814 102.283Z" fill="white"/>
<path d="M59.2573 77.8127C60.4635 76.9324 61.325 75.5241 62.1865 73.7636C61.6696 73.9397 60.9804 74.2918 60.1189 74.2918C59.4296 75.7001 58.3958 75.172 58.3958 74.9959C58.5681 74.8199 58.9127 74.2918 59.085 74.1157C58.7404 73.5876 58.3958 72.7073 58.2235 72.1792C57.1897 74.4678 55.2944 76.5804 53.7437 77.4606C54.4329 78.869 57.362 79.045 59.2573 77.8127Z" fill="white"/>
<path d="M44.7841 52.286C42.7164 50.8776 41.338 49.6453 40.4765 48.413C38.7535 47.7088 36.5135 46.6525 35.4797 45.7723C33.929 44.54 34.4459 43.3077 34.6182 43.1316C35.9966 44.54 38.7535 46.4765 40.8211 47.3567C42.0272 46.8286 43.9225 46.4765 45.6456 46.3004C40.4765 44.1879 35.1351 40.3149 32.206 36.7939C31.6891 38.0263 29.2768 43.3077 33.7567 47.7088C35.9966 49.9974 40.8211 51.5818 44.7841 52.286Z" fill="white"/>
<path d="M45.6457 45.2437C44.9565 43.8353 44.2673 42.0749 44.095 40.4904C42.0274 38.73 39.6151 36.6174 38.2367 34.1528C37.3752 32.7444 37.7198 31.5121 38.2367 30.9839C38.7536 32.5684 41.5104 36.7935 44.095 39.0821C44.095 37.6737 44.2673 36.0893 44.7842 34.857C41.8551 31.5121 38.409 25.7026 37.7198 22.1816C36.8583 22.8858 34.6183 26.0547 34.7906 29.2235C34.446 32.0402 35.3075 34.857 37.3752 37.6737C38.9259 39.9623 42.5443 43.1311 45.6457 45.2437Z" fill="white"/>
<path d="M44.4393 61.616C44.7839 60.9118 45.4731 60.0316 46.1623 59.1514C43.7501 59.8556 40.6486 60.0316 39.0979 60.0316C37.2026 60.0316 35.3072 59.8556 34.2734 59.6795C34.2734 61.616 35.9965 65.1369 39.7871 65.489C39.9594 65.489 40.1317 65.489 40.4763 65.489C42.7163 65.489 46.3346 64.6088 48.9192 63.7286C47.1961 63.5525 45.4731 63.0244 45.1285 62.8483C43.9224 63.0244 41.6825 63.3765 40.9932 63.3765C39.4425 63.2004 39.2702 61.9681 39.2702 61.9681C39.2702 61.9681 42.1994 62.1442 44.4393 61.616Z" fill="white"/>
<path d="M35.652 58.0948C37.0304 58.6229 39.098 58.7989 41.5103 58.7989C43.061 58.7989 44.6117 58.6229 45.8178 58.4468C44.4394 57.9187 42.7164 57.2145 41.6826 56.5103C40.3041 56.5103 38.4088 56.5103 37.2027 56.1582C35.4797 55.6301 35.4797 54.3978 35.4797 54.0457C37.0304 54.7499 39.6149 55.278 41.5103 55.4541C42.1995 54.7499 43.2333 53.8696 44.4394 53.1655C39.9595 53.1655 34.1012 51.405 30.9998 49.6445C30.3106 55.8062 34.4458 57.5666 35.652 58.0948Z" fill="white"/>
<path d="M44.0947 71.6505C44.267 71.6505 44.4393 71.6505 44.4393 71.6505C47.1961 71.2984 50.4699 69.538 52.5375 68.1296C51.8483 68.3056 50.1253 68.3056 49.2638 68.1296C48.9192 68.3056 47.713 69.1859 46.6792 69.3619C44.7839 69.538 44.6116 68.3056 44.6116 68.3056C45.8177 68.1296 47.3684 67.7775 48.7469 67.0733C48.9192 66.017 49.0915 65.1368 49.2638 64.4326C46.3346 66.1931 41.3378 67.4254 38.4087 67.4254C38.9256 68.6577 41.1655 71.6505 44.0947 71.6505Z" fill="white"/>
<path d="M49.2634 76.2277C49.608 76.2277 50.125 76.2277 50.4696 76.0516C53.0541 75.3475 55.6386 73.0589 57.1894 71.1224C56.3279 71.4745 55.4663 71.6505 54.4325 71.6505C54.4325 71.6505 53.7433 72.5307 53.2264 72.7068C52.8818 72.8828 52.7095 72.8828 52.5372 72.8828C51.848 72.8828 51.5034 72.1786 51.5034 72.1786C51.5034 72.1786 52.7095 71.6505 53.3987 70.7703C53.3987 70.4182 53.2264 69.5379 53.2264 68.6577C51.1588 70.7703 47.1958 72.8828 44.439 73.2349C44.9559 74.4672 46.8512 76.2277 49.2634 76.2277Z" fill="white"/>
<path d="M83.5522 6.68958C83.5522 7.21772 84.0692 7.74585 84.5861 7.74585C85.103 7.74585 85.6199 7.21772 85.6199 6.68958C85.6199 6.16144 85.103 5.6333 84.5861 5.6333C83.8969 5.6333 83.5522 6.16144 83.5522 6.68958Z" fill="white"/>
<path d="M83.897 4.40115H85.2754L85.1031 2.64069L86.4815 2.81674V1.58442L85.1031 1.76046L85.2754 0H83.897L84.0693 1.76046L82.5186 1.58442V2.81674L84.0693 2.64069L83.897 4.40115Z" fill="white"/>
<path d="M79.0726 21.3014C79.2449 21.3014 79.4172 21.3014 79.5895 21.3014H89.583C89.7553 21.3014 89.9276 21.3014 90.0999 21.3014C90.4446 21.1253 90.6169 20.9493 90.6169 20.5972H78.5557C78.5557 20.9493 78.728 21.1253 79.0726 21.3014Z" fill="white"/>
<path d="M89.9273 19.7174C90.0996 19.7174 90.0996 19.7174 90.0996 19.5414V18.8372C90.0996 18.6611 90.0996 18.6611 89.9273 18.6611H79.0722C78.8999 18.6611 78.8999 18.6611 78.8999 18.8372V19.5414C78.8999 19.7174 78.8999 19.7174 79.0722 19.7174H89.9273Z" fill="white"/>
<path d="M91.1336 17.7807C91.4782 17.4286 92.8566 14.6119 92.8566 11.9712C92.8566 9.50651 89.7552 8.09814 88.0321 8.09814C87.8598 11.6191 86.4814 17.2525 84.7584 17.2525C83.0354 17.2525 81.6569 11.6191 81.4846 8.09814C79.5893 8.09814 76.6602 9.50651 76.6602 11.9712C76.6602 14.7879 78.0386 17.4286 78.3832 17.7807H91.1336Z" fill="white"/>
<path d="M84.5861 15.3162C85.4476 15.3162 86.4815 12.6755 86.8261 10.0348C86.8261 9.5067 85.9646 8.62646 84.5861 8.62646C83.2077 8.62646 82.3462 9.5067 82.3462 10.0348C82.5185 12.4995 83.7246 15.3162 84.5861 15.3162Z" fill="white"/>
<path d="M100.265 57.0387C100.265 56.6866 99.9207 56.3345 99.5761 56.3345H69.4231C69.0785 56.3345 68.7339 56.6866 68.7339 57.0387V78.1642V78.3402V78.5163C68.7339 78.5163 68.7339 79.5726 69.2508 80.9809C69.94 82.5653 72.5245 85.03 75.7983 86.7905C80.4505 89.2551 83.2073 91.1916 84.4134 92.2479C85.7919 91.1916 88.5487 89.2551 93.0286 86.7905C96.3023 85.03 98.8869 82.5653 99.5761 80.9809C100.093 79.5726 100.093 78.5163 100.093 78.5163L100.265 57.0387ZM90.0994 64.7847V64.9607C90.444 66.5452 90.7886 68.1296 90.9609 69.714C92.1671 70.7703 93.3732 71.8265 94.2347 72.8828C96.13 70.7703 96.9915 68.6577 97.1638 67.0733C96.3023 67.0733 95.6131 66.3691 95.6131 65.4889C95.6131 65.1368 95.7854 64.9607 95.9577 64.6086C95.0962 64.0805 94.0624 64.0805 93.2009 64.0805C92.5117 64.0805 91.6502 64.0805 90.7886 64.2565H90.6163H90.444V64.0805C90.6163 63.9045 90.6163 63.7284 90.6163 63.5524C93.0286 63.0242 95.0962 63.3763 96.3023 64.0805C96.4746 63.9045 96.8192 63.9045 97.1638 63.9045C98.0254 63.9045 98.7146 64.6086 98.7146 65.4889C98.7146 66.017 98.37 66.5451 97.8531 66.8972C97.8531 68.6577 96.8192 70.9463 94.7516 73.411C94.9239 73.587 94.9239 73.763 95.0962 73.763L95.2685 73.9391C95.0962 74.1151 95.0962 74.1151 94.9239 74.2912L94.7516 74.1151C94.7516 73.9391 94.5793 73.9391 94.5793 73.763C94.407 73.9391 94.0624 74.2912 93.8901 74.4672L93.7178 74.6433C93.3732 74.9954 93.0286 74.9954 92.684 74.8193H92.5117L92.684 74.6433C93.3732 74.1151 93.8901 73.587 94.2347 73.0589C93.3732 72.1786 92.5117 71.2984 91.4779 70.4182C91.4779 71.2984 91.6502 72.1786 91.6502 73.0589C91.6502 73.763 91.6502 74.6433 91.4779 75.6996C91.3055 75.6996 91.1332 75.8756 90.9609 76.0516H90.7886V75.8756C90.9609 74.8193 90.9609 73.9391 90.9609 73.0589C90.9609 72.7068 90.9609 72.5307 90.9609 72.1786V72.0026C90.9609 71.4744 90.7886 69.5379 90.6163 68.4817C90.444 67.4254 90.2717 66.3691 90.0994 65.4889C89.7548 65.3128 89.9271 65.1368 90.0994 64.7847ZM79.7613 62.4961C80.9674 59.5033 82.6904 57.9189 84.5857 57.9189C86.3088 57.9189 88.0318 59.5033 89.4102 62.4961C89.4102 62.4961 89.2379 62.6721 88.8933 62.6721C87.6872 60.0314 86.3088 58.447 84.758 58.447C83.2073 58.447 81.8289 60.0314 80.6228 62.6721C80.1059 62.6721 79.9336 62.6721 79.7613 62.4961ZM79.4167 63.2003C79.9336 63.5524 80.9674 64.0805 82.1735 63.7284C83.2073 63.3763 84.5857 63.3763 84.5857 63.3763C84.5857 63.3763 85.9642 63.3763 86.998 63.7284C88.2041 64.0805 89.2379 63.5524 89.7548 63.2003C89.7548 63.2003 89.9271 63.2003 89.9271 63.3763C89.7548 63.9045 89.4102 65.1368 87.5149 65.6649C85.7919 66.017 84.9303 68.1296 84.758 69.0098C84.758 69.1858 84.5857 69.1858 84.5857 69.0098C84.2411 68.1296 83.5519 66.1931 81.8289 65.6649C79.7613 65.1368 79.4167 63.9045 79.4167 63.2003C79.2444 63.2003 79.2444 63.2003 79.4167 63.2003ZM82.3458 68.3056C82.6904 68.3056 82.8627 68.1296 83.2073 67.9535C83.3796 68.3056 83.5519 68.4817 83.5519 68.8337C83.2073 69.0098 82.6904 69.1858 82.3458 69.1858C80.9674 69.1858 79.9336 68.1296 79.9336 66.7212C79.9336 66.3691 79.9336 66.017 80.1059 65.841C80.2782 66.017 80.6228 66.1931 80.9674 66.1931C80.9674 66.3691 80.7951 66.5452 80.7951 66.7212C80.9674 67.6014 81.6566 68.3056 82.3458 68.3056ZM81.6566 66.8972C81.6566 66.7212 81.6566 66.7212 81.6566 66.5451C82.0012 66.7212 82.3458 67.0733 82.6904 67.4254C82.5181 67.4254 82.5181 67.6014 82.3458 67.6014C82.0012 67.6014 81.6566 67.2493 81.6566 66.8972ZM82.3458 70.0661C82.8627 70.0661 83.3796 69.89 83.8965 69.5379C84.0688 69.714 84.2411 70.2421 84.4134 70.2421C84.5857 70.2421 84.758 69.714 84.9303 69.5379C85.4473 69.89 85.9642 70.0661 86.4811 70.0661C87.3426 70.0661 88.2041 69.714 88.721 69.1858C89.0656 70.2421 89.0656 71.4744 89.0656 72.0026C89.0656 72.5307 88.8933 73.0589 88.721 73.587C88.5487 74.2912 88.3764 74.6433 88.3764 74.6433C88.3764 74.6433 88.3764 74.8193 88.2041 74.9954C88.0318 75.5235 87.6872 76.4037 87.1703 77.284C86.3088 76.7558 85.1027 76.4037 83.8965 76.4037C82.8627 76.4037 81.8289 76.7558 80.9674 77.1079C80.6228 76.2277 80.2782 75.5235 80.1059 74.9954C79.9336 74.6433 79.9336 74.6433 79.9336 74.6433C79.9336 74.6433 79.7613 74.1151 79.4167 73.411C79.2444 73.0589 79.2444 72.5307 79.0721 72.0026C79.0721 71.6505 79.0721 70.2421 79.2444 69.1858C79.2444 69.0098 79.4167 68.8337 79.4167 68.8337C80.6228 69.714 81.4843 70.0661 82.3458 70.0661ZM86.6534 68.3056C87.5149 68.3056 88.2041 67.6014 88.2041 66.7212C88.2041 66.5452 88.2041 66.3691 88.0318 66.1931C88.3764 66.017 88.5487 66.017 88.8933 65.841C89.0656 66.1931 89.0656 66.3691 89.0656 66.7212C89.0656 68.1296 88.0318 69.1858 86.6534 69.1858C86.1365 69.1858 85.7919 69.0098 85.4473 68.8337C85.4473 68.6577 85.6196 68.3056 85.7919 67.9535C86.1365 68.3056 86.4811 68.3056 86.6534 68.3056ZM86.3088 67.4254C86.6534 67.0733 86.998 66.7212 87.3426 66.5451C87.3426 66.5451 87.3426 66.7212 87.3426 66.8972C87.3426 67.2493 86.998 67.6014 86.6534 67.6014C86.4811 67.6014 86.4811 67.4254 86.3088 67.4254ZM71.8353 63.7284C72.1799 63.7284 72.3522 63.9045 72.6969 64.0805C73.5584 63.5524 74.5922 63.2003 75.9706 63.2003C76.6598 63.2003 77.5213 63.2003 78.3828 63.3763H78.5551C78.5551 63.5524 78.7275 63.7284 78.7275 63.9045V64.0805H78.3828H78.2105C77.349 63.9045 76.6598 63.9045 75.9706 63.9045C75.1091 63.9045 74.0753 64.0805 73.2138 64.4326C73.3861 64.6086 73.3861 64.9607 73.3861 65.3128C73.3861 66.1931 72.6969 66.8972 71.8353 66.8972C71.8353 68.4817 72.8692 70.4182 74.7645 72.7068C75.7983 71.6505 76.8321 70.5942 78.0382 69.5379C78.2105 67.9535 78.5551 66.3691 78.8997 64.7847V64.6086L79.0721 64.7847C79.2444 64.9607 79.2444 65.1368 79.4167 65.1368C79.2444 66.017 78.8997 67.0733 78.8997 68.1296C78.7274 68.8338 78.7275 69.89 78.7275 70.9463C78.7275 71.6505 78.7275 72.3547 78.7275 72.8828C78.7275 73.587 78.7274 74.4672 78.8997 75.3475V75.5235H78.7275C78.5551 75.5235 78.3828 75.3475 78.2105 75.3475C78.2105 74.6433 78.0382 73.763 78.0382 73.0589C78.0382 72.1786 78.0382 71.2984 78.2105 70.4182C77.1767 71.2984 76.3152 72.1786 75.4537 73.0589C76.1429 73.763 77.0044 74.6433 77.8659 75.3475L78.0382 75.5235H77.8659C77.5213 75.5235 77.1767 75.5235 77.0044 75.5235C76.1429 74.8193 75.626 74.1151 75.1091 73.587C74.9368 73.763 74.9368 73.763 74.7645 73.9391L74.5922 74.1151C74.4199 74.1151 74.2476 74.2912 74.0753 74.2912C74.0753 74.2912 74.0753 74.2912 73.903 74.1151C73.903 74.1151 73.903 74.1151 73.7307 74.1151C74.0753 73.763 74.2476 73.4109 74.4199 73.2349C72.3522 70.7703 71.3184 68.4817 71.3184 66.7212C70.8015 66.3691 70.4569 65.841 70.4569 65.3128C70.2846 64.4326 70.9738 63.7284 71.8353 63.7284ZM89.5825 83.4456C88.721 85.9102 87.3426 87.6707 86.1365 88.5509C85.9642 89.2551 85.4473 89.9593 84.5857 89.9593C83.7242 89.9593 83.2073 89.4311 83.035 88.5509C81.6566 87.8467 80.4505 86.0863 79.589 83.6216V83.4456L80.2782 83.2695C81.1397 85.3821 82.0012 86.9665 83.2073 87.6707C83.3796 86.9665 84.0688 86.6144 84.758 86.6144C85.4473 86.6144 85.9642 87.1425 86.3088 87.6707C87.3426 86.9665 88.3764 85.3821 89.2379 83.2695C89.2379 83.2695 89.4102 83.4456 89.5825 83.4456ZM83.2073 83.4456C83.2073 82.9174 83.3796 81.5091 83.5519 81.157C83.8965 80.9809 84.2411 80.8049 84.5857 80.8049C84.9303 80.8049 85.4473 80.9809 85.6196 81.157C85.7919 81.6851 85.9642 82.9174 85.9642 83.4456C85.9642 83.9737 84.758 84.3258 84.5857 84.3258C84.4134 84.3258 83.2073 83.9737 83.2073 83.4456ZM99.2315 78.1642C99.2315 78.3402 99.0592 78.3402 98.8869 78.3402C98.7146 78.3402 98.5423 78.5163 98.37 78.5163H98.1977C98.0254 78.5163 97.6808 78.5163 97.5084 78.3402C97.5084 78.3402 97.3361 78.3402 97.3361 78.1642C96.9915 78.1642 96.13 78.5163 95.7854 78.5163C95.9577 78.5163 96.9915 78.6923 97.8531 79.2205C98.1977 79.3965 98.8869 79.5726 99.2315 79.5726C99.2315 79.7486 98.0254 80.6288 95.6131 80.1007L95.0962 79.9247C94.0624 79.5726 93.0286 79.5726 91.8225 79.5726C91.9948 79.5726 91.9948 79.5726 92.1671 79.7486C92.5117 79.9247 92.684 79.9247 93.0286 80.1007C93.0286 80.1007 93.0286 80.1007 93.2009 80.1007H93.3732C93.5455 80.1007 93.5455 80.1007 93.7178 80.1007C93.8901 80.1007 94.0624 80.2767 94.0624 80.2767C94.2347 80.4528 94.407 80.4528 94.407 80.6288C94.407 80.6288 94.5793 80.8049 94.5793 80.9809C94.5793 81.157 94.5793 81.333 94.407 81.5091C93.8901 82.0372 93.5455 82.0372 93.0286 81.5091C93.0286 81.5091 93.0286 81.5091 92.8563 81.333C92.8563 81.333 92.684 80.9809 92.5117 80.8049V80.6288C92.3394 80.4528 92.1671 80.2767 91.8225 80.2767C91.3055 80.1007 90.9609 79.9247 90.6163 79.9247C90.444 79.9247 90.444 79.9247 90.2717 79.9247C90.6163 80.1007 90.9609 80.4528 91.1333 80.8049C91.3056 81.157 91.3055 81.5091 91.4779 81.8612C91.8225 82.7414 91.9948 82.7414 92.3394 83.0935C91.9948 83.2695 90.0994 83.0935 89.2379 81.8612C89.2379 81.8612 89.2379 81.6851 89.0656 81.6851C88.8933 81.157 88.721 80.6288 88.5487 80.2767C88.3764 79.9247 88.5487 79.5726 88.3764 79.3965C88.2041 79.2205 88.0318 79.3965 88.0318 79.3965C87.8595 79.3965 87.8595 79.5726 87.8595 79.5726V79.7486C87.8595 79.7486 87.8595 79.7486 87.8595 79.9247H87.6872C87.6872 79.9247 87.6872 79.9247 87.5149 79.9247C87.3426 79.9247 87.3426 79.9247 87.1703 79.9247C86.998 79.9247 86.998 79.7486 86.998 79.7486V79.5726H86.8257C86.6534 79.5726 86.6534 79.5726 86.6534 79.3965C86.6534 79.2205 86.6534 79.2205 86.6534 79.0444L86.4811 79.2205C86.3088 79.2205 86.3088 79.2205 86.3088 79.2205L86.1365 79.0444V78.8684C85.9642 78.8684 85.7919 78.6923 85.6196 78.6923C85.4473 78.6923 85.275 78.8684 85.1027 78.8684C85.1027 78.8684 85.1026 78.8684 84.9303 78.8684V78.6923H84.758V78.8684V79.0444C84.758 79.2205 84.758 79.2205 84.758 79.3965C84.758 79.3965 84.5857 79.5726 84.5857 79.3965C84.5857 79.3965 84.5857 79.3965 84.4134 79.3965C84.4134 79.3965 84.4134 79.3965 84.2411 79.2205C84.2411 79.2205 84.2411 79.2205 84.2411 79.3965V79.5726C84.2411 79.7486 84.0688 79.7486 83.8965 79.7486C83.8965 79.7486 83.8965 79.7486 83.7242 79.7486C83.7242 79.7486 83.7242 79.7486 83.5519 79.7486C83.5519 79.7486 83.7242 79.9247 83.5519 79.9247C83.5519 80.1007 83.3796 80.1007 83.3796 80.1007C83.2073 80.1007 83.2073 80.1007 83.035 80.1007C83.035 80.1007 83.035 80.1007 82.8627 80.1007C82.8627 80.1007 82.8627 80.1007 82.6904 80.1007C82.6904 80.1007 82.5181 80.1007 82.5181 79.9247H82.3458L82.1735 79.7486C81.8289 79.5726 81.4843 80.4528 81.4843 80.4528C80.2782 82.9174 77.6936 83.2695 77.5213 83.2695C77.5213 83.2695 78.2105 82.9174 78.3828 82.0372C78.5551 81.5091 78.5551 81.333 78.7275 80.9809L78.8997 80.8049C79.0721 80.6288 79.4167 80.2768 79.589 80.1007C79.4167 80.1007 79.4167 80.1007 79.2444 80.1007C78.8998 80.1007 78.3828 80.2768 78.0382 80.4528C77.8659 80.4528 77.6936 80.6288 77.349 80.8049V80.9809C77.349 81.157 77.1767 81.333 77.0044 81.5091C77.0044 81.5091 77.0044 81.5091 76.8321 81.6851C76.3152 82.2133 75.9706 82.2133 75.4537 81.6851C75.4537 81.6851 75.4537 81.5091 75.2814 81.5091C75.2814 81.333 75.1091 81.157 75.2814 80.9809C75.2814 80.8049 75.4537 80.6288 75.4537 80.6288C75.626 80.4528 75.626 80.4528 75.7983 80.4528C75.9706 80.4528 76.1429 80.2767 76.1429 80.2767C76.3152 80.2767 76.3152 80.2767 76.4875 80.2767H76.6598C76.6598 80.2767 76.6598 80.2767 76.8321 80.2767C77.0044 80.2767 77.0044 80.1007 77.1767 80.1007C77.349 80.1007 77.349 79.9247 77.5213 79.9247H77.6936C76.6598 79.9247 75.626 79.9247 74.5922 80.2767C74.4199 80.2767 74.2476 80.4528 73.903 80.4528C72.6969 80.8049 70.2846 80.1007 70.2846 79.9247C70.2846 79.7486 70.8015 79.7486 71.663 79.3965C72.1799 79.2205 72.5245 78.8684 72.8692 78.8684C73.2138 78.6923 73.903 78.6923 73.903 78.6923C73.5584 78.5163 72.5245 78.3402 72.1799 78.3402L72.0076 78.5163C71.8353 78.6923 71.4907 78.6923 71.1461 78.6923C70.9738 78.6923 70.8015 78.6923 70.6292 78.5163C70.4569 78.5163 70.2846 78.3402 70.2846 78.3402C70.2846 78.1642 70.1123 77.9882 70.1123 77.8121C70.2846 77.284 70.6292 77.1079 71.3184 77.284C71.663 77.46 71.8353 77.46 72.0076 77.6361C72.0076 77.6361 72.0076 77.6361 72.1799 77.8121C72.5245 77.8121 73.0415 77.9882 73.5584 78.1642C74.0753 78.3402 74.4199 78.5163 74.7645 78.5163C74.5922 78.5163 74.5922 78.3402 74.4199 78.3402C74.4199 78.3402 74.2476 78.1642 74.0753 78.1642C73.903 78.1642 73.7307 77.9881 73.7307 77.9881C73.0415 77.6361 72.1799 77.284 71.663 76.7558C70.6292 76.0516 70.6292 75.6995 70.4569 75.3475C70.2846 74.2912 69.7677 73.763 69.94 73.587C70.1123 73.4109 71.8353 74.2912 72.3522 74.9954C72.6969 75.5235 72.8692 75.8756 73.0415 76.2277C73.2138 76.5798 73.5584 76.9319 74.0753 77.46L74.2476 77.6361C74.0753 77.46 73.903 77.284 73.903 77.1079C73.903 77.1079 73.903 77.1079 73.903 76.9319C73.903 76.9319 73.7307 76.9319 73.7307 76.7558L73.5584 76.5798C73.5584 76.4037 73.3861 76.4037 73.3861 76.2277C73.2138 75.8756 73.2138 75.5235 73.3861 75.3475C73.3861 75.1714 73.5584 74.9954 73.903 74.9954C74.4199 74.8193 74.7645 75.1714 74.9368 75.8756C74.9368 76.0516 74.9368 76.2277 74.9368 76.2277C74.9368 76.4037 74.9368 76.4037 74.9368 76.5798C74.9368 76.5798 74.9368 76.5798 74.9368 76.7558C75.2814 77.6361 75.7983 78.1642 76.4875 78.6923C75.626 77.9882 75.1091 76.2277 75.2814 76.0516C75.4537 76.0516 76.1429 76.4037 77.0044 76.7558C77.349 76.9319 77.6936 77.1079 78.0382 77.284C78.2105 77.46 78.5551 77.6361 78.7275 77.8121C78.8998 77.9882 79.0721 78.1642 79.2444 78.3402C79.4167 78.5163 79.4167 78.5163 79.589 78.6923C79.589 78.6923 79.7613 78.8684 79.9336 78.8684C80.1059 79.0444 80.4505 78.8684 80.4505 78.8684C80.4505 78.8684 80.6228 78.8684 80.7951 78.8684C80.9674 78.6923 81.1397 78.6923 81.1397 78.6923C81.1397 78.6923 81.1397 78.6923 81.1397 78.5163C81.1397 78.3402 81.312 78.1642 81.4843 77.9881H81.6566C81.6566 77.9881 81.6566 77.9881 81.8289 77.9881C81.8289 77.9881 81.8289 77.9881 82.0012 77.9881H82.1735C82.1735 77.8121 82.3458 77.8121 82.3458 77.8121C82.6904 77.6361 83.035 77.8121 83.2073 77.9881C83.3796 78.1642 83.3796 78.1642 83.3796 78.3402V78.5163V78.6923V78.8684C83.5519 78.8684 83.7242 78.8684 83.8965 78.8684H84.0688C84.2411 78.8684 84.2411 78.8684 84.4134 78.8684C84.5857 78.8684 84.5857 78.8684 84.758 78.6923H84.9303H85.1027C85.1027 78.5163 85.1027 78.5163 85.1027 78.3402C85.1027 78.1642 85.1027 78.1642 85.1027 77.9881C85.1027 77.9881 85.1027 77.8121 85.275 77.8121C85.275 77.8121 85.275 77.8121 85.4473 77.6361C85.6196 77.46 85.9642 77.46 86.1365 77.6361C86.3088 77.6361 86.3088 77.8121 86.3088 77.8121C86.4811 77.8121 86.4811 77.8121 86.6534 77.8121H86.8257C86.8257 77.8121 86.8257 77.8121 86.998 77.8121C87.1703 77.9882 87.3426 78.1642 87.3426 78.3402H87.5149C87.5149 78.3402 88.2041 78.3402 88.3764 78.3402H89.0656L89.2379 78.1642C89.4102 77.9882 89.5825 77.8121 89.7548 77.6361C89.9271 77.46 90.0994 77.284 90.444 77.1079C90.7886 76.9319 91.3056 76.7558 91.6502 76.5798C92.8563 76.0516 93.0286 75.3475 93.2009 75.3475C93.3732 75.3475 92.8563 77.46 91.9948 78.3402C92.684 77.8121 93.3732 77.284 93.5455 76.4037C93.5455 76.4037 93.5455 76.4037 93.5455 76.2277C93.5455 76.0516 93.5455 76.0516 93.5455 75.8756C93.5455 75.6995 93.5455 75.6996 93.5455 75.5235C93.7178 74.8193 94.0624 74.4672 94.5793 74.6433C94.9239 74.6433 95.0962 74.8193 95.0962 74.9954C95.2685 75.1714 95.2685 75.5235 95.0962 75.8756C95.0962 76.0516 94.9239 76.2277 94.9239 76.2277C94.9239 76.4037 94.7516 76.4037 94.7516 76.4037C94.7516 76.4037 94.5793 76.4037 94.5793 76.5798C94.5793 76.5798 94.5793 76.5798 94.5793 76.7558C94.407 76.9319 94.407 77.1079 94.0624 77.46C94.2347 77.46 94.2347 77.284 94.407 77.284C95.0962 76.7558 95.4408 76.4037 95.4408 76.0516C95.6131 75.6996 95.6131 75.3475 96.13 74.8193C96.6469 74.1151 96.8192 73.9391 97.5084 73.587C97.6808 73.587 98.5423 73.2349 98.5423 73.411C98.5423 73.587 97.8531 73.763 97.6808 75.1714C97.5085 75.5235 97.5085 76.2277 96.9915 76.5798C96.4746 77.1079 95.9577 77.284 95.2685 77.6361H95.0962C94.9239 77.6361 94.7516 77.8121 94.5793 77.8121C94.407 77.9882 94.2347 77.9882 94.0624 78.1642C94.407 78.1642 94.7516 77.9882 95.2685 77.8121C95.6131 77.6361 96.13 77.46 96.6469 77.46C96.6469 77.46 96.6469 77.284 96.8192 77.284C96.9915 77.1079 97.1638 76.9319 97.5084 76.9319C98.1977 76.7558 98.5423 76.9319 98.7146 77.46C99.4038 77.9881 99.2315 78.1642 99.2315 78.1642Z" fill="white"/>
<path d="M120.942 52.6383C122.837 51.758 125.939 49.6455 127.145 48.061C125.422 47.5329 121.803 47.0048 119.908 47.0048C124.043 44.188 124.216 38.0264 123.009 33.4492C122.148 37.1462 119.564 39.9629 117.84 41.7234C118.013 43.4839 117.496 46.4766 116.462 48.4131C117.84 48.9413 119.391 49.6455 120.597 50.5257C119.908 51.4059 118.185 52.9903 117.151 53.8706C118.013 54.7508 119.391 56.5113 120.08 57.3915C119.046 58.0957 117.151 58.9759 115.945 59.328C116.462 60.3843 117.151 62.4968 117.496 63.7292C116.29 63.9052 114.567 64.0813 112.844 64.0813C112.844 65.3136 112.671 67.4261 112.499 68.6585C110.948 68.4824 109.053 67.7782 108.191 67.4261C107.675 69.1866 106.641 70.9471 106.641 71.1231C105.09 69.3626 103.539 68.6585 102.333 68.6585V67.4261C103.712 67.4261 105.09 67.9543 106.296 69.0105C106.813 68.1303 107.33 66.3699 107.502 65.4896C108.536 66.0178 110.087 66.5459 111.465 66.898C111.638 65.6657 111.638 64.0812 111.465 62.6729C112.844 62.8489 114.394 62.8489 115.945 62.4968C115.773 61.4406 114.739 59.5041 114.05 58.4478C115.428 58.0957 117.151 57.3915 118.013 56.8634C117.324 55.8071 115.945 54.3987 115.084 53.6945C116.117 52.9903 117.668 51.582 118.357 50.8778C117.323 50.1736 115.773 49.2934 114.567 48.9413C116.29 46.4766 116.634 41.5473 116.29 39.2587C114.739 44.5401 110.259 48.2371 107.675 49.9976C107.502 50.1736 107.33 50.1736 107.33 50.3497C107.158 50.5257 106.641 51.0538 106.985 51.9341C106.985 52.1101 107.158 52.2862 107.158 52.4622C107.33 53.5185 107.33 55.1029 105.951 56.5113C104.745 57.7436 103.195 57.7436 102.333 57.5675V54.7508C102.333 54.3987 101.989 54.0466 101.644 54.0466H99.7486L98.8871 53.1664C98.8871 53.1664 99.7486 53.1664 100.783 53.1664C101.816 53.1664 102.85 52.6383 102.85 52.6383C102.85 52.6383 101.816 52.6383 101.127 52.4622C100.61 52.2862 99.2317 51.758 98.0256 50.5257C97.681 49.9976 97.3364 49.4694 96.9918 48.9413C95.958 48.061 94.9242 46.8287 94.235 45.2443C93.718 44.188 93.5457 42.4276 93.3734 41.3713C93.0288 41.7234 92.6842 42.0755 92.1673 42.7797C91.3058 44.012 90.9612 45.5964 90.9612 45.5964L90.6166 46.8287L89.9274 45.7725C89.9274 45.7725 89.0659 44.3641 88.8936 42.4276C88.8936 41.5473 88.8936 40.8432 89.0659 40.139C88.7213 40.315 88.3767 40.4911 88.0321 40.8432C86.4813 41.8994 85.7921 43.1318 85.7921 43.1318C84.9306 44.188 84.586 45.0683 84.4137 45.4204C84.2414 44.8922 83.8968 44.188 83.0353 43.1318C83.0353 43.1318 82.1738 41.8994 80.7953 40.8432C80.4507 40.6671 80.1061 40.315 79.7615 40.139C79.7615 40.8432 79.9338 41.5473 79.9338 42.4276C79.7615 44.3641 78.9 45.7725 78.9 45.7725L78.2108 46.8287L77.8662 45.5964C77.8662 45.5964 77.3493 43.8359 76.6601 42.7797C76.1432 42.0755 75.7986 41.7234 75.454 41.3713C75.2817 42.4276 75.1093 44.188 74.5924 45.2443C73.9032 46.8287 72.8694 48.061 71.8356 48.9413C71.6633 49.4694 71.3187 49.9976 70.8018 50.5257C69.768 51.9341 68.2172 52.4622 67.7003 52.4622C67.1834 52.6383 65.9773 52.6383 65.9773 52.6383C65.9773 52.6383 67.0111 53.1664 68.0449 53.1664C69.0788 53.1664 69.9403 53.1664 69.9403 53.1664L69.0788 54.0466H67.1834C66.8388 54.0466 66.4942 54.3987 66.4942 54.7508V57.5675C65.6327 57.7436 64.082 57.5675 62.8759 56.5113C61.4974 55.1029 61.4974 53.5185 61.6697 52.4622C61.6697 52.2862 61.842 52.1101 61.842 51.9341C62.1866 51.0538 61.4974 50.5257 61.4974 50.3497C61.3251 50.1736 61.3251 50.1736 61.1528 49.9976C58.396 48.2371 54.0884 44.3641 52.5377 39.2587C52.1931 41.5473 52.71 46.4766 54.2607 48.9413C53.0546 49.4694 51.5039 50.1736 50.4701 50.8778C51.1593 51.582 52.71 52.9903 53.7438 53.6945C52.8823 54.3987 51.5039 55.9831 50.8147 56.8634C51.6762 57.3915 53.3992 58.0957 54.7776 58.4478C54.0884 59.5041 53.2269 61.4406 52.8823 62.4968C54.433 62.8489 55.9837 62.8489 57.3622 62.6729C57.1899 64.0812 57.3622 65.6657 57.3622 66.898C58.7406 66.7219 60.2913 66.0178 61.3251 65.4896C61.4974 66.3699 62.0143 68.1303 62.5312 69.0105C63.7374 67.9543 65.1158 67.2501 66.4942 67.4261V68.6585C65.1158 68.6585 63.7374 69.3626 62.1866 71.1231C62.1866 70.9471 60.9805 69.1866 60.6359 67.4261C59.7744 67.7782 57.8791 68.4824 56.3284 68.6585C56.156 67.4261 55.9837 65.3136 55.9837 64.0813C54.2607 64.0813 52.5377 63.9052 51.3316 63.7292C51.5039 62.3208 52.3654 60.3843 52.8823 59.328C51.8485 58.9759 49.7808 58.0957 48.747 57.3915C49.4362 56.3352 50.8147 54.7508 51.6762 53.8706C50.6424 52.9903 49.0916 51.582 48.2301 50.5257C49.4362 49.6455 50.987 48.9413 52.3654 48.4131C51.5039 46.4766 50.8147 43.4839 50.987 41.7234C49.2639 39.9629 46.8517 37.1462 45.8179 33.4492C44.6118 37.8504 44.7841 44.012 48.9193 47.0048C46.8517 47.0048 43.4056 47.5329 41.6826 48.061C42.8887 49.4694 45.9902 51.758 47.8855 52.6383C46.3348 53.1664 43.7503 54.5748 42.7164 55.631C44.0949 56.5113 47.1963 57.5675 48.747 57.9196C47.8855 58.6238 46.1625 60.7364 45.4733 61.7926C46.6794 62.1447 49.2639 62.4968 50.8147 62.6729C50.2978 63.7292 49.7808 65.6657 49.6085 66.898C50.4701 66.898 53.0546 66.898 54.2607 66.5459C54.0884 67.6022 54.2607 69.5387 54.433 70.4189C55.6391 70.2429 57.5345 69.7147 58.396 69.3626C58.5683 70.4189 59.6021 72.3554 59.7744 72.8836C60.2913 72.7075 60.9805 72.5315 61.6697 72.3554C63.3928 71.6512 65.2881 72.5315 65.9773 74.1159C67.1834 77.1087 66.6665 80.4535 64.2543 79.7494C61.4974 80.2775 63.3928 83.7984 61.842 84.8547C63.9097 86.4391 64.5989 82.7421 67.1834 83.4463C66.8388 84.8547 67.0111 87.1433 67.1834 88.1996C68.0449 87.4954 69.2511 86.9673 70.1126 86.9673C69.9403 87.6714 69.768 89.6079 70.1126 90.6642C70.6295 90.3121 74.2478 89.2559 74.2478 89.2559C74.2478 89.2559 72.8694 92.0726 73.7309 94.8893C74.2478 95.2414 77.3493 93.657 77.5216 92.6007C77.6939 93.8331 76.3155 96.2977 74.2478 96.8258C76.4878 99.1144 78.5554 98.9384 78.7277 98.9384C79.0723 98.9384 79.4169 98.9384 79.5892 98.7623C79.4169 99.4665 79.4169 100.171 79.4169 100.875C79.5892 100.875 79.7615 100.875 79.7615 100.875C80.2784 100.875 80.7953 100.699 81.3122 100.523C81.3122 101.051 81.6569 101.931 82.1738 102.283C82.3461 102.459 82.3461 102.459 82.5184 102.459C83.0353 102.459 84.2414 101.931 84.586 101.403C84.9306 101.755 86.1367 102.459 86.6536 102.459C86.8259 102.459 86.8259 102.283 86.9982 102.283C87.5151 101.755 87.6875 101.051 87.8598 100.523C88.3767 100.699 88.7213 100.875 89.4105 100.875C89.5828 100.875 89.7551 100.875 89.7551 100.875C89.9274 100.347 89.7551 99.4665 89.5828 98.7623C89.9274 98.9384 90.0997 98.9384 90.4443 98.9384C90.7889 98.9384 92.6842 98.9384 94.9242 96.8258C92.8565 96.2977 91.4781 93.8331 91.6504 92.6007C91.6504 93.657 94.9242 95.2414 95.4411 94.8893C96.3026 92.0726 94.9242 89.2559 94.9242 89.2559C94.9242 89.2559 98.3702 90.1361 99.0594 90.6642C99.404 89.6079 99.2317 87.6714 99.0594 86.9673C99.9209 86.9673 101.127 87.4954 101.989 88.1996C102.161 87.1433 102.161 84.8547 101.989 83.4463C104.573 82.9182 105.262 86.4391 107.33 84.8547C105.779 83.7984 107.675 80.1015 104.918 79.7494C102.506 80.4535 101.989 76.9326 103.195 74.1159C103.884 72.3554 105.951 71.6512 107.502 72.3554C108.191 72.5315 108.708 72.7075 109.398 72.8836C109.742 72.3554 110.604 70.2429 110.776 69.3626C111.638 69.7147 113.533 70.2429 114.739 70.4189C114.911 69.5387 114.911 67.6022 114.911 66.5459C116.29 66.898 118.874 66.898 119.563 66.898C119.391 65.6657 118.874 63.7292 118.357 62.6729C119.908 62.4968 122.493 62.3208 123.699 61.7926C123.009 60.7364 121.287 58.6238 120.425 57.9196C121.976 57.5675 125.077 56.5113 126.456 55.631C124.905 54.7508 122.32 53.3424 120.942 52.6383ZM100.783 81.3338C100.783 81.5098 100.61 81.6859 100.438 82.038L100.266 82.214C100.093 82.3901 100.093 82.5661 99.9209 82.7421L99.7486 82.9182C99.5763 83.0942 99.404 83.2703 99.2317 83.6224C99.0594 83.7984 98.8871 83.9745 98.8871 83.9745C98.7148 84.1505 98.7148 84.1505 98.5425 84.3266C98.3702 84.5026 98.1979 84.6787 98.0256 84.8547C97.8533 84.8547 97.8533 85.0307 97.681 85.0307C97.3364 85.3828 96.8195 85.7349 96.3026 86.087C95.6134 86.6152 95.0965 86.9673 94.4073 87.3193C94.235 87.4954 93.8904 87.6714 93.718 87.6714C88.2044 90.6642 85.4475 92.7768 84.586 93.657C83.7245 92.9528 80.9676 90.6642 75.454 87.6714C75.2817 87.4954 74.937 87.3193 74.7647 87.3193C74.0755 86.9673 73.3863 86.4391 72.8694 86.087C72.3525 85.7349 72.0079 85.3828 71.491 85.0307C71.3187 85.0307 71.3187 84.8547 71.1464 84.8547C70.8018 84.5026 70.6295 84.3266 70.6295 84.1505C70.4572 83.9745 70.4572 83.9745 70.2849 83.7984C70.1126 83.6224 69.9403 83.4463 69.9403 83.4463C69.768 83.2703 69.5957 83.0942 69.4234 82.7421L69.2511 82.5661C69.0788 82.3901 69.0788 82.214 68.9065 82.038L68.7341 81.8619C68.5618 81.6859 68.5618 81.5098 68.3895 81.1577C67.7003 79.5733 67.7003 78.1649 67.7003 78.1649V55.9831C67.7003 55.631 68.0449 55.2789 68.3895 55.2789H70.2849H84.586H98.8871H100.783C101.127 55.2789 101.472 55.631 101.472 55.9831V78.1649C101.299 78.341 101.472 79.5733 100.783 81.3338Z" fill="white"/>
<path d="M100.093 20.2453C100.61 20.2453 100.955 19.8932 100.955 19.3651C100.955 18.837 100.61 18.4849 100.093 18.4849C99.5765 18.4849 99.2319 18.837 99.2319 19.3651C99.2319 19.8932 99.5765 20.2453 100.093 20.2453Z" fill="white"/>
<path d="M100.093 24.9988C100.61 24.9988 101.127 22.8862 101.127 21.8299C101.127 21.3018 100.61 20.9497 100.093 20.9497C99.5765 20.9497 99.0596 21.3018 99.0596 21.8299C99.0596 22.8862 99.5765 24.9988 100.093 24.9988Z" fill="white"/>
<path d="M99.5762 17.2524H100.61L100.438 15.844L101.816 16.02V14.9638L100.438 15.1398L100.61 13.7314H99.5762V15.1398L98.3701 14.9638V16.02L99.5762 15.844V17.2524Z" fill="white"/>
<path d="M95.2687 27.6391C95.6133 27.6391 95.958 27.8151 96.4749 27.8151C96.4749 27.8151 96.4749 27.8151 96.6472 27.8151H96.8195H96.9918H97.1641C97.3364 27.8151 97.3364 27.8151 97.5087 27.8151H97.681C97.8533 27.8151 97.8533 27.8151 98.0256 27.8151C99.0594 27.8151 100.093 27.4631 100.955 27.287C101.989 27.111 103.022 26.7589 104.056 26.7589H104.228H104.401H104.573C104.573 26.7589 104.573 26.7589 104.745 26.7589C105.09 25.7026 105.262 24.2942 105.262 23.59C105.262 22.0056 104.401 20.4212 101.472 19.8931C101.472 21.8296 100.61 26.2307 99.5763 26.2307H99.9209C98.8871 26.2307 98.0256 21.6535 98.0256 19.8931C95.0964 20.4212 94.4072 22.0056 94.4072 23.59C94.4072 24.4703 94.7518 26.0547 95.0964 27.287C95.0964 27.4631 95.0964 27.4631 95.2687 27.6391Z" fill="white"/>
<path d="M110.087 19.5416C110.087 19.5416 109.226 17.429 110.604 16.9009C111.982 16.3728 110.259 16.7249 111.121 13.9081C112.327 10.5632 114.739 11.2674 114.739 11.2674C113.016 9.85905 111.638 10.0351 110.776 10.7393C110.259 11.2674 109.398 12.1477 108.709 14.2602C107.847 16.9009 108.709 19.3655 110.087 19.5416Z" fill="white"/>
<path d="M116.634 14.612C116.807 18.8371 123.699 20.5976 123.699 20.5976C123.699 20.5976 119.736 17.6048 120.597 15.4923C120.597 15.4923 123.182 16.7246 126.283 16.1965C119.908 14.7881 121.976 12.8516 120.425 11.0911C118.874 9.33065 116.29 9.15461 115.773 9.15461C114.222 8.97856 114.05 8.97856 112.154 9.5067C116.117 9.5067 116.462 11.7953 116.634 14.612Z" fill="white"/>
<path d="M115.601 22.534C116.462 19.1891 114.911 17.7808 114.911 17.7808C114.395 17.2526 111.81 17.2526 110.948 17.9568C110.948 17.9568 113.361 17.9568 113.016 21.6538C112.671 25.3507 107.675 26.0549 106.296 26.231L106.124 26.7591C108.364 26.5831 114.739 25.8789 115.601 22.534Z" fill="white"/>
<path d="M89.7554 22.3579H87.1709C88.377 25.8788 91.9954 27.1112 94.4076 27.4633L94.2353 27.1112C91.8231 26.0549 90.4447 24.9986 89.7554 22.3579Z" fill="white"/>
<path d="M69.0788 20.2453C69.5957 20.2453 69.9403 19.8932 69.9403 19.3651C69.9403 18.837 69.5957 18.4849 69.0788 18.4849C68.5619 18.4849 68.2173 18.837 68.2173 19.3651C68.2173 19.8932 68.5619 20.2453 69.0788 20.2453Z" fill="white"/>
<path d="M69.0792 24.9988C69.5961 24.9988 70.113 22.8862 70.113 21.8299C70.113 21.3018 69.5961 20.9497 69.0792 20.9497C68.5623 20.9497 68.0454 21.3018 68.0454 21.8299C68.0454 22.8862 68.39 24.9988 69.0792 24.9988Z" fill="white"/>
<path d="M68.5621 17.2524H69.5959L69.4236 15.844L70.802 16.02V14.9638L69.4236 15.1398L69.5959 13.7314H68.5621V15.1398L67.356 14.9638V16.02L68.5621 15.844V17.2524Z" fill="white"/>
<path d="M64.0822 26.7591H64.2545H64.4268H64.5991C65.6329 26.7591 66.8391 27.1112 67.7006 27.2872C68.5621 27.4633 69.5959 27.8154 70.6297 27.8154C70.802 27.8154 70.802 27.8154 70.9743 27.8154H71.1466C71.3189 27.8154 71.3189 27.8154 71.4912 27.8154H71.6635H71.8358H72.0081C72.0081 27.8154 72.0081 27.8154 72.1804 27.8154C72.525 27.8154 73.042 27.6393 73.3866 27.6393V27.4633C73.7312 26.407 74.0758 24.6465 74.0758 23.7663C74.0758 22.1819 73.2143 20.5975 70.4574 20.0693C70.4574 21.8298 69.5959 26.407 68.5621 26.407H68.9067C67.8729 26.407 67.0114 22.0058 67.0114 20.0693C64.0822 20.5975 63.2207 22.1819 63.2207 23.7663C63.393 24.4705 63.5653 25.7028 64.0822 26.7591Z" fill="white"/>
<path d="M54.2612 11.2674C54.2612 11.2674 56.8458 10.5632 57.8796 13.9081C58.9134 16.7249 57.0181 16.3728 58.3965 16.9009C59.7749 17.429 58.9134 19.5416 58.9134 19.5416C60.2918 19.3655 61.1533 16.9009 60.2918 14.2602C59.6026 12.1477 58.7411 11.2674 58.2242 10.7393C57.3627 10.0351 55.9843 9.85905 54.2612 11.2674Z" fill="white"/>
<path d="M48.5752 15.492C49.4367 17.6045 45.4738 20.5973 45.4738 20.5973C45.4738 20.5973 52.3659 18.8368 52.5382 14.6117C52.5382 11.795 53.0551 9.50639 57.1903 9.50639C55.295 9.1543 55.1227 9.1543 53.572 9.1543C53.0551 9.1543 50.4705 9.33034 48.9198 11.0908C47.3691 12.8513 49.4367 14.7878 43.0615 16.1961C45.9907 16.5482 48.5752 15.492 48.5752 15.492Z" fill="white"/>
<path d="M56.1556 21.4775C55.811 17.7805 58.2232 17.7805 58.2232 17.7805C57.3617 17.0764 54.6049 17.0764 54.2603 17.6045C54.2603 17.6045 52.5372 19.0129 53.5711 22.3577C54.4326 25.7026 60.8078 26.4068 63.0477 26.4068L62.8754 25.8787C61.497 25.8787 56.5002 25.1745 56.1556 21.4775Z" fill="white"/>
<path d="M81.8295 22.3579H79.245C78.3834 24.9986 77.1773 26.0549 74.7651 26.9351L74.5928 27.2872C77.1773 27.1112 80.6234 25.8788 81.8295 22.3579Z" fill="white"/>
<path d="M87.6873 38.026C86.9981 39.2583 86.3089 40.4906 85.792 41.7229C86.1366 41.1948 86.8258 40.6666 87.515 40.3146C88.7211 39.4343 89.5827 39.0822 89.5827 39.0822L90.6165 38.7301L90.4442 39.7864C90.4442 39.7864 90.0996 41.3708 90.0996 42.9552C90.0996 43.6594 90.2719 44.1876 90.4442 44.7157C90.6165 44.1876 90.9611 43.4834 91.478 42.7792C92.6841 41.1948 93.7179 40.4906 93.7179 40.4906L94.4071 40.1385V41.0187C94.4071 41.0187 94.5794 44.0115 95.2686 45.4199C96.4748 48.0606 98.5424 49.469 99.7485 49.9971C99.5762 49.821 99.4039 49.645 99.0593 49.2929C98.5424 48.5887 97.8532 47.5324 97.5086 45.0678C97.164 42.9552 98.0255 41.0187 98.3701 40.3146C98.5424 40.8427 98.7147 41.3708 99.0593 41.5469C99.0593 41.5469 99.0593 41.0187 99.2316 40.4906C99.4039 39.0822 100.955 36.9697 103.022 35.5613C103.367 35.2092 103.711 35.0332 104.056 34.8571C104.401 34.6811 104.573 34.505 104.918 34.329C104.573 34.329 104.056 34.505 103.711 34.505H103.539C103.195 34.505 102.85 34.505 102.505 34.505C101.644 34.505 100.438 34.329 99.5762 33.6248C98.7147 32.9206 98.3701 32.0404 98.1978 31.5122C97.8532 31.5122 97.3363 31.5122 96.6471 31.5122C95.9579 31.5122 95.2686 31.3362 94.924 31.1602C93.8902 31.8643 92.8564 32.0404 91.6503 32.0404C91.478 32.0404 91.3057 32.0404 91.1334 32.0404C91.478 32.3925 91.9949 32.5685 92.5118 32.9206L92.1672 33.0967C91.9949 32.9206 90.4442 33.9769 87.6873 38.026Z" fill="white"/>
<path d="M104.056 30.8081C103.539 30.8081 103.195 30.8081 102.678 30.8081C102.678 31.1602 102.678 31.3362 102.678 31.6883C102.678 32.0404 103.022 32.3925 103.195 32.5686C103.539 32.2165 103.884 31.6883 104.056 30.8081Z" fill="white"/>
<path d="M104.918 27.9913C104.746 27.9913 104.746 27.9913 104.746 27.9913C104.573 27.9913 104.573 27.9913 104.401 27.9913C103.367 27.9913 102.506 28.3433 101.472 28.5194C100.438 28.6954 99.4043 29.0475 98.3705 29.0475C98.1982 29.0475 98.0259 29.0475 97.6813 29.0475C97.509 29.0475 97.509 29.0475 97.3367 29.0475H97.1644H96.9921C94.7521 28.6954 93.2014 27.9913 92.5122 27.6392C92.6845 27.8152 92.8568 28.1673 93.2014 28.5194C93.3737 28.6954 93.3737 28.6954 93.546 28.8715C93.8906 29.0475 94.2352 29.3996 94.5798 29.5757C95.0968 29.9278 97.1644 30.6319 99.9212 30.2799C103.023 29.7517 103.54 29.9278 104.401 29.9278H104.746C105.78 29.9278 107.503 30.808 108.02 31.1601C108.364 30.6319 108.536 29.9278 108.709 29.2236C108.536 29.0475 108.364 28.8715 107.847 28.6954C107.675 28.6954 107.503 28.5194 107.33 28.5194C106.986 28.3433 106.641 28.3433 106.296 28.1673C105.435 27.9913 105.263 27.9913 104.918 27.9913Z" fill="white"/>
<path d="M113.705 38.3781C113.533 38.3781 112.499 39.0823 110.087 37.4978C107.675 35.9134 105.952 35.2092 104.918 35.0332C104.745 35.2092 104.573 35.3853 104.229 35.3853C103.884 35.5613 103.712 35.7374 103.195 36.0895C103.022 36.0895 103.022 36.2655 102.85 36.4416H103.022C105.262 36.6176 106.985 38.026 107.158 38.5541C107.33 37.8499 107.158 37.1458 107.158 37.1458C107.158 37.1458 108.192 37.8499 110.259 38.9062C112.499 40.1385 113.361 38.9062 113.705 38.3781Z" fill="white"/>
<path d="M101.816 32.0407C101.644 31.8646 101.472 31.6886 101.472 31.5125C101.299 31.3365 101.299 31.1604 101.299 30.9844C100.783 30.9844 100.266 31.1604 99.4041 31.1604C99.2318 31.1604 99.0595 31.1604 98.8872 31.1604C99.2318 31.8646 99.921 32.7448 101.127 32.9209H101.299H101.472C101.989 32.9209 102.506 33.0969 103.023 33.0969C103.884 33.0969 104.918 32.9209 105.779 32.7448C105.952 32.3927 106.124 32.2167 106.469 31.8646C106.469 31.8646 106.296 31.8646 106.296 31.6886C106.124 31.5125 105.435 31.1604 105.09 30.9844C104.918 31.3365 104.746 31.6886 104.401 32.0407C104.056 32.3927 103.539 32.3927 103.023 32.3927C102.506 32.3927 101.989 32.2167 101.644 32.0407C101.989 32.2167 101.816 32.2167 101.816 32.0407Z" fill="white"/>
<path d="M108.536 30.2798C107.847 32.2163 106.641 33.8007 105.779 34.5049C111.293 32.9205 112.327 35.9133 112.327 35.9133C112.327 36.0893 112.327 36.0893 112.499 35.9133C112.671 35.7372 114.394 33.8007 113.188 31.8642C111.81 30.4558 109.225 30.2798 108.536 30.2798ZM108.536 31.6882C108.708 31.3361 108.881 30.984 108.881 30.984C109.225 30.984 110.087 31.16 110.087 31.6882C109.57 31.5121 108.881 31.5121 108.536 31.6882Z" fill="white"/>
<path d="M66.4937 31.6883C66.4937 31.5123 66.4937 31.1602 66.4937 30.8081C65.9768 30.8081 65.4598 30.8081 65.1152 30.8081C65.2875 31.6883 65.6321 32.2165 65.9768 32.3925C66.1491 32.3925 66.3214 32.0404 66.4937 31.6883Z" fill="white"/>
<path d="M72.6968 28.872C72.5245 28.872 72.5245 28.872 72.5245 28.872H72.3522H72.1799C72.0076 28.872 72.0076 28.872 71.8353 28.872C71.663 28.872 71.4907 28.872 71.1461 28.872C70.1123 28.872 69.0785 28.5199 68.0446 28.3439C67.0108 28.1678 66.1493 27.8157 65.1155 27.8157C64.9432 27.8157 64.9432 27.8157 64.7709 27.8157C64.5986 27.8157 64.254 27.8157 64.0817 27.8157C63.5648 27.8157 63.2202 27.9918 63.0479 28.1678C62.8756 28.1678 62.7033 28.3439 62.5309 28.3439C62.1863 28.5199 61.8417 28.696 61.6694 28.872C61.8417 29.5762 62.1863 30.2804 62.3586 30.8085C63.0479 30.4564 64.5986 29.7522 65.6324 29.5762H65.977C66.6662 29.5762 67.3554 29.4002 70.4569 29.9283C73.2137 30.2804 75.2814 29.4002 75.7983 29.2241C76.1429 29.0481 76.4875 28.696 76.8321 28.5199C77.0044 28.3439 77.1767 28.3439 77.1767 28.1678C77.5213 27.8157 77.6936 27.6397 77.8659 27.2876C76.4875 27.8157 74.9368 28.5199 72.6968 28.872C72.8691 28.872 72.8691 28.872 72.6968 28.872Z" fill="white"/>
<path d="M55.2949 38.3781C55.6395 38.7302 56.501 40.1385 58.5687 38.9062C60.6363 37.6739 61.6701 37.1458 61.6701 37.1458C61.6701 37.1458 61.3255 37.6739 61.6701 38.5541C61.8424 38.026 63.5655 36.6176 65.8054 36.4416C65.9777 36.4416 65.9777 36.4416 65.9777 36.4416C65.8054 36.2655 65.8054 36.2655 65.6331 36.0895C65.2885 35.7374 64.9439 35.5613 64.5993 35.3853C64.427 35.2093 64.2547 35.2092 63.9101 35.0332C62.8762 35.2092 61.1532 35.9134 58.741 37.4978C56.501 39.0823 55.4672 38.3781 55.2949 38.3781Z" fill="white"/>
<path d="M63.7378 31.3364C63.3932 31.5125 62.704 31.8646 62.5317 32.0406C62.3594 32.0406 62.3594 32.0406 62.3594 32.2167C62.5317 32.5688 62.704 32.9208 63.0486 33.0969C64.0824 33.2729 65.1162 33.449 65.8054 33.449C66.3223 33.449 66.8392 33.449 67.3562 33.2729C67.5285 33.2729 67.5285 33.2729 67.5285 33.2729C67.7008 33.2729 67.7008 33.2729 67.7008 33.2729C68.9069 32.9208 69.5961 32.2167 69.9407 31.5125C69.7684 31.5125 69.5961 31.5125 69.4238 31.5125C68.5623 31.3364 68.0454 31.3364 67.5285 31.3364C67.5285 31.5125 67.3562 31.6885 67.3562 31.8646C67.1839 32.0406 67.1839 32.2167 67.0115 32.3927L66.8392 32.5688C66.4946 32.9208 65.9777 32.9208 65.4608 32.9208C64.9439 32.9208 64.427 32.7448 64.0824 32.5688C64.0824 32.0406 63.9101 31.6885 63.7378 31.3364Z" fill="white"/>
<path d="M55.9835 32.0408C54.6051 33.9773 56.5004 35.9138 56.6727 36.0898C56.6727 36.2659 56.845 36.0898 56.845 36.0898C56.845 35.9138 57.8789 33.0971 63.3925 34.6815C62.531 33.9773 61.3249 32.3929 60.6357 30.4564C59.7742 30.2803 57.1896 30.4564 55.9835 32.0408ZM60.6357 31.6887C60.1188 31.5126 59.6019 31.5126 59.085 31.5126C59.085 30.9845 59.7742 30.8085 60.2911 30.8085C60.2911 30.9845 60.4634 31.5126 60.6357 31.6887Z" fill="white"/>
<path d="M78.0386 32.0404C77.8663 32.0404 77.694 32.0404 77.5217 32.0404C76.3156 32.0404 75.2818 31.6883 74.248 31.1602C73.9034 31.3362 73.2141 31.3362 72.5249 31.5122C71.8357 31.5122 71.3188 31.5122 70.9742 31.5122C70.8019 32.0404 70.4573 32.9206 69.5958 33.6248C68.7343 34.329 67.5282 34.505 66.6666 34.505C66.1497 34.505 65.8051 34.505 65.6328 34.505H65.4605C65.1159 34.505 64.599 34.329 64.2544 34.329C64.599 34.505 64.9436 34.6811 65.1159 34.8571C65.4605 35.0332 65.8051 35.2092 66.1497 35.5613C68.0451 36.9697 69.5958 39.0822 69.9404 40.4906C70.1127 41.0187 69.9404 41.5469 70.1127 41.5469C70.4573 41.3708 70.6296 40.8427 70.8019 40.3146C71.1465 40.8427 71.8357 42.9552 71.6634 45.0678C71.3188 47.5324 70.6296 48.5887 70.1127 49.2929C69.9404 49.645 69.5958 49.821 69.4235 49.9971C70.6296 49.2929 72.6972 48.0606 73.9034 45.4199C74.5926 44.0115 74.7649 41.0187 74.7649 41.0187V40.1385L75.4541 40.4906C75.4541 40.4906 76.4879 41.0187 77.694 42.7792C78.0386 43.3073 78.3832 44.0115 78.7278 44.7157C78.9001 44.1876 79.0724 43.6594 79.0724 42.9552C79.2447 41.5469 78.9001 39.9625 78.7278 39.7864L78.5555 38.7301L79.5893 39.0822C79.5893 39.0822 80.6232 39.4343 81.657 40.3146C82.3462 40.8427 82.8631 41.3708 83.38 41.7229C82.8631 40.4906 82.3462 39.2583 81.4847 38.026C78.9001 33.9769 77.1771 33.0967 77.1771 33.0967L76.8325 32.9206C77.3494 32.5685 77.694 32.3925 78.0386 32.0404Z" fill="white"/>
</g>
</g>
<path d="M18.573 135.273H20.8485L23.252 141.136H23.3542L25.7576 135.273H28.0332V144H26.2434V138.32H26.171L23.9125 143.957H22.6937L20.4352 138.298H20.3627V144H18.573V135.273ZM31.3986 135.273V144H29.5534V135.273H31.3986ZM40.2164 135.273V144H38.6227L34.8258 138.507H34.7619V144H32.9167V135.273H34.536L38.3031 140.761H38.3798V135.273H40.2164ZM43.5861 135.273V144H41.7409V135.273H43.5861ZM49.8386 137.783C49.8045 137.439 49.6582 137.172 49.3997 136.982C49.1412 136.791 48.7903 136.696 48.3471 136.696C48.046 136.696 47.7917 136.739 47.5843 136.824C47.377 136.906 47.2179 137.021 47.1071 137.169C46.9991 137.317 46.9451 137.484 46.9451 137.672C46.9395 137.828 46.9721 137.964 47.0431 138.081C47.117 138.197 47.2179 138.298 47.3457 138.384C47.4735 138.466 47.6213 138.538 47.7889 138.601C47.9565 138.661 48.1355 138.712 48.3258 138.754L49.1099 138.942C49.4906 139.027 49.84 139.141 50.1582 139.283C50.4764 139.425 50.752 139.599 50.9849 139.807C51.2179 140.014 51.3983 140.259 51.5261 140.54C51.6568 140.821 51.7235 141.143 51.7264 141.507C51.7235 142.041 51.5872 142.504 51.3173 142.896C51.0502 143.286 50.6639 143.588 50.1582 143.804C49.6554 144.017 49.0488 144.124 48.3386 144.124C47.6341 144.124 47.0204 144.016 46.4977 143.8C45.9778 143.584 45.5716 143.264 45.2789 142.841C44.9892 142.415 44.8372 141.888 44.823 141.26H46.6085C46.6284 141.553 46.7122 141.797 46.8599 141.993C47.0105 142.186 47.2108 142.332 47.4608 142.432C47.7136 142.528 47.9991 142.577 48.3173 142.577C48.6298 142.577 48.9011 142.531 49.1312 142.44C49.3642 142.349 49.5446 142.223 49.6724 142.061C49.8002 141.899 49.8642 141.713 49.8642 141.503C49.8642 141.307 49.8059 141.142 49.6895 141.009C49.5758 140.875 49.4082 140.761 49.1866 140.668C48.9679 140.574 48.6994 140.489 48.3812 140.412L47.4309 140.173C46.6951 139.994 46.1142 139.714 45.688 139.334C45.2619 138.953 45.0502 138.44 45.0531 137.795C45.0502 137.267 45.1909 136.805 45.475 136.411C45.7619 136.016 46.1554 135.707 46.6554 135.486C47.1554 135.264 47.7235 135.153 48.3599 135.153C49.0076 135.153 49.573 135.264 50.0559 135.486C50.5417 135.707 50.9196 136.016 51.1895 136.411C51.4593 136.805 51.5985 137.263 51.6071 137.783H49.8386ZM52.6351 136.794V135.273H59.8027V136.794H57.1309V144H55.307V136.794H52.6351ZM60.9831 144V135.273H64.4263C65.0854 135.273 65.6479 135.391 66.1138 135.626C66.5826 135.859 66.9391 136.19 67.1834 136.619C67.4306 137.045 67.5542 137.547 67.5542 138.124C67.5542 138.703 67.4292 139.202 67.1792 139.619C66.9292 140.034 66.5669 140.352 66.0925 140.574C65.6209 140.795 65.0499 140.906 64.3794 140.906H62.074V139.423H64.0811C64.4334 139.423 64.726 139.375 64.959 139.278C65.1919 139.182 65.3652 139.037 65.4789 138.844C65.5953 138.651 65.6536 138.411 65.6536 138.124C65.6536 137.834 65.5953 137.589 65.4789 137.391C65.3652 137.192 65.1905 137.041 64.9547 136.939C64.7218 136.834 64.4277 136.781 64.0726 136.781H62.8283V144H60.9831ZM65.6962 140.028L67.8652 144H65.8283L63.7061 140.028H65.6962ZM67.9835 135.273H70.0502L72.0403 139.031H72.1255L74.1156 135.273H76.1824L72.9991 140.915V144H71.1667V140.915L67.9835 135.273ZM87.9874 139.636C87.9874 140.588 87.807 141.398 87.4462 142.065C87.0882 142.733 86.5996 143.243 85.9803 143.595C85.3638 143.945 84.6706 144.119 83.9007 144.119C83.1252 144.119 82.4292 143.943 81.8127 143.591C81.1962 143.239 80.709 142.729 80.351 142.061C79.9931 141.393 79.8141 140.585 79.8141 139.636C79.8141 138.685 79.9931 137.875 80.351 137.207C80.709 136.54 81.1962 136.031 81.8127 135.682C82.4292 135.33 83.1252 135.153 83.9007 135.153C84.6706 135.153 85.3638 135.33 85.9803 135.682C86.5996 136.031 87.0882 136.54 87.4462 137.207C87.807 137.875 87.9874 138.685 87.9874 139.636ZM86.1167 139.636C86.1167 139.02 86.0243 138.5 85.8397 138.077C85.6578 137.653 85.4007 137.332 85.0684 137.114C84.736 136.895 84.3468 136.786 83.9007 136.786C83.4547 136.786 83.0655 136.895 82.7331 137.114C82.4007 137.332 82.1422 137.653 81.9576 138.077C81.7757 138.5 81.6848 139.02 81.6848 139.636C81.6848 140.253 81.7757 140.773 81.9576 141.196C82.1422 141.619 82.4007 141.94 82.7331 142.159C83.0655 142.378 83.4547 142.487 83.9007 142.487C84.3468 142.487 84.736 142.378 85.0684 142.159C85.4007 141.94 85.6578 141.619 85.8397 141.196C86.0243 140.773 86.1167 140.253 86.1167 139.636ZM89.3542 144V135.273H95.1326V136.794H91.1994V138.874H94.7491V140.395H91.1994V144H89.3542ZM103.885 137.783C103.851 137.439 103.705 137.172 103.447 136.982C103.188 136.791 102.837 136.696 102.394 136.696C102.093 136.696 101.839 136.739 101.631 136.824C101.424 136.906 101.265 137.021 101.154 137.169C101.046 137.317 100.992 137.484 100.992 137.672C100.986 137.828 101.019 137.964 101.09 138.081C101.164 138.197 101.265 138.298 101.393 138.384C101.52 138.466 101.668 138.538 101.836 138.601C102.003 138.661 102.182 138.712 102.373 138.754L103.157 138.942C103.537 139.027 103.887 139.141 104.205 139.283C104.523 139.425 104.799 139.599 105.032 139.807C105.265 140.014 105.445 140.259 105.573 140.54C105.704 140.821 105.77 141.143 105.773 141.507C105.77 142.041 105.634 142.504 105.364 142.896C105.097 143.286 104.711 143.588 104.205 143.804C103.702 144.017 103.096 144.124 102.385 144.124C101.681 144.124 101.067 144.016 100.545 143.8C100.025 143.584 99.6184 143.264 99.3258 142.841C99.036 142.415 98.8841 141.888 98.8699 141.26H100.655C100.675 141.553 100.759 141.797 100.907 141.993C101.057 142.186 101.258 142.332 101.508 142.432C101.76 142.528 102.046 142.577 102.364 142.577C102.677 142.577 102.948 142.531 103.178 142.44C103.411 142.349 103.591 142.223 103.719 142.061C103.847 141.899 103.911 141.713 103.911 141.503C103.911 141.307 103.853 141.142 103.736 141.009C103.623 140.875 103.455 140.761 103.233 140.668C103.015 140.574 102.746 140.489 102.428 140.412L101.478 140.173C100.742 139.994 100.161 139.714 99.7349 139.334C99.3088 138.953 99.0971 138.44 99.1 137.795C99.0971 137.267 99.2377 136.805 99.5218 136.411C99.8088 136.016 100.202 135.707 100.702 135.486C101.202 135.264 101.77 135.153 102.407 135.153C103.055 135.153 103.62 135.264 104.103 135.486C104.589 135.707 104.966 136.016 105.236 136.411C105.506 136.805 105.645 137.263 105.654 137.783H103.885ZM114.715 138.328H112.848C112.814 138.087 112.744 137.872 112.639 137.685C112.534 137.494 112.399 137.332 112.235 137.199C112.07 137.065 111.879 136.963 111.664 136.892C111.45 136.821 111.219 136.786 110.969 136.786C110.517 136.786 110.124 136.898 109.789 137.122C109.453 137.344 109.193 137.668 109.009 138.094C108.824 138.517 108.732 139.031 108.732 139.636C108.732 140.259 108.824 140.781 109.009 141.205C109.196 141.628 109.458 141.947 109.793 142.163C110.128 142.379 110.516 142.487 110.956 142.487C111.203 142.487 111.432 142.455 111.642 142.389C111.855 142.324 112.044 142.229 112.209 142.104C112.374 141.976 112.51 141.821 112.618 141.639C112.729 141.457 112.806 141.25 112.848 141.017L114.715 141.026C114.666 141.426 114.546 141.812 114.352 142.185C114.162 142.554 113.905 142.885 113.581 143.178C113.26 143.467 112.877 143.697 112.431 143.868C111.987 144.036 111.486 144.119 110.926 144.119C110.148 144.119 109.452 143.943 108.838 143.591C108.227 143.239 107.744 142.729 107.389 142.061C107.037 141.393 106.861 140.585 106.861 139.636C106.861 138.685 107.04 137.875 107.398 137.207C107.756 136.54 108.242 136.031 108.855 135.682C109.469 135.33 110.159 135.153 110.926 135.153C111.432 135.153 111.901 135.224 112.333 135.366C112.767 135.509 113.152 135.716 113.487 135.989C113.823 136.259 114.095 136.589 114.306 136.982C114.519 137.374 114.655 137.822 114.715 138.328ZM117.883 135.273V144H116.038V135.273H117.883ZM119.401 144V135.273H125.282V136.794H121.246V138.874H124.979V140.395H121.246V142.479H125.299V144H119.401ZM134.048 135.273V144H132.455L128.658 138.507H128.594V144H126.749V135.273H128.368L132.135 140.761H132.212V135.273H134.048ZM143.273 138.328H141.407C141.373 138.087 141.303 137.872 141.198 137.685C141.093 137.494 140.958 137.332 140.793 137.199C140.628 137.065 140.438 136.963 140.222 136.892C140.009 136.821 139.778 136.786 139.528 136.786C139.076 136.786 138.682 136.898 138.347 137.122C138.012 137.344 137.752 137.668 137.567 138.094C137.383 138.517 137.29 139.031 137.29 139.636C137.29 140.259 137.383 140.781 137.567 141.205C137.755 141.628 138.016 141.947 138.351 142.163C138.687 142.379 139.074 142.487 139.515 142.487C139.762 142.487 139.991 142.455 140.201 142.389C140.414 142.324 140.603 142.229 140.768 142.104C140.932 141.976 141.069 141.821 141.177 141.639C141.287 141.457 141.364 141.25 141.407 141.017L143.273 141.026C143.225 141.426 143.104 141.812 142.911 142.185C142.721 142.554 142.464 142.885 142.14 143.178C141.819 143.467 141.435 143.697 140.989 143.868C140.546 144.036 140.045 144.119 139.485 144.119C138.706 144.119 138.01 143.943 137.397 143.591C136.786 143.239 136.303 142.729 135.948 142.061C135.596 141.393 135.42 140.585 135.42 139.636C135.42 138.685 135.599 137.875 135.956 137.207C136.314 136.54 136.8 136.031 137.414 135.682C138.028 135.33 138.718 135.153 139.485 135.153C139.991 135.153 140.459 135.224 140.891 135.366C141.326 135.509 141.711 135.716 142.046 135.989C142.381 136.259 142.654 136.589 142.864 136.982C143.077 137.374 143.214 137.822 143.273 138.328ZM144.596 144V135.273H150.477V136.794H146.442V138.874H150.175V140.395H146.442V142.479H150.494V144H144.596ZM2.72177 159H0.744496L3.75728 150.273H6.13512L9.14364 159H7.16637L4.98029 152.267H4.91211L2.72177 159ZM2.59819 155.57H7.26864V157.01H2.59819V155.57ZM17.4938 150.273V159H15.9L12.1032 153.507H12.0392V159H10.1941V150.273H11.8134L15.5804 155.761H15.6571V150.273H17.4938ZM22.112 159H19.0183V150.273H22.1376C23.0154 150.273 23.7711 150.447 24.4047 150.797C25.0382 151.143 25.5254 151.642 25.8663 152.293C26.2101 152.943 26.3819 153.722 26.3819 154.628C26.3819 155.537 26.2101 156.318 25.8663 156.972C25.5254 157.625 25.0353 158.126 24.3961 158.476C23.7598 158.825 22.9984 159 22.112 159ZM20.8635 157.419H22.0353C22.5808 157.419 23.0396 157.322 23.4118 157.129C23.7868 156.933 24.068 156.631 24.2555 156.222C24.4458 155.81 24.541 155.278 24.541 154.628C24.541 153.983 24.4458 153.456 24.2555 153.047C24.068 152.638 23.7882 152.337 23.416 152.143C23.0439 151.95 22.585 151.854 22.0396 151.854H20.8635V157.419ZM30.5261 159V150.273H32.3713V153.874H36.117V150.273H37.9579V159H36.117V155.395H32.3713V159H30.5261ZM41.3244 150.273V159H39.4792V150.273H41.3244ZM48.6294 153.094C48.5698 152.886 48.486 152.703 48.378 152.544C48.2701 152.382 48.138 152.246 47.9817 152.135C47.8283 152.021 47.6522 151.935 47.4533 151.875C47.2573 151.815 47.04 151.786 46.8013 151.786C46.3553 151.786 45.9632 151.896 45.6252 152.118C45.29 152.339 45.0286 152.662 44.8411 153.085C44.6536 153.506 44.5598 154.02 44.5598 154.628C44.5598 155.236 44.6522 155.753 44.8368 156.179C45.0215 156.605 45.2828 156.93 45.6209 157.155C45.959 157.376 46.3581 157.487 46.8184 157.487C47.236 157.487 47.5925 157.413 47.888 157.266C48.1863 157.115 48.4135 156.903 48.5698 156.631C48.7289 156.358 48.8084 156.036 48.8084 155.663L49.1834 155.719H46.9334V154.33H50.5854V155.429C50.5854 156.196 50.4235 156.855 50.0996 157.406C49.7757 157.955 49.3297 158.378 48.7615 158.676C48.1934 158.972 47.5428 159.119 46.8098 159.119C45.9917 159.119 45.2729 158.939 44.6536 158.578C44.0343 158.214 43.5513 157.699 43.2047 157.031C42.861 156.361 42.6891 155.565 42.6891 154.645C42.6891 153.937 42.7914 153.307 42.9959 152.753C43.2033 152.196 43.4931 151.724 43.8652 151.338C44.2374 150.952 44.6706 150.658 45.165 150.456C45.6593 150.254 46.1948 150.153 46.7715 150.153C47.2658 150.153 47.726 150.226 48.1522 150.371C48.5783 150.513 48.9561 150.714 49.2857 150.976C49.6181 151.237 49.8894 151.548 50.0996 151.909C50.3098 152.267 50.4448 152.662 50.5044 153.094H48.6294ZM51.9714 159V150.273H53.8166V153.874H57.5623V150.273H59.4032V159H57.5623V155.395H53.8166V159H51.9714ZM60.9245 159V150.273H66.8052V151.794H62.7697V153.874H66.5027V155.395H62.7697V157.479H66.8223V159H60.9245ZM68.2722 159V150.273H71.7154C72.3745 150.273 72.937 150.391 73.4029 150.626C73.8716 150.859 74.2282 151.19 74.4725 151.619C74.7196 152.045 74.8432 152.547 74.8432 153.124C74.8432 153.703 74.7182 154.202 74.4682 154.619C74.2182 155.034 73.856 155.352 73.3816 155.574C72.91 155.795 72.339 155.906 71.6685 155.906H69.3631V154.423H71.3702C71.7225 154.423 72.0151 154.375 72.248 154.278C72.481 154.182 72.6543 154.037 72.7679 153.844C72.8844 153.651 72.9426 153.411 72.9426 153.124C72.9426 152.834 72.8844 152.589 72.7679 152.391C72.6543 152.192 72.4796 152.041 72.2438 151.939C72.0108 151.834 71.7168 151.781 71.3617 151.781H70.1174V159H68.2722ZM72.9853 155.028L75.1543 159H73.1174L70.9952 155.028H72.9853ZM78.9245 159V150.273H84.8052V151.794H80.7697V153.874H84.5027V155.395H80.7697V157.479H84.8223V159H78.9245ZM89.3659 159H86.2722V150.273H89.3915C90.2694 150.273 91.025 150.447 91.6586 150.797C92.2921 151.143 92.7793 151.642 93.1202 152.293C93.464 152.943 93.6358 153.722 93.6358 154.628C93.6358 155.537 93.464 156.318 93.1202 156.972C92.7793 157.625 92.2892 158.126 91.65 158.476C91.0137 158.825 90.2523 159 89.3659 159ZM88.1174 157.419H89.2892C89.8347 157.419 90.2935 157.322 90.6657 157.129C91.0407 156.933 91.3219 156.631 91.5094 156.222C91.6998 155.81 91.7949 155.278 91.7949 154.628C91.7949 153.983 91.6998 153.456 91.5094 153.047C91.3219 152.638 91.0421 152.337 90.6699 152.143C90.2978 151.95 89.839 151.854 89.2935 151.854H88.1174V157.419ZM100.393 150.273H102.238V155.94C102.238 156.577 102.086 157.134 101.782 157.611C101.481 158.088 101.059 158.46 100.517 158.727C99.9743 158.991 99.3422 159.124 98.6206 159.124C97.8961 159.124 97.2626 158.991 96.72 158.727C96.1774 158.46 95.7555 158.088 95.4544 157.611C95.1532 157.134 95.0027 156.577 95.0027 155.94V150.273H96.8478V155.783C96.8478 156.115 96.9203 156.411 97.0652 156.669C97.2129 156.928 97.4203 157.131 97.6873 157.278C97.9544 157.426 98.2654 157.5 98.6206 157.5C98.9785 157.5 99.2896 157.426 99.5538 157.278C99.8208 157.131 100.027 156.928 100.172 156.669C100.319 156.411 100.393 156.115 100.393 155.783V150.273ZM111.457 153.328H109.59C109.556 153.087 109.487 152.872 109.382 152.685C109.276 152.494 109.142 152.332 108.977 152.199C108.812 152.065 108.622 151.963 108.406 151.892C108.193 151.821 107.961 151.786 107.711 151.786C107.259 151.786 106.866 151.898 106.531 152.122C106.195 152.344 105.936 152.668 105.751 153.094C105.566 153.517 105.474 154.031 105.474 154.636C105.474 155.259 105.566 155.781 105.751 156.205C105.938 156.628 106.2 156.947 106.535 157.163C106.87 157.379 107.258 157.487 107.698 157.487C107.945 157.487 108.174 157.455 108.384 157.389C108.597 157.324 108.786 157.229 108.951 157.104C109.116 156.976 109.252 156.821 109.36 156.639C109.471 156.457 109.548 156.25 109.59 156.017L111.457 156.026C111.409 156.426 111.288 156.812 111.095 157.185C110.904 157.554 110.647 157.885 110.323 158.178C110.002 158.467 109.619 158.697 109.173 158.868C108.73 159.036 108.228 159.119 107.669 159.119C106.89 159.119 106.194 158.943 105.58 158.591C104.97 158.239 104.487 157.729 104.132 157.061C103.779 156.393 103.603 155.585 103.603 154.636C103.603 153.685 103.782 152.875 104.14 152.207C104.498 151.54 104.984 151.031 105.597 150.682C106.211 150.33 106.901 150.153 107.669 150.153C108.174 150.153 108.643 150.224 109.075 150.366C109.509 150.509 109.894 150.716 110.23 150.989C110.565 151.259 110.838 151.589 111.048 151.982C111.261 152.374 111.397 152.822 111.457 153.328ZM114.12 159H112.143L115.156 150.273H117.534L120.542 159H118.565L116.379 152.267H116.311L114.12 159ZM113.997 155.57H118.667V157.01H113.997V155.57ZM120.194 151.794V150.273H127.361V151.794H124.689V159H122.866V151.794H120.194ZM130.387 150.273V159H128.542V150.273H130.387ZM139.925 154.636C139.925 155.588 139.744 156.398 139.384 157.065C139.026 157.733 138.537 158.243 137.918 158.595C137.301 158.945 136.608 159.119 135.838 159.119C135.063 159.119 134.367 158.943 133.75 158.591C133.134 158.239 132.646 157.729 132.289 157.061C131.931 156.393 131.752 155.585 131.752 154.636C131.752 153.685 131.931 152.875 132.289 152.207C132.646 151.54 133.134 151.031 133.75 150.682C134.367 150.33 135.063 150.153 135.838 150.153C136.608 150.153 137.301 150.33 137.918 150.682C138.537 151.031 139.026 151.54 139.384 152.207C139.744 152.875 139.925 153.685 139.925 154.636ZM138.054 154.636C138.054 154.02 137.962 153.5 137.777 153.077C137.595 152.653 137.338 152.332 137.006 152.114C136.673 151.895 136.284 151.786 135.838 151.786C135.392 151.786 135.003 151.895 134.671 152.114C134.338 152.332 134.08 152.653 133.895 153.077C133.713 153.5 133.622 154.02 133.622 154.636C133.622 155.253 133.713 155.773 133.895 156.196C134.08 156.619 134.338 156.94 134.671 157.159C135.003 157.378 135.392 157.487 135.838 157.487C136.284 157.487 136.673 157.378 137.006 157.159C137.338 156.94 137.595 156.619 137.777 156.196C137.962 155.773 138.054 155.253 138.054 154.636ZM148.591 150.273V159H146.998L143.201 153.507H143.137V159H141.292V150.273H142.911L146.678 155.761H146.755V150.273H148.591ZM160.913 154.636C160.913 155.588 160.733 156.398 160.372 157.065C160.014 157.733 159.525 158.243 158.906 158.595C158.29 158.945 157.596 159.119 156.827 159.119C156.051 159.119 155.355 158.943 154.738 158.591C154.122 158.239 153.635 157.729 153.277 157.061C152.919 156.393 152.74 155.585 152.74 154.636C152.74 153.685 152.919 152.875 153.277 152.207C153.635 151.54 154.122 151.031 154.738 150.682C155.355 150.33 156.051 150.153 156.827 150.153C157.596 150.153 158.29 150.33 158.906 150.682C159.525 151.031 160.014 151.54 160.372 152.207C160.733 152.875 160.913 153.685 160.913 154.636ZM159.042 154.636C159.042 154.02 158.95 153.5 158.765 153.077C158.584 152.653 158.327 152.332 157.994 152.114C157.662 151.895 157.273 151.786 156.827 151.786C156.381 151.786 155.991 151.895 155.659 152.114C155.327 152.332 155.068 152.653 154.883 153.077C154.702 153.5 154.611 154.02 154.611 154.636C154.611 155.253 154.702 155.773 154.883 156.196C155.068 156.619 155.327 156.94 155.659 157.159C155.991 157.378 156.381 157.487 156.827 157.487C157.273 157.487 157.662 157.378 157.994 157.159C158.327 156.94 158.584 156.619 158.765 156.196C158.95 155.773 159.042 155.253 159.042 154.636ZM162.28 159V150.273H168.058V151.794H164.125V153.874H167.675V155.395H164.125V159H162.28ZM5.32067 166.794V165.273H12.4883V166.794H9.81641V174H7.99254V166.794H5.32067ZM13.6687 174V165.273H15.5138V168.874H19.2596V165.273H21.1005V174H19.2596V170.395H15.5138V174H13.6687ZM22.6218 174V165.273H28.5025V166.794H24.467V168.874H28.1999V170.395H24.467V172.479H28.5195V174H22.6218ZM32.7468 174V165.273H36.19C36.8491 165.273 37.4116 165.391 37.8775 165.626C38.3462 165.859 38.7028 166.19 38.9471 166.619C39.1942 167.045 39.3178 167.547 39.3178 168.124C39.3178 168.703 39.1928 169.202 38.9428 169.619C38.6928 170.034 38.3306 170.352 37.8562 170.574C37.3846 170.795 36.8136 170.906 36.1431 170.906H33.8377V169.423H35.8448C36.1971 169.423 36.4897 169.375 36.7227 169.278C36.9556 169.182 37.1289 169.037 37.2425 168.844C37.359 168.651 37.4173 168.411 37.4173 168.124C37.4173 167.834 37.359 167.589 37.2425 167.391C37.1289 167.192 36.9542 167.041 36.7184 166.939C36.4854 166.834 36.1914 166.781 35.8363 166.781H34.592V174H32.7468ZM37.4599 170.028L39.6289 174H37.592L35.4698 170.028H37.4599ZM46.0124 165.273H47.8576V170.94C47.8576 171.577 47.7056 172.134 47.4016 172.611C47.1005 173.088 46.6786 173.46 46.136 173.727C45.5934 173.991 44.9613 174.124 44.2397 174.124C43.5153 174.124 42.8817 173.991 42.3391 173.727C41.7965 173.46 41.3746 173.088 41.0735 172.611C40.7724 172.134 40.6218 171.577 40.6218 170.94V165.273H42.467V170.783C42.467 171.115 42.5394 171.411 42.6843 171.669C42.832 171.928 43.0394 172.131 43.3065 172.278C43.5735 172.426 43.8846 172.5 44.2397 172.5C44.5977 172.5 44.9087 172.426 45.1729 172.278C45.44 172.131 45.646 171.928 45.7908 171.669C45.9386 171.411 46.0124 171.115 46.0124 170.783V165.273ZM54.1101 167.783C54.076 167.439 53.9297 167.172 53.6712 166.982C53.4126 166.791 53.0618 166.696 52.6186 166.696C52.3175 166.696 52.0632 166.739 51.8558 166.824C51.6484 166.906 51.4893 167.021 51.3786 167.169C51.2706 167.317 51.2166 167.484 51.2166 167.672C51.2109 167.828 51.2436 167.964 51.3146 168.081C51.3885 168.197 51.4893 168.298 51.6172 168.384C51.745 168.466 51.8928 168.538 52.0604 168.601C52.228 168.661 52.407 168.712 52.5973 168.754L53.3814 168.942C53.7621 169.027 54.1115 169.141 54.4297 169.283C54.7479 169.425 55.0234 169.599 55.2564 169.807C55.4893 170.014 55.6697 170.259 55.7976 170.54C55.9283 170.821 55.995 171.143 55.9979 171.507C55.995 172.041 55.8587 172.504 55.5888 172.896C55.3217 173.286 54.9354 173.588 54.4297 173.804C53.9268 174.017 53.3203 174.124 52.6101 174.124C51.9055 174.124 51.2919 174.016 50.7692 173.8C50.2493 173.584 49.843 173.264 49.5504 172.841C49.2607 172.415 49.1087 171.888 49.0945 171.26H50.88C50.8999 171.553 50.9837 171.797 51.1314 171.993C51.282 172.186 51.4822 172.332 51.7322 172.432C51.9851 172.528 52.2706 172.577 52.5888 172.577C52.9013 172.577 53.1726 172.531 53.4027 172.44C53.6357 172.349 53.8161 172.223 53.9439 172.061C54.0717 171.899 54.1357 171.713 54.1357 171.503C54.1357 171.307 54.0774 171.142 53.9609 171.009C53.8473 170.875 53.6797 170.761 53.4581 170.668C53.2393 170.574 52.9709 170.489 52.6527 170.412L51.7024 170.173C50.9666 169.994 50.3857 169.714 49.9595 169.334C49.5334 168.953 49.3217 168.44 49.3246 167.795C49.3217 167.267 49.4624 166.805 49.7464 166.411C50.0334 166.016 50.4268 165.707 50.9268 165.486C51.4268 165.264 51.995 165.153 52.6314 165.153C53.2791 165.153 53.8445 165.264 54.3274 165.486C54.8132 165.707 55.1911 166.016 55.4609 166.411C55.7308 166.805 55.87 167.263 55.8786 167.783H54.1101ZM61.9734 167.783C61.9393 167.439 61.793 167.172 61.5344 166.982C61.2759 166.791 60.9251 166.696 60.4819 166.696C60.1808 166.696 59.9265 166.739 59.7191 166.824C59.5117 166.906 59.3526 167.021 59.2418 167.169C59.1339 167.317 59.0799 167.484 59.0799 167.672C59.0742 167.828 59.1069 167.964 59.1779 168.081C59.2518 168.197 59.3526 168.298 59.4805 168.384C59.6083 168.466 59.756 168.538 59.9237 168.601C60.0913 168.661 60.2702 168.712 60.4606 168.754L61.2447 168.942C61.6254 169.027 61.9748 169.141 62.293 169.283C62.6112 169.425 62.8867 169.599 63.1197 169.807C63.3526 170.014 63.533 170.259 63.6609 170.54C63.7915 170.821 63.8583 171.143 63.8612 171.507C63.8583 172.041 63.7219 172.504 63.4521 172.896C63.185 173.286 62.7987 173.588 62.293 173.804C61.7901 174.017 61.1836 174.124 60.4734 174.124C59.7688 174.124 59.1552 174.016 58.6325 173.8C58.1126 173.584 57.7063 173.264 57.4137 172.841C57.1239 172.415 56.9719 171.888 56.9577 171.26H58.7433C58.7631 171.553 58.8469 171.797 58.9947 171.993C59.1452 172.186 59.3455 172.332 59.5955 172.432C59.8484 172.528 60.1339 172.577 60.4521 172.577C60.7646 172.577 61.0359 172.531 61.266 172.44C61.4989 172.349 61.6793 172.223 61.8072 172.061C61.935 171.899 61.9989 171.713 61.9989 171.503C61.9989 171.307 61.9407 171.142 61.8242 171.009C61.7106 170.875 61.543 170.761 61.3214 170.668C61.1026 170.574 60.8342 170.489 60.516 170.412L59.5657 170.173C58.8299 169.994 58.2489 169.714 57.8228 169.334C57.3967 168.953 57.185 168.44 57.1879 167.795C57.185 167.267 57.3256 166.805 57.6097 166.411C57.8967 166.016 58.2901 165.707 58.7901 165.486C59.2901 165.264 59.8583 165.153 60.4947 165.153C61.1424 165.153 61.7077 165.264 62.1907 165.486C62.6765 165.707 63.0543 166.016 63.3242 166.411C63.5941 166.805 63.7333 167.263 63.7418 167.783H61.9734ZM66.9474 165.273V174H65.1023V165.273H66.9474ZM69.9698 174H67.9925L71.0053 165.273H73.3832L76.3917 174H74.4144L72.2283 167.267H72.1602L69.9698 174ZM69.8462 170.57H74.5167V172.01H69.8462V170.57ZM84.7418 165.273V174H83.1481L79.3512 168.507H79.2873V174H77.4421V165.273H79.0614L82.8285 170.761H82.9052V165.273H84.7418ZM89.0437 174V165.273H94.8221V166.794H90.8888V168.874H94.4386V170.395H90.8888V174H89.0437ZM96.0632 174V165.273H101.944V166.794H97.9084V168.874H101.641V170.395H97.9084V172.479H101.961V174H96.0632ZM106.505 174H103.411V165.273H106.53C107.408 165.273 108.164 165.447 108.797 165.797C109.431 166.143 109.918 166.642 110.259 167.293C110.603 167.943 110.775 168.722 110.775 169.628C110.775 170.537 110.603 171.318 110.259 171.972C109.918 172.625 109.428 173.126 108.789 173.476C108.152 173.825 107.391 174 106.505 174ZM105.256 172.419H106.428C106.973 172.419 107.432 172.322 107.804 172.129C108.179 171.933 108.461 171.631 108.648 171.222C108.838 170.81 108.934 170.278 108.934 169.628C108.934 168.983 108.838 168.456 108.648 168.047C108.461 167.638 108.181 167.337 107.809 167.143C107.436 166.95 106.978 166.854 106.432 166.854H105.256V172.419ZM112.141 174V165.273H118.022V166.794H113.987V168.874H117.719V170.395H113.987V172.479H118.039V174H112.141ZM119.489 174V165.273H122.932C123.591 165.273 124.154 165.391 124.62 165.626C125.088 165.859 125.445 166.19 125.689 166.619C125.936 167.045 126.06 167.547 126.06 168.124C126.06 168.703 125.935 169.202 125.685 169.619C125.435 170.034 125.073 170.352 124.598 170.574C124.127 170.795 123.556 170.906 122.885 170.906H120.58V169.423H122.587C122.939 169.423 123.232 169.375 123.465 169.278C123.698 169.182 123.871 169.037 123.985 168.844C124.101 168.651 124.159 168.411 124.159 168.124C124.159 167.834 124.101 167.589 123.985 167.391C123.871 167.192 123.696 167.041 123.461 166.939C123.228 166.834 122.934 166.781 122.578 166.781H121.334V174H119.489ZM124.202 170.028L126.371 174H124.334L122.212 170.028H124.202ZM128.868 174H126.891L129.904 165.273H132.282L135.29 174H133.313L131.127 167.267H131.059L128.868 174ZM128.745 170.57H133.415V172.01H128.745V170.57ZM134.942 166.794V165.273H142.109V166.794H139.438V174H137.614V166.794H134.942ZM145.135 165.273V174H143.29V165.273H145.135ZM154.673 169.636C154.673 170.588 154.493 171.398 154.132 172.065C153.774 172.733 153.285 173.243 152.666 173.595C152.049 173.945 151.356 174.119 150.586 174.119C149.811 174.119 149.115 173.943 148.498 173.591C147.882 173.239 147.395 172.729 147.037 172.061C146.679 171.393 146.5 170.585 146.5 169.636C146.5 168.685 146.679 167.875 147.037 167.207C147.395 166.54 147.882 166.031 148.498 165.682C149.115 165.33 149.811 165.153 150.586 165.153C151.356 165.153 152.049 165.33 152.666 165.682C153.285 166.031 153.774 166.54 154.132 167.207C154.493 167.875 154.673 168.685 154.673 169.636ZM152.802 169.636C152.802 169.02 152.71 168.5 152.525 168.077C152.343 167.653 152.086 167.332 151.754 167.114C151.422 166.895 151.032 166.786 150.586 166.786C150.14 166.786 149.751 166.895 149.419 167.114C149.086 167.332 148.828 167.653 148.643 168.077C148.461 168.5 148.37 169.02 148.37 169.636C148.37 170.253 148.461 170.773 148.643 171.196C148.828 171.619 149.086 171.94 149.419 172.159C149.751 172.378 150.14 172.487 150.586 172.487C151.032 172.487 151.422 172.378 151.754 172.159C152.086 171.94 152.343 171.619 152.525 171.196C152.71 170.773 152.802 170.253 152.802 169.636ZM163.339 165.273V174H161.746L157.949 168.507H157.885V174H156.04V165.273H157.659L161.426 170.761H161.503V165.273H163.339Z" fill="white"/>
<defs>
<clipPath id="clip0_1_85">
<rect width="107" height="122" fill="white" transform="translate(31)"/>
</clipPath>
</defs>
</svg>
