<svg xmlns="http://www.w3.org/2000/svg" viewBox="0 0 299.63 322.48"><defs><style>.cls-1{fill:#fff;}</style></defs><g id="Слой_2" data-name="Слой 2"><g id="Слой_2-2" data-name="Слой 2"><polygon class="cls-1" points="18.77 272.62 0 272.62 26.52 227.35 45.29 227.35 18.77 272.62"/><polygon class="cls-1" points="140.54 224.85 93.14 224.85 160.12 112.42 207.51 112.42 140.54 224.85"/><polygon class="cls-1" points="232.66 224.85 185.26 224.85 252.23 112.42 299.63 112.42 232.66 224.85"/><polygon class="cls-1" points="232.66 0 185.26 0 252.23 112.42 299.63 112.42 232.66 0"/><polygon class="cls-1" points="119.67 109.42 162.63 37.32 115.23 37.32 95.98 69.64 119.67 109.42"/><polygon class="cls-1" points="72.28 109.42 48.26 149.74 95.66 149.74 95.98 149.21 72.28 109.42"/><polygon class="cls-1" points="162.65 37.12 140.54 0 93.14 0 138.95 76.9 162.65 37.12"/><polygon class="cls-1" points="186.94 77.9 185.76 77.9 185.75 77.91 139.55 77.91 160.12 112.42 207.51 112.42 186.94 77.9"/><path class="cls-1" d="M50,251.74l.07,3.84a9,9,0,0,1,2.71-3.13,6.39,6.39,0,0,1,3.76-1.16q6.27,0,6.42,8.42V275.9H60.52V260a8.31,8.31,0,0,0-1.13-4.78,4,4,0,0,0-3.47-1.54,4.93,4.93,0,0,0-3.47,1.46,9.26,9.26,0,0,0-2.34,4V275.9H47.66V251.74Z"/><path class="cls-1" d="M99,275.9a16.3,16.3,0,0,1-.45-3.35,7.85,7.85,0,0,1-2.84,2.8,7.51,7.51,0,0,1-3.78,1,6.42,6.42,0,0,1-4.82-1.76,6.85,6.85,0,0,1-1.73-5,7.05,7.05,0,0,1,2.4-5.63,9.83,9.83,0,0,1,6.63-2.1h4.12v-3.37a4.74,4.74,0,0,0-1.27-3.72,5.47,5.47,0,0,0-3.73-1.13A5.32,5.32,0,0,0,89.78,255a4.48,4.48,0,0,0-1.47,3.46l-2.45,0a6.59,6.59,0,0,1,2.21-5,7.83,7.83,0,0,1,5.56-2.07,7.5,7.5,0,0,1,5.47,1.83,7.17,7.17,0,0,1,1.86,5.34v11.86a16.48,16.48,0,0,0,.64,5.31v.27ZM92.23,274a6.6,6.6,0,0,0,6.29-4.17v-5.87h-3.9a7.82,7.82,0,0,0-5.07,1.5,5,5,0,0,0-1.7,3.94Q87.85,274,92.23,274Z"/><path class="cls-1" d="M128.2,245.57v6.17h4.09V254H128.2v16a5.85,5.85,0,0,0,.58,3,2.11,2.11,0,0,0,2,1,10.33,10.33,0,0,0,1.78-.22l.06,2.23a5.91,5.91,0,0,1-2.41.38q-4.32,0-4.43-6V254H122v-2.23h3.7v-6.17Z"/><path class="cls-1" d="M154.39,244.77a2,2,0,0,1,.42-1.29,1.6,1.6,0,0,1,2.4,0,2,2,0,0,1,.44,1.29,1.91,1.91,0,0,1-.44,1.28,1.62,1.62,0,0,1-2.4,0A2,2,0,0,1,154.39,244.77Zm2.84,31.13h-2.48V251.74h2.48Z"/><path class="cls-1" d="M179.92,262.59c0-3.48.78-6.24,2.35-8.26a8.31,8.31,0,0,1,12.81-.05c1.56,2,2.35,4.74,2.36,8.24v2.57q0,5.31-2.36,8.28a8.36,8.36,0,0,1-12.72.07c-1.57-1.93-2.38-4.6-2.44-8Zm2.48,2.49a11.26,11.26,0,0,0,1.68,6.56,5.76,5.76,0,0,0,9.27.08,11.39,11.39,0,0,0,1.63-6.58v-2.56A11.29,11.29,0,0,0,193.3,256a5.36,5.36,0,0,0-4.63-2.4,5.3,5.3,0,0,0-4.54,2.35,11.09,11.09,0,0,0-1.73,6.44Z"/><path class="cls-1" d="M222.28,251.74l.07,3.84a9,9,0,0,1,2.71-3.13,6.39,6.39,0,0,1,3.76-1.16q6.27,0,6.42,8.42V275.9h-2.43V260a8.47,8.47,0,0,0-1.13-4.78,4,4,0,0,0-3.48-1.54,4.93,4.93,0,0,0-3.47,1.46,9.24,9.24,0,0,0-2.33,4V275.9h-2.46V251.74Z"/><path class="cls-1" d="M271.27,275.9a15.75,15.75,0,0,1-.44-3.35,8,8,0,0,1-2.85,2.8,7.5,7.5,0,0,1-3.77,1,6.43,6.43,0,0,1-4.83-1.76,6.89,6.89,0,0,1-1.73-5,7.05,7.05,0,0,1,2.4-5.63,9.86,9.86,0,0,1,6.64-2.1h4.12v-3.37a4.74,4.74,0,0,0-1.28-3.72,5.47,5.47,0,0,0-3.73-1.13,5.32,5.32,0,0,0-3.74,1.34,4.47,4.47,0,0,0-1.46,3.46l-2.46,0a6.62,6.62,0,0,1,2.21-5,7.83,7.83,0,0,1,5.56-2.07,7.48,7.48,0,0,1,5.47,1.83,7.17,7.17,0,0,1,1.86,5.34v11.86a16.77,16.77,0,0,0,.64,5.31v.27ZM264.52,274a6.62,6.62,0,0,0,6.29-4.17v-5.87h-3.9a7.78,7.78,0,0,0-5.07,1.5,4.93,4.93,0,0,0-1.71,3.94Q260.13,274,264.52,274Z"/><path class="cls-1" d="M299.53,275.9H297V241.6h2.49Z"/><path class="cls-1" d="M54,310.89V322h-6.4V290.33h10.8a9.94,9.94,0,0,1,7.5,2.92,10.5,10.5,0,0,1,2.8,7.58A9.79,9.79,0,0,1,66,308.19a10.5,10.5,0,0,1-7.66,2.7Zm0-5.33h4.4a3.48,3.48,0,0,0,2.83-1.2,5.29,5.29,0,0,0,1-3.48,6.28,6.28,0,0,0-1-3.78,3.27,3.27,0,0,0-2.75-1.43H54Z"/><path class="cls-1" d="M88,310.46H84.77V322h-6.4V290.33H88.58c3.21,0,5.69.84,7.44,2.5s2.63,4,2.63,7.09q0,6.31-4.6,8.84l5.55,13v.3H92.72Zm-3.18-5.34h3.64a3.37,3.37,0,0,0,2.88-1.27,5.61,5.61,0,0,0,.95-3.41q0-4.77-3.72-4.77H84.77Z"/><path class="cls-1" d="M115.08,322h-6.4V290.33h6.4Z"/><path class="cls-1" d="M148.14,309q0,6.39-3,9.91a10.43,10.43,0,0,1-8.37,3.53,10.55,10.55,0,0,1-8.39-3.5q-3-3.5-3.09-9.79v-5.42q0-6.52,3-10.2A11.45,11.45,0,0,1,145,293.5q3.06,3.62,3.1,10.12Zm-6.43-5.31a13,13,0,0,0-1.22-6.38,4.06,4.06,0,0,0-3.79-2.09,4.11,4.11,0,0,0-3.77,2,12.42,12.42,0,0,0-1.26,6.13V309c0,2.77.42,4.82,1.24,6.13a4.21,4.21,0,0,0,3.84,2,4.1,4.1,0,0,0,3.72-1.92,11.57,11.57,0,0,0,1.24-6Z"/><path class="cls-1" d="M167.69,310.46h-3.18V322H158.1V290.33h10.22c3.21,0,5.68.84,7.43,2.5s2.63,4,2.63,7.09q0,6.31-4.6,8.84l5.56,13v.3h-6.88Zm-3.18-5.34h3.63a3.37,3.37,0,0,0,2.88-1.27,5.54,5.54,0,0,0,1-3.41c0-3.18-1.25-4.77-3.73-4.77h-3.74Z"/><path class="cls-1" d="M194.82,322h-6.41V290.33h6.41Z"/><path class="cls-1" d="M226.08,295.67h-7.84V322h-6.42V295.67h-7.71v-5.34h22Z"/><path class="cls-1" d="M241.8,322h-6.4V290.33h6.4Z"/><path class="cls-1" d="M268.91,308.32h-10v8.41h11.81V322H252.53V290.33h18.16v5.34H258.93v7.49h10Z"/><path class="cls-1" d="M293.16,313.72a4,4,0,0,0-1-2.92,11.19,11.19,0,0,0-3.6-2.06,16.81,16.81,0,0,1-6.86-4.24,8.48,8.48,0,0,1-2.09-5.74,8.05,8.05,0,0,1,2.84-6.43,11.8,11.8,0,0,1,12.42-1.2,8.53,8.53,0,0,1,3.52,3.47,10.46,10.46,0,0,1,1.23,5.1h-6.38a5.23,5.23,0,0,0-.95-3.39,3.33,3.33,0,0,0-2.73-1.16,3.41,3.41,0,0,0-2.61,1,3.7,3.7,0,0,0-.94,2.67,3.27,3.27,0,0,0,1.05,2.36,12.11,12.11,0,0,0,3.7,2.19,16,16,0,0,1,6.74,4.11,9.19,9.19,0,0,1,2.1,6.21,8.17,8.17,0,0,1-2.64,6.47,10.42,10.42,0,0,1-7.16,2.33,12.39,12.39,0,0,1-5.6-1.26,9.54,9.54,0,0,1-3.95-3.62,10.52,10.52,0,0,1-1.43-5.55h6.43a6,6,0,0,0,1.07,4,4.35,4.35,0,0,0,3.48,1.24C292.05,317.27,293.16,316.09,293.16,313.72Z"/></g></g></svg>