<?xml version="1.0" encoding="UTF-8"?>
<svg id="Layer_1" data-name="Layer 1" xmlns="http://www.w3.org/2000/svg" viewBox="0 0 150 137.36">
  <defs>
    <style>
      .cls-1 {
        fill: #fff;
        stroke-width: 0px;
      }
    </style>
  </defs>
  <path class="cls-1" d="m21.44,45.79c0-13.16,10.71-23.86,23.87-23.86s23.87,10.7,23.87,23.86c0,1.49-.15,2.94-.41,4.36-3.83-1.61-8.03-2.5-12.43-2.5-11.61,0-21.77,6.2-27.42,15.44-4.59-4.35-7.47-10.49-7.47-17.3Zm40.06,34c0-7.71,2.73-14.79,7.27-20.34-3.63-2.23-7.88-3.54-12.44-3.54-13.16,0-23.87,10.71-23.87,23.87s10.71,23.87,23.87,23.87c4.56,0,8.81-1.31,12.44-3.54-4.54-5.55-7.27-12.63-7.27-20.33Zm43.2-1.86c-11.62,0-21.78-6.21-27.43-15.47-4.61,4.35-7.49,10.5-7.49,17.33,0,13.16,10.7,23.87,23.86,23.87s23.87-10.71,23.87-23.87c0-1.49-.16-2.94-.42-4.35-3.82,1.6-8.01,2.49-12.4,2.49Zm2.34-55.89c.04.61.1,1.21.1,1.82,0,15.06-10.43,27.7-24.44,31.17,3.61,8.59,12.11,14.63,22,14.63,13.16,0,23.87-10.71,23.87-23.87,0-12.37-9.46-22.57-21.53-23.74ZM74.98,0c-9.88,0-18.38,6.04-22,14.62,14.02,3.46,24.47,16.1,24.47,31.18,0,.61-.03,1.21-.07,1.82,12.04-1.21,21.47-11.39,21.47-23.74,0-13.16-10.71-23.87-23.87-23.87Z"/>
  <g>
    <path class="cls-1" d="m9.19,129.63c-.08.06-.53.3-.82.44-.11.04-.09.21-.04.3.4.84,2.13,3.75,3.18,4.98.57.67,1.18.93,1.81,1.05.21.04.38.21.38.3,0,.13-.19.27-.34.32-.34.13-1.14.17-1.41.17-1.92,0-2.74-.76-3.18-1.37-.59-.8-1.67-2.53-2.55-4.05-.19-.32-.51-.78-.67-.88-.15-.13-.61-.27-1.01-.27-.08,0-.21.11-.23.21-.04.42,0,3.23.06,4.2.06.91.21,1.12,1.18,1.37.36.11.51.25.51.4,0,.23-.4.32-.65.32-.74,0-1.67-.13-2.7-.13-.74,0-1.79.08-2.02.08-.53,0-.67-.15-.67-.34,0-.13.23-.25.51-.34.97-.3,1.2-.55,1.27-1.22.13-1.62.13-3.4.13-5.19,0-2.26-.04-4.05-.11-4.62-.04-.51-.23-.82-1.22-1.05-.3-.08-.53-.23-.53-.4,0-.15.25-.3.61-.3h1.54c.78,0,2.53-.11,3.67-.11.97,0,2.66.08,3.67.93.65.53,1.14,1.54,1.14,2.51,0,1.14-.55,1.96-1.48,2.7Zm-2.05-4.68c-.49-.51-1.14-.74-1.71-.74-.08,0-.63.06-.8.15-.11.06-.23.34-.25.44-.06.72-.15,4.41-.06,4.96.02.13.17.25.27.25,1.08,0,2.05-.32,2.28-.46.57-.42,1.18-1.18,1.18-2.36,0-.55-.19-1.5-.91-2.24Z"/>
    <path class="cls-1" d="m28.17,130.09c0,2.76-1.18,4.55-2.66,5.74-1.2.93-2.99,1.52-4.62,1.52-2.21,0-4.15-.84-5.48-2.26-1.14-1.22-1.81-2.89-1.81-4.83,0-2.57,1.14-4.22,2.72-5.48.95-.74,2.72-1.52,4.49-1.52,4.66,0,7.36,3.46,7.36,6.83Zm-10.25-5.02c-.72.7-1.48,2.21-1.48,4.72,0,3.25,1.98,6.77,5.06,6.77,1.16,0,1.88-.59,2.15-.87.88-.89,1.62-2.7,1.62-4.96,0-1.67-.65-4.2-2.19-5.61-.72-.63-1.86-1.14-2.78-1.14s-1.9.59-2.38,1.08Z"/>
    <path class="cls-1" d="m38.04,123.62c.08.02.25.32.27.42,0,.27.21,1.9.21,1.98,0,.32-.06.53-.19.53-.17,0-.51-.19-.61-.51-.21-.7-.65-1.29-.91-1.5-.51-.42-1.03-.59-1.69-.59-.99,0-2.15.82-2.15,2.19,0,1.24.93,1.92,2.83,3.12,2.59,1.58,3.1,2.93,3.1,4.22,0,1.1-.63,2.36-1.86,3.1-.72.44-1.94.76-2.95.76-1.24,0-2.17-.21-3.04-.55-.17-.08-.55-.53-.55-.61-.17-.74-.36-1.64-.36-2.26,0-.15.23-.44.34-.44.17,0,.51.51.82,1.16.63,1.29,1.86,1.94,2.93,1.94.97,0,2.19-.76,2.19-2.11,0-.89-.44-1.73-2.38-2.99-2.15-1.41-3.31-2.57-3.31-4.45,0-1.2.61-2.21,1.29-2.76.7-.59,1.69-1.01,3.35-1.01.97,0,2.09.25,2.66.36Z"/>
    <path class="cls-1" d="m51.79,123.59c.51.13,1.03.25,1.52.32.15,0,.32.25.32.57.02.59.06,1.33.11,1.94.02.44-.13.8-.36.8-.11,0-.29-.25-.4-.57-.21-.65-.53-1.22-.89-1.5-.91-.76-1.98-1.22-3.12-1.22-3.35,0-4.93,2.66-4.93,5.86,0,1.41.25,2.64.72,3.56,1.16,2.32,3.08,3.14,4.72,3.14.27,0,1.31-.04,2.04-.48.78-.44,1.35-1.05,1.83-1.92.25-.46.4-.65.57-.65.23,0,.23.55.17.78-.11.53-.44,1.45-.63,1.83-.06.19-.44.53-.76.67-.3.11-1.75.61-3.69.61-3.12,0-5.33-1.39-6.2-2.38-.8-.93-1.77-2.4-1.77-4.74,0-2.55,1.43-4.34,2.32-5.06,1.79-1.48,3.96-1.9,5.69-1.9.97,0,1.98.15,2.74.34Z"/>
    <path class="cls-1" d="m70.1,130.09c0,2.76-1.18,4.55-2.66,5.74-1.2.93-2.99,1.52-4.62,1.52-2.21,0-4.15-.84-5.48-2.26-1.14-1.22-1.81-2.89-1.81-4.83,0-2.57,1.14-4.22,2.72-5.48.95-.74,2.72-1.52,4.49-1.52,4.66,0,7.36,3.46,7.36,6.83Zm-10.25-5.02c-.72.7-1.48,2.21-1.48,4.72,0,3.25,1.98,6.77,5.06,6.77,1.16,0,1.88-.59,2.15-.87.89-.89,1.62-2.7,1.62-4.96,0-1.67-.65-4.2-2.19-5.61-.72-.63-1.86-1.14-2.78-1.14s-1.9.59-2.38,1.08Z"/>
    <path class="cls-1" d="m71.56,123.53c.46,0,2.13.08,3.2.08.11,0,.4.21.46.27.32.38.91,1.03,1.77,2.05,1.03,1.27,5.17,5.55,6.28,6.73.11.11.19-.08.19-.13.11-.61.04-2.99.04-4.76,0-.72-.06-1.71-.13-2.26-.04-.42-.25-.91-1.31-1.18-.42-.11-.7-.23-.7-.48,0-.15.23-.25.61-.25.53,0,1.01.02,1.43.02,1.01,0,1.88-.11,2.43-.11.36,0,.51.13.51.27,0,.13-.15.32-.53.42-1.1.36-1.2.74-1.31,1.58-.06.76-.21,6.09-.21,7.89,0,.88.13,2.74.13,3.29,0,.19-.23.4-.34.4-.44,0-.95-.55-1.14-.8-.4-.53-.8-1.01-1.37-1.71-1.98-2.43-5.42-6.05-7.3-8.27-.11-.13-.23.04-.23.11-.04.57-.08,1.06-.11,2.72-.02,2.93-.06,4.53.04,5.57.08.67.32,1.03,1.33,1.35.44.13.59.27.59.4,0,.23-.29.32-.7.32-.61,0-1.1-.08-1.83-.08-.46,0-1.65.06-2,.06-.3,0-.55-.11-.55-.27,0-.21.25-.32.46-.38.97-.3,1.48-.46,1.54-2.05.11-2.36.38-6.41.38-7.93,0-.84-.06-1.1-.13-1.18-.38-.46-.53-.76-1.62-1.01-.23-.04-.55-.21-.55-.36,0-.17.25-.32.63-.32Z"/>
    <path class="cls-1" d="m98.69,123.7c.34.08.76.15.95.17.08,0,.23.19.25.48.02.61.32,1.69.32,2.53,0,.27-.13.53-.36.53-.11,0-.27-.23-.4-.55-.15-.4-.49-1.08-.8-1.48-.46-.55-1.69-1.43-3.37-1.43-3.18,0-5.06,2.85-5.06,6.14,0,1.48.27,2.74.89,3.8.91,1.62,2.57,2.74,4.45,2.74.25,0,.86-.11,1.33-.42.25-.17.44-.76.44-1.48s-.02-1.62-.08-1.88c-.13-.48-.3-.91-1.69-1.03-.32-.02-.61-.21-.61-.4,0-.15.3-.3.72-.3.78,0,1.96.08,2.53.08.51,0,1.67-.13,2.45-.13.4,0,.57.15.57.32,0,.13-.23.32-.49.4-.72.19-.7.44-.74.74-.04.25-.11,1.75-.11,2.62,0,.3.08.38.34.63.17.13.23.21.23.36,0,.11-.17.27-.32.32-.36.11-1.07.3-1.92.46-.91.19-2.59.42-3.12.42-2.28,0-4.39-.7-5.65-1.83-.97-.93-2.17-2.47-2.17-5.25,0-2.15.89-3.82,2.34-5.08,1.33-1.18,3.48-1.92,5.65-1.92,1.43,0,2.61.23,3.44.44Z"/>
    <path class="cls-1" d="m111.96,129.63c-.09.06-.53.3-.82.44-.11.04-.08.21-.04.3.4.84,2.13,3.75,3.18,4.98.57.67,1.18.93,1.81,1.05.21.04.38.21.38.3,0,.13-.19.27-.34.32-.34.13-1.14.17-1.41.17-1.92,0-2.74-.76-3.18-1.37-.59-.8-1.67-2.53-2.55-4.05-.19-.32-.51-.78-.67-.88-.15-.13-.61-.27-1.01-.27-.08,0-.21.11-.23.21-.04.42,0,3.23.06,4.2.06.91.21,1.12,1.18,1.37.36.11.51.25.51.4,0,.23-.4.32-.65.32-.74,0-1.67-.13-2.7-.13-.74,0-1.79.08-2.02.08-.53,0-.67-.15-.67-.34,0-.13.23-.25.51-.34.97-.3,1.2-.55,1.27-1.22.13-1.62.13-3.4.13-5.19,0-2.26-.04-4.05-.11-4.62-.04-.51-.23-.82-1.22-1.05-.3-.08-.53-.23-.53-.4,0-.15.25-.3.61-.3h1.54c.78,0,2.53-.11,3.67-.11.97,0,2.66.08,3.67.93.65.53,1.14,1.54,1.14,2.51,0,1.14-.55,1.96-1.48,2.7Zm-2.05-4.68c-.49-.51-1.14-.74-1.71-.74-.08,0-.63.06-.8.15-.1.06-.23.34-.25.44-.06.72-.15,4.41-.06,4.96.02.13.17.25.27.25,1.08,0,2.04-.32,2.28-.46.57-.42,1.18-1.18,1.18-2.36,0-.55-.19-1.5-.91-2.24Z"/>
    <path class="cls-1" d="m125.6,123.62c.7,0,1.56-.08,1.86-.13.08-.02.23.13.25.27.02.38.02,1.83.02,2.26,0,.3-.15.59-.34.59s-.36-.32-.4-.53c-.28-1.18-.87-1.5-1.35-1.58-.4-.06-1.31-.15-2.93-.13-.08,0-.25.08-.28.59-.04.53-.11,3.46-.08,4.62,0,.06.08.21.21.21h1.69c1.5,0,1.45-.09,1.86-1.01.13-.32.27-.55.46-.55.17,0,.23.36.21.59-.04.59-.08.97-.08,1.46,0,.57.04.91.08,1.43.02.38-.11.63-.28.63s-.34-.25-.4-.46c-.27-.93-.55-1.08-1.37-1.14-.67-.06-1.45-.06-2.11-.06-.08,0-.27.21-.27.25-.08.59-.06,2.23-.04,2.93.02.51,0,1.29.08,1.73.06.19.25.46.46.51.34.06.99.13,1.71.13.63,0,1.41,0,1.94-.19.63-.23,1.2-.74,1.67-1.56.3-.55.48-.74.65-.74.21,0,.19.44.17.61,0,.17-.61,2.11-.8,2.45-.06.15-.4.27-.51.27-.23,0-5.44-.11-7.02-.11-1.41,0-1.64.11-2.4.11-.4,0-.72-.06-.72-.27,0-.19.27-.34.63-.42,1.08-.25,1.35-.46,1.43-1.6.06-.89.17-2.49.17-5.1s.02-3.46-.02-4.07c-.04-.76-.21-1.18-1.12-1.35-.44-.08-.67-.17-.67-.38,0-.19.36-.32.65-.32.99,0,2.72.06,3.82.06h3.16Z"/>
    <path class="cls-1" d="m138.55,123.62c.08.02.25.32.27.42,0,.27.21,1.9.21,1.98,0,.32-.06.53-.19.53-.17,0-.51-.19-.61-.51-.21-.7-.65-1.29-.91-1.5-.51-.42-1.03-.59-1.69-.59-.99,0-2.15.82-2.15,2.19,0,1.24.93,1.92,2.83,3.12,2.59,1.58,3.1,2.93,3.1,4.22,0,1.1-.63,2.36-1.86,3.1-.72.44-1.94.76-2.95.76-1.24,0-2.17-.21-3.04-.55-.17-.08-.55-.53-.55-.61-.17-.74-.36-1.64-.36-2.26,0-.15.23-.44.34-.44.17,0,.51.51.82,1.16.63,1.29,1.86,1.94,2.93,1.94.97,0,2.19-.76,2.19-2.11,0-.89-.44-1.73-2.38-2.99-2.15-1.41-3.31-2.57-3.31-4.45,0-1.2.61-2.21,1.29-2.76.7-.59,1.69-1.01,3.35-1.01.97,0,2.09.25,2.66.36Z"/>
    <path class="cls-1" d="m149.14,123.62c.08.02.25.32.27.42,0,.27.21,1.9.21,1.98,0,.32-.06.53-.19.53-.17,0-.51-.19-.61-.51-.21-.7-.65-1.29-.91-1.5-.51-.42-1.03-.59-1.69-.59-.99,0-2.15.82-2.15,2.19,0,1.24.93,1.92,2.83,3.12,2.59,1.58,3.1,2.93,3.1,4.22,0,1.1-.63,2.36-1.86,3.1-.72.44-1.94.76-2.95.76-1.24,0-2.17-.21-3.04-.55-.17-.08-.55-.53-.55-.61-.17-.74-.36-1.64-.36-2.26,0-.15.23-.44.34-.44.17,0,.51.51.82,1.16.63,1.29,1.86,1.94,2.93,1.94.97,0,2.19-.76,2.19-2.11,0-.89-.44-1.73-2.38-2.99-2.15-1.41-3.31-2.57-3.31-4.45,0-1.2.61-2.21,1.29-2.76.7-.59,1.69-1.01,3.35-1.01.97,0,2.09.25,2.66.36Z"/>
  </g>
</svg>