<?xml version="1.0" standalone="no"?>
<!DOCTYPE svg PUBLIC "-//W3C//DTD SVG 1.1//EN" "http://www.w3.org/Graphics/SVG/1.1/DTD/svg11.dtd" >
<svg xmlns="http://www.w3.org/2000/svg" xmlns:xlink="http://www.w3.org/1999/xlink" version="1.1">
<metadata>
Created by FontForge 20170731 at Wed Oct 26 15:51:59 2022
 By Aleksey,,,
Copyright (c) 2008 by Radim Pesko. All rights reserved.
</metadata>
<defs>
<font id="FugueHead" horiz-adv-x="696" >
  <font-face 
    font-family="FugueHead"
    font-weight="600"
    font-stretch="normal"
    units-per-em="2048"
    panose-1="2 0 5 3 0 0 0 2 0 3"
    ascent="1556"
    descent="-492"
    x-height="1495"
    cap-height="1495"
    bbox="-20 -489 2867 2355"
    underline-thickness="102"
    underline-position="-307"
    unicode-range="U+0020-FB02"
  />
<missing-glyph horiz-adv-x="471" 
 />
    <glyph glyph-name="ff" unicode="ff" horiz-adv-x="1871" 
d="M164 0v1495h1667v-205h-645v-430h420v-205h-420v-655h-215v655h-592v-655h-215zM379 1290v-430h592v430h-592z" />
    <glyph glyph-name="fi" unicode="fi" horiz-adv-x="1617" 
d="M164 0v1495h1331v-205h-188v-1085h188v-205h-594v205h189v1085h-711v-430h543v-205h-543v-655h-215z" />
    <glyph glyph-name="fl" unicode="fl" horiz-adv-x="1802" 
d="M164 0v1495h1024v-1290h532v-205h-749v1290h-592v-430h461v-205h-461v-655h-215z" />
    <glyph glyph-name=".notdef" horiz-adv-x="471" 
 />
    <glyph glyph-name=".null" horiz-adv-x="0" 
 />
    <glyph glyph-name="nonmarkingreturn" horiz-adv-x="682" 
 />
    <glyph glyph-name="space" unicode=" " horiz-adv-x="921" 
 />
    <glyph glyph-name="exclam" unicode="!" horiz-adv-x="491" 
d="M225 348l-82 615l-20 532h246l-21 -532l-82 -615h-41zM123 0v246h246v-246h-246z" />
    <glyph glyph-name="quotedbl" unicode="&#x22;" 
d="M287 1495v-532h-144v532h144zM553 1495v-532h-145v532h145z" />
    <glyph glyph-name="numbersign" unicode="#" horiz-adv-x="1474" 
d="M291 389h-230v143h275l133 431h-244v143h289l121 389h143v-41l-108 -348h356l121 389h143v-41l-108 -348h231v-143h-276l-133 -431h245v-143h-288l-121 -389h-144v41l107 348h-354l-121 -389h-144v41zM625 963l-133 -431h356l133 431h-356z" />
    <glyph glyph-name="dollar" unicode="$" horiz-adv-x="1085" 
d="M635 -82h-184v90q-107 19 -187.5 80.5t-121 145.5t-40.5 176h205q0 -63 39.5 -115.5t104.5 -77.5v451l-72 39q-64 35 -109 68.5t-86 79.5t-61.5 106.5t-20.5 134.5q0 91 40.5 172t121 140.5t187.5 78.5v90h184v-90q159 -30 253.5 -145.5t94.5 -256.5h-205
q0 61 -39.5 113.5t-103.5 77.5v-457q10 -4 34.5 -15.5t37.5 -15.5q126 -55 201 -155.5t75 -233.5q0 -141 -94.5 -252.5t-253.5 -138.5v-90zM768 399q0 129 -133 185v-371q65 22 99 72.5t34 113.5zM317 1096q0 -109 134 -185v369q-65 -22 -99.5 -72.5t-34.5 -111.5z" />
    <glyph glyph-name="percent" unicode="%" horiz-adv-x="1392" 
d="M1352 1495l-1147 -1495h-164l1147 1495h164zM61 1198q0 134 87.5 226t230.5 92t230 -92t87 -226t-87 -225.5t-230 -91.5t-230.5 91.5t-87.5 225.5zM205 1198q0 -82 51 -132t123 -50t123 50t51 132t-51 132t-123 50t-123 -50t-51 -132zM696 297q0 134 87.5 225.5
t230.5 91.5t230 -91.5t87 -225.5t-87 -225.5t-230 -91.5t-230.5 91.5t-87.5 225.5zM840 297q0 -82 51 -132t123 -50t123 50t51 132t-51 132t-123 50t-123 -50t-51 -132z" />
    <glyph glyph-name="ampersand" unicode="&#x26;" horiz-adv-x="1417" 
d="M676 0h-62q-244 0 -398.5 136t-154.5 345q0 134 67 239t185 163q-129 95 -129 254q0 163 109.5 260.5t269.5 97.5q165 0 276.5 -107t102.5 -272h-205q7 87 -46 135.5t-128 48.5q-72 0 -123 -44.5t-51 -118.5q0 -68 51 -121t144 -53v-185q-150 0 -234 -81.5t-84 -215.5
q0 -130 96.5 -208t251.5 -78h62q153 0 240.5 77.5t87.5 208.5q0 112 -74 183q-58 -9 -105 -35q-34 -20 -43 -50.5t17 -68.5l-162 -94q-52 73 -56 143.5t32.5 126t107.5 96.5q56 32 129 45.5t140 24t110 35.5q34 20 43 50.5t-17 68.5l162 94q51 -73 55 -143.5t-32.5 -126.5
t-106.5 -97q-39 -22 -71 -33q75 -102 75 -219q0 -96 -37.5 -183t-105 -153.5t-168.5 -105.5t-221 -39z" />
    <glyph glyph-name="quotesingle" unicode="'" 
d="M143 1495h410v-532h-410v532z" />
    <glyph glyph-name="parenleft" unicode="(" 
d="M102 758q0 142 32.5 270.5t84 225t123.5 181t143 141.5t150 103l61 -102q-88 -48 -166 -123.5t-143 -177t-103 -236t-38 -282.5t38 -282.5t103 -236t143 -177t166 -123.5l-61 -103q-79 46 -150 103t-143 141.5t-123.5 181t-84 225.5t-32.5 271z" />
    <glyph glyph-name="parenright" unicode=")" 
d="M594 758q0 -142 -32.5 -271t-84 -225.5t-123.5 -181t-143 -141.5t-150 -103l-61 103q88 48 166 123.5t143 177t103.5 236t38.5 282.5t-38.5 282.5t-103.5 236t-143 177t-166 123.5l61 102q79 -46 150 -103t143 -141.5t123.5 -181t84 -225t32.5 -270.5z" />
    <glyph glyph-name="asterisk" unicode="*" horiz-adv-x="921" 
d="M532 1270l160 160l103 -103l-160 -160h225v-143h-328v-328h-143v226l-160 -160l-102 102l160 160h-226v143h328v328h143v-225z" />
    <glyph glyph-name="plus" unicode="+" horiz-adv-x="1146" 
d="M655 205h-163v450h-451v164h451v451h163v-451h451v-164h-451v-450z" />
    <glyph glyph-name="comma" unicode="," horiz-adv-x="499" 
d="M438 225l-194 -430h-215v41l215 481z" />
    <glyph glyph-name="hyphen" unicode="-" horiz-adv-x="655" 
d="M61 696h533v-225h-533v225z" />
    <glyph glyph-name="period" unicode="." horiz-adv-x="450" 
d="M102 0v266h246v-266h-246z" />
    <glyph glyph-name="slash" unicode="/" horiz-adv-x="1044" 
d="M1044 1556l-901 -1556h-143l901 1556h143z" />
    <glyph glyph-name="zero" unicode="0" horiz-adv-x="1126" 
d="M803 748q0 45 7.5 166.5t2.5 191.5q-15 215 -250 215t-250 -215q-5 -69 3 -190.5t8 -167.5t-8 -168t-3 -191q15 -215 250 -215t250 215q5 70 -2.5 192t-7.5 167zM123 748q0 44 -8 172t-2 186q45 410 450 410q406 0 451 -410q6 -58 -2 -186t-8 -172t8 -172.5t2 -186.5
q-45 -409 -451 -409q-405 0 -450 409q-6 58 2 186.5t8 172.5z" />
    <glyph glyph-name="one" unicode="1" horiz-adv-x="1105" 
d="M621 205h194v235h189v-440h-912v205h328v1052l-115 -151h-213v41l287 348h242v-1290z" />
    <glyph glyph-name="two" unicode="2" horiz-adv-x="1126" 
d="M102 1004v61q0 129 66.5 233.5t174 161t230.5 56.5q93 0 177.5 -30.5t150 -86.5t104.5 -143t39 -191q0 -65 -18.5 -125.5t-53 -112.5t-63 -86t-69.5 -75q-69 -69 -144.5 -140.5t-136 -126t-110 -98.5t-79.5 -70t-32 -28h686v-203h-942v205q2 2 45 41.5t109.5 101.5
t143.5 134.5t163.5 155.5t152.5 150q68 68 106 131t38 146q0 117 -80 184.5t-187 67.5t-187.5 -67.5t-80.5 -184.5v-61h-203z" />
    <glyph glyph-name="three" unicode="3" horiz-adv-x="1126" 
d="M1024 1495v-203l-438 -352q201 -10 329.5 -144.5t128.5 -334.5q0 -89 -35.5 -175t-98 -154t-156 -110t-201.5 -42q-213 0 -352.5 133t-139.5 327h205q0 -115 82 -190.5t205 -75.5q121 0 204 85t83 202q0 135 -87 216t-221 81h-206v184l413 350h-657v203h942z" />
    <glyph glyph-name="four" unicode="4" horiz-adv-x="1126" 
d="M51 389v195q117 223 217 451t142 344l41 116h215q-18 -53 -52 -143.5t-138.5 -331t-209.5 -436.5h451v542h205v-542h163v-195h-163v-389h-205v389h-666z" />
    <glyph glyph-name="five" unicode="5" horiz-adv-x="1187" 
d="M584 1024q234 -5 383 -146.5t149 -375.5q0 -113 -43 -211.5t-115.5 -166t-169.5 -106t-204 -38.5q-147 0 -268 67t-189.5 185t-63.5 260h205q0 -132 89.5 -221t226.5 -89q142 0 234.5 88t92.5 232q0 151 -89 236.5t-238 90.5q-115 4 -451 -10v195l174 481h758v-203h-629
l-110 -284q145 19 258 16z" />
    <glyph glyph-name="six" unicode="6" horiz-adv-x="1128" 
d="M606 176q122 0 199.5 80.5t77.5 204.5q0 125 -79 206t-206 81q-122 0 -197 -80.5t-75 -206.5q0 -118 79.5 -201.5t200.5 -83.5zM84 748q1 120 20.5 229.5t62 208.5t104 171.5t153 115.5t203.5 43q187 0 309 -120.5t121 -310.5h-205q0 112 -66 174t-170 62
q-78 0 -139.5 -39t-98 -99t-60.5 -137.5t-32 -148t-7 -137.5q60 79 145 130.5t192 51.5q108 0 198 -39t149 -105.5t91.5 -153.5t32.5 -183q0 -93 -33 -179t-92.5 -153.5t-150.5 -108t-199 -40.5q-132 0 -239.5 60.5t-173.5 164.5q-118 186 -115 543z" />
    <glyph glyph-name="seven" unicode="7" horiz-adv-x="1044" 
d="M786 1294h-557v-209h-188v410h963v-203q-11 -22 -31.5 -62.5t-81.5 -173.5t-120.5 -274.5t-140 -355.5t-149.5 -426h-205v41q202 586 510 1253z" />
    <glyph glyph-name="eight" unicode="8" horiz-adv-x="1146" 
d="M113 1106q0 110 63.5 205t169.5 150t227 55t227.5 -55t170 -150t63.5 -205q0 -102 -49.5 -186.5t-136.5 -139.5q103 -56 160 -149.5t57 -220.5q0 -180 -140 -305t-352 -125t-351.5 125t-139.5 305q0 127 56.5 220.5t158.5 149.5q-86 56 -135 140t-49 186zM287 420
q0 -107 81.5 -176.5t204.5 -69.5t205 69.5t82 176.5q0 114 -81 185t-206 71q-119 0 -202.5 -71.5t-83.5 -184.5zM317 1096q0 -91 69.5 -160.5t186.5 -69.5t186.5 69.5t69.5 160.5q0 98 -73.5 161.5t-182.5 63.5t-182.5 -63.5t-73.5 -161.5z" />
    <glyph glyph-name="nine" unicode="9" horiz-adv-x="1128" 
d="M522 1319q-122 0 -199 -80.5t-77 -204.5q0 -123 81.5 -203.5t204.5 -80.5q122 0 196.5 79t74.5 205q0 118 -80 201.5t-201 83.5zM1044 748q-2 -152 -32.5 -285t-92.5 -243.5t-167.5 -175t-243.5 -64.5q-187 0 -312 120.5t-124 309.5h204q0 -111 68 -173.5t172 -62.5
q78 0 139 39t97.5 99t59.5 137.5t31 148t7 137.5q-58 -85 -137.5 -133.5t-200.5 -48.5q-108 0 -198 39t-149 105.5t-91.5 153.5t-32.5 183q0 93 34 179.5t94.5 154t152.5 108t200 40.5q144 0 261 -79t178 -210q86 -188 83 -479z" />
    <glyph glyph-name="colon" unicode=":" horiz-adv-x="491" 
d="M123 717v246h246v-246h-246zM123 82v246h246v-246h-246z" />
    <glyph glyph-name="semicolon" unicode=";" horiz-adv-x="561" 
d="M244 -205l213 471l-193 92l-235 -522v-41h215zM193 717v246h245v-246h-245z" />
    <glyph glyph-name="less" unicode="&#x3c;" horiz-adv-x="1105" 
d="M82 778l942 369v-162l-754 -289l754 -286v-164l-942 368v164z" />
    <glyph glyph-name="equal" unicode="=" horiz-adv-x="1146" 
d="M1106 819h-1065v164h1065v-164zM1106 492h-1065v163h1065v-163z" />
    <glyph glyph-name="greater" unicode="&#x3e;" horiz-adv-x="1105" 
d="M82 1147l942 -369v-164l-942 -368v164l752 286l-752 289v162z" />
    <glyph glyph-name="question" unicode="?" horiz-adv-x="985" 
d="M350 0v246h246v-246h-246zM268 1024l-205 41q0 111 60.5 210.5t163.5 159.5t219 60q110 0 206.5 -55t154 -150t57.5 -205q0 -65 -16.5 -122t-44 -99t-62 -79.5t-70 -68t-69.5 -61t-60 -62t-40.5 -67t-12 -80.5t25.5 -98h-204q-23 78 -20.5 143t23 110.5t53.5 87
t71.5 72.5t78 66.5t71 69t51.5 79.5t20 99q0 99 -62.5 160t-162.5 61q-99 0 -162.5 -65.5t-63.5 -165.5v-41z" />
    <glyph glyph-name="at" unicode="@" horiz-adv-x="1511" 
d="M563 922h-172q14 114 113.5 194t251.5 80q70 0 132.5 -20t112.5 -59t79.5 -103.5t29.5 -147.5v-354q2 -30 18.5 -49t47.5 -19q32 0 47.5 19t15.5 49q11 219 0 438q-10 232 -137.5 348.5t-345.5 116.5q-219 0 -346 -116t-140 -349q-8 -216 0 -411q26 -438 486 -461
q119 -3 227 0q110 6 174 55.5t64 130.5l127 -71q-14 -123 -110.5 -185.5t-254.5 -70.5q-108 -6 -227 0q-287 12 -454 166t-177 436q-4 212 0 411q12 282 185.5 442t445.5 160q282 0 450 -158.5t178 -443.5q8 -192 0 -430q-2 -103 -55 -161t-153 -58q-74 0 -126.5 41.5
t-66.5 103.5l-8 11l-10 -11q-42 -61 -126.5 -103t-166.5 -42q-131 0 -210 73.5t-79 200.5q0 115 75 179.5t214 76.5l284 27v27q0 74 -57.5 119t-142.5 45q-84 0 -134.5 -37t-58.5 -90zM965 666v55q-4 -4 -265 -27q-81 -7 -118 -36t-37 -83q0 -53 40 -85.5t97 -32.5
q107 0 188.5 58t94.5 151z" />
    <glyph glyph-name="A" unicode="A" horiz-adv-x="1331" 
d="M256 0h-215l512 1495h225l512 -1495h-215l-168 492h-485zM840 696l-174 510l-174 -510h348z" />
    <glyph glyph-name="B" unicode="B" horiz-adv-x="1331" 
d="M164 0v1495h594q202 0 336.5 -114t134.5 -296q0 -101 -48.5 -184t-133.5 -135q95 -49 148.5 -137.5t53.5 -208.5q0 -189 -134 -304.5t-337 -115.5h-614zM379 205h409q98 0 172 61.5t74 163.5q0 114 -71.5 169.5t-174.5 55.5h-409v-450zM379 860h389q65 0 118.5 20.5
t90.5 71t37 123.5t-37 123.5t-90.5 71t-118.5 20.5h-389v-430z" />
    <glyph glyph-name="C" unicode="C" horiz-adv-x="1495" 
d="M82 745q0 218 99.5 399t276 286.5t392.5 105.5q171 0 329.5 -75.5t264.5 -211.5l-144 -143q-162 227 -440 227q-128 0 -234 -45t-177.5 -123.5t-110.5 -186t-39 -230.5q0 -166 67 -298t198 -210t306 -78q279 0 441 227l143 -143q-106 -136 -264.5 -211.5t-329.5 -75.5
q-221 0 -400 105t-278.5 284.5t-99.5 396.5z" />
    <glyph glyph-name="D" unicode="D" horiz-adv-x="1351" 
d="M1229 1044v-593q0 -193 -131 -322t-330 -129h-604v1495h604q199 0 330 -129t131 -322zM1014 440v615q0 110 -69 172.5t-167 62.5h-399v-1085h399q98 0 167 62.5t69 172.5z" />
    <glyph glyph-name="E" unicode="E" horiz-adv-x="1167" 
d="M164 0v1495h942v-205h-727v-430h727v-205h-727v-450h727v-205h-942z" />
    <glyph glyph-name="F" unicode="F" horiz-adv-x="1249" 
d="M82 0l307 1495h881v-205h-709l-88 -430h653v-205h-694l-135 -655h-215z" />
    <glyph glyph-name="G" unicode="G" horiz-adv-x="1648" 
d="M1456 1251l-147 -147q-75 108 -193 167.5t-266 59.5q-250 0 -400.5 -163.5t-150.5 -422.5q0 -256 150.5 -418.5t400.5 -162.5q225 0 378.5 132t168.5 339h-905v205h921l195 -195q-7 -136 -71 -262.5t-165.5 -219.5t-238 -148.5t-283.5 -55.5q-216 0 -392.5 105
t-276 285.5t-99.5 398.5t99.5 398t278.5 285t400 105q180 0 333 -75.5t263 -209.5z" />
    <glyph glyph-name="H" unicode="H" horiz-adv-x="1331" 
d="M952 860v635h215v-1495h-215v655h-573v-655h-215v1495h215v-635h573z" />
    <glyph glyph-name="I" unicode="I" horiz-adv-x="593" 
d="M154 0v205h34v1085h-34v205h286v-205h-34v-1085h34v-205h-286z" />
    <glyph glyph-name="J" unicode="J" horiz-adv-x="1105" 
d="M276 430q0 -119 62 -192.5t174 -73.5t174 78t62 198v1055h215v-1044q0 -218 -123 -355t-328 -137q-207 0 -329 130.5t-122 340.5h215z" />
    <glyph glyph-name="K" unicode="K" horiz-adv-x="1208" 
d="M952 1495h256l-665 -735l665 -760h-274l-555 635v-635h-215v1495h215v-614z" />
    <glyph glyph-name="L" unicode="L" horiz-adv-x="1085" 
d="M164 0v1495h215v-1290h686v-205h-901z" />
    <glyph glyph-name="M" unicode="M" horiz-adv-x="1843" 
d="M922 264l450 1231h307v-1495h-213v1167l-422 -1167h-245l-422 1167v-1167h-213v1495h307z" />
    <glyph glyph-name="N" unicode="N" horiz-adv-x="1413" 
d="M1036 389v1106h213v-1495h-235l-637 1126v-1126h-213v1495h235z" />
    <glyph glyph-name="O" unicode="O" horiz-adv-x="1740" 
d="M82 748q0 214 105.5 395.5t287 287t395.5 105.5q161 0 307 -62.5t251.5 -167.5t168 -251t62.5 -307t-62.5 -307t-168 -251.5t-251.5 -168t-307 -62.5t-307 62.5t-251 168t-167.5 251.5t-62.5 307zM297 745q0 -253 160.5 -417t412.5 -164t412 164t160 417q0 256 -160 421
t-412 165q-125 0 -232 -44t-181.5 -121.5t-117 -186t-42.5 -234.5z" />
    <glyph glyph-name="P" unicode="P" horiz-adv-x="1290" 
d="M164 0v1495h624q201 0 331 -119.5t130 -310.5t-130 -310.5t-331 -119.5h-409v-635h-215zM379 840h420q99 0 167 58t68 167t-68 167t-167 58h-420v-450z" />
    <glyph glyph-name="Q" unicode="Q" horiz-adv-x="1761" 
d="M82 748q0 162 61.5 308t167 251.5t251.5 167t308 61.5t308.5 -61.5t251.5 -167t167 -251.5t62 -308q0 -265 -156 -474l238 -233v-41h-242l-135 129q-217 -170 -494 -170q-162 0 -308 62t-251.5 167t-167 251.5t-61.5 308.5zM1217 270l-408 396l143 153l402 -397
q90 145 90 326q0 256 -160.5 419.5t-413.5 163.5t-414 -164t-161 -419q0 -253 161.5 -418.5t413.5 -165.5q200 0 347 106z" />
    <glyph glyph-name="R" unicode="R" horiz-adv-x="1331" 
d="M809 655l420 -614v-41h-236l-430 655h-184v-655h-215v1495h614q125 0 228.5 -48.5t168 -145.5t64.5 -226q0 -123 -63.5 -219t-160 -146t-206.5 -55zM379 860h409q99 0 167.5 56.5t68.5 158.5t-68.5 158.5t-167.5 56.5h-409v-430z" />
    <glyph glyph-name="S" unicode="S" horiz-adv-x="1187" 
d="M1055 1106h-226q0 93 -74.5 159t-181.5 66q-112 0 -178.5 -60.5t-66.5 -154.5q0 -173 235 -235q66 -17 164 -39q80 -19 144.5 -52.5t116 -85t80 -126.5t28.5 -168q0 -89 -34.5 -169t-97 -141t-158.5 -97t-212 -36q-136 0 -256.5 62.5t-192 165t-73.5 215.5l215 71
q-2 -97 43.5 -168.5t114.5 -105t149 -33.5q130 0 208.5 64.5t78.5 171.5q0 179 -236 225q-77 16 -164 43q-77 23 -140.5 59.5t-116 90t-82 129.5t-29.5 169q0 175 132 288.5t328 113.5q202 0 342 -120t140 -302z" />
    <glyph glyph-name="T" unicode="T" horiz-adv-x="962" 
d="M20 1495h922v-205h-352v-1290h-217v1290h-353v205z" />
    <glyph glyph-name="U" unicode="U" horiz-adv-x="1433" 
d="M1055 430v1065h215v-1065q0 -191 -130 -310.5t-331 -119.5h-184q-201 0 -331 119.5t-130 310.5v1065h215v-1065q0 -109 68 -167t167 -58h205q100 0 168 58t68 167z" />
    <glyph glyph-name="V" unicode="V" horiz-adv-x="1290" 
d="M41 1495h217l387 -1196l387 1196h217l-491 -1495h-226z" />
    <glyph glyph-name="W" unicode="W" horiz-adv-x="1781" 
d="M778 1495h228l284 -1075l234 1075h217l-328 -1495h-215l-307 1106l-307 -1106h-215l-328 1495h217l231 -1075z" />
    <glyph glyph-name="X" unicode="X" horiz-adv-x="1024" 
d="M61 1495h232l217 -473l219 473h234l-336 -727l356 -768h-233l-238 516l-238 -516h-233l354 770z" />
    <glyph glyph-name="Y" unicode="Y" horiz-adv-x="1085" 
d="M20 1495h240l283 -479l280 479h242l-414 -696v-799h-217v799z" />
    <glyph glyph-name="Z" unicode="Z" horiz-adv-x="1146" 
d="M102 1290v205h983v-205l-784 -1085h764v-205h-1004v205l785 1085h-744z" />
    <glyph glyph-name="bracketleft" unicode="[" horiz-adv-x="675" 
d="M246 -102v1761l20 20h410v-123h-287v-1556h287v-123h-410z" />
    <glyph glyph-name="backslash" unicode="\" horiz-adv-x="1044" 
d="M901 0l-901 1556h143l901 -1556h-143z" />
    <glyph glyph-name="bracketright" unicode="]" horiz-adv-x="675" 
d="M430 1659v-1761l-20 -21h-410v123h287v1556h-287v123h410z" />
    <glyph glyph-name="asciicircum" unicode="^" horiz-adv-x="1105" 
d="M635 1495l369 -983h-164l-287 788l-289 -788h-162l369 983h164z" />
    <glyph glyph-name="underscore" unicode="_" horiz-adv-x="880" 
d="M0 0h881v-143h-881v143z" />
    <glyph glyph-name="grave" unicode="`" horiz-adv-x="675" 
d="M84 1802l139 137l289 -331h-236z" />
    <glyph glyph-name="a" unicode="a" horiz-adv-x="1167" 
d="M41 0l389 1495h307l389 -1495h-213l-79 307h-502l-78 -307h-213zM584 1303l-199 -793h395z" />
    <glyph glyph-name="b" unicode="b" horiz-adv-x="1372" 
d="M164 0v1495h614q202 0 336.5 -114t134.5 -296q0 -101 -48.5 -184t-133.5 -135q95 -49 149 -137.5t54 -208.5q0 -189 -134 -304.5t-337 -115.5h-635zM379 205h430q98 0 172 61.5t74 163.5q0 114 -71.5 169.5t-174.5 55.5h-430v-450zM379 860h409q65 0 118.5 20.5t90.5 71
t37 123.5t-37 123.5t-90.5 71t-118.5 20.5h-409v-430z" />
    <glyph glyph-name="c" unicode="c" horiz-adv-x="1495" 
d="M82 745q0 218 99.5 399t276 286.5t392.5 105.5q171 0 329.5 -75.5t264.5 -211.5l-144 -143q-162 227 -440 227q-128 0 -234 -45t-177.5 -123.5t-110.5 -186t-39 -230.5q0 -166 67 -298t198 -210t306 -78q279 0 441 227l143 -143q-106 -136 -264.5 -211.5t-329.5 -75.5
q-221 0 -400 105t-278.5 284.5t-99.5 396.5z" />
    <glyph glyph-name="d" unicode="d" horiz-adv-x="1351" 
d="M502 0h-400v205h195v1085h-195v205h400q218 0 393 -94t275 -265.5t100 -387.5t-100 -387.5t-275 -266t-393 -94.5zM1055 748q0 253 -144.5 397.5t-398.5 144.5v-1085q254 0 398.5 144.5t144.5 398.5z" />
    <glyph glyph-name="e" unicode="e" horiz-adv-x="1064" 
d="M164 0v1495h840v-205h-625v-430h625v-205h-625v-450h625v-205h-840z" />
    <glyph glyph-name="f" unicode="f" horiz-adv-x="1044" 
d="M164 0v1495h829v-205h-614v-430h614v-205h-614v-655h-215z" />
    <glyph glyph-name="g" unicode="g" horiz-adv-x="1648" 
d="M1456 1251l-147 -147q-75 108 -193 167.5t-266 59.5q-250 0 -400.5 -163.5t-150.5 -422.5q0 -256 150.5 -418.5t400.5 -162.5q225 0 378.5 132t168.5 339h-475v205h491l195 -195q-7 -136 -71 -262.5t-165.5 -219.5t-238 -148.5t-283.5 -55.5q-216 0 -392.5 105
t-276 285.5t-99.5 398.5t99.5 398t278.5 285t400 105q180 0 333 -75.5t263 -209.5z" />
    <glyph glyph-name="h" unicode="h" horiz-adv-x="1228" 
d="M850 860v635h215v-1495h-215v655h-471v-655h-215v1495h215v-635h471z" />
    <glyph glyph-name="i" unicode="i" horiz-adv-x="839" 
d="M61 0v205h250v1085h-250v205h717v-205h-250v-1085h250v-205h-717z" />
    <glyph glyph-name="j" unicode="j" horiz-adv-x="573" 
d="M59 -205l-39 21v184h82q41 0 67 22t26 60v1413h215v-1393q0 -138 -85 -222.5t-223 -84.5h-43z" />
    <glyph glyph-name="k" unicode="k" horiz-adv-x="1044" 
d="M778 1495h246l-481 -733l481 -762h-256l-389 635v-635h-215v1495h215v-614z" />
    <glyph glyph-name="l" unicode="l" horiz-adv-x="1024" 
d="M164 0v1495h215v-1290h625v-205h-840z" />
    <glyph glyph-name="m" unicode="m" horiz-adv-x="1720" 
d="M860 737l410 758h286v-1495h-208v1219l-377 -707h-221l-377 707v-1219h-209v1495h287z" />
    <glyph glyph-name="n" unicode="n" horiz-adv-x="1187" 
d="M831 336v1159h193v-1495h-287l-381 1159v-1159h-192v1495h287z" />
    <glyph glyph-name="o" unicode="o" horiz-adv-x="1740" 
d="M82 748q0 214 105.5 395.5t287 287t395.5 105.5q161 0 307 -62.5t251.5 -167.5t168 -251t62.5 -307t-62.5 -307t-168 -251.5t-251.5 -168t-307 -62.5t-307 62.5t-251 168t-167.5 251.5t-62.5 307zM297 745q0 -253 160.5 -417t412.5 -164t412 164t160 417q0 256 -160 421
t-412 165q-125 0 -232 -44t-181.5 -121.5t-117 -186t-42.5 -234.5z" />
    <glyph glyph-name="p" unicode="p" horiz-adv-x="1290" 
d="M164 0v1495h624q201 0 331 -119.5t130 -310.5t-130 -310.5t-331 -119.5h-409v-635h-215zM379 840h420q99 0 167 58t68 167t-68 167t-167 58h-420v-450z" />
    <glyph glyph-name="q" unicode="q" horiz-adv-x="1761" 
d="M82 748q0 162 61.5 308t167 251.5t251.5 167t308 61.5t308.5 -61.5t251.5 -167t167 -251.5t62 -308q0 -265 -156 -474l238 -233v-41h-242l-135 129q-217 -170 -494 -170q-162 0 -308 62t-251.5 167t-167 251.5t-61.5 308.5zM1217 270l-234 224l143 153l228 -225
q90 145 90 326q0 256 -160.5 419.5t-413.5 163.5t-414 -164t-161 -419q0 -253 161.5 -418.5t413.5 -165.5q200 0 347 106z" />
    <glyph glyph-name="r" unicode="r" horiz-adv-x="1320" 
d="M778 655h-41l492 -409v-246h-41l-748 655h-61v-655h-215v1495h624q125 0 228.5 -48.5t168 -145.5t64.5 -226q0 -124 -67 -221.5t-173.5 -148t-230.5 -50.5zM379 860h420q96 0 165.5 59.5t69.5 155.5t-69.5 155.5t-165.5 59.5h-420v-430z" />
    <glyph glyph-name="s" unicode="s" horiz-adv-x="1259" 
d="M397 1126q0 -92 57.5 -149t180.5 -88q66 -17 164 -39q165 -36 266.5 -144.5t101.5 -283.5q0 -85 -34.5 -164t-96.5 -141t-158.5 -99.5t-211.5 -37.5h-123q-102 0 -197 38.5t-163 100.5t-109.5 144t-42.5 167l211 82q-1 -73 25.5 -136t70.5 -103.5t97.5 -63.5t107.5 -23
h123q130 0 208 64.5t78 171.5q0 58 -21 100.5t-59.5 66.5t-73 36.5t-81.5 21.5q-57 12 -164 41q-369 110 -369 438q0 175 133 290.5t328 115.5q132 0 242 -54.5t174.5 -152.5t64.5 -219h-225q0 93 -74.5 159t-181.5 66q-109 0 -178.5 -58t-69.5 -147z" />
    <glyph glyph-name="t" unicode="t" horiz-adv-x="1126" 
d="M389 0v205h66v1085h-435v205h1086v-205h-434v-1085h65v-205h-348z" />
    <glyph glyph-name="u" unicode="u" horiz-adv-x="1310" 
d="M655 -41q-150 0 -268 68t-181 184.5t-63 259.5v1024h215v-1034q0 -131 75 -214t222 -83t222 83t75 214v1034h215v-1024q0 -143 -63 -259.5t-181 -184.5t-268 -68z" />
    <glyph glyph-name="v" unicode="v" horiz-adv-x="1167" 
d="M430 0l-389 1495h213l330 -1311l329 1311h213l-389 -1495h-307z" />
    <glyph glyph-name="w" unicode="w" horiz-adv-x="1658" 
d="M41 1495h217l285 -1165l153 796h267l153 -796l285 1165h217l-389 -1495h-236l-164 758l-163 -758h-236z" />
    <glyph glyph-name="x" unicode="x" horiz-adv-x="1269" 
d="M20 1495h256l359 -555l358 555h256l-485 -747l485 -748h-256l-358 555l-359 -555h-256l484 748z" />
    <glyph glyph-name="y" unicode="y" horiz-adv-x="1064" 
d="M41 1495h229l285 -686l270 686h219l-587 -1495h-221l217 557z" />
    <glyph glyph-name="z" unicode="z" horiz-adv-x="983" 
d="M123 1290v205h778v-205l-588 -1085h568v-205h-799v205l590 1085h-549z" />
    <glyph glyph-name="braceleft" unicode="{" 
d="M82 696v144q122 -15 184 43t62 182v369q0 123 71.5 194.5t194.5 71.5l102 -21v-123h-102q-123 0 -123 -122v-390q0 -224 -205 -276q205 -52 205 -276v-390q0 -122 123 -122h102v-123l-102 -21q-123 0 -194.5 71.5t-71.5 194.5v369q0 124 -62 182t-184 43z" />
    <glyph glyph-name="bar" unicode="|" horiz-adv-x="471" 
d="M307 1577v-1782h-143v1782h143z" />
    <glyph glyph-name="braceright" unicode="}" 
d="M614 840v-144q-122 15 -183.5 -43t-61.5 -182v-369q0 -123 -72 -194.5t-195 -71.5l-102 21v123h102q123 0 123 122v390q0 224 205 276q-205 52 -205 276v390q0 122 -123 122h-102v123l102 21q123 0 195 -71.5t72 -194.5v-369q0 -124 61.5 -182t183.5 -43z" />
    <glyph glyph-name="asciitilde" unicode="~" horiz-adv-x="1105" 
d="M737 553q-50 0 -109 -25.5t-127.5 -51t-142.5 -25.5q-127 0 -198.5 71.5t-57.5 204.5h185q-7 -43 17.5 -67.5t64.5 -24.5q50 0 113 25.5t132 51t134 25.5q127 0 198.5 -71.5t57.5 -204.5h-185q7 43 -17.5 67.5t-64.5 24.5z" />
    <glyph glyph-name="uni00A0" unicode="&#xa0;" horiz-adv-x="921" 
 />
    <glyph glyph-name="exclamdown" unicode="&#xa1;" horiz-adv-x="491" 
d="M143 532l82 615h41l82 -615l21 -532h-246zM123 1249v246h246v-246h-246z" />
    <glyph glyph-name="cent" unicode="&#xa2;" horiz-adv-x="1085" 
d="M496 1239v338h178v-336q125 -24 218 -107t132 -212h-195q-51 100 -155 127v-623q102 24 155 127h195q-39 -129 -132 -212.5t-218 -107.5v-315h-178v313q-172 32 -277.5 172.5t-105.5 333.5q0 187 109.5 328t273.5 174zM317 737q0 -116 43.5 -198.5t135.5 -110.5v619
q-92 -28 -135.5 -111.5t-43.5 -198.5z" />
    <glyph glyph-name="sterling" unicode="&#xa3;" horiz-adv-x="1085" 
d="M469 565l-231 -207l-115 134l227 202l-2 2q-72 65 -116 116.5t-76.5 126t-32.5 157.5q0 74 30.5 145t84.5 127.5t136.5 91.5t178.5 35q100 0 183 -35t136 -93t82 -131t29 -151h-205q0 85 -64 147t-161 62q-102 0 -158.5 -58t-56.5 -140q0 -62 35 -127t98 -119
q17 -17 27 -23l219 197l114 -133l-206 -184q92 -105 92 -215q0 -76 -36 -153.5t-108 -135.5h471v-203h-921v203h123q115 0 190.5 66.5t75.5 160.5q0 70 -43 135z" />
    <glyph glyph-name="currency" unicode="&#xa4;" horiz-adv-x="1105" 
d="M246 594q0 -128 90 -217.5t217 -89.5t217 89.5t90 217.5t-90 217.5t-217 89.5t-217 -89.5t-90 -217.5zM102 594q0 140 80 256l-92 92l115 115l92 -92q116 79 256 79q137 0 256 -79l92 92l115 -115l-92 -92q80 -121 80 -256q0 -138 -80 -256l92 -92l-115 -115l-92 92
q-116 -80 -256 -80q-143 0 -256 80l-92 -92l-115 115l92 92q-80 113 -80 256z" />
    <glyph glyph-name="yen" unicode="&#xa5;" horiz-adv-x="1249" 
d="M182 688l-80 172l234 101l-234 534h224l299 -735l297 735h225l-234 -534l234 -101l-80 -172l-229 96l-111 -252h338v-184h-338v-348h-205v348h-338v184h338l-110 252z" />
    <glyph glyph-name="brokenbar" unicode="&#xa6;" horiz-adv-x="471" 
d="M307 1577v-614h-143v614h143zM307 410v-615h-143v615h143z" />
    <glyph glyph-name="section" unicode="&#xa7;" horiz-adv-x="1105" 
d="M102 592q0 79 55 147t150 103q-153 111 -153 295q0 155 111 256.5t288 101.5q176 0 287.5 -109.5t111.5 -279.5h-204q0 91 -56 144t-149 53q-83 0 -134 -47.5t-51 -118.5q0 -117 123 -176q108 -51 277 -115q121 -46 183.5 -119t62.5 -184q0 -79 -56 -148t-151 -102
q155 -113 155 -295q0 -155 -111.5 -255.5t-287.5 -100.5q-177 0 -288 108.5t-111 278.5h204q0 -91 56 -144t149 -53q83 0 134 47.5t51 118.5q0 55 -31.5 101t-91.5 75q-108 51 -277 115q-121 46 -183.5 119t-62.5 184zM809 512q0 108 -123 154q-116 44 -217 90
q-86 0 -129 -37.5t-43 -95.5q0 -107 123 -154q63 -25 215 -90q87 0 130.5 37.5t43.5 95.5z" />
    <glyph glyph-name="dieresis" unicode="&#xa8;" horiz-adv-x="675" 
d="M51 1632v226h223v-226h-223zM399 1632v226h226v-226h-226z" />
    <glyph glyph-name="copyright" unicode="&#xa9;" horiz-adv-x="1740" 
d="M123 748q0 154 61 293.5t162.5 238.5t238.5 157t285 58t285 -58t239 -157t163 -238.5t61 -293.5t-61.5 -293.5t-164 -238.5t-239.5 -157.5t-283 -58.5q-148 0 -285 58.5t-238.5 157.5t-162.5 238.5t-61 293.5zM260 748q0 -130 48 -244t129.5 -195t194 -127.5t238.5 -46.5
q168 0 308 79t221.5 220t81.5 314q0 172 -81 312.5t-221 220t-309 79.5t-309 -79.5t-220.5 -220t-80.5 -312.5zM887 293q-188 0 -305 129.5t-117 325.5t117 325t305 129q124 0 215.5 -59t144.5 -156l-141 -84q-22 61 -78.5 102.5t-132.5 41.5q-132 0 -199 -83.5t-67 -215.5
t67 -215.5t199 -83.5q76 0 133 41t78 102l141 -84q-53 -97 -144.5 -156t-215.5 -59z" />
    <glyph glyph-name="ordfeminine" unicode="&#xaa;" horiz-adv-x="901" 
d="M819 1495v-747h-139l-16 63l-9 6l-6 -6q-35 -35 -94 -57.5t-117 -22.5q-156 0 -266.5 109.5t-110.5 279.5t110.5 280.5t266.5 110.5q59 0 117.5 -22t93.5 -57l6 -9l9 9l16 63h139zM680 1120q0 101 -67 176.5t-164 75.5q-106 0 -170 -74t-64 -178t64 -177t170 -73
q97 0 164 74.5t67 175.5z" />
    <glyph glyph-name="guillemotleft" unicode="&#xab;" horiz-adv-x="839" 
d="M369 686l389 481v-235l-195 -246l195 -246v-235zM430 205l-389 481l389 481v-235l-194 -246l194 -246v-235z" />
    <glyph glyph-name="logicalnot" unicode="&#xac;" horiz-adv-x="1146" 
d="M942 184v471h-901v164h1065v-635h-164z" />
    <glyph glyph-name="uni00AD" unicode="&#xad;" horiz-adv-x="655" 
d="M61 696h533v-225h-533v225z" />
    <glyph glyph-name="registered" unicode="&#xae;" horiz-adv-x="1740" 
d="M123 748q0 154 61 293.5t162.5 238.5t238.5 157t285 58t285 -58t239 -157t163 -238.5t61 -293.5t-61.5 -293.5t-164 -238.5t-239.5 -157.5t-283 -58.5q-148 0 -285 58.5t-238.5 157.5t-162.5 238.5t-61 293.5zM260 748q0 -130 48 -244t129.5 -195t194 -127.5t238.5 -46.5
q168 0 308 79t221.5 220t81.5 314q0 172 -81 312.5t-221 220t-309 79.5t-309 -79.5t-220.5 -220t-80.5 -312.5zM586 313v887h354q127 0 213 -75.5t86 -196.5q0 -115 -86 -189t-209 -82l277 -305l-29 -39h-143l-299 344h-7v-344h-157zM743 803h191q64 0 104.5 31.5t40.5 93.5
q0 63 -40.5 94t-104.5 31h-191v-250z" />
    <glyph glyph-name="macron" unicode="&#xaf;" horiz-adv-x="675" 
d="M61 1669v164h553v-164h-553z" />
    <glyph glyph-name="degree" unicode="&#xb0;" horiz-adv-x="737" 
d="M61 1188q0 130 89.5 218.5t218.5 88.5t218 -88.5t89 -218.5t-89 -218.5t-218 -88.5t-218.5 88.5t-89.5 218.5zM205 1188q0 -69 47.5 -116.5t116.5 -47.5t116 47.5t47 116.5t-47 116.5t-116 47.5t-116.5 -47.5t-47.5 -116.5z" />
    <glyph glyph-name="plusminus" unicode="&#xb1;" horiz-adv-x="1146" 
d="M655 410h-163v450h-451v164h451v451h163v-451h451v-164h-451v-450zM1106 0h-1065v164h1065v-164z" />
    <glyph glyph-name="twosuperior" unicode="&#xb2;" 
d="M102 1608v20q0 116 73 181t173 65q108 0 177 -65t69 -171q0 -102 -111 -204l-196 -185h307v-133h-492v133q3 3 48 46t109.5 104.5t109.5 105.5q25 25 38.5 40t28.5 42t15 51q0 46 -28.5 74.5t-74.5 28.5t-74 -28.5t-28 -74.5v-30h-144z" />
    <glyph glyph-name="threesuperior" unicode="&#xb3;" 
d="M604 1864v-133l-205 -136q96 -11 155.5 -73.5t59.5 -159.5q0 -103 -77 -179.5t-191 -76.5q-116 0 -190 74.5t-74 171.5h143q0 -47 34.5 -80t86.5 -33q54 0 89.5 33t35.5 80q0 55 -36.5 89t-98.5 34h-131v112l188 144h-291v133h502z" />
    <glyph glyph-name="acute" unicode="&#xb4;" horiz-adv-x="675" 
d="M436 1939l139 -137l-192 -194h-236z" />
    <glyph glyph-name="mu" unicode="&#xb5;" horiz-adv-x="1064" 
d="M307 20v-454h-205v1397h205v-574q0 -225 205 -225q92 0 158.5 66.5t66.5 158.5v574h205v-963h-184l-21 82l-10 10l-10 -10q-30 -44 -95.5 -73t-129.5 -29q-107 0 -185 40z" />
    <glyph glyph-name="mu" unicode="&#x3bc;" horiz-adv-x="1064" 
d="M307 20v-454h-205v1397h205v-574q0 -225 205 -225q92 0 158.5 66.5t66.5 158.5v574h205v-963h-184l-21 82l-10 10l-10 -10q-30 -44 -95.5 -73t-129.5 -29q-107 0 -185 40z" />
    <glyph glyph-name="paragraph" unicode="&#xb6;" horiz-adv-x="860" 
d="M0 1188q0 138 84.5 222.5t222.5 84.5h389v-1833h-143v1219h-102v-1219h-144v1219q-138 0 -222.5 84.5t-84.5 222.5zM451 1352v-328h102v328h-102z" />
    <glyph glyph-name="periodcentered" unicode="&#xb7;" horiz-adv-x="450" 
d="M102 471v266h246v-266h-246z" />
    <glyph glyph-name="cedilla" unicode="&#xb8;" horiz-adv-x="675" 
d="M119 -371l84 142q5 -5 15 -13t40 -21t59 -13q34 0 53 14t19 37q0 24 -19.5 37.5t-52.5 13.5h-47v205h152v-78q54 -9 99.5 -57t45.5 -121q0 -96 -70 -155.5t-184 -59.5q-110 0 -194 69z" />
    <glyph glyph-name="onesuperior" unicode="&#xb9;" 
d="M496 1249v123h129v-256h-533v133h189v471l-43 -61h-144v20l144 185h184v-615h74z" />
    <glyph glyph-name="ordmasculine" unicode="&#xba;" horiz-adv-x="901" 
d="M61 1120q0 87 33.5 162t88.5 124t125 77t143 28q99 0 187 -46.5t145 -138t57 -206.5q0 -172 -117.5 -280.5t-271.5 -108.5t-272 108.5t-118 280.5zM215 1120q0 -105 63.5 -177.5t172.5 -72.5t172 72.5t63 177.5t-63 178.5t-172 73.5t-172.5 -73.5t-63.5 -178.5z" />
    <glyph glyph-name="guillemotright" unicode="&#xbb;" horiz-adv-x="839" 
d="M80 1167l389 -481l-389 -481v235l194 246l-194 246v235zM799 686l-389 -481v235l194 246l-194 246v235z" />
    <glyph glyph-name="onequarter" unicode="&#xbc;" horiz-adv-x="1187" 
d="M1044 1126l-698 -757h-141l696 757h143zM686 328h215v184h143v-184h103v-133h-103v-195h-143v195h-389v133l328 420h161zM338 881h72v123h129v-205l-45 -51h-402v133h105v465l-33 -56h-133v21l123 184h184v-614z" />
    <glyph glyph-name="onehalf" unicode="&#xbd;" horiz-adv-x="1187" 
d="M639 492v20q0 116 73 181t173 65q108 0 176.5 -65t68.5 -171q0 -104 -110 -205l-197 -184h307v-133h-491v133q3 3 48 46t109 104.5t109 105.5q25 25 38.5 40t28.5 42t15 51q0 46 -28 74.5t-74 28.5t-74.5 -28.5t-28.5 -74.5v-30h-143zM338 881h72v123h129v-205l-45 -51
h-402v133h105v465l-33 -56h-133v21l123 184h184v-614zM1044 1126l-698 -757h-141l696 757h143z" />
    <glyph glyph-name="threequarters" unicode="&#xbe;" horiz-adv-x="1187" 
d="M563 1495v-133l-205 -135q95 -11 155 -74t60 -160q0 -103 -77 -179.5t-191 -76.5q-117 0 -190.5 74.5t-73.5 171.5h143q0 -47 34.5 -80t86.5 -33q54 0 89.5 33t35.5 80q0 55 -36.5 89t-98.5 34h-131v113l188 143h-291v133h502zM1024 1126l-698 -757h-142l697 757h143z
M666 328h215v184h143v-184h102v-133h-102v-195h-143v195h-389v133l327 420h162z" />
    <glyph glyph-name="questiondown" unicode="&#xbf;" horiz-adv-x="983" 
d="M635 1495v-246h-246v246h246zM922 430l-205 41v-41q0 -100 -63 -165.5t-162 -65.5q-100 0 -163 61t-63 160q0 53 20 99t51.5 79.5t71 69t78 66.5t71.5 72.5t53.5 87t23 110.5t-20.5 143h-204q23 -53 25.5 -98t-12 -80.5t-40.5 -67t-60 -62t-69.5 -61t-70 -68t-62 -79.5
t-44 -99t-16.5 -122q0 -110 57.5 -205t154 -150t206.5 -55q116 0 219 60t163.5 159.5t60.5 210.5z" />
    <glyph glyph-name="Agrave" unicode="&#xc0;" horiz-adv-x="1331" 
d="M41 0h215l166 492h485l168 -492h215l-512 1495h-225zM666 1206l174 -510h-348zM344 1802l139 137l289 -331h-235z" />
    <glyph glyph-name="Aacute" unicode="&#xc1;" horiz-adv-x="1331" 
d="M856 1939l139 -137l-192 -194h-236zM41 0h215l166 492h485l168 -492h215l-512 1495h-225zM666 1206l174 -510h-348z" />
    <glyph glyph-name="Acircumflex" unicode="&#xc2;" horiz-adv-x="1331" 
d="M756 1939l213 -200l-129 -131l-174 168l-174 -168l-130 131l213 200h181zM256 0h-215l512 1495h225l512 -1495h-215l-168 492h-485zM840 696l-174 510l-174 -510h348z" />
    <glyph glyph-name="Atilde" unicode="&#xc3;" horiz-adv-x="1331" 
d="M807 1886q101 0 156 -68.5t43 -189.5h-168q12 80 -43 80q-20 0 -58 -20t-88.5 -40t-99.5 -20q-94 0 -145 57t-44 158l170 45q-9 -80 45 -80q24 0 61 19.5t82 39t89 19.5zM41 0h215l166 492h485l168 -492h215l-512 1495h-225zM666 1206l174 -510h-348z" />
    <glyph glyph-name="Adieresis" unicode="&#xc4;" horiz-adv-x="1331" 
d="M348 1632v226h223v-226h-223zM758 1632v226h225v-226h-225zM41 0h215l166 492h485l168 -492h215l-512 1495h-225zM666 1206l174 -510h-348z" />
    <glyph glyph-name="Aring" unicode="&#xc5;" horiz-adv-x="1331" 
d="M438 1765q0 97 66.5 160.5t161.5 63.5t161 -63.5t66 -160.5t-66 -160t-161 -63t-161.5 63t-66.5 160zM578 1765q0 -38 25 -63t63 -25t63 25t25 63t-25 63t-63 25t-63 -25t-25 -63zM256 0h-215l512 1495h225l512 -1495h-215l-168 492h-485zM840 696l-174 510l-174 -510
h348z" />
    <glyph glyph-name="AE" unicode="&#xc6;" horiz-adv-x="1638" 
d="M41 0l451 1495h1044v-205h-758l129 -430h629v-205h-567l137 -450h430v-205h-584l-145 492h-406l-145 -492h-215zM604 1188l-143 -492h287z" />
    <glyph glyph-name="Ccedilla" unicode="&#xc7;" horiz-adv-x="1515" 
d="M598 -401l84 141q6 -5 15.5 -13t40 -21t59.5 -13q33 0 52 14t19 37q0 24 -19 37.5t-52 13.5h-47v172q-194 25 -346.5 133.5t-237 277.5t-84.5 367q0 218 99.5 399t276 286.5t392.5 105.5q171 0 329.5 -75.5t264.5 -211.5l-144 -143q-162 227 -440 227q-128 0 -234 -45
t-177.5 -123.5t-110.5 -186t-39 -230.5q0 -166 67 -298t198 -210t306 -78q279 0 441 227l143 -143q-100 -129 -246.5 -203t-306.5 -82v-39q54 -9 100 -57t46 -121q0 -96 -70 -155.5t-184 -59.5q-109 0 -195 70z" />
    <glyph glyph-name="Egrave" unicode="&#xc8;" horiz-adv-x="1167" 
d="M164 1495v-1495h942v205h-727v450h727v205h-727v430h727v205h-942zM338 1802l139 137l289 -331h-236z" />
    <glyph glyph-name="Eacute" unicode="&#xc9;" horiz-adv-x="1167" 
d="M164 1495v-1495h942v205h-727v450h727v205h-727v430h727v205h-942zM772 1939l139 -137l-192 -194h-236z" />
    <glyph glyph-name="Ecircumflex" unicode="&#xca;" horiz-adv-x="1167" 
d="M164 0v1495h942v-205h-727v-430h727v-205h-727v-450h727v-205h-942zM727 1939l213 -200l-129 -131l-174 168l-174 -168l-129 131l213 200h180z" />
    <glyph glyph-name="Edieresis" unicode="&#xcb;" horiz-adv-x="1167" 
d="M164 1495v-1495h942v205h-727v450h727v205h-727v430h727v205h-942zM332 1632v226h223v-226h-223zM741 1632v226h226v-226h-226z" />
    <glyph glyph-name="Igrave" unicode="&#xcc;" horiz-adv-x="593" 
d="M154 205v-205h286v205h-34v1085h34v205h-286v-205h34v-1085h-34zM-18 1802l139 137l289 -331h-236z" />
    <glyph glyph-name="Iacute" unicode="&#xcd;" horiz-adv-x="593" 
d="M154 205v-205h286v205h-34v1085h34v205h-286v-205h34v-1085h-34zM469 1939l139 -137l-192 -194h-236z" />
    <glyph glyph-name="Icircumflex" unicode="&#xce;" horiz-adv-x="593" 
d="M154 0v205h34v1085h-34v205h286v-205h-34v-1085h34v-205h-286zM387 1939l213 -200l-129 -131l-174 168l-174 -168l-129 131l213 200h180z" />
    <glyph glyph-name="Idieresis" unicode="&#xcf;" horiz-adv-x="593" 
d="M154 205v-205h286v205h-34v1085h34v205h-286v-205h34v-1085h-34zM-20 1632v226h223v-226h-223zM389 1632v226h225v-226h-225z" />
    <glyph glyph-name="Eth" unicode="&#xd0;" horiz-adv-x="1351" 
d="M20 655v185h185v655h297q218 0 393 -94t275 -265.5t100 -387.5t-100 -387.5t-275 -266t-393 -94.5h-297v655h-185zM512 1290h-92v-450h215v-185h-215v-450h92q254 0 398.5 144.5t144.5 398.5q0 253 -144.5 397.5t-398.5 144.5z" />
    <glyph glyph-name="Ntilde" unicode="&#xd1;" horiz-adv-x="1413" 
d="M840 1886q101 0 155.5 -68.5t42.5 -189.5h-168q12 80 -43 80q-20 0 -58 -20t-88 -40t-99 -20q-94 0 -145 57t-44 158l170 45q-9 -80 45 -80q24 0 61 19.5t82 39t89 19.5zM1036 1495v-1106l-637 1106h-235v-1495h213v1126l637 -1126h235v1495h-213z" />
    <glyph glyph-name="Ograve" unicode="&#xd2;" horiz-adv-x="1740" 
d="M82 748q0 -161 62.5 -307t167.5 -251.5t251 -168t307 -62.5t307 62.5t251.5 168t168 251.5t62.5 307t-62.5 307t-168 251t-251.5 167.5t-307 62.5q-214 0 -395.5 -105.5t-287 -287t-105.5 -395.5zM297 745q0 126 42.5 234.5t117 186t181.5 121.5t232 44q252 0 412 -165
t160 -421q0 -253 -160 -417t-412 -164t-412.5 164t-160.5 417zM573 1802l140 137l288 -331h-235z" />
    <glyph glyph-name="Oacute" unicode="&#xd3;" horiz-adv-x="1740" 
d="M82 748q0 -161 62.5 -307t167.5 -251.5t251 -168t307 -62.5t307 62.5t251.5 168t168 251.5t62.5 307t-62.5 307t-168 251t-251.5 167.5t-307 62.5q-214 0 -395.5 -105.5t-287 -287t-105.5 -395.5zM297 745q0 126 42.5 234.5t117 186t181.5 121.5t232 44q252 0 412 -165
t160 -421q0 -253 -160 -417t-412 -164t-412.5 164t-160.5 417zM1047 1939l139 -137l-193 -194h-235z" />
    <glyph glyph-name="Ocircumflex" unicode="&#xd4;" horiz-adv-x="1740" 
d="M82 748q0 214 105.5 395.5t287 287t395.5 105.5q161 0 307 -62.5t251.5 -167.5t168 -251t62.5 -307t-62.5 -307t-168 -251.5t-251.5 -168t-307 -62.5t-307 62.5t-251 168t-167.5 251.5t-62.5 307zM297 745q0 -253 160.5 -417t412.5 -164t412 164t160 417q0 256 -160 421
t-412 165q-125 0 -232 -44t-181.5 -121.5t-117 -186t-42.5 -234.5zM961 1939l213 -200l-130 -131l-174 168l-174 -168l-129 131l213 200h181z" />
    <glyph glyph-name="Otilde" unicode="&#xd5;" horiz-adv-x="1740" 
d="M82 748q0 -161 62.5 -307t167.5 -251.5t251 -168t307 -62.5t307 62.5t251.5 168t168 251.5t62.5 307t-62.5 307t-168 251t-251.5 167.5t-307 62.5q-214 0 -395.5 -105.5t-287 -287t-105.5 -395.5zM297 745q0 126 42.5 234.5t117 186t181.5 121.5t232 44q252 0 412 -165
t160 -421q0 -253 -160 -417t-412 -164t-412.5 164t-160.5 417zM999 1886q101 0 156 -68.5t43 -189.5h-168q12 80 -43 80q-20 0 -58 -20t-88.5 -40t-99.5 -20q-93 0 -144 57t-44 158l170 45q-9 -80 45 -80q24 0 61 19.5t81.5 39t88.5 19.5z" />
    <glyph glyph-name="Odieresis" unicode="&#xd6;" horiz-adv-x="1740" 
d="M82 748q0 -161 62.5 -307t167.5 -251.5t251 -168t307 -62.5t307 62.5t251.5 168t168 251.5t62.5 307t-62.5 307t-168 251t-251.5 167.5t-307 62.5q-214 0 -395.5 -105.5t-287 -287t-105.5 -395.5zM297 745q0 126 42.5 234.5t117 186t181.5 121.5t232 44q252 0 412 -165
t160 -421q0 -253 -160 -417t-412 -164t-412.5 164t-160.5 417zM553 1632v226h223v-226h-223zM963 1632v226h225v-226h-225z" />
    <glyph glyph-name="multiply" unicode="&#xd7;" horiz-adv-x="1146" 
d="M979 1260l117 -117l-406 -406l406 -405l-117 -117l-406 406l-405 -406l-117 117l406 405l-406 406l117 117l405 -406z" />
    <glyph glyph-name="Oslash" unicode="&#xd8;" horiz-adv-x="1740" 
d="M82 748q0 214 105.5 395.5t287 287t395.5 105.5q268 0 482 -164l123 123h266l-254 -256q172 -213 172 -491q0 -161 -62.5 -307t-168 -251.5t-251.5 -168t-307 -62.5q-269 0 -483 164l-121 -123h-266l252 256q-81 102 -125.5 228.5t-44.5 263.5zM297 745q0 -195 100 -344
l813 826q-141 104 -340 104q-125 0 -232 -44t-181.5 -121.5t-117 -186t-42.5 -234.5zM870 164q252 0 412 164t160 417q0 193 -101 347l-813 -826q145 -102 342 -102z" />
    <glyph glyph-name="Ugrave" unicode="&#xd9;" horiz-adv-x="1433" 
d="M1055 430v1065h215v-1065q0 -191 -130 -310.5t-331 -119.5h-184q-201 0 -331 119.5t-130 310.5v1065h215v-1065q0 -109 68 -167t167 -58h205q100 0 168 58t68 167zM432 1802l139 137l289 -331h-235z" />
    <glyph glyph-name="Uacute" unicode="&#xda;" horiz-adv-x="1433" 
d="M1055 430v1065h215v-1065q0 -191 -130 -310.5t-331 -119.5h-184q-201 0 -331 119.5t-130 310.5v1065h215v-1065q0 -109 68 -167t167 -58h205q100 0 168 58t68 167zM854 1939l139 -137l-192 -194h-236z" />
    <glyph glyph-name="Ucircumflex" unicode="&#xdb;" horiz-adv-x="1433" 
d="M1055 430v1065h215v-1065q0 -191 -130 -310.5t-331 -119.5h-184q-201 0 -331 119.5t-130 310.5v1065h215v-1065q0 -109 68 -167t167 -58h205q100 0 168 58t68 167zM807 1939l213 -200l-129 -131l-174 168l-174 -168l-129 131l213 200h180z" />
    <glyph glyph-name="Udieresis" unicode="&#xdc;" horiz-adv-x="1433" 
d="M1055 430v1065h215v-1065q0 -191 -130 -310.5t-331 -119.5h-184q-201 0 -331 119.5t-130 310.5v1065h215v-1065q0 -109 68 -167t167 -58h205q100 0 168 58t68 167zM399 1632v226h224v-226h-224zM809 1632v226h225v-226h-225z" />
    <glyph glyph-name="Yacute" unicode="&#xdd;" horiz-adv-x="1085" 
d="M702 1939l140 -137l-193 -194h-235zM260 1495h-240l414 -696v-799h217v799l414 696h-242l-280 -479z" />
    <glyph glyph-name="Thorn" unicode="&#xde;" horiz-adv-x="1208" 
d="M164 0v1495h215v-307h328q201 0 330.5 -119.5t129.5 -310.5t-129.5 -310.5t-330.5 -119.5h-328v-328h-215zM379 532h338q99 0 167 58.5t68 167.5t-68 167t-167 58h-338v-451z" />
    <glyph glyph-name="germandbls" unicode="&#xdf;" horiz-adv-x="2463" 
d="M397 1126q0 -92 57.5 -149t180.5 -88q66 -17 164 -39q165 -36 266.5 -144.5t101.5 -283.5q0 -85 -34.5 -164t-96.5 -141t-158.5 -99.5t-211.5 -37.5h-123q-102 0 -197 38.5t-163 100.5t-109.5 144t-42.5 167l211 82q-1 -73 25.5 -136t70.5 -103.5t97.5 -63.5t107.5 -23
h123q130 0 208 64.5t78 171.5q0 58 -21 100.5t-59.5 66.5t-73 36.5t-81.5 21.5q-57 12 -164 41q-369 110 -369 438q0 175 133 290.5t328 115.5q132 0 242 -54.5t174.5 -152.5t64.5 -219h-225q0 93 -74.5 159t-181.5 66q-109 0 -178.5 -58t-69.5 -147zM1602 1126
q0 -92 57 -149t180 -88q66 -17 164 -39q165 -36 267 -144.5t102 -283.5q0 -85 -34.5 -164t-97 -141t-159 -99.5t-211.5 -37.5h-39q-102 0 -197 38.5t-163 100.5t-109.5 144t-42.5 167l211 82q-1 -73 25.5 -136t70.5 -103.5t97.5 -63.5t107.5 -23h39q130 0 208.5 64.5
t78.5 171.5q0 47 -15.5 84.5t-37.5 60t-56.5 40t-62.5 25.5t-64 15q-57 12 -164 41q-81 24 -144.5 59t-115.5 86.5t-80 125.5t-28 167q0 176 132.5 291t327.5 115q132 0 242 -54.5t175 -153t65 -218.5h-226q0 93 -74.5 159t-181.5 66q-109 0 -178 -58t-69 -147z" />
    <glyph glyph-name="agrave" unicode="&#xe0;" horiz-adv-x="1167" 
d="M430 1495l-389 -1495h213l78 307h502l79 -307h213l-389 1495h-307zM385 510l199 793l196 -793h-395zM281 1802l139 137l289 -331h-236z" />
    <glyph glyph-name="aacute" unicode="&#xe1;" horiz-adv-x="1167" 
d="M430 1495l-389 -1495h213l78 307h502l79 -307h213l-389 1495h-307zM385 510l199 793l196 -793h-395zM760 1939l139 -137l-192 -194h-236z" />
    <glyph glyph-name="acircumflex" unicode="&#xe2;" horiz-adv-x="1167" 
d="M41 0l389 1495h307l389 -1495h-213l-79 307h-502l-78 -307h-213zM584 1303l-199 -793h395zM674 1939l213 -200l-129 -131l-174 168l-174 -168l-129 131l213 200h180z" />
    <glyph glyph-name="atilde" unicode="&#xe3;" horiz-adv-x="1167" 
d="M430 1495l-389 -1495h213l78 307h502l79 -307h213l-389 1495h-307zM385 510l199 793l196 -793h-395zM705 1886q101 0 155.5 -68.5t42.5 -189.5h-168q12 80 -43 80q-20 0 -58 -20t-88.5 -40t-99.5 -20q-93 0 -144 57t-44 158l170 45q-9 -80 45 -80q24 0 61 19.5t82 39
t89 19.5z" />
    <glyph glyph-name="adieresis" unicode="&#xe4;" horiz-adv-x="1167" 
d="M430 1495l-389 -1495h213l78 307h502l79 -307h213l-389 1495h-307zM385 510l199 793l196 -793h-395zM297 1632v226h223v-226h-223zM645 1632v226h225v-226h-225z" />
    <glyph glyph-name="aring" unicode="&#xe5;" horiz-adv-x="1167" 
d="M41 0l389 1495h307l389 -1495h-213l-79 307h-502l-78 -307h-213zM584 1303l-199 -793h395zM356 1765q0 97 66.5 160.5t161.5 63.5t161 -63.5t66 -160.5t-66 -160t-161 -63t-161.5 63t-66.5 160zM496 1765q0 -38 25 -63t63 -25t63 25t25 63t-25 63t-63 25t-63 -25t-25 -63
z" />
    <glyph glyph-name="ae" unicode="&#xe6;" horiz-adv-x="1576" 
d="M41 0l451 1495h1044v-205h-758l129 -430h629v-205h-567l137 -450h430v-205h-584l-121 410h-456l-119 -410h-215zM604 1184l-168 -570h336z" />
    <glyph glyph-name="ccedilla" unicode="&#xe7;" horiz-adv-x="1495" 
d="M594 -401l84 141q6 -5 15.5 -13t40 -21t59.5 -13q33 0 52 14t19 37q0 24 -19 37.5t-52 13.5h-48v172q-292 40 -477.5 258t-185.5 520q0 218 99.5 399t276 286.5t392.5 105.5q171 0 329.5 -75.5t264.5 -211.5l-144 -143q-162 227 -440 227q-128 0 -234 -45t-177.5 -123.5
t-110.5 -186t-39 -230.5q0 -166 67 -298t198 -210t306 -78q279 0 441 227l143 -143q-100 -129 -247.5 -203t-309.5 -82v-39q54 -9 99.5 -57t45.5 -121q0 -96 -70 -155.5t-184 -59.5q-108 0 -194 70z" />
    <glyph glyph-name="egrave" unicode="&#xe8;" horiz-adv-x="1064" 
d="M246 1495v-1495h839v205h-624v450h624v205h-624v430h624v205h-839zM307 1802l139 137l289 -331h-235z" />
    <glyph glyph-name="eacute" unicode="&#xe9;" horiz-adv-x="1064" 
d="M246 1495v-1495h839v205h-624v450h624v205h-624v430h624v205h-839zM762 1939l139 -137l-192 -194h-236z" />
    <glyph glyph-name="ecircumflex" unicode="&#xea;" horiz-adv-x="1064" 
d="M246 0v1495h839v-205h-624v-430h624v-205h-624v-450h624v-205h-839zM686 1939l213 -200l-129 -131l-174 168l-174 -168l-129 131l213 200h180z" />
    <glyph glyph-name="edieresis" unicode="&#xeb;" horiz-adv-x="1064" 
d="M246 1495v-1495h839v205h-624v450h624v205h-624v430h624v205h-839zM303 1632v226h223v-226h-223zM651 1632v226h226v-226h-226z" />
    <glyph glyph-name="igrave" unicode="&#xec;" horiz-adv-x="839" 
d="M61 205v-205h717v205h-250v1085h250v205h-717v-205h250v-1085h-250zM106 1802l140 137l289 -331h-236z" />
    <glyph glyph-name="iacute" unicode="&#xed;" horiz-adv-x="839" 
d="M61 205v-205h717v205h-250v1085h250v205h-717v-205h250v-1085h-250zM594 1939l139 -137l-192 -194h-236z" />
    <glyph glyph-name="icircumflex" unicode="&#xee;" horiz-adv-x="839" 
d="M61 0v205h250v1085h-250v205h717v-205h-250v-1085h250v-205h-717zM510 1939l213 -200l-129 -131l-174 168l-174 -168l-129 131l213 200h180z" />
    <glyph glyph-name="idieresis" unicode="&#xef;" horiz-adv-x="839" 
d="M61 205v-205h717v205h-250v1085h250v205h-717v-205h250v-1085h-250zM133 1632v226h223v-226h-223zM481 1632v226h226v-226h-226z" />
    <glyph glyph-name="eth" unicode="&#xf0;" horiz-adv-x="1351" 
d="M502 0h-400v205h195v450h-195v185h195v450h-195v205h400q218 0 393 -94t275 -265.5t100 -387.5t-100 -387.5t-275 -266t-393 -94.5zM1055 748q0 253 -144.5 397.5t-398.5 144.5v-450h205v-185h-205v-450q254 0 398.5 144.5t144.5 398.5z" />
    <glyph glyph-name="ntilde" unicode="&#xf1;" horiz-adv-x="1187" 
d="M831 1495v-1159l-380 1159h-287v-1495h192v1159l381 -1159h287v1495h-193zM715 1886q101 0 155.5 -68.5t42.5 -189.5h-168q12 80 -43 80q-20 0 -58 -20t-88 -40t-99 -20q-94 0 -145 57t-44 158l170 45q-9 -80 45 -80q24 0 61 19.5t82 39t89 19.5z" />
    <glyph glyph-name="ograve" unicode="&#xf2;" horiz-adv-x="1740" 
d="M82 748q0 -161 62.5 -307t167.5 -251.5t251 -168t307 -62.5t307 62.5t251.5 168t168 251.5t62.5 307t-62.5 307t-168 251t-251.5 167.5t-307 62.5q-214 0 -395.5 -105.5t-287 -287t-105.5 -395.5zM297 745q0 126 42.5 234.5t117 186t181.5 121.5t232 44q252 0 412 -165
t160 -421q0 -253 -160 -417t-412 -164t-412.5 164t-160.5 417zM573 1802l140 137l288 -331h-235z" />
    <glyph glyph-name="oacute" unicode="&#xf3;" horiz-adv-x="1740" 
d="M82 748q0 -161 62.5 -307t167.5 -251.5t251 -168t307 -62.5t307 62.5t251.5 168t168 251.5t62.5 307t-62.5 307t-168 251t-251.5 167.5t-307 62.5q-214 0 -395.5 -105.5t-287 -287t-105.5 -395.5zM297 745q0 126 42.5 234.5t117 186t181.5 121.5t232 44q252 0 412 -165
t160 -421q0 -253 -160 -417t-412 -164t-412.5 164t-160.5 417zM1047 1939l139 -137l-193 -194h-235z" />
    <glyph glyph-name="ocircumflex" unicode="&#xf4;" horiz-adv-x="1740" 
d="M82 748q0 214 105.5 395.5t287 287t395.5 105.5q161 0 307 -62.5t251.5 -167.5t168 -251t62.5 -307t-62.5 -307t-168 -251.5t-251.5 -168t-307 -62.5t-307 62.5t-251 168t-167.5 251.5t-62.5 307zM297 745q0 -253 160.5 -417t412.5 -164t412 164t160 417q0 256 -160 421
t-412 165q-125 0 -232 -44t-181.5 -121.5t-117 -186t-42.5 -234.5zM961 1939l213 -200l-130 -131l-174 168l-174 -168l-129 131l213 200h181z" />
    <glyph glyph-name="otilde" unicode="&#xf5;" horiz-adv-x="1740" 
d="M82 748q0 -161 62.5 -307t167.5 -251.5t251 -168t307 -62.5t307 62.5t251.5 168t168 251.5t62.5 307t-62.5 307t-168 251t-251.5 167.5t-307 62.5q-214 0 -395.5 -105.5t-287 -287t-105.5 -395.5zM297 745q0 126 42.5 234.5t117 186t181.5 121.5t232 44q252 0 412 -165
t160 -421q0 -253 -160 -417t-412 -164t-412.5 164t-160.5 417zM1004 1886q101 0 155.5 -68.5t42.5 -189.5h-168q12 80 -43 80q-20 0 -58 -20t-88.5 -40t-99.5 -20q-93 0 -144 57t-44 158l170 45q-9 -80 45 -80q24 0 61 19.5t82 39t89 19.5z" />
    <glyph glyph-name="odieresis" unicode="&#xf6;" horiz-adv-x="1740" 
d="M82 748q0 -161 62.5 -307t167.5 -251.5t251 -168t307 -62.5t307 62.5t251.5 168t168 251.5t62.5 307t-62.5 307t-168 251t-251.5 167.5t-307 62.5q-214 0 -395.5 -105.5t-287 -287t-105.5 -395.5zM297 745q0 126 42.5 234.5t117 186t181.5 121.5t232 44q252 0 412 -165
t160 -421q0 -253 -160 -417t-412 -164t-412.5 164t-160.5 417zM584 1632v226h223v-226h-223zM932 1632v226h225v-226h-225z" />
    <glyph glyph-name="divide" unicode="&#xf7;" horiz-adv-x="1146" 
d="M1106 655h-1065v164h1065v-164zM696 983h-245v246h245v-246zM696 246h-245v246h245v-246z" />
    <glyph glyph-name="oslash" unicode="&#xf8;" horiz-adv-x="1740" 
d="M82 748q0 214 105.5 395.5t287 287t395.5 105.5q268 0 482 -164l123 123h266l-254 -256q172 -213 172 -491q0 -161 -62.5 -307t-168 -251.5t-251.5 -168t-307 -62.5q-269 0 -483 164l-121 -123h-266l252 256q-81 102 -125.5 228.5t-44.5 263.5zM297 745q0 -195 100 -344
l813 826q-141 104 -340 104q-125 0 -232 -44t-181.5 -121.5t-117 -186t-42.5 -234.5zM870 164q252 0 412 164t160 417q0 193 -101 347l-813 -826q145 -102 342 -102z" />
    <glyph glyph-name="ugrave" unicode="&#xf9;" horiz-adv-x="1310" 
d="M655 -41q-150 0 -268 68t-181 184.5t-63 259.5v1024h215v-1034q0 -131 75 -214t222 -83t222 83t75 214v1034h215v-1024q0 -143 -63 -259.5t-181 -184.5t-268 -68zM385 1802l139 137l289 -331h-235z" />
    <glyph glyph-name="uacute" unicode="&#xfa;" horiz-adv-x="1310" 
d="M655 -41q-150 0 -268 68t-181 184.5t-63 259.5v1024h215v-1034q0 -131 75 -214t222 -83t222 83t75 214v1034h215v-1024q0 -143 -63 -259.5t-181 -184.5t-268 -68zM809 1939l139 -137l-192 -194h-236z" />
    <glyph glyph-name="ucircumflex" unicode="&#xfb;" horiz-adv-x="1310" 
d="M655 -41q-150 0 -268 68t-181 184.5t-63 259.5v1024h215v-1034q0 -131 75 -214t222 -83t222 83t75 214v1034h215v-1024q0 -143 -63 -259.5t-181 -184.5t-268 -68zM750 1939l213 -200l-129 -131l-175 168l-174 -168l-129 131l213 200h181z" />
    <glyph glyph-name="udieresis" unicode="&#xfc;" horiz-adv-x="1310" 
d="M655 -41q-150 0 -268 68t-181 184.5t-63 259.5v1024h215v-1034q0 -131 75 -214t222 -83t222 83t75 214v1034h215v-1024q0 -143 -63 -259.5t-181 -184.5t-268 -68zM369 1632v226h223v-226h-223zM717 1632v226h225v-226h-225z" />
    <glyph glyph-name="yacute" unicode="&#xfd;" horiz-adv-x="1064" 
d="M41 1495h229l285 -686l270 686h219l-587 -1495h-221l217 557zM709 1939l139 -137l-193 -194h-235z" />
    <glyph glyph-name="thorn" unicode="&#xfe;" horiz-adv-x="1290" 
d="M164 0v1495h215v-307h409q201 0 331 -119.5t130 -310.5t-130 -310.5t-331 -119.5h-409v-328h-215zM379 532h420q99 0 167 58.5t68 167.5t-68 167t-167 58h-420v-451z" />
    <glyph glyph-name="ydieresis" unicode="&#xff;" horiz-adv-x="1105" 
d="M61 1495h230l284 -686l271 686h219l-588 -1495h-221l217 557zM289 1632v226h223v-226h-223zM637 1632v226h225v-226h-225z" />
    <glyph glyph-name="Amacron" unicode="&#x100;" horiz-adv-x="1331" 
d="M389 1669v164h553v-164h-553zM41 0h215l166 492h485l168 -492h215l-512 1495h-225zM666 1206l174 -510h-348z" />
    <glyph glyph-name="amacron" unicode="&#x101;" horiz-adv-x="1167" 
d="M430 1495l-389 -1495h213l78 307h502l79 -307h213l-389 1495h-307zM385 510l199 793l196 -793h-395zM307 1669v164h553v-164h-553z" />
    <glyph glyph-name="Abreve" unicode="&#x102;" horiz-adv-x="1331" 
d="M666 1608q-129 0 -203 77.5t-74 174.5v14h174v-2q0 -39 26 -71t77 -32t76.5 31.5t25.5 71.5v2h174v-14q0 -97 -73.5 -174.5t-202.5 -77.5zM41 0h215l166 492h485l168 -492h215l-512 1495h-225zM666 1206l174 -510h-348z" />
    <glyph glyph-name="abreve" unicode="&#x103;" horiz-adv-x="1167" 
d="M430 1495l-389 -1495h213l78 307h502l79 -307h213l-389 1495h-307zM385 510l199 793l196 -793h-395zM584 1608q-129 0 -203 77.5t-74 174.5v14h174v-2q0 -39 26 -71t77 -32t76.5 31.5t25.5 71.5v2h174v-14q0 -97 -73.5 -174.5t-202.5 -77.5z" />
    <glyph glyph-name="Aogonek" unicode="&#x104;" horiz-adv-x="1331" 
d="M256 0h-215l512 1495h225l512 -1495h-22l-58 -117q-10 -20 -10 -47q0 -34 28.5 -56t67.5 -22h45l-45 -168h-10q-126 0 -203 52.5t-77 138.5q0 41 19 89t79 130h-29l-168 492h-485zM840 696l-174 510l-174 -510h348z" />
    <glyph glyph-name="aogonek" unicode="&#x105;" horiz-adv-x="1167" 
d="M1126 0h-24l-58 -117q-10 -20 -10 -47q0 -34 28.5 -56t67.5 -22h46l-46 -168h-10q-126 0 -203 52.5t-77 138.5q0 41 19 89t79 130h-25l-79 307h-502l-78 -307h-213l389 1495h307zM584 1303l-199 -793h395z" />
    <glyph glyph-name="Cacute" unicode="&#x106;" horiz-adv-x="1495" 
d="M82 745q0 218 99.5 399t276 286.5t392.5 105.5q171 0 329.5 -75.5t264.5 -211.5l-144 -143q-162 227 -440 227q-128 0 -234 -45t-177.5 -123.5t-110.5 -186t-39 -230.5q0 -166 67 -298t198 -210t306 -78q279 0 441 227l143 -143q-106 -136 -264.5 -211.5t-329.5 -75.5
q-221 0 -400 105t-278.5 284.5t-99.5 396.5zM1034 1939l140 -137l-193 -194h-236z" />
    <glyph glyph-name="cacute" unicode="&#x107;" horiz-adv-x="1495" 
d="M82 745q0 218 99.5 399t276 286.5t392.5 105.5q171 0 329.5 -75.5t264.5 -211.5l-144 -143q-162 227 -440 227q-128 0 -234 -45t-177.5 -123.5t-110.5 -186t-39 -230.5q0 -166 67 -298t198 -210t306 -78q279 0 441 227l143 -143q-106 -136 -264.5 -211.5t-329.5 -75.5
q-221 0 -400 105t-278.5 284.5t-99.5 396.5zM1016 1939l139 -137l-192 -194h-236z" />
    <glyph glyph-name="Ccircumflex" unicode="&#x108;" horiz-adv-x="1495" 
d="M82 745q0 218 99.5 399t276 286.5t392.5 105.5q171 0 329.5 -75.5t264.5 -211.5l-144 -143q-162 227 -440 227q-128 0 -234 -45t-177.5 -123.5t-110.5 -186t-39 -230.5q0 -166 67 -298t198 -210t306 -78q279 0 441 227l143 -143q-106 -136 -264.5 -211.5t-329.5 -75.5
q-221 0 -400 105t-278.5 284.5t-99.5 396.5zM950 1939l213 -200l-129 -131l-174 168l-174 -168l-129 131l213 200h180z" />
    <glyph glyph-name="ccircumflex" unicode="&#x109;" horiz-adv-x="1495" 
d="M82 745q0 218 99.5 399t276 286.5t392.5 105.5q171 0 329.5 -75.5t264.5 -211.5l-144 -143q-162 227 -440 227q-128 0 -234 -45t-177.5 -123.5t-110.5 -186t-39 -230.5q0 -166 67 -298t198 -210t306 -78q279 0 441 227l143 -143q-106 -136 -264.5 -211.5t-329.5 -75.5
q-221 0 -400 105t-278.5 284.5t-99.5 396.5zM934 1939l213 -200l-129 -131l-174 168l-174 -168l-129 131l213 200h180z" />
    <glyph glyph-name="Cdotaccent" unicode="&#x10a;" horiz-adv-x="1495" 
d="M82 745q0 218 99.5 399t276 286.5t392.5 105.5q171 0 329.5 -75.5t264.5 -211.5l-144 -143q-162 227 -440 227q-128 0 -234 -45t-177.5 -123.5t-110.5 -186t-39 -230.5q0 -166 67 -298t198 -210t306 -78q279 0 441 227l143 -143q-106 -136 -264.5 -211.5t-329.5 -75.5
q-221 0 -400 105t-278.5 284.5t-99.5 396.5zM737 1632v226h226v-226h-226z" />
    <glyph glyph-name="cdotaccent" unicode="&#x10b;" horiz-adv-x="1495" 
d="M82 745q0 218 99.5 399t276 286.5t392.5 105.5q171 0 329.5 -75.5t264.5 -211.5l-144 -143q-162 227 -440 227q-128 0 -234 -45t-177.5 -123.5t-110.5 -186t-39 -230.5q0 -166 67 -298t198 -210t306 -78q279 0 441 227l143 -143q-106 -136 -264.5 -211.5t-329.5 -75.5
q-221 0 -400 105t-278.5 284.5t-99.5 396.5zM735 1632v226h226v-226h-226z" />
    <glyph glyph-name="Ccaron" unicode="&#x10c;" horiz-adv-x="1495" 
d="M82 745q0 218 99.5 399t276 286.5t392.5 105.5q171 0 329.5 -75.5t264.5 -211.5l-144 -143q-162 227 -440 227q-128 0 -234 -45t-177.5 -123.5t-110.5 -186t-39 -230.5q0 -166 67 -298t198 -210t306 -78q279 0 441 227l143 -143q-106 -136 -264.5 -211.5t-329.5 -75.5
q-221 0 -400 105t-278.5 284.5t-99.5 396.5zM1143 1808l-213 -200h-180l-213 200l129 131l174 -167l174 167z" />
    <glyph glyph-name="ccaron" unicode="&#x10d;" horiz-adv-x="1495" 
d="M82 745q0 218 99.5 399t276 286.5t392.5 105.5q171 0 329.5 -75.5t264.5 -211.5l-144 -143q-162 227 -440 227q-128 0 -234 -45t-177.5 -123.5t-110.5 -186t-39 -230.5q0 -166 67 -298t198 -210t306 -78q279 0 441 227l143 -143q-106 -136 -264.5 -211.5t-329.5 -75.5
q-221 0 -400 105t-278.5 284.5t-99.5 396.5zM1143 1808l-213 -200h-180l-213 200l129 131l174 -167l174 167z" />
    <glyph glyph-name="Dcaron" unicode="&#x10e;" horiz-adv-x="1351" 
d="M1229 1044v-593q0 -193 -131 -322t-330 -129h-604v1495h604q199 0 330 -129t131 -322zM1014 440v615q0 110 -69 172.5t-167 62.5h-399v-1085h399q98 0 167 62.5t69 172.5zM973 1808l-213 -200h-180l-213 200l129 131l174 -167l174 167z" />
    <glyph glyph-name="dcaron" unicode="&#x10f;" horiz-adv-x="1351" 
d="M502 0h-400v205h195v1085h-195v205h400q218 0 393 -94t275 -265.5t100 -387.5t-100 -387.5t-275 -266t-393 -94.5zM1055 748q0 253 -144.5 397.5t-398.5 144.5v-1085q254 0 398.5 144.5t144.5 398.5zM899 1808l-213 -200h-180l-213 200l129 131l174 -167l174 167z" />
    <glyph glyph-name="Dcroat" unicode="&#x110;" horiz-adv-x="1351" 
d="M1229 1044v-593q0 -193 -131 -322t-330 -129h-563v655h-185v185h185v655h563q199 0 330 -129t131 -322zM1014 440v615q0 110 -69 172.5t-167 62.5h-358v-450h215v-185h-215v-450h358q98 0 167 62.5t69 172.5z" />
    <glyph glyph-name="dcroat" unicode="&#x111;" horiz-adv-x="1351" 
d="M102 655v185h195v450h-195v205h400q218 0 393 -94t275 -265.5t100 -387.5t-100 -387.5t-275 -266t-393 -94.5h-400v205h195v450h-195zM1055 748q0 253 -144.5 397.5t-398.5 144.5v-450h205v-185h-205v-450q254 0 398.5 144.5t144.5 398.5z" />
    <glyph glyph-name="Emacron" unicode="&#x112;" horiz-adv-x="1167" 
d="M164 1495v-1495h942v205h-727v450h727v205h-727v430h727v205h-942zM365 1669v164h553v-164h-553z" />
    <glyph glyph-name="emacron" unicode="&#x113;" horiz-adv-x="1064" 
d="M246 1495v-1495h839v205h-624v450h624v205h-624v430h624v205h-839zM324 1669v164h553v-164h-553z" />
    <glyph glyph-name="Ebreve" unicode="&#x114;" horiz-adv-x="1167" 
d="M164 1495v-1495h942v205h-727v450h727v205h-727v430h727v205h-942zM643 1608q-129 0 -202.5 77.5t-73.5 174.5v14h174v-2q0 -40 25.5 -71.5t76.5 -31.5t76.5 31.5t25.5 71.5v2h175v-14q0 -97 -74 -174.5t-203 -77.5z" />
    <glyph glyph-name="ebreve" unicode="&#x115;" horiz-adv-x="1064" 
d="M246 1495v-1495h839v205h-624v450h624v205h-624v430h624v205h-839zM598 1608q-129 0 -202.5 77.5t-73.5 174.5v14h174v-2q0 -40 25.5 -71.5t76.5 -31.5t76.5 31.5t25.5 71.5v2h174v-14q0 -97 -73.5 -174.5t-202.5 -77.5z" />
    <glyph glyph-name="Edotaccent" unicode="&#x116;" horiz-adv-x="1167" 
d="M164 1495v-1495h942v205h-727v450h727v205h-727v430h727v205h-942zM520 1632v226h225v-226h-225z" />
    <glyph glyph-name="edotaccent" unicode="&#x117;" horiz-adv-x="1064" 
d="M246 1495v-1495h839v205h-624v450h624v205h-624v430h624v205h-839zM485 1632v226h226v-226h-226z" />
    <glyph glyph-name="Eogonek" unicode="&#x118;" horiz-adv-x="1167" 
d="M1106 0h-115l-57 -117q-10 -20 -10 -47q0 -34 28.5 -56t67.5 -22h45l-45 -168h-10q-126 0 -203.5 52.5t-77.5 138.5q0 41 19 89t79 130h-663v1495h942v-205h-727v-430h727v-205h-727v-450h727v-205z" />
    <glyph glyph-name="eogonek" unicode="&#x119;" horiz-adv-x="1064" 
d="M1085 0h-135l-57 -117q-10 -20 -10 -47q0 -34 28.5 -56t67.5 -22h45l-45 -168h-10q-126 0 -203.5 52.5t-77.5 138.5q0 41 19 89t79 130h-540v1495h839v-205h-624v-430h624v-205h-624v-450h624v-205z" />
    <glyph glyph-name="Ecaron" unicode="&#x11a;" horiz-adv-x="1167" 
d="M164 0v1495h942v-205h-727v-430h727v-205h-727v-450h727v-205h-942zM942 1808l-213 -200h-180l-213 200l129 131l174 -167l174 167z" />
    <glyph glyph-name="ecaron" unicode="&#x11b;" horiz-adv-x="1064" 
d="M246 0v1495h839v-205h-624v-430h624v-205h-624v-450h624v-205h-839zM903 1808l-213 -200h-180l-213 200l129 131l174 -167l174 167z" />
    <glyph glyph-name="Gcircumflex" unicode="&#x11c;" horiz-adv-x="1648" 
d="M1456 1251l-147 -147q-75 108 -193 167.5t-266 59.5q-250 0 -400.5 -163.5t-150.5 -422.5q0 -256 150.5 -418.5t400.5 -162.5q225 0 378.5 132t168.5 339h-905v205h921l195 -195q-7 -136 -71 -262.5t-165.5 -219.5t-238 -148.5t-283.5 -55.5q-216 0 -392.5 105
t-276 285.5t-99.5 398.5t99.5 398t278.5 285t400 105q180 0 333 -75.5t263 -209.5zM938 1939l213 -200l-129 -131l-174 168l-174 -168l-129 131l213 200h180z" />
    <glyph glyph-name="gcircumflex" unicode="&#x11d;" horiz-adv-x="1648" 
d="M1456 1251l-147 -147q-75 108 -193 167.5t-266 59.5q-250 0 -400.5 -163.5t-150.5 -422.5q0 -256 150.5 -418.5t400.5 -162.5q225 0 378.5 132t168.5 339h-475v205h491l195 -195q-7 -136 -71 -262.5t-165.5 -219.5t-238 -148.5t-283.5 -55.5q-216 0 -392.5 105
t-276 285.5t-99.5 398.5t99.5 398t278.5 285t400 105q180 0 333 -75.5t263 -209.5zM934 1939l213 -200l-129 -131l-174 168l-174 -168l-129 131l213 200h180z" />
    <glyph glyph-name="Gbreve" unicode="&#x11e;" horiz-adv-x="1648" 
d="M1309 1104l147 147q-110 134 -263 209.5t-333 75.5q-221 0 -400 -105t-278.5 -285t-99.5 -398t99.5 -398.5t276 -285.5t392.5 -105q147 0 283.5 55.5t238 148.5t165.5 219.5t71 262.5l-195 195h-921v-205h905q-15 -207 -168.5 -339t-378.5 -132q-250 0 -400.5 162.5
t-150.5 418.5q0 259 150.5 422.5t400.5 163.5q148 0 266 -59.5t193 -167.5zM854 1608q-129 0 -202.5 77.5t-73.5 174.5v14h174v-2q0 -40 25.5 -71.5t76.5 -31.5t76.5 31.5t25.5 71.5v2h174v-14q0 -97 -73.5 -174.5t-202.5 -77.5z" />
    <glyph glyph-name="gbreve" unicode="&#x11f;" horiz-adv-x="1648" 
d="M1309 1104l147 147q-110 134 -263 209.5t-333 75.5q-221 0 -400 -105t-278.5 -285t-99.5 -398t99.5 -398.5t276 -285.5t392.5 -105q147 0 283.5 55.5t238 148.5t165.5 219.5t71 262.5l-195 195h-491v-205h475q-15 -207 -168.5 -339t-378.5 -132q-250 0 -400.5 162.5
t-150.5 418.5q0 259 150.5 422.5t400.5 163.5q148 0 266 -59.5t193 -167.5zM852 1608q-129 0 -203 77.5t-74 174.5v14h175v-2q0 -40 25.5 -71.5t76.5 -31.5t76.5 31.5t25.5 71.5v2h174v-14q0 -97 -73.5 -174.5t-202.5 -77.5z" />
    <glyph glyph-name="Gdotaccent" unicode="&#x120;" horiz-adv-x="1648" 
d="M1309 1104l147 147q-110 134 -263 209.5t-333 75.5q-221 0 -400 -105t-278.5 -285t-99.5 -398t99.5 -398.5t276 -285.5t392.5 -105q147 0 283.5 55.5t238 148.5t165.5 219.5t71 262.5l-195 195h-921v-205h905q-15 -207 -168.5 -339t-378.5 -132q-250 0 -400.5 162.5
t-150.5 418.5q0 259 150.5 422.5t400.5 163.5q148 0 266 -59.5t193 -167.5zM750 1632v226h225v-226h-225z" />
    <glyph glyph-name="gdotaccent" unicode="&#x121;" horiz-adv-x="1648" 
d="M1309 1104l147 147q-110 134 -263 209.5t-333 75.5q-221 0 -400 -105t-278.5 -285t-99.5 -398t99.5 -398.5t276 -285.5t392.5 -105q147 0 283.5 55.5t238 148.5t165.5 219.5t71 262.5l-195 195h-491v-205h475q-15 -207 -168.5 -339t-378.5 -132q-250 0 -400.5 162.5
t-150.5 418.5q0 259 150.5 422.5t400.5 163.5q148 0 266 -59.5t193 -167.5zM748 1632v226h225v-226h-225z" />
    <glyph glyph-name="Gcommaaccent" unicode="&#x122;" horiz-adv-x="1648" 
d="M1456 1251l-147 -147q-75 108 -193 167.5t-266 59.5q-250 0 -400.5 -163.5t-150.5 -422.5q0 -256 150.5 -418.5t400.5 -162.5q225 0 378.5 132t168.5 339h-905v205h921l195 -195q-7 -136 -71 -262.5t-165.5 -219.5t-238 -148.5t-283.5 -55.5q-216 0 -392.5 105
t-276 285.5t-99.5 398.5t99.5 398t278.5 285t400 105q180 0 333 -75.5t263 -209.5zM961 -102l-130 -387l-178 47l111 340h197z" />
    <glyph glyph-name="gcommaaccent" unicode="&#x123;" horiz-adv-x="1648" 
d="M1456 1251l-147 -147q-75 108 -193 167.5t-266 59.5q-250 0 -400.5 -163.5t-150.5 -422.5q0 -256 150.5 -418.5t400.5 -162.5q225 0 378.5 132t168.5 339h-475v205h491l195 -195q-7 -136 -71 -262.5t-165.5 -219.5t-238 -148.5t-283.5 -55.5q-216 0 -392.5 105
t-276 285.5t-99.5 398.5t99.5 398t278.5 285t400 105q180 0 333 -75.5t263 -209.5zM965 -102l-129 -387l-179 47l111 340h197z" />
    <glyph glyph-name="Hcircumflex" unicode="&#x124;" horiz-adv-x="1331" 
d="M952 860v635h215v-1495h-215v655h-573v-655h-215v1495h215v-635h573zM756 1939l213 -200l-129 -131l-174 168l-174 -168l-130 131l213 200h181z" />
    <glyph glyph-name="hcircumflex" unicode="&#x125;" horiz-adv-x="1228" 
d="M850 860v635h215v-1495h-215v655h-471v-655h-215v1495h215v-635h471zM705 1939l213 -200l-130 -131l-174 168l-174 -168l-129 131l213 200h181z" />
    <glyph glyph-name="Hbar" unicode="&#x126;" horiz-adv-x="1331" 
d="M51 1065v205h113v225h215v-225h573v225h215v-225h113v-205h-113v-1065h-215v655h-573v-655h-215v1065h-113zM379 860h573v205h-573v-205z" />
    <glyph glyph-name="hbar" unicode="&#x127;" horiz-adv-x="1228" 
d="M82 1065v205h82v225h215v-225h471v225h215v-225h82v-205h-82v-1065h-215v655h-471v-655h-215v1065h-82zM379 860h471v205h-471v-205z" />
    <glyph glyph-name="Itilde" unicode="&#x128;" horiz-adv-x="593" 
d="M154 205v-205h286v205h-34v1085h34v205h-286v-205h34v-1085h-34zM428 1886q101 0 156 -68.5t43 -189.5h-168q12 80 -43 80q-20 0 -58 -20t-88.5 -40t-99.5 -20q-93 0 -144 57t-44 158l170 45q-9 -80 45 -80q24 0 61 19.5t81.5 39t88.5 19.5z" />
    <glyph glyph-name="itilde" unicode="&#x129;" horiz-adv-x="839" 
d="M61 205v-205h717v205h-250v1085h250v205h-717v-205h250v-1085h-250zM541 1886q101 0 155.5 -68.5t42.5 -189.5h-168q12 80 -43 80q-20 0 -58 -20t-88 -40t-99 -20q-94 0 -145 57t-44 158l170 45q-9 -80 45 -80q24 0 61 19.5t82 39t89 19.5z" />
    <glyph glyph-name="Imacron" unicode="&#x12a;" horiz-adv-x="593" 
d="M154 205v-205h286v205h-34v1085h34v205h-286v-205h34v-1085h-34zM23 1669v164h552v-164h-552z" />
    <glyph glyph-name="imacron" unicode="&#x12b;" horiz-adv-x="839" 
d="M61 205v-205h717v205h-250v1085h250v205h-717v-205h250v-1085h-250zM143 1669v164h553v-164h-553z" />
    <glyph glyph-name="Ibreve" unicode="&#x12c;" horiz-adv-x="593" 
d="M154 205v-205h286v205h-34v1085h34v205h-286v-205h34v-1085h-34zM297 1608q-129 0 -203 77.5t-74 174.5v14h175v-2q0 -40 25.5 -71.5t76.5 -31.5t76.5 31.5t25.5 71.5v2h174v-14q0 -97 -73.5 -174.5t-202.5 -77.5z" />
    <glyph glyph-name="ibreve" unicode="&#x12d;" horiz-adv-x="839" 
d="M61 205v-205h717v205h-250v1085h250v205h-717v-205h250v-1085h-250zM420 1608q-129 0 -203 77.5t-74 174.5v14h174v-2q0 -39 26 -71t77 -32t76.5 31.5t25.5 71.5v2h174v-14q0 -97 -73.5 -174.5t-202.5 -77.5z" />
    <glyph glyph-name="Iogonek" unicode="&#x12e;" horiz-adv-x="593" 
d="M440 0h-59l-57 -117q-11 -22 -11 -47q0 -34 28.5 -56t68.5 -22h45l-45 -168h-11q-126 0 -203 52.5t-77 138.5q0 41 19 89t79 130h-63v205h34v1085h-34v205h286v-205h-34v-1085h34v-205z" />
    <glyph glyph-name="iogonek" unicode="&#x12f;" horiz-adv-x="839" 
d="M778 0h-280l-58 -117q-10 -20 -10 -47q0 -34 28.5 -56t67.5 -22h45l-45 -168h-10q-126 0 -203 52.5t-77 138.5q0 41 19 89t79 130h-273v205h250v1085h-250v205h717v-205h-250v-1085h250v-205z" />
    <glyph glyph-name="Idotaccent" unicode="&#x130;" horiz-adv-x="593" 
d="M154 205v-205h286v205h-34v1085h34v205h-286v-205h34v-1085h-34zM184 1632v226h226v-226h-226z" />
    <glyph glyph-name="dotlessi" unicode="&#x131;" horiz-adv-x="839" 
d="M61 0v205h250v1085h-250v205h717v-205h-250v-1085h250v-205h-717z" />
    <glyph glyph-name="Jcircumflex" unicode="&#x134;" horiz-adv-x="1105" 
d="M276 430q0 -119 62 -192.5t174 -73.5t174 78t62 198v1055h215v-1044q0 -218 -123 -355t-328 -137q-207 0 -329 130.5t-122 340.5h215zM780 1939l213 -200l-129 -131l-174 168l-174 -168l-129 131l213 200h180z" />
    <glyph glyph-name="jcircumflex" unicode="&#x135;" horiz-adv-x="573" 
d="M102 -205l-41 21v184h41q41 0 67 22t26 60v1413h215v-1393q0 -138 -85 -222.5t-223 -84.5zM391 1939l213 -200l-129 -131l-174 168l-174 -168l-129 131l213 200h180z" />
    <glyph glyph-name="Kcommaaccent" unicode="&#x136;" horiz-adv-x="1208" 
d="M952 1495h256l-665 -735l665 -760h-274l-555 635v-635h-215v1495h215v-614zM739 -82l-129 -387l-178 47l111 340h196z" />
    <glyph glyph-name="kcommaaccent" unicode="&#x137;" horiz-adv-x="1085" 
d="M778 1495h246l-481 -733l481 -762h-256l-389 635v-635h-215v1495h215v-614zM676 -82l-129 -387l-178 47l110 340h197z" />
    <glyph glyph-name="Lacute" unicode="&#x139;" horiz-adv-x="1085" 
d="M164 1495v-1495h901v205h-686v1290h-215zM453 1939l139 -137l-193 -194h-235z" />
    <glyph glyph-name="lacute" unicode="&#x13a;" horiz-adv-x="1024" 
d="M164 1495v-1495h840v205h-625v1290h-215zM459 1939l139 -137l-192 -194h-236z" />
    <glyph glyph-name="Lcommaaccent" unicode="&#x13b;" horiz-adv-x="1085" 
d="M164 0v1495h215v-1290h686v-205h-901zM698 -82l-129 -387l-178 47l111 340h196z" />
    <glyph glyph-name="lcommaaccent" unicode="&#x13c;" horiz-adv-x="1024" 
d="M164 0v1495h215v-1290h625v-205h-840zM686 -82l-129 -387l-178 47l110 340h197z" />
    <glyph glyph-name="Lcaron" unicode="&#x13d;" horiz-adv-x="1085" 
d="M164 1495v-1495h901v205h-686v1290h-215zM799 1597l-140 -432l-170 56l119 376h191z" />
    <glyph glyph-name="lcaron" unicode="&#x13e;" horiz-adv-x="1024" 
d="M164 1495v-1495h840v205h-625v1290h-215zM799 1556l-140 -432l-170 56l119 376h191z" />
    <glyph glyph-name="Ldot" unicode="&#x13f;" horiz-adv-x="1085" 
d="M164 0v1495h215v-1290h686v-205h-901zM580 635v266h245v-266h-245z" />
    <glyph glyph-name="ldot" unicode="&#x140;" horiz-adv-x="1024" 
d="M164 0v1495h215v-1290h625v-205h-840zM559 635v266h246v-266h-246z" />
    <glyph glyph-name="Lslash" unicode="&#x141;" horiz-adv-x="1085" 
d="M61 369v204l103 56v866h215v-747l317 174v-205l-317 -174v-338h686v-205h-901v424z" />
    <glyph glyph-name="lslash" unicode="&#x142;" horiz-adv-x="1003" 
d="M61 369v204l123 68v854h215v-737l297 164v-205l-297 -164v-348h584v-205h-799v436z" />
    <glyph glyph-name="Nacute" unicode="&#x143;" horiz-adv-x="1413" 
d="M1036 1495v-1106l-637 1106h-235v-1495h213v1126l637 -1126h235v1495h-213zM860 1939l139 -137l-192 -194h-236z" />
    <glyph glyph-name="nacute" unicode="&#x144;" horiz-adv-x="1187" 
d="M831 1495v-1159l-380 1159h-287v-1495h192v1159l381 -1159h287v1495h-193zM774 1939l139 -137l-192 -194h-236z" />
    <glyph glyph-name="Ncommaaccent" unicode="&#x145;" horiz-adv-x="1413" 
d="M815 -82l-129 -387l-178 47l110 340h197zM1036 389v1106h213v-1495h-235l-637 1126v-1126h-213v1495h235z" />
    <glyph glyph-name="ncommaaccent" unicode="&#x146;" horiz-adv-x="1187" 
d="M831 336v1159h193v-1495h-287l-381 1159v-1159h-192v1495h287zM662 -82l-130 -387l-178 47l111 340h197z" />
    <glyph glyph-name="Ncaron" unicode="&#x147;" horiz-adv-x="1413" 
d="M1016 1808l-213 -200h-180l-213 200l129 131l174 -167l174 167zM1036 389v1106h213v-1495h-235l-637 1126v-1126h-213v1495h235z" />
    <glyph glyph-name="ncaron" unicode="&#x148;" horiz-adv-x="1187" 
d="M831 336v1159h193v-1495h-287l-381 1159v-1159h-192v1495h287zM897 1808l-213 -200h-180l-213 200l129 131l174 -167l174 167z" />
    <glyph glyph-name="Eng" unicode="&#x14a;" horiz-adv-x="1413" 
d="M944 -434l-41 20v185h41q41 0 66.5 22t25.5 60v147l-659 1126v-1126h-213v1495h235l637 -1106v1106h213v-1622q0 -138 -83.5 -222.5t-221.5 -84.5z" />
    <glyph glyph-name="eng" unicode="&#x14b;" horiz-adv-x="1187" 
d="M831 336v1159h193v-1622q0 -138 -83.5 -222.5t-221.5 -84.5l-41 20v185h53q41 0 66.5 22t25.5 60v147h-86l-381 1159v-1159h-192v1495h287z" />
    <glyph glyph-name="Omacron" unicode="&#x14c;" horiz-adv-x="1740" 
d="M82 748q0 -161 62.5 -307t167.5 -251.5t251 -168t307 -62.5t307 62.5t251.5 168t168 251.5t62.5 307t-62.5 307t-168 251t-251.5 167.5t-307 62.5q-214 0 -395.5 -105.5t-287 -287t-105.5 -395.5zM297 745q0 126 42.5 234.5t117 186t181.5 121.5t232 44q252 0 412 -165
t160 -421q0 -253 -160 -417t-412 -164t-412.5 164t-160.5 417zM594 1669v164h553v-164h-553z" />
    <glyph glyph-name="omacron" unicode="&#x14d;" horiz-adv-x="1740" 
d="M82 748q0 -161 62.5 -307t167.5 -251.5t251 -168t307 -62.5t307 62.5t251.5 168t168 251.5t62.5 307t-62.5 307t-168 251t-251.5 167.5t-307 62.5q-214 0 -395.5 -105.5t-287 -287t-105.5 -395.5zM297 745q0 126 42.5 234.5t117 186t181.5 121.5t232 44q252 0 412 -165
t160 -421q0 -253 -160 -417t-412 -164t-412.5 164t-160.5 417zM594 1669v164h553v-164h-553z" />
    <glyph glyph-name="Obreve" unicode="&#x14e;" horiz-adv-x="1740" 
d="M82 748q0 -161 62.5 -307t167.5 -251.5t251 -168t307 -62.5t307 62.5t251.5 168t168 251.5t62.5 307t-62.5 307t-168 251t-251.5 167.5t-307 62.5q-214 0 -395.5 -105.5t-287 -287t-105.5 -395.5zM297 745q0 126 42.5 234.5t117 186t181.5 121.5t232 44q252 0 412 -165
t160 -421q0 -253 -160 -417t-412 -164t-412.5 164t-160.5 417zM870 1608q-129 0 -202.5 77.5t-73.5 174.5v14h174v-2q0 -40 25.5 -71.5t76.5 -31.5t77 32t26 71v2h174v-14q0 -97 -74 -174.5t-203 -77.5z" />
    <glyph glyph-name="obreve" unicode="&#x14f;" horiz-adv-x="1740" 
d="M82 748q0 -161 62.5 -307t167.5 -251.5t251 -168t307 -62.5t307 62.5t251.5 168t168 251.5t62.5 307t-62.5 307t-168 251t-251.5 167.5t-307 62.5q-214 0 -395.5 -105.5t-287 -287t-105.5 -395.5zM297 745q0 126 42.5 234.5t117 186t181.5 121.5t232 44q252 0 412 -165
t160 -421q0 -253 -160 -417t-412 -164t-412.5 164t-160.5 417zM870 1608q-129 0 -202.5 77.5t-73.5 174.5v14h174v-2q0 -40 25.5 -71.5t76.5 -31.5t77 32t26 71v2h174v-14q0 -97 -74 -174.5t-203 -77.5z" />
    <glyph glyph-name="Ohungarumlaut" unicode="&#x150;" horiz-adv-x="1740" 
d="M82 748q0 -161 62.5 -307t167.5 -251.5t251 -168t307 -62.5t307 62.5t251.5 168t168 251.5t62.5 307t-62.5 307t-168 251t-251.5 167.5t-307 62.5q-214 0 -395.5 -105.5t-287 -287t-105.5 -395.5zM297 745q0 126 42.5 234.5t117 186t181.5 121.5t232 44q252 0 412 -165
t160 -421q0 -253 -160 -417t-412 -164t-412.5 164t-160.5 417zM811 1944l160 -97l-156 -241h-197zM1182 1952l141 -117l-203 -229h-211z" />
    <glyph glyph-name="ohungarumlaut" unicode="&#x151;" horiz-adv-x="1740" 
d="M82 748q0 -161 62.5 -307t167.5 -251.5t251 -168t307 -62.5t307 62.5t251.5 168t168 251.5t62.5 307t-62.5 307t-168 251t-251.5 167.5t-307 62.5q-214 0 -395.5 -105.5t-287 -287t-105.5 -395.5zM297 745q0 126 42.5 234.5t117 186t181.5 121.5t232 44q252 0 412 -165
t160 -421q0 -253 -160 -417t-412 -164t-412.5 164t-160.5 417zM815 1944l160 -97l-156 -241h-196zM1186 1952l141 -117l-203 -229h-211z" />
    <glyph glyph-name="OE" unicode="&#x152;" horiz-adv-x="1966" 
d="M1864 0h-738q-121 -41 -266 -41q-216 0 -395 105t-281 286t-102 398q0 162 60 308t163.5 251.5t248 167t306.5 61.5q145 0 266 -41h738v-205h-523v-430h523v-205h-523v-450h523v-205zM1126 217v1063q-111 51 -256 51q-125 0 -232 -44t-181.5 -121.5t-117 -186
t-42.5 -234.5q0 -253 160.5 -417t412.5 -164q141 0 256 53z" />
    <glyph glyph-name="oe" unicode="&#x153;" horiz-adv-x="1904" 
d="M1864 0h-738q-121 -41 -266 -41q-216 0 -395 105t-281 286t-102 398q0 162 60 308t163.5 251.5t248 167t306.5 61.5q145 0 266 -41h738v-205h-523v-430h523v-205h-523v-450h523v-205zM1126 217v1063q-111 51 -256 51q-125 0 -232 -44t-181.5 -121.5t-117 -186
t-42.5 -234.5q0 -253 160.5 -417t412.5 -164q141 0 256 53z" />
    <glyph glyph-name="Racute" unicode="&#x154;" horiz-adv-x="1249" 
d="M809 655q110 5 206.5 55t160 146t63.5 219q0 129 -64.5 226t-168 145.5t-228.5 48.5h-614v-1495h215v655h184l430 -655h236v41zM788 860h-409v430h409q99 0 167.5 -56.5t68.5 -158.5t-68.5 -158.5t-167.5 -56.5zM780 1939l140 -137l-193 -194h-235z" />
    <glyph glyph-name="racute" unicode="&#x155;" horiz-adv-x="1320" 
d="M737 655h41q124 0 230.5 50.5t173.5 148t67 221.5q0 129 -64.5 226t-168 145.5t-228.5 48.5h-624v-1495h215v655h61l748 -655h41v246zM799 860h-420v430h420q96 0 165.5 -59.5t69.5 -155.5t-69.5 -155.5t-165.5 -59.5zM780 1939l140 -137l-193 -194h-235z" />
    <glyph glyph-name="Rcommaaccent" unicode="&#x156;" horiz-adv-x="1249" 
d="M809 655l420 -614v-41h-236l-430 655h-184v-655h-215v1495h614q125 0 228.5 -48.5t168 -145.5t64.5 -226q0 -123 -63.5 -219t-160 -146t-206.5 -55zM379 860h409q99 0 167.5 56.5t68.5 158.5t-68.5 158.5t-167.5 56.5h-409v-430zM778 -82l-129 -387l-178 47l111 340h196z
" />
    <glyph glyph-name="rcommaaccent" unicode="&#x157;" horiz-adv-x="1320" 
d="M778 655h-41l492 -409v-246h-41l-748 655h-61v-655h-215v1495h624q125 0 228.5 -48.5t168 -145.5t64.5 -226q0 -124 -67 -221.5t-173.5 -148t-230.5 -50.5zM379 860h420q96 0 165.5 59.5t69.5 155.5t-69.5 155.5t-165.5 59.5h-420v-430zM819 -82l-129 -387l-178 47
l111 340h196z" />
    <glyph glyph-name="Rcaron" unicode="&#x158;" horiz-adv-x="1249" 
d="M809 655l420 -614v-41h-236l-430 655h-184v-655h-215v1495h614q125 0 228.5 -48.5t168 -145.5t64.5 -226q0 -123 -63.5 -219t-160 -146t-206.5 -55zM379 860h409q99 0 167.5 56.5t68.5 158.5t-68.5 158.5t-167.5 56.5h-409v-430zM948 1808l-213 -200h-180l-213 200
l129 131l174 -167l174 167z" />
    <glyph glyph-name="rcaron" unicode="&#x159;" horiz-adv-x="1320" 
d="M778 655h-41l492 -409v-246h-41l-748 655h-61v-655h-215v1495h624q125 0 228.5 -48.5t168 -145.5t64.5 -226q0 -124 -67 -221.5t-173.5 -148t-230.5 -50.5zM379 860h420q96 0 165.5 59.5t69.5 155.5t-69.5 155.5t-165.5 59.5h-420v-430zM948 1808l-213 -200h-180
l-213 200l129 131l174 -167l174 167z" />
    <glyph glyph-name="Sacute" unicode="&#x15a;" horiz-adv-x="1187" 
d="M1055 1106h-226q0 93 -74.5 159t-181.5 66q-112 0 -178.5 -60.5t-66.5 -154.5q0 -173 235 -235q66 -17 164 -39q80 -19 144.5 -52.5t116 -85t80 -126.5t28.5 -168q0 -89 -34.5 -169t-97 -141t-158.5 -97t-212 -36q-136 0 -256.5 62.5t-192 165t-73.5 215.5l215 71
q-2 -97 43.5 -168.5t114.5 -105t149 -33.5q130 0 208.5 64.5t78.5 171.5q0 179 -236 225q-77 16 -164 43q-77 23 -140.5 59.5t-116 90t-82 129.5t-29.5 169q0 175 132 288.5t328 113.5q202 0 342 -120t140 -302zM748 1939l139 -137l-193 -194h-235z" />
    <glyph glyph-name="sacute" unicode="&#x15b;" horiz-adv-x="1259" 
d="M397 1126q0 -92 57.5 -149t180.5 -88q66 -17 164 -39q165 -36 266.5 -144.5t101.5 -283.5q0 -85 -34.5 -164t-96.5 -141t-158.5 -99.5t-211.5 -37.5h-123q-102 0 -197 38.5t-163 100.5t-109.5 144t-42.5 167l211 82q-1 -73 25.5 -136t70.5 -103.5t97.5 -63.5t107.5 -23
h123q130 0 208 64.5t78 171.5q0 58 -21 100.5t-59.5 66.5t-73 36.5t-81.5 21.5q-57 12 -164 41q-369 110 -369 438q0 175 133 290.5t328 115.5q132 0 242 -54.5t174.5 -152.5t64.5 -219h-225q0 93 -74.5 159t-181.5 66q-109 0 -178.5 -58t-69.5 -147zM803 1939l139 -137
l-192 -194h-236z" />
    <glyph glyph-name="Scircumflex" unicode="&#x15c;" horiz-adv-x="1187" 
d="M1055 1106h-226q0 93 -74.5 159t-181.5 66q-112 0 -178.5 -60.5t-66.5 -154.5q0 -173 235 -235q66 -17 164 -39q80 -19 144.5 -52.5t116 -85t80 -126.5t28.5 -168q0 -89 -34.5 -169t-97 -141t-158.5 -97t-212 -36q-136 0 -256.5 62.5t-192 165t-73.5 215.5l215 71
q-2 -97 43.5 -168.5t114.5 -105t149 -33.5q130 0 208.5 64.5t78.5 171.5q0 179 -236 225q-77 16 -164 43q-77 23 -140.5 59.5t-116 90t-82 129.5t-29.5 169q0 175 132 288.5t328 113.5q202 0 342 -120t140 -302zM678 1939l213 -200l-129 -131l-174 168l-174 -168l-129 131
l213 200h180z" />
    <glyph glyph-name="scircumflex" unicode="&#x15d;" horiz-adv-x="1259" 
d="M397 1126q0 -92 57.5 -149t180.5 -88q66 -17 164 -39q165 -36 266.5 -144.5t101.5 -283.5q0 -85 -34.5 -164t-96.5 -141t-158.5 -99.5t-211.5 -37.5h-123q-102 0 -197 38.5t-163 100.5t-109.5 144t-42.5 167l211 82q-1 -73 25.5 -136t70.5 -103.5t97.5 -63.5t107.5 -23
h123q130 0 208 64.5t78 171.5q0 58 -21 100.5t-59.5 66.5t-73 36.5t-81.5 21.5q-57 12 -164 41q-369 110 -369 438q0 175 133 290.5t328 115.5q132 0 242 -54.5t174.5 -152.5t64.5 -219h-225q0 93 -74.5 159t-181.5 66q-109 0 -178.5 -58t-69.5 -147zM735 1939l213 -200
l-129 -131l-174 168l-174 -168l-129 131l213 200h180z" />
    <glyph glyph-name="Scedilla" unicode="&#x15e;" horiz-adv-x="1187" 
d="M360 -401l84 141q6 -5 15.5 -13t40 -21t59.5 -13q34 0 53 14t19 37q0 24 -19.5 37.5t-52.5 13.5h-47v178q-181 28 -309 155t-131 282l215 71q-2 -97 43.5 -168.5t114.5 -105t149 -33.5q130 0 208.5 64.5t78.5 171.5q0 179 -236 225q-77 16 -164 43q-77 23 -140.5 59.5
t-116 90t-82 129.5t-29.5 169q0 175 132 288.5t328 113.5q202 0 342 -120t140 -302h-226q0 93 -74.5 159t-181.5 66q-112 0 -178.5 -60.5t-66.5 -154.5q0 -173 235 -235q66 -17 164 -39q80 -19 144.5 -52.5t116 -85t80 -126.5t28.5 -168q0 -170 -116.5 -294.5t-315.5 -144.5
v-49q54 -9 99.5 -57t45.5 -121q0 -96 -70 -155.5t-184 -59.5q-109 0 -195 70z" />
    <glyph glyph-name="scedilla" unicode="&#x15f;" horiz-adv-x="1259" 
d="M373 -381l84 141q5 -5 15 -13t40 -21t59 -13q34 0 53 14t19 37q0 24 -19.5 38t-52.5 14h-47v164q-132 5 -245.5 70t-179.5 167t-68 213l211 82q-1 -73 25.5 -136t70.5 -103.5t97.5 -63.5t107.5 -23h123q130 0 208 64.5t78 171.5q0 58 -21 100.5t-59.5 66.5t-73 36.5
t-81.5 21.5q-57 12 -164 41q-369 110 -369 438q0 175 133 290.5t328 115.5q132 0 242 -54.5t174.5 -152.5t64.5 -219h-225q0 93 -74.5 159t-181.5 66q-109 0 -178.5 -58t-69.5 -147q0 -92 57.5 -149t180.5 -88q66 -17 164 -39q165 -36 266.5 -144.5t101.5 -283.5
q0 -84 -33.5 -162.5t-94.5 -140t-155.5 -99.5t-207.5 -40v-37q54 -9 99.5 -57.5t45.5 -121.5q0 -96 -70 -155.5t-184 -59.5q-108 0 -194 70z" />
    <glyph glyph-name="Scaron" unicode="&#x160;" horiz-adv-x="1187" 
d="M1055 1106h-226q0 93 -74.5 159t-181.5 66q-112 0 -178.5 -60.5t-66.5 -154.5q0 -173 235 -235q66 -17 164 -39q80 -19 144.5 -52.5t116 -85t80 -126.5t28.5 -168q0 -89 -34.5 -169t-97 -141t-158.5 -97t-212 -36q-136 0 -256.5 62.5t-192 165t-73.5 215.5l215 71
q-2 -97 43.5 -168.5t114.5 -105t149 -33.5q130 0 208.5 64.5t78.5 171.5q0 179 -236 225q-77 16 -164 43q-77 23 -140.5 59.5t-116 90t-82 129.5t-29.5 169q0 175 132 288.5t328 113.5q202 0 342 -120t140 -302zM885 1808l-213 -200h-180l-213 200l129 131l174 -167l174 167
z" />
    <glyph glyph-name="scaron" unicode="&#x161;" horiz-adv-x="1259" 
d="M397 1126q0 -92 57.5 -149t180.5 -88q66 -17 164 -39q165 -36 266.5 -144.5t101.5 -283.5q0 -85 -34.5 -164t-96.5 -141t-158.5 -99.5t-211.5 -37.5h-123q-102 0 -197 38.5t-163 100.5t-109.5 144t-42.5 167l211 82q-1 -73 25.5 -136t70.5 -103.5t97.5 -63.5t107.5 -23
h123q130 0 208 64.5t78 171.5q0 58 -21 100.5t-59.5 66.5t-73 36.5t-81.5 21.5q-57 12 -164 41q-369 110 -369 438q0 175 133 290.5t328 115.5q132 0 242 -54.5t174.5 -152.5t64.5 -219h-225q0 93 -74.5 159t-181.5 66q-109 0 -178.5 -58t-69.5 -147zM946 1808l-213 -200
h-180l-213 200l129 131l174 -167l174 167z" />
    <glyph glyph-name="Tcedilla" unicode="&#x162;" horiz-adv-x="962" 
d="M254 -371l84 142q6 -5 15.5 -13t40 -21t59.5 -13q33 0 52 14t19 37q0 24 -19 37.5t-52 13.5h-47v174h-33v1290h-353v205h922v-205h-352v-1290h-33v-47q54 -9 99.5 -57t45.5 -121q0 -96 -69.5 -155.5t-183.5 -59.5q-111 0 -195 69z" />
    <glyph glyph-name="tcedilla" unicode="&#x163;" horiz-adv-x="1126" 
d="M389 0v205h66v1085h-435v205h1086v-205h-434v-1085h65v-205h-98v-47q54 -9 99.5 -57t45.5 -121q0 -96 -70 -155.5t-184 -59.5q-110 0 -194 69l84 142q6 -5 15.5 -13t40 -21t59.5 -13q33 0 52 14t19 37q0 24 -19 37.5t-52 13.5h-48v174h-98z" />
    <glyph glyph-name="Tcaron" unicode="&#x164;" horiz-adv-x="962" 
d="M20 1495h922v-205h-352v-1290h-217v1290h-353v205zM784 1808l-213 -200h-180l-213 200l129 131l174 -167l174 167z" />
    <glyph glyph-name="tcaron" unicode="&#x165;" horiz-adv-x="1126" 
d="M389 0v205h66v1085h-435v205h1086v-205h-434v-1085h65v-205h-348zM866 1808l-213 -200h-180l-213 200l129 131l174 -167l174 167z" />
    <glyph glyph-name="Tbar" unicode="&#x166;" horiz-adv-x="962" 
d="M20 1495h922v-205h-352v-450h282v-205h-282v-635h-217v635h-279v205h279v450h-353v205z" />
    <glyph glyph-name="tbar" unicode="&#x167;" horiz-adv-x="1126" 
d="M174 635v205h281v450h-435v205h1086v-205h-434v-450h280v-205h-280v-430h65v-205h-348v205h66v430h-281z" />
    <glyph glyph-name="Utilde" unicode="&#x168;" horiz-adv-x="1433" 
d="M1055 430v1065h215v-1065q0 -191 -130 -310.5t-331 -119.5h-184q-201 0 -331 119.5t-130 310.5v1065h215v-1065q0 -109 68 -167t167 -58h205q100 0 168 58t68 167zM846 1886q101 0 155.5 -68.5t42.5 -189.5h-167q12 80 -43 80q-20 0 -58 -20t-88.5 -40t-99.5 -20
q-94 0 -145 57t-44 158l170 45q-9 -80 45 -80q24 0 61 19.5t82 39t89 19.5z" />
    <glyph glyph-name="utilde" unicode="&#x169;" horiz-adv-x="1310" 
d="M655 -41q-150 0 -268 68t-181 184.5t-63 259.5v1024h215v-1034q0 -131 75 -214t222 -83t222 83t75 214v1034h215v-1024q0 -143 -63 -259.5t-181 -184.5t-268 -68zM786 1886q101 0 156 -68.5t43 -189.5h-168q12 80 -43 80q-20 0 -58 -20t-88.5 -40t-99.5 -20
q-93 0 -144 57t-44 158l170 45q-9 -80 45 -80q24 0 61 19.5t81.5 39t88.5 19.5z" />
    <glyph glyph-name="Umacron" unicode="&#x16a;" horiz-adv-x="1433" 
d="M1055 430v1065h215v-1065q0 -191 -130 -310.5t-331 -119.5h-184q-201 0 -331 119.5t-130 310.5v1065h215v-1065q0 -109 68 -167t167 -58h205q100 0 168 58t68 167zM440 1669v164h553v-164h-553z" />
    <glyph glyph-name="umacron" unicode="&#x16b;" horiz-adv-x="1310" 
d="M655 -41q-150 0 -268 68t-181 184.5t-63 259.5v1024h215v-1034q0 -131 75 -214t222 -83t222 83t75 214v1034h215v-1024q0 -143 -63 -259.5t-181 -184.5t-268 -68zM379 1669v164h553v-164h-553z" />
    <glyph glyph-name="Ubreve" unicode="&#x16c;" horiz-adv-x="1433" 
d="M1055 430v1065h215v-1065q0 -191 -130 -310.5t-331 -119.5h-184q-201 0 -331 119.5t-130 310.5v1065h215v-1065q0 -109 68 -167t167 -58h205q100 0 168 58t68 167zM719 1608q-129 0 -203 77.5t-74 174.5v14h174v-2q0 -39 26 -71t77 -32t76.5 31.5t25.5 71.5v2h174v-14
q0 -97 -73.5 -174.5t-202.5 -77.5z" />
    <glyph glyph-name="ubreve" unicode="&#x16d;" horiz-adv-x="1310" 
d="M655 -41q-150 0 -268 68t-181 184.5t-63 259.5v1024h215v-1034q0 -131 75 -214t222 -83t222 83t75 214v1034h215v-1024q0 -143 -63 -259.5t-181 -184.5t-268 -68zM655 1608q-129 0 -202.5 77.5t-73.5 174.5v14h174v-2q0 -40 25.5 -71.5t76.5 -31.5t77 32t26 71v2h174v-14
q0 -97 -74 -174.5t-203 -77.5z" />
    <glyph glyph-name="Uring" unicode="&#x16e;" horiz-adv-x="1433" 
d="M1055 430v1065h215v-1065q0 -191 -130 -310.5t-331 -119.5h-184q-201 0 -331 119.5t-130 310.5v1065h215v-1065q0 -109 68 -167t167 -58h205q100 0 168 58t68 167zM489 1765q0 97 66.5 160.5t161.5 63.5t161 -63.5t66 -160.5t-66 -160t-161 -63t-161.5 63t-66.5 160z
M629 1765q0 -38 25 -63t63 -25t63 25t25 63t-25 63t-63 25t-63 -25t-25 -63z" />
    <glyph glyph-name="uring" unicode="&#x16f;" horiz-adv-x="1310" 
d="M655 -41q-150 0 -268 68t-181 184.5t-63 259.5v1024h215v-1034q0 -131 75 -214t222 -83t222 83t75 214v1034h215v-1024q0 -143 -63 -259.5t-181 -184.5t-268 -68zM428 1765q0 97 66 160.5t161 63.5t161.5 -63.5t66.5 -160.5t-66.5 -160t-161.5 -63t-161 63t-66 160z
M567 1765q0 -38 25 -63t63 -25t63 25t25 63t-25 63t-63 25t-63 -25t-25 -63z" />
    <glyph glyph-name="Uhungarumlaut" unicode="&#x170;" horiz-adv-x="1433" 
d="M1055 430v1065h215v-1065q0 -191 -130 -310.5t-331 -119.5h-184q-201 0 -331 119.5t-130 310.5v1065h215v-1065q0 -109 68 -167t167 -58h205q100 0 168 58t68 167zM657 1944l160 -97l-155 -241h-197zM1028 1952l141 -117l-202 -229h-211z" />
    <glyph glyph-name="uhungarumlaut" unicode="&#x171;" horiz-adv-x="1310" 
d="M655 -41q-150 0 -268 68t-181 184.5t-63 259.5v1024h215v-1034q0 -131 75 -214t222 -83t222 83t75 214v1034h215v-1024q0 -143 -63 -259.5t-181 -184.5t-268 -68zM598 1944l160 -97l-156 -241h-196zM969 1952l141 -117l-203 -229h-211z" />
    <glyph glyph-name="Uogonek" unicode="&#x172;" horiz-adv-x="1433" 
d="M1055 430v1065h215v-1065q0 -134 -67 -235.5t-183 -153.5q-115 -128 -115 -205q0 -34 28.5 -56t67.5 -22h46l-46 -168h-10q-126 0 -203 52.5t-77 138.5q0 100 116 219h-18h-184q-201 0 -331 119.5t-130 310.5v1065h215v-1065q0 -109 68 -167t167 -58h205q100 0 168 58
t68 167z" />
    <glyph glyph-name="uogonek" unicode="&#x173;" horiz-adv-x="1310" 
d="M655 -41q-150 0 -268 68t-181 184.5t-63 259.5v1024h215v-1034q0 -131 75 -214t222 -83t222 83t75 214v1034h215v-1024q0 -136 -58.5 -249t-162.5 -181l10 2q-116 -129 -116 -207q0 -34 28.5 -56t67.5 -22h45l-45 -168h-10q-126 0 -203.5 52.5t-77.5 138.5q0 87 84 184
q-38 -6 -74 -6z" />
    <glyph glyph-name="Wcircumflex" unicode="&#x174;" horiz-adv-x="1783" 
d="M778 1495h228l284 -1075l234 1075h217l-328 -1495h-215l-307 1106l-307 -1106h-215l-328 1495h217l231 -1075zM981 1939l213 -200l-129 -131l-174 168l-174 -168l-129 131l213 200h180z" />
    <glyph glyph-name="wcircumflex" unicode="&#x175;" horiz-adv-x="1658" 
d="M41 1495h217l285 -1165l153 796h267l153 -796l285 1165h217l-389 -1495h-236l-164 758l-163 -758h-236zM920 1939l213 -200l-129 -131l-175 168l-174 -168l-129 131l213 200h181z" />
    <glyph glyph-name="Ycircumflex" unicode="&#x176;" horiz-adv-x="1085" 
d="M633 1939l213 -200l-129 -131l-174 168l-174 -168l-129 131l213 200h180zM20 1495h240l283 -479l280 479h242l-414 -696v-799h-217v799z" />
    <glyph glyph-name="ycircumflex" unicode="&#x177;" horiz-adv-x="1064" 
d="M41 1495h229l285 -686l270 686h219l-587 -1495h-221l217 557zM645 1939l213 -200l-129 -131l-174 168l-174 -168l-129 131l213 200h180z" />
    <glyph glyph-name="Ydieresis" unicode="&#x178;" horiz-adv-x="1085" 
d="M225 1632v226h224v-226h-224zM635 1632v226h225v-226h-225zM260 1495h-240l414 -696v-799h217v799l414 696h-242l-280 -479z" />
    <glyph glyph-name="Zacute" unicode="&#x179;" horiz-adv-x="1146" 
d="M102 1495v-205h744l-785 -1085v-205h1004v205h-764l784 1085v205h-983zM737 1939l140 -137l-193 -194h-235z" />
    <glyph glyph-name="zacute" unicode="&#x17a;" horiz-adv-x="983" 
d="M123 1495v-205h549l-590 -1085v-205h799v205h-568l588 1085v205h-778zM651 1939l140 -137l-193 -194h-236z" />
    <glyph glyph-name="Zdotaccent" unicode="&#x17b;" horiz-adv-x="1146" 
d="M485 1632v226h226v-226h-226zM102 1495v-205h744l-785 -1085v-205h1004v205h-764l784 1085v205h-983z" />
    <glyph glyph-name="zdotaccent" unicode="&#x17c;" horiz-adv-x="983" 
d="M123 1495v-205h549l-590 -1085v-205h799v205h-568l588 1085v205h-778zM403 1632v226h226v-226h-226z" />
    <glyph glyph-name="Zcaron" unicode="&#x17d;" horiz-adv-x="1146" 
d="M903 1808l-213 -200h-180l-213 200l129 131l174 -167l174 167zM102 1290v205h983v-205l-784 -1085h764v-205h-1004v205l785 1085h-744z" />
    <glyph glyph-name="zcaron" unicode="&#x17e;" horiz-adv-x="983" 
d="M123 1290v205h778v-205l-588 -1085h568v-205h-799v205l590 1085h-549zM817 1808l-213 -200h-180l-213 200l129 131l174 -167l174 167z" />
    <glyph glyph-name="florin" unicode="&#x192;" horiz-adv-x="983" 
d="M594 676v-656q0 -142 -78.5 -224.5t-228.5 -82.5l-144 21v184l154 -20q45 0 68.5 27.5t23.5 74.5v676h-348v184h348v389q0 142 78.5 224.5t228.5 82.5l144 -20v-184l-154 20q-45 0 -68.5 -27.5t-23.5 -74.5v-410h348v-184h-348z" />
    <glyph glyph-name="Aringacute" unicode="&#x1fa;" horiz-adv-x="1331" 
d="M440 1757q0 -97 66.5 -160t161.5 -63t161 63t66 160t-66 160t-161 63t-161.5 -63t-66.5 -160zM580 1757q0 38 25 63t63 25t63 -25t25 -63t-25 -63t-63 -25t-63 25t-25 63zM41 0h215l166 492h485l168 -492h215l-512 1495h-225zM666 1206l174 -510h-348zM850 2351l139 -137
l-192 -195h-236z" />
    <glyph glyph-name="aringacute" unicode="&#x1fb;" horiz-adv-x="1167" 
d="M430 1495l-389 -1495h213l78 307h502l79 -307h213l-389 1495h-307zM385 510l199 793l196 -793h-395zM356 1757q0 -97 66.5 -160t161.5 -63t161 63t66 160t-66 160t-161 63t-161.5 -63t-66.5 -160zM496 1757q0 38 25 63t63 25t63 -25t25 -63t-25 -63t-63 -25t-63 25
t-25 63zM752 2355l139 -137l-193 -195h-235z" />
    <glyph glyph-name="AEacute" unicode="&#x1fc;" horiz-adv-x="1576" 
d="M492 1495l-451 -1495h215l145 492h406l145 -492h584v205h-430l-137 450h567v205h-629l-129 430h758v205h-1044zM461 696l143 492l144 -492h-287zM1139 1939l139 -137l-193 -194h-235z" />
    <glyph glyph-name="aeacute" unicode="&#x1fd;" horiz-adv-x="1638" 
d="M492 1495l-451 -1495h215l119 410h456l121 -410h584v205h-430l-137 450h567v205h-629l-129 430h758v205h-1044zM436 614l168 570l168 -570h-336zM928 1939l139 -137l-193 -194h-235z" />
    <glyph glyph-name="Oslashacute" unicode="&#x1fe;" horiz-adv-x="1740" 
d="M82 748q0 -137 44.5 -263.5t125.5 -228.5l-252 -256h266l121 123q214 -164 483 -164q161 0 307 62.5t251.5 168t168 251.5t62.5 307q0 278 -172 491l254 256h-266l-123 -123q-214 164 -482 164q-214 0 -395.5 -105.5t-287 -287t-105.5 -395.5zM297 745q0 126 42.5 234.5
t117 186t181.5 121.5t232 44q199 0 340 -104l-813 -826q-100 149 -100 344zM870 164q-197 0 -342 102l813 826q101 -154 101 -347q0 -253 -160 -417t-412 -164zM1047 1939l139 -137l-193 -194h-235z" />
    <glyph glyph-name="oslashacute" unicode="&#x1ff;" horiz-adv-x="1740" 
d="M82 748q0 -137 44.5 -263.5t125.5 -228.5l-252 -256h266l121 123q214 -164 483 -164q161 0 307 62.5t251.5 168t168 251.5t62.5 307q0 278 -172 491l254 256h-266l-123 -123q-214 164 -482 164q-214 0 -395.5 -105.5t-287 -287t-105.5 -395.5zM297 745q0 126 42.5 234.5
t117 186t181.5 121.5t232 44q199 0 340 -104l-813 -826q-100 149 -100 344zM870 164q-197 0 -342 102l813 826q101 -154 101 -347q0 -253 -160 -417t-412 -164zM1034 1939l140 -137l-193 -194h-236z" />
    <glyph glyph-name="Scommaaccent" unicode="&#x218;" horiz-adv-x="1187" 
d="M1055 1106h-226q0 93 -74.5 159t-181.5 66q-112 0 -178.5 -60.5t-66.5 -154.5q0 -173 235 -235q66 -17 164 -39q80 -19 144.5 -52.5t116 -85t80 -126.5t28.5 -168q0 -89 -34.5 -169t-97 -141t-158.5 -97t-212 -36q-136 0 -256.5 62.5t-192 165t-73.5 215.5l215 71
q-2 -97 43.5 -168.5t114.5 -105t149 -33.5q130 0 208.5 64.5t78.5 171.5q0 179 -236 225q-77 16 -164 43q-77 23 -140.5 59.5t-116 90t-82 129.5t-29.5 169q0 175 132 288.5t328 113.5q202 0 342 -120t140 -302zM696 -82l-129 -387l-178 47l111 340h196z" />
    <glyph glyph-name="scommaaccent" unicode="&#x219;" horiz-adv-x="1259" 
d="M397 1126q0 -92 57.5 -149t180.5 -88q66 -17 164 -39q165 -36 266.5 -144.5t101.5 -283.5q0 -85 -34.5 -164t-96.5 -141t-158.5 -99.5t-211.5 -37.5h-123q-102 0 -197 38.5t-163 100.5t-109.5 144t-42.5 167l211 82q-1 -73 25.5 -136t70.5 -103.5t97.5 -63.5t107.5 -23
h123q130 0 208 64.5t78 171.5q0 58 -21 100.5t-59.5 66.5t-73 36.5t-81.5 21.5q-57 12 -164 41q-369 110 -369 438q0 175 133 290.5t328 115.5q132 0 242 -54.5t174.5 -152.5t64.5 -219h-225q0 93 -74.5 159t-181.5 66q-109 0 -178.5 -58t-69.5 -147zM725 -82l-129 -387
l-178 47l110 340h197z" />
    <glyph glyph-name="Tcommaaccent" unicode="&#x21a;" horiz-adv-x="962" 
d="M20 1495h922v-205h-352v-1290h-217v1290h-353v205zM580 -82l-129 -387l-179 47l111 340h197z" />
    <glyph glyph-name="tcommaaccent" unicode="&#x21b;" horiz-adv-x="1126" 
d="M389 0v205h66v1085h-435v205h1086v-205h-434v-1085h65v-205h-348zM666 -82l-129 -387l-179 47l111 340h197z" />
    <glyph glyph-name="circumflex" unicode="&#x2c6;" 
d="M438 1939l213 -200l-129 -131l-174 168l-174 -168l-129 131l213 200h180z" />
    <glyph glyph-name="caron" unicode="&#x2c7;" 
d="M651 1808l-213 -200h-180l-213 200l129 131l174 -167l174 167z" />
    <glyph glyph-name="breve" unicode="&#x2d8;" horiz-adv-x="675" 
d="M338 1608q-129 0 -203 77.5t-74 174.5v14h175v-2q0 -40 25.5 -71.5t76.5 -31.5t76.5 31.5t25.5 71.5v2h174v-14q0 -97 -73.5 -174.5t-202.5 -77.5z" />
    <glyph glyph-name="dotaccent" unicode="&#x2d9;" horiz-adv-x="675" 
d="M236 1632v226h225v-226h-225z" />
    <glyph glyph-name="ring" unicode="&#x2da;" horiz-adv-x="675" 
d="M111 1765q0 97 66 160.5t161 63.5t161 -63.5t66 -160.5t-66 -160t-161 -63t-161 63t-66 160zM250 1765q0 -38 25 -63t63 -25t63 25t25 63t-25 63t-63 25t-63 -25t-25 -63z" />
    <glyph glyph-name="ogonek" unicode="&#x2db;" horiz-adv-x="675" 
d="M285 0h164l-58 -117q-10 -20 -10 -47q0 -34 28.5 -56t67.5 -22h45l-45 -168h-10q-126 0 -203.5 52.5t-77.5 138.5q0 40 19.5 88t79.5 131z" />
    <glyph glyph-name="tilde" unicode="&#x2dc;" 
d="M471 1886q101 0 156 -68.5t43 -189.5h-168q12 80 -43 80q-20 0 -58 -20t-88.5 -40t-99.5 -20q-93 0 -144 57t-44 158l170 45q-9 -80 45 -80q24 0 61 19.5t81.5 39t88.5 19.5z" />
    <glyph glyph-name="hungarumlaut" unicode="&#x2dd;" horiz-adv-x="675" 
d="M242 1944l159 -97l-155 -241h-197zM612 1952l142 -117l-203 -229h-211z" />
    <glyph glyph-name="Delta" unicode="&#x394;" horiz-adv-x="921" 
d="M532 1495l369 -1352v-143h-881v143l369 1352h143zM758 143l-297 1133l-297 -1133h594z" />
    <glyph glyph-name="Delta" unicode="&#x2206;" horiz-adv-x="921" 
d="M532 1495l369 -1352v-143h-881v143l369 1352h143zM758 143l-297 1133l-297 -1133h594z" />
    <glyph glyph-name="Omega" unicode="&#x3a9;" horiz-adv-x="1126" 
d="M563 1495q212 0 352 -151t152 -402q3 -62 0 -123q-9 -200 -97.5 -345.5t-234.5 -199.5v-135h248v-139h-389v389q131 0 225.5 112.5t104.5 317.5q3 61 0 123q-9 197 -106 305.5t-255 108.5q-156 0 -252.5 -108.5t-105.5 -305.5q-3 -62 0 -123q10 -206 103 -318t224 -112
v-389h-389v139h248v135q-145 54 -233 199.5t-97 345.5q-3 61 0 123q12 250 152 401.5t350 151.5z" />
    <glyph glyph-name="Omega" unicode="&#x2126;" horiz-adv-x="1126" 
d="M563 1495q212 0 352 -151t152 -402q3 -62 0 -123q-9 -200 -97.5 -345.5t-234.5 -199.5v-135h248v-139h-389v389q131 0 225.5 112.5t104.5 317.5q3 61 0 123q-9 197 -106 305.5t-255 108.5q-156 0 -252.5 -108.5t-105.5 -305.5q-3 -62 0 -123q10 -206 103 -318t224 -112
v-389h-389v139h248v135q-145 54 -233 199.5t-97 345.5q-3 61 0 123q12 250 152 401.5t350 151.5z" />
    <glyph glyph-name="pi" unicode="&#x3c0;" horiz-adv-x="921" 
d="M41 819l20 144h840v-144h-82l-82 -604q-4 -32 13.5 -52t48.5 -20h20v-143h-20q-100 0 -159.5 57.5t-45.5 167.5l82 594h-371v-819h-141v819h-123z" />
    <glyph glyph-name="afii10023" unicode="&#x401;" horiz-adv-x="1167" 
d="M164 1495v-1495h942v205h-727v450h727v205h-727v430h727v205h-942zM299 1632v226h223v-226h-223zM709 1632v226h225v-226h-225z" />
    <glyph glyph-name="afii10051" unicode="&#x402;" horiz-adv-x="1228" 
d="M717 215l112 -20q93 0 93 92v348q0 81 -39.5 122.5t-104.5 41.5q-87 0 -145 -60t-64 -149v-590h-217v1290h-332v205h881v-205h-332v-409l11 -13l12 13q38 45 101.5 73.5t125.5 28.5q148 0 227.5 -85.5t79.5 -252.5v-358q0 -141 -78 -219t-229 -78l-102 20v205z" />
    <glyph glyph-name="afii10052" unicode="&#x403;" horiz-adv-x="1126" 
d="M164 1495v-1495h215v1290h727v205h-942zM788 1939l140 -137l-193 -194h-235z" />
    <glyph glyph-name="afii10053" unicode="&#x404;" horiz-adv-x="1515" 
d="M1167 860v-205h-864q27 -221 173 -356t384 -135q144 0 258.5 58t192.5 167l143 -143q-106 -136 -264.5 -211.5t-329.5 -75.5q-221 0 -400 105t-278.5 284.5t-99.5 396.5q0 218 99.5 399t276 286.5t392.5 105.5q171 0 329.5 -75.5t264.5 -211.5l-144 -143
q-162 227 -440 227q-225 0 -372.5 -131.5t-180.5 -341.5h860z" />
    <glyph glyph-name="afii10054" unicode="&#x405;" horiz-adv-x="1187" 
d="M1055 1106h-226q0 93 -74.5 159t-181.5 66q-112 0 -178.5 -60.5t-66.5 -154.5q0 -173 235 -235q66 -17 164 -39q80 -19 144.5 -52.5t116 -85t80 -126.5t28.5 -168q0 -89 -34.5 -169t-97 -141t-158.5 -97t-212 -36q-136 0 -256.5 62.5t-192 165t-73.5 215.5l215 71
q-2 -97 43.5 -168.5t114.5 -105t149 -33.5q130 0 208.5 64.5t78.5 171.5q0 179 -236 225q-77 16 -164 43q-77 23 -140.5 59.5t-116 90t-82 129.5t-29.5 169q0 175 132 288.5t328 113.5q202 0 342 -120t140 -302z" />
    <glyph glyph-name="afii10055" unicode="&#x406;" horiz-adv-x="593" 
d="M154 0v205h34v1085h-34v205h286v-205h-34v-1085h34v-205h-286z" />
    <glyph glyph-name="afii10056" unicode="&#x407;" horiz-adv-x="593" 
d="M154 205v-205h286v205h-34v1085h34v205h-286v-205h34v-1085h-34zM-20 1632v226h223v-226h-223zM389 1632v226h225v-226h-225z" />
    <glyph glyph-name="afii10057" unicode="&#x408;" horiz-adv-x="1105" 
d="M276 430q0 -119 62 -192.5t174 -73.5t174 78t62 198v1055h215v-1044q0 -218 -123 -355t-328 -137q-207 0 -329 130.5t-122 340.5h215z" />
    <glyph glyph-name="afii10058" unicode="&#x409;" horiz-adv-x="1679" 
d="M225 348v1147h748v-635h205q195 0 327.5 -120.5t132.5 -309.5t-132.5 -309.5t-327.5 -120.5h-420v1290h-318v-940q0 -100 -42.5 -182.5t-130 -135t-206.5 -52.5l-41 20v184h41q77 0 120.5 44t43.5 120zM973 205h215q99 0 167 58t68 167t-68 167t-167 58h-215v-450z" />
    <glyph glyph-name="afii10059" unicode="&#x40a;" horiz-adv-x="1679" 
d="M129 0v205h35v1085h-35v205h287v-205h-37v-430h379v635h215v-635h205q195 0 327.5 -120.5t132.5 -309.5t-132.5 -309.5t-327.5 -120.5h-420v655h-379v-450h37v-205h-287zM973 205h215q99 0 167 58t68 167t-68 167t-167 58h-215v-450z" />
    <glyph glyph-name="afii10060" unicode="&#x40b;" horiz-adv-x="1228" 
d="M569 1290v-409l11 -13l12 13q38 45 101.5 73.5t125.5 28.5q148 0 227.5 -85.5t79.5 -252.5v-645h-204v635q0 81 -39.5 122.5t-104.5 41.5q-87 0 -145 -60t-64 -149v-590h-217v1290h-332v205h881v-205h-332z" />
    <glyph glyph-name="afii10061" unicode="&#x40c;" horiz-adv-x="1208" 
d="M1188 1495h-256l-553 -614v614h-215v-1495h215v635l555 -635h274l-665 760zM807 1939l139 -137l-192 -194h-236z" />
    <glyph glyph-name="afii10062" unicode="&#x40e;" horiz-adv-x="1146" 
d="M41 1495h235l304 -696l311 696h235l-675 -1495h-230l244 545zM590 1608q-129 0 -203 77.5t-74 174.5v14h174v-2q0 -39 26 -71t77 -32t76.5 31.5t25.5 71.5v2h174v-14q0 -97 -73.5 -174.5t-202.5 -77.5z" />
    <glyph glyph-name="afii10145" unicode="&#x40f;" horiz-adv-x="1372" 
d="M164 0v1495h215v-1290h614v1290h215v-1495h-415v-307h-215v307h-414z" />
    <glyph glyph-name="afii10017" unicode="&#x410;" horiz-adv-x="1331" 
d="M256 0h-215l512 1495h225l512 -1495h-215l-168 492h-485zM840 696l-174 510l-174 -510h348z" />
    <glyph glyph-name="afii10018" unicode="&#x411;" horiz-adv-x="1269" 
d="M164 0v1495h942v-205h-727v-430h348q201 0 331 -119.5t130 -310.5t-130 -310.5t-331 -119.5h-563zM379 205h358q100 0 168 58t68 167t-68 167t-168 58h-358v-450z" />
    <glyph glyph-name="afii10019" unicode="&#x412;" horiz-adv-x="1331" 
d="M164 0v1495h594q202 0 336.5 -114t134.5 -296q0 -101 -48.5 -184t-133.5 -135q95 -49 148.5 -137.5t53.5 -208.5q0 -189 -134 -304.5t-337 -115.5h-614zM379 205h409q98 0 172 61.5t74 163.5q0 114 -71.5 169.5t-174.5 55.5h-409v-450zM379 860h389q65 0 118.5 20.5
t90.5 71t37 123.5t-37 123.5t-90.5 71t-118.5 20.5h-389v-430z" />
    <glyph glyph-name="afii10020" unicode="&#x413;" horiz-adv-x="1126" 
d="M164 0v1495h942v-205h-727v-1290h-215z" />
    <glyph glyph-name="afii10021" unicode="&#x414;" horiz-adv-x="1433" 
d="M287 389v1106h942v-1290h164v-512h-215v307h-942v-307h-216v512h99q79 5 123.5 51.5t44.5 132.5zM414 205h600v1085h-522v-880q0 -121 -78 -205z" />
    <glyph glyph-name="afii10022" unicode="&#x415;" horiz-adv-x="1167" 
d="M164 0v1495h942v-205h-727v-430h727v-205h-727v-450h727v-205h-942z" />
    <glyph glyph-name="afii10024" unicode="&#x416;" horiz-adv-x="1863" 
d="M41 1495h256l528 -614v614h215v-614l527 614h256l-625 -737l645 -758h-274l-529 635v-635h-215v635l-530 -635h-275l646 758z" />
    <glyph glyph-name="afii10025" unicode="&#x417;" horiz-adv-x="1228" 
d="M367 655v205h227q111 0 188.5 65t77.5 171q0 59 -24 105.5t-64.5 74t-88 41.5t-99.5 14q-70 0 -131 -20.5t-103.5 -68.5t-42.5 -116h-215q0 111 65 205t178.5 149.5t248.5 55.5q128 0 240 -53t181.5 -153t69.5 -224q0 -104 -50.5 -189.5t-135.5 -144.5
q110 -50 173.5 -141t63.5 -221q0 -198 -150.5 -324.5t-381.5 -126.5q-208 0 -355 113t-178 297l215 61q7 -121 96 -193.5t222 -72.5t225 66.5t92 189.5q0 63 -24.5 110t-67 73.5t-94 39t-111.5 12.5h-247z" />
    <glyph glyph-name="afii10026" unicode="&#x418;" horiz-adv-x="1413" 
d="M377 1495v-1106l637 1106h235v-1495h-213v1126l-637 -1126h-235v1495h213z" />
    <glyph glyph-name="afii10027" unicode="&#x419;" horiz-adv-x="1413" 
d="M377 1495v-1106l637 1106h235v-1495h-213v1126l-637 -1126h-235v1495h213zM705 1608q-129 0 -203 77.5t-74 174.5v14h174v-2q0 -39 26 -71t77 -32t76.5 31.5t25.5 71.5v2h174v-14q0 -97 -73.5 -174.5t-202.5 -77.5z" />
    <glyph glyph-name="afii10028" unicode="&#x41a;" horiz-adv-x="1208" 
d="M932 1495h256l-645 -735l665 -760h-274l-555 635v-635h-215v1495h215v-614z" />
    <glyph glyph-name="afii10029" unicode="&#x41b;" horiz-adv-x="1372" 
d="M225 348v1147h963v-1495h-215v1290h-533v-940q0 -100 -42.5 -182.5t-130 -135t-206.5 -52.5l-41 20v184h41q77 0 120.5 44t43.5 120z" />
    <glyph glyph-name="afii10030" unicode="&#x41c;" horiz-adv-x="1843" 
d="M922 264l450 1231h307v-1495h-213v1167l-422 -1167h-245l-422 1167v-1167h-213v1495h307z" />
    <glyph glyph-name="afii10031" unicode="&#x41d;" horiz-adv-x="1331" 
d="M952 860v635h215v-1495h-215v655h-573v-655h-215v1495h215v-635h573z" />
    <glyph glyph-name="afii10032" unicode="&#x41e;" horiz-adv-x="1740" 
d="M82 748q0 214 105.5 395.5t287 287t395.5 105.5q161 0 307 -62.5t251.5 -167.5t168 -251t62.5 -307t-62.5 -307t-168 -251.5t-251.5 -168t-307 -62.5t-307 62.5t-251 168t-167.5 251.5t-62.5 307zM297 745q0 -253 160.5 -417t412.5 -164t412 164t160 417q0 256 -160 421
t-412 165q-125 0 -232 -44t-181.5 -121.5t-117 -186t-42.5 -234.5z" />
    <glyph glyph-name="afii10033" unicode="&#x41f;" horiz-adv-x="1372" 
d="M164 0v1495h1044v-1495h-215v1290h-614v-1290h-215z" />
    <glyph glyph-name="afii10034" unicode="&#x420;" horiz-adv-x="1290" 
d="M164 0v1495h624q201 0 331 -119.5t130 -310.5t-130 -310.5t-331 -119.5h-409v-635h-215zM379 840h420q99 0 167 58t68 167t-68 167t-167 58h-420v-450z" />
    <glyph glyph-name="afii10035" unicode="&#x421;" horiz-adv-x="1495" 
d="M82 745q0 218 99.5 399t276 286.5t392.5 105.5q171 0 329.5 -75.5t264.5 -211.5l-144 -143q-162 227 -440 227q-128 0 -234 -45t-177.5 -123.5t-110.5 -186t-39 -230.5q0 -166 67 -298t198 -210t306 -78q279 0 441 227l143 -143q-106 -136 -264.5 -211.5t-329.5 -75.5
q-221 0 -400 105t-278.5 284.5t-99.5 396.5z" />
    <glyph glyph-name="afii10036" unicode="&#x422;" horiz-adv-x="962" 
d="M20 1495h922v-205h-352v-1290h-217v1290h-353v205z" />
    <glyph glyph-name="afii10037" unicode="&#x423;" horiz-adv-x="1146" 
d="M41 1495h235l304 -696l311 696h235l-675 -1495h-230l244 545z" />
    <glyph glyph-name="afii10038" unicode="&#x424;" horiz-adv-x="1658" 
d="M723 0v266h-129q-244 0 -398.5 142.5t-154.5 359.5t154.5 359.5t398.5 142.5h129v225h213v-225h129q244 0 398.5 -142.5t154.5 -359.5t-154.5 -359.5t-398.5 -142.5h-129v-266h-213zM936 467h139q149 0 238.5 87t89.5 214t-89.5 214t-238.5 87h-139v-602zM256 768
q0 -127 89.5 -214t238.5 -87h139v602h-139q-149 0 -238.5 -87t-89.5 -214z" />
    <glyph glyph-name="afii10039" unicode="&#x425;" horiz-adv-x="1024" 
d="M61 1495h232l217 -473l219 473h234l-336 -727l356 -768h-233l-238 516l-238 -516h-233l354 770z" />
    <glyph glyph-name="afii10040" unicode="&#x426;" horiz-adv-x="1413" 
d="M164 0v1495h215v-1290h614v1290h215v-1290h164v-512h-215v307h-993z" />
    <glyph glyph-name="afii10041" unicode="&#x427;" horiz-adv-x="1269" 
d="M891 840v655h215v-1495h-215v635h-318q-211 0 -330.5 135.5t-119.5 355.5v369h215v-379q0 -124 62.5 -200t193.5 -76h297z" />
    <glyph glyph-name="afii10042" unicode="&#x428;" horiz-adv-x="2048" 
d="M915 205v1290h215v-1290h539v1290h215v-1495h-1720v1495h215v-1290h536z" />
    <glyph glyph-name="afii10043" unicode="&#x429;" horiz-adv-x="2088" 
d="M379 1495v-1290h536v1290h215v-1290h539v1290h215v-1290h164v-512h-215v307h-1669v1495h215z" />
    <glyph glyph-name="afii10044" unicode="&#x42a;" horiz-adv-x="1413" 
d="M20 1290v205h502v-635h369q201 0 331 -119.5t130 -310.5t-130 -310.5t-331 -119.5h-584v1290h-287zM522 205h379q100 0 168 58t68 167t-68 167t-168 58h-379v-450z" />
    <glyph glyph-name="afii10045" unicode="&#x42b;" horiz-adv-x="1765" 
d="M164 0v1495h215v-635h369q201 0 330.5 -119.5t129.5 -310.5t-129.5 -310.5t-330.5 -119.5h-584zM1346 0v205h34v1085h-34v205h286v-205h-35v-1085h35v-205h-286zM379 205h379q99 0 167 58t68 167t-68 167t-167 58h-379v-450z" />
    <glyph glyph-name="afii10046" unicode="&#x42c;" horiz-adv-x="1269" 
d="M164 0v1495h215v-635h369q201 0 330.5 -119.5t129.5 -310.5t-129.5 -310.5t-330.5 -119.5h-584zM379 205h379q99 0 167 58t68 167t-68 167t-167 58h-379v-450z" />
    <glyph glyph-name="afii10047" unicode="&#x42d;" horiz-adv-x="1515" 
d="M348 655v205h858q-33 210 -179.5 340.5t-371.5 130.5q-280 0 -440 -225l-143 143q106 136 264.5 211.5t329.5 75.5q216 0 392.5 -105.5t276 -286.5t99.5 -399q0 -162 -59 -307t-161 -250.5t-247.5 -167t-311.5 -61.5q-171 0 -329.5 75.5t-264.5 211.5l144 143
q160 -225 450 -225q237 0 382.5 135t172.5 356h-862z" />
    <glyph glyph-name="afii10048" unicode="&#x42e;" horiz-adv-x="2119" 
d="M129 0v205h35v1085h-35v205h287v-205h-37v-430h209q17 143 79 268t155.5 215t219.5 141.5t267 51.5q206 0 373.5 -105t261.5 -285t94 -398t-94 -398.5t-261.5 -285.5t-373.5 -105q-144 0 -272 53.5t-221.5 146.5t-154 221t-75.5 275h-207v-450h37v-205h-287zM797 745
q0 -159 61 -290t179 -211t272 -80t272 80t179 211t61 290q0 161 -61 293t-179 212.5t-272 80.5t-272 -80.5t-179 -212.5t-61 -293z" />
    <glyph glyph-name="afii10049" unicode="&#x42f;" horiz-adv-x="1331" 
d="M522 655q-110 5 -206.5 55t-160 146t-63.5 219q0 129 64.5 226t168 145.5t228.5 48.5h614v-1495h-215v655h-184l-430 -655h-236v41zM543 860h409v430h-409q-99 0 -167.5 -56.5t-68.5 -158.5t68.5 -158.5t167.5 -56.5z" />
    <glyph glyph-name="afii10065" unicode="&#x430;" horiz-adv-x="1167" 
d="M41 0l389 1495h307l389 -1495h-213l-79 307h-502l-78 -307h-213zM584 1303l-199 -793h395z" />
    <glyph glyph-name="afii10066" unicode="&#x431;" horiz-adv-x="1146" 
d="M799 1434q51 21 76.5 44.5t25.5 59.5v18h164l20 -20q7 -56 -5.5 -99.5t-45 -76t-71.5 -56t-97 -47.5q-121 -51 -276 -98q-154 -45 -231.5 -129.5t-71.5 -179.5l10 -10l10 10q44 54 119.5 93.5t167.5 39.5q133 0 244.5 -62.5t179 -178.5t67.5 -261q0 -108 -42.5 -203
t-112 -159.5t-160 -101.5t-186.5 -37q-199 0 -338 138t-156 353q-14 173 1.5 307.5t51.5 224t98.5 156.5t130 105.5t160.5 70.5q122 42 267 99zM287 481q0 -136 86.5 -226.5t210.5 -90.5q135 0 217 91.5t82 225.5t-82.5 226t-216.5 92t-215.5 -91.5t-81.5 -226.5z" />
    <glyph glyph-name="afii10067" unicode="&#x432;" horiz-adv-x="1351" 
d="M164 0v1495h614q202 0 336.5 -114t134.5 -296q0 -101 -48.5 -184t-133.5 -135q95 -49 149 -137.5t54 -208.5q0 -189 -134 -304.5t-337 -115.5h-635zM379 205h430q98 0 172 61.5t74 163.5q0 114 -71.5 169.5t-174.5 55.5h-430v-450zM379 860h409q65 0 118.5 20.5t90.5 71
t37 123.5t-37 123.5t-90.5 71t-118.5 20.5h-409v-430z" />
    <glyph glyph-name="afii10068" unicode="&#x433;" horiz-adv-x="1003" 
d="M164 0v1495h819v-205h-604v-1290h-215z" />
    <glyph glyph-name="afii10069" unicode="&#x434;" horiz-adv-x="1331" 
d="M287 389v1106h839v-1290h164v-512h-215v307h-839v-307h-216v512h99q79 5 123.5 51.5t44.5 132.5zM414 205h497v1085h-419v-880q0 -121 -78 -205z" />
    <glyph glyph-name="afii10070" unicode="&#x435;" horiz-adv-x="1064" 
d="M164 0v1495h840v-205h-625v-430h625v-205h-625v-450h625v-205h-840z" />
    <glyph glyph-name="afii10072" unicode="&#x436;" horiz-adv-x="1863" 
d="M41 1495h256l528 -614v614h215v-614l527 614h256l-625 -737l645 -758h-274l-529 635v-635h-215v635l-530 -635h-275l646 758z" />
    <glyph glyph-name="afii10073" unicode="&#x437;" horiz-adv-x="1228" 
d="M430 655v205h164q111 0 188.5 65t77.5 171q0 59 -24 105.5t-64.5 74t-88 41.5t-99.5 14q-70 0 -131 -20.5t-103.5 -68.5t-42.5 -116h-215q0 111 65 205t178.5 149.5t248.5 55.5q128 0 240 -53t181.5 -153t69.5 -224q0 -104 -50.5 -189.5t-135.5 -144.5
q110 -50 173.5 -141t63.5 -221q0 -198 -150.5 -324.5t-381.5 -126.5q-208 0 -355 113t-178 297l215 61q7 -121 96 -193.5t222 -72.5t225 66.5t92 189.5q0 63 -24.5 110t-67 73.5t-94 39t-111.5 12.5h-184z" />
    <glyph glyph-name="afii10074" unicode="&#x438;" horiz-adv-x="1187" 
d="M358 1495v-1157l379 1157h287v-1495h-195v1157l-378 -1157h-287v1495h194z" />
    <glyph glyph-name="afii10075" unicode="&#x439;" horiz-adv-x="1187" 
d="M358 1495v-1157l379 1157h287v-1495h-195v1157l-378 -1157h-287v1495h194zM596 1608q-129 0 -203 77.5t-74 174.5v14h175v-2q0 -40 25.5 -71.5t76.5 -31.5t76.5 31.5t25.5 71.5v2h174v-14q0 -97 -73.5 -174.5t-202.5 -77.5z" />
    <glyph glyph-name="afii10076" unicode="&#x43a;" horiz-adv-x="1044" 
d="M778 1495h246l-481 -733l481 -762h-256l-389 635v-635h-215v1495h215v-614z" />
    <glyph glyph-name="afii10077" unicode="&#x43b;" horiz-adv-x="1269" 
d="M225 348v1147h860v-1495h-215v1290h-430v-940q0 -100 -42.5 -182.5t-130 -135t-206.5 -52.5l-41 20v184h41q77 0 120.5 44t43.5 120z" />
    <glyph glyph-name="afii10078" unicode="&#x43c;" horiz-adv-x="1720" 
d="M860 737l410 758h286v-1495h-208v1219l-377 -707h-221l-377 707v-1219h-209v1495h287z" />
    <glyph glyph-name="afii10079" unicode="&#x43d;" horiz-adv-x="1228" 
d="M850 860v635h215v-1495h-215v655h-471v-655h-215v1495h215v-635h471z" />
    <glyph glyph-name="afii10080" unicode="&#x43e;" horiz-adv-x="1740" 
d="M82 748q0 214 105.5 395.5t287 287t395.5 105.5q161 0 307 -62.5t251.5 -167.5t168 -251t62.5 -307t-62.5 -307t-168 -251.5t-251.5 -168t-307 -62.5t-307 62.5t-251 168t-167.5 251.5t-62.5 307zM297 745q0 -253 160.5 -417t412.5 -164t412 164t160 417q0 256 -160 421
t-412 165q-125 0 -232 -44t-181.5 -121.5t-117 -186t-42.5 -234.5z" />
    <glyph glyph-name="afii10081" unicode="&#x43f;" horiz-adv-x="1228" 
d="M164 1495h901v-1495h-215v1290h-471v-1290h-215v1495z" />
    <glyph glyph-name="afii10082" unicode="&#x440;" horiz-adv-x="1290" 
d="M164 0v1495h624q201 0 331 -119.5t130 -310.5t-130 -310.5t-331 -119.5h-409v-635h-215zM379 840h420q99 0 167 58t68 167t-68 167t-167 58h-420v-450z" />
    <glyph glyph-name="afii10083" unicode="&#x441;" horiz-adv-x="1495" 
d="M82 745q0 218 99.5 399t276 286.5t392.5 105.5q171 0 329.5 -75.5t264.5 -211.5l-144 -143q-162 227 -440 227q-128 0 -234 -45t-177.5 -123.5t-110.5 -186t-39 -230.5q0 -166 67 -298t198 -210t306 -78q279 0 441 227l143 -143q-106 -136 -264.5 -211.5t-329.5 -75.5
q-221 0 -400 105t-278.5 284.5t-99.5 396.5z" />
    <glyph glyph-name="afii10084" unicode="&#x442;" horiz-adv-x="1126" 
d="M328 0v205h127v1085h-435v205h1086v-205h-434v-1085h127v-205h-471z" />
    <glyph glyph-name="afii10085" unicode="&#x443;" horiz-adv-x="1064" 
d="M41 1495h229l285 -686l270 686h219l-587 -1495h-221l217 557z" />
    <glyph glyph-name="afii10086" unicode="&#x444;" horiz-adv-x="1576" 
d="M682 0v266h-88q-244 0 -398.5 142.5t-154.5 359.5t154.5 359.5t398.5 142.5h88v225h213v-225h88q244 0 398.5 -142.5t154.5 -359.5t-154.5 -359.5t-398.5 -142.5h-88v-266h-213zM895 467h98q149 0 238.5 87t89.5 214t-89.5 214t-238.5 87h-98v-602zM256 768
q0 -127 89.5 -214t238.5 -87h98v602h-98q-149 0 -238.5 -87t-89.5 -214z" />
    <glyph glyph-name="afii10087" unicode="&#x445;" horiz-adv-x="1269" 
d="M20 1495h256l359 -555l358 555h256l-485 -747l485 -748h-256l-358 555l-359 -555h-256l484 748z" />
    <glyph glyph-name="afii10088" unicode="&#x446;" horiz-adv-x="1269" 
d="M164 0v1495h215v-1290h471v1290h215v-1290h164v-512h-215v307h-850z" />
    <glyph glyph-name="afii10089" unicode="&#x447;" horiz-adv-x="1167" 
d="M788 840v655h216v-1495h-216v635h-215q-211 0 -330.5 135.5t-119.5 355.5v369h215v-379q0 -124 62.5 -200t193.5 -76h194z" />
    <glyph glyph-name="afii10090" unicode="&#x448;" horiz-adv-x="1843" 
d="M813 205v1290h215v-1290h436v1290h215v-1495h-1515v1495h215v-1290h434z" />
    <glyph glyph-name="afii10091" unicode="&#x449;" horiz-adv-x="1884" 
d="M813 205v1290h215v-1290h436v1290h215v-1290h164v-512h-215v307h-1464v1495h215v-1290h434z" />
    <glyph glyph-name="afii10092" unicode="&#x44a;" horiz-adv-x="1413" 
d="M20 1290v205h502v-635h369q201 0 331 -119.5t130 -310.5t-130 -310.5t-331 -119.5h-584v1290h-287zM522 205h379q100 0 168 58t68 167t-68 167t-168 58h-379v-450z" />
    <glyph glyph-name="afii10093" unicode="&#x44b;" horiz-adv-x="1765" 
d="M164 0v1495h215v-635h348q201 0 331 -119.5t130 -310.5t-130 -310.5t-331 -119.5h-563zM1270 0v205h110v1085h-110v205h440v-205h-113v-1085h113v-205h-440zM379 205h358q100 0 168 58t68 167t-68 167t-168 58h-358v-450z" />
    <glyph glyph-name="afii10094" unicode="&#x44c;" horiz-adv-x="1269" 
d="M164 0v1495h215v-635h369q201 0 330.5 -119.5t129.5 -310.5t-129.5 -310.5t-330.5 -119.5h-584zM379 205h379q99 0 167 58t68 167t-68 167t-167 58h-379v-450z" />
    <glyph glyph-name="afii10095" unicode="&#x44d;" horiz-adv-x="1515" 
d="M655 655v205h551q-33 210 -179.5 340.5t-371.5 130.5q-280 0 -440 -225l-143 143q106 136 264.5 211.5t329.5 75.5q216 0 392.5 -105.5t276 -286.5t99.5 -399q0 -162 -59 -307t-161 -250.5t-247.5 -167t-311.5 -61.5q-171 0 -329.5 75.5t-264.5 211.5l144 143
q160 -225 450 -225q237 0 382.5 135t172.5 356h-555z" />
    <glyph glyph-name="afii10096" unicode="&#x44e;" horiz-adv-x="2119" 
d="M129 0v205h35v1085h-35v205h287v-205h-37v-430h209q17 143 79 268t155.5 215t219.5 141.5t267 51.5q206 0 373.5 -105t261.5 -285t94 -398t-94 -398.5t-261.5 -285.5t-373.5 -105q-144 0 -272 53.5t-221.5 146.5t-154 221t-75.5 275h-207v-450h37v-205h-287zM797 745
q0 -159 61 -290t179 -211t272 -80t272 80t179 211t61 290q0 161 -61 293t-179 212.5t-272 80.5t-272 -80.5t-179 -212.5t-61 -293z" />
    <glyph glyph-name="afii10097" unicode="&#x44f;" horiz-adv-x="1320" 
d="M584 655h-41q-124 0 -230.5 50.5t-173.5 148t-67 221.5q0 129 64 226t167.5 145.5t228.5 48.5h625v-1495h-215v655h-61l-748 -655h-41v246zM522 860h420v430h-420q-96 0 -165.5 -59.5t-69.5 -155.5t69.5 -155.5t165.5 -59.5z" />
    <glyph glyph-name="afii10071" unicode="&#x451;" horiz-adv-x="1064" 
d="M246 1495v-1495h839v205h-624v450h624v205h-624v430h624v205h-839zM303 1632v226h223v-226h-223zM651 1632v226h226v-226h-226z" />
    <glyph glyph-name="afii10099" unicode="&#x452;" horiz-adv-x="1249" 
d="M434 205v1085h-414v205h1045v-205h-414v-430l21 21q38 45 102.5 73.5t126.5 28.5q148 0 227.5 -85.5t79.5 -252.5v-358q0 -141 -78 -219t-229 -78l-82 20v205l92 -20q93 0 93 92v348q0 81 -39.5 122.5t-104.5 41.5q-87 0 -145 -60t-64 -149v-385h66v-205h-348v205h65z
" />
    <glyph glyph-name="afii10100" unicode="&#x453;" horiz-adv-x="1003" 
d="M164 1495v-1495h215v1290h604v205h-819zM739 1939l140 -137l-193 -194h-235z" />
    <glyph glyph-name="afii10101" unicode="&#x454;" horiz-adv-x="1515" 
d="M860 860v-205h-555q27 -221 172.5 -356t382.5 -135q144 0 258.5 58t192.5 167l143 -143q-106 -136 -264.5 -211.5t-329.5 -75.5q-221 0 -400 105t-278.5 284.5t-99.5 396.5q0 218 99.5 399t276 286.5t392.5 105.5q171 0 329.5 -75.5t264.5 -211.5l-144 -143
q-160 225 -440 225q-225 0 -372.5 -130.5t-180.5 -340.5h553z" />
    <glyph glyph-name="afii10102" unicode="&#x455;" horiz-adv-x="1259" 
d="M397 1126q0 -92 57.5 -149t180.5 -88q66 -17 164 -39q165 -36 266.5 -144.5t101.5 -283.5q0 -85 -34.5 -164t-96.5 -141t-158.5 -99.5t-211.5 -37.5h-123q-102 0 -197 38.5t-163 100.5t-109.5 144t-42.5 167l211 82q-1 -73 25.5 -136t70.5 -103.5t97.5 -63.5t107.5 -23
h123q130 0 208 64.5t78 171.5q0 58 -21 100.5t-59.5 66.5t-73 36.5t-81.5 21.5q-57 12 -164 41q-369 110 -369 438q0 175 133 290.5t328 115.5q132 0 242 -54.5t174.5 -152.5t64.5 -219h-225q0 93 -74.5 159t-181.5 66q-109 0 -178.5 -58t-69.5 -147z" />
    <glyph glyph-name="afii10103" unicode="&#x456;" horiz-adv-x="839" 
d="M61 0v205h250v1085h-250v205h717v-205h-250v-1085h250v-205h-717z" />
    <glyph glyph-name="afii10104" unicode="&#x457;" horiz-adv-x="839" 
d="M61 205v-205h717v205h-250v1085h250v205h-717v-205h250v-1085h-250zM133 1632v226h223v-226h-223zM481 1632v226h226v-226h-226z" />
    <glyph glyph-name="afii10105" unicode="&#x458;" horiz-adv-x="573" 
d="M59 -205l-39 21v184h82q41 0 67 22t26 60v1413h215v-1393q0 -138 -85 -222.5t-223 -84.5h-43z" />
    <glyph glyph-name="afii10106" unicode="&#x459;" horiz-adv-x="1638" 
d="M225 348v1147h707v-635h205q195 0 327.5 -120.5t132.5 -309.5t-132.5 -309.5t-327.5 -120.5h-420v1290h-277v-940q0 -100 -42.5 -182.5t-130 -135t-206.5 -52.5l-41 20v184h41q77 0 120.5 44t43.5 120zM932 205h215q99 0 167 58t68 167t-68 167t-167 58h-215v-450z" />
    <glyph glyph-name="afii10107" unicode="&#x45a;" horiz-adv-x="1679" 
d="M82 0v205h123v1085h-123v205h471v-205h-133v-430h338v635h215v-635h205q195 0 327.5 -120.5t132.5 -309.5t-132.5 -309.5t-327.5 -120.5h-420v655h-338v-450h133v-205h-471zM973 205h215q99 0 167 58t68 167t-68 167t-167 58h-215v-450z" />
    <glyph glyph-name="afii10108" unicode="&#x45b;" horiz-adv-x="1310" 
d="M434 205v1085h-414v205h1045v-205h-414v-430l21 21q38 45 102.5 73.5t126.5 28.5q148 0 227.5 -85.5t79.5 -252.5v-645h-204v635q0 81 -39.5 122.5t-104.5 41.5q-87 0 -145 -60t-64 -149v-385h66v-205h-348v205h65z" />
    <glyph glyph-name="afii10109" unicode="&#x45c;" horiz-adv-x="1044" 
d="M1024 1495h-246l-399 -614v614h-215v-1495h215v635l389 -635h256l-481 762zM739 1939l140 -137l-193 -194h-235z" />
    <glyph glyph-name="afii10110" unicode="&#x45e;" horiz-adv-x="1064" 
d="M41 1495h229l285 -686l270 686h219l-587 -1495h-221l217 557zM557 1608q-129 0 -202.5 77.5t-73.5 174.5v14h174v-2q0 -40 25.5 -71.5t76.5 -31.5t76.5 31.5t25.5 71.5v2h175v-14q0 -97 -74 -174.5t-203 -77.5z" />
    <glyph glyph-name="afii10193" unicode="&#x45f;" horiz-adv-x="1228" 
d="M516 0h-352v1495h215v-1290h471v1290h215v-1495h-334v-307h-215v307z" />
    <glyph glyph-name="afii10050" unicode="&#x490;" horiz-adv-x="1085" 
d="M850 1495v225h215v-245l-184 -185h-502v-1290h-215v1495h686z" />
    <glyph glyph-name="afii10098" unicode="&#x491;" horiz-adv-x="983" 
d="M748 1495v225h215v-245l-185 -185h-399v-1290h-215v1495h584z" />
    <glyph glyph-name="Wgrave" unicode="&#x1e80;" horiz-adv-x="1783" 
d="M778 1495h228l284 -1075l234 1075h217l-328 -1495h-215l-307 1106l-307 -1106h-215l-328 1495h217l231 -1075zM586 1802l139 137l289 -331h-236z" />
    <glyph glyph-name="wgrave" unicode="&#x1e81;" horiz-adv-x="1658" 
d="M258 1495h-217l389 -1495h236l163 758l164 -758h236l389 1495h-217l-285 -1165l-153 796h-267l-153 -796zM528 1802l140 137l288 -331h-235z" />
    <glyph glyph-name="Wacute" unicode="&#x1e82;" horiz-adv-x="1783" 
d="M778 1495h228l284 -1075l234 1075h217l-328 -1495h-215l-307 1106l-307 -1106h-215l-328 1495h217l231 -1075zM1069 1939l139 -137l-192 -194h-236z" />
    <glyph glyph-name="wacute" unicode="&#x1e83;" horiz-adv-x="1658" 
d="M258 1495h-217l389 -1495h236l163 758l164 -758h236l389 1495h-217l-285 -1165l-153 796h-267l-153 -796zM1016 1939l139 -137l-192 -194h-236z" />
    <glyph glyph-name="Wdieresis" unicode="&#x1e84;" horiz-adv-x="1783" 
d="M778 1495h228l284 -1075l234 1075h217l-328 -1495h-215l-307 1106l-307 -1106h-215l-328 1495h217l231 -1075zM573 1632v226h224v-226h-224zM983 1632v226h225v-226h-225z" />
    <glyph glyph-name="wdieresis" unicode="&#x1e85;" horiz-adv-x="1658" 
d="M258 1495h-217l389 -1495h236l163 758l164 -758h236l389 1495h-217l-285 -1165l-153 796h-267l-153 -796zM543 1632v226h223v-226h-223zM891 1632v226h225v-226h-225z" />
    <glyph glyph-name="Ygrave" unicode="&#x1ef2;" horiz-adv-x="1085" 
d="M260 1495h-240l414 -696v-799h217v799l414 696h-242l-280 -479zM264 1802l139 137l289 -331h-235z" />
    <glyph glyph-name="ygrave" unicode="&#x1ef3;" horiz-adv-x="1105" 
d="M61 1495h230l284 -686l271 686h219l-588 -1495h-221l217 557zM291 1802l139 137l289 -331h-236z" />
    <glyph glyph-name="endash" unicode="&#x2013;" horiz-adv-x="1249" 
d="M61 696h1127v-184h-1127v184z" />
    <glyph glyph-name="emdash" unicode="&#x2014;" horiz-adv-x="1843" 
d="M20 696h1803v-184h-1803v184z" />
    <glyph glyph-name="quoteleft" unicode="&#x2018;" horiz-adv-x="483" 
d="M20 963l216 532l184 -82l-184 -450h-216z" />
    <glyph glyph-name="quoteright" unicode="&#x2019;" horiz-adv-x="481" 
d="M451 1495l-218 -532l-182 81l185 451h215z" />
    <glyph glyph-name="quotesinglbase" unicode="&#x201a;" horiz-adv-x="483" 
d="M20 -205l216 533l184 -82l-184 -451h-216z" />
    <glyph glyph-name="quotedblleft" unicode="&#x201c;" horiz-adv-x="800" 
d="M338 963l215 532l184 -82l-184 -450h-215zM20 963l216 532l182 -82l-182 -450h-216z" />
    <glyph glyph-name="quotedblright" unicode="&#x201d;" horiz-adv-x="800" 
d="M449 1495l-213 -532l-185 81l185 451h213zM768 1495l-213 -532l-186 81l184 451h215z" />
    <glyph glyph-name="quotedblbase" unicode="&#x201e;" horiz-adv-x="800" 
d="M338 -205l215 533l184 -82l-184 -451h-215zM20 -205l216 533l182 -82l-182 -451h-216z" />
    <glyph glyph-name="dagger" unicode="&#x2020;" horiz-adv-x="921" 
d="M532 1249h328v-143h-328v-1106h-143v1106h-328v143h328v246h143v-246z" />
    <glyph glyph-name="daggerdbl" unicode="&#x2021;" horiz-adv-x="921" 
d="M389 0v246h-328v143h328v717h-328v143h328v246h143v-246h328v-143h-328v-717h328v-143h-328v-246h-143z" />
    <glyph glyph-name="bullet" unicode="&#x2022;" horiz-adv-x="1105" 
d="M1004 696q0 -186 -132.5 -318t-318.5 -132t-318.5 132t-132.5 318t132.5 318.5t318.5 132.5t318.5 -132.5t132.5 -318.5zM819 471q0 17 -12 29t-29 12t-28 -12t-11 -29t11 -29t28 -12t29 12t12 29zM819 922q0 17 -12 29t-29 12t-28 -12t-11 -29t11 -29t28 -12t29 12
t12 29zM287 471q0 -17 12 -29t29 -12t28 12t11 29t-11 29t-28 12t-29 -12t-12 -29zM287 922q0 -17 12 -29t29 -12t28 12t11 29t-11 29t-28 12t-29 -12t-12 -29z" />
    <glyph glyph-name="ellipsis" unicode="&#x2026;" horiz-adv-x="1495" 
d="M1434 266v-266h-267v266h267zM840 266v-266h-246v266h246zM287 266v-266h-226v266h226z" />
    <glyph glyph-name="perthousand" unicode="&#x2030;" horiz-adv-x="1710" 
d="M973 707q0 134 87 225.5t230 91.5t230.5 -91.5t87.5 -225.5q0 -132 -86 -223.5t-224 -94.5q13 -47 13 -92q0 -134 -87.5 -225.5t-230.5 -91.5t-230 91.5t-87 225.5q0 132 85 223t224 94q-12 44 -12 93zM102 1198q0 134 87.5 226t230.5 92t230 -92t87 -226t-87 -225.5
t-230 -91.5t-230.5 91.5t-87.5 225.5zM1331 1495l-1085 -1495h-164l1085 1495h164zM819 297q0 -82 51 -132t123 -50t123 50t51 132t-51 132t-123 50t-123 -50t-51 -132zM1116 707q0 -82 51 -132.5t123 -50.5t123 50.5t51 132.5t-51 132t-123 50t-123 -50t-51 -132zM246 1198
q0 -82 51 -132t123 -50t123 50t51 132t-51 132t-123 50t-123 -50t-51 -132z" />
    <glyph glyph-name="guilsinglleft" unicode="&#x2039;" horiz-adv-x="655" 
d="M573 223l-534 473l534 473v-217l-286 -256l286 -256v-217z" />
    <glyph glyph-name="guilsinglright" unicode="&#x203a;" horiz-adv-x="655" 
d="M82 1169l534 -473l-534 -473v217l287 256l-287 256v217z" />
    <glyph glyph-name="interrobang" unicode="&#x203d;" horiz-adv-x="983" 
d="M348 348l-184 615l-123 532h246l14 -78q34 34 95 56t116 22q175 0 292.5 -105t117.5 -284q0 -65 -18 -123t-46.5 -100.5t-65.5 -82t-75 -72t-74 -64.5t-63.5 -65.5t-43 -70t-12 -82t28.5 -98.5h-205zM717 1085q0 99 -62 157t-163 58q-46 0 -88.5 -17.5t-67.5 -45.5
l53 -274v-297q29 41 75.5 84t87.5 76.5t80 71.5t62 85.5t23 101.5zM328 0v246h245v-246h-245z" />
    <glyph glyph-name="asterism" unicode="&#x2042;" horiz-adv-x="2314" 
d="M1782 225l-160 -159l-102 102l159 160h-225v143h225l-450 451v-226h-144v226l-450 -451h225v-143h-225l160 -160l-103 -102l-160 159v-225h-143v225l-160 -159l-102 102l160 160h-226v143h226l-160 160l102 102l160 -160v226h143v-226l451 451h-225v143h225l-160 160
l103 103l159 -160v225h144v-225l160 160l102 -103l-160 -160h225v-143h-225l451 -451v226h143v-226l160 160l102 -102l-159 -160h225v-143h-225l159 -160l-102 -102l-160 159v-225h-143v225z" />
    <glyph glyph-name="fraction" unicode="&#x2044;" horiz-adv-x="1126" 
d="M1393 1495l-1229 -1495h-164l1229 1495h164z" />
    <glyph glyph-name="zerosuperior" unicode="&#x2070;" 
d="M348 1741q-45 0 -77 -25t-35 -67q-2 -27 2 -88q2 -23 2 -70t-2 -72q-4 -61 -2 -90q1 -42 33 -66t79 -24t79.5 24t33.5 66q2 29 -2 90q-2 25 -2 72t2 70q4 61 2 88q-3 42 -35 67t-78 25zM348 1106q-110 0 -177.5 60t-78.5 153q-4 30 0 102q4 50 4 70q0 22 -4 68
q-4 71 0 100q12 96 79 155.5t177 59.5t177 -59.5t79 -155.5q4 -29 0 -100q-4 -46 -4 -68q0 -20 4 -70q4 -72 0 -102q-11 -93 -78.5 -153t-177.5 -60z" />
    <glyph glyph-name="foursuperior" unicode="&#x2074;" 
d="M205 1444h184v184h143v-184h103v-133h-103v-195h-143v195h-348v133l287 420h161z" />
    <glyph glyph-name="fivesuperior" unicode="&#x2075;" 
d="M614 1372q0 -110 -75.5 -188t-190.5 -78q-118 0 -192 74.5t-74 171.5h143q0 -46 35.5 -79.5t87.5 -33.5q55 0 89 35t34 90q0 64 -39.5 97.5t-103.5 33.5q-94 0 -226 -20v112l97 277h385v-133h-295l-47 -123q45 20 96 20q123 0 199.5 -70.5t76.5 -185.5z" />
    <glyph glyph-name="sixsuperior" unicode="&#x2076;" 
d="M362 1239q49 0 80 32.5t31 80.5q0 51 -31.5 83.5t-83.5 32.5q-48 0 -80 -32.5t-32 -83.5q0 -48 32 -80.5t84 -32.5zM82 1485q1 76 19 144t52.5 124t91 88.5t128.5 32.5q96 0 160.5 -60.5t64.5 -164.5h-137q0 47 -27.5 71.5t-71.5 24.5q-124 0 -137 -203q55 55 148 55
q112 0 178.5 -70.5t66.5 -174.5q0 -102 -71.5 -174t-184.5 -72q-68 0 -124 30.5t-91 82.5q-65 97 -65 266z" />
    <glyph glyph-name="sevensuperior" unicode="&#x2077;" 
d="M471 1731h-250v-103h-129v236h533v-123q-132 -247 -267 -625h-143v31q29 77 60.5 153.5t62 144.5t52 114.5t48.5 102.5t33 69z" />
    <glyph glyph-name="eightsuperior" unicode="&#x2078;" 
d="M102 1659q0 97 71.5 156t174.5 59t174.5 -59t71.5 -156q0 -46 -22 -87t-60 -67q47 -24 74.5 -70t27.5 -104q0 -95 -73 -160t-193 -65t-193 65t-73 160q0 59 27.5 104.5t74.5 69.5q-82 59 -82 154zM225 1335q0 -43 34.5 -69.5t88.5 -26.5q55 0 89 26.5t34 69.5
q0 49 -35 77t-88 28q-50 0 -86.5 -28t-36.5 -77zM246 1651q0 -34 27.5 -59t74.5 -25q48 0 75.5 24.5t27.5 59.5q0 39 -29 64.5t-74 25.5t-73.5 -25.5t-28.5 -64.5z" />
    <glyph glyph-name="ninesuperior" unicode="&#x2079;" 
d="M334 1741q-49 0 -80 -32.5t-31 -80.5q0 -52 31.5 -84.5t83.5 -32.5q48 0 80.5 33t32.5 84q0 48 -32.5 80.5t-84.5 32.5zM614 1495q-1 -76 -18.5 -144t-52 -124t-91 -88.5t-128.5 -32.5q-96 0 -161 60.5t-65 164.5h138q0 -47 27 -71.5t71 -24.5q124 0 137 203
q-56 -56 -147 -56q-112 0 -179 71t-67 175q0 102 71.5 174t184.5 72q68 0 124 -30.5t91 -82.5q65 -97 65 -266z" />
    <glyph glyph-name="zeroinferior" unicode="&#x2080;" 
d="M348 256q-45 0 -77 -25t-35 -67q-2 -28 2 -88q2 -23 2 -70t-2 -72q-4 -62 -2 -90q1 -42 33 -66t79 -24t79.5 24t33.5 66q2 29 -2 90q-2 25 -2 72t2 70q4 60 2 88q-3 42 -35 67t-78 25zM348 -379q-110 0 -177.5 60t-78.5 153q-4 30 0 103q4 50 4 69q0 22 -4 68
q-4 71 0 100q12 96 79 155.5t177 59.5t177 -59.5t79 -155.5q4 -29 0 -100q-4 -46 -4 -68q0 -19 4 -69q4 -73 0 -103q-11 -93 -78.5 -153t-177.5 -60z" />
    <glyph glyph-name="oneinferior" unicode="&#x2081;" 
d="M496 -236v123h129v-256h-533v133h189v472l-43 -62h-144v21l144 184h184v-615h74z" />
    <glyph glyph-name="twoinferior" unicode="&#x2082;" 
d="M102 123v20q0 116 73 181t173 65q108 0 177 -64.5t69 -170.5q0 -103 -111 -205l-196 -185h307v-133h-492v133q3 3 48 46t109.5 104.5t109.5 105.5q24 24 38 40t29 43t15 51q0 46 -28.5 74t-74.5 28t-74 -28t-28 -74v-31h-144z" />
    <glyph glyph-name="threeinferior" unicode="&#x2083;" 
d="M604 379v-133l-205 -135q95 -11 155 -74t60 -160q0 -103 -77 -179.5t-191 -76.5q-116 0 -190 74.5t-74 171.5h143q0 -47 34.5 -80t86.5 -33q54 0 89.5 33t35.5 80q0 55 -36.5 89t-98.5 34h-131v112l188 144h-291v133h502z" />
    <glyph glyph-name="fourinferior" unicode="&#x2084;" 
d="M205 -41h184v184h143v-184h103v-133h-103v-195h-143v195h-348v133l287 420h161z" />
    <glyph glyph-name="fiveinferior" unicode="&#x2085;" 
d="M614 -113q0 -110 -75.5 -188t-190.5 -78q-118 0 -192 74.5t-74 171.5h143q0 -46 35.5 -79.5t87.5 -33.5q55 0 89 35t34 90q0 64 -39.5 97.5t-103.5 33.5q-94 0 -226 -20v112l97 277h385v-133h-295l-47 -123q45 20 96 20q123 0 199.5 -70.5t76.5 -185.5z" />
    <glyph glyph-name="sixinferior" unicode="&#x2086;" 
d="M362 -246q49 0 80 32.5t31 80.5q0 52 -31.5 84.5t-83.5 32.5q-48 0 -80 -33t-32 -84q0 -48 32 -80.5t84 -32.5zM82 0q1 76 19 144t52.5 124t91 88.5t128.5 32.5q96 0 160.5 -60.5t64.5 -164.5h-137q0 47 -27.5 71.5t-71.5 24.5q-124 0 -137 -203q56 56 148 56
q112 0 178.5 -71t66.5 -175q0 -102 -71.5 -174t-184.5 -72q-68 0 -124 30.5t-91 82.5q-65 97 -65 266z" />
    <glyph glyph-name="seveninferior" unicode="&#x2087;" 
d="M471 246h-250v-103h-129v236h533v-123q-132 -247 -267 -625h-143v31q29 77 60.5 153.5t62 144.5t52 114.5t48.5 102.5t33 69z" />
    <glyph glyph-name="eightinferior" unicode="&#x2088;" 
d="M102 174q0 97 71.5 156t174.5 59t174.5 -59t71.5 -156q0 -46 -22 -87t-60 -67q47 -24 74.5 -70t27.5 -104q0 -95 -73 -160t-193 -65t-193 65t-73 160q0 59 27.5 104.5t74.5 69.5q-82 59 -82 154zM225 -150q0 -43 34.5 -69.5t88.5 -26.5q55 0 89 26.5t34 69.5q0 49 -35 77
t-88 28q-50 0 -86.5 -28t-36.5 -77zM246 166q0 -34 27.5 -59t74.5 -25q48 0 75.5 24.5t27.5 59.5q0 39 -29 64.5t-74 25.5t-73.5 -25.5t-28.5 -64.5z" />
    <glyph glyph-name="nineinferior" unicode="&#x2089;" 
d="M334 256q-49 0 -80 -32.5t-31 -80.5q0 -51 31.5 -83.5t83.5 -32.5q48 0 80.5 33t32.5 83q0 48 -32.5 80.5t-84.5 32.5zM614 10q-1 -76 -18.5 -144t-52 -124t-91 -88.5t-128.5 -32.5q-96 0 -161 60.5t-65 164.5h138q0 -47 27 -71.5t71 -24.5q124 0 137 203
q-55 -55 -147 -55q-112 0 -179 71t-67 174q0 102 71.5 174t184.5 72q68 0 124 -30.5t91 -82.5q65 -97 65 -266z" />
    <glyph glyph-name="Euro" unicode="&#x20ac;" horiz-adv-x="1331" 
d="M51 1137l158 -31q75 191 224 300.5t335 109.5q139 0 253.5 -56.5t186.5 -147.5t103 -206h-205q-14 42 -39.5 79t-65 71t-100 54.5t-133.5 20.5q-125 0 -218.5 -68.5t-146.5 -195.5l437 -84l-31 -174l-451 86q-10 -56 -10 -147q0 -90 12 -170l449 88l31 -174l-428 -84
q55 -118 145.5 -181t210.5 -63q73 0 133.5 20t100.5 54.5t65.5 71.5t40.5 79h203q-48 -177 -192 -293t-351 -116q-181 0 -327 103.5t-224 285.5l-166 -31l-31 174l144 27q-21 99 -21 209q0 86 17 186l-140 29z" />
    <glyph glyph-name="afii61352" unicode="&#x2116;" horiz-adv-x="1843" 
d="M758 1495v-1139l-328 1139h-266v-1495h184v1159l328 -1159h266v1495h-184zM1085 1167q0 163 91 256t227 93t226.5 -93t90.5 -256t-90.5 -255.5t-226.5 -92.5t-227 92.5t-91 255.5zM1106 737v-174h594v174h-594zM1262 1167q0 -80 37 -132t104 -52t104 52t37 132t-37 132.5
t-104 52.5t-104 -52.5t-37 -132.5z" />
    <glyph glyph-name="trademark" unicode="&#x2122;" horiz-adv-x="1740" 
d="M1618 1495v-891h-158v686l-205 -430h-176l-205 430v-686h-157v891h225l225 -457l226 457h225zM20 1331v164h615v-164h-215v-727h-164v727h-236z" />
    <glyph glyph-name="uni2160" unicode="&#x2160;" horiz-adv-x="798" 
d="M143 0v203h154v1091h-154v201h512v-201h-153v-1091h153v-203h-512z" />
    <glyph glyph-name="uni2161" unicode="&#x2161;" horiz-adv-x="1269" 
d="M123 0v203h113v1091h-113v201h430v-201h-113v-1091h113v-203h-430zM717 0v203h112v1091h-112v201h430v-201h-113v-1091h113v-203h-430z" />
    <glyph glyph-name="uni2162" unicode="&#x2162;" horiz-adv-x="1863" 
d="M123 0v203h113v1091h-113v201h430v-201h-113v-1091h113v-203h-430zM717 0v203h112v1091h-112v201h430v-201h-113v-1091h113v-203h-430zM1311 0v203h112v1091h-112v201h430v-201h-113v-1091h113v-203h-430z" />
    <glyph glyph-name="uni2163" unicode="&#x2163;" horiz-adv-x="1863" 
d="M696 1495h215l318 -1194l317 1194h215l-422 -1495h-221zM123 0v203h113v1091h-113v201h430v-201h-113v-1091h113v-203h-430z" />
    <glyph glyph-name="uni2164" unicode="&#x2164;" horiz-adv-x="1269" 
d="M102 1495h215l328 -1194l328 1194h215l-432 -1495h-221z" />
    <glyph glyph-name="uni2165" unicode="&#x2165;" horiz-adv-x="1863" 
d="M952 1495h215l-422 -1495h-221l-422 1495h215l318 -1194zM1741 203v-203h-430v203h112v1091h-112v201h430v-201h-113v-1091h113z" />
    <glyph glyph-name="uni2166" unicode="&#x2166;" horiz-adv-x="2478" 
d="M952 1495h215l-422 -1495h-221l-422 1495h215l318 -1194zM1741 203v-203h-430v203h112v1091h-112v201h430v-201h-113v-1091h113zM1905 203v-203h430v203h-113v1091h113v201h-430v-201h112v-1091h-112z" />
    <glyph glyph-name="uni2167" unicode="&#x2167;" horiz-adv-x="2990" 
d="M952 1495h215l-422 -1495h-221l-422 1495h215l318 -1194zM1720 203v-203h-430v203h113v1091h-113v201h430v-201h-112v-1091h112zM1864 203v-203h430v203h-113v1091h113v201h-430v-201h112v-1091h-112zM2437 203v-203h430v203h-112v1091h112v201h-430v-201h113v-1091h-113
z" />
    <glyph glyph-name="uni2168" unicode="&#x2168;" horiz-adv-x="1863" 
d="M1366 748l426 -748h-233l-310 543l-309 -543h-233l426 748l-426 747h233l309 -543l310 543h233zM123 0v203h113v1091h-113v201h430v-201h-113v-1091h113v-203h-430z" />
    <glyph glyph-name="uni2169" unicode="&#x2169;" horiz-adv-x="1269" 
d="M750 748l438 -748h-232l-321 549l-322 -549h-231l436 748l-436 747h231l322 -551l321 551h232z" />
    <glyph glyph-name="uni216A" unicode="&#x216a;" horiz-adv-x="1863" 
d="M72 0l426 748l-426 747h233l309 -543l310 543h233l-426 -747l426 -748h-233l-310 543l-309 -543h-233zM1741 203v-203h-430v203h112v1091h-112v201h430v-201h-113v-1091h113z" />
    <glyph glyph-name="uni216B" unicode="&#x216b;" horiz-adv-x="2478" 
d="M72 0l426 748l-426 747h233l309 -543l310 543h233l-426 -747l426 -748h-233l-310 543l-309 -543h-233zM1741 203v-203h-430v203h112v1091h-112v201h430v-201h-113v-1091h113zM1905 203v-203h430v203h-113v1091h113v201h-430v-201h112v-1091h-112z" />
    <glyph glyph-name="uni216C" unicode="&#x216c;" horiz-adv-x="1249" 
d="M225 0v1495h205v-1292h696v-203h-901z" />
    <glyph glyph-name="uni216D" unicode="&#x216d;" horiz-adv-x="1474" 
d="M369 748q0 -267 113 -418.5t306 -151.5q141 0 224.5 61t115.5 150h213q-48 -176 -196.5 -292.5t-356.5 -116.5q-130 0 -244.5 56t-198.5 155t-132.5 243.5t-48.5 313.5t48.5 313.5t132.5 243.5t198.5 155t244.5 56q208 0 356.5 -117t196.5 -293h-215q-31 89 -114 150
t-224 61q-193 0 -306 -151t-113 -418z" />
    <glyph glyph-name="uni216E" unicode="&#x216e;" horiz-adv-x="1536" 
d="M246 0v1495h348q218 0 390.5 -94.5t270 -265t97.5 -387.5t-97.5 -388t-270 -265.5t-390.5 -94.5h-348zM604 1294h-153v-1093h153q253 0 398 146.5t145 400.5t-145 400t-398 146z" />
    <glyph glyph-name="uni216F" unicode="&#x216f;" horiz-adv-x="1822" 
d="M911 561l400 934h286v-1495h-200v1219l-359 -850h-254l-358 850v-1219h-201v1495h287z" />
    <glyph glyph-name="uni2180" unicode="&#x2180;" horiz-adv-x="2478" 
d="M1167 1403v92h349q218 0 390.5 -94.5t269.5 -265t97 -387.5t-97 -388t-269.5 -265.5t-390.5 -94.5h-349v92q-138 -112 -338 -112q-130 0 -244.5 56t-198.5 155t-132.5 243.5t-48.5 313.5t48.5 313.5t132.5 243.5t198.5 155t244.5 56q199 0 338 -113zM410 748
q0 -267 113 -418.5t306 -151.5q74 0 133.5 18t99 49.5t65 67t40.5 76.5v717q-31 89 -114 150t-224 61q-193 0 -306 -151t-113 -418zM1526 1294h-154v-1093h154q253 0 397.5 146.5t144.5 400.5t-144.5 400t-397.5 146z" />
    <glyph glyph-name="uni2181" unicode="&#x2181;" horiz-adv-x="1495" 
d="M225 0v1495h348q218 0 390.5 -94.5t270 -265t97.5 -387.5t-97.5 -388t-270 -265.5t-390.5 -94.5h-348zM584 1294h-154v-168h143q166 0 278 -106.5t112 -271.5q0 -167 -112 -273t-278 -106h-143v-168h154q253 0 397.5 146.5t144.5 400.5t-144.5 400t-397.5 146zM584 942
h-154v-389h154q86 0 140 52t54 143q0 88 -54 141t-140 53z" />
    <glyph glyph-name="partialdiff" unicode="&#x2202;" horiz-adv-x="921" 
d="M862 573q-6 -113 -41 -218t-94.5 -189.5t-150 -135t-197.5 -50.5q-155 0 -246.5 101t-91.5 277q0 78 19 161t59 162.5t94.5 142t132 101t166.5 38.5q68 0 125 -31.5t84 -79.5q-9 135 -43.5 237t-85 158.5t-106.5 83.5t-117 27q-106 0 -153 -61.5t-30 -170.5h-133
q-12 89 8 160.5t64.5 116.5t107 68.5t136.5 23.5q73 0 142 -25t140 -91t120.5 -166.5t76 -265.5t14.5 -374zM510 821q-80 0 -145 -43.5t-103 -112.5t-58 -148.5t-20 -158.5q0 -108 52 -171.5t143 -63.5q81 0 147 41t106.5 107.5t62.5 144.5t22 157q0 113 -56 180.5
t-151 67.5z" />
    <glyph glyph-name="product" unicode="&#x220f;" horiz-adv-x="921" 
d="M860 1290v-143h-41v-1581h-143v1581h-430v-1581h-144v1581h-41v143h799z" />
    <glyph glyph-name="summation" unicode="&#x2211;" horiz-adv-x="921" 
d="M881 -291v-143h-861v143l697 803l-697 840v143h861v-143h-666l645 -758v-143l-645 -742h666z" />
    <glyph glyph-name="minus" unicode="&#x2212;" horiz-adv-x="1146" 
d="M1106 655h-1065v164h1065v-164z" />
    <glyph glyph-name="radical" unicode="&#x221a;" horiz-adv-x="921" 
d="M481 -82l297 1577h144l-369 -1929h-143l-267 1253h-143v144h266z" />
    <glyph glyph-name="infinity" unicode="&#x221e;" horiz-adv-x="1105" 
d="M20 758q0 122 70 194t186 72q85 0 151 -56t132 -157q74 79 133.5 115.5t136.5 36.5q116 0 186 -72.5t70 -194.5t-70 -194t-186 -72q-166 0 -288 160q-116 -98 -265 -98q-116 0 -186 72t-70 194zM829 819q-49 0 -89 -29.5t-103 -97.5q90 -119 192 -119q57 0 85 36t28 87
t-28 87t-85 36zM164 758q0 -50 32.5 -86.5t90.5 -36.5q98 0 178 74q-52 81 -97 126.5t-92 45.5q-57 0 -84.5 -36t-27.5 -87z" />
    <glyph glyph-name="integral" unicode="&#x222b;" horiz-adv-x="921" 
d="M563 676v-803q0 -142 -78.5 -224.5t-228.5 -82.5h-174v147h205q45 0 68.5 28t23.5 75l-21 860v573q0 142 79 224.5t229 82.5h174v-143h-205q-45 0 -68.5 -27.5t-23.5 -74.5z" />
    <glyph glyph-name="therefore" unicode="&#x2234;" horiz-adv-x="1495" 
d="M61 0v266h246v-266h-246zM635 963v266h246v-266h-246zM1188 0v266h246v-266h-246z" />
    <glyph glyph-name="because" unicode="&#x2235;" horiz-adv-x="1495" 
d="M61 963v266h246v-266h-246zM635 0v266h246v-266h-246zM1188 963v266h246v-266h-246z" />
    <glyph glyph-name="approxequal" unicode="&#x2248;" horiz-adv-x="1146" 
d="M758 870q-50 0 -109 -25.5t-127.5 -51t-142.5 -25.5q-127 0 -198.5 71.5t-57.5 204.5h184q-7 -43 17.5 -67.5t64.5 -24.5q41 0 89.5 16t88 35.5t94.5 35.5t107 16q127 0 198.5 -72t57.5 -205h-184q7 43 -17.5 67.5t-64.5 24.5zM758 502q-40 0 -86.5 -16t-83.5 -35.5
t-93.5 -35.5t-115.5 -16q-127 0 -198.5 72t-57.5 205h184q-7 -43 17.5 -67.5t64.5 -24.5q50 0 113 25.5t132 51t134 25.5q127 0 198.5 -71.5t57.5 -204.5h-184q7 43 -17.5 67.5t-64.5 24.5z" />
    <glyph glyph-name="notequal" unicode="&#x2260;" horiz-adv-x="1146" 
d="M293 492h-252v163h387l133 164h-520v164h655l287 348h123v-41l-254 -307h254v-164h-387l-135 -164h522v-163h-657l-285 -349h-123v41z" />
    <glyph glyph-name="lessequal" unicode="&#x2264;" horiz-adv-x="1105" 
d="M1024 0h-942v156h807l-807 417v164l942 451v-164l-778 -371l778 -407v-246z" />
    <glyph glyph-name="greaterequal" unicode="&#x2265;" horiz-adv-x="1105" 
d="M1024 0h-942v246l778 407l-778 371v164l942 -451v-164l-809 -417h809v-156z" />
    <glyph glyph-name="lozenge" unicode="&#x25ca;" horiz-adv-x="860" 
d="M61 748l287 747h164l287 -747l-287 -748h-164zM225 748l205 -564l205 564l-205 563z" />
    <glyph glyph-name="at.cap" horiz-adv-x="1662" 
d="M616 922h-194q16 129 127 218t282 89q79 0 149.5 -22t127 -65.5t90 -116t33.5 -165.5v-399q2 -33 20 -53.5t52 -20.5q67 0 71 74q11 245 0 491q-12 261 -155 392t-388 131q-244 0 -385.5 -130.5t-156.5 -392.5q-5 -85 -5 -234.5t5 -225.5q15 -253 155.5 -379.5
t386.5 -137.5q135 -6 256 0q124 6 195.5 61.5t71.5 147.5l143 -82q-18 -137 -126 -207.5t-284 -78.5q-122 -6 -256 0q-322 14 -509 187t-197 489q-8 240 0 460q8 211 101 365t249 232.5t356 78.5q318 0 506.5 -178t200.5 -498q8 -212 0 -481q-3 -118 -62 -182t-173 -64
q-83 0 -142 46.5t-74 117.5l-10 10l-10 -10q-46 -69 -141 -116.5t-187 -47.5q-148 0 -236.5 81.5t-88.5 225.5q0 128 84.5 200.5t240.5 86.5l318 31v31q0 83 -65.5 133.5t-160.5 50.5q-94 0 -150.5 -42t-64.5 -101zM1067 635v61q-5 -3 -297 -30q-91 -7 -132.5 -39.5
t-41.5 -94.5q0 -60 45 -96.5t109 -36.5q120 0 211 65.5t106 170.5z" />
    <glyph glyph-name="zero.dnom" 
d="M348 1372q-45 0 -77 -25t-35 -67q-2 -28 2 -88q2 -23 2 -70q0 -46 -2 -71q-4 -61 -2 -90q1 -42 33 -66.5t79 -24.5t79.5 24.5t33.5 66.5q2 29 -2 90q-2 25 -2 71q0 47 2 70q4 61 2 88q-3 42 -35 67t-78 25zM348 737q-110 0 -177.5 60t-78.5 153q-4 30 0 103q4 50 4 69
q0 22 -4 68q-4 71 0 100q12 96 79 155.5t177 59.5t177 -59.5t79 -155.5q4 -29 0 -100q-4 -46 -4 -68q0 -19 4 -69q4 -73 0 -103q-11 -93 -78.5 -153t-177.5 -60z" />
    <glyph glyph-name="one.dnom" 
d="M496 881v123h129v-256h-533v133h189v471l-43 -62h-144v21l144 184h184v-614h74z" />
    <glyph glyph-name="two.dnom" 
d="M102 1239v21q0 116 73 180.5t173 64.5q108 0 177 -64.5t69 -170.5q0 -103 -111 -205l-196 -184h307v-133h-492v133q3 3 48 46t109.5 104.5t109.5 105.5q25 25 38.5 40t28.5 42t15 51q0 46 -28.5 74t-74.5 28t-74 -28t-28 -74v-31h-144z" />
    <glyph glyph-name="three.dnom" 
d="M604 1495v-133l-205 -135q95 -11 155 -74t60 -160q0 -103 -77 -179.5t-191 -76.5q-116 0 -190 74.5t-74 171.5h143q0 -47 34.5 -80t86.5 -33q54 0 89.5 33t35.5 80q0 55 -36.5 89t-98.5 34h-131v113l188 143h-291v133h502z" />
    <glyph glyph-name="four.dnom" 
d="M205 1075h184v185h143v-185h103v-133h-103v-194h-143v194h-348v133l287 420h161z" />
    <glyph glyph-name="five.dnom" 
d="M614 1004q0 -110 -75.5 -188.5t-190.5 -78.5q-118 0 -192 74.5t-74 171.5h143q0 -46 35.5 -79.5t87.5 -33.5q55 0 89 35t34 90q0 64 -39.5 97.5t-103.5 33.5q-94 0 -226 -20v113l97 276h385v-133h-295l-47 -123q47 21 96 21q123 0 199.5 -70.5t76.5 -185.5z" />
    <glyph glyph-name="six.dnom" 
d="M362 870q49 0 80 32.5t31 80.5q0 52 -31.5 84.5t-83.5 32.5q-48 0 -80 -33t-32 -84q0 -48 32 -80.5t84 -32.5zM82 1116q1 76 19 144t52.5 124t91 88.5t128.5 32.5q96 0 160.5 -60.5t64.5 -164.5h-137q0 47 -27.5 71.5t-71.5 24.5q-124 0 -137 -202q55 55 148 55
q112 0 178.5 -71t66.5 -175q0 -102 -71.5 -174t-184.5 -72q-68 0 -124 30.5t-91 82.5q-65 97 -65 266z" />
    <glyph glyph-name="seven.dnom" 
d="M471 1362h-250v-102h-129v235h533v-123q-132 -246 -267 -624h-143v30q29 77 60.5 153.5t62 144.5t52 114.5t48.5 102.5t33 69z" />
    <glyph glyph-name="eight.dnom" 
d="M102 1290q0 97 71.5 156t174.5 59t174.5 -59t71.5 -156q0 -46 -22 -86.5t-60 -66.5q47 -24 74.5 -70t27.5 -104q0 -95 -73 -160.5t-193 -65.5t-193 65.5t-73 160.5q0 59 27.5 104.5t74.5 69.5q-82 59 -82 153zM225 967q0 -43 34.5 -70t88.5 -27q55 0 89 27t34 70
q0 49 -35 76.5t-88 27.5q-50 0 -86.5 -27.5t-36.5 -76.5zM246 1282q0 -34 27.5 -59t74.5 -25q48 0 75.5 24.5t27.5 59.5q0 39 -29 64.5t-74 25.5t-73.5 -25.5t-28.5 -64.5z" />
    <glyph glyph-name="nine.dnom" 
d="M334 1372q-49 0 -80 -32t-31 -80q0 -52 31.5 -84.5t83.5 -32.5q48 0 80.5 33t32.5 84q0 48 -32.5 80t-84.5 32zM614 1126q-1 -76 -18.5 -144t-52 -124t-91 -88.5t-128.5 -32.5q-96 0 -161 61t-65 165h138q0 -47 27.5 -72t70.5 -25q124 0 137 203q-55 -55 -147 -55
q-112 0 -179 71t-67 175q0 102 71.5 173.5t184.5 71.5q68 0 124.5 -30t90.5 -82q65 -97 65 -267z" />
    <glyph glyph-name="zero.numr" 
d="M348 625q-45 0 -77 -25.5t-35 -67.5q-2 -28 2 -88q2 -23 2 -69q0 -47 -2 -72q-4 -62 -2 -90q1 -42 33 -66t79 -24t79.5 24t33.5 66q2 29 -2 90q-2 25 -2 72q0 46 2 69q4 60 2 88q-3 42 -35.5 67.5t-77.5 25.5zM348 -10q-110 0 -177.5 60t-78.5 153q-4 30 0 102q4 50 4 70
q0 21 -4 67q-4 71 0 101q12 96 79 155.5t177 59.5t177 -59.5t79 -155.5q4 -30 0 -101q-4 -46 -4 -67q0 -20 4 -70q4 -72 0 -102q-11 -93 -78.5 -153t-177.5 -60z" />
    <glyph glyph-name="one.numr" 
d="M496 133v123h129v-256h-533v133h189v471l-43 -61h-144v20l144 185h184v-615h74z" />
    <glyph glyph-name="two.numr" 
d="M102 492v20q0 116 73 181t173 65q108 0 177 -65t69 -171q0 -103 -111 -205l-196 -184h307v-133h-492v133q3 3 48 46t109.5 104.5t109.5 105.5q25 25 38.5 40t28.5 42t15 51q0 46 -28.5 74.5t-74.5 28.5t-74 -28.5t-28 -74.5v-30h-144z" />
    <glyph glyph-name="three.numr" 
d="M604 748v-134l-205 -135q96 -11 155.5 -73.5t59.5 -159.5q0 -103 -77 -179.5t-191 -76.5q-116 0 -190 74.5t-74 171.5h143q0 -47 34.5 -80t86.5 -33q54 0 89.5 33t35.5 80q0 55 -36.5 88.5t-98.5 33.5h-131v113l188 143h-291v134h502z" />
    <glyph glyph-name="four.numr" 
d="M205 328h184v184h143v-184h103v-133h-103v-195h-143v195h-348v133l287 420h161z" />
    <glyph glyph-name="five.numr" 
d="M614 256q0 -110 -75.5 -188t-190.5 -78q-118 0 -192 74.5t-74 171.5h143q0 -46 35.5 -79.5t87.5 -33.5q55 0 89 35t34 90q0 64 -39.5 97.5t-103.5 33.5q-87 0 -226 -21v113l97 277h385v-134h-295l-47 -122q45 20 96 20q123 0 199.5 -70.5t76.5 -185.5z" />
    <glyph glyph-name="six.numr" 
d="M362 123q49 0 80 32.5t31 80.5q0 51 -31.5 83.5t-83.5 32.5q-48 0 -80 -32.5t-32 -83.5q0 -48 32 -80.5t84 -32.5zM82 369q1 76 19 144t52.5 124t91 88.5t128.5 32.5q96 0 160.5 -61t64.5 -165h-137q0 47 -27.5 72t-71.5 25q-124 0 -137 -203q55 55 148 55
q112 0 178.5 -70.5t66.5 -174.5q0 -102 -71.5 -174t-184.5 -72q-68 0 -124.5 30t-90.5 82q-65 97 -65 267z" />
    <glyph glyph-name="seven.numr" 
d="M471 614h-250v-102h-129v236h533v-123q-132 -247 -267 -625h-143v31q35 95 78.5 197t68.5 156.5t66.5 140.5t42.5 89z" />
    <glyph glyph-name="eight.numr" 
d="M102 543q0 97 71.5 156t174.5 59t174.5 -59t71.5 -156q0 -46 -22 -87t-60 -67q47 -24 74.5 -70t27.5 -104q0 -95 -73 -160t-193 -65t-193 65t-73 160q0 59 27.5 104.5t74.5 69.5q-82 59 -82 154zM225 219q0 -43 34.5 -69.5t88.5 -26.5q55 0 89 26.5t34 69.5q0 49 -35 77
t-88 28q-50 0 -86.5 -28t-36.5 -77zM246 535q0 -34 27.5 -59t74.5 -25q48 0 75.5 24.5t27.5 59.5q0 39 -29 64.5t-74 25.5t-73.5 -25.5t-28.5 -64.5z" />
    <glyph glyph-name="nine.numr" 
d="M334 625q-49 0 -80 -32.5t-31 -80.5q0 -52 31.5 -84.5t83.5 -32.5q48 0 80.5 33t32.5 84q0 48 -32.5 80.5t-84.5 32.5zM614 379q-1 -76 -18.5 -144t-52 -124t-91 -88.5t-128.5 -32.5q-96 0 -161 60.5t-65 164.5h138q0 -47 27 -71.5t71 -24.5q124 0 137 203
q-56 -56 -147 -56q-112 0 -179 71t-67 175q0 102 71.5 174t184.5 72q68 0 124 -30.5t91 -82.5q65 -97 65 -266z" />
    <glyph glyph-name="commaaccent" horiz-adv-x="491" 
d="M373 -82l-129 -387l-178 47l110 340h197z" />
    <glyph glyph-name="commaaccent.alt" horiz-adv-x="491" 
d="M66 1075l129 387l176 -57l-109 -330h-196z" />
    <glyph glyph-name="caron.alt" horiz-adv-x="491" 
d="M457 1556l-140 -432l-170 56l119 376h191z" />
    <glyph glyph-name="caron.cap" 
d="M651 1808l-213 -200h-180l-213 200l129 131l174 -167l174 167z" />
    <glyph glyph-name="circumflex.cap" horiz-adv-x="675" 
d="M436 1939l213 -200l-129 -131l-174 168l-174 -168l-129 131l213 200h180z" />
    <glyph glyph-name="acute.cap" horiz-adv-x="675" 
d="M436 1939l139 -137l-192 -194h-236z" />
    <glyph glyph-name="grave.cap" horiz-adv-x="675" 
d="M84 1802l139 137l289 -331h-236z" />
    <glyph glyph-name="macron.cap" horiz-adv-x="675" 
d="M61 1669v164h553v-164h-553z" />
    <glyph glyph-name="breve.cap" horiz-adv-x="675" 
d="M338 1608q-129 0 -203 77.5t-74 174.5v14h175v-2q0 -40 25.5 -71.5t76.5 -31.5t76.5 31.5t25.5 71.5v2h174v-14q0 -97 -73.5 -174.5t-202.5 -77.5z" />
    <glyph glyph-name="ring.cap" horiz-adv-x="675" 
d="M111 1765q0 97 66 160.5t161 63.5t161 -63.5t66 -160.5t-66 -160t-161 -63t-161 63t-66 160zM250 1765q0 -38 25 -63t63 -25t63 25t25 63t-25 63t-63 25t-63 -25t-25 -63z" />
    <glyph glyph-name="tilde.cap" 
d="M471 1886q101 0 156 -68.5t43 -189.5h-168q12 80 -43 80q-20 0 -58 -20t-88.5 -40t-99.5 -20q-93 0 -144 57t-44 158l170 45q-9 -80 45 -80q24 0 61 19.5t81.5 39t88.5 19.5z" />
    <glyph glyph-name="dotaccent.cap" horiz-adv-x="675" 
d="M236 1632v226h225v-226h-225z" />
    <glyph glyph-name="hungarumlaut.cap" horiz-adv-x="675" 
d="M242 1944l159 -97l-155 -241h-197zM612 1952l142 -117l-203 -229h-211z" />
    <glyph glyph-name="dieresis.cap" horiz-adv-x="675" 
d="M20 1632v226h224v-226h-224zM430 1632v226h225v-226h-225z" />
    <glyph glyph-name="afii10077.BUL" horiz-adv-x="1167" 
d="M270 0h-229l399 1495h287l399 -1495h-229l-313 1260z" />
    <glyph glyph-name="afii10029.BUL" horiz-adv-x="1290" 
d="M270 0h-229l479 1495h250l479 -1495h-229l-377 1198z" />
    <glyph glyph-name="afii10069.BUL" horiz-adv-x="1331" 
d="M1167 205h144v-512h-213v307h-865v-307h-213v512h144l377 1290h252zM666 1229l-277 -1024h555z" />
    <glyph glyph-name="afii10021.BUL" horiz-adv-x="1433" 
d="M1249 205h144v-512h-215v307h-942v-307h-216v512h144l418 1290h252zM707 1219l-316 -1014h633z" />
    <glyph glyph-name="afii10038.BUL" horiz-adv-x="1658" 
d="M723 -102v338h-129q-254 0 -403.5 147t-149.5 375t149 375t404 147h129v338h213v-338h129q255 0 404 -147t149 -375t-149 -375t-404 -147h-129v-338h-213zM936 436h139q161 0 244.5 91.5t83.5 230.5t-83.5 230t-244.5 91h-139v-643zM256 758q0 -139 83.5 -230.5
t244.5 -91.5h139v643h-139q-161 0 -244.5 -91t-83.5 -230z" />
    <glyph glyph-name="afii10017.BULgrave" horiz-adv-x="1331" 
d="M41 0h215l166 492h485l168 -492h215l-512 1495h-225zM666 1206l174 -510h-348zM344 1802l139 137l289 -331h-235z" />
    <glyph glyph-name="afii10022.BULgrave" horiz-adv-x="1167" 
d="M164 1495v-1495h942v205h-727v450h727v205h-727v430h727v205h-942zM338 1802l139 137l289 -331h-236z" />
    <glyph glyph-name="afii10026.BULgrave" horiz-adv-x="1413" 
d="M377 1495v-1106l637 1106h235v-1495h-213v1126l-637 -1126h-235v1495h213zM455 1802l139 137l289 -331h-236z" />
    <glyph glyph-name="afii10032.BULgrave" horiz-adv-x="1740" 
d="M82 748q0 -161 62.5 -307t167.5 -251.5t251 -168t307 -62.5t307 62.5t251.5 168t168 251.5t62.5 307t-62.5 307t-168 251t-251.5 167.5t-307 62.5q-214 0 -395.5 -105.5t-287 -287t-105.5 -395.5zM297 745q0 126 42.5 234.5t117 186t181.5 121.5t232 44q252 0 412 -165
t160 -421q0 -253 -160 -417t-412 -164t-412.5 164t-160.5 417zM573 1802l140 137l288 -331h-235z" />
    <glyph glyph-name="afii10037.BULgrave" horiz-adv-x="1146" 
d="M305 1802l139 137l289 -331h-235zM41 1495h235l304 -696l311 696h235l-675 -1495h-230l244 545z" />
    <glyph glyph-name="afii10044.BULgrave" horiz-adv-x="1413" 
d="M20 1495v-205h287v-1290h584q201 0 331 119.5t130 310.5t-130 310.5t-331 119.5h-369v635h-502zM901 205h-379v450h379q100 0 168 -58t68 -167t-68 -167t-168 -58zM92 1802l139 137l289 -331h-235z" />
    <glyph glyph-name="afii10045.BULgrave" horiz-adv-x="1765" 
d="M616 1802l140 137l288 -331h-235zM164 1495v-1495h584q201 0 330.5 119.5t129.5 310.5t-129.5 310.5t-330.5 119.5h-369v635h-215zM1346 205v-205h286v205h-35v1085h35v205h-286v-205h34v-1085h-34zM758 205h-379v450h379q99 0 167 -58t68 -167t-68 -167t-167 -58z" />
    <glyph glyph-name="afii10047.BULgrave" horiz-adv-x="1515" 
d="M348 860v-205h862q-27 -221 -172.5 -356t-382.5 -135q-290 0 -450 225l-144 -143q106 -136 264.5 -211.5t329.5 -75.5q166 0 311.5 61.5t247.5 167t161 250.5t59 307q0 218 -99.5 399t-276 286.5t-392.5 105.5q-171 0 -329.5 -75.5t-264.5 -211.5l143 -143
q160 225 440 225q225 0 371.5 -130.5t179.5 -340.5h-858zM360 1802l140 137l288 -331h-235z" />
    <glyph glyph-name="afii10048.BULgrave" horiz-adv-x="2119" 
d="M129 205v-205h287v205h-37v450h207q15 -147 75.5 -275t154 -221t221.5 -146.5t272 -53.5q206 0 373.5 105t261.5 285.5t94 398.5t-94 398t-261.5 285t-373.5 105q-141 0 -267 -51.5t-219.5 -141.5t-155.5 -215t-79 -268h-209v430h37v205h-287v-205h35v-1085h-35zM797 745
q0 161 61 293t179 212.5t272 80.5t272 -80.5t179 -212.5t61 -293q0 -159 -61 -290t-179 -211t-272 -80t-272 80t-179 211t-61 290zM1006 1802l139 137l289 -331h-236z" />
    <glyph glyph-name="afii10049.BULgrave" horiz-adv-x="1331" 
d="M514 1802l139 137l289 -331h-235zM522 655q-110 5 -206.5 55t-160 146t-63.5 219q0 129 64.5 226t168 145.5t228.5 48.5h614v-1495h-215v655h-184l-430 -655h-236v41zM543 860h409v430h-409q-99 0 -167.5 -56.5t-68.5 -158.5t68.5 -158.5t167.5 -56.5z" />
    <glyph glyph-name="afii10065.BULgrave" horiz-adv-x="1167" 
d="M430 1495l-389 -1495h213l78 307h502l79 -307h213l-389 1495h-307zM385 510l199 793l196 -793h-395zM281 1802l139 137l289 -331h-236z" />
    <glyph glyph-name="afii10070.BULgrave" horiz-adv-x="1064" 
d="M164 1495v-1495h840v205h-625v450h584v205h-584v430h625v205h-840zM225 1802l140 137l288 -331h-235z" />
    <glyph glyph-name="afii10074.BULgrave" horiz-adv-x="1187" 
d="M330 1802l139 137l289 -331h-236zM358 1495v-1157l379 1157h287v-1495h-195v1157l-378 -1157h-287v1495h194z" />
    <glyph glyph-name="afii10080.BULgrave" horiz-adv-x="1740" 
d="M82 748q0 -161 62.5 -307t167.5 -251.5t251 -168t307 -62.5t307 62.5t251.5 168t168 251.5t62.5 307t-62.5 307t-168 251t-251.5 167.5t-307 62.5q-214 0 -395.5 -105.5t-287 -287t-105.5 -395.5zM297 745q0 126 42.5 234.5t117 186t181.5 121.5t232 44q252 0 412 -165
t160 -421q0 -253 -160 -417t-412 -164t-412.5 164t-160.5 417zM573 1802l140 137l288 -331h-235z" />
    <glyph glyph-name="afii10085.BULgrave" horiz-adv-x="1064" 
d="M270 1802l140 137l288 -331h-235zM41 1495h229l285 -686l270 686h219l-587 -1495h-221l217 557z" />
    <glyph glyph-name="afii10092.BULgrave" horiz-adv-x="1413" 
d="M20 1495v-205h287v-1290h584q201 0 331 119.5t130 310.5t-130 310.5t-331 119.5h-369v635h-502zM901 205h-379v450h379q100 0 168 -58t68 -167t-68 -167t-168 -58zM84 1802l139 137l289 -331h-236z" />
    <glyph glyph-name="afii10093.BULgrave" horiz-adv-x="1765" 
d="M164 1495v-1495h563q201 0 331 119.5t130 310.5t-130 310.5t-331 119.5h-348v635h-215zM1270 205v-205h440v205h-113v1085h113v205h-440v-205h110v-1085h-110zM737 205h-358v450h358q100 0 168 -58t68 -167t-68 -167t-168 -58zM614 1802l140 137l288 -331h-235z" />
    <glyph glyph-name="afii10095.BULgrave" horiz-adv-x="1515" 
d="M655 860v-205h555q-27 -221 -172.5 -356t-382.5 -135q-290 0 -450 225l-144 -143q106 -136 264.5 -211.5t329.5 -75.5q166 0 311.5 61.5t247.5 167t161 250.5t59 307q0 218 -99.5 399t-276 286.5t-392.5 105.5q-171 0 -329.5 -75.5t-264.5 -211.5l143 -143
q160 225 440 225q225 0 371.5 -130.5t179.5 -340.5h-551zM350 1802l139 137l289 -331h-235z" />
    <glyph glyph-name="afii10096.BULgrave" horiz-adv-x="2119" 
d="M129 205v-205h287v205h-37v450h207q15 -147 75.5 -275t154 -221t221.5 -146.5t272 -53.5q206 0 373.5 105t261.5 285.5t94 398.5t-94 398t-261.5 285t-373.5 105q-141 0 -267 -51.5t-219.5 -141.5t-155.5 -215t-79 -268h-209v430h37v205h-287v-205h35v-1085h-35zM797 745
q0 161 61 293t179 212.5t272 80.5t272 -80.5t179 -212.5t61 -293q0 -159 -61 -290t-179 -211t-272 -80t-272 80t-179 211t-61 290zM985 1802l139 137l289 -331h-235z" />
    <glyph glyph-name="afii10097.BULgrave" horiz-adv-x="1320" 
d="M584 655h-41q-124 0 -230.5 50.5t-173.5 148t-67 221.5q0 129 64 226t167.5 145.5t228.5 48.5h625v-1495h-215v655h-61l-748 -655h-41v246zM522 860h420v430h-420q-96 0 -165.5 -59.5t-69.5 -155.5t69.5 -155.5t165.5 -59.5zM473 1802l139 137l289 -331h-235z" />
    <glyph glyph-name="arrow_right" horiz-adv-x="1884" 
d="M1065 297l440 338l33 20h-1456v185h1456l-33 20l-440 338l123 154l614 -512v-185l-614 -512z" />
    <glyph glyph-name="arrow_left" horiz-adv-x="1884" 
d="M379 635l440 -338l-123 -154l-614 512v185l614 512l123 -154l-440 -338l-35 -20h1458v-185h-1458z" />
    <glyph glyph-name="arrow_down" horiz-adv-x="1433" 
d="M829 133l338 440l154 -122l-512 -615h-184l-512 615l153 122l338 -440l21 -35v1458h184v-1458z" />
    <glyph glyph-name="arrow_up" horiz-adv-x="1433" 
d="M1167 819l-338 441l-20 32v-1456h-184v1456l-21 -32l-338 -441l-153 123l512 614h184l512 -614z" />
    <glyph glyph-name="arrow_left_up" horiz-adv-x="1556" 
d="M319 1040l72 -548l-194 -23l-74 795l131 131l797 -74l-23 -195l-551 72l-39 8l1026 -1034l-131 -131l-1022 1032z" />
    <glyph glyph-name="arrow_left_down" horiz-adv-x="1556" 
d="M391 944l-72 -549l-8 -33l1022 1033l131 -131l-1026 -1037l39 11l551 71l23 -194l-797 -74l-131 131l74 795z" />
    <glyph glyph-name="arrow_right_up" horiz-adv-x="1556" 
d="M1165 492l72 548l8 33l-1022 -1032l-131 131l1024 1034l-37 -8l-551 -72l-22 195l797 74l131 -131l-74 -795z" />
    <glyph glyph-name="arrow_right_down" horiz-adv-x="1556" 
d="M1237 395l-72 549l195 23l74 -795l-131 -131l-797 74l22 194l551 -71l37 -11l-1024 1037l131 131l1022 -1033z" />
    <glyph glyph-name="RP" horiz-adv-x="1658" 
d="M739 887l-286 504l12 8l287 -506zM922 887l286 504l-12 8l-287 -506zM739 608l-286 -504l12 -8l287 506zM922 608l286 -504l-12 -8l-287 506zM692 653l-471 -336l8 -12l471 338zM969 842l471 336l-8 12l-471 -338zM692 842l-471 336l8 12l471 -338zM969 653l471 -336
l-8 -12l-471 338zM772 903l-178 551l14 4l176 -551zM772 592l-178 -551l14 -4l176 551zM889 903l178 551l-14 4l-176 -551zM889 592l178 -551l-14 -4l-176 551zM715 629l-389 -430l10 -11l389 433zM715 866l-389 430l10 11l389 -433zM946 866l389 430l-10 11l-389 -433z
M946 629l389 -430l-10 -11l-389 433zM676 686l-533 -233l7 -13l532 234zM985 809l533 233l-7 13l-532 -234zM985 686l533 -233l-7 -13l-532 234zM676 809l-533 233l7 13l532 -234zM666 776l-568 117l4 14l566 -119zM666 719l-568 -117l4 -14l566 119zM995 776l568 117l-4 14
l-566 -119zM995 719l568 -117l-4 -14l-566 119zM807 584l-64 -576l15 -2l61 576zM854 911l64 576l-15 2l-61 -576zM854 584l64 -576l-15 -2l-61 576zM807 911l-64 576l15 2l61 -576zM82 754h582v-13h-582v13zM1577 754h-580v-13h580v13zM1004 975l272 371l-12 10l-273 -373z
M657 975l-272 371l12 10l273 -373zM657 520l-272 -370l12 -11l273 373zM1004 520l272 -370l-12 -11l-273 373zM764 1026l-94 449l14 4l94 -451zM764 469l-94 -449l14 -4l94 451zM897 1026l94 449l-14 4l-94 -451zM897 469l94 -449l-14 -4l-94 451zM823 461v-461h15v461h-15z
M823 1034v461h15v-461h-15zM1081 612l402 -229l-6 -12l-404 229zM580 612l-402 -229l6 -12l404 229zM580 883l-402 229l6 12l404 -229zM1081 883l402 229l-6 12l-404 -229zM1106 666l438 -140l-4 -14l-438 141zM1106 829l438 140l-4 14l-438 -141zM555 666l-438 -140l4 -14
l438 141zM555 829l-438 140l4 14l438 -141zM1391 1241l-11 10l-342 -309l9 -10zM270 1241l11 10l342 -309l-9 -10zM1391 254l-11 -10l-342 309l9 10zM270 254l11 -10l342 309l-9 10zM711 1006l-189 421l13 7l188 -422zM950 1006l189 421l-13 7l-188 -422zM950 489l189 -421
l-13 -7l-188 422zM711 489l-189 -421l13 -7l188 422zM1575 678l-2 -14l-459 49l2 12zM86 817l2 14l459 -49l-2 -12zM1575 817l-2 14l-459 -49l2 -12zM86 678l2 -14l459 49l-2 12z" />
    <glyph glyph-name="interfinity" horiz-adv-x="983" 
d="M492 1497q155 0 266.5 -96.5t111.5 -233.5q0 -65 -29.5 -123.5t-68 -97t-100.5 -86.5l-37 -29q6 -5 36 -31t38.5 -34.5t30 -33.5t29 -42.5t15 -46t7.5 -59.5q0 -122 -88 -190t-211 -68t-211 68t-88 190q0 27 4 50.5t14.5 44t18.5 35.5t26.5 33.5t28 27.5t32.5 29t31 27
l-37 29q-62 48 -100.5 86.5t-68 97t-29.5 123.5q0 137 112 233.5t267 96.5zM430 999l62 -51l61 51q31 24 46 37t36.5 35.5t31 46t9.5 49.5q0 68 -53 111t-131 43t-131.5 -43t-53.5 -111q0 -26 9.5 -49.5t31 -46t36.5 -35.5t46 -37zM492 498q52 0 82 24.5t30 61.5
q0 17 -10.5 34t-19.5 26.5t-32.5 28.5t-29.5 25l-20 19l-21 -19q-6 -6 -29.5 -25t-32.5 -28.5t-19.5 -26.5t-10.5 -34q0 -37 30.5 -61.5t82.5 -24.5zM369 0v246h245v-246h-245z" />
    <glyph glyph-name="zigzag" horiz-adv-x="1218" 
d="M1178 256v-256h-103v154l-164 -164l-92 92l174 379l-471 -471l-92 92l410 614l-707 -706l-92 92l602 807l-510 -510l-92 92l403 608l-311 -311l-92 92l176 381l-84 -84l-92 92v307h102v-204l164 164l92 -93l-174 -379l471 472l92 -93l-409 -614l706 707l93 -93l-691 -895
l598 598l93 -92l-404 -608l311 311l93 -92l-177 -381l84 84z" />
    <glyph glyph-name="scratch.04" horiz-adv-x="1474" 
d="M1348 545l51 -142v-63l-328 -340h-57l-320 111l-20 -91h-68l-33 132l-174 57l-342 -209l-51 37l49 289l-28 8l-11 61l60 47l67 392l-102 -117l-51 51l176 203l88 512l68 2l61 -246l201 256l63 -6l178 -422l23 18l94 410l68 -6l73 -209l269 215l53 -35l-176 -583l92 -259
l154 160l51 -51zM1292 494l-262 -263l-59 35l184 608l-104 289l-140 -116l-26 -119l127 -305l-13 -43l-229 -142l-59 -258l327 -110l295 307zM403 1153l89 -362l278 227l-164 389zM510 713l74 -307l127 77l100 437l-12 32zM133 373l258 -84l129 80l-71 295l-310 -261z
M231 940l-73 -428l272 227l-82 346zM1110 1208l80 -221l119 389zM1194 772l-119 -399l191 192zM121 301l-33 -201l223 140zM858 811l-63 -276l141 88zM633 205l10 -4l43 186l-84 -53zM983 1354l-45 -195l88 74zM295 1300l-39 -217l70 88zM477 258l76 -27l-14 66z" />
    <glyph glyph-name="scratch.05" horiz-adv-x="1474" 
d="M1356 696l35 -671l-70 -9l-102 420l-37 -416l-64 -14l-233 420l-66 -408l-65 -10l-244 510l-156 -506l-69 13l22 528l-190 -29l-39 45l57 236l-94 -88l-51 51l178 168l139 559l64 8l131 -235l241 243l60 -38l-150 -482l162 -293l37 4l123 789l67 4l148 -616l53 610l74 -2
l37 -717l141 18l21 -71zM231 903l-73 -299l151 19l10 292l70 15l107 -219l82 272l-93 168zM915 637l-12 -94l219 -400l47 510l-4 17zM553 588l215 -445l57 387l-47 88zM1016 1300l-90 -589l223 28zM352 1389l-86 -357l180 182zM623 899l-72 -240l190 27zM537 1204l69 -125
l88 281zM377 563l-10 -264l84 274zM1239 662l61 -252l-14 276l-45 -6zM1284 760l-12 268l-25 -272zM387 772l-6 -139l65 10z" />
    <glyph glyph-name="scratch.01" horiz-adv-x="1474" 
d="M1139 289l-267 -299l-61 26l41 467l-236 -483h-63l-201 369l-116 -369l-72 12l53 611l-119 227l-57 -133l-61 31l75 184l-71 133l18 51l160 66l135 313l70 -14l-21 -221l252 104l41 131h68l30 -72l226 93l49 -37l-51 -584l4 -10l297 612l67 -14v-867l135 152l52 -51
l-187 -205v-498l-67 -14zM655 1311l-272 -846l201 -373l286 596l17 197l-187 444zM961 711l-21 -43l-49 -551l215 245zM1257 426l-67 -74l67 -164v238zM307 457l-26 51l-17 -182zM1257 1329l-256 -532l158 -373l98 111v794zM340 1180l-49 -541l45 -86l233 721zM217 1128
l-84 -194l96 -180l35 393zM121 1087l-55 -22l24 -49zM934 1427l-168 -69l135 -322zM272 1229l4 37l-20 -43z" />
    <glyph glyph-name="scratch.02" horiz-adv-x="1474" 
d="M1382 -10l-430 102l-4 -78l-67 -14l-62 125l-135 35l-254 -170l-49 49l113 168l-293 74l-140 -281l-67 20l33 306l-7 2l-12 61l27 23l35 333l-29 -28l-51 51l92 90l65 637l68 10l170 -342l352 353l58 -41l-283 -568l35 -69l387 321l18 330l72 8l57 -215l289 234l53 -48
l-280 -413l117 -422l215 145l41 -61l-236 -156l147 -528zM956 164l385 -90l-124 444l-252 -170zM567 188l-28 -41l51 35zM868 186l17 -4l6 117l-57 -39zM764 213l14 -4l-6 10zM96 307l-10 -96l45 88zM608 252l62 -14l71 47l-47 94zM233 346l302 -76l122 185l-135 270
l-172 -143zM739 449l62 -125l94 63l16 320zM109 379l55 -14l51 102zM989 823l-20 -385l229 154l-106 385zM150 827l-35 -350l178 150l139 280l-67 135zM580 772l122 -250l216 324l12 215zM473 825l-43 -86l59 52zM205 1366l-43 -426l170 170zM1004 1124l-9 -161l70 104
l-23 88zM420 1096l53 -109l160 324zM1102 1204l16 -57l109 162zM1012 1268l-2 -47l12 10z" />
    <glyph glyph-name="scratch.03" horiz-adv-x="1474" 
d="M946 0l-196 381l-76 -381h-70l-49 426l-51 -16l-101 -410l-71 16l24 349l-319 -99l-47 41l67 426l-16 -16l-51 51l88 88l100 639l68 12l160 -311l10 12l20 287h70l20 -174l185 184l57 -30l-164 -662l115 -219l182 901h70l162 -565l110 565l72 -10l39 -742l141 45l21 -71
l-158 -47l35 -658l-70 -12l-174 606l-10 -2l-125 -594zM772 492l195 -375l94 463zM625 446l24 -213l45 234zM1219 627l86 -303l-17 325zM143 823l-73 -471l292 90l41 600l-16 33zM467 922l-31 -457l8 2l74 295l-10 82zM541 565l-17 -73l23 6zM598 670l18 -152l54 17z
M942 1335l-154 -764l289 88l23 117zM1174 778l24 -82l86 27l-24 477zM231 1378l-67 -432l188 195zM537 1229l30 -268l101 403zM473 1059l12 -19l-6 54z" />
    <glyph glyph-name="cookie" horiz-adv-x="1683" 
d="M823 10q-6 -5 -12.5 -15t-12.5 -13.5t-16 -1.5q-9 0 -17 3t-19.5 10.5t-12.5 8.5q-12 12 -28 12q-3 -1 -16 -6.5t-19.5 -6.5t-22.5 1q-1 1 -3 6.5t-4 9.5t-5 9t-6 5t-8 -1q-35 0 -41 8q-4 3 -9.5 9t-9 9t-9.5 6t-13 3h-31q-33 15 -41 34q-6 15 4 32t2 24q-6 8 -18 8
q-10 0 -26.5 -13t-31.5 -10q-31 0 -55 35q-4 4 3.5 19.5t4.5 23.5q-8 8 -26.5 8.5t-26.5 8.5q-6 4 -29.5 8.5t-31.5 17.5q0 41 14 47q12 12 12 29q0 6 -26 6q-21 0 -27 -6q-6 -12 -41 -12q-23 0 -27 4q-16 14 -16 49q0 16 11 29.5t21.5 19.5t30.5 16q7 16 7 35q-7 13 -27 13
q-6 0 -16.5 -0.5t-15.5 -0.5t-10.5 2t-8.5 7q-4 7 0 25.5t0 27.5q0 19 4 33.5t8 22t4 9.5q0 6 -12 13t-12 16q-13 13 -13 41q0 3 6.5 11t6.5 12q2 1 11.5 3t19 5.5t14.5 9.5v29q0 14 -13 14q-33 0 -53 8q-6 4 -6 33q2 4 5.5 17t8.5 18q6 8 6.5 28.5t6.5 26.5q3 10 22 17
t23 26q3 6 -2.5 10t-14.5 7t-12 6q-9 15 10 38.5t19 34.5q0 7 -8 31t-1 35q15 27 43 27q7 4 20.5 -8.5t27.5 -12.5q5 0 7 5t1 12.5t-3 15.5t-5 16q-4 2 -2 17.5t2 17.5q0 10 8.5 18.5t17.5 8.5q13 -13 31 -13q4 0 4 21q-7 15 7 34t15 21q0 19 8.5 36.5t22.5 21.5
q19 6 42 -11t32 -12q16 16 -4 90q-6 6 4 35q22 22 43 12q12 -2 25 -19t24 -20q2 -2 7 -8.5t10 -11t12 -8.5q9 -3 12.5 2t4.5 14t3 12q2 2 10.5 11.5t13 14t14 9t18.5 4.5q11 0 24 11.5t25 9.5q27 -23 35 -25q3 0 5.5 6.5t4 14t2.5 8.5q27 13 53 0q13 -2 30 -19.5t31 -17.5h9
q0 1 -3 13.5t3 19.5q0 6 3.5 12t6 8.5t9 7t7.5 4.5q12 3 22 -0.5t20 -10.5t14 -9q6 0 20.5 -4t20.5 -4q34 -6 34 -37q3 -1 3 -11t2.5 -18t11.5 -6q14 0 14 23q20 20 35 20q14 2 34 -5t33 -7q29 0 29 -8q5 -5 15 -10.5t17 -12.5t11 -20q0 -11 -12 -35q-6 -4 -6 -6t6 -6
q2 -3 5 -3t7 1.5t6 1.5q4 0 12 6t9 6q5 0 13.5 2t16 2t13.5 -4q2 -2 19.5 -14t19.5 -21q4 -2 4 -8.5t-2 -15.5t-2 -11q0 -3 5 -7.5t11 -4.5q32 0 64 -19q26 -11 26 -40q0 -15 -6 -29t-6 -19t1 -5.5t7 -0.5q21 0 47 15q9 4 23.5 4t23.5 -4q11 0 21.5 -10t13.5 -25
q0 -29 -4 -43q-4 -2 -16.5 -13t-18.5 -14q-11 0 -24.5 -10.5t-5.5 -26.5q9 -8 15.5 -5t17.5 11.5t16 8.5q12 0 30 -16t23 -19q7 -25 0 -47q-6 -13 -20.5 -25.5t-16.5 -17.5q0 -27 4 -27q4 -4 8 -4t4 -4q3 -2 8.5 -5.5t7 -5t4.5 -3.5t3.5 -3.5t1 -4t0.5 -5.5q0 -37 -4 -51
q-15 -9 -25 -29q-2 -1 -9 -2.5t-10.5 -3t-8 -5t-6.5 -9.5q0 -5 4 -9.5t10 -4.5q4 0 12 2t16 2t17 -4q27 -9 27 -35q0 -30 -23 -56q0 -1 -3.5 -9t-4 -12t-0.5 -10t4 -10q1 -5 4.5 -19.5t3 -17.5t-3.5 -20q-2 -4 -14.5 -10t-14.5 -10q3 -17 -12 -70q-17 -25 -8 -41
q0 -23 -17 -40t-40 -17q-6 0 -16.5 3t-16.5 3q-5 -5 -4.5 -8t7.5 -12t9 -15q8 0 8 -27q-4 -4 -7.5 -17.5t-6.5 -16.5q-3 -6 -14.5 -28t-18.5 -30q-4 -3 -11.5 -3t-15.5 2l-8 1q-14 0 -26 -6q-6 -16 -6 -20q0 -6 3 -19t3 -24q-12 -27 -41 -27q-15 0 -39 12q-4 0 -9 7.5
t-12 7.5q-22 0 -22 -15q3 -9 12.5 -21t9.5 -20q20 -29 0 -77q0 -15 -34 -29q-20 0 -58 20q-8 4 -13.5 19.5t-8.5 17.5q0 31 -15 31q-4 0 -4 -8q0 -27 -8 -43q0 -13 -10.5 -25t-24.5 -12q-22 0 -55 20q-6 7 -13.5 9.5t-21.5 0.5l-14 -1q-4 0 -6 -2t-4 -6t-3 -5
q-11 -22 -45 -22q-35 0 -47 6q-2 3 -7 15.5t-9.5 19t-9.5 10.5q-10 5 -15 5t-6 -5.5t0 -11t2.5 -11t1.5 -6.5z" />
    <glyph glyph-name="odieresis.alt" horiz-adv-x="1740" 
d="M82 748q0 214 105.5 395.5t287 287t395.5 105.5q161 0 307 -62.5t251.5 -167.5t168 -251t62.5 -307t-62.5 -307t-168 -251.5t-251.5 -168t-307 -62.5t-307 62.5t-251 168t-167.5 251.5t-62.5 307zM297 745q0 -253 160.5 -417t412.5 -164t412 164t160 417q0 256 -160 421
t-412 165h-20v-131h205v-147h-205v-140h287v-151h-445v545q-181 -53 -288 -204.5t-107 -357.5z" />
    <glyph glyph-name="udieresis.alt" horiz-adv-x="1433" 
d="M1055 430v1065h215v-1065q0 -191 -130 -310.5t-331 -119.5h-184q-201 0 -331 119.5t-130 310.5v1065h215v-1065q0 -109 68 -167t167 -58h205q100 0 168 58t68 167zM502 1495v-733h444v151h-287v140h211v147h-211v143h287v152h-444z" />
  </font>
</defs>
</svg>
