<svg width="115" height="115" viewBox="0 0 115 115" fill="none" xmlns="http://www.w3.org/2000/svg">
<path d="M37.421 112C40.3172 109.103 47.0059 99.7177 39.2064 76.8577C31.407 53.9977 37.0311 43.5475 40.2894 40.2892" stroke="#3B37FF" stroke-width="3.5" stroke-miterlimit="10" stroke-linecap="round" stroke-linejoin="round"/>
<path d="M111.999 37.421C109.103 40.3172 99.7173 47.0059 76.8572 39.2064C53.9972 31.407 43.547 37.0311 40.2887 40.2894" stroke="#3B37FF" stroke-width="3.5" stroke-miterlimit="10" stroke-linecap="round" stroke-linejoin="round"/>
<path d="M77.579 2.99992C74.6828 5.89618 67.9941 15.2818 75.7936 38.1418C83.593 61.0018 77.9689 71.452 74.7106 74.7103" stroke="#3B37FF" stroke-width="3.5" stroke-miterlimit="10" stroke-linecap="round" stroke-linejoin="round"/>
<path d="M3.0009 77.579C5.89716 74.6828 15.2827 67.9941 38.1428 75.7936C61.0028 83.593 71.453 77.9689 74.7113 74.7106" stroke="#3B37FF" stroke-width="3.5" stroke-miterlimit="10" stroke-linecap="round" stroke-linejoin="round"/>
<path d="M40.2891 40.2896L69.3318 69.3322" stroke="#3B37FF" stroke-width="3.5" stroke-miterlimit="10" stroke-linecap="round" stroke-linejoin="round"/>
<path d="M55.3496 43.875L78.2969 66.8223" stroke="#3B37FF" stroke-width="3.5" stroke-miterlimit="10" stroke-linecap="round" stroke-linejoin="round"/>
<path d="M43.875 55.3486L66.8223 78.296" stroke="#3B37FF" stroke-width="3.5" stroke-miterlimit="10" stroke-linecap="round" stroke-linejoin="round"/>
<path d="M48.8945 71.8418L35.2696 58.2168" stroke="#3B37FF" stroke-width="3.5" stroke-miterlimit="10" stroke-linecap="round" stroke-linejoin="round"/>
<path d="M71.8418 48.8945L58.2168 35.2696" stroke="#3B37FF" stroke-width="3.5" stroke-miterlimit="10" stroke-linecap="round" stroke-linejoin="round"/>
<path d="M76.1445 7.30273L99.0919 30.25" stroke="#3B37FF" stroke-width="3.5" stroke-miterlimit="10" stroke-linecap="round" stroke-linejoin="round"/>
<path d="M98.375 41.0063L84.75 27.3814" stroke="#3B37FF" stroke-width="3.5" stroke-miterlimit="10" stroke-linecap="round" stroke-linejoin="round"/>
<path d="M9.4541 73.9932L32.4014 96.9405" stroke="#3B37FF" stroke-width="3.5" stroke-miterlimit="10" stroke-linecap="round" stroke-linejoin="round"/>
<path d="M43.1582 96.2236L29.5332 82.5987" stroke="#3B37FF" stroke-width="3.5" stroke-miterlimit="10" stroke-linecap="round" stroke-linejoin="round"/>
</svg>
