<svg width="105" height="103" viewBox="0 0 105 103" fill="none" xmlns="http://www.w3.org/2000/svg">
<path d="M57.8721 2.12158H66.4678" stroke="#3B37FF" stroke-width="3.5" stroke-miterlimit="10" stroke-linecap="round" stroke-linejoin="round"/>
<path d="M44.9785 2.12158H53.5743" stroke="#3B37FF" stroke-width="3.5" stroke-miterlimit="10" stroke-linecap="round" stroke-linejoin="round"/>
<path d="M66.4678 101.063L69.7771 90.3086" stroke="#3B37FF" stroke-width="3.5" stroke-miterlimit="10" stroke-linecap="round" stroke-linejoin="round"/>
<path d="M90.1062 10.7251H85.8083H32.085" stroke="#3B37FF" stroke-width="3.5" stroke-miterlimit="10" stroke-linecap="round" stroke-linejoin="round"/>
<path d="M40.6812 19.3289H25.6387" stroke="#3B37FF" stroke-width="3.5" stroke-miterlimit="10" stroke-linecap="round" stroke-linejoin="round"/>
<path d="M94.404 19.3289H44.9785" stroke="#3B37FF" stroke-width="3.5" stroke-miterlimit="10" stroke-linecap="round" stroke-linejoin="round"/>
<path d="M25.6382 27.9324H19.1914" stroke="#3B37FF" stroke-width="3.5" stroke-miterlimit="10" stroke-linecap="round" stroke-linejoin="round"/>
<path d="M85.8088 27.9324H29.9365" stroke="#3B37FF" stroke-width="3.5" stroke-miterlimit="10" stroke-linecap="round" stroke-linejoin="round"/>
<path d="M76.1601 36.5359H17.043" stroke="#3B37FF" stroke-width="3.5" stroke-miterlimit="10" stroke-linecap="round" stroke-linejoin="round"/>
<path d="M23.4893 45.1396H14.8936" stroke="#3B37FF" stroke-width="3.5" stroke-miterlimit="10" stroke-linecap="round" stroke-linejoin="round"/>
<path d="M46.139 45.1396H27.7871" stroke="#3B37FF" stroke-width="3.5" stroke-miterlimit="10" stroke-linecap="round" stroke-linejoin="round"/>
<path d="M43.2385 53.7432H17.043" stroke="#3B37FF" stroke-width="3.5" stroke-miterlimit="10" stroke-linecap="round" stroke-linejoin="round"/>
<path d="M27.7876 62.3469H21.3408" stroke="#3B37FF" stroke-width="3.5" stroke-miterlimit="10" stroke-linecap="round" stroke-linejoin="round"/>
<path d="M46.5043 62.3469H32.085" stroke="#3B37FF" stroke-width="3.5" stroke-miterlimit="10" stroke-linecap="round" stroke-linejoin="round"/>
<path d="M56.1106 70.9504H25.6387" stroke="#3B37FF" stroke-width="3.5" stroke-miterlimit="10" stroke-linecap="round" stroke-linejoin="round"/>
<path d="M59.5054 79.554H32.085" stroke="#3B37FF" stroke-width="3.5" stroke-miterlimit="10" stroke-linecap="round" stroke-linejoin="round"/>
<path d="M42.8301 88.1577H29.9365" stroke="#3B37FF" stroke-width="3.5" stroke-miterlimit="10" stroke-linecap="round" stroke-linejoin="round"/>
<path d="M55.7237 88.1577H47.1279" stroke="#3B37FF" stroke-width="3.5" stroke-miterlimit="10" stroke-linecap="round" stroke-linejoin="round"/>
<path d="M32.0855 96.7612H25.6387" stroke="#3B37FF" stroke-width="3.5" stroke-miterlimit="10" stroke-linecap="round" stroke-linejoin="round"/>
<path d="M49.2764 96.7612H36.3828" stroke="#3B37FF" stroke-width="3.5" stroke-miterlimit="10" stroke-linecap="round" stroke-linejoin="round"/>
<path d="M57.8721 96.7612H53.5742" stroke="#3B37FF" stroke-width="3.5" stroke-miterlimit="10" stroke-linecap="round" stroke-linejoin="round"/>
<path d="M51.6117 66.8186C53.6016 67.3123 55.7308 68.7799 56.0858 70.7992C57.0138 76.0768 59.6946 80.936 63.7609 84.5442L67.8438 88.1793C72.4855 92.3305 78.5026 94.6105 84.7345 94.6105C87.8504 94.6105 90.5151 92.3735 91.0738 89.3193L94.0599 72.8519C94.2698 71.694 95.1374 70.7658 96.2784 70.4782L100.207 69.4879C101.84 69.0793 103 67.5951 103 65.9174C103 64.9925 102.764 64.0677 102.291 63.2718L95.3717 51.1622C94.77 50.0868 94.727 48.7747 95.2857 47.6778C96.1238 46.0216 96.4676 44.1718 96.3172 42.322L94.9413 25.7801C94.7295 23.2339 91.6351 22.101 89.8293 23.9084L73.3238 40.429C73.054 40.6991 72.7351 40.9152 72.3842 41.0657L58.8539 46.8697C58.2193 47.142 57.5103 47.1869 56.8464 46.9971L49.5994 44.9246C47.9877 44.4729 46.2685 44.7956 44.9362 45.785C40.2515 49.3125 44.4205 57.4644 46.5909 62.5405C47.5417 64.7521 49.4354 66.2787 51.6117 66.8186Z" stroke="#3B37FF" stroke-width="3.5" stroke-miterlimit="10" stroke-linecap="round" stroke-linejoin="round"/>
<path d="M60.0215 88.1577H68.6172" stroke="#3B37FF" stroke-width="3.5" stroke-miterlimit="10" stroke-linecap="round" stroke-linejoin="round"/>
<path d="M21.3408 19.3289H17.043" stroke="#3B37FF" stroke-width="3.5" stroke-miterlimit="10" stroke-linecap="round" stroke-linejoin="round"/>
<path d="M14.8941 27.9324H8.44727" stroke="#3B37FF" stroke-width="3.5" stroke-miterlimit="10" stroke-linecap="round" stroke-linejoin="round"/>
<path d="M10.5957 36.5359H2" stroke="#3B37FF" stroke-width="3.5" stroke-miterlimit="10" stroke-linecap="round" stroke-linejoin="round"/>
<path d="M10.5957 19.3289H6.29785" stroke="#3B37FF" stroke-width="3.5" stroke-miterlimit="10" stroke-linecap="round" stroke-linejoin="round"/>
<path d="M12.7451 53.7432H8.44727" stroke="#3B37FF" stroke-width="3.5" stroke-miterlimit="10" stroke-linecap="round" stroke-linejoin="round"/>
<path d="M21.3408 70.9504H17.043" stroke="#3B37FF" stroke-width="3.5" stroke-miterlimit="10" stroke-linecap="round" stroke-linejoin="round"/>
<path d="M10.5957 45.1396H6.29785" stroke="#3B37FF" stroke-width="3.5" stroke-miterlimit="10" stroke-linecap="round" stroke-linejoin="round"/>
<path d="M23.4893 10.7251H19.1914" stroke="#3B37FF" stroke-width="3.5" stroke-miterlimit="10" stroke-linecap="round" stroke-linejoin="round"/>
<path d="M38.5322 2.12158H34.2344" stroke="#3B37FF" stroke-width="3.5" stroke-miterlimit="10" stroke-linecap="round" stroke-linejoin="round"/>
</svg>
