<svg width="114" height="109" viewBox="0 0 114 109" fill="none" xmlns="http://www.w3.org/2000/svg">
<path d="M25.2697 83.8664C38.1212 96.7179 58.9576 96.7179 71.8091 83.8664L25.2697 37.327C12.4182 50.1785 12.4182 71.0149 25.2697 83.8664Z" stroke="white" stroke-width="3.5" stroke-linecap="round" stroke-linejoin="round"/>
<path d="M49 60L59 50" stroke="white" stroke-width="3.5" stroke-linecap="round" stroke-linejoin="round"/>
<path d="M20.1011 106.947L29.8479 88.8457" stroke="white" stroke-width="3.5" stroke-linecap="round" stroke-linejoin="round"/>
<path d="M42.3799 93.0225V106.947" stroke="white" stroke-width="3.5" stroke-linecap="round" stroke-linejoin="round"/>
<path d="M2 106.947H108.519" stroke="white" stroke-width="3.5" stroke-linecap="round" stroke-linejoin="round"/>
<path d="M78.975 10.8711H70.924C65.1565 10.8711 60.481 15.5466 60.481 21.3141V21.3141C60.481 27.0817 65.1565 31.7572 70.924 31.7572H101.557C107.324 31.7572 112 27.0817 112 21.3141V21.3141C112 15.5466 107.324 10.8711 101.557 10.8711H99.4683" stroke="white" stroke-width="3.5" stroke-linecap="round" stroke-linejoin="round"/>
<path d="M88.3289 4.2666H89.7213V0.766602H88.3289V4.2666ZM89.7213 4.2666C94.1378 4.2666 97.7181 7.84691 97.7181 12.2634H101.218C101.218 5.91391 96.0708 0.766602 89.7213 0.766602V4.2666ZM88.3289 0.766602C81.9793 0.766602 76.832 5.91391 76.832 12.2634H80.332C80.332 7.84691 83.9123 4.2666 88.3289 4.2666V0.766602Z" fill="white"/>
<circle cx="63.5" cy="45.5" r="4.5" stroke="white" stroke-width="2.5" stroke-linecap="round" stroke-linejoin="round"/>
</svg>
