<svg width="103" height="103" viewBox="0 0 103 103" fill="none" xmlns="http://www.w3.org/2000/svg">
<path d="M13.0801 51.5001C13.0801 72.6835 30.3158 89.9192 51.4992 89.9192C72.6825 89.9192 89.9182 72.6835 89.9182 51.5001C89.9182 30.3168 72.6825 13.0811 51.4992 13.0811C30.3158 13.0811 13.0801 30.3168 13.0801 51.5001Z" stroke="#3B37FF" stroke-width="3.5" stroke-miterlimit="10" stroke-linecap="round" stroke-linejoin="round"/>
<path d="M51.5 2C24.2099 2 2 24.2099 2 51.5C2 78.7901 24.2099 101 51.5 101C78.7901 101 101 78.7901 101 51.5C101 24.2099 78.7901 2 51.5 2Z" stroke="#3B37FF" stroke-width="3.5" stroke-miterlimit="10" stroke-linecap="round" stroke-linejoin="round"/>
<path d="M47.9051 25.4193L55.1505 35.8684H58.0136V20.2368H55.074V30.7069L47.8614 20.2368H44.9873V35.8684H47.9051V25.4193Z" fill="#3B37FF"/>
<path d="M56.9694 74.6929C56.6464 74.3401 56.2696 74.0424 55.8497 73.7888C55.4191 73.5352 54.967 73.3258 54.4933 73.1604C54.0088 72.984 53.5244 72.8407 53.0184 72.7194C52.5124 72.5981 52.028 72.4879 51.5435 72.3887C50.9945 72.2784 50.5316 72.1571 50.144 72.0359C49.7564 71.9146 49.4442 71.7823 49.1966 71.6279C48.949 71.4846 48.766 71.3192 48.6584 71.1428C48.5507 70.9664 48.4861 70.757 48.4861 70.5255C48.4861 69.9411 48.7445 69.4781 49.2505 69.1473C49.7672 68.8166 50.51 68.6402 51.4789 68.6402C53.4706 68.6402 54.5686 69.5773 54.784 71.4405H57.6476C57.6261 70.5585 57.4646 69.7758 57.1416 69.0812C56.8294 68.3866 56.3988 67.8023 55.8497 67.3172C55.3007 66.8431 54.6548 66.4683 53.8904 66.2147C53.1368 65.9612 52.2971 65.8289 51.382 65.8289C50.4993 65.8289 49.7026 65.9501 48.9921 66.1817C48.2708 66.4242 47.6572 66.7439 47.1404 67.1739C46.6237 67.5928 46.2253 68.1 45.9454 68.6733C45.6655 69.2576 45.5256 69.886 45.5256 70.5806C45.5256 71.22 45.6225 71.7933 45.827 72.2784C46.0316 72.7745 46.3438 73.2045 46.7744 73.5904C47.205 73.9652 47.7433 74.296 48.4 74.5716C49.0567 74.8472 49.8426 75.0898 50.7576 75.2992C51.5543 75.4646 52.2325 75.63 52.7816 75.7843C53.3306 75.9387 53.772 76.1151 54.1057 76.3025C54.4395 76.4899 54.6871 76.6994 54.8378 76.9419C54.9885 77.1845 55.0639 77.4711 55.0639 77.8019C55.0639 78.1326 54.9885 78.4303 54.827 78.6949C54.6763 78.9595 54.4502 79.191 54.1703 79.3674C53.8904 79.5548 53.5459 79.6982 53.1476 79.7974C52.7493 79.8966 52.3079 79.9517 51.8234 79.9517C51.3067 79.9517 50.833 79.8856 50.3701 79.7533C49.9179 79.621 49.5088 79.4115 49.1643 79.1359C48.8091 78.8603 48.5184 78.4964 48.2923 78.0775C48.0663 77.6475 47.9263 77.1404 47.8725 76.5561H44.9873C45.0196 77.4601 45.1811 78.298 45.4825 79.0587C45.784 79.8194 46.2146 80.4699 46.7959 81.0211C47.3773 81.5724 48.0878 81.9913 48.9383 82.3C49.7887 82.6087 50.7899 82.7631 51.9419 82.7631C52.8246 82.7631 53.632 82.6418 54.3749 82.3882C55.1177 82.1346 55.7636 81.7818 56.3019 81.3409C56.8402 80.8888 57.26 80.3486 57.5615 79.7312C57.8629 79.1028 58.0136 78.4193 58.0136 77.6585C58.0136 77.0191 57.9167 76.4568 57.7337 75.9828C57.5399 75.4536 57.2923 75.0457 56.9694 74.6929Z" fill="#3B37FF"/>
<path d="M49.2091 45.9687L49.2184 45.9624C49.2233 45.9601 49.2384 45.9538 49.2677 45.9468L77.7747 40.6644C77.7751 40.6643 77.7755 40.6642 77.7759 40.6642C77.807 40.6588 77.8287 40.665 77.8429 40.6727C77.8504 40.6767 77.8557 40.6812 77.8595 40.6854C77.8628 40.689 77.8668 40.6945 77.8707 40.7043C77.8823 40.7331 77.8804 40.7555 77.8764 40.7683C77.8746 40.7746 77.8726 40.7773 77.8724 40.7775C77.8724 40.7776 77.8723 40.7776 77.8724 40.7776L77.872 40.7779L77.87 40.7792C77.8592 40.7862 77.8484 40.7933 77.8377 40.8005L53.7781 57.0313L53.7653 57.04C53.7615 57.0426 53.7582 57.0448 53.7554 57.0465C53.7527 57.047 53.75 57.0475 53.7474 57.048L25.282 62.3251L25.2637 62.3272C25.2416 62.3296 25.2268 62.331 25.2156 62.332C25.2059 62.3329 25.2004 62.3332 25.1979 62.3334C25.1782 62.333 25.1619 62.327 25.1505 62.3195C25.145 62.3158 25.1409 62.312 25.1378 62.3083C25.1353 62.3053 25.132 62.3006 25.1285 62.2928C25.1218 62.2745 25.121 62.2552 25.1274 62.2344C25.1343 62.212 25.1466 62.1972 25.1608 62.1876L25.1625 62.1865L49.2091 45.9687Z" stroke="#3B37FF" stroke-width="3.5" stroke-miterlimit="10" stroke-linecap="round" stroke-linejoin="round"/>
<path d="M51.4617 53.4538C52.4126 53.4538 53.1811 52.6853 53.1811 51.7344C53.1811 50.7834 52.4126 50.0149 51.4617 50.0149C50.5107 50.0149 49.7422 50.7834 49.7422 51.7344C49.7422 52.6723 50.5107 53.4538 51.4617 53.4538Z" fill="#3B37FF"/>
</svg>
