<svg width="114" height="107" viewBox="0 0 114 107" fill="none" xmlns="http://www.w3.org/2000/svg">
<path d="M31.5288 59.939C29.5605 59.939 26.9722 61.4314 25.9845 63.1329L18.9621 75.2381C18.9548 75.2507 18.9476 75.2631 18.9406 75.2754C18.6612 75.7662 18.9887 76.2619 19.5533 76.2619V76.2619H48.6376C50.1661 76.2619 51.4134 75.0146 51.4134 73.4862V62.7147C51.4134 61.1863 50.1661 59.939 48.6376 59.939H31.5288Z" stroke="#3B37FF" stroke-width="3.5" stroke-miterlimit="10" stroke-linecap="round" stroke-linejoin="round"/>
<path d="M65.4213 59.9426C65.4213 59.9406 65.4196 59.939 65.4177 59.939C63.8908 59.9409 62.6455 61.1875 62.6455 62.7147V73.4934C62.6455 75.0218 63.8928 76.2691 65.4213 76.2691H94.5056C94.5192 76.2691 94.5327 76.2691 94.546 76.2689C95.0976 76.2628 95.3756 75.7214 95.0968 75.2453V75.2453L88.0744 63.1401C87.0867 61.4386 84.4984 59.9462 82.5301 59.9462H65.4249C65.4229 59.9462 65.4213 59.9446 65.4213 59.9426V59.9426Z" stroke="#3B37FF" stroke-width="3.5" stroke-miterlimit="10" stroke-linecap="round" stroke-linejoin="round"/>
<path d="M15.5365 87.5056C15.5365 87.5076 15.5349 87.5092 15.5329 87.5092C13.5651 87.511 10.9793 89.0026 9.99214 90.7031L2.29929 103.976C2.29307 103.987 2.28698 103.997 2.28101 104.008C2.00465 104.491 2.32679 104.993 2.88328 104.993V104.993H48.6294C50.1579 104.993 51.4052 103.746 51.4052 102.217V90.2777C51.4052 88.7493 50.1579 87.502 48.6294 87.502H15.5401C15.5381 87.502 15.5365 87.5036 15.5365 87.5056V87.5056Z" stroke="#3B37FF" stroke-width="3.5" stroke-miterlimit="10" stroke-linecap="round" stroke-linejoin="round"/>
<path d="M65.4213 87.5093C63.8928 87.5093 62.6455 88.7566 62.6455 90.285V102.224C62.6455 103.753 63.8928 105 65.4213 105H111.167C111.181 105 111.195 105 111.208 105C111.759 104.994 112.037 104.453 111.759 103.976V103.976L104.059 90.7032C103.071 89.0017 100.482 87.5093 98.5142 87.5093H65.4213Z" stroke="#3B37FF" stroke-width="3.5" stroke-miterlimit="10" stroke-linecap="round" stroke-linejoin="round"/>
<path d="M77.0571 4.1345C78.2523 2.44049 80.7645 2.44049 81.9597 4.1345L84.1544 7.24515C84.8221 8.19147 85.9748 8.66896 87.1161 8.47192L90.8675 7.82424C92.9105 7.47153 94.6869 9.24792 94.3342 11.2909L93.6865 15.0423C93.4895 16.1836 93.967 17.3364 94.9133 18.004L98.0239 20.1987C99.7179 21.3939 99.7179 23.9061 98.0239 25.1013L94.9133 27.296C93.967 27.9637 93.4895 29.1164 93.6865 30.2577L94.3342 34.0091C94.6869 36.0521 92.9105 37.8285 90.8675 37.4758L87.1161 36.8281C85.9748 36.6311 84.8221 37.1086 84.1544 38.0549L81.9597 41.1655C80.7645 42.8595 78.2523 42.8595 77.0571 41.1655L74.8624 38.0549C74.1948 37.1086 73.042 36.6311 71.9007 36.8281L68.1493 37.4758C66.1063 37.8285 64.3299 36.0521 64.6826 34.0091L65.3303 30.2577C65.5274 29.1164 65.0499 27.9637 64.1035 27.296L60.9929 25.1013C59.2989 23.9061 59.2989 21.3939 60.9929 20.1987L64.1035 18.004C65.0499 17.3364 65.5274 16.1836 65.3303 15.0423L64.6826 11.2909C64.3299 9.24792 66.1063 7.47153 68.1493 7.82424L71.9007 8.47192C73.042 8.66896 74.1948 8.19147 74.8624 7.24515L77.0571 4.1345Z" stroke="#3B37FF" stroke-width="3.5" stroke-miterlimit="10" stroke-linecap="round" stroke-linejoin="round"/>
<path d="M83.4746 47.5237L83.4746 50.4076" stroke="#3B37FF" stroke-width="3.5" stroke-miterlimit="10" stroke-linecap="round" stroke-linejoin="round"/>
<path d="M63.2872 44.6399L60.4033 49.6867" stroke="#3B37FF" stroke-width="3.5" stroke-miterlimit="10" stroke-linecap="round" stroke-linejoin="round"/>
<path d="M55.7169 30.5808L37.6924 48.6053" stroke="#3B37FF" stroke-width="3.5" stroke-miterlimit="10" stroke-linecap="round" stroke-linejoin="round"/>
</svg>
