<svg width="103" height="110" viewBox="0 0 103 110" fill="none" xmlns="http://www.w3.org/2000/svg">
<path d="M24.3852 72.3927H20.8469C19.8264 72.3927 18.8477 71.9873 18.1261 71.2657C17.4044 70.5441 16.999 69.5654 16.999 68.5448C16.999 67.5243 17.4044 66.5456 18.1261 65.8239C18.8477 65.1023 19.8264 64.6969 20.8469 64.6969H45.3085C48.5885 64.6969 51.7342 63.3939 54.0535 61.0746C56.3729 58.7553 57.6758 55.6096 57.6758 52.3295C57.6758 49.0495 56.3729 45.9038 54.0535 43.5845C51.7342 41.2651 48.5885 39.9622 45.3085 39.9622H39.5351" stroke="white" stroke-width="3.5" stroke-miterlimit="10" stroke-linecap="round" stroke-linejoin="round"/>
<path d="M39.5352 48.2065H45.5817C46.6023 48.2065 47.581 48.612 48.3026 49.3336C49.0243 50.0552 49.4297 51.0339 49.4297 52.0545C49.4297 53.075 49.0243 54.0537 48.3026 54.7753C47.581 55.497 46.6023 55.9024 45.5817 55.9024H20.2966C17.0165 55.9024 13.8709 57.2054 11.5515 59.5247C9.23219 61.844 7.9292 64.9897 7.9292 68.2698C7.9292 71.5498 9.23219 74.6955 11.5515 77.0148C13.8709 79.3341 17.0165 80.6371 20.2966 80.6371H24.3853" stroke="white" stroke-width="3.5" stroke-miterlimit="10" stroke-linecap="round" stroke-linejoin="round"/>
<path d="M24.2598 48.2063H14.8833C8.11334 48.2063 2.20829 42.9892 2.00582 36.2212C1.95502 34.566 2.23714 32.9174 2.83543 31.3733C3.43372 29.8292 4.33601 28.4209 5.48878 27.232C6.64155 26.0431 8.02133 25.0978 9.54629 24.4522C11.0712 23.8066 12.7103 23.4738 14.3663 23.4735H47.4829C48.3607 23.4181 49.1969 23.08 49.8666 22.5099C50.5362 21.9398 51.0034 21.1683 51.1982 20.3106C51.8672 17.4782 53.4729 14.9546 55.7552 13.1486C58.0374 11.3427 60.8626 10.3601 63.7729 10.3601" stroke="white" stroke-width="3.5" stroke-linecap="round" stroke-linejoin="round"/>
<path d="M81.3898 23.3184C81.3898 31.8359 66.6469 32.1641 66.6469 32.1641L48.8885 32.2585L48.4717 32.2664H15.1212C13.2046 32.2664 11.4295 33.5775 11.1209 35.4685C11.0275 36.0205 11.0555 36.5863 11.2031 37.1263C11.3506 37.6664 11.6142 38.1677 11.9753 38.5955C12.3365 39.0233 12.7866 39.3672 13.2942 39.6032C13.8019 39.8392 14.3549 39.9617 14.9148 39.9622H24.2598" stroke="white" stroke-width="3.5" stroke-linecap="round" stroke-linejoin="round"/>
<path d="M63.7729 10.3601C70.9046 10.3601 81.3898 16.1865 81.3898 23.3182" stroke="white" stroke-width="3.5" stroke-linecap="round" stroke-linejoin="round"/>
<path d="M77.1655 31.0928C77.1655 31.0928 84.6235 39.0618 92.0775 40.0899" stroke="white" stroke-width="3.5" stroke-miterlimit="10" stroke-linecap="round"/>
<path d="M91.1006 40.0898L100.611 35.72" stroke="white" stroke-width="3.5" stroke-miterlimit="10" stroke-linecap="round"/>
<path d="M93.1567 49.087L91.1006 40.0898" stroke="white" stroke-width="3.5" stroke-miterlimit="10" stroke-linecap="round"/>
<path d="M32.1211 98.7119V108" stroke="white" stroke-width="3.5" stroke-linecap="round" stroke-linejoin="round"/>
<path d="M32.1211 66.5151V86.2098" stroke="white" stroke-width="3.5" stroke-linecap="round" stroke-linejoin="round"/>
<path d="M32.1211 34.1594V54.1666" stroke="white" stroke-width="3.5" stroke-linecap="round" stroke-linejoin="round"/>
<path d="M32.1211 13.7944V21.3487" stroke="white" stroke-width="3.5" stroke-linecap="round" stroke-linejoin="round"/>
<path d="M32.1208 13.7944C35.3777 13.7944 38.018 11.1541 38.018 7.89718C38.018 4.64026 35.3777 2 32.1208 2C28.8639 2 26.2236 4.64026 26.2236 7.89718C26.2236 11.1541 28.8639 13.7944 32.1208 13.7944Z" stroke="white" stroke-width="3.5" stroke-linecap="round" stroke-linejoin="round"/>
<path d="M39.8952 72.3928H40.4239C47.129 72.3928 52.8414 77.6079 53.0793 84.3091C53.1395 85.97 52.8644 87.626 52.2703 89.1781C51.6763 90.7303 50.7755 92.1469 49.6218 93.3432C48.468 94.5395 47.085 95.491 45.5554 96.1408C44.0257 96.7907 42.3808 97.1257 40.7188 97.1256H19.0073C19.3517 95.4049 20.0694 93.7807 21.1097 92.3674C22.15 90.9542 23.4877 89.7864 25.0284 88.9462V88.9462C25.767 88.5435 26.595 88.3326 27.4364 88.3329H39.734C41.8412 88.3329 43.6772 86.7092 43.7401 84.6039C43.7562 84.0889 43.6686 83.5759 43.4826 83.0954C43.2966 82.6149 43.016 82.1766 42.6574 81.8066C42.2987 81.4366 41.8694 81.1424 41.3949 80.9415C40.9204 80.7406 40.4104 80.6371 39.8952 80.6371" stroke="white" stroke-width="3.5" stroke-miterlimit="10" stroke-linecap="round" stroke-linejoin="round"/>
</svg>
