<svg width="95" height="103" viewBox="0 0 95 103" fill="none" xmlns="http://www.w3.org/2000/svg">
<path d="M55.9736 12.3891C52.0635 10.4815 48.2605 8.36444 44.5814 6.04727L43 5L41.4186 6.01818C35.7317 9.57741 29.7791 12.6992 23.6129 15.3564C17.3349 18.1387 10.8418 20.4152 4.19643 22.1636L2 22.7164V46.9782C2 85.9309 41.6236 100.505 42.0043 100.651L43 101L43.9957 100.651C44.4057 100.651 84 85.96 84 46.9782V45.4364" stroke="#3B37FF" stroke-width="3.5" stroke-miterlimit="10" stroke-linecap="round" stroke-linejoin="round"/>
<path d="M53.4421 20.0036C50.295 18.4537 47.234 16.7336 44.2729 14.8509L43 14L41.7271 14.8273C37.1499 17.7191 32.3588 20.2556 27.3957 22.4145C22.3427 24.6752 17.1166 26.5248 11.7679 27.9455L10 28.3945V48.1073C10 79.7564 41.8921 91.5982 42.1986 91.7164L43 92L43.8014 91.7164C44.1314 91.7164 76 79.78 76 48.1073V46.8545" stroke="#3B37FF" stroke-width="3.5" stroke-miterlimit="10" stroke-linecap="round" stroke-linejoin="round"/>
<path d="M69.2856 3.82657L52.6463 32.2355C52.2592 32.7983 52.0369 33.4563 52.0042 34.1365C51.9715 34.8167 52.1296 35.4926 52.4609 36.0893C52.7923 36.686 53.2839 37.1802 53.8814 37.5171C54.479 37.854 55.159 38.0204 55.8462 37.998H89.1538C89.841 38.0204 90.521 37.854 91.1186 37.5171C91.7161 37.1802 92.2077 36.686 92.5391 36.0893C92.8704 35.4926 93.0285 34.8167 92.9958 34.1365C92.9631 33.4563 92.7408 32.7983 92.3537 32.2355L75.7144 3.82657C75.3863 3.27065 74.9169 2.80953 74.3529 2.48907C73.789 2.16862 73.1502 2 72.5 2C71.8498 2 71.211 2.16862 70.6471 2.48907C70.0831 2.80953 69.6137 3.27065 69.2856 3.82657V3.82657Z" stroke="#3B37FF" stroke-width="3.5" stroke-miterlimit="10" stroke-linecap="round" stroke-linejoin="round"/>
</svg>
