<svg width="108" height="105" viewBox="0 0 108 105" fill="none" xmlns="http://www.w3.org/2000/svg">
<path d="M96.1131 57.0909H100.704C103.24 57.0909 105.295 55.0365 105.295 52.5V6.58517C105.295 4.05156 103.243 2 100.71 2H34.1301C31.5965 2 29.5449 4.05156 29.5449 6.58517V52.4885C29.5449 55.0307 31.6051 57.0909 34.1473 57.0909H35.7267C37.3836 57.0909 38.7267 58.434 38.7267 60.0909V68.5682C38.7267 70.6886 41.355 71.6756 42.7495 70.0803L51.5994 58.29C52.166 57.5351 53.0549 57.0909 53.9987 57.0909H73.1585" stroke="#3B37FF" stroke-width="3.5" stroke-miterlimit="10" stroke-linecap="round" stroke-linejoin="round"/>
<path d="M73.1592 86.9317V82.3408C73.1592 79.724 79.4774 75.4717 84.6365 75.4717C89.7955 75.4717 96.1137 79.7269 96.1137 82.3408V86.9317" stroke="#3B37FF" stroke-width="3.5" stroke-miterlimit="10" stroke-linecap="round" stroke-linejoin="round"/>
<path d="M8.88672 91.5228V86.9319C8.88672 84.3151 15.205 80.0627 20.364 80.0627C25.523 80.0627 31.8413 84.3179 31.8413 86.9319V91.5228" stroke="#3B37FF" stroke-width="3.5" stroke-miterlimit="10" stroke-linecap="round" stroke-linejoin="round"/>
<path d="M84.6364 75.36C88.7768 75.36 91.5227 71.8536 91.5227 67.5296V64.9185C91.5227 60.5944 88.7768 57.0881 84.6364 57.0881C80.4959 57.0881 77.75 60.5944 77.75 64.9185V67.5296C77.75 71.8536 80.4959 75.36 84.6364 75.36Z" stroke="#3B37FF" stroke-width="3.5" stroke-miterlimit="10" stroke-linecap="round" stroke-linejoin="round"/>
<path d="M20.3639 79.9508C16.2235 79.9508 13.4775 76.4445 13.4775 72.1204V69.5093C13.4775 65.1853 16.2235 61.679 20.3639 61.679C24.5043 61.679 27.2503 65.1853 27.2503 69.5093V72.1204C27.2503 76.4445 24.5043 79.9508 20.3639 79.9508Z" stroke="#3B37FF" stroke-width="3.5" stroke-miterlimit="10" stroke-linecap="round" stroke-linejoin="round"/>
<path d="M2 61.6817V57.0908C2 54.474 8.31824 50.2217 13.4773 50.2217C16.4814 50.2217 19.8787 51.6649 22.1914 53.3865" stroke="#3B37FF" stroke-width="3.5" stroke-miterlimit="10" stroke-linecap="round" stroke-linejoin="round"/>
<path d="M13.4772 50.1099C9.33676 50.1099 6.59082 46.6036 6.59082 42.2796V39.6685C6.59082 35.3444 9.33676 31.8381 13.4772 31.8381C17.6176 31.8381 20.3635 35.3444 20.3635 39.6685V42.2796C20.3635 46.6036 17.6176 50.1099 13.4772 50.1099Z" stroke="#3B37FF" stroke-width="3.5" stroke-miterlimit="10" stroke-linecap="round" stroke-linejoin="round"/>
<path d="M13.4772 50.1099C17.6176 50.1099 20.3635 46.6036 20.3635 42.2796V39.6685C20.3635 35.3444 17.6176 31.8381 13.4772 31.8381C9.33676 31.8381 6.59082 35.3444 6.59082 39.6685V42.2796C6.59082 46.6036 9.33676 50.1099 13.4772 50.1099Z" stroke="#3B37FF" stroke-width="3.5" stroke-miterlimit="10" stroke-linecap="round" stroke-linejoin="round"/>
<path d="M43.3174 103V98.4092C43.3174 95.7924 49.6356 91.54 54.7947 91.54C59.9537 91.54 66.2719 95.7952 66.2719 98.4092V103" stroke="#3B37FF" stroke-width="3.5" stroke-miterlimit="10" stroke-linecap="round" stroke-linejoin="round"/>
<path d="M54.7955 91.4281C58.936 91.4281 61.6819 87.9218 61.6819 83.5977V80.9866C61.6819 76.6626 58.936 73.1562 54.7955 73.1562C50.6551 73.1562 47.9092 76.6626 47.9092 80.9866V83.5977C47.9092 87.9218 50.6551 91.4281 54.7955 91.4281Z" stroke="#3B37FF" stroke-width="3.5" stroke-miterlimit="10" stroke-linecap="round" stroke-linejoin="round"/>
</svg>
