<svg width="135" height="111" viewBox="0 0 135 111" fill="none" xmlns="http://www.w3.org/2000/svg">
<path d="M119.949 35.024C120.361 31.6798 119.872 28.632 118.372 26.034C111.027 13.3126 82.2231 16.1922 54.0364 32.4657C51.2696 34.0632 48.6115 35.7303 46.0745 37.4501M117.971 42.0288C114.8 49.4935 108.206 57.7629 99.116 65.5455M90.3184 72.361C87.2697 74.5028 84.0339 76.571 80.634 78.534C52.4473 94.8076 23.6435 97.6872 16.2988 84.9658C14.8995 82.5422 14.3801 79.7273 14.6509 76.6456M17.4969 67.2233C21.3426 59.333 28.8187 50.6795 38.8789 42.7186" stroke="#3B37FF" stroke-width="3.5" stroke-miterlimit="10" stroke-linecap="round" stroke-linejoin="round"/>
<path d="M102.755 34.4485C107.651 42.9294 95.646 59.0275 75.9403 70.4046M70.4189 73.3577C64.1355 76.456 57.9742 78.6107 52.4376 79.7625M43.9707 80.7431C37.9483 80.7861 33.4038 79.1294 31.3942 75.6486C26.4977 67.1676 38.5029 51.0695 58.2086 39.6924C62.8328 37.0227 67.47 34.8501 71.9229 33.198M78.0123 31.2286C85.4219 29.1976 91.9863 28.7908 96.6497 30.1324" stroke="#3B37FF" stroke-width="3.5" stroke-miterlimit="10" stroke-linecap="round" stroke-linejoin="round"/>
<ellipse cx="66.8138" cy="54.5967" rx="22.4254" ry="8.86584" transform="rotate(-30 66.8138 54.5967)" stroke="#3B37FF" stroke-width="3.5" stroke-miterlimit="10" stroke-linecap="round" stroke-linejoin="round"/>
<path d="M19.5865 19.5804C19.7809 18.4788 21.3617 18.4788 21.5561 19.5804L22.3353 23.9961C22.4083 24.41 22.7324 24.734 23.1463 24.8071L27.5619 25.5863C28.6636 25.7807 28.6636 27.3615 27.5619 27.5559L23.1463 28.3351C22.7324 28.4081 22.4083 28.7322 22.3353 29.1461L21.5561 33.5617C21.3617 34.6634 19.7809 34.6634 19.5865 33.5617L18.8073 29.1461C18.7342 28.7322 18.4102 28.4081 17.9963 28.3351L13.5806 27.5559C12.479 27.3615 12.479 25.7807 13.5806 25.5863L17.9963 24.8071C18.4102 24.734 18.7342 24.41 18.8073 23.9961L19.5865 19.5804Z" fill="#3B37FF"/>
<path d="M112.587 71.5804C112.781 70.4788 114.362 70.4788 114.556 71.5804L115.335 75.9961C115.408 76.41 115.732 76.734 116.146 76.8071L120.562 77.5863C121.664 77.7807 121.664 79.3615 120.562 79.5559L116.146 80.3351C115.732 80.4081 115.408 80.7322 115.335 81.1461L114.556 85.5617C114.362 86.6634 112.781 86.6634 112.587 85.5617L111.807 81.1461C111.734 80.7322 111.41 80.4081 110.996 80.3351L106.581 79.5559C105.479 79.3615 105.479 77.7807 106.581 77.5863L110.996 76.8071C111.41 76.734 111.734 76.41 111.807 75.9961L112.587 71.5804Z" fill="#3B37FF"/>
<path d="M53.3009 6.58044C53.4953 5.47882 55.076 5.47882 55.2704 6.58044L55.4068 7.35328C55.4799 7.76718 55.8039 8.09124 56.2178 8.16428L56.9906 8.30066C58.0923 8.49507 58.0923 10.0758 56.9907 10.2702L56.2178 10.4066C55.8039 10.4797 55.4799 10.8037 55.4068 11.2176L55.2704 11.9905C55.076 13.0921 53.4953 13.0921 53.3009 11.9905L53.1645 11.2176C53.0914 10.8037 52.7674 10.4797 52.3535 10.4066L51.5806 10.2702C50.479 10.0758 50.479 8.49507 51.5806 8.30066L52.3535 8.16428C52.7674 8.09124 53.0914 7.76718 53.1645 7.35328L53.3009 6.58044Z" fill="#3B37FF"/>
<path d="M71.3009 98.5804C71.4953 97.4788 73.076 97.4788 73.2704 98.5804L73.4068 99.3533C73.4799 99.7672 73.8039 100.091 74.2178 100.164L74.9906 100.301C76.0923 100.495 76.0923 102.076 74.9907 102.27L74.2178 102.407C73.8039 102.48 73.4799 102.804 73.4068 103.218L73.2704 103.99C73.076 105.092 71.4953 105.092 71.3009 103.99L71.1645 103.218C71.0914 102.804 70.7674 102.48 70.3535 102.407L69.5806 102.27C68.479 102.076 68.479 100.495 69.5806 100.301L70.3535 100.164C70.7674 100.091 71.0914 99.7672 71.1645 99.3533L71.3009 98.5804Z" fill="#3B37FF"/>
</svg>
