<svg width="111" height="111" viewBox="0 0 111 111" fill="none" xmlns="http://www.w3.org/2000/svg">
<path d="M40.702 109V97.6171C40.702 90.0816 34.5779 83.9575 27.0424 83.9575C19.5069 83.9575 13.3828 90.0816 13.3828 97.6171V109" stroke="white" stroke-width="3.5" stroke-linecap="round" stroke-linejoin="round"/>
<path d="M52.0851 61.1915C58.3718 61.1915 63.4681 56.0952 63.4681 49.8085C63.4681 43.5219 58.3718 38.4255 52.0851 38.4255C45.7985 38.4255 40.7021 43.5219 40.7021 49.8085C40.7021 56.0952 45.7985 61.1915 52.0851 61.1915Z" stroke="white" stroke-width="3.5" stroke-linecap="round" stroke-linejoin="round"/>
<path d="M13.383 70.2979C19.6696 70.2979 24.766 65.2016 24.766 58.915C24.766 52.6283 19.6696 47.532 13.383 47.532C7.09633 47.532 2 52.6283 2 58.915C2 65.2016 7.09633 70.2979 13.383 70.2979Z" stroke="white" stroke-width="3.5" stroke-linecap="round" stroke-linejoin="round"/>
<path d="M42.9786 42.9788L13.8154 47.532" stroke="white" stroke-width="3.5" stroke-linecap="round" stroke-linejoin="round"/>
<path d="M45.2552 58.9148L22.4893 65.7446" stroke="white" stroke-width="3.5" stroke-linecap="round" stroke-linejoin="round"/>
<path d="M6.55322 68.0212L13.383 95.3404" stroke="white" stroke-width="3.5" stroke-linecap="round" stroke-linejoin="round"/>
<path d="M22.4893 65.7446L36.6952 87.9642" stroke="white" stroke-width="3.5" stroke-linecap="round" stroke-linejoin="round"/>
<path d="M68.0215 42.9788H72.5747L74.8513 45.2554H77.1279L79.4045 47.532V52.0851L77.1279 54.3617H74.8513L72.5747 56.6383H68.0215" stroke="white" stroke-width="3.5" stroke-linecap="round" stroke-linejoin="round"/>
<path d="M52.0851 38.4255V31.5957L40.7021 22.4894V2H56.6383H72.5745V22.4894L61.1915 31.5957V42.9787" stroke="white" stroke-width="3.5" stroke-linecap="round" stroke-linejoin="round"/>
<path d="M86.2339 45.2554H90.7871" stroke="white" stroke-width="3.5" stroke-linecap="round" stroke-linejoin="round"/>
<path d="M86.2339 54.3618H90.7871" stroke="white" stroke-width="3.5" stroke-linecap="round" stroke-linejoin="round"/>
<path d="M95.3403 49.8086H99.8935" stroke="white" stroke-width="3.5" stroke-linecap="round" stroke-linejoin="round"/>
<path d="M95.3403 40.7021H99.8935" stroke="white" stroke-width="3.5" stroke-linecap="round" stroke-linejoin="round"/>
<path d="M95.3403 58.9148H99.8935" stroke="white" stroke-width="3.5" stroke-linecap="round" stroke-linejoin="round"/>
<path d="M104.447 54.3618H109" stroke="white" stroke-width="3.5" stroke-linecap="round" stroke-linejoin="round"/>
<path d="M104.447 45.2554H109" stroke="white" stroke-width="3.5" stroke-linecap="round" stroke-linejoin="round"/>
<path d="M104.447 63.468H109" stroke="white" stroke-width="3.5" stroke-linecap="round" stroke-linejoin="round"/>
<path d="M104.447 36.1489H109" stroke="white" stroke-width="3.5" stroke-linecap="round" stroke-linejoin="round"/>
</svg>
