<svg width="1360" height="380" viewBox="0 0 1360 380" fill="none" xmlns="http://www.w3.org/2000/svg">
<ellipse opacity="0.3" rx="272" ry="190" transform="matrix(-1 5.86947e-08 1.30212e-07 1 272 190)" fill="url(#paint0_linear_1_6)"/>
<ellipse opacity="0.3" rx="203.5" ry="190" transform="matrix(-1 5.87018e-08 1.30196e-07 1 747.5 190)" fill="url(#paint1_linear_1_6)"/>
<ellipse opacity="0.3" rx="136.5" ry="190" transform="matrix(-1 5.87858e-08 1.3001e-07 1 1087.5 190)" fill="url(#paint2_linear_1_6)"/>
<ellipse opacity="0.3" rx="68" ry="190" transform="matrix(-1 5.87858e-08 1.3001e-07 1 1292 190)" fill="url(#paint3_linear_1_6)"/>
<defs>
<linearGradient id="paint0_linear_1_6" x1="544" y1="190" x2="-2.42522e-07" y2="190" gradientUnits="userSpaceOnUse">
<stop stop-color="#100072"/>
<stop offset="1" stop-color="#100072" stop-opacity="0"/>
</linearGradient>
<linearGradient id="paint1_linear_1_6" x1="407" y1="190" x2="-1.81446e-07" y2="190" gradientUnits="userSpaceOnUse">
<stop stop-color="#100072"/>
<stop offset="1" stop-color="#100072" stop-opacity="0"/>
</linearGradient>
<linearGradient id="paint2_linear_1_6" x1="273" y1="190" x2="-1.21707e-07" y2="190" gradientUnits="userSpaceOnUse">
<stop stop-color="#100072"/>
<stop offset="1" stop-color="#100072" stop-opacity="0"/>
</linearGradient>
<linearGradient id="paint3_linear_1_6" x1="136" y1="190" x2="-6.06305e-08" y2="190" gradientUnits="userSpaceOnUse">
<stop stop-color="#100072"/>
<stop offset="1" stop-color="#100072" stop-opacity="0"/>
</linearGradient>
</defs>
</svg>
