<svg width="1360" height="800" viewBox="0 0 1360 800" fill="none" xmlns="http://www.w3.org/2000/svg">
<ellipse opacity="0.3" cx="1087.5" cy="123.834" rx="272.5" ry="123.834" fill="url(#paint0_linear_83_622)"/>
<ellipse opacity="0.3" cx="748.5" cy="523.834" rx="203.5" ry="276.166" transform="rotate(-180 748.5 523.834)" fill="url(#paint1_linear_83_622)"/>
<ellipse opacity="0.3" cx="272.5" cy="523.834" rx="272.5" ry="276.166" transform="rotate(-180 272.5 523.834)" fill="url(#paint2_linear_83_622)"/>
<ellipse opacity="0.3" cx="611.5" cy="123.834" rx="203.5" ry="123.834" fill="url(#paint3_linear_83_622)"/>
<ellipse opacity="0.3" cx="1088" cy="523.834" rx="136" ry="276.166" transform="rotate(-180 1088 523.834)" fill="url(#paint4_linear_83_622)"/>
<ellipse opacity="0.3" cx="271.5" cy="123.834" rx="136.5" ry="123.834" fill="url(#paint5_linear_83_622)"/>
<ellipse opacity="0.3" cx="1292" cy="525.907" rx="68" ry="274.093" transform="rotate(-180 1292 525.907)" fill="url(#paint6_linear_83_622)"/>
<ellipse opacity="0.3" cx="67.5" cy="123.834" rx="67.5" ry="123.834" fill="url(#paint7_linear_83_622)"/>
<defs>
<linearGradient id="paint0_linear_83_622" x1="1360" y1="123.834" x2="815" y2="123.834" gradientUnits="userSpaceOnUse">
<stop stop-color="#100072"/>
<stop offset="1" stop-color="#100072" stop-opacity="0"/>
</linearGradient>
<linearGradient id="paint1_linear_83_622" x1="952" y1="523.834" x2="545" y2="523.834" gradientUnits="userSpaceOnUse">
<stop stop-color="#100072"/>
<stop offset="1" stop-color="#100072" stop-opacity="0"/>
</linearGradient>
<linearGradient id="paint2_linear_83_622" x1="545" y1="523.834" x2="-2.42968e-07" y2="523.834" gradientUnits="userSpaceOnUse">
<stop stop-color="#100072"/>
<stop offset="1" stop-color="#100072" stop-opacity="0"/>
</linearGradient>
<linearGradient id="paint3_linear_83_622" x1="815" y1="123.834" x2="408" y2="123.834" gradientUnits="userSpaceOnUse">
<stop stop-color="#100072"/>
<stop offset="1" stop-color="#100072" stop-opacity="0"/>
</linearGradient>
<linearGradient id="paint4_linear_83_622" x1="1224" y1="523.834" x2="952" y2="523.834" gradientUnits="userSpaceOnUse">
<stop stop-color="#100072"/>
<stop offset="1" stop-color="#100072" stop-opacity="0"/>
</linearGradient>
<linearGradient id="paint5_linear_83_622" x1="408" y1="123.834" x2="135" y2="123.834" gradientUnits="userSpaceOnUse">
<stop stop-color="#100072"/>
<stop offset="1" stop-color="#100072" stop-opacity="0"/>
</linearGradient>
<linearGradient id="paint6_linear_83_622" x1="1360" y1="525.907" x2="1224" y2="525.907" gradientUnits="userSpaceOnUse">
<stop stop-color="#100072"/>
<stop offset="1" stop-color="#100072" stop-opacity="0"/>
</linearGradient>
<linearGradient id="paint7_linear_83_622" x1="135" y1="123.834" x2="-1.5319e-05" y2="123.834" gradientUnits="userSpaceOnUse">
<stop stop-color="#100072"/>
<stop offset="1" stop-color="#100072" stop-opacity="0"/>
</linearGradient>
</defs>
</svg>
