<svg width="1209" height="849" viewBox="0 0 1209 849" fill="none" xmlns="http://www.w3.org/2000/svg">
<g opacity="0.2">
<path d="M1089.46 753.108C1074.13 740.247 1066.99 718.875 1067.41 690.979C1067.83 663.092 1075.81 628.848 1090.54 590.498C1119.99 513.807 1176.33 420.91 1252.6 330.017C1328.87 239.125 1410.57 167.51 1480.98 125.19C1516.19 104.028 1548.53 90.2204 1575.92 84.9642C1603.32 79.7061 1625.6 83.0299 1640.93 95.8914C1656.26 108.753 1663.4 130.125 1662.98 158.021C1662.56 185.908 1654.58 220.152 1639.85 258.502C1610.4 335.193 1554.07 428.09 1477.8 518.983C1401.53 609.875 1319.83 681.49 1249.42 723.81C1214.2 744.972 1181.87 758.779 1154.48 764.036C1127.08 769.294 1104.79 765.97 1089.46 753.108Z" stroke="url(#paint0_linear_1_1984)" stroke-width="2"/>
<path d="M894.372 753.108C879.044 740.247 871.901 718.875 872.321 690.979C872.741 663.092 880.723 628.848 895.45 590.498C924.9 513.807 981.239 420.91 1057.51 330.017C1133.78 239.125 1215.48 167.51 1285.89 125.19C1321.1 104.028 1353.44 90.2204 1380.83 84.9642C1408.23 79.7061 1430.51 83.0299 1445.84 95.8914C1461.17 108.753 1468.31 130.125 1467.89 158.021C1467.47 185.908 1459.49 220.152 1444.76 258.502C1415.31 335.193 1358.98 428.09 1282.71 518.983C1206.44 609.875 1124.74 681.49 1054.33 723.81C1019.12 744.972 986.777 758.779 959.387 764.036C931.987 769.294 909.7 765.97 894.372 753.108Z" stroke="url(#paint1_linear_1_1984)" stroke-width="2"/>
<path d="M699.282 753.108C683.954 740.247 676.811 718.875 677.231 690.979C677.651 663.092 685.633 628.848 700.36 590.498C729.81 513.807 786.149 420.91 862.417 330.017C938.686 239.125 1020.39 167.51 1090.8 125.19C1126.01 104.028 1158.35 90.2204 1185.74 84.9642C1213.14 79.7061 1235.43 83.0299 1250.75 95.8914C1266.08 108.753 1273.22 130.125 1272.8 158.021C1272.38 185.908 1264.4 220.152 1249.67 258.502C1220.22 335.193 1163.89 428.09 1087.62 518.983C1011.35 609.875 929.647 681.49 859.236 723.81C824.025 744.972 791.687 758.779 764.297 764.036C736.897 769.294 714.61 765.97 699.282 753.108Z" stroke="url(#paint2_linear_1_1984)" stroke-width="2"/>
<path d="M504.192 753.108C488.865 740.247 481.721 718.875 482.141 690.979C482.562 663.092 490.544 628.848 505.27 590.498C534.721 513.807 591.06 420.91 667.328 330.017C743.596 239.125 825.298 167.51 895.71 125.19C930.92 104.028 963.258 90.2204 990.648 84.9642C1018.05 79.7061 1040.34 83.0299 1055.66 95.8914C1070.99 108.753 1078.13 130.125 1077.71 158.021C1077.29 185.908 1069.31 220.152 1054.58 258.502C1025.13 335.193 968.796 428.09 892.528 518.983C816.26 609.875 734.558 681.49 664.146 723.81C628.935 744.972 596.597 758.779 569.208 764.036C541.808 769.294 519.52 765.97 504.192 753.108Z" stroke="url(#paint3_linear_1_1984)" stroke-width="2"/>
<path d="M309.099 753.108C293.771 740.247 286.627 718.875 287.048 690.979C287.468 663.092 295.45 628.848 310.177 590.498C339.627 513.807 395.966 420.91 472.234 330.017C548.502 239.125 630.204 167.51 700.616 125.19C735.826 104.028 768.164 90.2204 795.554 84.9642C822.954 79.7061 845.241 83.0299 860.569 95.8914C875.897 108.753 883.04 130.125 882.62 158.021C882.2 185.908 874.218 220.152 859.491 258.502C830.041 335.193 773.702 428.09 697.434 518.983C621.166 609.875 539.464 681.49 469.052 723.81C433.842 744.972 401.504 758.779 374.114 764.036C346.714 769.294 324.426 765.97 309.099 753.108Z" stroke="url(#paint4_linear_1_1984)" stroke-width="2"/>
<path d="M114.009 753.108C98.681 740.247 91.5376 718.875 91.9579 690.979C92.378 663.092 100.36 628.848 115.087 590.498C144.537 513.807 200.876 420.91 277.144 330.017C353.412 239.125 435.114 167.51 505.526 125.19C540.736 104.028 573.074 90.2204 600.464 84.9642C627.864 79.7061 650.152 83.0299 665.479 95.8914C680.807 108.753 687.951 130.125 687.53 158.021C687.11 185.908 679.128 220.152 664.401 258.502C634.951 335.193 578.612 428.09 502.344 518.983C426.076 609.875 344.374 681.49 273.962 723.81C238.752 744.972 206.414 758.779 179.024 764.036C151.624 769.294 129.337 765.97 114.009 753.108Z" stroke="url(#paint5_linear_1_1984)" stroke-width="2"/>
</g>
<defs>
<linearGradient id="paint0_linear_1_1984" x1="1478.56" y1="519.625" x2="1251.83" y2="329.374" gradientUnits="userSpaceOnUse">
<stop offset="0.401042" stop-color="#003DFF"/>
<stop offset="1" stop-color="#ECEFFB"/>
</linearGradient>
<linearGradient id="paint1_linear_1_1984" x1="1283.47" y1="519.625" x2="1056.74" y2="329.374" gradientUnits="userSpaceOnUse">
<stop stop-color="#003DFF"/>
<stop offset="1" stop-color="#ECEFFB"/>
</linearGradient>
<linearGradient id="paint2_linear_1_1984" x1="1088.38" y1="519.625" x2="861.651" y2="329.374" gradientUnits="userSpaceOnUse">
<stop stop-color="#003DFF"/>
<stop offset="1" stop-color="#ECEFFB"/>
</linearGradient>
<linearGradient id="paint3_linear_1_1984" x1="893.294" y1="519.625" x2="666.562" y2="329.374" gradientUnits="userSpaceOnUse">
<stop stop-color="#003DFF"/>
<stop offset="1" stop-color="#ECEFFB"/>
</linearGradient>
<linearGradient id="paint4_linear_1_1984" x1="698.2" y1="519.625" x2="471.468" y2="329.374" gradientUnits="userSpaceOnUse">
<stop stop-color="#003DFF"/>
<stop offset="1" stop-color="#ECEFFB"/>
</linearGradient>
<linearGradient id="paint5_linear_1_1984" x1="503.11" y1="519.625" x2="276.378" y2="329.374" gradientUnits="userSpaceOnUse">
<stop stop-color="#003DFF"/>
<stop offset="1" stop-color="#ECEFFB"/>
</linearGradient>
</defs>
</svg>
