<svg width="375" height="849" viewBox="0 0 375 849" fill="none" xmlns="http://www.w3.org/2000/svg">
<g opacity="0.1">
<path d="M236.462 753.108C221.134 740.247 213.991 718.875 214.411 690.979C214.831 663.092 222.813 628.848 237.54 590.498C266.99 513.807 323.329 420.91 399.597 330.017C475.865 239.125 557.567 167.51 627.979 125.19C663.19 104.028 695.527 90.2204 722.917 84.9642C750.317 79.7061 772.605 83.0299 787.933 95.8914C803.26 108.753 810.404 130.125 809.983 158.021C809.563 185.908 801.581 220.152 786.854 258.502C757.404 335.193 701.065 428.09 624.797 518.983C548.529 609.875 466.827 681.49 396.415 723.81C361.205 744.972 328.867 758.779 301.477 764.036C274.077 769.294 251.79 765.97 236.462 753.108Z" stroke="url(#paint0_linear_7_3746)" stroke-width="2"/>
<path d="M41.3721 753.108C26.0443 740.247 18.9009 718.875 19.3211 690.979C19.7413 663.092 27.7233 628.848 42.4502 590.498C71.9002 513.807 128.239 420.91 204.507 330.017C280.775 239.125 362.477 167.51 432.889 125.19C468.1 104.028 500.438 90.2204 527.828 84.9642C555.228 79.7061 577.515 83.0299 592.843 95.8914C608.17 108.753 615.314 130.125 614.894 158.021C614.473 185.908 606.491 220.152 591.765 258.502C562.315 335.193 505.976 428.09 429.707 518.983C353.439 609.875 271.737 681.49 201.325 723.81C166.115 744.972 133.777 758.779 106.387 764.036C78.9873 769.294 56.6999 765.97 41.3721 753.108Z" stroke="url(#paint1_linear_7_3746)" stroke-width="2"/>
<path d="M-153.718 753.108C-169.046 740.247 -176.189 718.875 -175.769 690.979C-175.349 663.092 -167.367 628.848 -152.64 590.498C-123.19 513.807 -66.8506 420.91 9.41747 330.017C85.6856 239.125 167.388 167.51 237.8 125.19C273.01 104.028 305.348 90.2204 332.738 84.9642C360.138 79.7061 382.425 83.0299 397.753 95.8914C413.081 108.753 420.224 130.125 419.804 158.021C419.384 185.908 411.402 220.152 396.675 258.502C367.225 335.193 310.886 428.09 234.618 518.983C158.35 609.875 76.6475 681.49 6.23554 723.81C-28.9748 744.972 -61.3127 758.779 -88.7026 764.036C-116.103 769.294 -138.39 765.97 -153.718 753.108Z" stroke="url(#paint2_linear_7_3746)" stroke-width="2"/>
<path d="M-348.808 753.108C-364.135 740.247 -371.279 718.875 -370.859 690.979C-370.438 663.092 -362.456 628.848 -347.73 590.498C-318.279 513.807 -261.94 420.91 -185.672 330.017C-109.404 239.125 -27.7022 167.51 42.7097 125.19C77.92 104.028 110.258 90.2204 137.648 84.9642C165.048 79.7061 187.335 83.0299 202.663 95.8914C217.991 108.753 225.134 130.125 224.714 158.021C224.294 185.908 216.312 220.152 201.585 258.502C172.135 335.193 115.796 428.09 39.5278 518.983C-36.7403 609.875 -118.442 681.49 -188.854 723.81C-224.065 744.972 -256.403 758.779 -283.792 764.036C-311.192 769.294 -333.48 765.97 -348.808 753.108Z" stroke="url(#paint3_linear_7_3746)" stroke-width="2"/>
<path d="M-543.901 753.108C-559.229 740.247 -566.373 718.875 -565.952 690.979C-565.532 663.092 -557.55 628.848 -542.823 590.498C-513.373 513.807 -457.034 420.91 -380.766 330.017C-304.498 239.125 -222.796 167.51 -152.384 125.19C-117.174 104.028 -84.8358 90.2204 -57.4459 84.9642C-30.0459 79.7061 -7.75857 83.0299 7.56922 95.8914C22.897 108.753 30.0405 130.125 29.6202 158.021C29.2001 185.908 21.218 220.152 6.49116 258.502C-22.9589 335.193 -79.2979 428.09 -155.566 518.983C-231.834 609.875 -313.536 681.49 -383.948 723.81C-419.158 744.972 -451.496 758.779 -478.886 764.036C-506.286 769.294 -528.574 765.97 -543.901 753.108Z" stroke="url(#paint4_linear_7_3746)" stroke-width="2"/>
</g>
<defs>
<linearGradient id="paint0_linear_7_3746" x1="625.563" y1="519.625" x2="398.831" y2="329.374" gradientUnits="userSpaceOnUse">
<stop offset="0.401042" stop-color="#003DFF"/>
<stop offset="1" stop-color="#ECEFFB"/>
</linearGradient>
<linearGradient id="paint1_linear_7_3746" x1="430.474" y1="519.625" x2="203.741" y2="329.374" gradientUnits="userSpaceOnUse">
<stop stop-color="#003DFF"/>
<stop offset="1" stop-color="#ECEFFB"/>
</linearGradient>
<linearGradient id="paint2_linear_7_3746" x1="235.384" y1="519.625" x2="8.65143" y2="329.374" gradientUnits="userSpaceOnUse">
<stop stop-color="#003DFF"/>
<stop offset="1" stop-color="#ECEFFB"/>
</linearGradient>
<linearGradient id="paint3_linear_7_3746" x1="40.2938" y1="519.625" x2="-186.438" y2="329.374" gradientUnits="userSpaceOnUse">
<stop stop-color="#003DFF"/>
<stop offset="1" stop-color="#ECEFFB"/>
</linearGradient>
<linearGradient id="paint4_linear_7_3746" x1="-154.8" y1="519.625" x2="-381.532" y2="329.374" gradientUnits="userSpaceOnUse">
<stop stop-color="#003DFF"/>
<stop offset="1" stop-color="#ECEFFB"/>
</linearGradient>
</defs>
</svg>
