<svg width="164" height="113" viewBox="0 0 164 113" fill="none" xmlns="http://www.w3.org/2000/svg">
<g opacity="0.7">
<mask id="path-1-outside-1_1_1776" maskUnits="userSpaceOnUse" x="0" y="0" width="164" height="113" fill="black">
<rect fill="white" width="164" height="113"/>
<path d="M161.783 78.5066L161.49 78.471C161.683 76.5477 160.904 74.5318 159.182 72.4803C150.538 62.2086 119.461 52.3857 83.6046 48.589C47.7554 44.7923 15.3568 47.8981 4.81925 56.1397C2.71173 57.7851 1.54724 59.6015 1.3472 61.5248L1.06144 61.4963L2.24736 49.9139C2.4474 47.9693 3.58331 46.1386 5.62653 44.4861C16.0212 36.0735 48.577 32.8823 84.8262 36.7217C106.266 38.994 126.191 43.3677 140.936 49.052C155.739 54.7506 163.562 61.1045 162.969 66.9313L161.79 78.5066C161.783 78.4995 161.783 78.5066 161.783 78.5066ZM54.2208 46.6943C63.4653 46.6943 73.4099 47.2142 83.6403 48.297C119.561 52.1008 150.716 61.9664 159.411 72.2951C160.64 73.7554 161.397 75.2014 161.69 76.6118L162.683 66.8886C163.89 55.0783 128.948 41.6724 84.7977 36.9995C48.627 33.1744 16.1498 36.3442 5.81228 44.7069C3.82621 46.3096 2.72602 48.069 2.53313 49.9424L1.54009 59.6585C2.11162 58.3336 3.14752 57.0799 4.64064 55.9117C12.2134 49.9852 30.9953 46.6943 54.2208 46.6943Z"/>
<path d="M41.4543 103.523H41.2971V103.381L41.2828 103.523C38.7467 103.331 36.7606 102.49 35.3889 101.023L35.2175 100.838C34.1959 99.748 33.5172 98.3234 33.21 96.6067C32.9099 94.9399 32.9528 92.981 33.3386 90.7728C33.7172 88.6073 34.4173 86.1997 35.4318 83.5997C36.432 81.0211 37.7465 78.243 39.3396 75.3296C42.5616 69.4173 46.8338 63.0848 52.0276 56.5101C57.4071 49.7003 63.5439 42.9261 70.2737 36.3656C77.0106 29.8051 83.9261 23.8572 90.8416 18.6928C97.5285 13.6995 103.93 9.63922 109.874 6.61898C112.803 5.13022 115.596 3.91215 118.161 3.0075C120.761 2.0886 123.162 1.48313 125.298 1.19108C127.484 0.899024 129.413 0.941764 131.034 1.31929C132.713 1.70395 134.078 2.45901 135.107 3.54886L135.278 3.73407C136.65 5.19433 137.393 7.24582 137.471 9.83867L137.478 10.0025L137 9.96689C124.619 9.27594 100.65 23.7503 78.6108 45.2197C56.5784 66.6891 41.3257 90.4309 41.4471 103.053L41.4543 103.523ZM128.005 1.2908C127.162 1.2908 126.269 1.35491 125.326 1.48313C123.212 1.76806 120.833 2.37353 118.254 3.28531C115.696 4.18283 112.924 5.39378 109.995 6.88253C104.072 9.89566 97.6856 13.9488 91.013 18.9279C84.1118 24.0851 77.1963 30.0259 70.4737 36.5721C63.7511 43.1184 57.6214 49.8855 52.2562 56.6881C47.0767 63.2486 42.8117 69.5669 39.5968 75.465C38.018 78.3641 36.7034 81.1351 35.7104 83.7065C34.7031 86.2851 34.0101 88.6857 33.6315 90.8226C33.2528 92.9952 33.21 94.9256 33.5029 96.5568C33.7958 98.2166 34.4459 99.5913 35.4318 100.646L35.6032 100.831C36.8963 102.206 38.761 103.01 41.1471 103.224V103.189C40.9113 90.5306 56.2283 66.6037 78.3965 45.006C99.9861 23.9783 123.454 9.64635 136.135 9.64635C136.478 9.64635 136.807 9.65347 137.135 9.67484H137.164C137.057 7.23157 136.35 5.30118 135.057 3.9264L134.885 3.74119C133.899 2.69408 132.585 1.97463 130.963 1.5971C130.07 1.39053 129.084 1.2908 128.005 1.2908Z"/>
<path d="M108.723 93.5936C99.2645 93.5936 89.3413 93.0522 79.1824 91.9766C68.3447 90.8298 57.8929 89.1487 48.1126 86.9761C38.6609 84.8747 30.238 82.4101 23.0653 79.6534C19.5361 78.2929 16.3427 76.8682 13.5779 75.4151C10.7917 73.9548 8.41988 72.4518 6.53384 70.956C4.60493 69.4245 3.16181 67.8858 2.24022 66.3757C1.28291 64.8086 0.875695 63.2629 1.03287 61.7599L1.06144 61.5034C1.26862 59.4947 2.47598 57.6142 4.64779 55.9117L4.75495 55.8262L5.08358 56.1895H5.06215C13.9994 66.3615 44.9335 76.0704 80.4183 79.8244C115.903 83.5783 148.13 80.5581 158.939 72.4803L159.311 72.1812L159.418 72.288C161.204 74.4107 162.004 76.4978 161.797 78.5066L161.768 78.763C161.618 80.2589 160.904 81.6978 159.654 83.0227C158.446 84.312 156.718 85.5158 154.524 86.6057C152.374 87.6742 149.752 88.6501 146.73 89.4977C143.737 90.3383 140.322 91.0648 136.593 91.6561C129.02 92.8599 120.268 93.501 110.595 93.5793C109.974 93.5865 109.345 93.5936 108.723 93.5936ZM4.70494 56.218C2.66172 57.8492 1.53295 59.63 1.34006 61.5177L1.31149 61.7741C1.1686 63.2059 1.55439 64.7018 2.47598 66.2048C3.37614 67.6864 4.80496 69.2037 6.7053 70.7138C8.57705 72.2025 10.9346 73.6913 13.7065 75.1444C16.457 76.5904 19.6433 78.008 23.1653 79.3685C30.3238 82.1252 38.7395 84.5827 48.1698 86.6841C57.9358 88.8566 68.3805 90.5377 79.2038 91.6846C90.0272 92.8314 100.586 93.3728 110.588 93.2944C120.247 93.2161 128.977 92.575 136.535 91.3783C140.257 90.787 143.658 90.0676 146.644 89.227C149.652 88.3865 152.26 87.4177 154.389 86.3564C156.553 85.2808 158.253 84.0912 159.439 82.8304C160.647 81.5482 161.333 80.1734 161.475 78.7345L161.504 78.4781C161.697 76.5833 160.947 74.6031 159.282 72.5801L159.232 72.6228C148.487 80.8145 116.067 83.8917 80.3897 80.1093C44.7049 76.3411 13.5994 66.5324 4.74781 56.275L4.70494 56.218Z"/>
<path d="M50.4273 112C50.2987 112 50.1773 112 50.0558 111.993C47.1267 111.929 44.862 111.074 43.3403 109.457L35.3961 101.009L35.6104 100.809C36.9321 102.213 38.8467 103.025 41.3114 103.21C41.69 103.238 42.083 103.253 42.483 103.253C55.0924 103.253 78.4251 88.9991 100.007 67.9785C122.269 46.2882 137.55 22.3756 137.164 9.83155C137.085 7.31705 136.378 5.32967 135.057 3.9264L135.271 3.72695L143.215 12.1751C151.417 20.901 135.692 49.8142 108.159 76.6332C86.3694 97.8604 63.2581 112 50.4273 112ZM36.9821 102.27L43.5547 109.265C45.0192 110.825 47.2125 111.651 50.063 111.708C56.0497 111.85 64.9942 108.517 75.2103 102.348C85.7835 95.9585 97.107 86.9975 107.952 76.4337C135.371 49.7216 151.088 20.9865 142.994 12.3817L136.428 5.40091C137.057 6.63322 137.4 8.11485 137.45 9.83155C137.843 22.4539 122.526 46.4521 100.208 68.1993C78.5823 89.2698 55.1639 103.552 42.4759 103.559C42.0687 103.559 41.6758 103.545 41.29 103.516C39.604 103.381 38.1608 102.961 36.9821 102.27Z"/>
</mask>
<path d="M161.783 78.5066L161.49 78.471C161.683 76.5477 160.904 74.5318 159.182 72.4803C150.538 62.2086 119.461 52.3857 83.6046 48.589C47.7554 44.7923 15.3568 47.8981 4.81925 56.1397C2.71173 57.7851 1.54724 59.6015 1.3472 61.5248L1.06144 61.4963L2.24736 49.9139C2.4474 47.9693 3.58331 46.1386 5.62653 44.4861C16.0212 36.0735 48.577 32.8823 84.8262 36.7217C106.266 38.994 126.191 43.3677 140.936 49.052C155.739 54.7506 163.562 61.1045 162.969 66.9313L161.79 78.5066C161.783 78.4995 161.783 78.5066 161.783 78.5066ZM54.2208 46.6943C63.4653 46.6943 73.4099 47.2142 83.6403 48.297C119.561 52.1008 150.716 61.9664 159.411 72.2951C160.64 73.7554 161.397 75.2014 161.69 76.6118L162.683 66.8886C163.89 55.0783 128.948 41.6724 84.7977 36.9995C48.627 33.1744 16.1498 36.3442 5.81228 44.7069C3.82621 46.3096 2.72602 48.069 2.53313 49.9424L1.54009 59.6585C2.11162 58.3336 3.14752 57.0799 4.64064 55.9117C12.2134 49.9852 30.9953 46.6943 54.2208 46.6943Z" fill="white"/>
<path d="M41.4543 103.523H41.2971V103.381L41.2828 103.523C38.7467 103.331 36.7606 102.49 35.3889 101.023L35.2175 100.838C34.1959 99.748 33.5172 98.3234 33.21 96.6067C32.9099 94.9399 32.9528 92.981 33.3386 90.7728C33.7172 88.6073 34.4173 86.1997 35.4318 83.5997C36.432 81.0211 37.7465 78.243 39.3396 75.3296C42.5616 69.4173 46.8338 63.0848 52.0276 56.5101C57.4071 49.7003 63.5439 42.9261 70.2737 36.3656C77.0106 29.8051 83.9261 23.8572 90.8416 18.6928C97.5285 13.6995 103.93 9.63922 109.874 6.61898C112.803 5.13022 115.596 3.91215 118.161 3.0075C120.761 2.0886 123.162 1.48313 125.298 1.19108C127.484 0.899024 129.413 0.941764 131.034 1.31929C132.713 1.70395 134.078 2.45901 135.107 3.54886L135.278 3.73407C136.65 5.19433 137.393 7.24582 137.471 9.83867L137.478 10.0025L137 9.96689C124.619 9.27594 100.65 23.7503 78.6108 45.2197C56.5784 66.6891 41.3257 90.4309 41.4471 103.053L41.4543 103.523ZM128.005 1.2908C127.162 1.2908 126.269 1.35491 125.326 1.48313C123.212 1.76806 120.833 2.37353 118.254 3.28531C115.696 4.18283 112.924 5.39378 109.995 6.88253C104.072 9.89566 97.6856 13.9488 91.013 18.9279C84.1118 24.0851 77.1963 30.0259 70.4737 36.5721C63.7511 43.1184 57.6214 49.8855 52.2562 56.6881C47.0767 63.2486 42.8117 69.5669 39.5968 75.465C38.018 78.3641 36.7034 81.1351 35.7104 83.7065C34.7031 86.2851 34.0101 88.6857 33.6315 90.8226C33.2528 92.9952 33.21 94.9256 33.5029 96.5568C33.7958 98.2166 34.4459 99.5913 35.4318 100.646L35.6032 100.831C36.8963 102.206 38.761 103.01 41.1471 103.224V103.189C40.9113 90.5306 56.2283 66.6037 78.3965 45.006C99.9861 23.9783 123.454 9.64635 136.135 9.64635C136.478 9.64635 136.807 9.65347 137.135 9.67484H137.164C137.057 7.23157 136.35 5.30118 135.057 3.9264L134.885 3.74119C133.899 2.69408 132.585 1.97463 130.963 1.5971C130.07 1.39053 129.084 1.2908 128.005 1.2908Z" fill="white"/>
<path d="M108.723 93.5936C99.2645 93.5936 89.3413 93.0522 79.1824 91.9766C68.3447 90.8298 57.8929 89.1487 48.1126 86.9761C38.6609 84.8747 30.238 82.4101 23.0653 79.6534C19.5361 78.2929 16.3427 76.8682 13.5779 75.4151C10.7917 73.9548 8.41988 72.4518 6.53384 70.956C4.60493 69.4245 3.16181 67.8858 2.24022 66.3757C1.28291 64.8086 0.875695 63.2629 1.03287 61.7599L1.06144 61.5034C1.26862 59.4947 2.47598 57.6142 4.64779 55.9117L4.75495 55.8262L5.08358 56.1895H5.06215C13.9994 66.3615 44.9335 76.0704 80.4183 79.8244C115.903 83.5783 148.13 80.5581 158.939 72.4803L159.311 72.1812L159.418 72.288C161.204 74.4107 162.004 76.4978 161.797 78.5066L161.768 78.763C161.618 80.2589 160.904 81.6978 159.654 83.0227C158.446 84.312 156.718 85.5158 154.524 86.6057C152.374 87.6742 149.752 88.6501 146.73 89.4977C143.737 90.3383 140.322 91.0648 136.593 91.6561C129.02 92.8599 120.268 93.501 110.595 93.5793C109.974 93.5865 109.345 93.5936 108.723 93.5936ZM4.70494 56.218C2.66172 57.8492 1.53295 59.63 1.34006 61.5177L1.31149 61.7741C1.1686 63.2059 1.55439 64.7018 2.47598 66.2048C3.37614 67.6864 4.80496 69.2037 6.7053 70.7138C8.57705 72.2025 10.9346 73.6913 13.7065 75.1444C16.457 76.5904 19.6433 78.008 23.1653 79.3685C30.3238 82.1252 38.7395 84.5827 48.1698 86.6841C57.9358 88.8566 68.3805 90.5377 79.2038 91.6846C90.0272 92.8314 100.586 93.3728 110.588 93.2944C120.247 93.2161 128.977 92.575 136.535 91.3783C140.257 90.787 143.658 90.0676 146.644 89.227C149.652 88.3865 152.26 87.4177 154.389 86.3564C156.553 85.2808 158.253 84.0912 159.439 82.8304C160.647 81.5482 161.333 80.1734 161.475 78.7345L161.504 78.4781C161.697 76.5833 160.947 74.6031 159.282 72.5801L159.232 72.6228C148.487 80.8145 116.067 83.8917 80.3897 80.1093C44.7049 76.3411 13.5994 66.5324 4.74781 56.275L4.70494 56.218Z" fill="white"/>
<path d="M50.4273 112C50.2987 112 50.1773 112 50.0558 111.993C47.1267 111.929 44.862 111.074 43.3403 109.457L35.3961 101.009L35.6104 100.809C36.9321 102.213 38.8467 103.025 41.3114 103.21C41.69 103.238 42.083 103.253 42.483 103.253C55.0924 103.253 78.4251 88.9991 100.007 67.9785C122.269 46.2882 137.55 22.3756 137.164 9.83155C137.085 7.31705 136.378 5.32967 135.057 3.9264L135.271 3.72695L143.215 12.1751C151.417 20.901 135.692 49.8142 108.159 76.6332C86.3694 97.8604 63.2581 112 50.4273 112ZM36.9821 102.27L43.5547 109.265C45.0192 110.825 47.2125 111.651 50.063 111.708C56.0497 111.85 64.9942 108.517 75.2103 102.348C85.7835 95.9585 97.107 86.9975 107.952 76.4337C135.371 49.7216 151.088 20.9865 142.994 12.3817L136.428 5.40091C137.057 6.63322 137.4 8.11485 137.45 9.83155C137.843 22.4539 122.526 46.4521 100.208 68.1993C78.5823 89.2698 55.1639 103.552 42.4759 103.559C42.0687 103.559 41.6758 103.545 41.29 103.516C39.604 103.381 38.1608 102.961 36.9821 102.27Z" fill="white"/>
<path d="M107.806 76.5704L107.906 76.6773L108.198 76.4039L108.098 76.2971L107.806 76.5704ZM161.783 78.5066L161.734 78.9037L162.183 78.9582L162.183 78.5064L161.783 78.5066ZM161.49 78.471L161.092 78.4311L161.053 78.8208L161.441 78.868L161.49 78.471ZM159.182 72.4803L159.489 72.2232L159.488 72.2228L159.182 72.4803ZM83.6046 48.589L83.5625 48.9868H83.5625L83.6046 48.589ZM4.81925 56.1397L5.06541 56.4549L5.06567 56.4547L4.81925 56.1397ZM1.3472 61.5248L1.30752 61.9228L1.70385 61.9624L1.74506 61.5662L1.3472 61.5248ZM1.06144 61.4963L0.663519 61.4556L0.622667 61.8546L1.02175 61.8943L1.06144 61.4963ZM2.24736 49.9139L1.84946 49.873L1.84944 49.8732L2.24736 49.9139ZM5.62653 44.4861L5.87808 44.7971L5.87817 44.797L5.62653 44.4861ZM84.8262 36.7217L84.8684 36.324L84.8684 36.324L84.8262 36.7217ZM140.936 49.052L140.792 49.4253L140.792 49.4253L140.936 49.052ZM162.969 66.9313L163.367 66.9719V66.9718L162.969 66.9313ZM161.79 78.5066L161.507 78.7898L162.103 79.3833L162.188 78.5471L161.79 78.5066ZM83.6403 48.297L83.6824 47.8992L83.6824 47.8992L83.6403 48.297ZM159.411 72.2951L159.717 72.0376L159.717 72.0375L159.411 72.2951ZM161.69 76.6118L161.298 76.6931L162.088 76.6525L161.69 76.6118ZM162.683 66.8886L162.285 66.8479V66.848L162.683 66.8886ZM84.7977 36.9995L84.8398 36.6018L84.8397 36.6018L84.7977 36.9995ZM5.81228 44.7069L6.06348 45.0182L6.06385 45.0179L5.81228 44.7069ZM2.53313 49.9424L2.13523 49.9015L2.1352 49.9018L2.53313 49.9424ZM1.54009 59.6585L1.14217 59.6179L1.90738 59.817L1.54009 59.6585ZM4.64064 55.9117L4.88712 56.2267L4.88717 56.2267L4.64064 55.9117ZM41.4543 103.523V103.923H41.8604L41.8542 103.517L41.4543 103.523ZM41.2971 103.523H40.8971V103.923H41.2971V103.523ZM41.2971 103.381H41.6971L40.8991 103.341L41.2971 103.381ZM41.2828 103.523L41.2526 103.922L41.6419 103.952L41.6808 103.563L41.2828 103.523ZM35.3889 101.023L35.0954 101.295L35.0967 101.296L35.3889 101.023ZM35.2175 100.838L35.511 100.566L35.5093 100.564L35.2175 100.838ZM33.21 96.6067L33.6037 96.5362L33.6036 96.5358L33.21 96.6067ZM33.3386 90.7728L32.9445 90.7039L32.9445 90.7039L33.3386 90.7728ZM35.4318 83.5997L35.8044 83.7451L35.8047 83.7443L35.4318 83.5997ZM39.3396 75.3296L39.6906 75.5215L39.6909 75.521L39.3396 75.3296ZM52.0276 56.5101L51.7137 56.2621L52.0276 56.5101ZM70.2737 36.3656L69.9946 36.079L69.9944 36.0792L70.2737 36.3656ZM90.8416 18.6928L90.6022 18.3723L90.6022 18.3724L90.8416 18.6928ZM109.874 6.61898L110.055 6.97558L110.055 6.97556L109.874 6.61898ZM118.161 3.0075L118.294 3.38472L118.294 3.38465L118.161 3.0075ZM125.298 1.19108L125.245 0.794597L125.243 0.794764L125.298 1.19108ZM131.034 1.31929L130.944 1.70888L130.945 1.70919L131.034 1.31929ZM135.107 3.54886L135.4 3.27711L135.397 3.27429L135.107 3.54886ZM135.278 3.73407L134.984 4.00582L134.986 4.00793L135.278 3.73407ZM137.471 9.83867L137.071 9.85079L137.072 9.85612L137.471 9.83867ZM137.478 10.0025L137.449 10.4014L137.898 10.4348L137.878 9.98507L137.478 10.0025ZM137 9.96689L137.029 9.56793L137.022 9.56751L137 9.96689ZM78.6108 45.2197L78.3317 44.9332L78.3317 44.9333L78.6108 45.2197ZM41.4471 103.053L41.0472 103.057L41.0472 103.059L41.4471 103.053ZM125.326 1.48313L125.38 1.87955L125.38 1.87948L125.326 1.48313ZM118.254 3.28531L118.386 3.66274L118.387 3.66243L118.254 3.28531ZM109.995 6.88253L109.814 6.52595L109.814 6.52602L109.995 6.88253ZM91.013 18.9279L90.7738 18.6073L90.7736 18.6075L91.013 18.9279ZM52.2562 56.6881L52.5701 56.936L52.5703 56.9358L52.2562 56.6881ZM39.5968 75.465L39.2456 75.2735L39.2455 75.2737L39.5968 75.465ZM35.7104 83.7065L36.083 83.8521L36.0836 83.8506L35.7104 83.7065ZM33.6315 90.8226L33.2376 90.7529L33.2374 90.754L33.6315 90.8226ZM33.5029 96.5568L33.8968 96.4873L33.8966 96.4861L33.5029 96.5568ZM35.4318 100.646L35.7253 100.374L35.7239 100.372L35.4318 100.646ZM35.6032 100.831L35.3097 101.103L35.3119 101.105L35.6032 100.831ZM41.1471 103.224L41.1114 103.623L41.5471 103.662V103.224H41.1471ZM41.1471 103.189H41.5472L41.547 103.181L41.1471 103.189ZM78.3965 45.006L78.1174 44.7195L78.1174 44.7195L78.3965 45.006ZM137.135 9.67484L137.11 10.074L137.122 10.0748H137.135V9.67484ZM137.164 9.67484V10.0748H137.582L137.564 9.65731L137.164 9.67484ZM135.057 3.9264L134.763 4.19815L134.765 4.20045L135.057 3.9264ZM134.885 3.74119L135.179 3.46944L135.176 3.46699L134.885 3.74119ZM130.963 1.5971L131.054 1.20752L131.053 1.20739L130.963 1.5971ZM79.1824 91.9766L79.2245 91.5788L79.2245 91.5788L79.1824 91.9766ZM48.1126 86.9761L48.0258 87.3666L48.0259 87.3666L48.1126 86.9761ZM23.0653 79.6534L22.9214 80.0266L22.9218 80.0268L23.0653 79.6534ZM13.5779 75.4151L13.764 75.061L13.7636 75.0608L13.5779 75.4151ZM6.53384 70.956L6.28511 71.2692L6.28527 71.2694L6.53384 70.956ZM2.24022 66.3757L2.58166 66.1674L2.58157 66.1672L2.24022 66.3757ZM1.03287 61.7599L0.635317 61.7156L0.635035 61.7183L1.03287 61.7599ZM1.06144 61.5034L1.45899 61.5477L1.45933 61.5445L1.06144 61.5034ZM4.64779 55.9117L4.89457 56.2265L4.89721 56.2244L4.64779 55.9117ZM4.75495 55.8262L5.05159 55.5579L4.79941 55.2791L4.50553 55.5135L4.75495 55.8262ZM5.08358 56.1895V56.5895H5.9848L5.38022 55.9212L5.08358 56.1895ZM5.06215 56.1895V55.7895H4.17824L4.76166 56.4535L5.06215 56.1895ZM158.939 72.4803L159.179 72.8007L159.185 72.7964L159.19 72.7919L158.939 72.4803ZM159.311 72.1812L159.593 71.8979L159.339 71.6447L159.06 71.8696L159.311 72.1812ZM159.418 72.288L159.724 72.0305L159.713 72.0171L159.7 72.0048L159.418 72.288ZM161.797 78.5066L162.195 78.5509L162.195 78.5476L161.797 78.5066ZM161.768 78.763L161.371 78.7187L161.37 78.7231L161.768 78.763ZM159.654 83.0227L159.363 82.7482L159.362 82.7493L159.654 83.0227ZM154.524 86.6057L154.702 86.9639L154.702 86.9639L154.524 86.6057ZM146.73 89.4977L146.622 89.1126L146.622 89.1126L146.73 89.4977ZM136.593 91.6561L136.53 91.261L136.53 91.261L136.593 91.6561ZM110.595 93.5793L110.592 93.1793L110.59 93.1794L110.595 93.5793ZM4.70494 56.218L5.02461 55.9776L4.77712 55.6485L4.45538 55.9054L4.70494 56.218ZM1.34006 61.5177L1.73762 61.562L1.73799 61.5583L1.34006 61.5177ZM1.31149 61.7741L0.91392 61.7298L0.913463 61.7344L1.31149 61.7741ZM2.47598 66.2048L2.81783 65.9971L2.81698 65.9957L2.47598 66.2048ZM6.7053 70.7138L6.95429 70.4007L6.95415 70.4006L6.7053 70.7138ZM13.7065 75.1444L13.8927 74.7904L13.8923 74.7901L13.7065 75.1444ZM23.1653 79.3685L23.0212 79.7416L23.0216 79.7418L23.1653 79.3685ZM48.1698 86.6841L48.0828 87.0745L48.0829 87.0745L48.1698 86.6841ZM110.588 93.2944L110.591 93.6944H110.591L110.588 93.2944ZM136.535 91.3783L136.598 91.7733L136.598 91.7733L136.535 91.3783ZM146.644 89.227L146.537 88.8418L146.536 88.842L146.644 89.227ZM154.389 86.3564L154.211 85.9982L154.21 85.9984L154.389 86.3564ZM159.439 82.8304L159.148 82.5562L159.148 82.5563L159.439 82.8304ZM161.475 78.7345L161.078 78.6902L161.077 78.695L161.475 78.7345ZM161.504 78.4781L161.902 78.5224L161.902 78.5186L161.504 78.4781ZM159.282 72.5801L159.591 72.3259L159.332 72.0112L159.022 72.276L159.282 72.5801ZM159.232 72.6228L159.475 72.9409L159.484 72.9341L159.492 72.9269L159.232 72.6228ZM80.3897 80.1093L80.4319 79.7115L80.4317 79.7115L80.3897 80.1093ZM4.74781 56.275L4.42814 56.5154L4.43621 56.5262L4.44497 56.5363L4.74781 56.275ZM50.0558 111.993L50.0792 111.594L50.0719 111.593L50.0646 111.593L50.0558 111.993ZM43.3403 109.457L43.0489 109.731L43.049 109.731L43.3403 109.457ZM35.3961 101.009L35.1236 100.716L34.8292 100.99L35.1047 101.283L35.3961 101.009ZM35.6104 100.809L35.9016 100.535L35.629 100.246L35.3379 100.517L35.6104 100.809ZM41.3114 103.21L41.3414 102.811H41.3414L41.3114 103.21ZM100.007 67.9785L100.287 68.265L100.287 68.2649L100.007 67.9785ZM137.164 9.83155L137.564 9.81926V9.81906L137.164 9.83155ZM135.271 3.72695L135.562 3.45293L135.29 3.16304L134.998 3.43412L135.271 3.72695ZM143.215 12.1751L143.507 11.9011L143.507 11.9011L143.215 12.1751ZM108.159 76.6332L107.88 76.3466L107.88 76.3467L108.159 76.6332ZM36.9821 102.27L37.1843 101.925L36.6906 102.544L36.9821 102.27ZM43.5547 109.265L43.8463 108.991L43.8462 108.991L43.5547 109.265ZM50.063 111.708L50.0725 111.308L50.0709 111.308L50.063 111.708ZM75.2103 102.348L75.417 102.69L75.4171 102.69L75.2103 102.348ZM107.952 76.4337L108.231 76.7203L108.231 76.7202L107.952 76.4337ZM142.994 12.3817L142.702 12.6557L142.702 12.6557L142.994 12.3817ZM136.428 5.40091L136.72 5.12686L136.072 5.58268L136.428 5.40091ZM137.45 9.83155L137.05 9.8432L137.05 9.844L137.45 9.83155ZM100.208 68.1993L100.487 68.4858L100.487 68.4858L100.208 68.1993ZM42.4759 103.559V103.959H42.4761L42.4759 103.559ZM41.29 103.516L41.258 103.915L41.2605 103.915L41.29 103.516ZM161.831 78.1095L161.538 78.0739L161.441 78.868L161.734 78.9037L161.831 78.1095ZM161.888 78.5109C162.095 76.4439 161.252 74.3243 159.489 72.2232L158.876 72.7375C160.556 74.7393 161.27 76.6515 161.092 78.4311L161.888 78.5109ZM159.488 72.2228C157.278 69.5964 153.662 67.0275 148.952 64.5925C144.237 62.1545 138.399 59.8369 131.718 57.7252C118.357 53.5014 101.597 50.0919 83.6467 48.1913L83.5625 48.9868C101.469 50.8828 118.175 54.2831 131.477 58.4879C138.129 60.5904 143.922 62.8919 148.585 65.3032C153.254 67.7176 156.764 70.2284 158.876 72.7379L159.488 72.2228ZM83.6467 48.1913C65.7004 46.2906 48.6111 46.1168 34.6819 47.4518C27.7175 48.1193 21.5357 49.1647 16.4281 50.5632C11.3272 51.96 7.2678 53.7168 4.57282 55.8246L5.06567 56.4547C7.63948 54.4417 11.5815 52.7198 16.6393 51.3348C21.6904 49.9518 27.8246 48.9127 34.7582 48.2482C48.625 46.9191 65.6596 47.0908 83.5625 48.9868L83.6467 48.1913ZM4.57308 55.8244C2.41249 57.5113 1.16429 59.4169 0.949349 61.4834L1.74506 61.5662C1.93019 59.7862 3.01097 58.059 5.06541 56.4549L4.57308 55.8244ZM1.38689 61.1268L1.10113 61.0983L1.02175 61.8943L1.30752 61.9228L1.38689 61.1268ZM1.45936 61.5371L2.64528 49.9547L1.84944 49.8732L0.663519 61.4556L1.45936 61.5371ZM2.64526 49.9549C2.83112 48.1481 3.88884 46.406 5.87808 44.7971L5.37498 44.175C3.27778 45.8713 2.06367 47.7906 1.84946 49.873L2.64526 49.9549ZM5.87817 44.797C8.4153 42.7437 12.3387 40.9852 17.397 39.5691C22.4484 38.155 28.6009 37.0907 35.5699 36.4075C49.5077 35.0412 66.6813 35.2021 84.7841 37.1195L84.8684 36.324C66.7219 34.4019 49.493 34.2388 35.4919 35.6113C28.4916 36.2976 22.2905 37.3685 17.1814 38.7987C12.0792 40.2271 8.03511 42.0222 5.37489 44.1751L5.87817 44.797ZM84.7841 37.1195C106.201 39.3894 126.089 43.7572 140.792 49.4253L141.08 48.6788C126.292 42.9782 106.331 38.5987 84.8684 36.324L84.7841 37.1195ZM140.792 49.4253C148.175 52.2676 153.788 55.2626 157.474 58.2542C161.173 61.2568 162.846 64.1831 162.571 66.8908L163.367 66.9718C163.684 63.8528 161.742 60.6887 157.978 57.633C154.2 54.5663 148.5 51.5351 141.08 48.6787L140.792 49.4253ZM162.571 66.8908L161.392 78.4661L162.188 78.5471L163.367 66.9719L162.571 66.8908ZM162.072 78.2233C162.056 78.2071 162.001 78.1538 161.912 78.124C161.861 78.1071 161.789 78.0946 161.706 78.1112C161.62 78.1283 161.551 78.1711 161.501 78.2208C161.415 78.3063 161.395 78.403 161.391 78.4272C161.387 78.4469 161.385 78.4637 161.384 78.4758C161.383 78.4821 161.383 78.4878 161.383 78.4929C161.383 78.4955 161.383 78.4979 161.383 78.5002C161.383 78.5014 161.383 78.5025 161.383 78.5036C161.383 78.5041 161.383 78.5047 161.383 78.5052C161.383 78.5055 161.383 78.5058 161.383 78.506C161.383 78.5061 161.383 78.5063 161.383 78.5064C161.383 78.5066 161.383 78.5068 161.783 78.5066C162.183 78.5064 162.183 78.5066 162.183 78.5068C162.183 78.5068 162.183 78.507 162.183 78.5071C162.183 78.5074 162.183 78.5077 162.183 78.5079C162.183 78.5085 162.183 78.509 162.183 78.5096C162.183 78.5107 162.183 78.5118 162.183 78.5129C162.183 78.5152 162.183 78.5176 162.182 78.5201C162.182 78.5251 162.182 78.5307 162.182 78.5368C162.181 78.5485 162.179 78.5648 162.175 78.584C162.171 78.6024 162.164 78.6303 162.151 78.6624C162.137 78.6937 162.112 78.7411 162.066 78.787C162.017 78.8363 161.948 78.8787 161.863 78.8957C161.78 78.9121 161.709 78.8997 161.66 78.8831C161.572 78.8541 161.52 78.8025 161.507 78.7898L162.072 78.2233ZM54.2208 47.0943C63.4506 47.0943 73.3812 47.6134 83.5982 48.6948L83.6824 47.8992C73.4387 46.8151 63.48 46.2943 54.2208 46.2943V47.0943ZM83.5982 48.6948C101.537 50.5943 118.279 54.007 131.615 58.2306C138.283 60.3424 144.092 62.6547 148.771 65.0781C153.456 67.5046 156.98 70.0288 159.105 72.5527L159.717 72.0375C157.494 69.3971 153.864 66.8148 149.139 64.3677C144.408 61.9175 138.554 59.5891 131.856 57.4679C118.461 53.2255 101.665 49.8034 83.6824 47.8992L83.5982 48.6948ZM159.105 72.5527C160.303 73.9769 161.022 75.3642 161.298 76.6931L162.081 76.5305C161.772 75.0387 160.976 73.5339 159.717 72.0376L159.105 72.5527ZM162.088 76.6525L163.081 66.9292L162.285 66.848L161.292 76.5712L162.088 76.6525ZM163.081 66.9293C163.405 63.7621 161.301 60.59 157.479 57.5789C153.638 54.5529 147.962 51.6068 140.893 48.8941C126.749 43.4665 106.94 38.9408 84.8398 36.6018L84.7556 37.3973C106.806 39.7311 126.544 44.2448 140.606 49.641C147.64 52.3401 153.233 55.2519 156.984 58.2073C160.754 61.1774 162.565 64.1099 162.285 66.8479L163.081 66.9293ZM84.8397 36.6018C66.7326 34.6869 49.5431 34.5219 35.5787 35.8847C28.5967 36.566 22.4133 37.63 17.3209 39.0514C12.2354 40.4709 8.2068 42.2553 5.5607 44.3959L6.06385 45.0179C8.58653 42.9771 12.4941 41.2293 17.5359 39.822C22.5707 38.4166 28.7056 37.3592 35.6564 36.6809C49.5576 35.3243 66.692 35.487 84.7556 37.3973L84.8397 36.6018ZM5.56108 44.3956C3.52206 46.041 2.34244 47.889 2.13523 49.9015L2.93102 49.9834C3.10959 48.2491 4.13037 46.5782 6.06348 45.0182L5.56108 44.3956ZM2.1352 49.9018L1.14217 59.6179L1.93802 59.6992L2.93105 49.9831L2.1352 49.9018ZM1.90738 59.817C2.44546 58.5696 3.43101 57.366 4.88712 56.2267L4.39416 55.5967C2.86404 56.7938 1.77779 58.0976 1.17281 59.5001L1.90738 59.817ZM4.88717 56.2267C8.59403 53.3257 15.1021 51.0349 23.6329 49.474C32.1482 47.9159 42.6249 47.0943 54.2208 47.0943V46.2943C42.5912 46.2943 32.0642 47.118 23.489 48.6871C14.9292 50.2533 8.26002 52.5712 4.39412 55.5967L4.88717 56.2267ZM41.4543 103.123H41.2971V103.923H41.4543V103.123ZM41.6971 103.523V103.381H40.8971V103.523H41.6971ZM40.8991 103.341L40.8848 103.483L41.6808 103.563L41.6951 103.421L40.8991 103.341ZM41.3131 103.124C38.8488 102.938 36.9673 102.126 35.6811 100.75L35.0967 101.296C36.5539 102.855 38.6445 103.724 41.2526 103.922L41.3131 103.124ZM35.6824 100.751L35.511 100.566L34.9239 101.11L35.0954 101.295L35.6824 100.751ZM35.5093 100.564C34.5485 99.5394 33.8995 98.1891 33.6037 96.5362L32.8162 96.6772C33.1348 98.4577 33.8432 99.9567 34.9256 101.111L35.5093 100.564ZM33.6036 96.5358C33.3141 94.9274 33.3524 93.0176 33.7326 90.8416L32.9445 90.7039C32.5531 92.9444 32.5057 94.9524 32.8163 96.6776L33.6036 96.5358ZM33.7326 90.8417C34.1057 88.7079 34.7973 86.3262 35.8044 83.7451L35.0592 83.4543C34.0373 86.0731 33.3287 88.5067 32.9445 90.7039L33.7326 90.8417ZM35.8047 83.7443C36.7974 81.185 38.1041 78.4228 39.6906 75.5215L38.9887 75.1377C37.3889 78.0632 36.0665 80.8572 35.0589 83.455L35.8047 83.7443ZM39.6909 75.521C42.8997 69.6328 47.1584 63.3192 52.3415 56.758L51.7137 56.2621C46.5092 62.8504 42.2235 69.2019 38.9884 75.1382L39.6909 75.521ZM52.3415 56.758C57.7094 49.9629 63.8345 43.2014 70.5529 36.652L69.9944 36.0792C63.2533 42.6507 57.1048 49.4377 51.7137 56.2621L52.3415 56.758ZM70.5527 36.6521C77.2784 30.1026 84.1807 24.1663 91.0809 19.0133L90.6022 18.3724C83.6714 23.5481 76.7427 29.5076 69.9946 36.079L70.5527 36.6521ZM91.0809 19.0133C97.7538 14.0304 104.135 9.98329 110.055 6.97558L109.692 6.26237C103.724 9.29516 97.3031 13.3685 90.6022 18.3723L91.0809 19.0133ZM110.055 6.97556C112.971 5.49312 115.749 4.28248 118.294 3.38472L118.028 2.63028C115.443 3.54182 112.634 4.76733 109.692 6.26239L110.055 6.97556ZM118.294 3.38465C120.875 2.47276 123.248 1.87501 125.352 1.58739L125.243 0.794764C123.075 1.09125 120.648 1.70445 118.027 2.63035L118.294 3.38465ZM125.351 1.58755C127.504 1.29993 129.382 1.34524 130.944 1.70888L131.125 0.929712C129.444 0.538289 127.464 0.498118 125.245 0.794599L125.351 1.58755ZM130.945 1.70919C132.557 2.07844 133.848 2.79806 134.816 3.82344L135.397 3.27429C134.308 2.11996 132.87 1.32946 131.124 0.929398L130.945 1.70919ZM134.813 3.82061L134.984 4.00581L135.572 3.46232L135.4 3.27712L134.813 3.82061ZM134.986 4.00793C136.274 5.37888 136.995 7.32725 137.071 9.85079L137.871 9.82656C137.79 7.16439 137.025 5.00978 135.57 3.46021L134.986 4.00793ZM137.072 9.85612L137.079 10.02L137.878 9.98507L137.871 9.82123L137.072 9.85612ZM137.508 9.60361L137.029 9.568L136.97 10.3658L137.449 10.4014L137.508 9.60361ZM137.022 9.56751C133.85 9.39048 129.972 10.1847 125.614 11.7892C121.252 13.3955 116.383 15.8237 111.221 18.9408C100.896 25.175 89.3696 34.1809 78.3317 44.9332L78.89 45.5063C89.8917 34.7891 101.37 25.8231 111.634 19.6256C116.766 16.5268 121.589 14.1241 125.891 12.5399C130.198 10.9538 133.959 10.1978 136.977 10.3663L137.022 9.56751ZM78.3317 44.9333C67.2974 55.6856 57.9557 67.0116 51.3848 77.2379C48.0993 82.351 45.5026 87.1953 43.7337 91.5606C41.9668 95.921 41.0161 99.8273 41.0472 103.057L41.8471 103.049C41.8175 99.968 42.7278 96.1731 44.4751 91.861C46.2205 87.5538 48.7912 82.7542 52.0578 77.6704C58.5909 67.5029 67.8919 56.2233 78.89 45.5062L78.3317 44.9333ZM41.0472 103.059L41.0543 103.529L41.8542 103.517L41.8471 103.047L41.0472 103.059ZM128.005 0.890802C127.142 0.890802 126.231 0.956433 125.272 1.08678L125.38 1.87948C126.308 1.75339 127.182 1.6908 128.005 1.6908V0.890802ZM125.273 1.08671C123.125 1.37615 120.718 1.98963 118.12 2.90818L118.387 3.66243C120.947 2.75744 123.298 2.15996 125.38 1.87955L125.273 1.08671ZM118.121 2.90787C115.543 3.81247 112.755 5.03101 109.814 6.52595L110.176 7.23912C113.093 5.75655 115.849 4.5532 118.386 3.66274L118.121 2.90787ZM109.814 6.52602C103.867 9.55166 97.4603 13.6178 90.7738 18.6073L91.2523 19.2485C97.911 14.2797 104.278 10.2397 110.176 7.23905L109.814 6.52602ZM90.7736 18.6075C83.8573 23.776 76.9286 29.7283 70.1946 36.2856L70.7528 36.8587C77.464 30.3235 84.3664 24.3943 91.2525 19.2483L90.7736 18.6075ZM70.1946 36.2856C63.4606 42.843 57.319 49.6229 51.9421 56.4404L52.5703 56.9358C57.9238 50.148 64.0416 43.3938 70.7528 36.8587L70.1946 36.2856ZM51.9422 56.4403C46.7522 63.0142 42.4736 69.3514 39.2456 75.2735L39.948 75.6564C43.1497 69.7825 47.4013 63.4831 52.5701 56.936L51.9422 56.4403ZM39.2455 75.2737C37.6604 78.1843 36.3379 80.9712 35.3373 83.5624L36.0836 83.8506C37.069 81.2989 38.3755 78.544 39.9481 75.6563L39.2455 75.2737ZM35.3378 83.561C34.3229 86.1591 33.6217 88.5852 33.2376 90.7529L34.0253 90.8924C34.3985 88.7861 35.0833 86.4112 36.083 83.8521L35.3378 83.561ZM33.2374 90.754C32.8532 92.9584 32.8058 94.9379 33.1092 96.6275L33.8966 96.4861C33.6142 94.9134 33.6524 93.032 34.0255 90.8913L33.2374 90.754ZM33.109 96.6264C33.4131 98.3497 34.0927 99.7992 35.1396 100.919L35.7239 100.372C34.7991 99.3834 34.1785 98.0834 33.8968 96.4873L33.109 96.6264ZM35.1383 100.917L35.3097 101.103L35.8968 100.559L35.7253 100.374L35.1383 100.917ZM35.3119 101.105C36.6887 102.569 38.6548 103.403 41.1114 103.623L41.1828 102.826C38.8671 102.618 37.104 101.843 35.8946 100.557L35.3119 101.105ZM41.5471 103.224V103.189H40.7471V103.224H41.5471ZM41.547 103.181C41.4895 100.092 42.3823 96.2798 44.1217 91.9436C45.8591 87.6123 48.4313 82.7824 51.7072 77.6653C58.259 67.4314 67.6098 56.0736 78.6757 45.2926L78.1174 44.7195C67.0151 55.5361 57.6233 66.9406 51.0334 77.234C47.7386 82.3806 45.1402 87.2557 43.3792 91.6457C41.6202 96.0308 40.6868 99.9562 40.7472 103.196L41.547 103.181ZM78.6756 45.2926C89.4526 34.7961 100.694 25.9755 110.815 19.782C120.956 13.577 129.912 10.0463 136.135 10.0463V9.24635C129.678 9.24635 120.559 12.8816 110.398 19.0996C100.218 25.329 88.93 34.1883 78.1174 44.7195L78.6756 45.2926ZM136.135 10.0463C136.473 10.0463 136.792 10.0534 137.11 10.074L137.161 9.27568C136.821 9.25357 136.484 9.24635 136.135 9.24635V10.0463ZM137.135 10.0748H137.164V9.27484H137.135V10.0748ZM137.564 9.65731C137.454 7.14734 136.724 5.11549 135.348 3.65234L134.765 4.20045C135.975 5.48686 136.66 7.31581 136.764 9.69237L137.564 9.65731ZM135.35 3.65465L135.179 3.46945L134.592 4.01294L134.763 4.19814L135.35 3.65465ZM135.176 3.46699C134.128 2.35401 132.74 1.60008 131.054 1.20752L130.872 1.98668C132.429 2.34919 133.67 3.03414 134.594 4.01539L135.176 3.46699ZM131.053 1.20739C130.125 0.992706 129.108 0.890802 128.005 0.890802V1.6908C129.06 1.6908 130.015 1.78835 130.873 1.98681L131.053 1.20739ZM108.723 93.1936C99.2796 93.1936 89.3705 92.6531 79.2245 91.5788L79.1403 92.3744C89.3122 93.4514 99.2495 93.9936 108.723 93.9936V93.1936ZM79.2245 91.5788C68.4005 90.4334 57.9637 88.7547 48.1993 86.5856L48.0259 87.3666C57.8222 89.5427 68.289 91.2261 79.1403 92.3744L79.2245 91.5788ZM48.1994 86.5856C38.7624 84.4875 30.3591 82.0281 23.2088 79.2801L22.9218 80.0268C30.1169 82.7921 38.5594 85.2619 48.0258 87.3666L48.1994 86.5856ZM23.2092 79.2802C19.6913 77.924 16.5125 76.5056 13.764 75.061L13.3918 75.7692C16.173 77.2309 19.3809 78.6617 22.9214 80.0266L23.2092 79.2802ZM13.7636 75.0608C10.9935 73.609 8.64404 72.1191 6.7824 70.6426L6.28527 71.2694C8.19573 72.7846 10.59 74.3007 13.3923 75.7694L13.7636 75.0608ZM6.78256 70.6427C4.87701 69.1298 3.47116 67.6249 2.58166 66.1674L1.89878 66.5841C2.85247 68.1468 4.33284 69.7192 6.28511 71.2692L6.78256 70.6427ZM2.58157 66.1672C1.65949 64.6578 1.28456 63.199 1.4307 61.8015L0.635035 61.7183C0.466833 63.3268 0.906334 64.9595 1.89887 66.5843L2.58157 66.1672ZM1.4304 61.8042L1.45898 61.5477L0.663903 61.4591L0.635326 61.7156L1.4304 61.8042ZM1.45933 61.5445C1.65176 59.6788 2.77575 57.8874 4.89456 56.2265L4.40102 55.5969C2.1762 57.3409 0.885487 59.3106 0.663553 61.4624L1.45933 61.5445ZM4.89721 56.2244L5.00438 56.1389L4.50553 55.5135L4.39836 55.599L4.89721 56.2244ZM4.45831 56.0946L4.78694 56.4579L5.38022 55.9212L5.05159 55.5579L4.45831 56.0946ZM5.08358 55.7895H5.06215V56.5895H5.08358V55.7895ZM4.76166 56.4535C7.04423 59.0514 10.7045 61.593 15.4354 64.0023C20.172 66.4145 26.0075 68.7068 32.6652 70.7954C45.9808 74.9726 62.6121 78.3429 80.3762 80.2222L80.4604 79.4266C62.7397 77.5519 46.1615 74.1908 32.9046 70.0321C26.276 67.9526 20.4845 65.6758 15.7984 63.2894C11.1067 60.9001 7.54871 58.4136 5.36264 55.9255L4.76166 56.4535ZM80.3762 80.2222C98.1403 82.1014 115.095 82.2859 128.97 80.9875C135.906 80.3383 142.08 79.3178 147.204 77.95C152.321 76.5839 156.418 74.8642 159.179 72.8007L158.7 72.1599C156.057 74.1353 152.072 75.8223 146.997 77.1771C141.929 78.5302 135.802 79.5446 128.895 80.191C115.082 81.4836 98.1811 81.3013 80.4604 79.4266L80.3762 80.2222ZM159.19 72.7919L159.562 72.4927L159.06 71.8696L158.688 72.1688L159.19 72.7919ZM159.028 72.4644L159.136 72.5713L159.7 72.0048L159.593 71.8979L159.028 72.4644ZM159.112 72.5455C160.855 74.6174 161.591 76.6003 161.399 78.4655L162.195 78.5476C162.417 76.3954 161.553 74.204 159.724 72.0305L159.112 72.5455ZM161.399 78.4623L161.371 78.7187L162.166 78.8073L162.195 78.5509L161.399 78.4623ZM161.37 78.7231C161.231 80.1137 160.566 81.4735 159.363 82.7482L159.945 83.2972C161.242 81.9221 162.006 80.4041 162.166 78.8029L161.37 78.7231ZM159.362 82.7493C158.197 83.9928 156.513 85.1709 154.346 86.2475L154.702 86.9639C156.922 85.8607 158.695 84.6313 159.946 83.2961L159.362 82.7493ZM154.346 86.2475C152.224 87.3022 149.626 88.2699 146.622 89.1126L146.838 89.8829C149.878 89.0302 152.524 88.0462 154.702 86.9639L154.346 86.2475ZM146.622 89.1126C143.646 89.9482 140.247 90.6717 136.53 91.261L136.655 92.0511C140.397 91.458 143.827 90.7284 146.838 89.8828L146.622 89.1126ZM136.53 91.261C128.981 92.461 120.25 93.1011 110.592 93.1793L110.598 93.9793C120.286 93.9008 129.058 93.2588 136.655 92.0511L136.53 91.261ZM110.59 93.1794C109.969 93.1865 109.342 93.1936 108.723 93.1936V93.9936C109.348 93.9936 109.978 93.9864 110.6 93.9793L110.59 93.1794ZM4.45538 55.9054C2.36038 57.578 1.14953 59.4475 0.942135 61.477L1.73799 61.5583C1.91638 59.8126 2.96307 58.1205 4.95451 56.5306L4.45538 55.9054ZM0.942523 61.4734L0.913947 61.7298L1.70903 61.8184L1.7376 61.562L0.942523 61.4734ZM0.913463 61.7344C0.760275 63.2694 1.17711 64.8517 2.13498 66.4139L2.81698 65.9957C1.93166 64.5518 1.57693 63.1423 1.70951 61.8138L0.913463 61.7344ZM2.13412 66.4125C3.06683 67.9477 4.53354 69.4989 6.45644 71.0269L6.95415 70.4006C5.07638 68.9084 3.68544 67.4251 2.81783 65.9971L2.13412 66.4125ZM6.4563 71.0268C8.35303 72.5354 10.7334 74.0374 13.5208 75.4987L13.8923 74.7901C11.1359 73.3452 8.80108 71.8696 6.95429 70.4007L6.4563 71.0268ZM13.5204 75.4985C16.2875 76.9532 19.4883 78.3769 23.0212 79.7416L23.3095 78.9954C19.7983 77.639 16.6266 76.2277 13.8927 74.7904L13.5204 75.4985ZM23.0216 79.7418C30.2027 82.5072 38.6381 84.9699 48.0828 87.0745L48.2568 86.2936C38.8409 84.1955 30.4449 81.7432 23.3091 78.9952L23.0216 79.7418ZM48.0829 87.0745C57.8649 89.2507 68.3247 90.934 79.1617 92.0823L79.246 91.2868C68.4363 90.1414 58.0066 88.4626 48.2566 86.2936L48.0829 87.0745ZM79.1617 92.0823C89.9988 93.2306 100.573 93.7729 110.591 93.6944L110.585 92.8944C100.599 92.9726 90.0556 92.4322 79.246 91.2868L79.1617 92.0823ZM110.591 93.6944C120.265 93.6159 129.015 92.9738 136.598 91.7733L136.473 90.9832C128.938 92.1761 120.229 92.8162 110.585 92.8944L110.591 93.6944ZM136.598 91.7733C140.332 91.1802 143.748 90.4577 146.753 89.6121L146.536 88.842C143.568 89.6774 140.183 90.3938 136.473 90.9832L136.598 91.7733ZM146.752 89.6123C149.777 88.7668 152.41 87.7898 154.567 86.7144L154.21 85.9984C152.109 87.0457 149.527 88.0062 146.537 88.8418L146.752 89.6123ZM154.567 86.7146C156.759 85.6254 158.503 84.4103 159.731 83.1044L159.148 82.5563C158.004 83.7721 156.348 84.9361 154.211 85.9982L154.567 86.7146ZM159.731 83.1046C160.985 81.773 161.72 80.3192 161.874 78.774L161.077 78.695C160.945 80.0276 160.309 81.3234 159.148 82.5562L159.731 83.1046ZM161.873 78.7788L161.902 78.5224L161.107 78.4338L161.078 78.6902L161.873 78.7788ZM161.902 78.5186C162.109 76.4822 161.297 74.3989 159.591 72.3259L158.973 72.8342C160.597 74.8072 161.285 76.6845 161.106 78.4376L161.902 78.5186ZM159.022 72.276L158.972 72.3187L159.492 72.9269L159.542 72.8841L159.022 72.276ZM158.99 72.3047C156.363 74.3072 152.379 76.0187 147.293 77.3942C142.213 78.768 136.062 79.7994 129.123 80.4582C115.246 81.7757 98.2489 81.6004 80.4319 79.7115L80.3476 80.5071C98.2083 82.4006 115.26 82.578 129.199 81.2546C136.168 80.5929 142.366 79.5554 147.502 78.1665C152.631 76.7793 156.729 75.0342 159.475 72.9409L158.99 72.3047ZM80.4317 79.7115C62.6112 77.8297 45.9403 74.4402 32.6265 70.2441C25.9694 68.146 20.1585 65.8485 15.4655 63.4407C10.7667 61.0299 7.21494 58.5217 5.05064 56.0137L4.44497 56.5363C6.70646 59.157 10.3622 61.7215 15.1003 64.1525C19.8443 66.5864 25.6997 68.8998 32.386 71.0071C45.7591 75.2218 62.4834 78.6207 80.3477 80.5071L80.4317 79.7115ZM5.06747 56.0345L5.02461 55.9776L4.38528 56.4585L4.42814 56.5154L5.06747 56.0345ZM50.4273 111.6C50.2966 111.6 50.187 111.6 50.0792 111.594L50.0324 112.392C50.1675 112.4 50.3008 112.4 50.4273 112.4V111.6ZM50.0646 111.593C47.207 111.53 45.0585 110.699 43.6316 109.183L43.049 109.731C44.6656 111.449 47.0464 112.327 50.0471 112.393L50.0646 111.593ZM43.6317 109.183L35.6875 100.735L35.1047 101.283L43.0489 109.731L43.6317 109.183ZM35.6686 101.302L35.8829 101.102L35.3379 100.517L35.1236 100.716L35.6686 101.302ZM35.3192 101.084C36.7263 102.578 38.7449 103.418 41.2814 103.609L41.3414 102.811C38.9485 102.631 37.1378 101.848 35.9016 100.535L35.3192 101.084ZM41.2814 103.609C41.6706 103.638 42.0736 103.653 42.483 103.653V102.853C42.0924 102.853 41.7095 102.839 41.3414 102.811L41.2814 103.609ZM42.483 103.653C48.9051 103.653 57.9715 100.037 68.0893 93.8394C78.2257 87.6305 89.4777 78.7926 100.287 68.265L99.7284 67.6919C88.9549 78.185 77.7493 86.9842 67.6714 93.1572C57.575 99.3417 48.6704 102.853 42.483 102.853V103.653ZM100.287 68.2649C111.435 57.4021 120.842 45.978 127.415 35.6906C130.702 30.5469 133.285 25.6811 135.023 21.3065C136.759 16.9371 137.663 13.0324 137.564 9.81926L136.764 9.84385C136.858 12.9027 135.996 16.6911 134.28 21.0111C132.565 25.326 130.009 30.146 126.741 35.2598C120.206 45.4873 110.841 56.8646 99.7283 67.692L100.287 68.2649ZM137.564 9.81906C137.483 7.23784 136.755 5.14615 135.348 3.65215L134.765 4.20064C136.002 5.51319 136.688 7.39626 136.764 9.84405L137.564 9.81906ZM135.329 4.21922L135.543 4.01977L134.998 3.43412L134.784 3.63357L135.329 4.21922ZM134.979 4.00097L142.924 12.4491L143.507 11.9011L135.562 3.45293L134.979 4.00097ZM142.924 12.449C144.847 14.4952 145.418 17.7809 144.675 22.0886C143.935 26.3853 141.899 31.6122 138.736 37.4282C132.412 49.0557 121.626 62.9574 107.88 76.3466L108.438 76.9197C122.226 63.49 133.068 49.5256 139.439 37.8104C142.624 31.9549 144.702 26.6412 145.464 22.2245C146.223 17.8186 145.684 14.218 143.507 11.9011L142.924 12.449ZM107.88 76.3467C97.0023 86.9434 85.8003 95.7656 75.7247 101.936C65.6316 108.116 56.7263 111.6 50.4273 111.6V112.4C56.9591 112.4 66.0249 108.814 76.1425 102.618C86.2776 96.4114 97.526 87.5502 108.438 76.9197L107.88 76.3467ZM36.6906 102.544L43.2631 109.539L43.8462 108.991L37.2736 101.996L36.6906 102.544ZM43.263 109.538C44.823 111.2 47.1333 112.049 50.055 112.108L50.0709 111.308C47.2916 111.252 45.2154 110.449 43.8463 108.991L43.263 109.538ZM50.0534 112.108C56.161 112.253 65.1893 108.866 75.417 102.69L75.0035 102.006C64.799 108.167 55.9384 111.448 50.0725 111.308L50.0534 112.108ZM75.4171 102.69C86.0216 96.282 97.3689 87.3007 108.231 76.7203L107.673 76.1472C96.8451 86.6942 85.5455 95.635 75.0034 102.006L75.4171 102.69ZM108.231 76.7202C121.961 63.3441 132.773 49.4512 139.141 37.8095C142.324 31.9907 144.409 26.7142 145.183 22.3332C145.955 17.9637 145.437 14.3954 143.285 12.1076L142.702 12.6557C144.597 14.6704 145.15 17.9208 144.395 22.194C143.642 26.4556 141.601 31.6459 138.439 37.4255C132.118 48.9805 121.362 62.8113 107.673 76.1472L108.231 76.7202ZM143.285 12.1076L136.72 5.12686L136.137 5.67495L142.702 12.6557L143.285 12.1076ZM136.072 5.58268C136.668 6.75132 137.001 8.17216 137.05 9.8432L137.85 9.81991C137.798 8.05755 137.446 6.51513 136.785 5.21913L136.072 5.58268ZM137.05 9.844C137.146 12.9227 136.283 16.7312 134.563 21.071C132.846 25.4058 130.284 30.2455 127.008 35.3784C120.457 45.6441 111.069 57.0569 99.9284 67.9128L100.487 68.4858C111.664 57.5944 121.093 46.1345 127.683 35.8088C130.977 30.646 133.566 25.7603 135.307 21.3657C137.046 16.9762 137.95 13.0516 137.85 9.81911L137.05 9.844ZM99.9284 67.9128C89.1336 78.4307 77.8959 87.2494 67.7815 93.4367C57.6487 99.6352 48.7027 103.155 42.4757 103.159L42.4761 103.959C48.937 103.955 58.0443 100.331 68.199 94.1191C78.3721 87.8959 89.6562 79.0384 100.487 68.4858L99.9284 67.9128ZM42.4759 103.159C42.0781 103.159 41.695 103.145 41.3194 103.117L41.2605 103.915C41.6565 103.944 42.0593 103.959 42.4759 103.959V103.159ZM41.322 103.118C39.6828 102.986 38.3008 102.579 37.1843 101.925L36.7798 102.615C38.0209 103.342 39.5251 103.776 41.258 103.915L41.322 103.118Z" fill="white" mask="url(#path-1-outside-1_1_1776)"/>
</g>
<path d="M128.175 44.6796L124.532 48.7185C126.011 49.0248 127.154 49.6445 127.968 50.5634C128.768 51.4894 129.176 52.6078 129.19 53.9184C129.204 54.9869 128.933 55.9842 128.375 56.896C127.818 57.8149 126.961 58.5485 125.804 59.1113C124.653 59.674 123.217 59.9518 121.503 59.9518C120.245 59.9518 119.002 59.8022 117.766 59.4888C116.559 59.1825 115.502 58.7622 114.616 58.1995C113.551 57.5299 112.137 56.4401 111.865 56.1694L114.644 52.9639C114.794 53.1705 116.43 54.3672 116.473 54.3957C117.145 54.8373 117.888 55.1793 118.709 55.4215C119.581 55.685 120.445 55.8132 121.296 55.8132C122.16 55.8132 122.846 55.6494 123.353 55.3217C123.853 54.9941 124.103 54.531 124.096 53.9256C124.082 52.7502 123.167 52.1661 121.353 52.1661H119.238L119.202 48.9251L122.339 45.4276H115.316L115.273 42.101H103.55L103.492 37.2287L110.522 32.2496C111.908 31.2666 112.687 30.3406 112.673 29.1866C112.637 26.1948 108.293 26.0809 108.329 29.0228H103.5C103.4 20.4749 117.473 19.9549 117.616 28.6737C117.677 32.6179 114.711 34.665 111.839 36.6468L111.838 36.6473C111.339 36.9918 110.842 37.3344 110.365 37.6846H118.809L118.802 41.467H128.14L128.175 44.6796Z" fill="white"/>
<path d="M74.2086 48.1632C77.8267 48.1632 80.7597 45.1749 80.7597 41.4887C80.7597 37.8025 77.8267 34.8143 74.2086 34.8143C70.5905 34.8143 67.6574 37.8025 67.6574 41.4887C67.6574 45.1749 70.5905 48.1632 74.2086 48.1632Z" fill="white"/>
<path fill-rule="evenodd" clip-rule="evenodd" d="M63.8433 70.1168V73.8423H60.6571V72.4604H55.8848V73.8423H52.8557V70.1097H53.1629C53.6701 70.1026 54.0202 69.8248 54.2131 69.2834C54.406 68.7421 54.5274 67.9799 54.5703 66.9969L54.6774 64.0692H62.4145V70.1168H63.8433ZM57.0493 69.027C56.9636 69.4829 56.8135 69.8462 56.5849 70.1097H59.4854V66.4057H57.2422L57.2136 67.2106C57.185 67.9656 57.135 68.5711 57.0493 69.027Z" fill="white"/>
<path d="M74.1362 70.8861C74.5435 71.5628 75.115 72.0899 75.8437 72.4674C76.5724 72.845 77.4011 73.0373 78.3298 73.0444C79.28 73.0444 80.0944 72.8379 80.7874 72.4176C81.4732 72.0044 81.9662 71.4275 82.2519 70.6866L79.9801 69.4971C79.5943 70.2664 79.0371 70.651 78.3084 70.651C77.7797 70.651 77.3439 70.4658 77.001 70.1025C76.6581 69.7393 76.4867 69.2335 76.4867 68.5924C76.4867 67.9584 76.6581 67.4598 77.001 67.1037C77.3511 66.7475 77.7797 66.5694 78.3084 66.5694C79.0442 66.5694 79.6015 66.9541 79.9801 67.7234L82.2519 66.5338C81.9662 65.8001 81.4804 65.2231 80.7874 64.8029C80.0944 64.3826 79.28 64.176 78.3298 64.176C77.4011 64.176 76.5724 64.3612 75.8437 64.7388C75.115 65.1163 74.5435 65.6363 74.1362 66.3059C73.729 66.9754 73.529 67.7376 73.529 68.5924C73.529 69.4472 73.729 70.2094 74.1362 70.8861Z" fill="white"/>
<path fill-rule="evenodd" clip-rule="evenodd" d="M91.0757 72.8165H88.4681V70.5371H87.1393L85.6533 72.8165H82.5456L84.396 70.1311C83.8387 69.8818 83.4172 69.547 83.1243 69.1124C82.8314 68.6851 82.6814 68.1722 82.6814 67.5667C82.6814 66.5623 83.0529 65.7859 83.7959 65.2303C84.5389 64.6747 85.5533 64.3969 86.8535 64.3969H91.0757V72.8165ZM85.689 67.6736C85.689 68.0083 85.7891 68.2505 85.9891 68.4001C86.1891 68.5568 86.4963 68.6352 86.9107 68.6352H88.4681V66.7262H86.925C86.1034 66.7333 85.689 67.0467 85.689 67.6736Z" fill="white"/>
<path d="M103.584 72.795H100.526V64.4181H103.491V68.8202H103.648L106.12 64.4181H109.177V72.795H106.198V68.4641H106.041L103.584 72.795Z" fill="white"/>
<path d="M137.72 72.795H140.778L143.235 68.4641H143.392V72.795H146.379V64.4181H143.314L140.842 68.8202H140.685V64.4181H137.72V72.795Z" fill="white"/>
<path d="M110.029 72.7955L109.944 72.7952L109.844 72.795V70.5227C110.966 70.5227 111.223 70.0668 111.38 68.5282L111.809 64.4181H118.896V72.795H115.916V66.8542H114.345L113.916 70.3304C113.616 72.8098 111.414 72.801 110.029 72.7955Z" fill="white"/>
<path fill-rule="evenodd" clip-rule="evenodd" d="M128.453 68.6067C128.453 65.9284 126.681 64.2045 123.981 64.2045C121.273 64.2045 119.366 65.907 119.366 68.5711C119.366 71.2637 121.252 73.0017 123.959 73.0017C126.038 73.0017 127.717 72.0258 128.146 70.4658L125.581 69.9957C125.345 70.53 124.838 70.9075 124.124 70.9075C123.224 70.9075 122.631 70.3376 122.431 69.433H128.425C128.439 69.2763 128.453 68.8489 128.453 68.6067ZM122.409 67.8089C122.566 66.8829 123.109 66.2988 123.917 66.2988C124.774 66.2988 125.388 66.9826 125.453 67.8089H122.409Z" fill="white"/>
<path fill-rule="evenodd" clip-rule="evenodd" d="M151.48 64.2045C154.181 64.2045 155.952 65.9284 155.952 68.6067C155.952 68.8489 155.938 69.2763 155.924 69.433H149.93C150.13 70.3376 150.723 70.9075 151.623 70.9075C152.337 70.9075 152.845 70.53 153.08 69.9957L155.645 70.4658C155.217 72.0258 153.538 73.0017 151.459 73.0017C148.751 73.0017 146.865 71.2637 146.865 68.5711C146.865 65.907 148.773 64.2045 151.48 64.2045ZM151.423 66.2988C150.616 66.2988 150.073 66.8829 149.916 67.8089H152.959C152.895 66.9826 152.28 66.2988 151.423 66.2988Z" fill="white"/>
<path fill-rule="evenodd" clip-rule="evenodd" d="M73.2285 68.6067C73.2285 65.9284 71.4567 64.2045 68.7563 64.2045C66.0487 64.2045 64.1412 65.907 64.1412 68.5711C64.1412 71.2637 66.0272 73.0017 68.7348 73.0017C70.8138 73.0017 72.4926 72.0258 72.9213 70.4658L70.3566 69.9957C70.1208 70.53 69.6136 70.9075 68.8992 70.9075C67.999 70.9075 67.406 70.3376 67.206 69.433H73.1999L73.2028 69.3706L73.2029 69.3691C73.2117 69.1807 73.2285 68.8211 73.2285 68.6067ZM67.1846 67.8089C67.3417 66.8829 67.8847 66.2988 68.692 66.2988C69.5493 66.2988 70.1637 66.9826 70.2279 67.8089H67.1846Z" fill="white"/>
<path d="M134.497 72.795H131.511V66.8542H128.932V64.4181H137.062V66.8542H134.497V72.795Z" fill="white"/>
<path d="M94.3199 72.795H97.299V66.8542H99.8709V64.4181H91.7409V66.8542H94.3199V72.795Z" fill="white"/>
<path d="M58.1766 87.4334H55.1189V79.0565H58.0837V83.4516H58.2409L60.7128 79.0565H63.7776V87.4334H60.7914V83.0954H60.6342L58.1766 87.4334Z" fill="white"/>
<path fill-rule="evenodd" clip-rule="evenodd" d="M69.7062 87.5757H72.6925V81.6349H74.7349C74.5368 82.1471 74.4304 82.7226 74.4304 83.3518C74.4304 86.0443 76.3164 87.7824 79.024 87.7824C81.103 87.7824 82.7818 86.8065 83.2105 85.2465L80.6458 84.7764C80.41 85.3107 79.9028 85.6882 79.1884 85.6882C78.2882 85.6882 77.6952 85.1183 77.4952 84.2137H83.4891C83.5034 84.057 83.5177 83.6367 83.5177 83.3874C83.5177 80.709 81.7459 78.9852 79.0455 78.9852C77.4089 78.9852 76.0646 79.6072 75.2572 80.6876V79.1988H67.1272V81.6349H69.7062V87.5757ZM78.9883 81.0866C78.181 81.0866 77.6381 81.6707 77.4809 82.5967H80.5243C80.46 81.7704 79.8456 81.0866 78.9883 81.0866Z" fill="white"/>
<path d="M82.4229 87.5757H85.8806L87.3237 84.9828H87.4809L88.9383 87.5757H92.396L89.6027 83.2305L92.2674 79.1988H88.9097L87.4809 81.5566H87.3237L85.9092 79.1988H82.5372L85.2019 83.2305L82.4229 87.5757Z" fill="white"/>
<path d="M95.6629 87.5759H92.6981V79.2203H95.6629V82.1551H98.0205V79.2203H101V87.5759H98.0205V84.5913H95.6629V87.5759Z" fill="white"/>
<path fill-rule="evenodd" clip-rule="evenodd" d="M106.107 78.9925C103.271 78.9925 101.478 80.6451 101.478 83.3947C101.478 86.1229 103.285 87.7968 106.107 87.7968C108.915 87.7968 110.722 86.1442 110.722 83.3947C110.722 80.6665 108.915 78.9925 106.107 78.9925ZM106.107 85.2396C105.121 85.2396 104.457 84.4774 104.457 83.3876C104.457 82.2977 105.121 81.5355 106.107 81.5355C107.071 81.5355 107.757 82.2977 107.757 83.3876C107.757 84.4774 107.079 85.2396 106.107 85.2396Z" fill="white"/>
<path d="M110.922 87.5762L110.917 87.5762L110.83 87.5759L110.737 87.5757V85.3034C111.859 85.3034 112.116 84.8475 112.273 83.3089L112.702 79.1988H119.789V87.5757H116.81V81.6349H115.238L114.809 85.1111C114.509 87.5905 112.307 87.5817 110.922 87.5762Z" fill="white"/>
<path fill-rule="evenodd" clip-rule="evenodd" d="M124.897 78.9925C122.06 78.9925 120.267 80.6451 120.267 83.3947C120.267 86.1229 122.075 87.7968 124.897 87.7968C127.704 87.7968 129.512 86.1442 129.512 83.3947C129.504 80.6665 127.697 78.9925 124.897 78.9925ZM124.897 85.2396C123.911 85.2396 123.246 84.4774 123.246 83.3876C123.246 82.2977 123.911 81.5355 124.897 81.5355C125.861 81.5355 126.547 82.2977 126.547 83.3876C126.547 84.4774 125.861 85.2396 124.897 85.2396Z" fill="white"/>
<path d="M132.946 87.5757H129.981V79.1988H136.654V81.6349H132.946V87.5757Z" fill="white"/>
<path d="M137.318 87.5757H140.376L142.833 83.2448H142.991V87.5757H145.97V79.1988H142.912L140.44 83.6009H140.283V79.1988H137.318V87.5757Z" fill="white"/>
<path d="M153.486 75.4664C153.486 76.9124 152.422 77.9524 150.95 77.9524C149.493 77.9524 148.428 76.9124 148.428 75.4664H150.221C150.221 76.1146 150.493 76.5064 150.95 76.5064C151.422 76.5064 151.693 76.1146 151.693 75.4664H153.486Z" fill="white"/>
<path d="M146.628 87.5759H149.686L152.143 83.245H152.3V87.5759H155.287V79.199H152.222L149.75 83.6011H149.593V79.199H146.628V87.5759Z" fill="white"/>
<path fill-rule="evenodd" clip-rule="evenodd" d="M46.1755 87.4334H43.3621L43.3672 87.4405H39.8451L37.7019 84.0784H36.4088V87.4405H33.4511V79.0636H36.4159V82.1337H37.709L39.8308 79.0636H43.1107V79.0565H46.0755V83.4516H46.2398L48.7116 79.0565H51.7693V87.4334H48.7902V83.0954H48.6331L46.1755 87.4334ZM40.2738 83.0882L43.1107 87.0796V79.3367L40.2738 83.0882Z" fill="white"/>
<path d="M7.41797 87.4405H10.3828V84.4559H12.7475V87.4405H15.7266V79.0779H12.7403V82.0126H10.3828V79.0779H7.41797V87.4405Z" fill="white"/>
<path fill-rule="evenodd" clip-rule="evenodd" d="M19.0486 87.6329C20.1131 87.6329 21.0918 87.2268 21.5562 86.4504H21.7134V87.4405H24.6924V81.9343C24.6924 80.0538 23.0922 78.8499 20.6632 78.8499C18.2199 78.8499 16.6553 80.0538 16.6553 81.92H19.5273C19.5273 81.2077 19.9845 80.7803 20.6346 80.7803C21.3133 80.7803 21.7134 81.2006 21.7134 81.8203V82.1907L20.2845 82.3688C17.6055 82.7392 16.3195 83.6011 16.3195 85.2252C16.3267 86.7567 17.434 87.6329 19.0486 87.6329ZM20.2059 85.8022C19.5558 85.8022 19.1772 85.4603 19.1772 84.9403C19.1772 84.4559 19.5273 84.114 20.3988 84L21.7134 83.8077V84.3134C21.7134 85.1682 21.0918 85.8022 20.2059 85.8022Z" fill="white"/>
<path d="M30.3577 87.583L33.3797 79.0636H30.3363L28.9146 83.074L26.9143 79.0636H23.6994L27.6787 86.5786L26.1499 90.9024H29.1933L30.3577 87.583Z" fill="white"/>
<path d="M137.19 41.4599H128.846L128.889 45.4276H132.203L132.375 59.5957H137.411L137.19 41.4599Z" fill="white"/>
<path d="M86.3397 29.0228C86.2326 20.4749 100.314 19.9549 100.457 28.6737C100.523 32.6048 97.5721 34.6463 94.7119 36.6249C94.2034 36.9767 93.6977 37.3265 93.2124 37.6846H101.657V42.101H86.3897L86.3326 37.2287L93.3624 32.2496C94.7484 31.2666 95.5271 30.3406 95.5128 29.1866C95.4771 26.1948 91.1334 26.0809 91.1692 29.0228H86.3397Z" fill="white"/>
</svg>
