<svg width="88" height="81" viewBox="0 0 88 81" fill="none" xmlns="http://www.w3.org/2000/svg">
<path d="M2.99833 72.576C2.90265 72.576 2.71126 72.6408 2.67936 72.6732C2.64747 72.7057 2.58368 72.8354 2.58368 73.1272C2.58368 73.3865 2.58368 74.878 2.55179 76.2721C2.55179 77.3745 2.58368 78.185 2.58368 78.4768C2.58368 79.2225 2.61558 79.4495 3.31734 79.6116C3.57248 79.6765 3.6682 79.7737 3.6682 79.871C3.6682 79.9682 3.4768 80.0331 3.28541 80.0331C2.96644 80.0331 2.29661 79.9682 1.75435 79.9682C1.40349 79.9682 0.829334 80.0331 0.446578 80.0331C0.159502 80.0331 0 79.9682 0 79.8385C0 79.7413 0.159501 79.644 0.287075 79.6116C0.861227 79.4495 1.0207 79.2874 1.05262 78.7038C1.08452 78.2174 1.11641 77.4069 1.11641 76.7909C1.11641 76.4018 1.11641 73.6459 1.08452 73.3217C1.05262 72.9002 0.988801 72.7057 0.318969 72.6084C0.159501 72.576 0.0318937 72.5111 0.0318937 72.4139C0.0318937 72.3166 0.127574 72.2518 0.287075 72.2193C0.350863 72.2193 0.574151 72.2193 0.669832 72.2193C1.43538 72.2193 2.42418 72.1221 2.96644 72.1221C4.11474 72.1221 4.91218 72.349 5.39065 72.8354C5.9648 73.3865 6.09238 74.0674 6.09238 74.4889C6.09238 75.494 5.64583 76.0452 5.29494 76.337C4.97597 76.5963 4.30614 76.8881 3.85956 76.8881C3.73199 76.8881 3.38112 76.8557 3.22162 76.7909C3.06215 76.726 2.96644 76.6612 2.96644 76.5315C2.96644 76.4667 3.06215 76.4018 3.15783 76.4018C3.25351 76.4018 3.28541 76.4018 3.34923 76.4018C3.85956 76.4018 4.59321 75.7858 4.59321 74.5213C4.62511 73.6135 3.98717 72.576 2.99833 72.576Z" fill="white"/>
<path d="M15.3115 76.0131C15.3115 77.6018 14.6417 78.6393 13.7805 79.3526C13.0787 79.9037 12.058 80.2279 11.133 80.2279C9.85709 80.2279 8.7726 79.7416 8.00706 78.9311C7.36912 78.2178 6.98633 77.2451 6.98633 76.1428C6.98633 74.6514 7.6243 73.7111 8.54932 72.9654C9.09157 72.5439 10.1123 72.09 11.1011 72.09C13.7805 72.0576 15.3115 74.0677 15.3115 76.0131ZM9.44244 73.1275C9.02779 73.5166 8.6131 74.4244 8.6131 75.851C8.6131 77.7314 9.72951 79.7741 11.5158 79.7741C12.1856 79.7741 12.6003 79.4174 12.7278 79.2877C13.2382 78.769 13.6529 77.7314 13.6529 76.4021C13.6529 75.4295 13.2701 73.9705 12.4089 73.1599C11.9942 72.8033 11.3563 72.5115 10.814 72.5115C10.2718 72.4791 9.72951 72.8357 9.44244 73.1275Z" fill="white"/>
<path d="M22.4889 72.2516C22.7762 72.3165 23.0631 72.4137 23.3504 72.4461C23.446 72.4461 23.5417 72.6083 23.5417 72.7704C23.5417 73.127 23.5737 73.5485 23.6053 73.9052C23.6053 74.1645 23.5417 74.359 23.414 74.359C23.3504 74.359 23.2547 74.1969 23.1907 74.0348C23.0631 73.6458 22.9038 73.3216 22.6805 73.1594C22.1699 72.7055 21.5641 72.4461 20.8942 72.4461C18.9803 72.4461 18.0872 74.0024 18.0872 75.8505C18.0872 76.661 18.2467 77.3743 18.5019 77.9255C19.1719 79.2548 20.2563 79.7412 21.1811 79.7412C21.3408 79.7412 21.915 79.7087 22.3616 79.4494C22.8082 79.19 23.1271 78.8333 23.414 78.347C23.5737 78.0876 23.6373 77.9579 23.733 77.9579C23.8606 77.9579 23.8606 78.2821 23.8286 78.4118C23.765 78.7036 23.5737 79.2548 23.478 79.4818C23.446 79.579 23.2227 79.7736 23.0314 79.8708C22.8718 79.9357 22.0426 80.2275 20.9262 80.2275C19.1399 80.2275 17.8958 79.4169 17.3855 78.8333C16.9389 78.2821 16.3647 77.4392 16.3647 76.0774C16.3647 74.586 17.1941 73.5485 17.7044 73.127C18.7252 72.284 19.9691 72.0247 20.9579 72.0247C21.4684 72.0571 22.0743 72.1543 22.4889 72.2516Z" fill="white"/>
<path d="M24.9431 72.1868C25.2304 72.1868 25.8046 72.2516 26.1872 72.2516C26.5381 72.2516 27.24 72.1868 27.5269 72.1868C27.7822 72.1868 27.9095 72.2516 27.9095 72.3489C27.9095 72.4461 27.7182 72.511 27.5905 72.5434C27.1123 72.6731 27.0167 72.7379 26.9847 73.2891C26.9527 73.743 26.9847 75.1048 26.9847 75.6884C26.9847 75.7532 27.0167 75.8181 27.0803 75.8181C27.7182 75.7532 28.1328 75.5587 28.5477 74.8454C28.8986 74.2942 29.1216 73.8079 29.4408 73.354C29.9191 72.5434 30.4933 72.0247 31.1632 72.0247C31.5777 72.0247 31.801 72.1868 31.801 72.5434C31.801 72.6407 31.7054 72.8676 31.6417 72.9325C31.5461 73.0298 31.4501 73.0622 31.2908 73.0298C31.1632 72.9973 31.0035 72.9649 30.8762 72.9649C30.1744 72.9649 29.8554 73.4836 29.5045 74.0024C29.1536 74.5536 28.8986 74.9751 28.707 75.2345C28.707 75.2669 28.707 75.2993 28.707 75.3317C28.9943 75.8829 30.0467 77.6013 30.5889 78.3146C31.3865 79.3845 31.7054 79.4494 32.3433 79.6114C32.4073 79.6439 32.5349 79.6763 32.5349 79.7412C32.5349 79.8384 32.4709 79.9357 32.2796 79.9681C32.12 80.0329 31.833 80.0329 31.5461 80.0329C30.4933 80.0329 29.9831 79.8708 29.5045 79.2224C29.0579 78.6712 28.5477 77.8607 28.0055 76.9852C27.6225 76.3368 27.4629 76.1423 27.0803 76.1099C27.0167 76.1099 27.0167 76.2071 26.9847 76.272C26.9847 77.277 27.0167 78.5415 27.0483 78.9954C27.0483 79.2548 27.1123 79.4169 27.6545 79.5466C27.8778 79.6114 28.0055 79.7087 28.0055 79.806C28.0055 79.9032 27.8138 80.0005 27.6225 80.0005C27.3673 80.0005 26.5381 79.9681 26.1552 79.9681C25.7726 79.9681 25.1664 80.0329 24.7838 80.0329C24.5925 80.0329 24.4648 79.9357 24.4648 79.8384C24.4648 79.7412 24.5605 79.6763 24.8154 79.6114C25.3897 79.4818 25.5173 79.3196 25.5493 78.5739C25.5813 77.9579 25.5813 77.1149 25.5813 75.8181C25.5813 74.3915 25.5493 73.9376 25.5493 73.4836C25.5493 72.9001 25.4216 72.7379 25.0071 72.6407C24.6881 72.5434 24.6241 72.4786 24.6241 72.3813C24.5925 72.2516 24.7838 72.1868 24.9431 72.1868Z" fill="white"/>
<path d="M40.6701 76.0131C40.6701 77.6018 40.0002 78.6393 39.139 79.3526C38.4692 79.9037 37.4164 80.2279 36.4916 80.2279C35.2155 80.2279 34.131 79.7416 33.3655 78.9311C32.7277 78.2178 32.3447 77.2451 32.3447 76.1428C32.3447 74.6514 32.9826 73.7111 33.9077 72.9654C34.45 72.5439 35.4708 72.09 36.4596 72.09C39.139 72.0576 40.6701 74.0677 40.6701 76.0131ZM34.8329 73.1275C34.418 73.5166 34.0034 74.4244 34.0034 75.851C34.0034 77.7314 35.1198 79.7741 36.9061 79.7741C37.576 79.7741 37.9906 79.4174 38.1182 79.2877C38.6285 78.769 39.043 77.7314 39.043 76.4021C39.043 75.4295 38.6605 73.9705 37.7993 73.1599C37.3847 72.8033 36.7465 72.5115 36.2043 72.5115C35.6621 72.4791 35.1198 72.8357 34.8329 73.1275Z" fill="white"/>
<path d="M43.9206 75.7529C44.7501 75.7529 46.3131 75.6881 47.5889 75.6881C47.6525 75.6881 47.6845 75.5584 47.6845 75.3963C47.7165 75.2342 47.7165 73.8076 47.6525 73.3213C47.5889 72.8673 47.5569 72.7701 47.0787 72.608C46.919 72.5755 46.7277 72.4783 46.7277 72.3486C46.7277 72.2513 46.8554 72.1865 47.1103 72.1865C47.2699 72.1865 48.1631 72.2189 48.482 72.2189C48.8646 72.2189 49.6305 72.1541 49.7578 72.1541C49.9811 72.1541 50.1407 72.2189 50.1407 72.3162C50.1407 72.4459 50.0451 72.5107 49.7578 72.5755C49.3112 72.6728 49.2476 72.8673 49.2156 73.224C49.1519 73.8076 49.1199 74.91 49.1199 76.6283C49.1199 77.8279 49.1519 78.4764 49.1839 78.8654C49.1839 79.3518 49.3112 79.3842 49.7898 79.5463C50.0131 79.6112 50.1407 79.7084 50.1407 79.8057C50.1407 79.9354 49.9811 79.9678 49.7578 79.9678C49.5665 79.9678 48.8966 79.9354 48.5457 79.9354C48.2907 79.9354 47.3336 80.0002 47.0787 80.0002C46.7914 80.0002 46.6637 79.9354 46.6637 79.8381C46.6637 79.7409 46.8234 79.6436 46.983 79.5787C47.5569 79.4166 47.5889 79.3194 47.6525 78.4115C47.6845 77.9252 47.7165 76.758 47.6845 76.4338C47.6845 76.3365 47.6209 76.2717 47.5889 76.2717C46.6321 76.2717 44.1759 76.2392 43.9206 76.2717C43.857 76.2717 43.7613 76.3689 43.7613 76.4662C43.7293 76.9201 43.7613 78.217 43.7613 78.6061C43.7613 79.1897 43.857 79.3518 44.3355 79.5139C44.5905 79.5787 44.7501 79.676 44.7501 79.8057C44.7501 79.9354 44.5268 79.9678 44.3672 79.9678C44.2715 79.9678 43.2827 79.9354 42.8682 79.9354C42.5809 79.9354 41.975 80.0002 41.5604 80.0002C41.2415 80.0002 41.1455 79.9354 41.1455 79.8381C41.1455 79.7084 41.2731 79.6436 41.4964 79.5787C42.0387 79.4166 42.1343 79.2869 42.1983 78.7682C42.2619 78.2818 42.2939 76.4662 42.2939 74.7802C42.2939 74.4236 42.3259 73.7427 42.2939 73.2564C42.2619 72.8673 42.1663 72.7052 41.7517 72.608C41.4964 72.5755 41.3688 72.4783 41.3688 72.381C41.3688 72.2513 41.5284 72.2189 41.7517 72.2189C42.0707 72.2189 42.7405 72.2837 43.0595 72.2837C43.5697 72.2837 44.1122 72.2513 44.3992 72.2513C44.6545 72.2513 44.7818 72.3162 44.7818 72.4134C44.7818 72.5431 44.6225 72.608 44.3672 72.6728C43.857 72.7701 43.825 73.0294 43.825 73.5158C43.793 73.9697 43.7613 75.3638 43.793 75.6232C43.793 75.6881 43.825 75.7529 43.9206 75.7529Z" fill="white"/>
<path d="M56.7443 72.187C56.8399 72.187 56.9039 72.2519 56.9039 72.3167C56.8719 72.6733 56.9039 73.4515 56.9039 73.873C56.9039 74.0351 56.8399 74.262 56.7443 74.262C56.6487 74.262 56.521 74.1972 56.4574 73.9054C56.2977 73.3542 56.0744 72.803 55.6279 72.7706C55.2453 72.7058 54.3521 72.7382 54.0968 72.7382C53.8419 72.7382 53.8099 72.803 53.8099 72.9327C53.7459 73.5812 53.7459 74.6835 53.7459 75.4941C53.7459 76.3371 53.7459 77.9906 53.7459 78.866C53.7459 79.3847 53.9375 79.5144 54.5114 79.6441C54.703 79.7089 54.8307 79.8062 54.8307 79.9035C54.8307 80.0008 54.6711 80.098 54.4798 80.098C54.1925 80.098 53.459 80.0332 52.9804 80.0332C52.5338 80.0332 51.7683 80.098 51.545 80.098C51.3537 80.098 51.2261 80.0008 51.2261 79.9359C51.2261 79.8062 51.3857 79.709 51.577 79.6765C52.0872 79.5469 52.1512 79.3523 52.1512 79.0605C52.1832 78.6715 52.2789 77.9582 52.2789 75.5589C52.2789 74.4242 52.2789 73.6784 52.2469 73.3542C52.2149 72.9651 52.1512 72.803 51.6727 72.7058C51.4174 72.6409 51.3217 72.5437 51.3217 72.4464C51.3217 72.3491 51.4814 72.2843 51.6727 72.2843C52.2149 72.2843 52.6615 72.3167 53.14 72.3167C53.6186 72.3167 54.1925 72.3167 54.703 72.3167C56.2977 72.2843 56.585 72.2194 56.7443 72.187Z" fill="white"/>
<path d="M60.8617 72.576C60.766 72.576 60.5744 72.6408 60.5427 72.6732C60.5107 72.7057 60.4471 72.8354 60.4471 73.1272C60.4471 73.3865 60.4468 74.878 60.4151 76.2721C60.4151 77.3745 60.4471 78.185 60.4471 78.4768C60.4471 79.2225 60.5108 79.4495 61.1806 79.6116C61.4359 79.6765 61.5315 79.7737 61.5315 79.871C61.5315 79.9682 61.3399 80.0331 61.1486 80.0331C60.8297 80.0331 60.1598 79.9682 59.6176 79.9682C59.2667 79.9682 58.6924 80.0331 58.3099 80.0331C58.0226 80.0331 57.8633 79.9682 57.8633 79.8385C57.8633 79.7413 58.0226 79.644 58.1502 79.6116C58.7244 79.4495 58.8841 79.2874 58.9157 78.7038C58.9477 78.2174 58.9797 77.4069 58.9797 76.7909C58.9797 76.4018 58.9797 73.6459 58.9477 73.3217C58.9157 72.9002 58.8521 72.7057 58.1822 72.6084C58.0226 72.576 57.8953 72.5111 57.8953 72.4139C57.8953 72.3166 57.9909 72.2518 58.1502 72.2193C58.2142 72.2193 58.4375 72.2193 58.5331 72.2193C59.2987 72.2193 60.2875 72.1221 60.8297 72.1221C61.9781 72.1221 62.7753 72.349 63.2539 72.8354C63.8281 73.3865 63.9557 74.0674 63.9557 74.4889C63.9557 75.494 63.5092 76.0452 63.1582 76.337C62.8393 76.5963 62.1694 76.8881 61.7228 76.8881C61.5952 76.8881 61.2443 76.8557 61.085 76.7909C60.9253 76.726 60.8297 76.6612 60.8297 76.5315C60.8297 76.4667 60.9253 76.4018 61.021 76.4018C61.1166 76.4018 61.1486 76.4018 61.2126 76.4018C61.7228 76.4018 62.4564 75.7858 62.4564 74.5213C62.4884 73.6135 61.8505 72.576 60.8617 72.576Z" fill="white"/>
<path d="M69.1852 72.2836C69.5678 72.2836 70.0784 72.2188 70.2377 72.2188C70.3017 72.2188 70.3653 72.2836 70.3973 72.3809C70.3973 72.6078 70.3973 73.4508 70.3973 73.6777C70.3973 73.8399 70.3017 74.0344 70.2057 74.0344C70.11 74.0344 70.0144 73.8399 69.9827 73.7426C69.8231 73.0617 69.5041 72.8672 69.2169 72.8348C68.9936 72.8023 68.4834 72.7375 67.5582 72.7699C67.4945 72.7699 67.3989 72.8348 67.3989 73.1266C67.3669 73.4184 67.3349 75.1368 67.3349 75.8176C67.3349 75.8501 67.3989 75.9473 67.4626 75.9473H68.4197C69.2809 75.9473 69.2489 75.8825 69.4722 75.3637C69.5361 75.1692 69.6318 75.0395 69.7274 75.0395C69.8231 75.0395 69.8551 75.234 69.8551 75.3961C69.8231 75.7528 69.7911 75.9473 69.7911 76.2391C69.7911 76.5633 69.8231 76.7579 69.8551 77.0821C69.8551 77.309 69.7911 77.4387 69.6954 77.4387C69.5998 77.4387 69.5041 77.2766 69.4722 77.1793C69.3129 76.6282 69.1532 76.5633 68.6746 76.5309C68.2921 76.4985 67.8455 76.4985 67.4626 76.4985C67.3989 76.4985 67.3033 76.6282 67.3033 76.6606C67.2393 77.0172 67.2713 77.9575 67.2713 78.3465C67.2713 78.6383 67.2713 79.0923 67.3349 79.3516C67.3669 79.4489 67.4946 79.611 67.5902 79.6434C67.7815 79.6759 68.1644 79.7083 68.579 79.7083C68.9299 79.7083 69.3765 79.7083 69.6954 79.611C70.0464 79.4813 70.3973 79.1895 70.6523 78.7032C70.8119 78.379 70.9395 78.2817 71.0352 78.2817C71.1628 78.2817 71.1308 78.5411 71.1308 78.6383C71.1308 78.7356 70.7799 79.8704 70.6842 80.0649C70.6522 80.1622 70.461 80.227 70.3973 80.227C70.2697 80.227 67.3033 80.1622 66.3781 80.1622C65.5806 80.1622 65.4533 80.227 65.0067 80.227C64.7834 80.227 64.5918 80.1946 64.5918 80.0649C64.5918 79.9677 64.7514 79.8704 64.9427 79.8055C65.5489 79.6434 65.7082 79.5462 65.7722 78.8653C65.8039 78.3465 65.8679 77.4063 65.8679 75.9149C65.8679 74.4559 65.8679 73.9047 65.8679 73.5481C65.8359 73.0941 65.7402 72.8672 65.23 72.7699C64.9747 72.7375 64.8471 72.6727 64.8471 72.543C64.8471 72.4457 65.0384 72.3484 65.23 72.3484C65.8039 72.3484 66.7927 72.3809 67.3989 72.3809H69.1852V72.2836Z" fill="white"/>
<path d="M77.8282 72.2516C78.1155 72.3165 78.4024 72.4137 78.6897 72.4461C78.7853 72.4461 78.881 72.6083 78.881 72.7704C78.881 73.127 78.9127 73.5485 78.9446 73.9052C78.9446 74.1645 78.881 74.359 78.7534 74.359C78.6897 74.359 78.5937 74.1969 78.5301 74.0348C78.4024 73.6458 78.2431 73.3216 78.0198 73.1594C77.5093 72.7055 76.9034 72.4461 76.2335 72.4461C74.3196 72.4461 73.4264 74.0024 73.4264 75.8505C73.4264 76.661 73.5861 77.3743 73.841 77.9255C74.5109 79.2548 75.5957 79.7412 76.5205 79.7412C76.6801 79.7412 77.2543 79.7087 77.7006 79.4494C78.1471 79.19 78.4664 78.8333 78.7534 78.347C78.913 78.0876 78.9766 77.9579 79.0723 77.9579C79.1999 77.9579 79.1999 78.2821 79.1679 78.4118C79.1043 78.7036 78.9127 79.2548 78.817 79.4818C78.7854 79.579 78.5621 79.7736 78.3704 79.8708C78.2111 79.9357 77.3816 80.2275 76.2652 80.2275C74.4792 80.2275 73.2351 79.4169 72.7249 78.8333C72.2783 78.2821 71.7041 77.4392 71.7041 76.0774C71.7041 74.586 72.5333 73.5485 73.0118 73.127C74.0326 72.284 75.2764 72.0247 76.2652 72.0247C76.8077 72.0571 77.3816 72.1543 77.8282 72.2516Z" fill="white"/>
<path d="M86.028 72.2519C86.3149 72.3168 86.6022 72.414 86.8891 72.4464C86.9848 72.4464 87.0804 72.6086 87.0804 72.7707C87.0804 73.1273 87.1124 73.5488 87.1444 73.9055C87.1444 74.1648 87.0804 74.3593 86.9528 74.3593C86.8892 74.3593 86.7935 74.1973 86.7299 74.0351C86.6022 73.6461 86.4426 73.3218 86.2193 73.1597C85.7091 72.7058 85.1028 72.4464 84.433 72.4464C82.5194 72.4464 81.6262 74.0027 81.6262 75.8508C81.6262 76.6613 81.7855 77.3746 82.0408 77.9258C82.7107 79.2551 83.7951 79.7414 84.7519 79.7414C84.9115 79.7414 85.4858 79.709 85.9323 79.4496C86.3789 79.1902 86.6979 78.8336 86.9848 78.3473C87.1444 78.0879 87.2081 77.9582 87.3037 77.9582C87.4314 77.9582 87.4314 78.2824 87.3994 78.4121C87.3357 78.7039 87.1444 79.2551 87.0488 79.482C87.0168 79.5793 86.7935 79.7738 86.6022 79.8711C86.4426 79.936 85.6134 80.2278 84.497 80.2278C82.7107 80.2278 81.4666 79.4172 80.9563 78.8336C80.5098 78.2824 79.9355 77.4395 79.9355 76.0777C79.9355 74.5863 80.765 73.5488 81.2433 73.1273C82.2321 72.3168 83.4762 72.0574 84.465 72.0574C85.0072 72.0574 85.5814 72.1546 86.028 72.2519Z" fill="white"/>
<path d="M12.4243 27.1513C12.4243 19.6213 18.6669 13.4469 26.2799 13.4469C33.8929 13.4469 40.1355 19.6213 40.1355 27.1513C40.1355 28.0549 39.9832 28.8079 39.831 29.7115C37.547 28.8079 35.111 28.2056 32.6748 28.2056C25.9754 28.2056 20.0373 31.8199 16.6876 37.0908C14.0992 34.5305 12.4243 31.0669 12.4243 27.1513ZM35.5677 46.729C35.5677 42.3617 37.0903 38.2955 39.831 35.1331C37.6993 33.9282 35.2633 33.1751 32.6748 33.1751C25.0618 33.1751 18.8192 39.3498 18.8192 46.8796C18.8192 54.4095 25.0618 60.5841 32.6748 60.5841C35.2633 60.5841 37.8515 59.8311 39.831 58.6262C37.2426 55.1625 35.5677 51.0963 35.5677 46.729ZM60.6905 45.5242C53.991 45.5242 48.053 41.9099 44.8556 36.639C42.1149 39.1991 40.4399 42.6629 40.4399 46.5784C40.4399 54.1083 46.6826 60.2828 54.2955 60.2828C61.9086 60.2828 68.1513 54.1083 68.1513 46.5784C68.1513 45.6749 67.9989 44.9219 67.8466 44.0183C65.5628 45.0724 63.1266 45.5242 60.6905 45.5242ZM62.0608 13.5975C62.0608 13.8987 62.0608 14.3505 62.0608 14.6517C62.0608 23.2358 55.9705 30.4645 47.9007 32.5728C50.0323 37.5425 54.9046 41.0063 60.6905 41.0063C68.3035 41.0063 74.546 34.8317 74.546 27.3019C74.3938 20.0732 68.9125 14.1999 62.0608 13.5975ZM43.4853 0.947266C37.6993 0.947266 32.8271 4.41101 30.6954 9.38075C38.7651 11.3385 44.8556 18.5673 44.8556 27.3019C44.8556 27.603 44.8556 28.0549 44.8556 28.3561C51.8595 27.603 57.3408 21.8804 57.3408 14.8023C57.1886 7.12178 51.0981 0.947266 43.4853 0.947266Z" fill="white"/>
</svg>
