<svg width="75" height="79" viewBox="0 0 75 79" fill="none" xmlns="http://www.w3.org/2000/svg">
<path d="M15.5324 67.9823H14.9889V65.5406H12.6796V67.9823H12.1362V62.6243H12.6796V65.0207H14.9889V62.6243H15.5324V67.9823Z" fill="white"/>
<path d="M20.1959 67.9803C20.1505 67.7994 20.1052 67.5507 20.1052 67.2342C19.9467 67.5054 19.743 67.7089 19.4713 67.8446C19.1996 67.9803 18.9279 68.0707 18.6336 68.0707C18.1809 68.0707 17.8186 67.935 17.5694 67.6863C17.3204 67.4151 17.1846 67.0533 17.1846 66.5786C17.1846 66.0586 17.3656 65.6291 17.7053 65.3352C18.0676 65.0187 18.543 64.883 19.177 64.8604H20.0826V64.1143C20.0826 63.73 19.9921 63.4587 19.811 63.3005C19.6297 63.1423 19.3581 63.0518 18.9959 63.0518C18.6563 63.0518 18.3846 63.1423 18.1809 63.3457C17.9771 63.5492 17.8639 63.7979 17.8639 64.1143H17.3204C17.3204 63.6848 17.4789 63.3005 17.8186 63.0066C18.1355 62.7127 18.543 62.5544 19.0411 62.5544C19.5619 62.5544 19.9694 62.6901 20.2411 62.9614C20.5129 63.2326 20.6486 63.617 20.6486 64.137V66.7595C20.6486 67.2794 20.6939 67.6863 20.7845 67.935V68.0028H20.1959V67.9803ZM18.7015 67.5507C19.0185 67.5507 19.3128 67.4603 19.5392 67.3021C19.7883 67.1438 19.9694 66.9177 20.0826 66.6238V65.3126H19.2449C18.7468 65.3126 18.3845 65.4256 18.1355 65.6517C17.8864 65.8777 17.7506 66.1491 17.7506 66.5334C17.7506 67.2115 18.0676 67.5507 18.7015 67.5507Z" fill="white"/>
<path d="M22.5273 62.6243H23.0707V67.4623H25.3801V62.6243H25.9234V67.4623H26.3763L26.3309 69.5648H25.8328V67.9823H22.5273V62.6243Z" fill="white"/>
<path d="M30.7924 62.6243H31.3357V67.9823H30.7924V63.5964L28.4604 67.9823H27.917V62.6243H28.4604V67.0101L30.7924 62.6243Z" fill="white"/>
<path d="M33.0086 65.0177C33.0086 64.2491 33.1896 63.6387 33.5293 63.1866C33.8689 62.7343 34.3444 62.5083 34.933 62.5083C35.5216 62.5083 35.9971 62.7343 36.3367 63.1639C36.6763 63.6161 36.8574 64.2038 36.8574 64.9952V65.5603C36.8574 66.3516 36.6763 66.962 36.3367 67.3915C35.9971 67.821 35.5216 68.0471 34.933 68.0471C34.3444 68.0471 33.8689 67.8437 33.5293 67.4141C33.1896 66.9846 33.0086 66.3968 32.9858 65.6508V65.0177H33.0086ZM33.5519 65.583C33.5519 66.1933 33.6651 66.6907 33.9142 67.0298C34.1633 67.3915 34.5028 67.5498 34.933 67.5498C35.3859 67.5498 35.7254 67.3689 35.9518 67.0298C36.1783 66.6907 36.3141 66.1933 36.3141 65.5603V64.9952C36.3141 64.3847 36.2009 63.8873 35.9518 63.5482C35.7028 63.1866 35.3632 63.0057 34.933 63.0057C34.5028 63.0057 34.1859 63.1866 33.9368 63.5257C33.6877 63.8648 33.5746 64.3396 33.5519 64.9499V65.583Z" fill="white"/>
<path d="M41.9542 67.9823H41.4108V65.5406H39.1015V67.9823H38.5581V62.6243H39.1015V65.0207H41.4108V62.6243H41.9542V67.9823Z" fill="white"/>
<path d="M46.6176 67.9803C46.5723 67.7994 46.527 67.5507 46.527 67.2342C46.3686 67.5054 46.1648 67.7089 45.8932 67.8446C45.6441 67.9803 45.3498 68.0707 45.0554 68.0707C44.6026 68.0707 44.2404 67.935 43.9913 67.6863C43.7423 67.4151 43.6064 67.0533 43.6064 66.5786C43.6064 66.0586 43.7875 65.6291 44.1272 65.3352C44.4894 65.0187 44.9649 64.883 45.5988 64.8604H46.5045V64.1143C46.5045 63.73 46.4139 63.4587 46.2327 63.3005C46.0516 63.1423 45.7799 63.0518 45.4176 63.0518C45.0781 63.0518 44.8064 63.1423 44.6026 63.3457C44.3989 63.5492 44.2856 63.7979 44.2856 64.1143H43.7423C43.7423 63.6848 43.9007 63.3005 44.2404 63.0066C44.5573 62.7127 44.9649 62.5544 45.4629 62.5544C45.9837 62.5544 46.3913 62.6901 46.663 62.9614C46.9346 63.2326 47.0705 63.617 47.0705 64.137V66.7595C47.0705 67.2794 47.1157 67.6863 47.2063 67.935V68.0028H46.6176V67.9803ZM45.1234 67.5507C45.4403 67.5507 45.7346 67.4603 45.9611 67.3021C46.21 67.1438 46.3913 66.9177 46.5045 66.6238V65.3126H45.6441C45.146 65.3126 44.7837 65.4256 44.5347 65.6517C44.2856 65.8777 44.1498 66.1491 44.1498 66.5334C44.1498 67.2115 44.4894 67.5507 45.1234 67.5507Z" fill="white"/>
<path d="M52.3669 62.6243V67.9823H51.8235V63.1443H50.0575L49.9896 65.1337C49.9444 66.1737 49.8312 66.9197 49.65 67.3266C49.4689 67.7336 49.152 67.9597 48.7218 67.9823H48.4727V67.4397H48.6312C48.9028 67.4171 49.1066 67.2588 49.2198 66.9424C49.333 66.6258 49.4236 66.0607 49.4463 65.2467L49.5368 62.6243H52.3669Z" fill="white"/>
<path d="M54.8349 64.5686H56.0575C56.5556 64.5686 56.9631 64.7268 57.2575 65.0207C57.5517 65.3146 57.7102 65.7441 57.7102 66.2641C57.7102 66.7841 57.5517 67.191 57.2575 67.5075C56.9631 67.824 56.5556 67.9823 56.0575 67.9823H54.2915V62.6243H54.8349V64.5686ZM54.8349 65.0885V67.485H56.0801C56.4197 67.485 56.6914 67.3719 56.8726 67.1684C57.0537 66.9649 57.1669 66.671 57.1669 66.3093C57.1669 65.9476 57.0763 65.6537 56.8726 65.4503C56.6688 65.2242 56.4197 65.1337 56.0801 65.1337H54.8349V65.0885Z" fill="white"/>
<path d="M62.7604 67.9823H62.217V65.5406H59.9076V67.9823H59.3643V62.6243H59.9076V65.0207H62.217V62.6243H62.7604V67.9823Z" fill="white"/>
<path d="M65.2498 64.5686H66.4724C66.9705 64.5686 67.378 64.7268 67.6724 65.0207C67.9668 65.3146 68.1252 65.7441 68.1252 66.2641C68.1252 66.7841 67.9668 67.191 67.6724 67.5075C67.378 67.824 66.9705 67.9823 66.4724 67.9823H64.7065V62.6243H65.2498V64.5686ZM65.2498 65.0885V67.485H66.4951C66.8347 67.485 67.1064 67.3719 67.2875 67.1684C67.4687 66.9649 67.5818 66.671 67.5818 66.3093C67.5818 65.9476 67.4913 65.6537 67.2875 65.4503C67.0838 65.2242 66.8347 65.1337 66.4951 65.1337H65.2498V65.0885ZM69.6195 67.9823H69.0762V62.6243H69.6195V67.9823Z" fill="white"/>
<path d="M73.3127 68.0698C72.7014 68.0698 72.2033 67.8662 71.8637 67.4594C71.5014 67.0524 71.343 66.4647 71.3203 65.696V65.0403C71.3203 64.2491 71.4788 63.6387 71.8184 63.1866C72.158 62.7343 72.6108 62.5083 73.222 62.5083C73.7881 62.5083 74.2409 62.6892 74.5353 63.0735C74.8297 63.4578 74.9881 64.0231 74.9881 64.8143V65.3343H71.8637V65.6282C71.8637 66.2386 71.9994 66.7133 72.2486 67.0524C72.4977 67.3915 72.8825 67.5498 73.3353 67.5498C73.856 67.5498 74.2862 67.3463 74.6032 66.962L74.8749 67.3236C74.5353 67.8437 74.0146 68.0698 73.3127 68.0698ZM73.222 63.0283C72.7919 63.0283 72.475 63.1866 72.2486 63.4804C72.0221 63.797 71.8863 64.2264 71.8637 64.8143H74.4447V64.6787C74.4221 63.5934 74.0145 63.0283 73.222 63.0283Z" fill="white"/>
<path d="M16.9143 78.5602H15.488V72.5692H13.3824V78.5602H11.9561V71.3484H16.937V78.5602H16.9143Z" fill="white"/>
<path d="M20.0817 76.0281V78.5602H18.6553V71.3484H21.0551C21.757 71.3484 22.323 71.5745 22.7306 72.004C23.1381 72.4562 23.3646 73.0214 23.3646 73.7222C23.3646 74.423 23.1608 74.9882 22.7532 75.3952C22.3457 75.8021 21.7797 76.0056 21.0326 76.0056H20.0817V76.0281ZM20.0817 74.83H21.0551C21.3269 74.83 21.5306 74.7396 21.6891 74.5587C21.8476 74.3778 21.9155 74.1065 21.9155 73.7673C21.9155 73.4057 21.8476 73.1118 21.6891 72.9084C21.5306 72.7048 21.3269 72.5918 21.0778 72.5918H20.0817V74.83Z" fill="white"/>
<path d="M28.3684 71.3723H29.7948V78.5842H28.3684V73.814L26.2854 78.5842H24.8364V71.3723H26.2854V76.1426L28.3684 71.3723Z" fill="white"/>
<path d="M36.4955 75.6235C36.4955 76.5956 36.2691 77.3417 35.8162 77.8842C35.3635 78.4268 34.7521 78.6756 33.9371 78.6756C33.1447 78.6756 32.5107 78.4043 32.0578 77.8842C31.6051 77.3643 31.3786 76.6183 31.356 75.6688V74.4253C31.356 73.4306 31.5824 72.6619 32.0352 72.0967C32.488 71.5316 33.122 71.2603 33.9144 71.2603C34.7068 71.2603 35.3181 71.5316 35.771 72.0742C36.2237 72.6168 36.4501 73.3854 36.4728 74.3801V75.6235H36.4955ZM35.0691 74.4028C35.0691 73.7471 34.9786 73.2724 34.7974 72.9559C34.6163 72.6393 34.3219 72.4811 33.9597 72.4811C33.5748 72.4811 33.3031 72.6393 33.122 72.9332C32.9408 73.2498 32.8502 73.7019 32.8502 74.3349V75.6235C32.8502 76.2565 32.9408 76.7087 33.122 77.0252C33.3031 77.3191 33.5974 77.4773 33.9823 77.4773C34.3446 77.4773 34.6389 77.3417 34.82 77.0478C35.0012 76.7538 35.0917 76.3018 35.0917 75.6914V74.4028H35.0691Z" fill="white"/>
<path d="M39.5313 76.0281V78.5602H38.105V71.3484H40.5275C41.2294 71.3484 41.7954 71.5745 42.2029 72.004C42.6105 72.4562 42.8368 73.0214 42.8368 73.7222C42.8368 74.423 42.6331 74.9882 42.2256 75.3952C41.8181 75.8021 41.252 76.0056 40.5049 76.0056H39.5313V76.0281ZM39.5313 74.83H40.5049C40.7765 74.83 40.9803 74.7396 41.1388 74.5587C41.2973 74.3778 41.3652 74.1065 41.3652 73.7673C41.3652 73.4057 41.2973 73.1118 41.1388 72.9084C40.9803 72.7048 40.7765 72.5918 40.5275 72.5918H39.5313V74.83Z" fill="white"/>
<path d="M47.8156 71.3723H49.242V78.5842H47.8156V73.814L45.7327 78.5842H44.2837V71.3723H45.7327V76.1426L47.8156 71.3723Z" fill="white"/>
<path d="M55.4264 72.5692H53.6604V78.5602H52.2115V72.5692H50.4907V71.3484H55.4037V72.5692H55.4264Z" fill="white"/>
<path d="M60.4728 75.4403H58.2314V77.362H60.9029V78.5602H56.8276V71.3484H60.9029V72.5692H58.2766V74.2647H60.5181V75.4403H60.4728Z" fill="white"/>
<path d="M66.9709 72.5692H65.2049V78.5602H63.7558V72.5692H62.0352V71.3484H66.9482V72.5692H66.9709Z" fill="white"/>
<path d="M69.8245 73.9499H70.6622C71.3867 73.9499 71.9527 74.1534 72.3829 74.5603C72.813 74.9672 73.0168 75.5325 73.0168 76.2107C73.0168 76.9115 72.813 77.454 72.3829 77.8836C71.9754 78.3132 71.4093 78.5392 70.7301 78.5392H68.3755V71.3274H69.8245V73.9499ZM69.8245 75.1481V77.341H70.6848C70.9566 77.341 71.1829 77.2279 71.3415 77.0246C71.4999 76.8211 71.5904 76.5272 71.5904 76.2107C71.5904 75.8942 71.5225 75.6455 71.3641 75.442C71.2055 75.2386 70.9792 75.1481 70.7075 75.1481H69.8245ZM74.8282 78.5618H73.4018V71.35H74.8282V78.5618Z" fill="white"/>
<path d="M50.5166 27.0208H40.2554V28.6101H50.5166V27.0208Z" fill="white"/>
<path d="M74.1981 27.0208H63.1475V28.6101H74.1981V27.0208Z" fill="white"/>
<path d="M4.68664 67.9813H0L6.63374 56.7002H11.3204L4.68664 67.9813Z" fill="white"/>
<path d="M35.0944 55.9393H23.2534L39.9848 27.906H51.826L35.0944 55.9393Z" fill="white"/>
<path d="M58.1189 55.9393H46.2778L62.9867 27.906H74.8278L58.1189 55.9393Z" fill="white"/>
<path d="M58.1189 0H46.2778L62.9867 28.0333H74.8278L58.1189 0Z" fill="white"/>
<path d="M29.8864 27.2866L40.618 9.31372H28.7769L23.9771 17.362L29.8864 27.2866Z" fill="white"/>
<path d="M18.0442 27.2871L12.0444 37.3475H23.8855L23.9761 37.2119L18.0442 27.2871Z" fill="white"/>
<path d="M40.6188 9.26899L35.0945 0H23.2534L34.7096 19.1711L40.6188 9.26899Z" fill="white"/>
<path d="M46.6863 19.4194H46.3921H34.8452L39.9846 28.033H51.8258L46.6863 19.4194Z" fill="white"/>
</svg>
