<svg width="84" height="85" viewBox="0 0 84 85" fill="none" xmlns="http://www.w3.org/2000/svg">
<path d="M1.49545 72.6423H0V65.5173H1.4701L3.54852 68.4526L5.65228 65.5173H7.09703V72.6423H5.65228V67.7501L3.97941 70.0582H3.16832L1.49545 67.7501V72.6423Z" fill="white"/>
<path d="M10.014 72.6423H8.77197V65.5173H10.2421V70.1586L13.7399 65.5173H15.0072V72.6423H13.5371V67.9759L10.014 72.6423Z" fill="white"/>
<path d="M18.1513 72.6423H16.6812V65.5173H18.1513V68.1766H21.421V65.5173H22.8911V72.6423H21.421V69.5063H18.1513V72.6423Z" fill="white"/>
<path d="M24.207 69.0807C24.207 68.027 24.5619 67.1489 25.2716 66.4464C25.9813 65.7189 26.8684 65.3677 27.933 65.3677C28.9975 65.3677 29.8847 65.7189 30.5944 66.4464C31.3041 67.174 31.6589 68.0521 31.6589 69.0807C31.6589 70.1093 31.3041 70.9873 30.5944 71.7149C29.8847 72.4424 28.9975 72.7936 27.933 72.7936C26.8684 72.7936 25.9813 72.4424 25.2716 71.7149C24.5619 70.9873 24.207 70.1093 24.207 69.0807ZM26.3615 70.7365C26.7924 71.188 27.3247 71.3887 27.9583 71.3887C28.592 71.3887 29.1243 71.1629 29.5298 70.7365C29.9607 70.31 30.1635 69.7329 30.1635 69.0807C30.1635 68.4033 29.9607 67.8514 29.5298 67.3998C29.0989 66.9733 28.5666 66.7475 27.9583 66.7475C27.3247 66.7475 26.7924 66.9733 26.3615 67.3998C25.9306 67.8263 25.7278 68.3782 25.7278 69.0807C25.7278 69.758 25.9306 70.31 26.3615 70.7365Z" fill="white"/>
<path d="M36.0966 72.6423H32.979V65.5173H38.2004V66.8219H34.4491V67.9508H36.0713C36.9077 67.9508 37.5667 68.1766 38.0483 68.6031C38.5552 69.0547 38.7834 69.6066 38.7834 70.284C38.7834 70.9614 38.5299 71.5384 38.0483 71.9649C37.6174 72.4165 36.9331 72.6423 36.0966 72.6423ZM34.4745 69.1801V71.3377H35.9952C36.4261 71.3377 36.7556 71.2373 36.9838 71.0617C37.2119 70.8861 37.3386 70.6101 37.3386 70.2589C37.3386 69.9077 37.2119 69.6568 36.9838 69.4561C36.7556 69.2805 36.4261 69.1801 35.9952 69.1801H34.4745Z" fill="white"/>
<path d="M41.5697 72.6423H40.0996V65.5173H43.2426C44.003 65.5173 44.6366 65.718 45.0675 66.1194C45.5238 66.5208 45.7519 67.0226 45.7519 67.6749C45.7519 68.3272 45.5238 68.8289 45.0675 69.2303C44.6113 69.6317 44.003 69.8324 43.2426 69.8324H41.5697V72.6423ZM41.5697 66.7968V68.578H43.1412C43.496 68.578 43.7749 68.5028 43.9776 68.3522C44.1804 68.2017 44.2818 67.9759 44.2818 67.7C44.2818 67.424 44.1804 67.1982 43.9776 67.0477C43.7749 66.8972 43.496 66.8219 43.1412 66.8219H41.5697V66.7968Z" fill="white"/>
<path d="M48.3617 72.6423H46.8916V65.5173H48.3617V68.1766H51.6061V65.5173H53.0762V72.6423H51.6061V69.5063H48.3617V72.6423Z" fill="white"/>
<path d="M55.6921 72.6429H54.146L57.2383 65.4929H58.6577L61.75 72.6429H60.1785L59.4688 70.9871H56.4272L55.6921 72.6429ZM57.9226 67.2992L56.8581 69.7829H58.9619L57.9226 67.2992Z" fill="white"/>
<path d="M63.8476 72.7673C63.3407 72.7673 62.9858 72.692 62.7577 72.5666V71.2871C62.9858 71.4125 63.2647 71.4878 63.5942 71.4878C63.8983 71.4878 64.1264 71.4125 64.3039 71.2871C64.4813 71.1616 64.6587 70.8857 64.8615 70.5094L62.1494 65.542H63.7716L65.5965 69.0292L67.1934 65.542H68.7649L66.1035 71.0864C65.5712 72.2153 64.8108 72.7673 63.8476 72.7673Z" fill="white"/>
<path d="M71.2518 72.6423H69.7817V65.5173H71.2518V68.3272L73.9132 65.5173H75.7128L72.6712 68.7787L76.2451 72.6423H74.3441L71.2518 69.3558V72.6423Z" fill="white"/>
<path d="M78.4505 72.6423H77.2085V65.5173H78.6786V70.1586L82.1764 65.5173H83.4437V72.6423H81.9736V67.9759L78.4505 72.6423Z" fill="white"/>
<path d="M21.4496 84.0841H19.9795V76.9592H23.1225C23.8829 76.9592 24.5165 77.1599 24.9474 77.5613C25.4037 77.9627 25.6318 78.4645 25.6318 79.1168C25.6318 79.7691 25.4037 80.2708 24.9474 80.6722C24.4912 81.0736 23.8829 81.2743 23.1225 81.2743H21.4496V84.0841ZM21.4496 78.2387V80.0199H23.0211C23.3759 80.0199 23.6548 79.9447 23.8575 79.7941C24.0603 79.6436 24.1617 79.4178 24.1617 79.1419C24.1617 78.8659 24.0603 78.6401 23.8575 78.4896C23.6548 78.3391 23.3759 78.2638 23.0211 78.2638H21.4496V78.2387Z" fill="white"/>
<path d="M26.5728 80.5201C26.5728 79.4664 26.9276 78.5884 27.6373 77.8859C28.347 77.1584 29.2341 76.8071 30.2987 76.8071C31.3633 76.8071 32.2504 77.1584 32.9601 77.8859C33.6698 78.6134 34.0247 79.4915 34.0247 80.5201C34.0247 81.5487 33.6698 82.4268 32.9601 83.1543C32.2504 83.8819 31.3633 84.2331 30.2987 84.2331C29.2341 84.2331 28.347 83.8819 27.6373 83.1543C26.9276 82.4268 26.5728 81.5487 26.5728 80.5201ZM28.7272 82.1759C29.1581 82.6275 29.6904 82.8282 30.324 82.8282C30.9577 82.8282 31.49 82.6024 31.8955 82.1759C32.3264 81.7494 32.5292 81.1724 32.5292 80.5201C32.5292 79.8427 32.3264 79.2908 31.8955 78.8392C31.4646 78.4127 30.9324 78.187 30.324 78.187C29.6904 78.187 29.1581 78.4127 28.7272 78.8392C28.2963 79.2657 28.0935 79.8177 28.0935 80.5201C28.0935 81.1975 28.2963 81.7494 28.7272 82.1759Z" fill="white"/>
<path d="M39.0635 84.2076C37.9483 84.2076 37.0105 83.8564 36.2754 83.179C35.5404 82.4765 35.1602 81.5734 35.1602 80.5197C35.1602 79.4409 35.515 78.5378 36.2501 77.8604C36.9851 77.1579 37.9229 76.8318 39.0382 76.8318C39.7479 76.8318 40.3816 76.9823 40.9392 77.2834V78.7635C40.4069 78.3621 39.7732 78.1865 39.0635 78.1865C38.3792 78.1865 37.8216 78.4123 37.34 78.8388C36.8837 79.2653 36.6556 79.8423 36.6556 80.5197C36.6556 81.1971 36.8837 81.749 37.3653 82.2006C37.8216 82.6271 38.4045 82.8528 39.1142 82.8528C39.9 82.8528 40.559 82.6521 41.0913 82.2256V83.7058C40.5336 84.0571 39.8493 84.2076 39.0635 84.2076Z" fill="white"/>
<path d="M45.9332 84.2076C44.8179 84.2076 43.8801 83.8564 43.145 83.179C42.41 82.4765 42.0298 81.5734 42.0298 80.5197C42.0298 79.4409 42.3846 78.5378 43.1197 77.8604C43.8547 77.1579 44.7926 76.8318 45.9078 76.8318C46.6175 76.8318 47.2512 76.9823 47.8088 77.2834V78.7635C47.3019 78.3621 46.6682 78.1865 45.9585 78.1865C45.2741 78.1865 44.7165 78.4123 44.2349 78.8388C43.7787 79.2653 43.5506 79.8423 43.5506 80.5197C43.5506 81.1971 43.7787 81.749 44.2603 82.2006C44.7165 82.6271 45.2995 82.8528 46.0092 82.8528C46.7949 82.8528 47.454 82.6521 47.9862 82.2256V83.7058C47.4033 84.0571 46.7189 84.2076 45.9332 84.2076Z" fill="white"/>
<path d="M50.5979 84.0841H49.356V76.9592H50.8261V81.6005L54.3239 76.9592H55.5912V84.0841H54.1211V79.4178L50.5979 84.0841Z" fill="white"/>
<path d="M58.5076 84.0841H57.2656V76.9592H58.7357V81.6005L62.2082 76.9592H63.5009V84.0841H62.0308V79.4178L58.5076 84.0841Z" fill="white"/>
<g clip-path="url(#clip0_54_79)">
<path d="M56.52 43.5535C56.3565 43.5535 56.1929 43.7188 56.1929 43.8841C56.1929 44.0494 56.3565 44.2147 56.52 44.2147C56.6836 44.2147 56.8472 44.0494 56.8472 43.8841C56.8472 43.7188 56.6836 43.5535 56.52 43.5535Z" fill="white"/>
<path d="M57.5044 46.4485C57.5044 46.6138 57.668 46.7791 57.8316 46.7791C57.9951 46.7791 58.1587 46.6138 58.1587 46.4485C58.1587 46.2832 57.9951 46.1179 57.8316 46.1179C57.668 46.1179 57.5044 46.2832 57.5044 46.4485Z" fill="white"/>
<path d="M56.52 46.1179C56.3565 46.1179 56.1929 46.2832 56.1929 46.4485C56.1929 46.6138 56.3565 46.7791 56.52 46.7791C56.6836 46.7791 56.8472 46.6138 56.8472 46.4485C56.8472 46.2832 56.6836 46.1179 56.52 46.1179Z" fill="white"/>
<path d="M58.8101 46.4485C58.8101 46.6138 58.9736 46.7791 59.1372 46.7791C59.3008 46.7791 59.4644 46.6138 59.4644 46.4485C59.4644 46.2832 59.3008 46.1179 59.1372 46.1179C58.9736 46.1179 58.8101 46.2832 58.8101 46.4485Z" fill="white"/>
<path d="M56.1121 40.6587L56.1939 41.4031L55.5396 41.3204V42.1476L56.1939 42.0649L56.1121 42.8093H56.93L56.8482 42.0649L57.5025 42.1476V41.3204L56.8482 41.4031L56.93 40.6587H56.1121Z" fill="white"/>
<path d="M57.0928 43.3054V45.9523H59.6283C59.3829 44.6289 58.4014 43.5536 57.0928 43.3054Z" fill="white"/>
<path d="M56.52 44.7947C56.3565 44.7947 56.1929 44.96 56.1929 45.1253C56.1929 45.2906 56.3565 45.4559 56.52 45.4559C56.6836 45.4559 56.8472 45.2906 56.8472 45.1253C56.8472 44.96 56.6836 44.7947 56.52 44.7947Z" fill="white"/>
<path d="M57.582 48.2686C57.5002 48.2686 57.3366 48.9303 57.5002 49.4266C57.582 49.6747 57.8273 49.7574 58.0727 49.7574C58.3181 49.6747 58.3181 49.5093 58.3181 49.3439C58.3999 48.7648 57.9091 48.2686 57.582 48.2686Z" fill="white"/>
<path d="M55.459 48.2686C55.1319 48.2686 54.6411 48.7648 54.7229 49.2611C54.7229 49.4266 54.8047 49.592 54.9683 49.6747C55.2137 49.7574 55.459 49.6747 55.5408 49.3439C55.7044 48.9303 55.5408 48.2686 55.459 48.2686Z" fill="white"/>
<path d="M56.5214 47.938C56.276 47.938 55.6217 49.2614 56.1124 50.0059C56.1942 50.1713 56.3578 50.1713 56.5214 50.1713C56.685 50.1713 56.8486 50.0886 56.9304 50.0059C57.4211 49.2614 56.7668 47.938 56.5214 47.938Z" fill="white"/>
<path d="M53.4114 46.4488C53.4114 46.2007 53.4931 45.9525 53.4931 45.9525H55.9469V45.7044V43.8019V43.2229C54.72 43.471 53.7385 44.3809 53.4114 45.6216C53.3296 45.7044 53.0842 45.7871 52.9206 45.7871C51.9391 45.7044 50.058 45.2908 50.058 44.8772C50.058 44.2982 50.4669 44.05 50.7941 44.05C51.2848 44.05 51.9391 44.3809 52.4299 43.6365C50.7123 43.7192 52.0209 41.155 50.6305 40.6587C50.7123 41.3204 50.6305 42.4784 50.3851 43.0575C50.3851 43.0575 49.8944 42.4784 49.3218 42.313C49.4036 42.8093 49.24 43.8019 49.0765 44.2155C49.0765 44.2155 48.5039 43.6365 47.8496 43.471C48.4221 44.2982 48.4221 45.5389 48.2586 46.2834C48.1768 46.5315 48.3404 46.7797 48.8311 46.7797C49.4854 46.7797 51.8573 46.8624 52.9206 47.276C53.2478 47.4414 53.4931 47.5241 53.6567 47.7723C53.7385 48.1031 54.0657 48.5994 54.3928 48.8476C54.5564 48.2686 55.2107 47.7723 55.6197 47.7723C55.7833 47.7723 55.8651 48.0204 55.9469 48.1858C55.9469 48.0204 56.274 47.4414 56.6012 47.4414C56.9283 47.4414 57.1737 47.855 57.3373 48.2686C57.3373 48.0204 57.5009 47.7723 57.6645 47.7723C58.0734 47.7723 58.5642 48.1858 58.8095 48.7649C58.9731 48.5994 59.7092 47.6068 59.791 46.9451H53.5749C53.4114 47.0278 53.4114 46.7797 53.4114 46.4488Z" fill="white"/>
<path d="M54.9663 46.4485C54.9663 46.6138 55.1299 46.7791 55.2935 46.7791C55.4571 46.7791 55.6206 46.6138 55.6206 46.4485C55.6206 46.2832 55.4571 46.1179 55.2935 46.1179C55.0481 46.1179 54.9663 46.2832 54.9663 46.4485Z" fill="white"/>
<path d="M53.6577 46.4485C53.6577 46.6138 53.8213 46.7791 53.9849 46.7791C54.1485 46.7791 54.312 46.6138 54.312 46.4485C54.312 46.2832 54.1485 46.1179 53.9849 46.1179C53.8213 46.1179 53.6577 46.2832 53.6577 46.4485Z" fill="white"/>
<path d="M29.2823 47.7725C29.2005 47.8552 28.9552 48.5169 29.037 48.9305C29.1188 49.0959 29.2005 49.1786 29.3641 49.1786C29.5277 49.1786 29.6095 49.0959 29.6913 48.9305C29.6913 48.5169 29.3641 47.8552 29.2823 47.7725Z" fill="white"/>
<path d="M31.4937 49.6744C31.3301 49.8397 31.1665 49.9223 31.1665 50.005C31.2483 50.0876 31.4119 50.1703 31.5755 50.1703C31.6572 50.1703 31.8208 50.1703 31.9026 50.0876C32.0662 49.757 31.9026 49.4264 31.8208 49.3438C31.6572 49.3438 31.5755 49.5091 31.4937 49.6744Z" fill="white"/>
<path d="M30.595 48.7648C30.8404 48.5167 30.9222 48.3512 30.8404 48.2685C30.7586 48.1031 30.2679 47.5241 29.6135 46.9451C29.6135 47.1105 29.5317 47.1932 29.5317 47.3586C29.9407 47.9377 30.1043 48.5167 29.9407 49.0957C30.0225 49.0957 30.0225 49.1784 30.0225 49.1784C30.2679 49.0957 30.5132 48.9303 30.595 48.7648Z" fill="white"/>
<path d="M31.4104 48.8478C31.4104 48.765 31.4104 48.6823 31.3286 48.5996C31.3286 48.5996 31.2469 48.6823 31.1651 48.765C31.0833 48.8478 31.0015 48.9305 30.9197 49.0959C30.8379 49.1786 30.7561 49.2613 30.6743 49.3441C30.5925 49.4268 30.5107 49.5095 30.5107 49.5922C30.5107 49.5922 30.5925 49.6749 30.6743 49.6749C30.7561 49.6749 30.9197 49.5922 31.2469 49.3441C31.3286 49.0959 31.4104 48.9305 31.4104 48.8478Z" fill="white"/>
<path d="M27.5657 45.7041C27.5657 45.7041 27.484 45.7868 27.4023 45.8694C27.5657 45.8694 27.729 45.8694 27.8107 45.9521C27.8107 45.7868 27.8107 45.6215 27.8107 45.5388C27.729 45.5388 27.5657 45.6215 27.5657 45.7041Z" fill="white"/>
<path d="M29.1209 45.8698C29.1209 45.8698 30.3477 46.9452 30.7567 47.3587C30.8385 47.4415 31.0021 47.4415 31.0838 47.4415C31.1656 47.4415 31.2474 47.3587 31.3292 47.276C32.5561 46.8624 34.6008 46.7797 35.3369 46.8624C35.7459 46.8624 35.9095 46.6143 35.9095 46.3661C35.7459 45.7044 35.7459 44.381 36.3184 43.5538C35.6641 43.8019 35.0916 44.2982 35.0916 44.2982C34.8462 43.8847 34.7644 42.8921 34.8462 42.3958C34.2737 42.6439 33.7829 43.1402 33.7829 43.1402C33.5376 42.5612 33.4558 41.4032 33.5376 40.7415C32.1471 41.2378 33.4558 43.8019 31.7382 43.7192C32.2289 44.4637 32.8014 44.1328 33.374 44.1328C33.7829 44.1328 34.1919 44.381 34.1101 44.96C34.0283 45.3736 31.7382 45.8698 30.7567 45.8698C30.1024 45.8698 29.6934 45.7044 29.3662 45.2081C29.2027 44.96 29.0391 44.8773 28.8755 44.8773C28.6301 44.8773 28.3848 45.1254 28.3848 45.7044C28.3848 46.118 28.5483 46.9452 28.9573 46.9452C29.2027 46.9452 29.2845 46.2834 29.1209 45.8698Z" fill="white"/>
<path d="M26.8314 45.4561C26.9132 45.4561 26.9132 45.4561 26.995 45.4561C26.8314 45.7043 26.8314 45.8697 26.9132 45.9524C26.995 46.0351 27.0768 45.8697 27.4039 45.5388C27.7311 45.208 27.8947 45.1253 27.8129 45.0426C27.7311 44.9598 27.5675 44.9598 27.3221 45.1253C27.3221 45.0426 27.3221 45.0426 27.3221 44.9598C27.2404 44.7117 26.7496 44.2981 26.5042 44.2981H26.4225C26.5042 44.1327 26.5042 43.9672 26.4225 43.8845C26.3407 43.8018 26.2589 43.8845 26.1771 43.9672C26.1771 43.8845 26.1771 43.8018 26.0953 43.6364C25.6863 43.0574 23.7234 41.1549 23.3144 40.9895C23.069 40.9068 22.9873 41.0722 22.9873 41.0722C22.9873 41.0722 22.8237 41.1549 22.9873 41.4858C23.1508 41.9821 25.1138 43.9672 25.6863 44.2981C25.7681 44.3808 25.9317 44.3808 26.0135 44.3808C25.9317 44.4635 25.8499 44.5463 25.9317 44.629C26.0135 44.7117 26.1771 44.7117 26.3407 44.629V44.7117C26.0953 44.9598 26.5042 45.3734 26.8314 45.4561Z" fill="white"/>
<path d="M28.2227 46.9452C28.2227 46.7798 27.8138 46.3662 27.4048 46.3662C26.7505 46.3662 26.4233 46.7798 26.4233 47.0279C26.4233 47.4415 26.8323 47.5242 26.9141 47.5242C27.4048 47.5242 28.1409 47.0279 28.2227 46.9452Z" fill="white"/>
<path d="M27.6493 47.9378C27.4857 48.186 27.4039 48.3514 27.4857 48.5995C27.5675 48.8477 27.8129 48.9304 27.9764 48.9304C28.2218 48.9304 28.3854 48.8477 28.549 48.5995C28.7943 48.186 28.7943 47.2761 28.7126 47.1934C28.4672 47.2761 27.8947 47.5242 27.6493 47.9378Z" fill="white"/>
<path d="M21.841 38.5908C21.6774 38.4254 21.2684 38.6735 21.0231 38.5908C21.1049 38.0118 21.5138 38.5908 21.9228 38.1772C22.0863 38.0118 22.0046 37.7637 21.9228 37.6809C21.7592 37.8464 21.5138 37.7637 21.5138 37.6809C21.9228 36.6056 21.1049 35.4476 20.287 35.613C20.4505 35.8612 20.5323 36.6056 20.4505 36.7711C20.7777 37.0192 20.5323 37.5155 20.2052 37.3501C19.9598 37.2674 19.5508 36.6883 20.0416 36.2748C20.0416 36.1093 19.7962 36.1093 19.4691 36.4402C19.6326 35.7785 18.4058 35.9439 18.1604 36.1093C17.9968 36.3575 17.8333 37.6809 18.4876 37.4328C18.1604 37.7637 18.1604 38.0118 18.324 38.0118C18.7329 37.5155 19.3055 37.9291 19.3873 38.1772C19.5508 38.5081 19.0601 38.7562 18.8147 38.4254C18.6512 38.5081 17.915 38.5081 17.6697 38.3427C17.5879 39.1698 18.7329 40.0797 19.7144 39.5834C19.7962 39.5834 19.878 39.8316 19.7144 40.0797C19.7962 40.1624 20.0416 40.2451 20.2052 40.0797C20.6141 39.6661 19.9598 39.2525 20.5323 39.1698C20.6959 39.418 20.3688 39.8316 20.6141 39.997C20.8595 40.3279 21.1867 39.7488 21.5956 39.6661C21.5956 39.3353 22.1681 38.9217 21.841 38.5908ZM18.7329 37.2674C18.7329 37.2674 18.5694 37.1019 18.7329 36.8538C18.9783 36.6056 19.1419 36.8538 19.1419 36.8538C19.1419 36.8538 19.3873 37.3501 19.3873 37.5982C19.2237 37.5155 18.7329 37.2674 18.7329 37.2674ZM20.6141 38.7563C20.5323 38.7563 20.2052 39.0044 20.0416 38.9217L19.3873 38.26L19.7144 37.9291L20.0416 37.5982L20.7777 38.1772C20.8595 38.3427 20.6959 38.6735 20.6141 38.7563Z" fill="white"/>
<path d="M22.0068 39.8315C21.9251 39.8315 21.8433 39.8315 21.7615 39.9143C21.6797 39.997 21.6797 40.0797 21.6797 40.2451C21.6797 40.4106 21.7615 40.4933 21.9251 40.6587C22.0886 40.8241 22.2522 40.9068 22.334 40.9068C22.4158 40.9068 22.4976 40.9068 22.4976 40.8241C22.6612 40.6587 22.5794 40.4105 22.334 40.1624C22.334 39.9143 22.1704 39.8315 22.0068 39.8315Z" fill="white"/>
<path d="M20.1221 37.8464L19.9585 38.0944L19.7949 38.2597C19.7949 38.2597 20.1221 38.7556 20.4492 38.5903C20.6128 38.2597 20.1221 37.8464 20.1221 37.8464Z" fill="white"/>
<path d="M54.5572 36.0266C54.5572 36.1093 54.0665 36.3574 53.7393 35.6957C53.4121 35.613 53.0032 35.5303 52.7578 35.4476C53.1668 36.2747 53.5757 37.0192 54.1482 37.35C54.9661 37.929 56.3566 37.7636 56.8473 37.1846C56.1112 36.771 55.2115 35.6957 54.7208 34.7031C54.639 34.9513 54.4754 35.3649 54.3118 35.613C54.3118 35.7784 54.4754 35.9439 54.5572 36.0266Z" fill="white"/>
<path d="M62.8204 23.0404C63.8019 22.6268 65.1105 21.7169 65.7649 21.0552C65.8467 21.1379 66.092 21.7169 65.3559 22.2959C64.8652 22.7095 63.8019 23.2058 62.984 23.5366C62.6568 24.1157 61.9207 24.6947 60.9392 25.3564C62.8204 25.0255 65.1105 24.2811 66.1738 23.2058C68.3004 21.1379 67.1553 18.5737 66.9099 18.0774C65.5195 19.8144 62.984 21.6342 60.5303 22.5441C61.3482 22.6268 62.2479 22.7922 62.8204 23.0404Z" fill="white"/>
<path d="M61.2664 19.1524C62.4932 18.1598 63.8019 16.0919 64.0473 15.3475C64.2926 15.5129 64.4562 16.1746 64.0473 16.8364C63.3929 17.9944 62.2479 18.987 61.2664 19.8141C61.1846 20.5586 60.9392 21.3857 60.5303 22.0475C62.0025 21.0549 63.7201 19.566 64.4562 18.4907C65.4377 17.1672 65.8467 15.8438 65.6831 14.5203C65.7649 13.0314 64.7016 11.5425 64.2926 11.2117C64.0473 12.866 62.4115 15.5956 60.9392 17.1672C61.1028 17.7462 61.2664 18.4907 61.2664 19.1524Z" fill="white"/>
<path d="M60.282 28.6648C60.6092 28.9957 60.8546 29.4092 61.0999 29.8228C62.245 30.071 63.6354 29.9882 63.6354 29.9882C63.6354 29.9882 63.5536 30.5673 62.8175 30.65C62.4904 30.65 61.4271 30.4845 61.0181 30.4018C60.8546 30.4845 60.0367 30.65 59.2188 30.8154C60.3638 31.229 62.0814 31.6426 63.2265 31.6426C63.3083 31.6426 63.4718 31.6426 63.5536 31.6426C65.2712 31.4771 66.1709 29.9055 66.1709 28.9129C65.6802 28.9957 64.7805 29.0784 63.8808 29.0784C62.8993 28.9957 61.4271 28.9129 60.282 28.6648Z" fill="white"/>
<path d="M67.4788 24.1152C65.9248 24.9424 63.2257 25.7696 61.0991 25.7696C61.6717 26.1004 62.1624 26.514 62.4896 26.8449C63.3893 26.7621 64.6161 26.514 65.3523 26.1831C65.3523 26.3486 65.3523 26.9276 64.5343 27.1757C63.9618 27.3412 63.0621 27.3412 62.4078 27.3412C61.9171 27.672 61.0991 28.0029 60.4448 28.251C61.0174 28.3338 61.7535 28.4165 62.4896 28.4165C63.6347 28.4165 64.6161 28.3338 65.2705 28.0856C65.843 27.8375 67.806 27.0103 67.4788 24.1152Z" fill="white"/>
<path d="M59.1387 32.3044C59.7931 32.6353 60.4474 32.8007 61.1017 32.8834C61.1017 32.8834 61.0199 33.4624 60.1202 33.3797C59.6295 33.297 58.9752 32.9661 58.8934 32.8007C58.4844 32.8834 57.6665 32.8007 57.3394 32.8007C58.3208 33.5452 59.8749 34.3723 61.1835 34.455C61.2653 34.455 61.3471 34.455 61.3471 34.455C62.7375 34.455 63.8008 33.0489 64.0462 32.3871C62.6557 32.3871 60.3656 31.8081 58.8934 30.981C58.9752 31.3945 59.1387 31.8081 59.1387 32.3044Z" fill="white"/>
<path d="M56.8477 34.1242C57.1749 34.5378 57.7474 34.7859 57.7474 34.7859C57.7474 34.7859 57.5838 35.1168 57.2567 35.1168C57.1749 35.1168 57.0113 35.1168 56.9295 35.0341C56.6841 34.8686 56.357 34.5378 56.357 34.5378C55.8662 34.455 55.4573 34.3723 55.0483 34.2896C55.7845 35.1995 56.9295 36.2748 58.2382 36.6057C58.4017 36.6884 58.6471 36.6884 58.8107 36.6884C59.9558 36.6884 60.8554 35.8612 61.1008 35.2822C59.7922 35.1168 57.911 34.1242 56.9295 33.1316C56.9295 33.4625 56.9295 33.876 56.8477 34.1242Z" fill="white"/>
<path d="M48.3419 48.8474C48.9962 48.8474 49.4052 48.5993 49.6505 47.9376C48.7508 48.3511 47.7693 48.103 46.0517 47.6067C46.0517 47.6067 45.3974 47.9376 44.9885 47.9376C46.0517 48.2684 47.524 48.7647 47.8511 49.3437C47.9329 49.84 47.6876 49.9227 47.6876 49.9227C47.115 49.1783 46.3789 48.7647 44.9067 48.3511C44.9067 48.5993 44.8249 48.8474 44.8249 48.8474C44.8249 48.8474 44.4977 48.9301 43.8434 48.8474C44.4159 49.3437 45.8882 50.5845 46.0517 51.9079C46.1335 52.8178 45.561 52.8178 45.561 52.8178C45.4792 51.4943 44.9067 50.5845 43.598 49.261C43.598 49.261 43.3527 49.5919 43.1073 49.7573C43.1073 49.7573 42.6166 49.6746 42.2894 49.4264C42.453 51.1635 42.5348 55.4647 42.453 56.2092C42.3712 56.7055 42.1258 56.8709 42.1258 56.8709C42.1258 56.8709 41.8804 56.7055 41.7986 56.2092C41.7169 55.5474 41.7986 51.2462 41.9622 49.4264C41.5533 49.6746 41.1443 49.7573 41.1443 49.7573C40.899 49.5919 40.6536 49.261 40.6536 49.261C39.4267 50.6672 38.8542 51.4943 38.6906 52.8178C38.6906 52.8178 38.0363 52.7351 38.1999 51.9079C38.3635 50.5845 39.8357 49.3437 40.4082 48.8474C39.7539 48.9301 39.4267 48.8474 39.4267 48.8474C39.4267 48.8474 39.3449 48.682 39.3449 48.3511C37.7909 48.8474 37.1366 49.261 36.5641 49.9227C36.5641 49.9227 36.2369 49.84 36.4005 49.3437C36.6459 48.7647 38.1999 48.2684 39.2631 47.9376C38.8542 47.9376 38.1999 47.6067 38.1999 47.6067C36.4823 48.103 35.5008 48.3511 34.6011 47.9376C34.8465 48.5993 35.3372 48.8474 35.9097 48.8474C35.0918 49.1783 34.2739 49.9227 34.1104 50.8326C34.6829 53.066 36.5641 53.7277 36.5641 53.7277C36.0733 52.6524 36.3187 50.5845 39.0996 49.0956C37.382 50.8326 36.7276 52.4042 37.1366 53.8931C37.5455 55.2993 38.936 55.7956 39.9993 55.8783C39.2631 53.5622 39.5903 51.5771 41.1443 49.9227C40.49 51.7425 39.5903 57.2845 42.2076 58.1943C44.8249 57.2845 43.9252 51.7425 43.2709 49.9227C44.8249 51.5771 45.1521 53.645 44.4159 55.8783C45.4792 55.8783 46.8697 55.2993 47.2786 53.8931C47.7693 52.4042 47.0332 50.8326 45.3156 49.0956C48.1783 50.5845 48.3419 52.6524 47.8511 53.7277C47.8511 53.7277 49.7323 53.066 50.3048 50.8326C49.9777 49.9227 49.1598 49.0956 48.3419 48.8474Z" fill="white"/>
<path d="M30.1022 37.35C30.6747 36.9365 31.0836 36.2747 31.4926 35.4476C31.2472 35.5303 30.9201 35.6957 30.5111 35.6957C30.1839 36.3574 29.6932 36.1093 29.6932 36.0266C29.775 35.9439 29.9386 35.6957 30.0204 35.613C29.8568 35.3649 29.6932 34.9513 29.6114 34.7031C29.1207 35.7784 28.221 36.771 27.4849 37.1846C27.812 37.8463 29.2025 37.929 30.1022 37.35Z" fill="white"/>
<path d="M23.2328 25.3564C22.2513 24.6947 21.597 24.1157 21.188 23.5366C20.3701 23.2058 19.3069 22.7095 18.8161 22.2959C18.08 21.7169 18.3254 21.1379 18.4072 21.0552C19.0615 21.7169 20.3701 22.6268 21.3516 23.0404C21.9241 22.7922 22.8238 22.6268 23.6417 22.5441C21.188 21.5515 18.6525 19.7317 17.2621 18.0774C17.0167 18.6564 15.8717 21.1379 17.9982 23.2058C19.0615 24.2811 21.3516 25.0255 23.2328 25.3564Z" fill="white"/>
<path d="M23.6429 22.0475C23.3158 21.3857 22.9886 20.5586 22.9068 19.8141C21.9253 18.987 20.7803 17.9944 20.1259 16.8364C19.717 16.1746 19.8806 15.5956 20.1259 15.3475C20.3713 16.0919 21.68 18.0771 22.9068 19.1524C22.9068 18.4907 22.9886 17.7462 23.234 17.1672C21.8435 15.5956 20.2077 12.866 19.8806 11.2117C19.4716 11.5425 18.4083 13.0314 18.4901 14.5203C18.3266 15.8438 18.7355 17.1672 19.717 18.4907C20.4531 19.566 22.1707 21.0549 23.6429 22.0475Z" fill="white"/>
<path d="M23.0703 29.7401C23.2338 29.4092 23.561 28.9956 23.8882 28.582C22.7431 28.9129 21.2709 28.9956 20.5348 28.9956C19.6351 28.9956 18.7354 28.9129 18.2446 28.8302C18.2446 29.7401 19.0625 31.3944 20.8619 31.5598C20.9437 31.5598 21.0255 31.5598 21.1891 31.5598C22.2524 31.5598 23.97 31.1462 25.1968 30.7326C24.3789 30.6499 23.561 30.4018 23.3974 30.3191C22.8249 30.4018 21.7616 30.5672 21.4345 30.5672C20.6983 30.4845 20.6165 29.9055 20.6165 29.9055C20.6165 29.9055 22.007 29.9882 23.0703 29.7401Z" fill="white"/>
<path d="M18.8972 28.0856C19.5515 28.3338 20.533 28.4165 21.6781 28.4165C22.4142 28.4165 23.1503 28.3338 23.7228 28.251C23.0685 28.0029 22.2506 27.672 21.7599 27.3412C21.1055 27.3412 20.2059 27.3412 19.6333 27.1757C18.8154 26.9276 18.8154 26.3486 18.8154 26.1831C19.5515 26.514 20.7784 26.7621 21.6781 26.8449C22.0052 26.514 22.496 26.1004 23.0685 25.7696C20.942 25.7696 18.1611 24.9424 16.6889 24.1152C16.3617 27.0103 18.3247 27.8375 18.8972 28.0856Z" fill="white"/>
<path d="M22.9056 34.4548C22.9874 34.4548 23.0692 34.4548 23.0692 34.4548C24.3779 34.2894 25.9319 33.4622 26.9134 32.8005C26.5862 32.8832 25.7683 32.8832 25.3593 32.8005C25.1958 32.8832 24.6232 33.2968 24.1325 33.3795C23.2328 33.4622 23.151 32.8832 23.151 32.8832C23.7235 32.8005 24.4596 32.6351 25.114 32.3042C25.1958 31.8079 25.2775 31.3943 25.3593 31.0635C23.9689 31.8906 21.597 32.4696 20.2065 32.4696C20.4519 33.0487 21.5152 34.4548 22.9056 34.4548Z" fill="white"/>
<path d="M25.358 36.6056C25.5216 36.6056 25.767 36.6056 25.9305 36.5229C27.1574 36.192 28.3842 35.1167 29.1204 34.2069C28.7114 34.3723 28.3025 34.455 27.8117 34.455C27.8117 34.455 27.4846 34.8686 27.2392 34.9513C27.0756 35.034 26.9938 35.034 26.912 35.034C26.5849 35.034 26.4213 34.7031 26.4213 34.7031C26.4213 34.7031 26.9938 34.455 27.321 34.0414C27.321 33.876 27.2392 33.4624 27.2392 33.0488C26.2577 34.0414 24.3765 35.034 23.0679 35.1994C23.3132 35.7785 24.2129 36.6056 25.358 36.6056Z" fill="white"/>
<path d="M41.6357 3.93282C41.6357 4.18097 41.8811 4.42912 42.1265 4.42912C42.3719 4.42912 42.6172 4.18097 42.6172 3.93282C42.6172 3.68467 42.3719 3.43652 42.1265 3.43652C41.7993 3.43652 41.6357 3.68467 41.6357 3.93282Z" fill="white"/>
<path d="M41.7989 2.85745H42.4532L42.3714 2.03029L43.0257 2.11301V1.53399L42.3714 1.61671L42.4532 0.789551H41.7989L41.8806 1.61671L41.1445 1.53399V2.11301L41.8806 2.03029L41.7989 2.85745Z" fill="white"/>
<path d="M39.5081 10.7976C39.5899 10.7976 39.6716 10.7976 39.7534 10.7976H44.4973C44.5791 10.7976 44.6609 10.7976 44.7427 10.7976C44.9062 10.715 44.988 10.6323 44.988 10.467H39.2627C39.2627 10.6323 39.3445 10.715 39.5081 10.7976Z" fill="white"/>
<path d="M44.6618 10.0533C44.7436 10.0533 44.7436 10.0533 44.7436 9.97063V9.64002C44.7436 9.55737 44.7436 9.55737 44.6618 9.55737H39.509C39.4272 9.55737 39.4272 9.55737 39.4272 9.64002V9.97063C39.4272 10.0533 39.4272 10.0533 39.509 10.0533H44.6618Z" fill="white"/>
<path d="M45.2332 9.14386C45.3968 8.97843 46.0511 7.65497 46.0511 6.41423C46.0511 5.25621 44.5789 4.59448 43.761 4.59448C43.6792 6.2488 43.0248 8.89571 42.2069 8.89571C41.389 8.89571 40.7347 6.2488 40.6529 4.59448C39.7532 4.59448 38.3628 5.25621 38.3628 6.41423C38.3628 7.73769 39.0171 8.97843 39.1807 9.14386H45.2332Z" fill="white"/>
<path d="M42.1258 7.98598C42.5347 7.98598 43.0255 6.74524 43.1891 5.5045C43.1891 5.25635 42.7801 4.84277 42.1258 4.84277C41.4715 4.84277 41.0625 5.25635 41.0625 5.5045C41.1443 6.66253 41.7168 7.98598 42.1258 7.98598Z" fill="white"/>
<path d="M49.5692 27.5894C49.5692 27.424 49.4056 27.2585 49.242 27.2585H34.9287C34.7651 27.2585 34.6016 27.424 34.6016 27.5894V37.5153V37.598V37.6808C34.6016 37.6808 34.6016 38.1771 34.8469 38.8388C35.1741 39.5832 36.401 40.7413 37.955 41.5684C40.1633 42.7264 41.472 43.6363 42.0445 44.1326C42.6988 43.6363 44.0075 42.7264 46.134 41.5684C47.688 40.7413 48.9149 39.5832 49.242 38.8388C49.4874 38.1771 49.4874 37.6808 49.4874 37.6808L49.5692 27.5894ZM44.7436 31.2289V31.3116C44.9072 32.0561 45.0707 32.8005 45.1525 33.545C45.7251 34.0413 46.2976 34.5376 46.7065 35.0339C47.6062 34.0413 48.0152 33.0487 48.097 32.3042C47.688 32.3042 47.3609 31.9734 47.3609 31.5598C47.3609 31.3943 47.4427 31.3116 47.5244 31.1462C47.1155 30.8981 46.6248 30.8981 46.2158 30.8981C45.8886 30.8981 45.4797 30.898 45.0707 30.9808H44.9889H44.9072V30.8981C44.9889 30.8153 44.9889 30.7326 44.9889 30.6499C46.134 30.4018 47.1155 30.5672 47.688 30.8981C47.7698 30.8153 47.9334 30.8153 48.097 30.8153C48.5059 30.8153 48.8331 31.1462 48.8331 31.5598C48.8331 31.8079 48.6695 32.0561 48.4241 32.2215C48.4241 33.0487 47.9334 34.124 46.9519 35.282C47.0337 35.3647 47.0337 35.4474 47.1155 35.4474L47.1973 35.5301C47.1155 35.6129 47.1155 35.6129 47.0337 35.6956L46.9519 35.6129C46.9519 35.5301 46.8701 35.5301 46.8701 35.4474C46.7883 35.5301 46.6248 35.6956 46.543 35.7783L46.4612 35.861C46.2976 36.0264 46.134 36.0264 45.9704 35.9437H45.8886L45.9704 35.861C46.2976 35.6129 46.543 35.3647 46.7065 35.1166C46.2976 34.703 45.8886 34.2894 45.3979 33.8758C45.3979 34.2894 45.4797 34.703 45.4797 35.1166C45.4797 35.4474 45.4797 35.861 45.3979 36.3573C45.3161 36.3573 45.2343 36.44 45.1525 36.5227H45.0707V36.44C45.1525 35.9437 45.1525 35.5301 45.1525 35.1166C45.1525 34.9511 45.1525 34.8684 45.1525 34.703V34.6203C45.1525 34.3721 45.0707 33.4622 44.9889 32.966C44.9072 32.4697 44.8254 31.9734 44.7436 31.5598C44.58 31.4771 44.6618 31.3943 44.7436 31.2289ZM39.8361 30.1536C40.4087 28.7474 41.2266 28.003 42.1263 28.003C42.9442 28.003 43.7621 28.7474 44.4164 30.1536C44.4164 30.1536 44.3346 30.2363 44.171 30.2363C43.5985 28.9956 42.9442 28.2511 42.2081 28.2511C41.472 28.2511 40.8176 28.9956 40.2451 30.2363C39.9997 30.2363 39.9179 30.2363 39.8361 30.1536ZM39.6726 30.4845C39.9179 30.6499 40.4087 30.8981 40.9812 30.7326C41.472 30.5672 42.1263 30.5672 42.1263 30.5672C42.1263 30.5672 42.7806 30.5672 43.2713 30.7326C43.8439 30.8981 44.3346 30.6499 44.58 30.4845C44.58 30.4845 44.6618 30.4845 44.6618 30.5672C44.58 30.8153 44.4164 31.3943 43.5167 31.6425C42.6988 31.8079 42.2899 32.8005 42.2081 33.2141C42.2081 33.2968 42.1263 33.2968 42.1263 33.2141C41.9627 32.8005 41.6355 31.8906 40.8176 31.6425C39.8361 31.3943 39.6726 30.8153 39.6726 30.4845C39.5908 30.4845 39.5908 30.4845 39.6726 30.4845ZM41.063 32.8832C41.2266 32.8832 41.3084 32.8005 41.472 32.7178C41.5537 32.8832 41.6355 32.9659 41.6355 33.1314C41.472 33.2141 41.2266 33.2968 41.063 33.2968C40.4087 33.2968 39.9179 32.8005 39.9179 32.1388C39.9179 31.9734 39.9179 31.8079 39.9997 31.7252C40.0815 31.8079 40.2451 31.8906 40.4087 31.8906C40.4087 31.9734 40.3269 32.0561 40.3269 32.1388C40.4087 32.5524 40.7358 32.8832 41.063 32.8832ZM40.7358 32.2215C40.7358 32.1388 40.7358 32.1388 40.7358 32.0561C40.8994 32.1388 41.063 32.3042 41.2266 32.4697C41.1448 32.4697 41.1448 32.5524 41.063 32.5524C40.8994 32.5524 40.7358 32.3869 40.7358 32.2215ZM41.063 33.7104C41.3084 33.7104 41.5537 33.6277 41.7991 33.4622C41.8809 33.545 41.9627 33.7931 42.0445 33.7931C42.1263 33.7931 42.2081 33.545 42.2899 33.4622C42.5352 33.6277 42.7806 33.7104 43.026 33.7104C43.4349 33.7104 43.8439 33.545 44.0892 33.2968C44.2528 33.7931 44.2528 34.3721 44.2528 34.6203C44.2528 34.8684 44.171 35.1166 44.0892 35.3647C44.0075 35.6956 43.9257 35.861 43.9257 35.861C43.9257 35.861 43.9257 35.9437 43.8439 36.0264C43.7621 36.2746 43.5985 36.6882 43.3531 37.1018C42.9442 36.8536 42.3717 36.6882 41.7991 36.6882C41.3084 36.6882 40.8176 36.8536 40.4087 37.019C40.2451 36.6055 40.0815 36.2746 39.9997 36.0264C39.9179 35.861 39.9179 35.861 39.9179 35.861C39.9179 35.861 39.8361 35.6129 39.6726 35.282C39.5908 35.1166 39.5908 34.8684 39.509 34.6203C39.509 34.4548 39.509 33.7931 39.5908 33.2968C39.5908 33.2141 39.6726 33.1314 39.6726 33.1314C40.2451 33.545 40.6541 33.7104 41.063 33.7104ZM43.1078 32.8832C43.5167 32.8832 43.8439 32.5524 43.8439 32.1388C43.8439 32.0561 43.8439 31.9734 43.7621 31.8906C43.9257 31.8079 44.0075 31.8079 44.171 31.7252C44.2528 31.8906 44.2528 31.9734 44.2528 32.1388C44.2528 32.8005 43.7621 33.2968 43.1078 33.2968C42.8624 33.2968 42.6988 33.2141 42.5352 33.1314C42.5352 33.0487 42.617 32.8832 42.6988 32.7178C42.8624 32.8832 43.026 32.8832 43.1078 32.8832ZM42.9442 32.4697C43.1078 32.3042 43.2713 32.1388 43.4349 32.0561C43.4349 32.0561 43.4349 32.1388 43.4349 32.2215C43.4349 32.3869 43.2713 32.5524 43.1078 32.5524C43.026 32.5524 43.026 32.4697 42.9442 32.4697ZM36.0738 30.7326C36.2374 30.7326 36.3192 30.8153 36.4827 30.8981C36.8917 30.6499 37.3824 30.4845 38.0368 30.4845C38.3639 30.4845 38.7729 30.4845 39.1818 30.5672H39.2636C39.2636 30.6499 39.3454 30.7326 39.3454 30.8153V30.8981H39.1818H39.1C38.6911 30.8153 38.3639 30.8153 38.0368 30.8153C37.6278 30.8153 37.1371 30.898 36.7281 31.0635C36.8099 31.1462 36.8099 31.3116 36.8099 31.4771C36.8099 31.8906 36.4827 32.2215 36.0738 32.2215C36.0738 32.966 36.5645 33.8758 37.4642 34.9511C37.955 34.4548 38.4457 33.9585 39.0182 33.4622C39.1 32.7178 39.2636 31.9734 39.4272 31.2289V31.1462L39.509 31.2289C39.5908 31.3116 39.5908 31.3943 39.6726 31.3943C39.5908 31.8079 39.4272 32.3042 39.4272 32.8005C39.3454 33.1314 39.3454 33.6277 39.3454 34.124C39.3454 34.4548 39.3454 34.7857 39.3454 35.0339C39.3454 35.3647 39.3454 35.7783 39.4272 36.1919V36.2746H39.3454C39.2636 36.2746 39.1818 36.1919 39.1 36.1919C39.1 35.861 39.0182 35.4474 39.0182 35.1166C39.0182 34.703 39.0182 34.2894 39.1 33.8758C38.6093 34.2894 38.2003 34.703 37.7914 35.1166C38.1185 35.4474 38.5275 35.861 38.9365 36.1919L39.0182 36.2746H38.9365C38.7729 36.2746 38.6093 36.2746 38.5275 36.2746C38.1186 35.9437 37.8732 35.6129 37.6278 35.3647C37.546 35.4474 37.546 35.4474 37.4642 35.5301L37.3824 35.6129C37.3006 35.6129 37.2189 35.6956 37.1371 35.6956C37.1371 35.6956 37.1371 35.6956 37.0553 35.6129C37.0553 35.6129 37.0553 35.6129 36.9735 35.6129C37.1371 35.4474 37.2189 35.282 37.3006 35.1993C36.3192 34.0413 35.8284 32.966 35.8284 32.1388C35.583 31.9734 35.4195 31.7252 35.4195 31.4771C35.3377 31.0635 35.6648 30.7326 36.0738 30.7326ZM44.4982 39.9968C44.0892 41.1548 43.4349 41.982 42.8624 42.3956C42.7806 42.7264 42.5352 43.0573 42.1263 43.0573C41.7173 43.0573 41.472 42.8092 41.3902 42.3956C40.7358 42.0647 40.1633 41.2376 39.7544 40.0795V39.9968L40.0815 39.9141C40.4905 40.9067 40.8994 41.6511 41.472 41.982C41.5537 41.6511 41.8809 41.4857 42.2081 41.4857C42.5352 41.4857 42.7806 41.7338 42.9442 41.982C43.4349 41.6511 43.9257 40.9067 44.3346 39.9141C44.3346 39.9141 44.4164 39.9968 44.4982 39.9968ZM41.472 39.9968C41.472 39.7487 41.5537 39.0869 41.6355 38.9215C41.7991 38.8388 41.9627 38.7561 42.1263 38.7561C42.2899 38.7561 42.5352 38.8388 42.617 38.9215C42.6988 39.1697 42.7806 39.7487 42.7806 39.9968C42.7806 40.245 42.2081 40.4104 42.1263 40.4104C42.0445 40.4104 41.472 40.245 41.472 39.9968ZM49.0785 37.5153C49.0785 37.598 48.9967 37.598 48.9149 37.598C48.8331 37.598 48.7513 37.6808 48.6695 37.6808H48.5877C48.5059 37.6808 48.3424 37.6808 48.2606 37.598C48.2606 37.598 48.1788 37.598 48.1788 37.5153C48.0152 37.5153 47.6062 37.6808 47.4427 37.6808C47.5244 37.6808 48.0152 37.7635 48.4241 38.0116C48.5877 38.0943 48.9149 38.1771 49.0785 38.1771C49.0785 38.2598 48.5059 38.6734 47.3609 38.4252L47.1155 38.3425C46.6248 38.1771 46.134 38.1771 45.5615 38.1771C45.6433 38.1771 45.6433 38.1771 45.7251 38.2598C45.8886 38.3425 45.9704 38.3425 46.134 38.4252C46.134 38.4252 46.134 38.4252 46.2158 38.4252H46.2976C46.3794 38.4252 46.3794 38.4252 46.4612 38.4252C46.543 38.4252 46.6248 38.5079 46.6248 38.5079C46.7065 38.5906 46.7883 38.5906 46.7883 38.6734C46.7883 38.6734 46.8701 38.7561 46.8701 38.8388C46.8701 38.9215 46.8701 39.0042 46.7883 39.0869C46.543 39.3351 46.3794 39.3351 46.134 39.0869C46.134 39.0869 46.134 39.0869 46.0522 39.0042C46.0522 39.0042 45.9704 38.8388 45.8886 38.7561V38.6734C45.8068 38.5906 45.7251 38.5079 45.5615 38.5079C45.3161 38.4252 45.1525 38.3425 44.9889 38.3425C44.9072 38.3425 44.9072 38.3425 44.8254 38.3425C44.9889 38.4252 45.1525 38.5906 45.2343 38.7561C45.3161 38.9215 45.3161 39.0869 45.3979 39.2524C45.5615 39.6659 45.6433 39.6659 45.8068 39.8314C45.6433 39.9141 44.7436 39.8314 44.3346 39.2524C44.3346 39.2524 44.3346 39.1697 44.2528 39.1697C44.171 38.9215 44.0893 38.6734 44.0075 38.5079C43.9257 38.3425 44.0075 38.1771 43.9257 38.0943C43.8439 38.0116 43.7621 38.0943 43.7621 38.0943C43.6803 38.0943 43.6803 38.1771 43.6803 38.1771V38.2598C43.6803 38.2598 43.6803 38.2598 43.6803 38.3425H43.5985C43.5985 38.3425 43.5985 38.3425 43.5167 38.3425C43.4349 38.3425 43.4349 38.3425 43.3531 38.3425C43.2713 38.3425 43.2713 38.2598 43.2713 38.2598V38.1771H43.1896C43.1078 38.1771 43.1078 38.1771 43.1078 38.0943C43.1078 38.0116 43.1078 38.0116 43.1078 37.9289L43.026 38.0116C42.9442 38.0116 42.9442 38.0116 42.9442 38.0116L42.8624 37.9289V37.8462C42.7806 37.8462 42.6988 37.7635 42.617 37.7635C42.5352 37.7635 42.4534 37.8462 42.3717 37.8462C42.3717 37.8462 42.3717 37.8462 42.2899 37.8462V37.7635H42.2081V37.8462V37.9289C42.2081 38.0116 42.2081 38.0116 42.2081 38.0943C42.2081 38.0943 42.1263 38.1771 42.1263 38.0943C42.1263 38.0943 42.1263 38.0943 42.0445 38.0943C42.0445 38.0943 42.0445 38.0943 41.9627 38.0116C41.9627 38.0116 41.9627 38.0116 41.9627 38.0943V38.1771C41.9627 38.2598 41.8809 38.2598 41.7991 38.2598C41.7991 38.2598 41.7991 38.2598 41.7173 38.2598C41.7173 38.2598 41.7173 38.2598 41.6355 38.2598C41.6355 38.2598 41.7173 38.3425 41.6355 38.3425C41.6355 38.4252 41.5537 38.4252 41.5537 38.4252C41.472 38.4252 41.472 38.4252 41.3902 38.4252C41.3902 38.4252 41.3902 38.4252 41.3084 38.4252C41.3084 38.4252 41.3084 38.4252 41.2266 38.4252C41.2266 38.4252 41.1448 38.4252 41.1448 38.3425H41.063L40.9812 38.2598C40.8176 38.1771 40.6541 38.5906 40.6541 38.5906C40.0815 39.7487 38.8547 39.9141 38.7729 39.9141C38.7729 39.9141 39.1 39.7487 39.1818 39.3351C39.2636 39.0869 39.2636 39.0042 39.3454 38.8388L39.4272 38.7561C39.509 38.6734 39.6726 38.5079 39.7544 38.4252C39.6726 38.4252 39.6726 38.4252 39.5908 38.4252C39.4272 38.4252 39.1818 38.5079 39.0182 38.5906C38.9365 38.5906 38.8547 38.6734 38.6911 38.7561V38.8388C38.6911 38.9215 38.6093 39.0042 38.5275 39.0869C38.5275 39.0869 38.5275 39.0869 38.4457 39.1697C38.2003 39.4178 38.0368 39.4178 37.7914 39.1697C37.7914 39.1697 37.7914 39.0869 37.7096 39.0869C37.7096 39.0042 37.6278 38.9215 37.7096 38.8388C37.7096 38.7561 37.7914 38.6734 37.7914 38.6734C37.8732 38.5906 37.8732 38.5906 37.955 38.5906C38.0368 38.5906 38.1186 38.5079 38.1186 38.5079C38.2003 38.5079 38.2003 38.5079 38.2821 38.5079H38.3639C38.3639 38.5079 38.3639 38.5079 38.4457 38.5079C38.5275 38.5079 38.5275 38.4252 38.6093 38.4252C38.6911 38.4252 38.6911 38.3425 38.7729 38.3425H38.8547C38.3639 38.3425 37.8732 38.3425 37.3824 38.5079C37.3006 38.5079 37.2189 38.5906 37.0553 38.5906C36.4827 38.7561 35.3377 38.4252 35.3377 38.3425C35.3377 38.2598 35.583 38.2598 35.992 38.0943C36.2374 38.0116 36.401 37.8462 36.5645 37.8462C36.7281 37.7635 37.0553 37.7635 37.0553 37.7635C36.8917 37.6808 36.401 37.598 36.2374 37.598L36.1556 37.6808C36.0738 37.7635 35.9102 37.7635 35.7466 37.7635C35.6648 37.7635 35.583 37.7635 35.5013 37.6808C35.4195 37.6808 35.3377 37.598 35.3377 37.598C35.3377 37.5153 35.2559 37.4326 35.2559 37.3499C35.3377 37.1018 35.5013 37.019 35.8284 37.1018C35.992 37.1845 36.0738 37.1845 36.1556 37.2672C36.1556 37.2672 36.1556 37.2672 36.2374 37.3499C36.401 37.3499 36.6463 37.4326 36.8917 37.5153C37.1371 37.598 37.3006 37.6808 37.4642 37.6808C37.3824 37.6808 37.3824 37.598 37.3006 37.598C37.3006 37.598 37.2189 37.5153 37.1371 37.5153C37.0553 37.5153 36.9735 37.4326 36.9735 37.4326C36.6463 37.2672 36.2374 37.1017 35.992 36.8536C35.5013 36.5227 35.5013 36.3573 35.4195 36.1919C35.3377 35.6956 35.0923 35.4474 35.1741 35.3647C35.2559 35.282 36.0738 35.6956 36.3192 36.0264C36.4827 36.2746 36.5645 36.44 36.6463 36.6055C36.7281 36.7709 36.8917 36.9363 37.1371 37.1845L37.2189 37.2672C37.1371 37.1845 37.0553 37.1018 37.0553 37.019C37.0553 37.019 37.0553 37.019 37.0553 36.9363C37.0553 36.9363 36.9735 36.9363 36.9735 36.8536L36.8917 36.7709C36.8917 36.6882 36.8099 36.6882 36.8099 36.6055C36.7281 36.44 36.7281 36.2746 36.8099 36.1919C36.8099 36.1092 36.8917 36.0264 37.0553 36.0264C37.3006 35.9437 37.4642 36.1092 37.546 36.44C37.546 36.5227 37.546 36.6055 37.546 36.6055C37.546 36.6882 37.546 36.6882 37.546 36.7709C37.546 36.7709 37.546 36.7709 37.546 36.8536C37.7096 37.2672 37.955 37.5153 38.2821 37.7635C37.8732 37.4326 37.6278 36.6055 37.7096 36.5227C37.7914 36.5227 38.1186 36.6882 38.5275 36.8536C38.6911 36.9363 38.8547 37.019 39.0182 37.1018C39.1 37.1845 39.2636 37.2672 39.3454 37.3499C39.4272 37.4326 39.509 37.5153 39.5908 37.598C39.6726 37.6808 39.6726 37.6808 39.7544 37.7635C39.7544 37.7635 39.8361 37.8462 39.9179 37.8462C39.9997 37.9289 40.1633 37.8462 40.1633 37.8462C40.1633 37.8462 40.2451 37.8462 40.3269 37.8462C40.4087 37.7635 40.4905 37.7635 40.4905 37.7635C40.4905 37.7635 40.4905 37.7635 40.4905 37.6808C40.4905 37.598 40.5723 37.5153 40.6541 37.4326H40.7358C40.7358 37.4326 40.7358 37.4326 40.8176 37.4326C40.8176 37.4326 40.8176 37.4326 40.8994 37.4326H40.9812C40.9812 37.3499 41.063 37.3499 41.063 37.3499C41.2266 37.2672 41.3902 37.3499 41.472 37.4326C41.5537 37.5153 41.5537 37.5153 41.5537 37.598V37.6808V37.7635V37.8462C41.6355 37.8462 41.7173 37.8462 41.7991 37.8462H41.8809C41.9627 37.8462 41.9627 37.8462 42.0445 37.8462C42.1263 37.8462 42.1263 37.8462 42.2081 37.7635H42.2899H42.3717C42.3717 37.6808 42.3717 37.6808 42.3717 37.598C42.3717 37.5153 42.3717 37.5153 42.3717 37.4326C42.3717 37.4326 42.3717 37.3499 42.4534 37.3499C42.4534 37.3499 42.4534 37.3499 42.5352 37.2672C42.617 37.1845 42.7806 37.1845 42.8624 37.2672C42.9442 37.2672 42.9442 37.3499 42.9442 37.3499C43.026 37.3499 43.026 37.3499 43.1078 37.3499H43.1896C43.1896 37.3499 43.1896 37.3499 43.2713 37.3499C43.3531 37.4326 43.4349 37.5153 43.4349 37.598H43.5167C43.5167 37.598 43.8439 37.598 43.9257 37.598H44.2528L44.3346 37.5153C44.4164 37.4326 44.4982 37.3499 44.58 37.2672C44.6618 37.1845 44.7436 37.1018 44.9072 37.019C45.0707 36.9363 45.3161 36.8536 45.4797 36.7709C46.0522 36.5227 46.134 36.1919 46.2158 36.1919C46.2976 36.1919 46.0522 37.1845 45.6433 37.598C45.9704 37.3499 46.2976 37.1018 46.3794 36.6882C46.3794 36.6882 46.3794 36.6882 46.3794 36.6055C46.3794 36.5227 46.3794 36.5227 46.3794 36.44C46.3794 36.3573 46.3794 36.3573 46.3794 36.2746C46.4612 35.9437 46.6248 35.7783 46.8701 35.861C47.0337 35.861 47.1155 35.9437 47.1155 36.0264C47.1973 36.1092 47.1973 36.2746 47.1155 36.44C47.1155 36.5227 47.0337 36.6055 47.0337 36.6055C47.0337 36.6882 46.9519 36.6882 46.9519 36.6882C46.9519 36.6882 46.8701 36.6882 46.8701 36.7709C46.8701 36.7709 46.8701 36.7709 46.8701 36.8536C46.7883 36.9363 46.7883 37.019 46.6248 37.1845C46.7065 37.1845 46.7065 37.1018 46.7883 37.1018C47.1155 36.8536 47.2791 36.6882 47.2791 36.5227C47.3609 36.3573 47.3609 36.1919 47.6062 35.9437C47.8516 35.6129 47.9334 35.5301 48.2606 35.3647C48.3424 35.3647 48.7513 35.1993 48.7513 35.282C48.7513 35.3647 48.4241 35.4474 48.3424 36.1092C48.2606 36.2746 48.2606 36.6055 48.0152 36.7709C47.7698 37.019 47.5244 37.1017 47.1973 37.2672H47.1155C47.0337 37.2672 46.9519 37.3499 46.8701 37.3499C46.7883 37.4326 46.7065 37.4326 46.6248 37.5153C46.7883 37.5153 46.9519 37.4326 47.1973 37.3499C47.3609 37.2672 47.6062 37.1845 47.8516 37.1845C47.8516 37.1845 47.8516 37.1018 47.9334 37.1018C48.0152 37.019 48.097 36.9363 48.2606 36.9363C48.5877 36.8536 48.7513 36.9363 48.8331 37.1845C49.1603 37.4326 49.0785 37.5153 49.0785 37.5153Z" fill="white"/>
<path d="M59.3829 25.5217C60.2825 25.1081 61.7548 24.1155 62.3273 23.371C61.5094 23.1229 59.7918 22.8747 58.8921 22.8747C60.8551 21.5513 60.9369 18.6562 60.3643 16.5056C59.9554 18.2427 58.7285 19.5661 57.9106 20.3933C57.9924 21.2204 57.747 22.6266 57.2563 23.5365C57.9106 23.7846 58.6467 24.1155 59.2193 24.5291C58.8921 24.9426 58.0742 25.6871 57.5835 26.1007C57.9924 26.5143 58.6467 27.3414 58.9739 27.755C58.4832 28.0859 57.5835 28.4994 57.0109 28.6649C57.2563 29.1612 57.5835 30.1538 57.747 30.7328C57.1745 30.8155 56.3566 30.8982 55.5387 30.8982C55.5387 31.4772 55.4569 32.4698 55.3751 33.0488C54.639 32.9661 53.7393 32.6352 53.3304 32.4698C53.085 33.297 52.5943 34.1241 52.5943 34.2068C51.8581 33.3797 51.122 33.0488 50.5495 33.0488V32.4698C51.2038 32.4698 51.8581 32.718 52.4307 33.2143C52.676 32.8007 52.9214 31.9735 53.0032 31.5599C53.4939 31.8081 54.2301 32.0562 54.8844 32.2217C54.9662 31.6426 54.9662 30.8982 54.8844 30.2365C55.5387 30.3192 56.2748 30.3192 57.0109 30.1538C56.9291 29.6575 56.4384 28.7476 56.1112 28.2513C56.7656 28.0859 57.5835 27.755 57.9924 27.5068C57.6653 27.0105 57.0109 26.3488 56.602 26.018C57.0927 25.6871 57.8288 25.0254 58.156 24.6945C57.6653 24.3636 56.9291 23.9501 56.3566 23.7846C57.1745 22.6266 57.3381 20.3106 57.1745 19.2352C56.4384 21.7167 54.3118 23.4538 53.085 24.2809C53.0032 24.3636 52.9214 24.3636 52.9214 24.4464C52.8396 24.5291 52.5942 24.7772 52.7578 25.1908C52.7578 25.2735 52.8396 25.3562 52.8396 25.4389C52.9214 25.9352 52.9214 26.6797 52.2671 27.3414C51.6946 27.9204 50.9584 27.9204 50.5495 27.8377V26.5143C50.5495 26.3488 50.3859 26.1834 50.2223 26.1834H49.3226L48.9137 25.7698C48.9137 25.7698 49.3226 25.7698 49.8134 25.7698C50.3041 25.7698 50.7949 25.5217 50.7949 25.5217C50.7949 25.5217 50.3041 25.5217 49.977 25.4389C49.7316 25.3562 49.0773 25.1081 48.5047 24.5291C48.3412 24.2809 48.1776 24.0328 48.014 23.7846C47.5232 23.371 47.0325 22.792 46.7053 22.0476C46.46 21.5513 46.3782 20.7241 46.2964 20.2278C46.1328 20.3933 45.9692 20.5587 45.7239 20.8896C45.3149 21.4686 45.1513 22.213 45.1513 22.213L44.9877 22.792L44.6606 22.2957C44.6606 22.2957 44.2516 21.634 44.1698 20.7241C44.1698 20.3106 44.1698 19.9797 44.2516 19.6488C44.0881 19.7315 43.9245 19.8143 43.7609 19.9797C43.0248 20.476 42.6976 21.055 42.6976 21.055C42.2887 21.5513 42.1251 21.9649 42.0433 22.1303C41.9615 21.8822 41.7979 21.5513 41.389 21.055C41.389 21.055 40.98 20.476 40.3257 19.9797C40.1621 19.897 39.9985 19.7315 39.8349 19.6488C39.8349 19.9797 39.9167 20.3106 39.9167 20.7241C39.835 21.634 39.426 22.2957 39.426 22.2957L39.0988 22.792L38.9353 22.213C38.9353 22.213 38.6899 21.3859 38.3627 20.8896C38.1174 20.5587 37.9538 20.3933 37.7902 20.2278C37.7084 20.7241 37.6266 21.5513 37.3812 22.0476C37.0541 22.792 36.5633 23.371 36.0726 23.7846C35.9908 24.0328 35.8272 24.2809 35.5819 24.5291C35.0911 25.1908 34.355 25.4389 34.1096 25.4389C33.8643 25.5217 33.2917 25.5217 33.2917 25.5217C33.2917 25.5217 33.7825 25.7698 34.2732 25.7698C34.7639 25.7698 35.1729 25.7698 35.1729 25.7698L34.7639 26.1834H33.8643C33.7007 26.1834 33.5371 26.3488 33.5371 26.5143V27.8377C33.1281 27.9204 32.392 27.8377 31.8195 27.3414C31.1652 26.6797 31.1652 25.9352 31.247 25.4389C31.247 25.3562 31.3288 25.2735 31.3288 25.1908C31.4923 24.7772 31.1652 24.5291 31.1652 24.4464C31.0834 24.3636 31.0834 24.3636 31.0016 24.2809C29.6929 23.4538 27.6482 21.634 26.9121 19.2352C26.7485 20.3106 26.9939 22.6266 27.73 23.7846C27.1574 24.0328 26.4213 24.3636 25.9306 24.6945C26.2577 25.0254 26.9939 25.6871 27.4846 26.018C27.0757 26.3488 26.4213 27.0933 26.0942 27.5068C26.5031 27.755 27.321 28.0859 27.9753 28.2513C27.6482 28.7476 27.2392 29.6575 27.0757 30.1538C27.8118 30.3192 28.5479 30.3192 29.2022 30.2365C29.1204 30.8982 29.2022 31.6426 29.2022 32.2217C29.8565 32.1389 30.5926 31.8081 31.0834 31.5599C31.1652 31.9735 31.4105 32.8007 31.6559 33.2143C32.2284 32.718 32.8828 32.3871 33.5371 32.4698V33.0488C32.8828 33.0488 32.2284 33.3797 31.4923 34.2068C31.4923 34.1241 30.9198 33.297 30.7562 32.4698C30.3473 32.6352 29.4476 32.9661 28.7115 33.0488C28.6297 32.4698 28.5479 31.4772 28.5479 30.8982C27.73 30.8982 26.9121 30.8155 26.3395 30.7328C26.4213 30.071 26.8303 29.1612 27.0757 28.6649C26.5849 28.4994 25.6034 28.0859 25.1127 27.755C25.4398 27.2587 26.0942 26.5143 26.5031 26.1007C26.0124 25.6871 25.2763 25.0254 24.8673 24.5291C25.4398 24.1155 26.176 23.7846 26.8303 23.5365C26.4213 22.6266 26.0942 21.2204 26.176 20.3933C25.3581 19.5661 24.213 18.2427 23.7222 16.5056C23.1497 18.5735 23.2315 21.4686 25.1945 22.8747C24.213 22.8747 22.5772 23.1229 21.7593 23.371C22.3318 24.0328 23.804 25.1081 24.7037 25.5217C23.9676 25.7698 22.7408 26.4315 22.25 26.9278C22.9043 27.3414 24.3766 27.8377 25.1127 28.0031C24.7037 28.334 23.8858 29.3266 23.5587 29.8229C24.1312 29.9883 25.3581 30.1538 26.0942 30.2365C25.8488 30.7328 25.6034 31.6426 25.5216 32.2217C25.9306 32.2217 27.1574 32.2217 27.73 32.0562C27.6482 32.5525 27.73 33.4624 27.8118 33.876C28.3843 33.7933 29.284 33.5451 29.6929 33.3797C29.7747 33.876 30.2655 34.7859 30.3473 35.034C30.5926 34.9513 30.9198 34.8686 31.247 34.7859C32.0649 34.455 32.9646 34.8686 33.2917 35.613C33.8643 37.0192 33.6189 38.5908 32.4738 38.2599C31.1652 38.5081 32.0649 40.1624 31.3288 40.6587C32.3102 41.4031 32.6374 39.6661 33.8643 39.997C33.7007 40.6587 33.7825 41.734 33.8643 42.2303C34.2732 41.8994 34.8457 41.6513 35.2547 41.6513C35.1729 41.9822 35.0911 42.892 35.2547 43.3883C35.5001 43.2229 37.2177 42.7266 37.2177 42.7266C37.2177 42.7266 36.5633 44.0501 36.9723 45.3735C37.2177 45.5389 38.6899 44.7945 38.7717 44.2982C38.8535 44.8772 38.1991 46.0352 37.2177 46.2834C38.2809 47.3587 39.2624 47.276 39.3442 47.276C39.5078 47.276 39.6714 47.276 39.7532 47.1933C39.6714 47.5241 39.6714 47.855 39.6714 48.1859C39.7532 48.1859 39.8349 48.1859 39.8349 48.1859C40.0803 48.1859 40.3257 48.1031 40.5711 48.0204C40.5711 48.2686 40.7346 48.6821 40.98 48.8476C41.0618 48.9303 41.0618 48.9303 41.1436 48.9303C41.389 48.9303 41.9615 48.6821 42.1251 48.434C42.2887 48.5994 42.8612 48.9303 43.1066 48.9303C43.1884 48.9303 43.1884 48.8476 43.2701 48.8476C43.5155 48.5994 43.5973 48.2686 43.6791 48.0204C43.9245 48.1031 44.0881 48.1859 44.4152 48.1859C44.497 48.1859 44.5788 48.1859 44.5788 48.1859C44.6606 47.9377 44.5788 47.5241 44.497 47.1933C44.6606 47.276 44.7424 47.276 44.906 47.276C45.0695 47.276 45.9692 47.276 47.0325 46.2834C46.051 46.0352 45.3967 44.8772 45.4785 44.2982C45.4785 44.7945 47.0325 45.5389 47.2779 45.3735C47.6868 44.0501 47.0325 42.7266 47.0325 42.7266C47.0325 42.7266 48.6683 43.1402 48.9955 43.3883C49.1591 42.892 49.0773 41.9822 48.9955 41.6513C49.4044 41.6513 49.977 41.8994 50.3859 42.2303C50.4677 41.734 50.4677 40.6587 50.3859 39.997C51.6128 39.7488 51.9399 41.4031 52.9214 40.6587C52.1853 40.1624 53.085 38.4254 51.7763 38.2599C50.6313 38.5908 50.3859 36.9365 50.9584 35.613C51.2856 34.7859 52.2671 34.455 53.0032 34.7859C53.3304 34.8686 53.5757 34.9513 53.9029 35.034C54.0665 34.7859 54.4754 33.7933 54.5572 33.3797C54.9662 33.5451 55.8659 33.7933 56.4384 33.876C56.5202 33.4624 56.5202 32.5525 56.5202 32.0562C57.1745 32.2217 58.4014 32.2217 58.7285 32.2217C58.6467 31.6426 58.4014 30.7328 58.156 30.2365C58.8921 30.1538 60.119 30.071 60.6915 29.8229C60.3643 29.3266 59.5464 28.334 59.1375 28.0031C59.8736 27.8377 61.3458 27.3414 62.0001 26.9278C61.264 26.5143 60.0372 25.8525 59.3829 25.5217ZM49.8134 39.0044C49.8134 39.0871 49.7316 39.1698 49.6498 39.3352L49.568 39.418C49.4862 39.5007 49.4862 39.5834 49.4044 39.6661L49.3226 39.7488C49.2408 39.8315 49.1591 39.9142 49.0773 40.0797C48.9955 40.1624 48.9137 40.2451 48.9137 40.2451C48.8319 40.3278 48.8319 40.3278 48.7501 40.4105C48.6683 40.4933 48.5865 40.576 48.5047 40.6587C48.4229 40.6587 48.4229 40.7414 48.3412 40.7414C48.1776 40.9068 47.9322 41.0723 47.6868 41.2377C47.3597 41.4859 47.1143 41.6513 46.7871 41.8167C46.7053 41.8994 46.5418 41.9821 46.46 41.9821C43.8427 43.3883 42.534 44.3809 42.1251 44.7945C41.7161 44.4636 40.4075 43.3883 37.7902 41.9821C37.7084 41.8994 37.5448 41.8167 37.463 41.8167C37.1359 41.6513 36.8087 41.4031 36.5633 41.2377C36.318 41.0723 36.1544 40.9068 35.909 40.7414C35.8272 40.7414 35.8272 40.6587 35.7454 40.6587C35.5819 40.4933 35.5001 40.4105 35.5001 40.3278C35.4183 40.2451 35.4183 40.2451 35.3365 40.1624C35.2547 40.0797 35.1729 39.997 35.1729 39.997C35.0911 39.9143 35.0093 39.8315 34.9275 39.6661L34.8457 39.5834C34.7639 39.5007 34.7639 39.418 34.6822 39.3352L34.6004 39.2525C34.5186 39.1698 34.5186 39.0871 34.4368 38.9217C34.1096 38.1772 34.1096 37.5155 34.1096 37.5155V27.0933C34.1096 26.9278 34.2732 26.7624 34.4368 26.7624H35.3365H42.1251H48.9137H49.8134C49.977 26.7624 50.1405 26.9278 50.1405 27.0933V37.5155C50.0588 37.5982 50.1405 38.1772 49.8134 39.0044Z" fill="white"/>
<path d="M49.4881 10.3011C49.7334 10.3011 49.897 10.1358 49.897 9.88786C49.897 9.63991 49.7334 9.47461 49.4881 9.47461C49.2427 9.47461 49.0791 9.63991 49.0791 9.88786C49.0791 10.1358 49.2427 10.3011 49.4881 10.3011Z" fill="white"/>
<path d="M49.4873 12.5353C49.7327 12.5353 49.9781 11.5427 49.9781 11.0464C49.9781 10.7982 49.7327 10.6328 49.4873 10.6328C49.242 10.6328 48.9966 10.7982 48.9966 11.0464C48.9966 11.5427 49.242 12.5353 49.4873 12.5353Z" fill="white"/>
<path d="M49.2425 8.89577H49.7332L49.6514 8.23405L50.3057 8.31676V7.82047L49.6514 7.90318L49.7332 7.24146H49.2425V7.90318L48.6699 7.82047V8.31676L49.2425 8.23405V8.89577Z" fill="white"/>
<path d="M47.197 13.776C47.3606 13.776 47.5242 13.8587 47.7696 13.8587C47.7696 13.8587 47.7696 13.8587 47.8514 13.8587H47.9332H48.0149H48.0967C48.1785 13.8587 48.1785 13.8587 48.2603 13.8587H48.3421C48.4239 13.8587 48.4239 13.8587 48.5057 13.8587C48.9964 13.8587 49.4872 13.6933 49.8961 13.6105C50.3869 13.5278 50.8776 13.3624 51.3684 13.3624H51.4501H51.5319H51.6137C51.6137 13.3624 51.6137 13.3624 51.6955 13.3624C51.8591 12.8661 51.9409 12.2044 51.9409 11.8735C51.9409 11.1291 51.5319 10.3846 50.1415 10.1365C50.1415 11.0464 49.7325 13.1143 49.2418 13.1143H49.4054C48.9146 13.1143 48.5057 10.9636 48.5057 10.1365C47.1152 10.3846 46.7881 11.1291 46.7881 11.8735C46.7881 12.2871 46.9517 13.0315 47.1152 13.6105C47.1152 13.6933 47.1152 13.6933 47.197 13.776Z" fill="white"/>
<path d="M54.2287 9.97129C54.2287 9.97129 53.8198 8.9787 54.4741 8.73055C55.1284 8.4824 54.3105 8.64783 54.7195 7.32438C55.292 5.75277 56.4371 6.08363 56.4371 6.08363C55.6191 5.42191 54.9648 5.50462 54.5559 5.83549C54.3105 6.08363 53.9015 6.49722 53.5744 7.48981C53.1654 8.73055 53.5744 9.88857 54.2287 9.97129Z" fill="white"/>
<path d="M57.337 7.65493C57.4188 9.64011 60.6904 10.4673 60.6904 10.4673C60.6904 10.4673 58.8092 9.0611 59.2182 8.06851C59.2182 8.06851 60.445 8.64752 61.9173 8.39937C58.891 7.73764 59.8725 6.82777 59.1364 6.00061C58.4003 5.17345 57.1734 5.09073 56.928 5.09073C56.1919 5.00801 56.1101 5.00801 55.2104 5.25616C57.0916 5.25616 57.2552 6.33147 57.337 7.65493Z" fill="white"/>
<path d="M56.8476 11.3773C57.2565 9.80565 56.5204 9.14392 56.5204 9.14392C56.2751 8.89578 55.0482 8.89578 54.6393 9.22664C54.6393 9.22664 55.7843 9.22664 55.6207 10.9637C55.4572 12.7007 53.0852 13.0316 52.4309 13.1143L52.3491 13.3624C53.4124 13.2797 56.4386 12.9489 56.8476 11.3773Z" fill="white"/>
<path d="M44.5799 11.2944H43.353C43.9256 12.9488 45.6432 13.5278 46.7882 13.6932L46.7064 13.5278C45.5614 13.0315 44.907 12.5352 44.5799 11.2944Z" fill="white"/>
<path d="M34.7634 10.3011C35.0088 10.3011 35.1724 10.1358 35.1724 9.88786C35.1724 9.63991 35.0088 9.47461 34.7634 9.47461C34.5181 9.47461 34.3545 9.63991 34.3545 9.88786C34.3545 10.1358 34.5181 10.3011 34.7634 10.3011Z" fill="white"/>
<path d="M34.7627 12.5353C35.0081 12.5353 35.2535 11.5427 35.2535 11.0464C35.2535 10.7982 35.0081 10.6328 34.7627 10.6328C34.5173 10.6328 34.272 10.7982 34.272 11.0464C34.272 11.5427 34.4356 12.5353 34.7627 12.5353Z" fill="white"/>
<path d="M34.5213 8.89577H35.012L34.9302 8.23405L35.5845 8.31676V7.82047L34.9302 7.90318L35.012 7.24146H34.5213V7.90318L33.9487 7.82047V8.31676L34.5213 8.23405V8.89577Z" fill="white"/>
<path d="M32.3933 13.3624H32.4751H32.5569H32.6387C33.1294 13.3624 33.702 13.5279 34.1109 13.6106C34.5199 13.6933 35.0106 13.8587 35.5014 13.8587C35.5832 13.8587 35.5832 13.8587 35.6649 13.8587H35.7467C35.8285 13.8587 35.8285 13.8587 35.9103 13.8587H35.9921H36.0739H36.1557C36.1557 13.8587 36.1557 13.8587 36.2375 13.8587C36.4011 13.8587 36.6464 13.776 36.81 13.776V13.6933C36.9736 13.197 37.1372 12.3699 37.1372 11.9563C37.1372 11.2118 36.7282 10.4674 35.4196 10.2192C35.4196 11.0464 35.0106 13.197 34.5199 13.197H34.6835C34.1927 13.197 33.7838 11.1291 33.7838 10.2192C32.3933 10.4674 31.9844 11.2118 31.9844 11.9563C32.0662 12.2871 32.148 12.8661 32.3933 13.3624C32.3115 13.4452 32.3933 13.3624 32.3933 13.3624Z" fill="white"/>
<path d="M27.7319 6.08363C27.7319 6.08363 28.9588 5.75277 29.4495 7.32438C29.9403 8.64783 29.0406 8.4824 29.6949 8.73055C30.3492 8.9787 29.9403 9.97129 29.9403 9.97129C30.5946 9.88857 31.0035 8.73055 30.5946 7.48981C30.2674 6.49722 29.8585 6.08363 29.6131 5.83549C29.2042 5.50462 28.5498 5.42191 27.7319 6.08363Z" fill="white"/>
<path d="M25.0323 8.0686C25.4413 9.06119 23.5601 10.4674 23.5601 10.4674C23.5601 10.4674 26.8317 9.6402 26.9135 7.65502C26.9135 6.33156 27.1589 5.25625 29.1218 5.25625C28.2222 5.09082 28.1404 5.09082 27.4043 5.09082C27.1589 5.09082 25.932 5.17354 25.1959 6.0007C24.4598 6.82786 25.4413 7.73773 22.415 8.39946C23.8055 8.56489 25.0323 8.0686 25.0323 8.0686Z" fill="white"/>
<path d="M28.6302 10.8809C28.4667 9.14388 29.6117 9.14388 29.6117 9.14388C29.2028 8.81301 27.8941 8.81301 27.7305 9.06116C27.7305 9.06116 26.9126 9.72289 27.4034 11.2945C27.8123 12.8661 30.8386 13.197 31.9019 13.197L31.8201 12.9488C31.1657 12.9488 28.7938 12.6179 28.6302 10.8809Z" fill="white"/>
<path d="M40.8156 11.2944H39.5887C39.1798 12.5352 38.6072 13.0315 37.4622 13.4451L37.3804 13.6105C38.6072 13.5278 40.243 12.9488 40.8156 11.2944Z" fill="white"/>
<path d="M43.597 18.6561C43.2698 19.2351 42.9426 19.8141 42.6973 20.3931C42.8608 20.145 43.188 19.8968 43.5152 19.7314C44.0877 19.3178 44.4967 19.1524 44.4967 19.1524L44.9874 18.987L44.9056 19.4833C44.9056 19.4833 44.742 20.2277 44.742 20.9721C44.742 21.303 44.8238 21.5512 44.9056 21.7993C44.9874 21.5512 45.151 21.2203 45.3963 20.8894C45.9689 20.145 46.4596 19.8141 46.4596 19.8141L46.7868 19.6487V20.0623C46.7868 20.0623 46.8686 21.4684 47.1957 22.1302C47.7683 23.3709 48.7498 24.0326 49.3223 24.2808C49.2405 24.1981 49.1587 24.1154 48.9951 23.9499C48.7498 23.6191 48.4226 23.1228 48.259 21.9647C48.0954 20.9721 48.5044 20.0623 48.668 19.7314C48.7498 19.9796 48.8315 20.2277 48.9951 20.3104C48.9951 20.3104 48.9951 20.0623 49.0769 19.8141C49.1587 19.1524 49.8948 18.1598 50.8763 17.4981C51.0399 17.3326 51.2035 17.2499 51.367 17.1672C51.5306 17.0845 51.6124 17.0018 51.776 16.9191C51.6124 16.9191 51.367 17.0018 51.2035 17.0018H51.1217C50.9581 17.0018 50.7945 17.0018 50.6309 17.0018C50.222 17.0018 49.6494 16.9191 49.2405 16.5882C48.8315 16.2573 48.668 15.8438 48.5862 15.5956C48.4226 15.5956 48.1772 15.5956 47.8501 15.5956C47.5229 15.5956 47.1957 15.5129 47.0322 15.4302C46.5414 15.761 46.0507 15.8438 45.4781 15.8438C45.3963 15.8438 45.3146 15.8438 45.2328 15.8438C45.3963 16.0092 45.6417 16.0919 45.8871 16.2573L45.7235 16.3401C45.6417 16.2573 44.9056 16.7536 43.597 18.6561Z" fill="white"/>
<path d="M51.3682 15.2649C51.1228 15.2649 50.9592 15.2649 50.7139 15.2649C50.7139 15.4302 50.7139 15.5128 50.7139 15.6781C50.7139 15.8434 50.8775 16.0088 50.9592 16.0914C51.1228 15.9261 51.2864 15.6781 51.3682 15.2649Z" fill="white"/>
<path d="M51.7771 13.9416C51.6953 13.9416 51.6953 13.9416 51.6953 13.9416C51.6135 13.9416 51.6135 13.9416 51.5317 13.9416C51.041 13.9416 50.632 14.107 50.1413 14.1897C49.6505 14.2724 49.1598 14.4379 48.6691 14.4379C48.5873 14.4379 48.5055 14.4379 48.3419 14.4379C48.2601 14.4379 48.2601 14.4379 48.1783 14.4379H48.0965H48.0147C46.9515 14.2724 46.2153 13.9416 45.8882 13.7761C45.97 13.8588 46.0518 14.0243 46.2153 14.1897C46.2971 14.2724 46.2971 14.2724 46.3789 14.3551C46.5425 14.4379 46.7061 14.6033 46.8697 14.686C47.115 14.8514 48.0965 15.1823 49.4052 15.0169C50.8774 14.7687 51.1228 14.8514 51.5317 14.8514H51.6953C52.186 14.8514 53.004 15.265 53.2493 15.4304C53.4129 15.1823 53.4947 14.8514 53.5765 14.5206C53.4947 14.4379 53.4129 14.3551 53.1675 14.2724C53.0857 14.2724 53.004 14.1897 52.9222 14.1897C52.7586 14.107 52.595 14.107 52.4314 14.0243C52.0225 13.9416 51.9407 13.9416 51.7771 13.9416Z" fill="white"/>
<path d="M55.9463 18.8216C55.8645 18.8216 55.3737 19.1525 54.2287 18.408C53.0836 17.6636 52.2657 17.3327 51.7749 17.25C51.6932 17.3327 51.6114 17.4154 51.4478 17.4154C51.2842 17.4981 51.2024 17.5809 50.957 17.7463C50.8752 17.7463 50.8752 17.829 50.7935 17.9117H50.8752C51.9385 17.9944 52.7564 18.6562 52.8382 18.9043C52.92 18.5735 52.8382 18.2426 52.8382 18.2426C52.8382 18.2426 53.329 18.5735 54.3104 19.0698C55.3737 19.6488 55.7827 19.0697 55.9463 18.8216Z" fill="white"/>
<path d="M50.3045 15.844C50.2227 15.7612 50.1409 15.6785 50.1409 15.5958C50.0591 15.5131 50.0591 15.4304 50.0591 15.3477C49.8138 15.3477 49.5684 15.4304 49.1594 15.4304C49.0776 15.4304 48.9959 15.4304 48.9141 15.4304C49.0776 15.7612 49.4048 16.1748 49.9773 16.2575H50.0591H50.1409C50.3863 16.2575 50.6317 16.3402 50.877 16.3402C51.286 16.3402 51.7767 16.2575 52.1857 16.1748C52.2675 16.0094 52.3493 15.9267 52.5128 15.7612C52.5128 15.7612 52.4311 15.7612 52.4311 15.6785C52.3493 15.5958 52.0221 15.4304 51.8585 15.3477C51.7767 15.5131 51.6949 15.6785 51.5314 15.844C51.3678 16.0094 51.1224 16.0094 50.877 16.0094C50.6317 16.0094 50.3863 15.9267 50.2227 15.844C50.3863 15.9267 50.3045 15.9267 50.3045 15.844Z" fill="white"/>
<path d="M53.4932 15.0166C53.1661 15.9265 52.5935 16.6709 52.1846 17.0018C54.8019 16.2573 55.2926 17.6635 55.2926 17.6635C55.2926 17.7462 55.2926 17.7462 55.3744 17.6635C55.4562 17.5808 56.2741 16.6709 55.7016 15.761C55.0472 15.0993 53.8204 15.0166 53.4932 15.0166ZM53.4932 15.6783C53.575 15.5129 53.6568 15.3475 53.6568 15.3475C53.8204 15.3475 54.2293 15.4302 54.2293 15.6783C53.984 15.5956 53.6568 15.5956 53.4932 15.6783Z" fill="white"/>
<path d="M33.5357 15.6781C33.5357 15.5955 33.5357 15.4302 33.5357 15.2649C33.2903 15.2649 33.0449 15.2649 32.8813 15.2649C32.9631 15.6781 33.1267 15.9261 33.2903 16.0088C33.3721 16.0088 33.4539 15.8435 33.5357 15.6781Z" fill="white"/>
<path d="M36.4807 14.355C36.3989 14.355 36.3989 14.355 36.3989 14.355H36.3171H36.2353C36.1535 14.355 36.1535 14.355 36.0717 14.355C35.9899 14.355 35.9081 14.355 35.7446 14.355C35.2538 14.355 34.7631 14.1896 34.2723 14.1069C33.7816 14.0242 33.3726 13.8587 32.8819 13.8587C32.8001 13.8587 32.8001 13.8587 32.7183 13.8587C32.6365 13.8587 32.473 13.8587 32.3912 13.8587C32.1458 13.8587 31.9822 13.9415 31.9004 14.0242C31.8186 14.0242 31.7368 14.1069 31.655 14.1069C31.4915 14.1896 31.3279 14.2723 31.2461 14.355C31.3279 14.6859 31.4915 15.0168 31.5733 15.2649C31.9004 15.0995 32.6365 14.7686 33.1273 14.6859H33.2909C33.618 14.6859 33.9452 14.6032 35.4174 14.8513C36.7261 15.0168 37.7075 14.6032 37.9529 14.5205C38.1165 14.4378 38.2801 14.2723 38.4437 14.1896C38.5254 14.1069 38.6072 14.1069 38.6072 14.0242C38.7708 13.8587 38.8526 13.776 38.9344 13.6106C38.2801 13.8587 37.544 14.1896 36.4807 14.355C36.5625 14.355 36.5625 14.355 36.4807 14.355Z" fill="white"/>
<path d="M28.2202 18.8216C28.3838 18.987 28.7927 19.6488 29.7742 19.0697C30.7557 18.4907 31.2465 18.2426 31.2465 18.2426C31.2465 18.2426 31.0829 18.4907 31.2465 18.9043C31.3282 18.6562 32.1462 17.9944 33.2094 17.9117C33.2912 17.9117 33.2912 17.9117 33.2912 17.9117C33.2094 17.829 33.2094 17.829 33.1276 17.7463C32.9641 17.5809 32.8005 17.4981 32.6369 17.4154C32.5551 17.3327 32.4733 17.3327 32.3097 17.25C31.819 17.3327 31.0011 17.6636 29.856 18.408C28.7927 19.1525 28.302 18.8216 28.2202 18.8216C28.302 18.8216 28.2202 18.8216 28.2202 18.8216Z" fill="white"/>
<path d="M32.2295 15.5132C32.0659 15.5959 31.7388 15.7613 31.657 15.844C31.5752 15.844 31.5752 15.844 31.5752 15.9268C31.657 16.0922 31.7388 16.2576 31.9024 16.3403C32.3931 16.4231 32.8838 16.5058 33.211 16.5058C33.4564 16.5058 33.7017 16.5058 33.9471 16.4231C34.0289 16.4231 34.0289 16.4231 34.0289 16.4231C34.1107 16.4231 34.1107 16.4231 34.1107 16.4231C34.6832 16.2576 35.0104 15.9268 35.174 15.5959C35.0922 15.5959 35.0104 15.5959 34.9286 15.5959C34.5196 15.5132 34.2743 15.5132 34.0289 15.5132C34.0289 15.5959 33.9471 15.6786 33.9471 15.7613C33.8653 15.844 33.8653 15.9268 33.7835 16.0095L33.7017 16.0922C33.5382 16.2576 33.2928 16.2576 33.0474 16.2576C32.8021 16.2576 32.5567 16.1749 32.3931 16.0922C32.3931 15.844 32.3113 15.6786 32.2295 15.5132Z" fill="white"/>
<path d="M28.548 15.8438C27.8937 16.7536 28.7933 17.6635 28.8751 17.7462C28.8751 17.829 28.9569 17.7462 28.9569 17.7462C28.9569 17.6635 29.4477 16.3401 32.065 17.0845C31.656 16.7536 31.0835 16.0092 30.7563 15.0993C30.3474 15.0166 29.1205 15.0993 28.548 15.8438ZM30.7563 15.6783C30.5109 15.5956 30.2656 15.5956 30.0202 15.5956C30.0202 15.3475 30.3474 15.2648 30.5927 15.2648C30.5927 15.3475 30.6745 15.5956 30.7563 15.6783Z" fill="white"/>
<path d="M39.0159 15.8438C38.9341 15.8438 38.8523 15.8438 38.7705 15.8438C38.198 15.8438 37.7072 15.6783 37.2165 15.4302C37.0529 15.5129 36.7258 15.5129 36.3986 15.5956C36.0714 15.5956 35.8261 15.5956 35.6625 15.5956C35.5807 15.8438 35.4171 16.2573 35.0082 16.5882C34.5992 16.9191 34.0267 17.0018 33.6177 17.0018C33.3724 17.0018 33.2088 17.0018 33.127 17.0018H33.0452C32.8816 17.0018 32.6362 16.9191 32.4727 16.9191C32.6362 17.0018 32.7998 17.0845 32.8816 17.1672C33.0452 17.2499 33.2088 17.3326 33.3724 17.4981C34.272 18.1598 35.0082 19.1524 35.1717 19.8141C35.2535 20.0623 35.1717 20.3104 35.2535 20.3104C35.4171 20.2277 35.4989 19.9796 35.5807 19.7314C35.7443 19.9796 36.0714 20.9721 35.9896 21.9647C35.8261 23.1228 35.4989 23.6191 35.2535 23.9499C35.1717 24.1154 35.0082 24.1981 34.9264 24.2808C35.4989 23.9499 36.4804 23.3709 37.0529 22.1302C37.3801 21.4684 37.4619 20.0623 37.4619 20.0623V19.6487L37.789 19.8141C37.789 19.8141 38.2798 20.0623 38.8523 20.8894C39.0159 21.1376 39.1795 21.4684 39.3431 21.7993C39.4248 21.5512 39.5066 21.303 39.5066 20.9721C39.5884 20.3104 39.4248 19.566 39.3431 19.4833L39.2613 18.987L39.752 19.1524C39.752 19.1524 40.2427 19.3178 40.7335 19.7314C41.0607 19.9796 41.306 20.2277 41.5514 20.3931C41.306 19.8141 41.0607 19.2351 40.6517 18.6561C39.4248 16.7536 38.6069 16.3401 38.6069 16.3401L38.4434 16.2573C38.6887 16.0919 38.8523 16.0092 39.0159 15.8438Z" fill="white"/>
</g>
<defs>
<clipPath id="clip0_54_79">
<rect width="50.7918" height="57.3222" fill="white" transform="translate(16.689 0.789551)"/>
</clipPath>
</defs>
</svg>
