<svg width="301" height="59" viewBox="0 0 301 59" fill="none" xmlns="http://www.w3.org/2000/svg">
<g clip-path="url(#clip0_524:256)">
<path d="M0 16.2437C0 11.5759 3.84215 7.74842 8.52771 7.74842C13.2133 7.74842 17.0554 11.5759 17.0554 16.2437C17.0554 16.8038 16.9617 17.2706 16.868 17.8307C15.4623 17.2706 13.963 16.8972 12.4636 16.8972C8.34029 16.8972 4.68555 19.1377 2.62391 22.4051C1.03082 20.818 0 18.6709 0 16.2437ZM14.2441 28.3797C14.2441 25.6725 15.1812 23.1519 16.868 21.1915C15.556 20.4446 14.0567 19.9778 12.4636 19.9778C7.77802 19.9778 3.93587 23.8054 3.93587 28.4731C3.93587 33.1408 7.77802 36.9684 12.4636 36.9684C14.0567 36.9684 15.6497 36.5016 16.868 35.7547C15.2749 33.6076 14.2441 31.087 14.2441 28.3797ZM29.7064 27.6329C25.5831 27.6329 21.9284 25.3924 19.9605 22.125C18.2737 23.712 17.2428 25.8592 17.2428 28.2864C17.2428 32.9541 21.085 36.7816 25.7705 36.7816C30.4561 36.7816 34.2983 32.9541 34.2983 28.2864C34.2983 27.7263 34.2045 27.2595 34.1108 26.6994C32.7052 27.3528 31.2058 27.6329 29.7064 27.6329ZM30.5498 7.84177C30.5498 8.02848 30.5498 8.30855 30.5498 8.49525C30.5498 13.8165 26.8014 18.2975 21.8347 19.6044C23.1466 22.6851 26.1454 24.8323 29.7064 24.8323C34.392 24.8323 38.2341 21.0047 38.2341 16.337C38.1404 11.856 34.7668 8.21519 30.5498 7.84177ZM19.1171 0C15.556 0 12.5573 2.14715 11.2453 5.22785C16.212 6.44146 19.9605 10.9225 19.9605 16.337C19.9605 16.5237 19.9605 16.8038 19.9605 16.9905C24.2712 16.5237 27.6448 12.9763 27.6448 8.58861C27.5511 3.82753 23.8026 0 19.1171 0Z" fill="white"/>
<path d="M53.134 8.96224C52.8529 8.96224 52.2906 9.14894 52.1969 9.2423C52.1032 9.33565 51.9158 9.70907 51.9158 10.5493C51.9158 11.2961 51.9158 15.5904 51.8221 19.6046C51.8221 22.7787 51.9158 25.1126 51.9158 25.9527C51.9158 28.0999 52.0095 28.7534 54.0712 29.2201C54.8208 29.4069 55.102 29.6869 55.102 29.967C55.102 30.247 54.5397 30.4338 53.9774 30.4338C53.0403 30.4338 51.0724 30.247 49.4793 30.247C48.4485 30.247 46.7617 30.4338 45.6372 30.4338C44.7938 30.4338 44.3252 30.247 44.3252 29.8736C44.3252 29.5936 44.7938 29.3135 45.1686 29.2201C46.8554 28.7534 47.3239 28.2866 47.4177 26.6062C47.5114 25.2059 47.6051 22.872 47.6051 21.0983C47.6051 19.9781 47.6051 12.0429 47.5114 11.1094C47.4177 9.89578 47.2302 9.33565 45.2623 9.05559C44.7938 8.96224 44.4189 8.77553 44.4189 8.49546C44.4189 8.2154 44.7 8.02869 45.1686 7.93534C45.356 7.93534 46.012 7.93534 46.2931 7.93534C48.5422 7.93534 51.4472 7.65527 53.0403 7.65527C56.4139 7.65527 58.7567 8.30875 60.1624 9.70907C61.8492 11.2961 62.224 13.2565 62.224 14.4701C62.224 17.3641 60.9121 18.9512 59.8812 19.7914C58.9441 20.5382 56.9762 21.3784 55.6642 21.3784C55.2894 21.3784 54.2586 21.285 53.79 21.0983C53.3215 20.9116 53.0403 20.7249 53.0403 20.3515C53.0403 20.1648 53.3215 19.9781 53.6026 19.9781C53.8837 19.9781 53.9774 19.9781 54.1649 19.9781C55.6642 19.9781 57.8196 18.2043 57.8196 14.5635C57.9133 11.9496 56.0391 8.96224 53.134 8.96224Z" fill="white"/>
<path d="M89.3067 18.8575C89.3067 23.4319 87.3388 26.4193 84.8086 28.4731C82.747 30.0601 79.7482 30.9936 77.0306 30.9936C73.2821 30.9936 70.096 29.5933 67.8469 27.2594C65.9727 25.2056 64.8481 22.405 64.8481 19.231C64.8481 14.9367 66.7224 12.2294 69.44 10.0822C71.0331 8.86862 74.0318 7.56166 76.9369 7.56166C84.8086 7.46831 89.3067 13.2563 89.3067 18.8575ZM72.0639 10.549C70.8457 11.6693 69.6274 14.2832 69.6274 18.3908C69.6274 23.8053 72.9073 29.6867 78.1551 29.6867C80.1231 29.6867 81.3413 28.6598 81.7161 28.2863C83.2155 26.7927 84.4338 23.8053 84.4338 19.9778C84.4338 17.1772 83.3092 12.9762 80.779 10.6424C79.5608 9.61546 77.6866 8.77527 76.0935 8.77527C74.5004 8.68191 72.9073 9.70881 72.0639 10.549Z" fill="white"/>
<path d="M110.391 8.02848C111.235 8.21519 112.078 8.49525 112.922 8.58861C113.203 8.58861 113.484 9.05538 113.484 9.52215C113.484 10.5491 113.578 11.7627 113.671 12.7896C113.671 13.5364 113.484 14.0965 113.109 14.0965C112.922 14.0965 112.641 13.6297 112.453 13.163C112.078 12.0427 111.61 11.1092 110.954 10.6424C109.454 9.33544 107.674 8.58861 105.706 8.58861C100.083 8.58861 97.4593 13.0696 97.4593 18.3908C97.4593 20.7247 97.9279 22.7785 98.6776 24.3655C100.646 28.193 103.832 29.5934 106.549 29.5934C107.018 29.5934 108.705 29.5 110.017 28.7532C111.329 28.0063 112.266 26.9794 113.109 25.5791C113.578 24.8323 113.765 24.4589 114.046 24.4589C114.421 24.4589 114.421 25.3924 114.327 25.7658C114.14 26.606 113.578 28.193 113.297 28.8465C113.203 29.1266 112.547 29.6867 111.985 29.9668C111.516 30.1535 109.08 30.9937 105.8 30.9937C100.552 30.9937 96.8971 28.6598 95.3977 26.9794C94.0857 25.3924 92.3989 22.9652 92.3989 19.0443C92.3989 14.75 94.8354 11.7627 96.3348 10.5491C99.3336 8.12184 102.988 7.375 105.893 7.375C107.393 7.46835 109.173 7.74842 110.391 8.02848Z" fill="white"/>
<path d="M117.607 7.84177C118.451 7.84177 120.138 8.02848 121.262 8.02848C122.293 8.02848 124.355 7.84177 125.198 7.84177C125.948 7.84177 126.322 8.02848 126.322 8.30854C126.322 8.58861 125.76 8.77532 125.385 8.86867C123.98 9.24209 123.699 9.4288 123.605 11.0158C123.511 12.3228 123.605 16.2437 123.605 17.9241C123.605 18.1108 123.699 18.2975 123.886 18.2975C125.76 18.1108 126.978 17.5506 128.197 15.4968C129.228 13.9098 129.883 12.5095 130.821 11.2025C132.226 8.86867 133.913 7.375 135.881 7.375C137.099 7.375 137.755 7.84177 137.755 8.86867C137.755 9.14873 137.474 9.80221 137.287 9.98892C137.006 10.269 136.724 10.3623 136.256 10.269C135.881 10.1756 135.412 10.0823 135.038 10.0823C132.976 10.0823 132.039 11.5759 131.008 13.0696C129.977 14.6566 129.228 15.8703 128.665 16.6171C128.665 16.7104 128.665 16.8038 128.665 16.8972C129.509 18.4842 132.601 23.432 134.194 25.4858C136.537 28.5665 137.474 28.7532 139.348 29.2199C139.536 29.3133 139.911 29.4066 139.911 29.5934C139.911 29.8734 139.723 30.1535 139.161 30.2468C138.692 30.4335 137.849 30.4335 137.006 30.4335C133.913 30.4335 132.414 29.9668 131.008 28.0997C129.696 26.5127 128.197 24.1788 126.604 21.6582C125.479 19.7911 125.01 19.231 123.886 19.1377C123.699 19.1377 123.699 19.4177 123.605 19.6044C123.605 22.4984 123.699 26.1392 123.792 27.4462C123.792 28.193 123.98 28.6598 125.573 29.0332C126.229 29.2199 126.604 29.5 126.604 29.7801C126.604 30.0601 126.041 30.3402 125.479 30.3402C124.729 30.3402 122.293 30.2468 121.168 30.2468C120.044 30.2468 118.263 30.4335 117.139 30.4335C116.577 30.4335 116.202 30.1535 116.202 29.8734C116.202 29.5934 116.483 29.4066 117.232 29.2199C118.919 28.8465 119.294 28.3797 119.388 26.2326C119.482 24.4589 119.482 22.0316 119.482 18.2975C119.482 14.1899 119.388 12.8829 119.388 11.5759C119.388 9.89557 119.013 9.4288 117.795 9.14873C116.858 8.86867 116.67 8.68196 116.67 8.4019C116.577 8.02848 117.139 7.84177 117.607 7.84177Z" fill="white"/>
<path d="M163.807 18.8575C163.807 23.4319 161.839 26.4193 159.309 28.4731C157.341 30.0601 154.248 30.9936 151.531 30.9936C147.782 30.9936 144.596 29.5933 142.347 27.2594C140.473 25.2056 139.348 22.405 139.348 19.231C139.348 14.9367 141.222 12.2294 143.94 10.0822C145.533 8.86862 148.532 7.56166 151.437 7.56166C159.309 7.46831 163.807 13.2563 163.807 18.8575ZM146.658 10.549C145.439 11.6693 144.221 14.2832 144.221 18.3908C144.221 23.8053 147.501 29.6867 152.749 29.6867C154.717 29.6867 155.935 28.6598 156.31 28.2863C157.809 26.7927 159.027 23.8053 159.027 19.9778C159.027 17.1772 157.903 12.9762 155.373 10.6424C154.155 9.61546 152.28 8.77527 150.687 8.77527C149.094 8.68191 147.501 9.70881 146.658 10.549Z" fill="white"/>
<path d="M173.365 18.1109C175.802 18.1109 180.394 17.9242 184.142 17.9242C184.329 17.9242 184.423 17.5507 184.423 17.084C184.517 16.6172 184.517 12.5096 184.329 11.1093C184.142 9.80233 184.048 9.52227 182.643 9.0555C182.174 8.96214 181.612 8.68208 181.612 8.30866C181.612 8.0286 181.987 7.84189 182.736 7.84189C183.205 7.84189 185.829 7.93524 186.766 7.93524C187.89 7.93524 190.14 7.74854 190.514 7.74854C191.17 7.74854 191.639 7.93524 191.639 8.21531C191.639 8.58873 191.358 8.77543 190.514 8.96214C189.202 9.24221 189.015 9.80233 188.921 10.8292C188.734 12.5096 188.64 15.6837 188.64 20.6314C188.64 24.0856 188.734 25.9527 188.828 27.0729C188.828 28.4732 189.202 28.5666 190.608 29.0333C191.264 29.2201 191.639 29.5001 191.639 29.7802C191.639 30.1536 191.17 30.247 190.514 30.247C189.952 30.247 187.984 30.1536 186.953 30.1536C186.204 30.1536 183.392 30.3403 182.643 30.3403C181.799 30.3403 181.424 30.1536 181.424 29.8735C181.424 29.5935 181.893 29.3134 182.362 29.1267C184.048 28.6599 184.142 28.3799 184.329 25.7659C184.423 24.3656 184.517 21.0049 184.423 20.0713C184.423 19.7913 184.236 19.6045 184.142 19.6045C181.331 19.6045 174.115 19.5112 173.365 19.6045C173.178 19.6045 172.897 19.8846 172.897 20.1647C172.803 21.4716 172.897 25.2058 172.897 26.3261C172.897 28.0064 173.178 28.4732 174.584 28.94C175.333 29.1267 175.802 29.4068 175.802 29.7802C175.802 30.1536 175.146 30.247 174.677 30.247C174.396 30.247 171.491 30.1536 170.273 30.1536C169.429 30.1536 167.649 30.3403 166.431 30.3403C165.494 30.3403 165.212 30.1536 165.212 29.8735C165.212 29.5001 165.587 29.3134 166.243 29.1267C167.836 28.6599 168.117 28.2865 168.305 26.7928C168.492 25.3925 168.586 20.1647 168.586 15.3102C168.586 14.2833 168.68 12.3229 168.586 10.9226C168.492 9.80233 168.211 9.33556 166.993 9.0555C166.243 8.96214 165.868 8.68208 165.868 8.40202C165.868 8.0286 166.337 7.93524 166.993 7.93524C167.93 7.93524 169.898 8.12195 170.835 8.12195C172.334 8.12195 173.928 8.0286 174.771 8.0286C175.521 8.0286 175.895 8.21531 175.895 8.49537C175.895 8.86879 175.427 9.0555 174.677 9.24221C173.178 9.52227 173.084 10.2691 173.084 11.6694C172.99 12.9764 172.897 16.9906 172.99 17.7375C172.99 17.9242 173.084 18.1109 173.365 18.1109Z" fill="white"/>
<path d="M211.037 7.8418C211.318 7.8418 211.506 8.02851 211.506 8.21522C211.412 9.24211 211.506 11.4826 211.506 12.6962C211.506 13.163 211.318 13.8165 211.037 13.8165C210.756 13.8165 210.381 13.6298 210.194 12.7896C209.725 11.2026 209.069 9.61553 207.757 9.52218C206.633 9.33547 204.009 9.42882 203.259 9.42882C202.51 9.42882 202.416 9.61553 202.416 9.98895C202.228 11.856 202.228 15.0301 202.228 17.3639C202.228 19.7912 202.228 24.5522 202.228 27.0728C202.228 28.5665 202.791 28.9399 204.477 29.3133C205.04 29.5 205.415 29.7801 205.415 30.0602C205.415 30.3402 204.946 30.6203 204.384 30.6203C203.54 30.6203 201.385 30.4336 199.979 30.4336C198.667 30.4336 196.418 30.6203 195.762 30.6203C195.2 30.6203 194.825 30.3402 194.825 30.1535C194.825 29.7801 195.294 29.5 195.856 29.4067C197.355 29.0333 197.543 28.4731 197.543 27.6329C197.637 26.5127 197.918 24.4589 197.918 17.5507C197.918 14.2833 197.918 12.1361 197.824 11.2026C197.73 10.0823 197.543 9.61553 196.137 9.33547C195.387 9.14876 195.106 8.8687 195.106 8.58863C195.106 8.30857 195.575 8.12186 196.137 8.12186C197.73 8.12186 199.042 8.21522 200.448 8.21522C201.854 8.21522 203.54 8.21522 205.04 8.21522C209.725 8.12186 210.569 7.93515 211.037 7.8418Z" fill="white"/>
<path d="M223.126 8.96224C222.845 8.96224 222.282 9.14894 222.189 9.2423C222.095 9.33565 221.908 9.70907 221.908 10.5493C221.908 11.2961 221.907 15.5904 221.814 19.6046C221.814 22.7787 221.908 25.1126 221.908 25.9527C221.908 28.0999 222.095 28.7534 224.063 29.2201C224.813 29.4069 225.094 29.6869 225.094 29.967C225.094 30.247 224.531 30.4338 223.969 30.4338C223.032 30.4338 221.064 30.247 219.471 30.247C218.44 30.247 216.753 30.4338 215.629 30.4338C214.785 30.4338 214.317 30.247 214.317 29.8736C214.317 29.5936 214.785 29.3135 215.16 29.2201C216.847 28.7534 217.316 28.2866 217.409 26.6062C217.503 25.2059 217.597 22.872 217.597 21.0983C217.597 19.9781 217.597 12.0429 217.503 11.1094C217.409 9.89578 217.222 9.33565 215.254 9.05559C214.785 8.96224 214.411 8.77553 214.411 8.49546C214.411 8.2154 214.692 8.02869 215.16 7.93534C215.348 7.93534 216.004 7.93534 216.285 7.93534C218.534 7.93534 221.439 7.65527 223.032 7.65527C226.406 7.65527 228.748 8.30875 230.154 9.70907C231.841 11.2961 232.216 13.2565 232.216 14.4701C232.216 17.3641 230.904 18.9512 229.873 19.7914C228.936 20.5382 226.968 21.3784 225.656 21.3784C225.281 21.3784 224.25 21.285 223.782 21.0983C223.313 20.9116 223.032 20.7249 223.032 20.3515C223.032 20.1648 223.313 19.9781 223.594 19.9781C223.875 19.9781 223.969 19.9781 224.157 19.9781C225.656 19.9781 227.811 18.2043 227.811 14.5635C227.905 11.9496 226.031 8.96224 223.126 8.96224Z" fill="white"/>
<path d="M247.585 8.12177C248.709 8.12177 250.209 7.93506 250.677 7.93506C250.865 7.93506 251.052 8.12177 251.146 8.40183C251.146 9.05531 251.146 11.4825 251.146 12.136C251.146 12.6028 250.865 13.1629 250.583 13.1629C250.302 13.1629 250.021 12.6028 249.928 12.3227C249.459 10.3623 248.522 9.80215 247.678 9.70879C247.022 9.61544 245.523 9.42873 242.805 9.52208C242.618 9.52208 242.337 9.70879 242.337 10.549C242.243 11.3892 242.149 16.337 242.149 18.2974C242.149 18.3908 242.337 18.6708 242.524 18.6708H245.336C247.866 18.6708 247.772 18.4841 248.428 16.9904C248.616 16.4303 248.897 16.0569 249.178 16.0569C249.459 16.0569 249.553 16.617 249.553 17.0838C249.459 18.1107 249.365 18.6708 249.365 19.511C249.365 20.4446 249.459 21.0047 249.553 21.9382C249.553 22.5917 249.365 22.9651 249.084 22.9651C248.803 22.9651 248.522 22.4983 248.428 22.2183C247.96 20.6313 247.491 20.4446 246.085 20.3512C244.961 20.2578 243.649 20.2578 242.524 20.2578C242.337 20.2578 242.056 20.6313 242.056 20.7246C241.868 21.7515 241.962 24.4588 241.962 25.579C241.962 26.4192 241.962 27.7262 242.149 28.473C242.243 28.7531 242.618 29.2199 242.899 29.3132C243.461 29.4066 244.586 29.4999 245.804 29.4999C246.835 29.4999 248.147 29.4999 249.084 29.2199C250.115 28.8464 251.146 28.0063 251.895 26.6059C252.364 25.6724 252.739 25.3923 253.02 25.3923C253.395 25.3923 253.301 26.1392 253.301 26.4192C253.301 26.6993 252.27 29.9667 251.989 30.5268C251.895 30.8069 251.333 30.9936 251.146 30.9936C250.771 30.9936 242.056 30.8069 239.338 30.8069C236.995 30.8069 236.621 30.9936 235.309 30.9936C234.653 30.9936 234.09 30.9002 234.09 30.5268C234.09 30.2468 234.559 29.9667 235.121 29.78C236.902 29.3132 237.37 29.0332 237.558 27.0727C237.651 25.579 237.839 22.8718 237.839 18.5775C237.839 14.3765 237.839 12.7895 237.839 11.7626C237.745 10.4556 237.464 9.80215 235.965 9.52208C235.215 9.42873 234.84 9.24202 234.84 8.8686C234.84 8.58854 235.402 8.30848 235.965 8.30848C237.651 8.30848 240.556 8.40183 242.337 8.40183H247.585V8.12177Z" fill="white"/>
<path d="M272.98 8.02848C273.824 8.21519 274.667 8.49525 275.511 8.58861C275.792 8.58861 276.073 9.05538 276.073 9.52215C276.073 10.5491 276.166 11.7627 276.26 12.7896C276.26 13.5364 276.073 14.0965 275.698 14.0965C275.511 14.0965 275.229 13.6297 275.042 13.163C274.667 12.0427 274.199 11.1092 273.543 10.6424C272.043 9.33544 270.263 8.58861 268.295 8.58861C262.672 8.58861 260.048 13.0696 260.048 18.3908C260.048 20.7247 260.517 22.7785 261.266 24.3655C263.234 28.193 266.421 29.5934 269.138 29.5934C269.607 29.5934 271.294 29.5 272.605 28.7532C273.917 28.0063 274.855 26.9794 275.698 25.5791C276.167 24.8323 276.354 24.4589 276.635 24.4589C277.01 24.4589 277.01 25.3924 276.916 25.7658C276.729 26.606 276.166 28.193 275.885 28.8465C275.792 29.1266 275.136 29.6867 274.573 29.9668C274.105 30.1535 271.668 30.9937 268.388 30.9937C263.141 30.9937 259.486 28.6598 257.987 26.9794C256.675 25.3924 254.988 22.9652 254.988 19.0443C254.988 14.75 257.424 11.7627 258.83 10.5491C261.829 8.12184 265.483 7.375 268.388 7.375C269.982 7.46835 271.668 7.74842 272.98 8.02848Z" fill="white"/>
<path d="M297.064 8.02839C297.907 8.2151 298.751 8.49516 299.594 8.58851C299.875 8.58851 300.156 9.05529 300.156 9.52206C300.156 10.549 300.25 11.7626 300.344 12.7895C300.344 13.5363 300.156 14.0964 299.781 14.0964C299.594 14.0964 299.313 13.6297 299.126 13.1629C298.751 12.0426 298.282 11.1091 297.626 10.6423C296.127 9.33535 294.346 8.58851 292.378 8.58851C286.756 8.58851 284.132 13.0695 284.132 18.3907C284.132 20.7246 284.6 22.7784 285.35 24.3654C287.318 28.1929 290.504 29.5933 293.315 29.5933C293.784 29.5933 295.471 29.4999 296.783 28.7531C298.095 28.0062 299.032 26.9793 299.875 25.579C300.344 24.8322 300.531 24.4588 300.812 24.4588C301.187 24.4588 301.187 25.3923 301.093 25.7657C300.906 26.6059 300.344 28.1929 300.063 28.8464C299.969 29.1265 299.313 29.6866 298.751 29.9667C298.282 30.1534 295.846 30.9936 292.566 30.9936C287.318 30.9936 283.663 28.6597 282.164 26.9793C280.852 25.3923 279.165 22.9651 279.165 19.0442C279.165 14.7499 281.602 11.7626 283.007 10.549C285.912 8.2151 289.567 7.46826 292.472 7.46826C294.065 7.46826 295.752 7.74833 297.064 8.02839Z" fill="white"/>
<path d="M52.6655 47.3309C52.5718 47.3309 52.6655 47.5176 52.6655 47.5176C53.9775 48.0777 54.9146 49.0113 54.9146 50.6916C54.9146 51.9052 54.1649 52.8388 53.3215 53.3989C52.3844 54.0524 50.6976 54.2391 49.9479 54.2391C49.3856 54.2391 47.324 54.2391 46.4806 54.1457C45.8246 54.1457 45.3561 54.1457 45.0749 54.1457C44.7001 54.1457 44.4189 54.0524 44.4189 53.8657C44.4189 53.679 44.7001 53.5856 44.9812 53.5856C46.1057 53.3989 46.1995 53.1189 46.2932 52.4654C46.2932 52.092 46.4806 50.1315 46.4806 46.3973C46.4806 44.8103 46.3869 43.7834 46.3869 43.5967C46.2932 43.2233 46.1995 43.0366 45.1686 42.8499C44.8875 42.8499 44.7001 42.6632 44.7001 42.4764C44.7001 42.2897 44.9812 42.1964 45.1686 42.1964H46.3869C47.0429 42.1964 49.2919 42.103 50.1353 42.103C51.2599 42.103 52.2907 42.2897 52.8529 42.6632C53.7901 43.2233 54.1649 44.0635 54.1649 44.997C54.1649 46.304 53.1341 46.9575 52.6655 47.3309ZM49.4793 42.6632C49.3856 42.6632 49.0108 42.7565 48.8234 42.7565C48.8234 42.7565 48.6359 42.9432 48.6359 43.0366C48.6359 43.3166 48.5422 43.8768 48.5422 47.0508C48.5422 47.1442 48.6359 47.2375 48.7297 47.2375C49.3856 47.2375 50.5102 47.1442 50.9787 46.7707C51.541 46.3973 51.9158 45.7439 51.9158 44.997C51.9158 43.5033 50.885 42.6632 49.4793 42.6632ZM51.0724 48.3578C50.6039 48.0777 50.0416 47.9844 49.4793 47.9844C49.1982 47.9844 48.9171 48.0777 48.8234 48.0777C48.7297 48.1711 48.6359 48.2644 48.6359 49.0113C48.6359 49.478 48.6359 51.8119 48.7297 52.372C48.7297 52.5587 48.8234 52.8388 49.0108 53.0255C49.2919 53.3989 49.8542 53.679 50.229 53.679C51.4473 53.679 52.5718 52.4654 52.5718 50.8783C52.4781 49.6647 51.9158 48.7312 51.0724 48.3578Z" fill="white"/>
<path d="M63.8173 47.5176C64.2859 48.0777 64.7544 49.0113 64.7544 50.0382C64.7544 51.4385 64.0985 52.5587 63.1614 53.3056C62.1305 54.1458 60.9123 54.2391 60.2563 54.2391C59.8815 54.2391 59.5066 54.2391 59.3192 54.1458C59.2255 54.1458 59.1318 54.3325 59.1318 54.4258C59.1318 55.266 59.1318 56.853 59.2255 57.3198C59.3192 57.7866 59.4129 58.16 60.1626 58.3467C60.5374 58.4401 60.6312 58.6268 60.6312 58.7201C60.6312 58.9068 60.35 59.0002 60.0689 59.0002C59.5066 59.0002 58.1947 58.9068 57.5387 58.9068C57.0701 58.9068 56.789 59.0002 56.0393 59.0002C55.7582 59.0002 55.4771 58.9068 55.4771 58.7201C55.4771 58.6268 55.6645 58.4401 55.9456 58.3467C56.8827 58.16 56.9764 57.9733 56.9764 56.853C56.9764 56.1996 57.0701 54.7059 57.0701 52.7454C57.0701 51.4385 57.0701 49.3847 57.0701 48.6378C57.0701 48.2644 56.9764 48.1711 56.9764 48.0777C56.6016 47.7977 56.2267 47.5176 56.2267 47.4242C56.2267 47.3309 56.4142 47.0508 56.6016 46.9575C56.9764 46.8641 58.0072 46.4907 58.5695 46.2106C58.7569 46.1173 58.9444 46.0239 58.9444 46.0239C59.0381 46.0239 59.1318 46.2106 59.1318 46.304C59.1318 46.6774 59.1318 46.8641 59.0381 47.2375C59.0381 47.3309 59.1318 47.4242 59.2255 47.3309C59.6003 47.1442 60.0689 46.8641 60.35 46.6774C60.6312 46.5841 61.0997 46.3973 61.662 46.3973C62.4117 46.3973 63.2551 46.9575 63.8173 47.5176ZM59.3192 47.7977C59.2255 47.891 59.1318 48.0777 59.1318 48.2644C59.0381 49.1046 59.0381 50.6916 59.0381 51.6252C59.0381 51.9986 59.1318 52.2787 59.2255 52.4654C59.6003 53.2122 60.35 53.5856 60.8186 53.5856C61.006 53.5856 61.1934 53.4923 61.4746 53.3989C62.5054 52.6521 62.5991 51.0651 62.5991 50.5049C62.5991 50.0382 62.5054 49.0113 61.7557 48.2644C61.3808 47.7977 60.6312 47.5176 60.35 47.5176C59.9752 47.5176 59.6003 47.611 59.3192 47.7977Z" fill="white"/>
<path d="M72.2509 47.2377C72.7195 47.6111 73.0006 48.2646 73.0006 48.9181C73.0006 49.0114 72.8132 49.3848 72.6258 49.3848C72.4384 49.3848 69.3459 49.3848 68.5025 49.3848C68.4088 49.3848 68.3151 49.4782 68.3151 49.4782C68.2214 49.6649 68.2214 49.9449 68.2214 50.1317C68.2214 50.5051 68.4088 51.4386 68.7836 51.9054C69.2522 52.5589 70.0956 52.8389 70.939 52.8389C71.7824 52.8389 72.2509 52.6522 72.6258 52.1855C72.7195 52.0921 72.8132 51.9987 72.9069 51.9987C73.0006 51.9987 73.0943 52.0921 73.0943 52.2788C73.0943 52.3722 73.0006 52.5589 72.9069 52.7456C72.3446 53.6791 71.4075 54.426 69.8144 54.426C67.6591 54.426 66.2534 52.7456 66.2534 50.5984C66.2534 49.1048 67.0968 47.5177 68.6899 46.8643C69.1585 46.6775 69.7207 46.4908 70.283 46.4908C70.939 46.3975 71.6887 46.6775 72.2509 47.2377ZM68.2214 48.5446C68.2214 48.638 68.3151 48.7313 68.3151 48.7313C68.7836 48.7313 69.4396 48.7313 70.3767 48.7313C70.6578 48.7313 71.0327 48.5446 71.0327 48.0779C71.0327 47.5177 70.4704 46.9576 70.0019 46.9576C69.2522 46.9576 68.5025 47.7044 68.2214 48.5446Z" fill="white"/>
<path d="M79.0919 50.9716C79.0919 51.065 79.1856 50.9716 79.1856 50.9716C79.4667 50.5982 80.8724 47.4242 81.0598 46.864C81.0598 46.7707 81.1535 46.6773 81.2473 46.6773C81.6221 46.6773 82.0907 46.6773 82.2781 46.6773C82.9341 46.6773 83.2152 46.584 83.7775 46.584C83.9649 46.584 84.1523 46.584 84.1523 46.7707C84.1523 46.9574 83.9649 47.1441 83.7775 47.1441C83.1215 47.3308 83.0278 47.5175 82.9341 48.0777C82.8403 49.1979 82.9341 52.372 83.0278 52.8387C83.1215 53.4922 83.4026 53.4922 83.7775 53.5856C84.0586 53.6789 84.246 53.7723 84.246 53.8656C84.246 54.0523 83.9649 54.1457 83.6837 54.1457C83.1215 54.1457 82.1844 54.0523 81.8095 54.0523C81.4347 54.0523 80.8724 54.1457 80.4039 54.1457C80.1227 54.1457 79.8416 54.0523 79.8416 53.8656C79.8416 53.7723 80.029 53.5856 80.4039 53.4922C80.7787 53.3989 80.8724 53.3055 80.9661 52.8387C81.0598 52.0919 81.0598 49.1979 81.0598 48.4511C81.0598 48.4511 80.9661 48.3577 80.8724 48.5444C80.029 50.5049 79.1856 52.372 78.8108 53.3989C78.7171 53.6789 78.4359 54.0523 78.2485 54.0523C78.0611 54.0523 77.8737 53.6789 77.8737 53.4922C77.3114 51.9985 76.468 50.2248 75.812 48.6378C75.812 48.5444 75.6246 48.5444 75.6246 48.6378C75.5309 50.1314 75.5309 51.9985 75.5309 52.652C75.5309 53.1188 75.7183 53.3989 76.468 53.5856C76.7491 53.6789 76.8428 53.7723 76.8428 53.8656C76.8428 54.0523 76.6554 54.1457 76.3743 54.1457C76.0931 54.1457 75.5309 54.0523 75.156 54.0523C74.5001 54.0523 74.2189 54.1457 73.8441 54.1457C73.563 54.1457 73.4692 54.0523 73.4692 53.8656C73.4692 53.7723 73.563 53.6789 73.8441 53.5856C74.4064 53.3989 74.6875 53.1188 74.7812 52.5587C74.8749 51.6251 75.0623 49.1979 75.0623 47.9843C75.0623 47.6109 74.7812 47.3308 74.1252 47.1441C73.7504 47.0508 73.6567 46.9574 73.6567 46.864C73.6567 46.7707 73.8441 46.584 74.1252 46.584C74.5938 46.584 75.2497 46.6773 75.9057 46.6773C76.1869 46.6773 76.5617 46.6773 76.6554 46.6773C76.7491 46.6773 76.8428 46.7707 76.8428 46.864C77.4051 47.7042 78.8108 50.3182 79.0919 50.9716Z" fill="white"/>
<path d="M93.6174 46.7709C93.6174 46.9576 93.4299 47.1443 93.1488 47.1443C92.4928 47.331 92.4928 47.5177 92.4928 47.7978C92.4928 47.9845 92.4928 48.7313 92.4928 49.8516C92.4928 50.9718 92.4928 51.9987 92.4928 52.6522C92.4928 53.3057 92.8677 53.3057 93.1488 53.399C93.4299 53.4924 93.6174 53.6791 93.6174 53.7725C93.6174 53.8658 93.3362 54.0525 93.1488 54.0525C93.0551 54.0525 91.462 53.9592 91.0872 53.9592C90.4312 53.9592 90.15 54.0525 89.8689 54.0525C89.5878 54.0525 89.3066 53.9592 89.3066 53.7725C89.3066 53.5857 89.4941 53.4924 89.7752 53.4924C90.2438 53.399 90.4312 53.119 90.5249 52.9323C90.5249 52.7456 90.5249 51.2519 90.5249 50.6918C90.5249 50.5984 90.4312 50.5051 90.4312 50.5051C90.15 50.5051 89.7752 50.7851 89.4004 51.3452C88.9318 51.9987 88.557 52.5589 88.0884 53.119C87.5261 53.8658 86.9639 54.2392 85.7456 54.2392C85.6519 54.2392 85.1834 54.2392 84.9959 54.1459C84.9022 54.1459 84.6211 54.0525 84.6211 53.8658C84.6211 53.6791 84.8085 53.6791 84.9959 53.5857C85.4645 53.4924 85.8393 53.2123 86.9639 51.7187C87.4324 51.0652 87.9947 50.5984 88.2758 50.4117V50.3183C86.9639 50.0383 86.3079 49.2914 86.3079 48.4513C86.3079 47.4244 86.9639 46.3975 89.5878 46.3975C90.4312 46.3975 91.5557 46.4908 92.118 46.3975C92.4928 46.3975 92.8677 46.3975 93.1488 46.3975C93.3362 46.6775 93.6174 46.6775 93.6174 46.7709ZM90.5249 47.6111C90.5249 47.4244 90.4312 47.2376 90.4312 47.2376C90.3375 47.2376 90.2438 47.1443 89.9626 47.1443C89.1192 47.1443 88.4632 47.6111 88.4632 48.4513C88.4632 49.4782 89.4004 50.0383 90.5249 50.0383C90.6186 50.0383 90.6186 49.9449 90.6186 49.9449C90.5249 49.3848 90.5249 48.2645 90.5249 47.6111Z" fill="white"/>
<path d="M100.271 54.1458C100.083 54.1458 99.8958 54.2391 99.8021 54.3325C99.3336 54.7059 99.2398 55.6395 99.1461 56.3863C99.0524 56.8531 98.9587 56.9464 98.7713 56.9464C98.5839 56.9464 98.4902 56.6664 98.4902 56.4796C98.3964 55.7328 98.3964 54.2391 98.3027 53.7724C98.3027 53.679 98.3964 53.4923 98.4902 53.4923C98.6776 53.4923 98.9587 53.4923 99.1461 53.399C99.2398 53.399 99.3336 53.3056 99.4273 53.2122C99.8021 52.3721 100.833 49.6648 101.489 48.0777C101.489 47.9844 101.583 47.7977 101.676 47.611C101.77 47.4243 101.957 47.1442 102.52 46.6774C102.613 46.4907 102.801 46.4907 102.895 46.4907C102.988 46.4907 103.082 46.6774 103.363 47.3309C103.925 48.9179 105.144 52.5588 105.518 53.2122C105.612 53.399 105.706 53.4923 105.893 53.4923C106.174 53.5857 106.456 53.5857 106.737 53.5857C106.83 53.5857 106.83 53.679 106.83 53.7724C106.737 54.2391 106.362 55.266 106.268 56.3863C106.174 56.8531 105.987 57.0398 105.8 57.0398C105.612 57.0398 105.518 56.8531 105.518 56.3863C105.518 56.1996 105.518 55.9195 105.518 55.7328C105.518 54.6126 105.144 54.1458 104.581 54.1458H100.271ZM101.864 49.0113C101.864 48.9179 101.77 48.9179 101.676 49.0113C101.301 50.1315 100.364 52.5588 100.177 53.2122C100.177 53.3056 100.177 53.399 100.271 53.399C100.552 53.399 102.895 53.399 103.176 53.399C103.269 53.399 103.269 53.3056 103.269 53.3056C103.176 52.7455 102.145 49.5714 101.864 49.0113Z" fill="white"/>
<path d="M113.296 47.2377C113.765 47.6111 114.046 48.2646 114.046 48.9181C114.046 49.0114 113.859 49.3848 113.671 49.3848C113.484 49.3848 110.391 49.3848 109.548 49.3848C109.454 49.3848 109.36 49.4782 109.36 49.4782C109.267 49.6649 109.267 49.9449 109.267 50.1317C109.267 50.5051 109.454 51.4386 109.829 51.9054C110.298 52.5589 111.141 52.8389 111.984 52.8389C112.828 52.8389 113.296 52.6522 113.671 52.1855C113.765 52.0921 113.859 51.9987 113.952 51.9987C114.046 51.9987 114.14 52.0921 114.14 52.2788C114.14 52.3722 114.046 52.5589 113.952 52.7456C113.39 53.6791 112.453 54.426 110.86 54.426C108.704 54.426 107.299 52.7456 107.299 50.5984C107.299 49.1048 108.142 47.5177 109.735 46.8643C110.204 46.6775 110.766 46.4908 111.328 46.4908C111.984 46.3975 112.828 46.6775 113.296 47.2377ZM109.36 48.5446C109.36 48.638 109.454 48.7313 109.454 48.7313C109.923 48.7313 110.579 48.7313 111.516 48.7313C111.797 48.7313 112.172 48.5446 112.172 48.0779C112.172 47.5177 111.61 46.9576 111.141 46.9576C110.298 46.9576 109.548 47.7044 109.36 48.5446Z" fill="white"/>
<path d="M115.452 46.5842C115.827 46.5842 116.483 46.6775 117.045 46.6775C117.514 46.6775 118.076 46.5842 118.638 46.5842C118.826 46.5842 119.107 46.6775 119.107 46.7709C119.107 46.9576 119.013 47.0509 118.638 47.1443C117.982 47.331 118.076 47.6111 117.982 47.7978C117.888 48.8247 117.888 50.3183 117.982 51.2519C117.982 51.3452 118.076 51.3452 118.17 51.3452C118.919 50.505 120.044 49.2914 120.793 48.4512C120.981 48.2645 121.075 47.9845 121.075 47.8911C121.075 47.7978 121.075 47.7044 121.075 47.7044C121.075 47.4243 120.981 47.331 120.512 47.1443C120.419 47.1443 120.231 46.9576 120.231 46.8642C120.231 46.6775 120.419 46.5842 120.7 46.5842C121.075 46.5842 121.637 46.6775 122.199 46.6775C122.761 46.6775 123.23 46.5842 123.699 46.5842C124.073 46.5842 124.167 46.6775 124.167 46.8642C124.167 47.0509 124.073 47.1443 123.699 47.2376C123.136 47.4243 123.043 47.6111 123.043 47.8911C123.043 48.0778 123.043 48.7313 123.043 49.5715C123.043 50.6917 123.043 52.0921 123.136 52.7455C123.136 53.399 123.511 53.4924 123.886 53.5857C124.167 53.6791 124.354 53.8658 124.354 53.9592C124.354 54.0525 124.167 54.2392 123.886 54.2392C123.417 54.2392 122.855 54.1459 122.199 54.1459C121.731 54.1459 121.075 54.2392 120.325 54.2392C120.137 54.2392 119.856 54.1459 119.856 53.9592C119.856 53.7724 119.95 53.6791 120.325 53.6791C120.793 53.5857 120.981 53.3057 120.981 53.0256C120.981 52.5588 121.075 51.812 121.075 49.3848C121.075 49.2914 120.981 49.2914 120.981 49.3848C120.137 50.3183 118.919 51.6253 118.263 52.4655C118.17 52.5588 118.076 52.7455 118.076 52.8389V53.119C118.076 53.399 118.17 53.5857 118.544 53.6791C118.732 53.7724 119.013 53.8658 119.013 53.9592C119.013 54.1459 118.732 54.3326 118.544 54.3326C118.357 54.3326 117.326 54.3326 116.858 54.3326C116.202 54.3326 115.733 54.4259 115.452 54.4259C115.264 54.4259 114.89 54.4259 114.89 54.1459C114.89 53.9592 115.077 53.8658 115.358 53.7724C115.827 53.6791 116.014 53.4924 116.014 53.2123C116.014 52.9323 116.108 52.5588 116.108 51.6253C116.108 49.9449 116.108 48.5446 116.108 48.1712C116.108 47.7044 116.014 47.6111 115.452 47.4243C115.077 47.331 114.983 47.1443 114.983 47.0509C114.983 46.6775 115.171 46.5842 115.452 46.5842ZM117.045 43.5035C117.045 43.13 117.326 42.5699 117.982 42.5699C118.17 42.5699 118.638 42.7566 118.638 43.2234C118.638 43.4101 118.451 43.6902 118.451 43.8769C118.451 44.1569 118.732 44.5304 119.575 44.5304C120.419 44.5304 120.7 44.2503 120.7 43.9702C120.7 43.7835 120.512 43.5035 120.512 43.2234C120.512 42.85 120.793 42.4766 121.262 42.4766C121.731 42.4766 122.012 42.85 122.012 43.3168C122.012 44.7171 120.512 45.1838 119.481 45.1838C117.795 45.1838 117.045 44.2503 117.045 43.5035Z" fill="white"/>
<path d="M131.758 46.9575C132.039 47.1442 132.039 47.4243 132.039 47.611C132.039 47.9844 131.383 48.5445 131.289 48.5445C131.102 48.5445 130.82 48.4512 130.446 48.0777C129.977 47.7043 129.509 47.2376 128.946 47.2376C128.759 47.2376 128.384 47.3309 128.103 47.611C127.634 48.0777 127.353 49.0113 127.353 49.9448C127.353 51.1584 127.822 51.8119 128.009 51.9053C128.384 52.3721 129.04 52.9322 130.071 52.9322C130.633 52.9322 131.289 52.7455 131.945 52.2787C132.039 52.1853 132.226 52.2787 132.226 52.4654C132.226 52.6521 132.039 52.9322 131.945 53.0255C131.289 53.679 130.165 54.3325 129.04 54.3325C127.634 54.3325 126.603 53.5857 126.041 52.8388C125.666 52.2787 125.385 51.4385 125.385 50.5983C125.385 49.1046 126.135 48.0777 127.259 47.3309C127.915 46.8641 129.227 46.4907 129.977 46.4907C130.446 46.4907 131.383 46.6774 131.758 46.9575Z" fill="white"/>
<path d="M134.85 54.1458C134.663 54.1458 134.381 54.0524 134.381 53.9591C134.381 53.7724 134.475 53.679 134.85 53.5857C135.319 53.4923 135.693 53.3056 135.693 52.9322C135.693 52.3721 135.787 51.1584 135.787 49.7581C135.787 48.7312 135.787 47.9844 135.787 47.5176C135.787 47.4243 135.787 47.3309 135.6 47.3309C135.319 47.3309 134.85 47.3309 134.756 47.3309C134.194 47.3309 133.913 47.891 133.725 48.4512C133.538 48.8246 133.444 49.0113 133.257 49.0113C133.069 49.0113 132.976 48.6379 133.069 48.3578C133.069 47.7043 133.163 47.1442 133.163 46.7708C133.163 46.6774 133.257 46.4907 133.351 46.4907C133.444 46.4907 133.538 46.5841 133.725 46.5841C133.819 46.6774 134.475 46.6774 134.944 46.6774H138.692C139.161 46.6774 139.817 46.5841 140.004 46.5841C140.098 46.4907 140.285 46.4907 140.379 46.4907C140.473 46.4907 140.566 46.6774 140.566 46.7708C140.473 47.3309 140.566 47.7977 140.566 48.4512C140.566 48.8246 140.379 49.1046 140.192 49.1046C140.098 49.1046 140.004 49.0113 139.91 48.6379C139.723 47.891 139.442 47.5176 138.973 47.5176C138.598 47.5176 138.13 47.5176 138.036 47.5176C137.942 47.5176 137.942 47.7043 137.849 47.7977C137.849 48.3578 137.849 49.2914 137.849 50.2249C137.849 51.6252 137.849 52.3721 137.942 52.9322C138.036 53.4923 138.13 53.5857 138.692 53.7724C138.973 53.8657 139.161 53.9591 139.161 54.0524C139.161 54.2391 138.88 54.3325 138.692 54.3325C138.036 54.3325 137.286 54.2391 136.818 54.2391C136.256 54.1458 135.412 54.1458 134.85 54.1458Z" fill="white"/>
<path d="M147.408 49.9449C147.314 49.9449 147.408 50.0383 147.408 50.0383C147.782 50.1316 148.157 50.3183 148.345 50.4117C148.626 50.5984 149.001 50.9718 149.001 51.7187C149.001 52.7456 148.251 53.399 147.408 53.6791C146.658 53.9592 145.721 53.9592 144.971 53.9592C144.596 53.9592 144.128 53.9592 143.659 53.9592C143.003 53.9592 142.253 53.9592 141.597 54.0525C141.316 54.0525 141.129 53.8658 141.129 53.7725C141.129 53.5857 141.316 53.5858 141.597 53.4924C142.253 53.3057 142.253 53.0256 142.347 52.5589C142.441 52.1854 142.441 51.532 142.441 50.0383C142.441 49.2914 142.441 48.638 142.441 47.8911C142.441 47.4244 142.347 47.2377 141.691 47.0509C141.504 46.9576 141.316 46.8642 141.316 46.5842C141.316 46.4908 141.41 46.3975 141.691 46.3975C142.066 46.3975 142.816 46.4908 143.191 46.4908C143.565 46.4908 145.158 46.3975 145.721 46.3975C146.939 46.3975 148.532 46.6775 148.532 48.1712C148.626 49.2914 147.97 49.6649 147.408 49.9449ZM145.065 47.2376C144.784 47.2376 144.596 47.331 144.596 47.331C144.502 47.4244 144.502 47.5177 144.502 47.7044C144.502 47.9845 144.502 49.2914 144.502 49.5715C144.502 49.7582 144.596 49.7582 144.69 49.7582C144.971 49.7582 145.627 49.7582 145.908 49.6649C146.377 49.4782 146.658 49.0114 146.658 48.5446C146.564 47.9845 146.096 47.2376 145.065 47.2376ZM146.283 50.6918C146.002 50.5051 145.44 50.4117 145.065 50.4117C144.877 50.4117 144.69 50.4117 144.596 50.4117C144.502 50.4117 144.502 50.5051 144.502 50.5984C144.502 50.7851 144.502 51.532 144.502 52.0921C144.502 52.4655 144.502 52.7456 144.69 53.0256C144.877 53.2123 145.252 53.4924 145.44 53.4924C146.377 53.4924 147.033 52.7456 147.033 51.9054C146.939 51.3452 146.658 50.9718 146.283 50.6918Z" fill="white"/>
<path d="M158.653 50.3184C158.653 51.9055 157.622 53.1191 156.966 53.5858C156.216 54.146 155.185 54.3327 154.342 54.3327C153.499 54.3327 152.374 53.9593 151.718 53.3058C150.875 52.6523 150.312 51.4387 150.312 50.4118C150.312 49.1048 150.875 48.0779 151.624 47.4245C152.187 46.9577 153.218 46.3042 154.717 46.3042C156.591 46.3976 158.653 47.8912 158.653 50.3184ZM153.405 47.4245C152.936 47.7979 152.655 48.6381 152.655 49.945C152.655 50.5985 152.749 51.252 152.843 51.8121C153.218 53.1191 154.155 53.7726 154.904 53.7726C155.092 53.7726 155.467 53.5858 155.748 53.3058C156.123 52.839 156.497 51.8121 156.497 50.6919C156.497 49.8517 156.31 48.6381 155.748 47.7979C155.373 47.3311 154.904 47.051 154.342 47.051C153.967 47.051 153.686 47.1444 153.405 47.4245Z" fill="white"/>
<path d="M165.775 49.9449C165.681 49.9449 165.775 50.0383 165.775 50.0383C166.15 50.1316 166.524 50.3183 166.712 50.4117C166.993 50.5984 167.368 50.9718 167.368 51.7187C167.368 52.7456 166.618 53.399 165.775 53.6791C165.025 53.9592 164.088 53.9592 163.338 53.9592C162.963 53.9592 162.495 53.9592 162.026 53.9592C161.37 53.9592 160.621 53.9592 159.965 54.0525C159.684 54.0525 159.496 53.8658 159.496 53.7725C159.496 53.5857 159.684 53.5858 159.965 53.4924C160.621 53.3057 160.621 53.0256 160.714 52.5589C160.808 52.1854 160.808 51.532 160.808 50.0383C160.808 49.2914 160.808 48.638 160.808 47.8911C160.808 47.4244 160.714 47.2377 160.058 47.0509C159.871 46.9576 159.684 46.8642 159.684 46.5842C159.684 46.4908 159.777 46.3975 160.058 46.3975C160.433 46.3975 161.183 46.4908 161.558 46.4908C161.933 46.4908 163.526 46.3975 164.088 46.3975C165.306 46.3975 166.899 46.6775 166.899 48.1712C166.899 49.2914 166.337 49.6649 165.775 49.9449ZM163.338 47.2376C163.057 47.2376 162.87 47.331 162.87 47.331C162.776 47.4244 162.776 47.5177 162.776 47.7044C162.776 47.9845 162.776 49.2914 162.776 49.5715C162.776 49.7582 162.87 49.7582 162.963 49.7582C163.245 49.7582 163.901 49.7582 164.182 49.6649C164.65 49.4782 164.931 49.0114 164.931 48.5446C164.931 47.9845 164.463 47.2376 163.338 47.2376ZM164.65 50.6918C164.369 50.5051 163.807 50.4117 163.432 50.4117C163.245 50.4117 163.057 50.4117 162.963 50.4117C162.87 50.4117 162.87 50.5051 162.87 50.5984C162.87 50.7851 162.87 51.532 162.87 52.0921C162.87 52.4655 162.87 52.7456 163.057 53.0256C163.245 53.2123 163.619 53.4924 163.807 53.4924C164.744 53.4924 165.4 52.7456 165.4 51.9054C165.306 51.3452 165.025 50.9718 164.65 50.6918Z" fill="white"/>
<path d="M174.209 47.4241C174.396 47.7041 174.583 48.1709 174.583 49.0111C174.583 49.7579 174.49 51.9984 174.49 52.1851C174.49 52.7453 174.865 52.932 175.239 52.932C175.333 52.932 175.708 52.7453 175.895 52.7453C175.989 52.7453 175.989 52.7453 175.989 52.7453C175.989 52.8386 176.083 52.932 176.083 53.0253C176.083 53.3987 175.146 54.3323 174.115 54.3323C173.553 54.3323 172.99 54.1456 172.709 53.3987C172.709 53.3054 172.616 53.3054 172.522 53.3054C172.053 53.6788 171.304 54.0522 171.022 54.1456C170.835 54.2389 170.46 54.3323 170.179 54.3323C169.429 54.3323 168.68 53.4921 168.68 52.3718C168.68 51.9984 168.867 51.625 169.054 51.4383C169.242 51.1582 169.523 51.0649 169.71 50.9715C170.085 50.7848 171.866 50.318 172.334 50.2247C172.522 50.1313 172.709 50.038 172.709 49.9446C172.709 49.7579 172.803 48.731 172.709 48.451C172.709 47.9842 172.334 47.2373 171.397 47.2373C171.116 47.2373 170.929 47.2373 170.741 47.3307C170.648 47.3307 170.648 47.5174 170.648 48.1709C170.648 48.2642 170.648 48.2642 170.554 48.3576C170.46 48.451 169.054 49.1044 168.867 49.1044C168.773 49.1044 168.586 48.9177 168.586 48.8244C168.586 48.2642 168.961 47.7975 170.179 46.9573C170.929 46.4905 171.772 46.2104 172.053 46.2104C173.459 46.3972 173.927 47.0506 174.209 47.4241ZM172.428 52.932C172.522 52.8386 172.616 52.6519 172.616 52.5585C172.616 52.2785 172.709 51.5317 172.709 50.8782C172.709 50.7848 172.616 50.6915 172.616 50.6915C172.334 50.6915 171.397 50.9715 171.116 51.1582C170.929 51.3449 170.741 51.4383 170.741 51.9051C170.741 52.7453 171.397 53.1187 171.772 53.1187C171.866 53.212 172.241 53.1187 172.428 52.932Z" fill="white"/>
<path d="M178.051 54.1458C177.864 54.1458 177.583 54.0524 177.583 53.9591C177.583 53.7724 177.676 53.679 178.051 53.5857C178.52 53.4923 178.895 53.3056 178.895 52.9322C178.895 52.3721 178.988 51.1584 178.988 49.7581C178.988 48.7312 178.988 47.9844 178.988 47.5176C178.988 47.4243 178.988 47.3309 178.801 47.3309C178.52 47.3309 178.051 47.3309 177.957 47.3309C177.395 47.3309 177.114 47.891 176.927 48.4512C176.739 48.8246 176.645 49.0113 176.458 49.0113C176.271 49.0113 176.177 48.6379 176.271 48.3578C176.271 47.7043 176.364 47.1442 176.364 46.7708C176.364 46.6774 176.458 46.4907 176.552 46.4907C176.645 46.4907 176.739 46.5841 176.927 46.5841C177.02 46.6774 177.676 46.6774 178.145 46.6774H181.893C182.362 46.6774 183.018 46.5841 183.205 46.5841C183.299 46.4907 183.486 46.4907 183.58 46.4907C183.674 46.4907 183.768 46.6774 183.768 46.7708C183.674 47.3309 183.768 47.7977 183.768 48.4512C183.768 48.8246 183.58 49.1046 183.393 49.1046C183.299 49.1046 183.205 49.0113 183.112 48.6379C182.924 47.891 182.643 47.5176 182.174 47.5176C181.8 47.5176 181.331 47.5176 181.237 47.5176C181.144 47.5176 181.144 47.7043 181.05 47.7977C181.05 48.3578 181.05 49.2914 181.05 50.2249C181.05 51.6252 181.05 52.3721 181.144 52.9322C181.237 53.4923 181.331 53.5857 181.893 53.7724C182.174 53.8657 182.362 53.9591 182.362 54.0524C182.362 54.2391 182.081 54.3325 181.893 54.3325C181.237 54.3325 180.488 54.2391 180.019 54.2391C179.457 54.1458 178.613 54.1458 178.051 54.1458Z" fill="white"/>
<path d="M188.172 54.1457C187.984 54.1457 187.141 54.1457 186.672 54.1457C186.298 54.1457 185.079 54.239 184.892 54.239C184.704 54.239 184.33 54.1457 184.33 53.959C184.33 53.7723 184.517 53.6789 184.798 53.5856C185.36 53.3989 185.454 53.3055 185.454 53.0254C185.548 52.652 185.548 51.3451 185.548 50.2248C185.548 48.7311 185.548 48.2644 185.548 47.9843C185.548 47.5175 185.36 47.3308 184.892 47.2375C184.704 47.2375 184.517 47.1441 184.517 46.864C184.517 46.7707 184.704 46.584 184.986 46.584C185.079 46.584 186.11 46.6773 186.579 46.6773C187.235 46.6773 187.797 46.584 188.078 46.584C188.453 46.584 188.547 46.6773 188.547 46.864C188.547 46.9574 188.359 47.1441 188.078 47.2375C187.516 47.4242 187.422 47.4242 187.422 47.8909C187.422 48.0777 187.422 48.9178 187.422 49.478C187.422 49.5713 187.422 49.6647 187.516 49.6647C187.797 49.6647 188.265 49.5713 188.547 49.5713C190.515 49.5713 191.545 50.3182 191.545 51.7185C191.733 53.3055 190.233 54.1457 188.172 54.1457ZM188.172 50.1314C187.891 50.1314 187.797 50.1314 187.703 50.2248C187.609 50.2248 187.516 50.3182 187.516 50.4115C187.516 51.065 187.516 52.1852 187.516 52.7454C187.516 53.3055 188.078 53.5856 188.265 53.5856C188.547 53.5856 188.828 53.4922 189.109 53.2121C189.484 52.9321 189.577 52.1852 189.577 51.7185C189.671 50.8783 189.109 50.1314 188.172 50.1314Z" fill="white"/>
</g>
<defs>
<clipPath id="clip0_524:256">
<rect width="301" height="59" fill="white"/>
</clipPath>
</defs>
</svg>
