<svg width="33" height="27" viewBox="0 0 33 27" fill="none" xmlns="http://www.w3.org/2000/svg">
<path d="M5.2635 15.8833L7.1115 15.8833L7.1115 2.32018L5.2635 2.32018L5.2635 15.8833ZM5.2635 22.4829L5.2635 24.6802L7.1115 24.6802L7.1115 22.4829L5.2635 22.4829ZM21.1357 24.6802L21.1357 10.8461L19.2877 10.8461L19.2877 24.6802L21.1357 24.6802ZM12.2756 16.6633L12.2756 24.6802L14.1236 24.6802L14.1236 16.6633L12.2756 16.6633ZM21.1357 4.59518L21.1357 2.32018L19.2877 2.32018L19.2877 4.59518L21.1357 4.59518ZM14.1236 10.2827L14.1236 2.32018L12.2756 2.32018L12.2756 10.2827L14.1236 10.2827ZM15.423 11.8305C15.423 11.5434 15.1865 11.3105 14.895 11.3105L11.5045 11.3105C11.213 11.3105 10.9765 11.5434 10.9765 11.8305L10.9765 15.1686C10.9765 15.4556 11.213 15.6886 11.5045 15.6886L14.895 15.6886C15.1865 15.6886 15.423 15.4556 15.423 15.1686L15.423 11.8305ZM8.47585 20.8894L8.47585 17.5512C8.47585 17.2642 8.2393 17.0312 7.94785 17.0312L4.5573 17.0312C4.26584 17.0312 4.0293 17.2642 4.0293 17.5512L4.0293 20.8894C4.0293 21.1764 4.26584 21.4094 4.5573 21.4094L7.94785 21.4094C8.23957 21.4094 8.47585 21.1764 8.47585 20.8894ZM17.9886 6.11124L17.9886 9.44938C17.9886 9.73642 18.2251 9.96937 18.5166 9.96937L21.9071 9.96937C22.1986 9.96937 22.4351 9.73642 22.4351 9.44938L22.4351 6.11124C22.4351 5.8242 22.1986 5.59124 21.9071 5.59124L18.5166 5.59124C18.2248 5.59124 17.9886 5.8242 17.9886 6.11124Z" fill="white"/>
</svg>
