<svg width="18" height="17" viewBox="0 0 18 17" fill="none" xmlns="http://www.w3.org/2000/svg">
<path d="M7.21718 14.4344C8.82331 14.4344 10.3252 13.892 11.535 12.9951L15.5399 17L17.0209 15.519L13.016 11.535C13.9129 10.3252 14.4552 8.84417 14.4552 7.21718C14.4552 3.23313 11.2221 0 7.23804 0C3.25399 0 0 3.25399 0 7.21718C0 11.1804 3.25399 14.4344 7.21718 14.4344ZM7.21718 2.08589C10.054 2.08589 12.3485 4.38037 12.3485 7.21718C12.3485 10.054 10.054 12.3485 7.21718 12.3485C4.38037 12.3485 2.08589 10.054 2.08589 7.21718C2.08589 4.38037 4.40123 2.08589 7.21718 2.08589Z" fill="black"/>
</svg>
