<svg width="63" height="71" viewBox="0 0 63 71" fill="none" xmlns="http://www.w3.org/2000/svg">
<g clip-path="url(#clip0_524:1133)">
<path d="M49.4059 52.9681C49.203 52.9681 49.0001 53.173 49.0001 53.378C49.0001 53.5829 49.203 53.7878 49.4059 53.7878C49.6088 53.7878 49.8117 53.5829 49.8117 53.378C49.8117 53.173 49.6088 52.9681 49.4059 52.9681Z" fill="white"/>
<path d="M50.6232 56.5542C50.6232 56.7591 50.8261 56.964 51.029 56.964C51.2319 56.964 51.4348 56.7591 51.4348 56.5542C51.4348 56.3493 51.2319 56.1444 51.029 56.1444C50.8261 56.1444 50.6232 56.3493 50.6232 56.5542Z" fill="white"/>
<path d="M49.4059 56.1444C49.203 56.1444 49.0001 56.3493 49.0001 56.5542C49.0001 56.7591 49.203 56.964 49.4059 56.964C49.6088 56.964 49.8117 56.7591 49.8117 56.5542C49.8117 56.3493 49.6088 56.1444 49.4059 56.1444Z" fill="white"/>
<path d="M52.2465 56.5542C52.2465 56.7591 52.4494 56.964 52.6523 56.964C52.8552 56.964 53.0581 56.7591 53.0581 56.5542C53.0581 56.3493 52.8552 56.1444 52.6523 56.1444C52.4494 56.1444 52.2465 56.3493 52.2465 56.5542Z" fill="white"/>
<path d="M48.8986 49.3822L49.0001 50.3043L48.1885 50.2018V51.2264L49.0001 51.1239L48.8986 52.046H49.9131L49.8117 51.1239L50.6233 51.2264V50.2018L49.8117 50.3043L49.9131 49.3822H48.8986Z" fill="white"/>
<path d="M50.116 52.6608V55.9393H53.2609C52.9565 54.3 51.7392 52.9681 50.116 52.6608Z" fill="white"/>
<path d="M49.4059 54.5051C49.203 54.5051 49.0001 54.71 49.0001 54.9149C49.0001 55.1199 49.203 55.3248 49.4059 55.3248C49.6088 55.3248 49.8117 55.1199 49.8117 54.9149C49.8117 54.71 49.6088 54.5051 49.4059 54.5051Z" fill="white"/>
<path d="M50.7249 58.8081C50.6235 58.8081 50.4206 59.6277 50.6235 60.2424C50.7249 60.5498 51.0293 60.6523 51.3336 60.6523C51.638 60.5498 51.638 60.3449 51.638 60.14C51.7394 59.4228 51.1307 58.8081 50.7249 58.8081Z" fill="white"/>
<path d="M48.0871 58.8081C47.6813 58.8081 47.0726 59.4228 47.1741 60.0375C47.1741 60.2424 47.2755 60.4474 47.4784 60.5498C47.7828 60.6523 48.0871 60.5498 48.1886 60.14C48.3915 59.6277 48.1886 58.8081 48.0871 58.8081Z" fill="white"/>
<path d="M49.4059 58.3984C49.1015 58.3984 48.2899 60.0377 48.8986 60.9598C49.0001 61.1647 49.203 61.1647 49.4059 61.1647C49.6088 61.1647 49.8117 61.0622 49.9131 60.9598C50.5218 60.0377 49.7102 58.3984 49.4059 58.3984Z" fill="white"/>
<path d="M45.5509 56.5539C45.5509 56.2465 45.6523 55.9392 45.6523 55.9392H48.6958V55.6318V53.2754V52.5582C47.1741 52.8656 45.9567 53.9926 45.5509 55.5294C45.4495 55.6318 45.1451 55.7343 44.9422 55.7343C43.7248 55.6318 41.3915 55.1196 41.3915 54.6073C41.3915 53.8901 41.8987 53.5828 42.3045 53.5828C42.9132 53.5828 43.7248 53.9926 44.3335 53.0705C42.2031 53.173 43.8263 49.9969 42.1016 49.3822C42.2031 50.2018 42.1016 51.6362 41.7973 52.3533C41.7973 52.3533 41.1886 51.6362 40.4784 51.4313C40.5799 52.046 40.377 53.2754 40.1741 53.7877C40.1741 53.7877 39.4639 53.0705 38.6523 52.8656C39.3625 53.8901 39.3625 55.4269 39.1596 56.349C39.0581 56.6564 39.261 56.9637 39.8697 56.9637C40.6813 56.9637 43.6234 57.0662 44.9422 57.5784C45.348 57.7833 45.6523 57.8858 45.8552 58.1932C45.9567 58.603 46.3625 59.2177 46.7683 59.525C46.9712 58.8079 47.7828 58.1932 48.29 58.1932C48.4929 58.1932 48.5944 58.5005 48.6958 58.7054C48.6958 58.5005 49.1016 57.7833 49.5074 57.7833C49.9132 57.7833 50.2176 58.2956 50.4205 58.8079C50.4205 58.5005 50.6234 58.1932 50.8263 58.1932C51.3335 58.1932 51.9422 58.7054 52.2466 59.4226C52.4494 59.2177 53.3625 57.9882 53.4639 57.1686H45.7538C45.5509 57.2711 45.5509 56.9637 45.5509 56.5539Z" fill="white"/>
<path d="M47.4783 56.5542C47.4783 56.7591 47.6812 56.964 47.8841 56.964C48.087 56.964 48.2899 56.7591 48.2899 56.5542C48.2899 56.3493 48.087 56.1444 47.8841 56.1444C47.5798 56.1444 47.4783 56.3493 47.4783 56.5542Z" fill="white"/>
<path d="M45.8552 56.5542C45.8552 56.7591 46.0581 56.964 46.261 56.964C46.4639 56.964 46.6668 56.7591 46.6668 56.5542C46.6668 56.3493 46.4639 56.1444 46.261 56.1444C46.0581 56.1444 45.8552 56.3493 45.8552 56.5542Z" fill="white"/>
<path d="M15.6232 58.1936C15.5218 58.2961 15.2174 59.1157 15.3189 59.628C15.4203 59.8329 15.5218 59.9353 15.7247 59.9353C15.9276 59.9353 16.029 59.8329 16.1305 59.628C16.1305 59.1157 15.7247 58.2961 15.6232 58.1936Z" fill="white"/>
<path d="M18.3626 60.5497C18.1597 60.7546 17.9568 60.8571 17.9568 60.9595C18.0583 61.062 18.2612 61.1644 18.4641 61.1644C18.5655 61.1644 18.7684 61.1644 18.8699 61.062C19.0728 60.6522 18.8699 60.2423 18.7684 60.1399C18.5655 60.1399 18.4641 60.3448 18.3626 60.5497Z" fill="white"/>
<path d="M17.2463 59.4228C17.5506 59.1154 17.6521 58.9105 17.5506 58.8081C17.4492 58.6032 16.8405 57.886 16.0289 57.1688C16.0289 57.3737 15.9274 57.4762 15.9274 57.6811C16.4347 58.3983 16.6376 59.1154 16.4347 59.8326C16.5361 59.8326 16.5361 59.9351 16.5361 59.9351C16.8405 59.8326 17.1448 59.6277 17.2463 59.4228Z" fill="white"/>
<path d="M18.2607 59.5254C18.2607 59.4229 18.2607 59.3205 18.1593 59.218C18.1593 59.218 18.0578 59.3205 17.9564 59.4229C17.8549 59.5254 17.7535 59.6278 17.652 59.8327C17.5506 59.9352 17.4491 60.0376 17.3477 60.1401C17.2462 60.2426 17.1448 60.345 17.1448 60.4475C17.1448 60.4475 17.2462 60.5499 17.3477 60.5499C17.4491 60.5499 17.652 60.4475 18.0578 60.1401C18.1593 59.8327 18.2607 59.6278 18.2607 59.5254Z" fill="white"/>
<path d="M13.4931 55.6319C13.4931 55.6319 13.3916 55.7344 13.2902 55.8368C13.4931 55.8368 13.696 55.8368 13.7974 55.9393C13.7974 55.7344 13.7974 55.5295 13.7974 55.427C13.696 55.427 13.4931 55.5295 13.4931 55.6319Z" fill="white"/>
<path d="M15.4202 55.8371C15.4202 55.8371 16.942 57.169 17.4492 57.6812C17.5507 57.7837 17.7536 57.7837 17.855 57.7837C17.9565 57.7837 18.0579 57.6812 18.1594 57.5788C19.6811 57.0665 22.2173 56.9641 23.1304 57.0665C23.6376 57.0665 23.8405 56.7592 23.8405 56.4518C23.6376 55.6322 23.6376 53.9929 24.3478 52.9684C23.5362 53.2758 22.826 53.8905 22.826 53.8905C22.5217 53.3782 22.4202 52.1488 22.5217 51.534C21.8115 51.8414 21.2029 52.4561 21.2029 52.4561C20.8985 51.739 20.7971 50.3046 20.8985 49.485C19.1739 50.0997 20.7971 53.2758 18.6666 53.1733C19.2753 54.0954 19.9855 53.6856 20.6956 53.6856C21.2029 53.6856 21.7101 53.9929 21.6086 54.7101C21.5072 55.2224 18.6666 55.8371 17.4492 55.8371C16.6376 55.8371 16.1304 55.6322 15.7246 55.0175C15.5217 54.7101 15.3188 54.6076 15.1159 54.6076C14.8115 54.6076 14.5072 54.915 14.5072 55.6322C14.5072 56.1444 14.7101 57.169 15.2173 57.169C15.5217 57.169 15.6231 56.3493 15.4202 55.8371Z" fill="white"/>
<path d="M12.5799 55.3247C12.6814 55.3247 12.6814 55.3247 12.7828 55.3247C12.5799 55.6321 12.5799 55.837 12.6814 55.9394C12.7828 56.0419 12.8843 55.837 13.2901 55.4272C13.6959 55.0173 13.8988 54.9149 13.7973 54.8124C13.6959 54.71 13.493 54.71 13.1886 54.9149C13.1886 54.8124 13.1886 54.8124 13.1886 54.71C13.0872 54.4026 12.4785 53.8904 12.1741 53.8904H12.0727C12.1741 53.6855 12.1741 53.4805 12.0727 53.3781C11.9712 53.2756 11.8698 53.3781 11.7683 53.4806C11.7683 53.3781 11.7683 53.2756 11.6669 53.0707C11.1596 52.3536 8.72484 49.9971 8.21759 49.7922C7.91325 49.6898 7.8118 49.8947 7.8118 49.8947C7.8118 49.8947 7.6089 49.9971 7.8118 50.407C8.01469 51.0217 10.4495 53.4805 11.1596 53.8904C11.2611 53.9928 11.464 53.9928 11.5654 53.9928C11.464 54.0953 11.3625 54.1977 11.464 54.3002C11.5654 54.4026 11.7683 54.4026 11.9712 54.3002V54.4026C11.6669 54.71 12.1741 55.2223 12.5799 55.3247Z" fill="white"/>
<path d="M14.3043 57.169C14.3043 56.964 13.797 56.4518 13.2898 56.4518C12.4782 56.4518 12.0724 56.964 12.0724 57.2714C12.0724 57.7837 12.5796 57.8861 12.6811 57.8861C13.2898 57.8861 14.2028 57.2714 14.3043 57.169Z" fill="white"/>
<path d="M13.5944 58.3983C13.3915 58.7056 13.29 58.9105 13.3915 59.2179C13.4929 59.5253 13.7973 59.6277 14.0002 59.6277C14.3045 59.6277 14.5074 59.5253 14.7103 59.2179C15.0147 58.7056 15.0147 57.5786 14.9132 57.4762C14.6089 57.5786 13.8987 57.886 13.5944 58.3983Z" fill="white"/>
<path d="M6.39121 46.8211C6.18831 46.6162 5.68106 46.9236 5.37672 46.8211C5.47817 46.104 5.98541 46.8211 6.49266 46.3089C6.69556 46.104 6.59411 45.7966 6.49266 45.6941C6.28976 45.8991 5.98541 45.7966 5.98541 45.6941C6.49266 44.3623 5.47817 42.9279 4.46367 43.1328C4.66657 43.4402 4.76802 44.3623 4.66657 44.5672C5.07237 44.8745 4.76802 45.4892 4.36222 45.2843C4.05788 45.1819 3.55063 44.4647 4.15932 43.9524C4.15932 43.7475 3.85498 43.7475 3.44918 44.1573C3.65208 43.3377 2.13034 43.5426 1.82599 43.7475C1.62309 44.0549 1.42019 45.6941 2.23179 45.3868C1.82599 45.7966 1.82599 46.104 2.02889 46.104C2.53614 45.4892 3.24628 46.0015 3.34773 46.3089C3.55063 46.7187 2.94193 47.026 2.63759 46.6162C2.43469 46.7187 1.52164 46.7187 1.2173 46.5138C1.11585 47.5383 2.53614 48.6653 3.75353 48.0506C3.85498 48.0506 3.95643 48.3579 3.75353 48.6653C3.85498 48.7677 4.15933 48.8702 4.36222 48.6653C4.86947 48.153 4.05788 47.6408 4.76802 47.5383C4.97092 47.8457 4.56512 48.3579 4.86947 48.5628C5.17382 48.9726 5.57961 48.2555 6.08686 48.153C6.08686 47.7432 6.79701 47.2309 6.39121 46.8211ZM2.53614 45.1819C2.53614 45.1819 2.33324 44.977 2.53614 44.6696C2.84048 44.3623 3.04338 44.6696 3.04338 44.6696C3.04338 44.6696 3.34773 45.2843 3.34773 45.5917C3.14483 45.4892 2.53614 45.1819 2.53614 45.1819ZM4.86947 47.026C4.76802 47.026 4.36222 47.3334 4.15932 47.2309L3.34773 46.4113L3.75353 46.0015L4.15932 45.5917L5.07237 46.3089C5.17382 46.5138 4.97092 46.9236 4.86947 47.026Z" fill="white"/>
<path d="M6.59421 48.3579C6.49276 48.3579 6.39131 48.3579 6.28986 48.4604C6.18842 48.5628 6.18842 48.6653 6.18842 48.8702C6.18842 49.0751 6.28986 49.1775 6.49276 49.3824C6.69566 49.5873 6.89856 49.6898 7.00001 49.6898C7.10146 49.6898 7.20291 49.6898 7.20291 49.5873C7.40581 49.3824 7.30436 49.0751 7.00001 48.7677C7.00001 48.4604 6.79711 48.3579 6.59421 48.3579Z" fill="white"/>
<path d="M4.26084 45.899L4.05794 46.2064L3.85504 46.4113C3.85504 46.4113 4.26084 47.026 4.66664 46.8211C4.86954 46.4113 4.26084 45.899 4.26084 45.899Z" fill="white"/>
<path d="M46.9711 43.6451C46.9711 43.7476 46.3624 44.0549 45.9566 43.2353C45.5509 43.1328 45.0436 43.0304 44.7393 42.9279C45.2465 43.9525 45.7538 44.8745 46.4639 45.2844C47.4784 46.0015 49.203 45.7966 49.8117 45.0794C48.8987 44.5672 47.7827 43.2353 47.174 42.0059C47.0726 42.3132 46.8697 42.8255 46.6668 43.1328C46.6668 43.3377 46.8697 43.5427 46.9711 43.6451Z" fill="white"/>
<path d="M57.2175 27.5601C58.4349 27.0479 60.0581 25.9209 60.8697 25.1013C60.9711 25.2037 61.2754 25.9209 60.3624 26.6381C59.7537 27.1503 58.4349 27.7651 57.4204 28.1749C57.0146 28.892 56.1015 29.6092 54.8841 30.4288C57.2175 30.019 60.0581 29.0969 61.3769 27.7651C64.0146 25.2037 62.5943 22.0277 62.2899 21.413C60.5653 23.5645 57.4204 25.8184 54.3769 26.9454C55.3914 27.0479 56.5073 27.2528 57.2175 27.5601Z" fill="white"/>
<path d="M55.2899 22.7444C56.8117 21.515 58.4349 18.9537 58.7392 18.0316C59.0436 18.2365 59.2465 19.0561 58.7392 19.8757C57.9276 21.3101 56.5073 22.5395 55.2899 23.5641C55.1885 24.4861 54.8841 25.5107 54.3769 26.3303C56.203 25.1008 58.3334 23.2567 59.2465 21.9248C60.4639 20.2856 60.9711 18.6463 60.7682 17.0071C60.8697 15.1629 59.5508 13.3187 59.0436 12.9089C58.7392 14.958 56.7102 18.3389 54.8841 20.2856C55.087 21.0027 55.2899 21.9248 55.2899 22.7444Z" fill="white"/>
<path d="M54.0726 34.5266C54.4784 34.9364 54.7827 35.4487 55.0871 35.9609C56.5073 36.2683 58.232 36.1659 58.232 36.1659C58.232 36.1659 58.1305 36.883 57.2175 36.9855C56.8117 36.9855 55.4929 36.7806 54.9856 36.6781C54.7827 36.7806 53.7682 36.9855 52.7537 37.1904C54.174 37.7026 56.3045 38.2149 57.7247 38.2149C57.8262 38.2149 58.0291 38.2149 58.1305 38.2149C60.261 38.01 61.3769 36.0634 61.3769 34.834C60.7682 34.9364 59.6523 35.0389 58.5363 35.0389C57.3189 34.9364 55.4929 34.834 54.0726 34.5266Z" fill="white"/>
<path d="M63.0002 28.8916C61.0726 29.9161 57.7248 30.9407 55.0871 30.9407C55.7973 31.3505 56.406 31.8627 56.8117 32.2726C57.9277 32.1701 59.4494 31.8627 60.3625 31.4529C60.3625 31.6578 60.3625 32.375 59.348 32.6824C58.6378 32.8873 57.5219 32.8873 56.7103 32.8873C56.1016 33.2971 55.0871 33.7069 54.2755 34.0143C54.9857 34.1167 55.8987 34.2192 56.8117 34.2192C58.232 34.2192 59.4494 34.1167 60.261 33.8094C60.9712 33.502 63.406 32.4775 63.0002 28.8916Z" fill="white"/>
<path d="M52.6522 39.0348C53.4638 39.4446 54.2754 39.6495 55.087 39.7519C55.087 39.7519 54.9856 40.4691 53.8696 40.3666C53.2609 40.2642 52.4493 39.8544 52.3479 39.6495C51.8406 39.7519 50.8261 39.6495 50.4203 39.6495C51.6377 40.5716 53.5653 41.5961 55.1885 41.6985C55.2899 41.6985 55.3914 41.6985 55.3914 41.6985C57.116 41.6985 58.4348 39.9568 58.7392 39.1372C57.0145 39.1372 54.174 38.42 52.3479 37.3955C52.4493 37.9078 52.6522 38.42 52.6522 39.0348Z" fill="white"/>
<path d="M49.8117 41.2886C50.2174 41.8009 50.9276 42.1083 50.9276 42.1083C50.9276 42.1083 50.7247 42.5181 50.3189 42.5181C50.2174 42.5181 50.0146 42.5181 49.9131 42.4156C49.6088 42.2107 49.203 41.8009 49.203 41.8009C48.5943 41.6985 48.087 41.596 47.5798 41.4935C48.4928 42.6205 49.9131 43.9524 51.5363 44.3622C51.7392 44.4647 52.0435 44.4647 52.2464 44.4647C53.6667 44.4647 54.7827 43.4402 55.087 42.723C53.4638 42.5181 51.1305 41.2886 49.9131 40.0592C49.9131 40.469 49.9131 40.9813 49.8117 41.2886Z" fill="white"/>
<path d="M39.2611 59.5252C40.0727 59.5252 40.5799 59.2178 40.8843 58.3982C39.7683 58.9105 38.5509 58.6031 36.4205 57.9884C36.4205 57.9884 35.6089 58.3982 35.1016 58.3982C36.4205 58.808 38.2466 59.4228 38.6524 60.1399C38.7538 60.7546 38.4495 60.8571 38.4495 60.8571C37.7393 59.935 36.8263 59.4227 35.0002 58.9105C35.0002 59.2178 34.8987 59.5252 34.8987 59.5252C34.8987 59.5252 34.493 59.6277 33.6814 59.5252C34.3915 60.1399 36.2176 61.6767 36.4205 63.316C36.5219 64.443 35.8118 64.443 35.8118 64.443C35.7103 62.8037 35.0002 61.6767 33.377 60.0375C33.377 60.0375 33.0727 60.4473 32.7683 60.6522C32.7683 60.6522 32.1596 60.5497 31.7538 60.2424C31.9567 62.3939 32.0582 67.7215 31.9567 68.6435C31.8553 69.2583 31.5509 69.4632 31.5509 69.4632C31.5509 69.4632 31.2466 69.2583 31.1451 68.6435C31.0437 67.8239 31.1451 62.4963 31.348 60.2424C30.8408 60.5497 30.3335 60.6522 30.3335 60.6522C30.0292 60.4473 29.7248 60.0375 29.7248 60.0375C28.2031 61.7792 27.4929 62.8037 27.29 64.443C27.29 64.443 26.4785 64.3405 26.6814 63.316C26.8843 61.6767 28.7103 60.1399 29.4205 59.5252C28.6089 59.6277 28.2031 59.5252 28.2031 59.5252C28.2031 59.5252 28.1016 59.3203 28.1016 58.9105C26.1741 59.5252 25.3625 60.0375 24.6524 60.8571C24.6524 60.8571 24.2466 60.7546 24.4495 60.1399C24.7538 59.4228 26.6814 58.808 28.0002 58.3982C27.4929 58.3982 26.6814 57.9884 26.6814 57.9884C24.5509 58.6031 23.3335 58.9105 22.2176 58.3982C22.5219 59.2178 23.1306 59.5252 23.8408 59.5252C22.8263 59.935 21.8118 60.8571 21.6089 61.9841C22.319 64.7503 24.6524 65.5699 24.6524 65.5699C24.0437 64.238 24.348 61.6767 27.7973 59.8326C25.6669 61.9841 24.8553 63.9307 25.3625 65.7748C25.8698 67.5165 27.5944 68.1313 28.9132 68.2337C28.0002 65.365 28.406 62.9062 30.3335 60.8571C29.5219 63.1111 28.406 69.9754 31.6524 71.1024C34.8987 69.9754 33.7828 63.1111 32.9712 60.8571C34.8987 62.9062 35.3045 65.4675 34.3915 68.2337C35.7103 68.2337 37.435 67.5165 37.9422 65.7748C38.5509 63.9307 37.6379 61.9841 35.5074 59.8326C39.0582 61.6767 39.2611 64.238 38.6524 65.5699C38.6524 65.5699 40.9857 64.7503 41.6959 61.9841C41.2901 60.8571 40.2756 59.8326 39.2611 59.5252Z" fill="white"/>
<path d="M16.6376 45.2844C17.3477 44.7721 17.8549 43.9525 18.3622 42.9279C18.0578 43.0304 17.652 43.2353 17.1448 43.2353C16.739 44.0549 16.1303 43.7476 16.1303 43.6451C16.2318 43.5427 16.4347 43.2353 16.5361 43.1328C16.3332 42.8255 16.1303 42.3132 16.0289 42.0059C15.4202 43.3377 14.3042 44.5672 13.3912 45.0794C13.797 45.8991 15.5216 46.0015 16.6376 45.2844Z" fill="white"/>
<path d="M8.1159 30.4288C6.89851 29.6092 6.08692 28.892 5.57967 28.1749C4.56518 27.7651 3.24634 27.1503 2.63764 26.6381C1.7246 25.9209 2.02895 25.2037 2.1304 25.1013C2.94199 25.9209 4.56518 27.0479 5.78257 27.5601C6.49272 27.2528 7.60866 27.0479 8.62315 26.9454C5.57967 25.716 2.43474 23.462 0.710107 21.413C0.405759 22.1301 -1.01453 25.2037 1.62315 27.7651C2.94199 29.0969 5.78257 30.019 8.1159 30.4288Z" fill="white"/>
<path d="M8.62338 26.3303C8.21758 25.5107 7.81178 24.4861 7.71034 23.5641C6.49294 22.5395 5.07266 21.3101 4.26106 19.8757C3.75382 19.0561 3.95671 18.3389 4.26106 18.0316C4.56541 18.9537 6.1886 21.4125 7.71034 22.7444C7.71034 21.9248 7.81178 21.0027 8.11613 20.2856C6.3915 18.3389 4.36251 14.958 3.95671 12.9089C3.44947 13.3187 2.13063 15.1629 2.23208 17.0071C2.02918 18.6463 2.53642 20.2856 3.75382 21.9248C4.66686 23.2567 6.79729 25.1008 8.62338 26.3303Z" fill="white"/>
<path d="M7.91294 35.8584C8.11583 35.4486 8.52163 34.9363 8.92743 34.4241C7.50714 34.8339 5.68105 34.9363 4.76801 34.9363C3.65207 34.9363 2.53612 34.8339 1.92743 34.7314C1.92743 35.8584 2.94192 37.9075 5.1738 38.1124C5.27525 38.1124 5.3767 38.1124 5.5796 38.1124C6.89844 38.1124 9.02888 37.6001 10.5506 37.0879C9.53612 36.9854 8.52163 36.678 8.31873 36.5756C7.60859 36.678 6.28975 36.883 5.88395 36.883C4.97091 36.7805 4.86946 36.0633 4.86946 36.0633C4.86946 36.0633 6.59409 36.1658 7.91294 35.8584Z" fill="white"/>
<path d="M2.73921 33.8094C3.5508 34.1167 4.76819 34.2192 6.18848 34.2192C7.10153 34.2192 8.01457 34.1167 8.72472 34.0143C7.91312 33.7069 6.89863 33.2971 6.28993 32.8873C5.47834 32.8873 4.3624 32.8873 3.65225 32.6824C2.63776 32.375 2.63776 31.6578 2.63776 31.4529C3.5508 31.8627 5.07254 32.1701 6.18848 32.2726C6.59428 31.8627 7.20298 31.3505 7.91312 30.9407C5.27544 30.9407 1.82616 29.9161 7.71917e-05 28.8916C-0.40572 32.4775 2.02906 33.502 2.73921 33.8094Z" fill="white"/>
<path d="M7.71013 41.6983C7.81158 41.6983 7.91303 41.6983 7.91303 41.6983C9.53622 41.4934 11.4638 40.4688 12.6811 39.6492C12.2753 39.7517 11.2609 39.7517 10.7536 39.6492C10.5507 39.7517 9.84057 40.2639 9.23187 40.3664C8.11593 40.4688 8.01448 39.7517 8.01448 39.7517C8.72462 39.6492 9.63767 39.4443 10.4493 39.0345C10.5507 38.4198 10.6522 37.9075 10.7536 37.4977C9.02897 38.5222 6.08694 39.2394 4.3623 39.2394C4.66665 39.9566 5.98549 41.6983 7.71013 41.6983Z" fill="white"/>
<path d="M10.7536 44.362C10.9565 44.362 11.2609 44.362 11.4637 44.2596C12.9855 43.8498 14.5072 42.5179 15.4203 41.3909C14.913 41.5958 14.4058 41.6982 13.7971 41.6982C13.7971 41.6982 13.3913 42.2105 13.0869 42.313C12.884 42.4154 12.7826 42.4154 12.6811 42.4154C12.2753 42.4154 12.0724 42.0056 12.0724 42.0056C12.0724 42.0056 12.7826 41.6982 13.1884 41.186C13.1884 40.9811 13.0869 40.4688 13.0869 39.9565C11.8695 41.186 9.53621 42.4154 7.91302 42.6203C8.21737 43.3375 9.33331 44.362 10.7536 44.362Z" fill="white"/>
<path d="M30.9423 3.89316C30.9423 4.20052 31.2466 4.50788 31.551 4.50788C31.8553 4.50788 32.1597 4.20052 32.1597 3.89316C32.1597 3.5858 31.8553 3.27844 31.551 3.27844C31.1452 3.27844 30.9423 3.5858 30.9423 3.89316Z" fill="white"/>
<path d="M31.145 2.56133H31.9566L31.8552 1.5368L32.6668 1.63925V0.922078L31.8552 1.02453L31.9566 0H31.145L31.2465 1.02453L30.3334 0.922078V1.63925L31.2465 1.5368L31.145 2.56133Z" fill="white"/>
<path d="M28.3045 12.3966C28.406 12.3966 28.5074 12.3966 28.6089 12.3966H34.4929C34.5944 12.3966 34.6958 12.3966 34.7973 12.3966C35.0002 12.2942 35.1016 12.1917 35.1016 11.9868H28.0002C28.0002 12.1917 28.1016 12.2942 28.3045 12.3966Z" fill="white"/>
<path d="M34.6959 11.4748C34.7973 11.4748 34.7973 11.4748 34.7973 11.3724V10.9626C34.7973 10.8601 34.7973 10.8601 34.6959 10.8601H28.3046C28.2031 10.8601 28.2031 10.8601 28.2031 10.9626V11.3724C28.2031 11.4748 28.2031 11.4748 28.3046 11.4748H34.6959Z" fill="white"/>
<path d="M35.4061 10.3478C35.609 10.1429 36.4206 8.50366 36.4206 6.96686C36.4206 5.53252 34.5945 4.71289 33.58 4.71289C33.4785 6.76195 32.6669 10.0405 31.6525 10.0405C30.638 10.0405 29.8264 6.76195 29.7249 4.71289C28.609 4.71289 26.8843 5.53252 26.8843 6.96686C26.8843 8.60611 27.6959 10.1429 27.8988 10.3478H35.4061Z" fill="white"/>
<path d="M31.5509 8.91348C32.0581 8.91348 32.6668 7.37669 32.8697 5.83989C32.8697 5.53253 32.3625 5.02026 31.5509 5.02026C30.7393 5.02026 30.2321 5.53253 30.2321 5.83989C30.3335 7.27423 31.0437 8.91348 31.5509 8.91348Z" fill="white"/>
<path d="M40.7824 33.1946C40.7824 32.9897 40.5795 32.7848 40.3766 32.7848H22.623C22.4201 32.7848 22.2172 32.9897 22.2172 33.1946V45.489V45.5914V45.6939C22.2172 45.6939 22.2172 46.3086 22.5216 47.1282C22.9274 48.0503 24.4491 49.4846 26.3766 50.5092C29.1158 51.9435 30.739 53.0705 31.4491 53.6852C32.2607 53.0705 33.8839 51.9435 36.5216 50.5092C38.4491 49.4846 39.9709 48.0503 40.3766 47.1282C40.681 46.3086 40.681 45.6939 40.681 45.6939L40.7824 33.1946ZM34.7969 37.7025V37.805C34.9998 38.7271 35.2027 39.6491 35.3042 40.5712C36.0143 41.1859 36.7245 41.8007 37.2317 42.4154C38.3477 41.1859 38.8549 39.9565 38.9564 39.0344C38.4491 39.0344 38.0433 38.6246 38.0433 38.1124C38.0433 37.9074 38.1448 37.805 38.2462 37.6001C37.739 37.2927 37.1303 37.2927 36.623 37.2927C36.2172 37.2927 35.71 37.2927 35.2027 37.3952H35.1013H34.9998V37.2927C35.1013 37.1903 35.1013 37.0878 35.1013 36.9854C36.5216 36.678 37.739 36.8829 38.4491 37.2927C38.5506 37.1903 38.7535 37.1903 38.9564 37.1903C39.4636 37.1903 39.8694 37.6001 39.8694 38.1124C39.8694 38.4197 39.6665 38.7271 39.3622 38.932C39.3622 39.9565 38.7535 41.2884 37.5361 42.7227C37.6375 42.8252 37.6375 42.9276 37.739 42.9276L37.8404 43.0301C37.739 43.1326 37.739 43.1326 37.6375 43.235L37.5361 43.1326C37.5361 43.0301 37.4346 43.0301 37.4346 42.9276C37.3332 43.0301 37.1303 43.235 37.0288 43.3375L36.9274 43.4399C36.7245 43.6448 36.5216 43.6448 36.3187 43.5424H36.2172L36.3187 43.4399C36.7245 43.1326 37.0288 42.8252 37.2317 42.5178C36.7245 42.0056 36.2172 41.4933 35.6085 40.981C35.6085 41.4933 35.71 42.0056 35.71 42.5178C35.71 42.9276 35.71 43.4399 35.6085 44.0546C35.5071 44.0546 35.4056 44.1571 35.3042 44.2595H35.2027V44.1571C35.3042 43.5424 35.3042 43.0301 35.3042 42.5178C35.3042 42.3129 35.3042 42.2105 35.3042 42.0056V41.9031C35.3042 41.5958 35.2027 40.4688 35.1013 39.8541C34.9998 39.2393 34.8984 38.6246 34.7969 38.1124C34.594 38.0099 34.6955 37.9074 34.7969 37.7025ZM28.71 36.3706C29.4201 34.6289 30.4346 33.7069 31.5506 33.7069C32.5651 33.7069 33.5795 34.6289 34.3911 36.3706C34.3911 36.3706 34.2897 36.4731 34.0868 36.4731C33.3766 34.9363 32.5651 34.0142 31.652 34.0142C30.739 34.0142 29.9274 34.9363 29.2172 36.4731C28.9129 36.4731 28.8114 36.4731 28.71 36.3706ZM28.5071 36.7805C28.8114 36.9854 29.4201 37.2927 30.1303 37.0878C30.739 36.8829 31.5506 36.8829 31.5506 36.8829C31.5506 36.8829 32.3622 36.8829 32.9709 37.0878C33.681 37.2927 34.2897 36.9854 34.594 36.7805C34.594 36.7805 34.6955 36.7805 34.6955 36.8829C34.594 37.1903 34.3911 37.9074 33.2752 38.2148C32.2607 38.4197 31.7535 39.6491 31.652 40.1614C31.652 40.2639 31.5506 40.2639 31.5506 40.1614C31.3477 39.6491 30.9419 38.5222 29.9274 38.2148C28.71 37.9074 28.5071 37.1903 28.5071 36.7805C28.4056 36.7805 28.4056 36.7805 28.5071 36.7805ZM30.2317 39.7516C30.4346 39.7516 30.5361 39.6491 30.739 39.5467C30.8404 39.7516 30.9419 39.8541 30.9419 40.059C30.739 40.1614 30.4346 40.2639 30.2317 40.2639C29.4201 40.2639 28.8114 39.6491 28.8114 38.8295C28.8114 38.6246 28.8114 38.4197 28.9129 38.3173C29.0143 38.4197 29.2172 38.5222 29.4201 38.5222C29.4201 38.6246 29.3187 38.7271 29.3187 38.8295C29.4201 39.3418 29.8259 39.7516 30.2317 39.7516ZM29.8259 38.932C29.8259 38.8295 29.8259 38.8295 29.8259 38.7271C30.0288 38.8295 30.2317 39.0344 30.4346 39.2393C30.3332 39.2393 30.3332 39.3418 30.2317 39.3418C30.0288 39.3418 29.8259 39.1369 29.8259 38.932ZM30.2317 40.7761C30.5361 40.7761 30.8404 40.6737 31.1448 40.4688C31.2462 40.5712 31.3477 40.8786 31.4491 40.8786C31.5506 40.8786 31.652 40.5712 31.7535 40.4688C32.0578 40.6737 32.3622 40.7761 32.6665 40.7761C33.1738 40.7761 33.681 40.5712 33.9853 40.2639C34.1882 40.8786 34.1882 41.5958 34.1882 41.9031C34.1882 42.2105 34.0868 42.5178 33.9853 42.8252C33.8839 43.235 33.7824 43.4399 33.7824 43.4399C33.7824 43.4399 33.7824 43.5424 33.681 43.6448C33.5795 43.9522 33.3766 44.4644 33.0723 44.9767C32.5651 44.6693 31.8549 44.4644 31.1448 44.4644C30.5361 44.4644 29.9274 44.6693 29.4201 44.8743C29.2172 44.362 29.0143 43.9522 28.9129 43.6448C28.8114 43.4399 28.8114 43.4399 28.8114 43.4399C28.8114 43.4399 28.71 43.1326 28.5071 42.7227C28.4056 42.5178 28.4056 42.2105 28.3042 41.9031C28.3042 41.6982 28.3042 40.8786 28.4056 40.2639C28.4056 40.1614 28.5071 40.059 28.5071 40.059C29.2172 40.5712 29.7245 40.7761 30.2317 40.7761ZM32.768 39.7516C33.2752 39.7516 33.681 39.3418 33.681 38.8295C33.681 38.7271 33.681 38.6246 33.5795 38.5222C33.7824 38.4197 33.8839 38.4197 34.0868 38.3173C34.1882 38.5222 34.1882 38.6246 34.1882 38.8295C34.1882 39.6491 33.5795 40.2639 32.768 40.2639C32.4636 40.2639 32.2607 40.1614 32.0578 40.059C32.0578 39.9565 32.1593 39.7516 32.2607 39.5467C32.4636 39.7516 32.6665 39.7516 32.768 39.7516ZM32.5651 39.2393C32.768 39.0344 32.9709 38.8295 33.1738 38.7271C33.1738 38.7271 33.1738 38.8295 33.1738 38.932C33.1738 39.1369 32.9709 39.3418 32.768 39.3418C32.6665 39.3418 32.6665 39.2393 32.5651 39.2393ZM24.0433 37.0878C24.2462 37.0878 24.3477 37.1903 24.5506 37.2927C25.0578 36.9854 25.6665 36.7805 26.4781 36.7805C26.8839 36.7805 27.3911 36.7805 27.8984 36.8829H27.9998C27.9998 36.9854 28.1013 37.0878 28.1013 37.1903V37.2927H27.8984H27.7969C27.2897 37.1903 26.8839 37.1903 26.4781 37.1903C25.9708 37.1903 25.3622 37.2927 24.8549 37.4976C24.9564 37.6001 24.9564 37.805 24.9564 38.0099C24.9564 38.5222 24.5506 38.932 24.0433 38.932C24.0433 39.8541 24.652 40.981 25.768 42.3129C26.3766 41.6982 26.9853 41.0835 27.6955 40.4688C27.7969 39.5467 27.9998 38.6246 28.2027 37.7025V37.6001L28.3042 37.7025C28.4056 37.805 28.4056 37.9074 28.5071 37.9074C28.4056 38.4197 28.2027 39.0344 28.2027 39.6491C28.1013 40.059 28.1013 40.6737 28.1013 41.2884C28.1013 41.6982 28.1013 42.108 28.1013 42.4154C28.1013 42.8252 28.1013 43.3375 28.2027 43.8497V43.9522H28.1013C27.9998 43.9522 27.8984 43.8497 27.7969 43.8497C27.7969 43.4399 27.6955 42.9276 27.6955 42.5178C27.6955 42.0056 27.6955 41.4933 27.7969 40.981C27.1882 41.4933 26.681 42.0056 26.1737 42.5178C26.5795 42.9276 27.0868 43.4399 27.594 43.8497L27.6955 43.9522H27.594C27.3911 43.9522 27.1882 43.9522 27.0868 43.9522C26.5795 43.5424 26.2752 43.1326 25.9708 42.8252C25.8694 42.9276 25.8694 42.9276 25.768 43.0301L25.6665 43.1326C25.5651 43.1326 25.4636 43.235 25.3622 43.235C25.3622 43.235 25.3622 43.235 25.2607 43.1326C25.2607 43.1326 25.2607 43.1326 25.1593 43.1326C25.3622 42.9276 25.4636 42.7227 25.5651 42.6203C24.3477 41.1859 23.739 39.8541 23.739 38.8295C23.4346 38.6246 23.2317 38.3173 23.2317 38.0099C23.1303 37.4976 23.5361 37.0878 24.0433 37.0878ZM34.4926 48.5626C33.9853 49.9969 33.1737 51.0214 32.4636 51.5337C32.3622 51.9435 32.0578 52.3533 31.5506 52.3533C31.0433 52.3533 30.739 52.046 30.6375 51.5337C29.8259 51.1239 29.1158 50.0994 28.6085 48.665V48.5626L29.0143 48.4601C29.5216 49.6895 30.0288 50.6116 30.739 51.0214C30.8404 50.6116 31.2462 50.4067 31.652 50.4067C32.0578 50.4067 32.3622 50.7141 32.5651 51.0214C33.1737 50.6116 33.7824 49.6895 34.2897 48.4601C34.2897 48.4601 34.3911 48.5626 34.4926 48.5626ZM30.739 48.5626C30.739 48.2552 30.8404 47.4356 30.9419 47.2307C31.1448 47.1282 31.3477 47.0258 31.5506 47.0258C31.7535 47.0258 32.0578 47.1282 32.1593 47.2307C32.2607 47.538 32.3622 48.2552 32.3622 48.5626C32.3622 48.8699 31.652 49.0748 31.5506 49.0748C31.4491 49.0748 30.739 48.8699 30.739 48.5626ZM40.1738 45.489C40.1738 45.5914 40.0723 45.5914 39.9709 45.5914C39.8694 45.5914 39.768 45.6939 39.6665 45.6939H39.5651C39.4636 45.6939 39.2607 45.6939 39.1593 45.5914C39.1593 45.5914 39.0578 45.5914 39.0578 45.489C38.8549 45.489 38.3477 45.6939 38.1448 45.6939C38.2462 45.6939 38.8549 45.7963 39.3622 46.1037C39.5651 46.2061 39.9709 46.3086 40.1738 46.3086C40.1738 46.4111 39.4636 46.9233 38.0433 46.616L37.739 46.5135C37.1303 46.3086 36.5216 46.3086 35.8114 46.3086C35.9129 46.3086 35.9129 46.3086 36.0143 46.411C36.2172 46.5135 36.3187 46.5135 36.5216 46.616C36.5216 46.616 36.5216 46.616 36.623 46.616H36.7245C36.8259 46.616 36.8259 46.616 36.9274 46.616C37.0288 46.616 37.1303 46.7184 37.1303 46.7184C37.2317 46.8209 37.3332 46.8209 37.3332 46.9233C37.3332 46.9233 37.4346 47.0258 37.4346 47.1282C37.4346 47.2307 37.4346 47.3331 37.3332 47.4356C37.0288 47.7429 36.8259 47.7429 36.5216 47.4356C36.5216 47.4356 36.5216 47.4356 36.4201 47.3331C36.4201 47.3331 36.3187 47.1282 36.2172 47.0258V46.9233C36.1158 46.8209 36.0143 46.7184 35.8114 46.7184C35.5071 46.616 35.3042 46.5135 35.1013 46.5135C34.9998 46.5135 34.9998 46.5135 34.8984 46.5135C35.1013 46.616 35.3042 46.8209 35.4056 47.0258C35.5071 47.2307 35.5071 47.4356 35.6085 47.6405C35.8114 48.1528 35.9129 48.1528 36.1158 48.3577C35.9129 48.4601 34.7969 48.3577 34.2897 47.6405C34.2897 47.6405 34.2897 47.538 34.1882 47.538C34.0868 47.2307 33.9853 46.9233 33.8839 46.7184C33.7824 46.5135 33.8839 46.3086 33.7824 46.2061C33.681 46.1037 33.5795 46.2061 33.5795 46.2061C33.4781 46.2061 33.4781 46.3086 33.4781 46.3086V46.411C33.4781 46.411 33.4781 46.4111 33.4781 46.5135H33.3766C33.3766 46.5135 33.3766 46.5135 33.2752 46.5135C33.1737 46.5135 33.1737 46.5135 33.0723 46.5135C32.9708 46.5135 32.9709 46.411 32.9709 46.411V46.3086H32.8694C32.768 46.3086 32.768 46.3086 32.768 46.2061C32.768 46.1037 32.768 46.1037 32.768 46.0012L32.6665 46.1037C32.5651 46.1037 32.5651 46.1037 32.5651 46.1037L32.4636 46.0012V45.8988C32.3622 45.8988 32.2607 45.7963 32.1593 45.7963C32.0578 45.7963 31.9564 45.8988 31.8549 45.8988C31.8549 45.8988 31.8549 45.8988 31.7535 45.8988V45.7963H31.652V45.8988V46.0012C31.652 46.1037 31.652 46.1037 31.652 46.2061C31.652 46.2061 31.5506 46.3086 31.5506 46.2061C31.5506 46.2061 31.5506 46.2061 31.4491 46.2061C31.4491 46.2061 31.4491 46.2061 31.3477 46.1037C31.3477 46.1037 31.3477 46.1037 31.3477 46.2061V46.3086C31.3477 46.4111 31.2462 46.411 31.1448 46.411C31.1448 46.411 31.1448 46.411 31.0433 46.411C31.0433 46.411 31.0433 46.411 30.9419 46.411C30.9419 46.411 31.0433 46.5135 30.9419 46.5135C30.9419 46.616 30.8404 46.616 30.8404 46.616C30.739 46.616 30.739 46.616 30.6375 46.616C30.6375 46.616 30.6375 46.616 30.5361 46.616C30.5361 46.616 30.5361 46.616 30.4346 46.616C30.4346 46.616 30.3332 46.616 30.3332 46.5135H30.2317L30.1303 46.411C29.9274 46.3086 29.7245 46.8209 29.7245 46.8209C29.0143 48.2552 27.4926 48.4601 27.3911 48.4601C27.3911 48.4601 27.7969 48.2552 27.8984 47.7429C27.9998 47.4356 27.9998 47.3331 28.1013 47.1282L28.2027 47.0258C28.3042 46.9233 28.5071 46.7184 28.6085 46.616C28.5071 46.616 28.5071 46.616 28.4056 46.616C28.2027 46.616 27.8984 46.7184 27.6955 46.8209C27.594 46.8209 27.4926 46.9233 27.2897 47.0258V47.1282C27.2897 47.2307 27.1882 47.3331 27.0868 47.4356C27.0868 47.4356 27.0868 47.4356 26.9853 47.538C26.681 47.8454 26.4781 47.8454 26.1737 47.538C26.1737 47.538 26.1737 47.4356 26.0723 47.4356C26.0723 47.3331 25.9708 47.2307 26.0723 47.1282C26.0723 47.0258 26.1737 46.9233 26.1737 46.9233C26.2752 46.8209 26.2752 46.8209 26.3766 46.8209C26.4781 46.8209 26.5795 46.7184 26.5795 46.7184C26.681 46.7184 26.681 46.7184 26.7824 46.7184H26.8839C26.8839 46.7184 26.8839 46.7184 26.9853 46.7184C27.0868 46.7184 27.0868 46.616 27.1882 46.616C27.2897 46.616 27.2897 46.5135 27.3911 46.5135H27.4926C26.8839 46.5135 26.2752 46.5135 25.6665 46.7184C25.5651 46.7184 25.4636 46.8209 25.2607 46.8209C24.5506 47.0258 23.1303 46.616 23.1303 46.5135C23.1303 46.4111 23.4346 46.411 23.9419 46.2061C24.2462 46.1037 24.4491 45.8988 24.652 45.8988C24.8549 45.7963 25.2607 45.7963 25.2607 45.7963C25.0578 45.6939 24.4491 45.5914 24.2462 45.5914L24.1448 45.6939C24.0433 45.7963 23.8404 45.7963 23.6375 45.7963C23.5361 45.7963 23.4346 45.7963 23.3332 45.6939C23.2317 45.6939 23.1303 45.5914 23.1303 45.5914C23.1303 45.489 23.0288 45.3865 23.0288 45.2841C23.1303 44.9767 23.3332 44.8743 23.739 44.9767C23.9419 45.0792 24.0433 45.0792 24.1448 45.1816C24.1448 45.1816 24.1448 45.1816 24.2462 45.2841C24.4491 45.2841 24.7535 45.3865 25.0578 45.489C25.3622 45.5914 25.5651 45.6939 25.768 45.6939C25.6665 45.6939 25.6665 45.5914 25.5651 45.5914C25.5651 45.5914 25.4636 45.489 25.3622 45.489C25.2607 45.489 25.1593 45.3865 25.1593 45.3865C24.7535 45.1816 24.2462 44.9767 23.9419 44.6693C23.3332 44.2595 23.3332 44.0546 23.2317 43.8497C23.1303 43.235 22.8259 42.9276 22.9274 42.8252C23.0288 42.7227 24.0433 43.235 24.3477 43.6448C24.5506 43.9522 24.652 44.1571 24.7535 44.362C24.8549 44.5669 25.0578 44.7718 25.3622 45.0792L25.4636 45.1816C25.3622 45.0792 25.2607 44.9767 25.2607 44.8743C25.2607 44.8743 25.2607 44.8743 25.2607 44.7718C25.2607 44.7718 25.1593 44.7718 25.1593 44.6693L25.0578 44.5669C25.0578 44.4644 24.9564 44.4644 24.9564 44.362C24.8549 44.1571 24.8549 43.9522 24.9564 43.8497C24.9564 43.7473 25.0578 43.6448 25.2607 43.6448C25.5651 43.5424 25.768 43.7473 25.8694 44.1571C25.8694 44.2595 25.8694 44.362 25.8694 44.362C25.8694 44.4644 25.8694 44.4644 25.8694 44.5669C25.8694 44.5669 25.8694 44.5669 25.8694 44.6693C26.0723 45.1816 26.3766 45.489 26.7824 45.7963C26.2752 45.3865 25.9708 44.362 26.0723 44.2595C26.1737 44.2595 26.5795 44.4644 27.0868 44.6693C27.2897 44.7718 27.4926 44.8743 27.6955 44.9767C27.7969 45.0792 27.9998 45.1816 28.1013 45.2841C28.2027 45.3865 28.3042 45.489 28.4056 45.5914C28.5071 45.6939 28.5071 45.6939 28.6085 45.7963C28.6085 45.7963 28.71 45.8988 28.8114 45.8988C28.9129 46.0012 29.1158 45.8988 29.1158 45.8988C29.1158 45.8988 29.2172 45.8988 29.3187 45.8988C29.4201 45.7963 29.5216 45.7963 29.5216 45.7963C29.5216 45.7963 29.5216 45.7963 29.5216 45.6939C29.5216 45.5914 29.623 45.489 29.7245 45.3865H29.8259C29.8259 45.3865 29.8259 45.3865 29.9274 45.3865C29.9274 45.3865 29.9274 45.3865 30.0288 45.3865H30.1303C30.1303 45.2841 30.2317 45.2841 30.2317 45.2841C30.4346 45.1816 30.6375 45.2841 30.739 45.3865C30.8404 45.489 30.8404 45.489 30.8404 45.5914V45.6939V45.7963V45.8988C30.9419 45.8988 31.0433 45.8988 31.1448 45.8988H31.2462C31.3477 45.8988 31.3477 45.8988 31.4491 45.8988C31.5506 45.8988 31.5506 45.8988 31.652 45.7963H31.7535H31.8549C31.8549 45.6939 31.8549 45.6939 31.8549 45.5914C31.8549 45.489 31.8549 45.489 31.8549 45.3865C31.8549 45.3865 31.8549 45.2841 31.9564 45.2841C31.9564 45.2841 31.9564 45.2841 32.0578 45.1816C32.1593 45.0792 32.3622 45.0792 32.4636 45.1816C32.5651 45.1816 32.5651 45.2841 32.5651 45.2841C32.6665 45.2841 32.6665 45.2841 32.768 45.2841H32.8694C32.8694 45.2841 32.8694 45.2841 32.9709 45.2841C33.0723 45.3865 33.1738 45.489 33.1738 45.5914H33.2752C33.2752 45.5914 33.681 45.5914 33.7824 45.5914H34.1882L34.2897 45.489C34.3911 45.3865 34.4926 45.2841 34.594 45.1816C34.6955 45.0792 34.7969 44.9767 34.9998 44.8743C35.2027 44.7718 35.5071 44.6693 35.71 44.5669C36.4201 44.2595 36.5216 43.8497 36.623 43.8497C36.7245 43.8497 36.4201 45.0792 35.9129 45.5914C36.3187 45.2841 36.7245 44.9767 36.8259 44.4644C36.8259 44.4644 36.8259 44.4644 36.8259 44.362C36.8259 44.2595 36.8259 44.2595 36.8259 44.1571C36.8259 44.0546 36.8259 44.0546 36.8259 43.9522C36.9274 43.5424 37.1303 43.3375 37.4346 43.4399C37.6375 43.4399 37.739 43.5424 37.739 43.6448C37.8404 43.7473 37.8404 43.9522 37.739 44.1571C37.739 44.2595 37.6375 44.362 37.6375 44.362C37.6375 44.4644 37.5361 44.4644 37.5361 44.4644C37.5361 44.4644 37.4346 44.4644 37.4346 44.5669C37.4346 44.5669 37.4346 44.5669 37.4346 44.6693C37.3332 44.7718 37.3332 44.8743 37.1303 45.0792C37.2317 45.0792 37.2317 44.9767 37.3332 44.9767C37.739 44.6693 37.9419 44.4644 37.9419 44.2595C38.0433 44.0546 38.0433 43.8497 38.3477 43.5424C38.652 43.1326 38.7535 43.0301 39.1593 42.8252C39.2607 42.8252 39.768 42.6203 39.768 42.7227C39.768 42.8252 39.3622 42.9276 39.2607 43.7473C39.1593 43.9522 39.1593 44.362 38.8549 44.5669C38.5506 44.8743 38.2462 44.9767 37.8404 45.1816H37.739C37.6375 45.1816 37.5361 45.2841 37.4346 45.2841C37.3332 45.3865 37.2317 45.3865 37.1303 45.489C37.3332 45.489 37.5361 45.3865 37.8404 45.2841C38.0433 45.1816 38.3477 45.0792 38.652 45.0792C38.652 45.0792 38.652 44.9767 38.7535 44.9767C38.8549 44.8743 38.9564 44.7718 39.1593 44.7718C39.5651 44.6693 39.768 44.7718 39.8694 45.0792C40.2752 45.3865 40.1738 45.489 40.1738 45.489Z" fill="white"/>
<path d="M52.9565 30.6337C54.0724 30.1214 55.8985 28.892 56.6086 27.9699C55.5941 27.6626 53.4637 27.3552 52.3478 27.3552C54.7825 25.7159 54.884 22.1301 54.1739 19.4663C53.6666 21.6178 52.1449 23.2571 51.1304 24.2816C51.2318 25.3061 50.9275 27.0478 50.3188 28.1748C51.1304 28.4822 52.0434 28.892 52.7536 29.4043C52.3478 29.9165 51.3333 30.8386 50.7246 31.3509C51.2318 31.8631 52.0434 32.8877 52.4492 33.3999C51.8405 33.8097 50.7246 34.322 50.0144 34.5269C50.3188 35.1416 50.7246 36.3711 50.9275 37.0882C50.2173 37.1907 49.2028 37.2932 48.1883 37.2932C48.1883 38.0103 48.0869 39.2398 47.9854 39.9569C47.0724 39.8545 45.9565 39.4447 45.4492 39.2398C45.1449 40.2643 44.5362 41.2888 44.5362 41.3913C43.6231 40.3667 42.7101 39.9569 41.9999 39.9569V39.2398C42.8115 39.2398 43.6231 39.5471 44.3333 40.1618C44.6376 39.6496 44.942 38.625 45.0434 38.1128C45.6521 38.4201 46.5652 38.7275 47.3768 38.9324C47.4782 38.2152 47.4782 37.2931 47.3768 36.4735C48.1883 36.576 49.1014 36.576 50.0144 36.3711C49.913 35.7564 49.3043 34.6294 48.8985 34.0147C49.7101 33.8097 50.7246 33.3999 51.2318 33.0926C50.826 32.4779 50.0144 31.6582 49.5072 31.2484C50.1159 30.8386 51.0289 30.019 51.4347 29.6092C50.826 29.1994 49.913 28.6871 49.2028 28.4822C50.2173 27.0478 50.4202 24.1792 50.2173 22.8473C49.3043 25.9209 46.6666 28.0724 45.1449 29.0969C45.0434 29.1994 44.942 29.1994 44.942 29.3018C44.8405 29.4043 44.5362 29.7116 44.7391 30.2239C44.7391 30.3263 44.8405 30.4288 44.8405 30.5312C44.942 31.146 44.942 32.068 44.1304 32.8877C43.4202 33.6048 42.5072 33.6048 41.9999 33.5024V31.8631C41.9999 31.6582 41.797 31.4533 41.5941 31.4533H40.4782L39.971 30.9411C39.971 30.9411 40.4782 30.9411 41.0869 30.9411C41.6956 30.9411 42.3043 30.6337 42.3043 30.6337C42.3043 30.6337 41.6956 30.6337 41.2898 30.5312C40.9854 30.4288 40.1739 30.1214 39.4637 29.4043C39.2608 29.0969 39.0579 28.7895 38.855 28.4822C38.2463 27.9699 37.6376 27.2527 37.2318 26.3307C36.9275 25.7159 36.826 24.6914 36.7246 24.0767C36.5217 24.2816 36.3188 24.4865 36.0144 24.8963C35.5072 25.6135 35.3043 26.5356 35.3043 26.5356L35.1014 27.2527L34.6956 26.638C34.6956 26.638 34.1883 25.8184 34.0869 24.6914C34.0869 24.1792 34.0869 23.7693 34.1883 23.3595C33.9854 23.462 33.7825 23.5644 33.5796 23.7693C32.6666 24.3841 32.2608 25.1012 32.2608 25.1012C31.7536 25.7159 31.5507 26.2282 31.4492 26.4331C31.3478 26.1258 31.1449 25.7159 30.6376 25.1012C30.6376 25.1012 30.1304 24.3841 29.3188 23.7693C29.1159 23.6669 28.913 23.462 28.7101 23.3595C28.7101 23.7693 28.8115 24.1792 28.8115 24.6914C28.7101 25.8184 28.2028 26.638 28.2028 26.638L27.797 27.2527L27.5941 26.5356C27.5941 26.5356 27.2898 25.511 26.884 24.8963C26.5796 24.4865 26.3767 24.2816 26.1739 24.0767C26.0724 24.6914 25.971 25.7159 25.6666 26.3307C25.2608 27.2527 24.6521 27.9699 24.0434 28.4822C23.942 28.7895 23.7391 29.0969 23.4347 29.4043C22.826 30.2239 21.913 30.5312 21.6086 30.5312C21.3043 30.6337 20.5941 30.6337 20.5941 30.6337C20.5941 30.6337 21.2028 30.9411 21.8115 30.9411C22.4202 30.9411 22.9275 30.9411 22.9275 30.9411L22.4202 31.4533H21.3043C21.1014 31.4533 20.8985 31.6582 20.8985 31.8631V33.5024C20.3912 33.6048 19.4782 33.5024 18.7681 32.8877C17.9565 32.068 17.9565 31.146 18.0579 30.5312C18.0579 30.4288 18.1594 30.3263 18.1594 30.2239C18.3623 29.7116 17.9565 29.4043 17.9565 29.3018C17.855 29.1994 17.855 29.1994 17.7536 29.0969C16.1304 28.0724 13.5941 25.8184 12.6811 22.8473C12.4782 24.1792 12.7825 27.0478 13.6956 28.4822C12.9854 28.7895 12.0724 29.1994 11.4637 29.6092C11.8695 30.019 12.7825 30.8386 13.3912 31.2484C12.884 31.6582 12.0724 32.5803 11.6666 33.0926C12.1739 33.3999 13.1883 33.8097 13.9999 34.0147C13.5941 34.6294 13.0869 35.7564 12.884 36.3711C13.797 36.576 14.7101 36.576 15.5217 36.4735C15.4202 37.2931 15.5217 38.2152 15.5217 38.9324C16.3333 38.8299 17.2463 38.4201 17.855 38.1128C17.9565 38.625 18.2608 39.6496 18.5652 40.1618C19.2753 39.5471 20.0869 39.1373 20.8985 39.2398V39.9569C20.0869 39.9569 19.2753 40.3667 18.3623 41.3913C18.3623 41.2888 17.6521 40.2643 17.4492 39.2398C16.942 39.4447 15.826 39.8545 14.913 39.9569C14.8115 39.2398 14.7101 38.0103 14.7101 37.2932C13.6956 37.2932 12.6811 37.1907 11.971 37.0882C12.0724 36.2686 12.5796 35.1416 12.884 34.5269C12.2753 34.322 11.0579 33.8097 10.4492 33.3999C10.855 32.7852 11.6666 31.8631 12.1739 31.3509C11.5652 30.8386 10.6521 30.019 10.1449 29.4043C10.855 28.892 11.7681 28.4822 12.5796 28.1748C12.0724 27.0478 11.6666 25.3061 11.7681 24.2816C10.7536 23.2571 9.33327 21.6178 8.72458 19.4663C8.01443 22.0276 8.11588 25.6135 10.5507 27.3552C9.33327 27.3552 7.30429 27.6626 6.28979 27.9699C6.99994 28.7895 8.82603 30.1214 9.94197 30.6337C9.02893 30.9411 7.50719 31.7607 6.89849 32.3754C7.71009 32.8877 9.53617 33.5024 10.4492 33.7073C9.94197 34.1171 8.92748 35.3465 8.52168 35.9613C9.23182 36.1662 10.7536 36.3711 11.6666 36.4735C11.3623 37.0882 11.0579 38.2152 10.9565 38.9324C11.4637 38.9324 12.9854 38.9324 13.6956 38.7275C13.5941 39.3422 13.6956 40.4692 13.797 40.9815C14.5072 40.879 15.6231 40.5717 16.1304 40.3667C16.2318 40.9815 16.8405 42.1084 16.942 42.4158C17.2463 42.3134 17.6521 42.2109 18.0579 42.1084C19.0724 41.6986 20.1883 42.2109 20.5941 43.133C21.3043 44.8747 20.9999 46.8213 19.5796 46.4115C17.9565 46.7188 19.0724 48.7679 18.1594 49.3826C19.3768 50.3047 19.7825 48.1532 21.3043 48.563C21.1014 49.3826 21.2028 50.7145 21.3043 51.3292C21.8115 50.9194 22.5217 50.6121 23.0289 50.6121C22.9275 51.0219 22.826 52.1489 23.0289 52.7636C23.3333 52.5587 25.4637 51.9439 25.4637 51.9439C25.4637 51.9439 24.6521 53.5832 25.1594 55.2224C25.4637 55.4274 27.2898 54.5053 27.3912 53.8906C27.4927 54.6077 26.6811 56.0421 25.4637 56.3494C26.7826 57.6813 27.9999 57.5789 28.1014 57.5789C28.3043 57.5789 28.5072 57.5789 28.6086 57.4764C28.5072 57.8862 28.5072 58.296 28.5072 58.7058C28.6086 58.7058 28.7101 58.7058 28.7101 58.7058C29.0144 58.7058 29.3188 58.6034 29.6231 58.5009C29.6231 58.8083 29.826 59.3206 30.1304 59.5255C30.2318 59.6279 30.2318 59.6279 30.3333 59.6279C30.6376 59.6279 31.3478 59.3206 31.5507 59.0132C31.7536 59.2181 32.4637 59.6279 32.7681 59.6279C32.8695 59.6279 32.8695 59.5255 32.971 59.5255C33.2753 59.2181 33.3768 58.8083 33.4782 58.5009C33.7825 58.6034 33.9854 58.7058 34.3912 58.7058C34.4927 58.7058 34.5941 58.7058 34.5941 58.7058C34.6956 58.3985 34.5941 57.8862 34.4927 57.4764C34.6956 57.5789 34.797 57.5789 34.9999 57.5789C35.2028 57.5789 36.3188 57.5789 37.6376 56.3494C36.4202 56.0421 35.6086 54.6077 35.7101 53.8906C35.7101 54.5053 37.6376 55.4274 37.942 55.2224C38.4492 53.5832 37.6376 51.9439 37.6376 51.9439C37.6376 51.9439 39.6666 52.4562 40.0724 52.7636C40.2753 52.1489 40.1739 51.0219 40.0724 50.6121C40.5797 50.6121 41.2898 50.9194 41.797 51.3292C41.8985 50.7145 41.8985 49.3826 41.797 48.563C43.3188 48.2556 43.7246 50.3047 44.942 49.3826C44.0289 48.7679 45.1449 46.6164 43.5217 46.4115C42.1014 46.8213 41.797 44.7722 42.5072 43.133C42.913 42.1084 44.1304 41.6986 45.0434 42.1084C45.4492 42.2109 45.7536 42.3134 46.1594 42.4158C46.3623 42.1084 46.8695 40.879 46.971 40.3667C47.4782 40.5717 48.5941 40.879 49.3043 40.9815C49.4057 40.4692 49.4057 39.3422 49.4057 38.7275C50.2173 38.9324 51.7391 38.9324 52.1449 38.9324C52.0434 38.2152 51.7391 37.0882 51.4347 36.4735C52.3478 36.3711 53.8695 36.2686 54.5796 35.9613C54.1739 35.3465 53.1594 34.1171 52.6521 33.7073C53.5652 33.5024 55.3912 32.8877 56.2028 32.3754C55.2898 31.8631 53.7681 31.0435 52.9565 30.6337ZM41.0869 47.3336C41.0869 47.436 40.9854 47.5385 40.884 47.7434L40.7825 47.8458C40.6811 47.9483 40.6811 48.0507 40.5797 48.1532L40.4782 48.2556C40.3768 48.3581 40.2753 48.4605 40.1739 48.6654C40.0724 48.7679 39.971 48.8704 39.971 48.8704C39.8695 48.9728 39.8695 48.9728 39.7681 49.0753C39.6666 49.1777 39.5652 49.2802 39.4637 49.3826C39.3623 49.3826 39.3623 49.4851 39.2608 49.4851C39.0579 49.69 38.7536 49.8949 38.4492 50.0998C38.0434 50.4072 37.7391 50.6121 37.3333 50.817C37.2318 50.9194 37.0289 51.0219 36.9275 51.0219C33.6811 52.7636 32.0579 53.993 31.5507 54.5053C31.0434 54.0955 29.4202 52.7636 26.1739 51.0219C26.0724 50.9194 25.8695 50.817 25.7681 50.817C25.3623 50.6121 24.9565 50.3047 24.6521 50.0998C24.3478 49.8949 24.1449 49.69 23.8405 49.4851C23.7391 49.4851 23.7391 49.3826 23.6376 49.3826C23.4347 49.1777 23.3333 49.0753 23.3333 48.9728C23.2318 48.8704 23.2318 48.8703 23.1304 48.7679C23.0289 48.6654 22.9275 48.563 22.9275 48.563C22.826 48.4605 22.7246 48.3581 22.6231 48.1532L22.5217 48.0507C22.4202 47.9483 22.4202 47.8458 22.3188 47.7434L22.2173 47.6409C22.1159 47.5385 22.1159 47.436 22.0144 47.2311C21.6086 46.309 21.6086 45.4894 21.6086 45.4894V32.5803C21.6086 32.3754 21.8115 32.1705 22.0144 32.1705H23.1304H31.5507H39.971H41.0869C41.2898 32.1705 41.4927 32.3754 41.4927 32.5803V45.4894C41.3912 45.5919 41.4927 46.309 41.0869 47.3336Z" fill="white"/>
<path d="M40.6813 11.7821C40.9857 11.7821 41.1886 11.5772 41.1886 11.2698C41.1886 10.9625 40.9857 10.7576 40.6813 10.7576C40.377 10.7576 40.1741 10.9625 40.1741 11.2698C40.1741 11.5772 40.377 11.7821 40.6813 11.7821Z" fill="white"/>
<path d="M40.6813 14.5484C40.9857 14.5484 41.29 13.319 41.29 12.7043C41.29 12.3969 40.9857 12.192 40.6813 12.192C40.377 12.192 40.0726 12.3969 40.0726 12.7043C40.0726 13.319 40.377 14.5484 40.6813 14.5484Z" fill="white"/>
<path d="M40.377 10.0404H40.9857L40.8843 9.22077L41.6959 9.32322V8.7085L40.8843 8.81096L40.9857 7.99133H40.377V8.81096L39.6669 8.7085V9.32322L40.377 9.22077V10.0404Z" fill="white"/>
<path d="M37.8407 16.0852C38.0436 16.0852 38.2465 16.1877 38.5508 16.1877C38.5508 16.1877 38.5508 16.1877 38.6523 16.1877H38.7537H38.8552H38.9566C39.0581 16.1877 39.0581 16.1877 39.1595 16.1877H39.261C39.3624 16.1877 39.3624 16.1877 39.4639 16.1877C40.0726 16.1877 40.6813 15.9828 41.1885 15.8803C41.7972 15.7778 42.4059 15.5729 43.0146 15.5729H43.1161H43.2175H43.319C43.319 15.5729 43.319 15.5729 43.4204 15.5729C43.6233 14.9582 43.7247 14.1386 43.7247 13.7288C43.7247 12.8067 43.2175 11.8846 41.4929 11.5773C41.4929 12.7043 40.9856 15.2656 40.3769 15.2656H40.5798C39.9711 15.2656 39.4639 12.6018 39.4639 11.5773C37.7392 11.8846 37.3334 12.8067 37.3334 13.7288C37.3334 14.2411 37.5363 15.1631 37.7392 15.8803C37.7392 15.9828 37.7392 15.9828 37.8407 16.0852Z" fill="white"/>
<path d="M46.5655 11.3725C46.5655 11.3725 46.0582 10.143 46.8698 9.83567C47.6814 9.52832 46.6669 9.73322 47.1742 8.09397C47.8843 6.14736 49.3046 6.55718 49.3046 6.55718C48.2901 5.73755 47.4785 5.84 46.9713 6.24982C46.6669 6.55718 46.1597 7.06944 45.7539 8.29888C45.2466 9.83567 45.7539 11.27 46.5655 11.3725Z" fill="white"/>
<path d="M50.4204 8.50368C50.5218 10.9626 54.5798 11.9871 54.5798 11.9871C54.5798 11.9871 52.2465 10.2454 52.7537 9.01594C52.7537 9.01594 54.2755 9.73311 56.1016 9.42576C52.3479 8.60613 53.5653 7.47915 52.6523 6.45462C51.7392 5.43009 50.2175 5.32763 49.9132 5.32763C49.0001 5.22518 48.8987 5.22518 47.7827 5.53254C50.116 5.53254 50.3189 6.86443 50.4204 8.50368Z" fill="white"/>
<path d="M49.8117 13.1141C50.319 11.1675 49.4059 10.3479 49.4059 10.3479C49.1016 10.0405 47.5798 10.0405 47.0726 10.4503C47.0726 10.4503 48.4929 10.4503 48.29 12.6018C48.0871 14.7534 45.145 15.1632 44.3334 15.2656L44.232 15.573C45.5508 15.4705 49.3045 15.0607 49.8117 13.1141Z" fill="white"/>
<path d="M34.5944 13.0116H33.0726C33.7828 15.0607 35.9132 15.7778 37.3335 15.9827L37.2321 15.7778C35.8118 15.1631 35.0002 14.5484 34.5944 13.0116Z" fill="white"/>
<path d="M22.4206 11.7821C22.7249 11.7821 22.9278 11.5772 22.9278 11.2698C22.9278 10.9625 22.7249 10.7576 22.4206 10.7576C22.1162 10.7576 21.9133 10.9625 21.9133 11.2698C21.9133 11.5772 22.1162 11.7821 22.4206 11.7821Z" fill="white"/>
<path d="M22.4205 14.5484C22.7249 14.5484 23.0292 13.319 23.0292 12.7043C23.0292 12.3969 22.7249 12.192 22.4205 12.192C22.1162 12.192 21.8118 12.3969 21.8118 12.7043C21.8118 13.319 22.0147 14.5484 22.4205 14.5484Z" fill="white"/>
<path d="M22.1162 10.0404H22.7249L22.6235 9.22077L23.4351 9.32322V8.7085L22.6235 8.81096L22.7249 7.99133H22.1162V8.81096L21.4061 8.7085V9.32322L22.1162 9.22077V10.0404Z" fill="white"/>
<path d="M19.4786 15.5729H19.58H19.6815H19.7829C20.3916 15.5729 21.1017 15.7778 21.609 15.8803C22.1162 15.9827 22.7249 16.1876 23.3336 16.1876C23.4351 16.1876 23.4351 16.1876 23.5365 16.1876H23.638C23.7394 16.1876 23.7394 16.1876 23.8409 16.1876H23.9423H24.0438H24.1452C24.1452 16.1876 24.1452 16.1876 24.2467 16.1876C24.4496 16.1876 24.7539 16.0852 24.9568 16.0852V15.9827C25.1597 15.368 25.3626 14.3435 25.3626 13.8312C25.3626 12.9091 24.8554 11.987 23.2322 11.6797C23.2322 12.7042 22.7249 15.368 22.1162 15.368H22.3191C21.7104 15.368 21.2032 12.8067 21.2032 11.6797C19.4786 11.987 18.9713 12.9091 18.9713 13.8312C19.0728 14.241 19.1742 14.9582 19.4786 15.5729C19.3771 15.6754 19.4786 15.5729 19.4786 15.5729Z" fill="white"/>
<path d="M13.6959 6.55718C13.6959 6.55718 15.2177 6.14736 15.8264 8.09397C16.4351 9.73322 15.3191 9.52832 16.1307 9.83567C16.9423 10.143 16.4351 11.3725 16.4351 11.3725C17.2466 11.27 17.7539 9.83567 17.2466 8.29888C16.8409 7.06944 16.3336 6.55718 16.0293 6.24982C15.522 5.84 14.7104 5.73755 13.6959 6.55718Z" fill="white"/>
<path d="M10.3482 9.01595C10.8554 10.2454 8.5221 11.9871 8.5221 11.9871C8.5221 11.9871 12.5801 10.9626 12.6815 8.50368C12.6815 6.86443 12.9859 5.53254 15.4206 5.53254C14.3047 5.32764 14.2033 5.32764 13.2902 5.32764C12.9859 5.32764 11.4641 5.43009 10.5511 6.45462C9.63804 7.47915 10.8554 8.60614 7.10181 9.42576C8.82644 9.63067 10.3482 9.01595 10.3482 9.01595Z" fill="white"/>
<path d="M14.8116 12.4993C14.6087 10.3478 16.029 10.3478 16.029 10.3478C15.5217 9.93798 13.8985 9.93798 13.6956 10.2453C13.6956 10.2453 12.6811 11.065 13.2898 13.0116C13.7971 14.9582 17.5507 15.368 18.8695 15.368L18.7681 15.0606C17.9565 15.0606 15.0145 14.6508 14.8116 12.4993Z" fill="white"/>
<path d="M29.9277 13.0116H28.4059C27.8987 14.5484 27.1885 15.1631 25.7683 15.6754L25.6668 15.8803C27.1885 15.7778 29.2175 15.0607 29.9277 13.0116Z" fill="white"/>
<path d="M33.3771 22.1297C32.9713 22.8469 32.5655 23.564 32.2611 24.2812C32.464 23.9739 32.8698 23.6665 33.2756 23.4616C33.9857 22.9493 34.493 22.7444 34.493 22.7444L35.1017 22.5395L35.0002 23.1542C35.0002 23.1542 34.7973 24.0763 34.7973 24.9984C34.7973 25.4082 34.8988 25.7156 35.0002 26.0229C35.1017 25.7156 35.3046 25.3057 35.6089 24.8959C36.3191 23.9739 36.9278 23.564 36.9278 23.564L37.3336 23.3591V23.8714C37.3336 23.8714 37.435 25.6131 37.8408 26.4327C38.551 27.9695 39.7684 28.7891 40.4785 29.0965C40.3771 28.9941 40.2756 28.8916 40.0727 28.6867C39.7684 28.2769 39.3626 27.6622 39.1597 26.2278C38.9568 24.9984 39.464 23.8714 39.6669 23.4616C39.7684 23.7689 39.8698 24.0763 40.0727 24.1788C40.0727 24.1788 40.0727 23.8714 40.1742 23.564C40.2756 22.7444 41.1886 21.515 42.406 20.6954C42.6089 20.4905 42.8118 20.388 43.0147 20.2855C43.2176 20.1831 43.3191 20.0806 43.522 19.9782C43.3191 19.9782 43.0147 20.0806 42.8118 20.0806H42.7104C42.5075 20.0806 42.3046 20.0806 42.1017 20.0806C41.5944 20.0806 40.8843 19.9782 40.3771 19.5684C39.8698 19.1586 39.6669 18.6463 39.5655 18.3389C39.3626 18.3389 39.0582 18.3389 38.6524 18.3389C38.2466 18.3389 37.8408 18.2365 37.6379 18.134C37.0292 18.5438 36.4205 18.6463 35.7104 18.6463C35.6089 18.6463 35.5075 18.6463 35.406 18.6463C35.6089 18.8512 35.9133 18.9537 36.2176 19.1586L36.0147 19.261C35.9133 19.1586 35.0002 19.7733 33.3771 22.1297Z" fill="white"/>
<path d="M43.0147 17.9292C42.7103 17.9292 42.5074 17.9292 42.2031 17.9292C42.2031 18.1341 42.2031 18.2366 42.2031 18.4415C42.2031 18.6464 42.406 18.8513 42.5074 18.9537C42.7103 18.7488 42.9132 18.4415 43.0147 17.9292Z" fill="white"/>
<path d="M43.5219 16.2901C43.4204 16.2901 43.4204 16.2901 43.4204 16.2901C43.319 16.2901 43.319 16.2901 43.2175 16.2901C42.6088 16.2901 42.1016 16.495 41.4929 16.5975C40.8842 16.6999 40.2755 16.9048 39.6668 16.9048C39.5654 16.9048 39.4639 16.9048 39.261 16.9048C39.1596 16.9048 39.1596 16.9048 39.0581 16.9048H38.9567H38.8552C37.5364 16.6999 36.6233 16.2901 36.2175 16.0852C36.319 16.1877 36.4204 16.3926 36.6233 16.5975C36.7248 16.6999 36.7248 16.6999 36.8262 16.8024C37.0291 16.9048 37.232 17.1097 37.4349 17.2122C37.7393 17.4171 38.9567 17.8269 40.5799 17.622C42.4059 17.3146 42.7103 17.4171 43.2175 17.4171H43.4204C44.0291 17.4171 45.0436 17.9294 45.348 18.1343C45.5509 17.8269 45.6523 17.4171 45.7538 17.0073C45.6523 16.9048 45.5509 16.8024 45.2465 16.6999C45.1451 16.6999 45.0436 16.5975 44.9422 16.5975C44.7393 16.495 44.5364 16.495 44.3335 16.3926C43.8262 16.2901 43.7248 16.2901 43.5219 16.2901Z" fill="white"/>
<path d="M48.6958 22.3348C48.5943 22.3348 47.9856 22.7446 46.5653 21.8225C45.145 20.9004 44.1305 20.4906 43.5218 20.3882C43.4204 20.4906 43.3189 20.5931 43.116 20.5931C42.9131 20.6955 42.8117 20.798 42.5073 21.0029C42.4059 21.0029 42.4059 21.1054 42.3044 21.2078H42.4059C43.7247 21.3103 44.7392 22.1299 44.8407 22.4372C44.9421 22.0274 44.8407 21.6176 44.8407 21.6176C44.8407 21.6176 45.4494 22.0274 46.6668 22.6421C47.9856 23.3593 48.4929 22.6421 48.6958 22.3348Z" fill="white"/>
<path d="M41.6958 18.6466C41.5943 18.5441 41.4929 18.4417 41.4929 18.3392C41.3914 18.2368 41.3914 18.1343 41.3914 18.0319C41.0871 18.0319 40.7827 18.1343 40.2755 18.1343C40.174 18.1343 40.0726 18.1343 39.9711 18.1343C40.174 18.5441 40.5798 19.0564 41.29 19.1588H41.3914H41.4929C41.7972 19.1588 42.1016 19.2613 42.4059 19.2613C42.9132 19.2613 43.5219 19.1588 44.0291 19.0564C44.1306 18.8515 44.232 18.749 44.4349 18.5441C44.4349 18.5441 44.3335 18.5441 44.3335 18.4417C44.232 18.3392 43.8262 18.1343 43.6233 18.0319C43.5219 18.2368 43.4204 18.4417 43.2175 18.6466C43.0146 18.8515 42.7103 18.8515 42.4059 18.8515C42.1016 18.8515 41.7972 18.749 41.5943 18.6466C41.7972 18.749 41.6958 18.749 41.6958 18.6466Z" fill="white"/>
<path d="M45.6522 17.6218C45.2464 18.7488 44.5363 19.6709 44.0291 20.0807C47.2754 19.1586 47.8841 20.9003 47.8841 20.9003C47.8841 21.0028 47.8841 21.0028 47.9856 20.9003C48.087 20.7979 49.1015 19.6709 48.3914 18.5439C47.5798 17.7243 46.058 17.6218 45.6522 17.6218ZM45.6522 18.4414C45.7537 18.2365 45.8551 18.0316 45.8551 18.0316C46.058 18.0316 46.5653 18.1341 46.5653 18.4414C46.2609 18.339 45.8551 18.339 45.6522 18.4414Z" fill="white"/>
<path d="M20.8985 18.4415C20.8985 18.339 20.8985 18.1341 20.8985 17.9292C20.5941 17.9292 20.2898 17.9292 20.0869 17.9292C20.1883 18.4415 20.3912 18.7488 20.5941 18.8513C20.6956 18.8513 20.797 18.6464 20.8985 18.4415Z" fill="white"/>
<path d="M24.5506 16.8025C24.4492 16.8025 24.4492 16.8025 24.4492 16.8025H24.3477H24.2463C24.1448 16.8025 24.1448 16.8025 24.0434 16.8025C23.9419 16.8025 23.8405 16.8025 23.6376 16.8025C23.0289 16.8025 22.4202 16.5975 21.8115 16.4951C21.2028 16.3926 20.6955 16.1877 20.0868 16.1877C19.9854 16.1877 19.9854 16.1877 19.884 16.1877C19.7825 16.1877 19.5796 16.1877 19.4782 16.1877C19.1738 16.1877 18.9709 16.2902 18.8695 16.3926C18.768 16.3926 18.6666 16.4951 18.5651 16.4951C18.3622 16.5975 18.1593 16.7 18.0579 16.8025C18.1593 17.2123 18.3622 17.6221 18.4637 17.9294C18.8695 17.7245 19.7825 17.3147 20.3912 17.2123H20.5941C20.9999 17.2123 21.4057 17.1098 23.2318 17.4172C24.855 17.6221 26.0724 17.1098 26.3767 17.0074C26.5796 16.9049 26.7825 16.7 26.9854 16.5975C27.0869 16.4951 27.1883 16.4951 27.1883 16.3926C27.3912 16.1877 27.4927 16.0853 27.5941 15.8804C26.7825 16.1877 25.8695 16.5975 24.5506 16.8025C24.6521 16.8025 24.6521 16.8025 24.5506 16.8025Z" fill="white"/>
<path d="M14.3046 22.3348C14.5075 22.5397 15.0148 23.3593 16.2322 22.6421C17.4496 21.925 18.0582 21.6176 18.0582 21.6176C18.0582 21.6176 17.8554 21.925 18.0582 22.4372C18.1597 22.1299 19.1742 21.3103 20.493 21.2078C20.5945 21.2078 20.5945 21.2078 20.5945 21.2078C20.493 21.1054 20.493 21.1054 20.3916 21.0029C20.1887 20.798 19.9858 20.6955 19.7829 20.5931C19.6814 20.4906 19.58 20.4906 19.3771 20.3882C18.7684 20.4906 17.7539 20.9004 16.3336 21.8225C15.0148 22.7446 14.4061 22.3348 14.3046 22.3348C14.4061 22.3348 14.3046 22.3348 14.3046 22.3348Z" fill="white"/>
<path d="M19.2756 18.2367C19.0727 18.3391 18.6669 18.5441 18.5654 18.6465C18.464 18.6465 18.464 18.6465 18.464 18.749C18.5654 18.9539 18.6669 19.1588 18.8698 19.2612C19.4785 19.3637 20.0872 19.4661 20.493 19.4661C20.7973 19.4661 21.1017 19.4661 21.406 19.3637C21.5075 19.3637 21.5075 19.3637 21.5075 19.3637C21.6089 19.3637 21.6089 19.3637 21.6089 19.3637C22.3191 19.1588 22.7249 18.749 22.9278 18.3391C22.8263 18.3391 22.7249 18.3391 22.6234 18.3391C22.1162 18.2367 21.8118 18.2367 21.5075 18.2367C21.5075 18.3391 21.406 18.4416 21.406 18.5441C21.3046 18.6465 21.3046 18.749 21.2031 18.8514L21.1017 18.9539C20.8988 19.1588 20.5944 19.1588 20.2901 19.1588C19.9857 19.1588 19.6814 19.0563 19.4785 18.9539C19.4785 18.6465 19.377 18.4416 19.2756 18.2367Z" fill="white"/>
<path d="M14.7101 18.6465C13.8985 19.7734 15.0144 20.9004 15.1159 21.0029C15.1159 21.1053 15.2173 21.0029 15.2173 21.0029C15.2173 20.9004 15.826 19.2612 19.0724 20.1833C18.5652 19.7734 17.855 18.8514 17.4492 17.7244C16.942 17.6219 15.4202 17.7244 14.7101 18.6465ZM17.4492 18.4416C17.1449 18.3391 16.8405 18.3391 16.5362 18.3391C16.5362 18.0317 16.942 17.9293 17.2463 17.9293C17.2463 18.0317 17.3478 18.3391 17.4492 18.4416Z" fill="white"/>
<path d="M27.6959 18.6463C27.5945 18.6463 27.493 18.6463 27.3916 18.6463C26.6814 18.6463 26.0727 18.4414 25.464 18.134C25.2611 18.2365 24.8553 18.2365 24.4495 18.3389C24.0437 18.3389 23.7394 18.3389 23.5365 18.3389C23.435 18.6463 23.2321 19.1586 22.7249 19.5684C22.2176 19.9782 21.5075 20.0806 21.0002 20.0806C20.6959 20.0806 20.493 20.0806 20.3916 20.0806H20.2901C20.0872 20.0806 19.7829 19.9782 19.58 19.9782C19.7829 20.0806 19.9858 20.1831 20.0872 20.2855C20.2901 20.388 20.493 20.4905 20.6959 20.6954C21.8118 21.515 22.7249 22.7444 22.9278 23.564C23.0292 23.8714 22.9278 24.1788 23.0292 24.1788C23.2321 24.0763 23.3336 23.7689 23.435 23.4616C23.6379 23.7689 24.0437 24.9984 23.9423 26.2278C23.7394 27.6622 23.3336 28.2769 23.0292 28.6867C22.9278 28.8916 22.7249 28.9941 22.6234 29.0965C23.3336 28.6867 24.551 27.9695 25.2611 26.4327C25.6669 25.6131 25.7684 23.8714 25.7684 23.8714V23.3591L26.1742 23.564C26.1742 23.564 26.7829 23.8714 27.493 24.8959C27.6959 25.2033 27.8988 25.6131 28.1017 26.0229C28.2032 25.7156 28.3046 25.4082 28.3046 24.9984C28.406 24.1788 28.2032 23.2567 28.1017 23.1542L28.0003 22.5395L28.6089 22.7444C28.6089 22.7444 29.2176 22.9493 29.8263 23.4616C30.2321 23.7689 30.5365 24.0763 30.8408 24.2812C30.5365 23.564 30.2321 22.8469 29.7249 22.1297C28.2032 19.7733 27.1887 19.261 27.1887 19.261L26.9858 19.1586C27.2901 18.9537 27.493 18.8512 27.6959 18.6463Z" fill="white"/>
</g>
<defs>
<clipPath id="clip0_524:1133">
<rect width="63" height="71" fill="white"/>
</clipPath>
</defs>
</svg>
