<svg width="311" height="96" viewBox="0 0 311 96" fill="none" xmlns="http://www.w3.org/2000/svg">
<path d="M120.568 43.0118H117.109V26.1243H120.509L125.317 33.0815L130.183 26.1243H133.524V43.0118H130.183V31.4165L126.313 36.8871H124.437L120.568 31.4165V43.0118Z" fill="white"/>
<path d="M140.274 43.0118H137.401V26.1243H140.802V37.125L148.892 26.1243H151.824V43.0118H148.423V31.9517L140.274 43.0118Z" fill="white"/>
<path d="M159.095 43.0118H155.695V26.1243H159.095V32.4274H166.658V26.1243H170.058V43.0118H166.658V35.5789H159.095V43.0118Z" fill="white"/>
<path d="M173.101 34.5702C173.101 32.0728 173.922 29.9915 175.563 28.3266C177.205 26.6021 179.257 25.7697 181.719 25.7697C184.182 25.7697 186.233 26.6021 187.875 28.3266C189.517 30.051 190.337 32.1322 190.337 34.5702C190.337 37.0082 189.517 39.0894 187.875 40.8139C186.233 42.5383 184.182 43.3708 181.719 43.3708C179.257 43.3708 177.205 42.5383 175.563 40.8139C173.922 39.0894 173.101 37.0082 173.101 34.5702ZM178.084 38.4948C179.081 39.5651 180.312 40.0408 181.778 40.0408C183.244 40.0408 184.475 39.5057 185.413 38.4948C186.409 37.4839 186.878 36.1163 186.878 34.5702C186.878 32.9647 186.409 31.6565 185.413 30.5862C184.416 29.5753 183.185 29.0401 181.778 29.0401C180.312 29.0401 179.081 29.5753 178.084 30.5862C177.088 31.5971 176.619 32.9053 176.619 34.5702C176.619 36.1757 177.088 37.4839 178.084 38.4948Z" fill="white"/>
<path d="M200.603 43.0118H193.392V26.1243H205.469V29.2164H196.792V31.8922H200.544C202.479 31.8922 204.003 32.4274 205.117 33.4383C206.289 34.5086 206.817 35.8168 206.817 37.4223C206.817 39.0278 206.231 40.3955 205.117 41.4063C204.12 42.4767 202.537 43.0118 200.603 43.0118ZM196.851 34.8059V39.9198H200.368C201.365 39.9198 202.127 39.6819 202.655 39.2657C203.182 38.8494 203.475 38.1953 203.475 37.3628C203.475 36.5303 203.182 35.9357 202.655 35.46C202.127 35.0438 201.365 34.8059 200.368 34.8059H196.851Z" fill="white"/>
<path d="M213.262 43.0118H209.861V26.1243H217.131C218.89 26.1243 220.355 26.6 221.352 27.5514C222.407 28.5028 222.935 29.6921 222.935 31.2381C222.935 32.7842 222.407 33.9734 221.352 34.9248C220.297 35.8762 218.89 36.352 217.131 36.352H213.262V43.0118ZM213.262 29.1569V33.3788H216.897C217.717 33.3788 218.362 33.2004 218.831 32.8436C219.3 32.4868 219.535 31.9517 219.535 31.2976C219.535 30.6435 219.3 30.1083 218.831 29.7515C218.362 29.3947 217.717 29.2164 216.897 29.2164H213.262V29.1569Z" fill="white"/>
<path d="M228.971 43.0118H225.57V26.1243H228.971V32.4274H236.475V26.1243H239.875V43.0118H236.475V35.5789H228.971V43.0118Z" fill="white"/>
<path d="M245.927 43.0131H242.351L249.504 26.066H252.787L259.939 43.0131H256.304L254.663 39.0885H247.627L245.927 43.0131ZM251.086 30.3474L248.624 36.2343H253.49L251.086 30.3474Z" fill="white"/>
<path d="M264.789 43.3079C263.617 43.3079 262.796 43.1295 262.268 42.8322V39.7996C262.796 40.0969 263.441 40.2753 264.203 40.2753C264.907 40.2753 265.434 40.0969 265.845 39.7996C266.255 39.5023 266.665 38.8482 267.134 37.9562L260.861 26.1825H264.613L268.835 34.4479L272.528 26.1825H276.163L270.007 39.3239C268.776 41.9997 267.017 43.3079 264.789 43.3079Z" fill="white"/>
<path d="M281.917 43.0118H278.517V26.1243H281.917V32.7842L288.073 26.1243H292.235L285.2 33.8545L293.466 43.0118H289.069L281.917 35.2222V43.0118Z" fill="white"/>
<path d="M298.568 43.0118H295.695V26.1243H299.096V37.125L307.186 26.1243H310.117V43.0118H306.717V31.9517L298.568 43.0118Z" fill="white"/>
<path d="M120.577 70.1313H117.176V53.2438H124.446C126.205 53.2438 127.67 53.7195 128.667 54.6709C129.722 55.6223 130.25 56.8116 130.25 58.3576C130.25 59.9037 129.722 61.0929 128.667 62.0443C127.612 62.9958 126.205 63.4715 124.446 63.4715H120.577V70.1313ZM120.577 56.2764V60.4983H124.211C125.032 60.4983 125.677 60.3199 126.146 59.9631C126.615 59.6063 126.85 59.0712 126.85 58.4171C126.85 57.763 126.615 57.2278 126.146 56.871C125.677 56.5143 125.032 56.3359 124.211 56.3359H120.577V56.2764Z" fill="white"/>
<path d="M132.425 61.6842C132.425 59.1868 133.246 57.1056 134.888 55.4406C136.529 53.7162 138.581 52.8837 141.043 52.8837C143.506 52.8837 145.558 53.7162 147.199 55.4406C148.841 57.165 149.662 59.2462 149.662 61.6842C149.662 64.1222 148.841 66.2034 147.199 67.9279C145.558 69.6523 143.506 70.4848 141.043 70.4848C138.581 70.4848 136.529 69.6523 134.888 67.9279C133.246 66.2034 132.425 64.1222 132.425 61.6842ZM137.409 65.6088C138.405 66.6792 139.636 67.1549 141.102 67.1549C142.568 67.1549 143.799 66.6197 144.737 65.6088C145.734 64.5979 146.203 63.2303 146.203 61.6842C146.203 60.0787 145.734 58.7705 144.737 57.7002C143.74 56.6893 142.509 56.1541 141.102 56.1541C139.636 56.1541 138.405 56.6893 137.409 57.7002C136.412 58.7111 135.943 60.0193 135.943 61.6842C135.943 63.2897 136.412 64.5979 137.409 65.6088Z" fill="white"/>
<path d="M161.317 70.4241C158.738 70.4241 156.568 69.5916 154.868 67.9861C153.168 66.3211 152.289 64.1805 152.289 61.683C152.289 59.1261 153.109 56.9854 154.81 55.3799C156.51 53.7149 158.679 52.9419 161.258 52.9419C162.9 52.9419 164.366 53.2987 165.655 54.0122V57.5206C164.424 56.5692 162.959 56.1529 161.317 56.1529C159.734 56.1529 158.444 56.6881 157.33 57.699C156.275 58.7098 155.748 60.0775 155.748 61.683C155.748 63.2885 156.275 64.5967 157.389 65.667C158.444 66.6779 159.793 67.2131 161.434 67.2131C163.252 67.2131 164.776 66.7374 166.007 65.7265V69.2348C164.717 70.0673 163.135 70.4241 161.317 70.4241Z" fill="white"/>
<path d="M177.208 70.4241C174.629 70.4241 172.459 69.5916 170.759 67.9861C169.059 66.3211 168.18 64.1805 168.18 61.683C168.18 59.1261 169 56.9854 170.701 55.3799C172.401 53.7149 174.57 52.9419 177.15 52.9419C178.791 52.9419 180.257 53.2987 181.547 54.0122V57.5206C180.374 56.5692 178.908 56.1529 177.267 56.1529C175.684 56.1529 174.394 56.6881 173.28 57.699C172.225 58.7098 171.697 60.0775 171.697 61.683C171.697 63.2885 172.225 64.5967 173.339 65.667C174.394 66.6779 175.743 67.2131 177.384 67.2131C179.202 67.2131 180.726 66.7374 181.957 65.7265V69.2348C180.609 70.0673 179.026 70.4241 177.208 70.4241Z" fill="white"/>
<path d="M187.997 70.1313H185.124V53.2438H188.524V64.2445L196.615 53.2438H199.546V70.1313H196.146V59.0712L187.997 70.1313Z" fill="white"/>
<path d="M206.294 70.1313H203.421V53.2438H206.822V64.2445L214.854 53.2438H217.844V70.1313H214.443V59.0712L206.294 70.1313Z" fill="white"/>
<g clip-path="url(#clip0_355:54)">
<path d="M66.6588 71.6189C66.3851 71.6189 66.1113 71.896 66.1113 72.173C66.1113 72.4501 66.3851 72.7271 66.6588 72.7271C66.9326 72.7271 67.2063 72.4501 67.2063 72.173C67.2063 71.896 66.9326 71.6189 66.6588 71.6189Z" fill="white"/>
<path d="M68.3013 76.4677C68.3013 76.7447 68.575 77.0218 68.8488 77.0218C69.1225 77.0218 69.3963 76.7447 69.3963 76.4677C69.3963 76.1906 69.1225 75.9136 68.8488 75.9136C68.575 75.9136 68.3013 76.1906 68.3013 76.4677Z" fill="white"/>
<path d="M66.6588 75.9136C66.3851 75.9136 66.1113 76.1906 66.1113 76.4677C66.1113 76.7447 66.3851 77.0218 66.6588 77.0218C66.9326 77.0218 67.2063 76.7447 67.2063 76.4677C67.2063 76.1906 66.9326 75.9136 66.6588 75.9136Z" fill="white"/>
<path d="M70.4912 76.4677C70.4912 76.7447 70.765 77.0218 71.0387 77.0218C71.3125 77.0218 71.5862 76.7447 71.5862 76.4677C71.5862 76.1906 71.3125 75.9136 71.0387 75.9136C70.765 75.9136 70.4912 76.1906 70.4912 76.4677Z" fill="white"/>
<path d="M65.9743 66.7704L66.1111 68.0171L65.0161 67.8786V69.2639L66.1111 69.1254L65.9743 70.3721H67.343L67.2061 69.1254L68.3012 69.2639V67.8786L67.2061 68.0171L67.343 66.7704H65.9743Z" fill="white"/>
<path d="M67.6167 71.2032V75.6361H71.8599C71.4492 73.4197 69.8067 71.6188 67.6167 71.2032Z" fill="white"/>
<path d="M66.6588 73.697C66.3851 73.697 66.1113 73.9741 66.1113 74.2511C66.1113 74.5282 66.3851 74.8053 66.6588 74.8053C66.9326 74.8053 67.2063 74.5282 67.2063 74.2511C67.2063 73.9741 66.9326 73.697 66.6588 73.697Z" fill="white"/>
<path d="M68.4386 79.5151C68.3017 79.5151 68.0279 80.6234 68.3017 81.4545C68.4386 81.8701 68.8492 82.0086 69.2598 82.0086C69.6705 81.8701 69.6705 81.593 69.6705 81.316C69.8074 80.3463 68.9861 79.5151 68.4386 79.5151Z" fill="white"/>
<path d="M64.8794 79.5151C64.3319 79.5151 63.5106 80.3463 63.6475 81.1775C63.6475 81.4545 63.7843 81.7316 64.0581 81.8701C64.4687 82.0086 64.8794 81.8701 65.0162 81.316C65.29 80.6234 65.0162 79.5151 64.8794 79.5151Z" fill="white"/>
<path d="M66.6588 78.9613C66.2482 78.9613 65.1532 81.1778 65.9744 82.4245C66.1113 82.7016 66.3851 82.7016 66.6588 82.7016C66.9326 82.7016 67.2063 82.563 67.3432 82.4245C68.1645 81.1778 67.0694 78.9613 66.6588 78.9613Z" fill="white"/>
<path d="M61.4575 76.4673C61.4575 76.0518 61.5944 75.6362 61.5944 75.6362H65.7006V75.2206V72.0344V71.0648C63.6475 71.4803 62.005 73.0041 61.4575 75.0821C61.3206 75.2206 60.91 75.3591 60.6362 75.3591C58.9937 75.2206 55.8456 74.528 55.8456 73.8353C55.8456 72.8656 56.5299 72.45 57.0774 72.45C57.8987 72.45 58.9937 73.0041 59.815 71.7574C56.9406 71.8959 59.1306 67.6016 56.8037 66.7704C56.9406 67.8786 56.8037 69.818 56.3931 70.7877C56.3931 70.7877 55.5718 69.818 54.6137 69.5409C54.7506 70.3721 54.4768 72.0344 54.203 72.7271C54.203 72.7271 53.2449 71.7574 52.1499 71.4803C53.108 72.8656 53.108 74.9435 52.8343 76.1903C52.6974 76.6059 52.9712 77.0215 53.7924 77.0215C54.8874 77.0215 58.8568 77.16 60.6362 77.8526C61.1837 78.1297 61.5944 78.2682 61.8681 78.6838C62.005 79.2379 62.5525 80.0691 63.1 80.4847C63.3737 79.515 64.4687 78.6838 65.1531 78.6838C65.4269 78.6838 65.5638 79.0994 65.7006 79.3764C65.7006 79.0994 66.2481 78.1297 66.7956 78.1297C67.3431 78.1297 67.7538 78.8223 68.0275 79.515C68.0275 79.0994 68.3013 78.6838 68.575 78.6838C69.2594 78.6838 70.0807 79.3764 70.4913 80.3461C70.765 80.0691 71.9969 78.4067 72.1338 77.2985H61.7312C61.4575 77.437 61.4575 77.0215 61.4575 76.4673Z" fill="white"/>
<path d="M64.0581 76.4677C64.0581 76.7447 64.3319 77.0218 64.6056 77.0218C64.8794 77.0218 65.1531 76.7447 65.1531 76.4677C65.1531 76.1906 64.8794 75.9136 64.6056 75.9136C64.195 75.9136 64.0581 76.1906 64.0581 76.4677Z" fill="white"/>
<path d="M61.8682 76.4677C61.8682 76.7447 62.1419 77.0218 62.4157 77.0218C62.6894 77.0218 62.9632 76.7447 62.9632 76.4677C62.9632 76.1906 62.6894 75.9136 62.4157 75.9136C62.1419 75.9136 61.8682 76.1906 61.8682 76.4677Z" fill="white"/>
<path d="M21.0788 78.6843C20.9419 78.8229 20.5313 79.9311 20.6682 80.6237C20.805 80.9008 20.9419 81.0393 21.2157 81.0393C21.4894 81.0393 21.6263 80.9008 21.7632 80.6237C21.7632 79.9311 21.2157 78.8229 21.0788 78.6843Z" fill="white"/>
<path d="M24.775 81.8699C24.5013 82.147 24.2275 82.2855 24.2275 82.424C24.3644 82.5626 24.6382 82.7011 24.9119 82.7011C25.0488 82.7011 25.3225 82.7011 25.4594 82.5625C25.7332 82.0084 25.4594 81.4543 25.3225 81.3158C25.0488 81.3158 24.9119 81.5928 24.775 81.8699Z" fill="white"/>
<path d="M23.2686 80.3463C23.6793 79.9307 23.8161 79.6537 23.6793 79.5152C23.5424 79.2381 22.7211 78.2684 21.6261 77.2987C21.6261 77.5758 21.4893 77.7143 21.4893 77.9913C22.1736 78.961 22.4474 79.9307 22.1736 80.9004C22.3105 80.9004 22.3105 81.039 22.3105 81.039C22.7211 80.9004 23.1318 80.6234 23.2686 80.3463Z" fill="white"/>
<path d="M24.6375 80.485C24.6375 80.3465 24.6375 80.208 24.5006 80.0695C24.5006 80.0695 24.3637 80.208 24.2268 80.3465C24.09 80.485 23.9531 80.6236 23.8162 80.9006C23.6793 81.0392 23.5425 81.1777 23.4056 81.3162C23.2687 81.4547 23.1318 81.5933 23.1318 81.7318C23.1318 81.7318 23.2687 81.8703 23.4056 81.8703C23.5425 81.8703 23.8162 81.7318 24.3637 81.3162C24.5006 80.9006 24.6375 80.6236 24.6375 80.485Z" fill="white"/>
<path d="M18.2049 75.2207C18.2049 75.2207 18.068 75.3592 17.9312 75.4977C18.2049 75.4977 18.4787 75.4977 18.6155 75.6363C18.6155 75.3592 18.6155 75.0821 18.6155 74.9436C18.4787 74.9436 18.2049 75.0821 18.2049 75.2207Z" fill="white"/>
<path d="M20.8051 75.4979C20.8051 75.4979 22.8583 77.2988 23.5426 77.9914C23.6795 78.13 23.9533 78.13 24.0901 78.13C24.227 78.13 24.3639 77.9914 24.5008 77.8529C26.5539 77.1603 29.9758 77.0217 31.2077 77.1603C31.8921 77.1603 32.1658 76.7447 32.1658 76.3291C31.8921 75.2209 31.8921 73.0044 32.8502 71.6191C31.7552 72.0347 30.7971 72.8659 30.7971 72.8659C30.3864 72.1732 30.2496 70.5109 30.3864 69.6797C29.4283 70.0953 28.6071 70.9265 28.6071 70.9265C28.1964 69.9568 28.0596 68.0174 28.1964 66.9092C25.8695 67.7403 28.0596 72.0347 25.1852 71.8962C26.0064 73.1429 26.9645 72.5888 27.9227 72.5888C28.6071 72.5888 29.2914 73.0044 29.1546 73.9741C29.0177 74.6668 25.1852 75.4979 23.5426 75.4979C22.4476 75.4979 21.7633 75.2209 21.2158 74.3897C20.942 73.9741 20.6682 73.8356 20.3945 73.8356C19.9839 73.8356 19.5732 74.2512 19.5732 75.2209C19.5732 75.9135 19.847 77.2988 20.5314 77.2988C20.942 77.2988 21.0789 76.1906 20.8051 75.4979Z" fill="white"/>
<path d="M16.9728 74.8053C17.1097 74.8053 17.1097 74.8053 17.2466 74.8053C16.9728 75.2209 16.9728 75.498 17.1097 75.6365C17.2466 75.775 17.3834 75.498 17.9309 74.9438C18.4784 74.3897 18.7522 74.2512 18.6153 74.1127C18.4784 73.9741 18.2047 73.9741 17.7941 74.2512C17.7941 74.1127 17.7941 74.1127 17.7941 73.9741C17.6572 73.5586 16.8359 72.8659 16.4253 72.8659H16.2884C16.4253 72.5889 16.4253 72.3118 16.2884 72.1733C16.1516 72.0348 16.0147 72.1733 15.8778 72.3118C15.8778 72.1733 15.8778 72.0348 15.7409 71.7577C15.0565 70.788 11.7715 67.6019 11.0871 67.3248C10.6765 67.1863 10.5396 67.4633 10.5396 67.4633C10.5396 67.4633 10.2659 67.6019 10.5396 68.156C10.8134 68.9871 14.0984 72.3118 15.0565 72.8659C15.1934 73.0044 15.4672 73.0045 15.6041 73.0045C15.4672 73.143 15.3303 73.2815 15.4672 73.42C15.6041 73.5586 15.8778 73.5586 16.1516 73.42V73.5586C15.7409 73.9741 16.4253 74.6668 16.9728 74.8053Z" fill="white"/>
<path d="M19.2994 77.2988C19.2994 77.0217 18.615 76.3291 17.9306 76.3291C16.8356 76.3291 16.2881 77.0217 16.2881 77.4373C16.2881 78.13 16.9725 78.2685 17.1093 78.2685C17.9306 78.2685 19.1625 77.4373 19.2994 77.2988Z" fill="white"/>
<path d="M18.3416 78.961C18.0679 79.3766 17.931 79.6536 18.0679 80.0692C18.2047 80.4848 18.6154 80.6233 18.8891 80.6233C19.2997 80.6233 19.5735 80.4848 19.8472 80.0692C20.2579 79.3766 20.2579 77.8528 20.121 77.7142C19.7104 77.8528 18.7522 78.2683 18.3416 78.961Z" fill="white"/>
<path d="M8.62286 63.3073C8.34911 63.0302 7.66473 63.4458 7.2541 63.3073C7.39098 62.3376 8.07536 63.3073 8.75974 62.6147C9.03349 62.3376 8.89661 61.922 8.75974 61.7835C8.48599 62.0605 8.07536 61.922 8.07536 61.7835C8.75974 59.9826 7.39098 58.0432 6.02222 58.3203C6.29597 58.7359 6.43285 59.9826 6.29597 60.2597C6.84347 60.6753 6.43285 61.5064 5.88534 61.2294C5.47471 61.0908 4.79033 60.1212 5.61159 59.4285C5.61159 59.1515 5.20096 59.1514 4.65346 59.7056C4.92721 58.5973 2.87407 58.8744 2.46344 59.1515C2.18969 59.567 1.91594 61.7835 3.01095 61.3679C2.46344 61.922 2.46344 62.3376 2.73719 62.3376C3.42157 61.5064 4.37971 62.1991 4.51658 62.6147C4.79033 63.1688 3.96908 63.5844 3.55845 63.0302C3.2847 63.1688 2.05281 63.1688 1.64219 62.8917C1.50531 64.277 3.42157 65.8008 5.06409 64.9696C5.20096 64.9696 5.33784 65.3852 5.06409 65.8008C5.20096 65.9393 5.61159 66.0779 5.88534 65.8008C6.56972 65.1082 5.47471 64.4155 6.43285 64.277C6.7066 64.6926 6.15909 65.3852 6.56972 65.6623C6.98035 66.2164 7.52785 65.2467 8.21223 65.1082C8.21223 64.554 9.17037 63.8614 8.62286 63.3073ZM3.42157 61.0908C3.42157 61.0908 3.14782 60.8138 3.42157 60.3982C3.8322 59.9826 4.10595 60.3982 4.10595 60.3982C4.10595 60.3982 4.51658 61.2294 4.51658 61.645C4.24283 61.5064 3.42157 61.0908 3.42157 61.0908ZM6.56972 63.5844C6.43285 63.5844 5.88534 63.9999 5.61159 63.8614L4.51658 62.7532L5.06409 62.1991L5.61159 61.645L6.84347 62.6147C6.98035 62.8917 6.7066 63.4458 6.56972 63.5844Z" fill="white"/>
<path d="M8.89711 65.3853C8.76024 65.3853 8.62336 65.3853 8.48649 65.5238C8.34961 65.6623 8.34961 65.8008 8.34961 66.0779C8.34961 66.3549 8.48649 66.4935 8.76024 66.7705C9.03399 67.0476 9.30774 67.1861 9.44462 67.1861C9.58149 67.1861 9.71837 67.1861 9.71837 67.0476C9.99212 66.7705 9.85525 66.3549 9.44462 65.9394C9.44462 65.5238 9.17087 65.3853 8.89711 65.3853Z" fill="white"/>
<path d="M5.74868 62.0607L5.47492 62.4762L5.20117 62.7533C5.20117 62.7533 5.74868 63.5845 6.29618 63.3074C6.56993 62.7533 5.74868 62.0607 5.74868 62.0607Z" fill="white"/>
<path d="M63.3736 59.0131C63.3736 59.1516 62.5523 59.5672 62.0048 58.459C61.4573 58.3204 60.7729 58.1819 60.3623 58.0434C61.0467 59.4287 61.7311 60.6754 62.6892 61.2295C64.058 62.1992 66.3848 61.9222 67.2061 60.9525C65.9742 60.2598 64.4686 58.459 63.6473 56.7966C63.5104 57.2122 63.2367 57.9049 62.9629 58.3204C62.9629 58.5975 63.2367 58.8745 63.3736 59.0131Z" fill="white"/>
<path d="M77.1983 37.2643C78.8408 36.5717 81.0308 35.0479 82.1258 33.9396C82.2627 34.0782 82.6733 35.0479 81.4414 36.0176C80.6202 36.7102 78.8408 37.5414 77.472 38.0955C76.9245 39.0652 75.6926 40.0349 74.0501 41.1431C77.1983 40.589 81.0308 39.3422 82.8102 37.5414C86.369 34.0782 84.4527 29.7838 84.0421 28.9526C81.7152 31.8617 77.472 34.9093 73.3657 36.4332C74.7345 36.5717 76.2401 36.8487 77.1983 37.2643Z" fill="white"/>
<path d="M74.5976 30.753C76.6508 29.0907 78.8408 25.6275 79.2514 24.3807C79.662 24.6578 79.9358 25.766 79.2514 26.8743C78.1564 28.8136 76.2401 30.476 74.5976 31.8613C74.4607 33.108 74.0501 34.4933 73.3657 35.6015C75.8295 33.9392 78.7039 31.4457 79.9358 29.6448C81.5783 27.4284 82.2627 25.2119 81.9889 22.9955C82.1258 20.502 80.3464 18.0085 79.662 17.4543C79.2514 20.2249 76.5139 24.7963 74.0501 27.4284C74.3239 28.3981 74.5976 29.6448 74.5976 30.753Z" fill="white"/>
<path d="M72.9552 46.6838C73.5027 47.2379 73.9133 47.9306 74.3239 48.6232C76.2402 49.0388 78.5671 48.9003 78.5671 48.9003C78.5671 48.9003 78.4302 49.87 77.1983 50.0085C76.6508 50.0085 74.8714 49.7314 74.1871 49.5929C73.9133 49.7314 72.5445 50.0085 71.1758 50.2856C73.092 50.9782 75.9664 51.6708 77.8827 51.6708C78.0196 51.6708 78.2933 51.6708 78.4302 51.6708C81.3046 51.3938 82.8102 48.7618 82.8102 47.0994C81.989 47.2379 80.4834 47.3765 78.9777 47.3765C77.3352 47.2379 74.8714 47.0994 72.9552 46.6838Z" fill="white"/>
<path d="M85.0003 39.0647C82.3997 40.45 77.8828 41.8353 74.324 41.8353C75.2821 42.3894 76.1034 43.082 76.6509 43.6361C78.1565 43.4976 80.2097 43.082 81.4416 42.5279C81.4416 42.805 81.4416 43.7747 80.0728 44.1902C79.1147 44.4673 77.609 44.4673 76.514 44.4673C75.6928 45.0214 74.324 45.5755 73.229 45.9911C74.1871 46.1296 75.419 46.2682 76.6509 46.2682C78.5672 46.2682 80.2097 46.1296 81.3047 45.7141C82.2628 45.2985 85.5479 43.9132 85.0003 39.0647Z" fill="white"/>
<path d="M71.0386 52.7794C72.1336 53.3335 73.2286 53.6106 74.3236 53.7491C74.3236 53.7491 74.1868 54.7188 72.6811 54.5803C71.8599 54.4418 70.7649 53.8877 70.628 53.6106C69.9436 53.7491 68.5748 53.6106 68.0273 53.6106C69.6699 54.8574 72.2705 56.2426 74.4605 56.3812C74.5974 56.3812 74.7343 56.3812 74.7343 56.3812C77.0611 56.3812 78.8405 54.0262 79.2512 52.918C76.9243 52.918 73.0917 51.9483 70.628 50.563C70.7649 51.2556 71.0386 51.9483 71.0386 52.7794Z" fill="white"/>
<path d="M67.2061 55.8268C67.7536 56.5194 68.7117 56.935 68.7117 56.935C68.7117 56.935 68.438 57.4891 67.8905 57.4891C67.7536 57.4891 67.4798 57.4891 67.343 57.3506C66.9323 57.0735 66.3848 56.5194 66.3848 56.5194C65.5636 56.3809 64.8792 56.2423 64.1948 56.1038C65.4267 57.6276 67.343 59.4285 69.533 59.9826C69.8067 60.1211 70.2174 60.1211 70.4911 60.1211C72.4074 60.1211 73.913 58.7359 74.3236 57.7662C72.1336 57.4891 68.9855 55.8268 67.343 54.1644C67.343 54.7185 67.343 55.4112 67.2061 55.8268Z" fill="white"/>
<path d="M52.9712 80.4848C54.0662 80.4848 54.7506 80.0692 55.1612 78.961C53.6556 79.6536 52.0131 79.238 49.1387 78.4069C49.1387 78.4069 48.0437 78.961 47.3593 78.961C49.1387 79.5151 51.6024 80.3463 52.15 81.316C52.2868 82.1471 51.8762 82.2857 51.8762 82.2857C50.9181 81.0389 49.6862 80.3463 47.2224 79.6536C47.2224 80.0692 47.0855 80.4848 47.0855 80.4848C47.0855 80.4848 46.538 80.6233 45.443 80.4848C46.4012 81.316 48.8649 83.3939 49.1387 85.6103C49.2756 87.1341 48.3174 87.1341 48.3174 87.1341C48.1806 84.9177 47.2224 83.3939 45.0324 81.1774C45.0324 81.1774 44.6218 81.7315 44.2111 82.0086C44.2111 82.0086 43.3899 81.8701 42.8424 81.4545C43.1161 84.3636 43.253 91.567 43.1161 92.8138C42.9793 93.645 42.5686 93.922 42.5686 93.922C42.5686 93.922 42.158 93.645 42.0211 92.8138C41.8843 91.7056 42.0211 84.5021 42.2949 81.4545C41.6105 81.8701 40.9261 82.0086 40.9261 82.0086C40.5155 81.7315 40.1049 81.1774 40.1049 81.1774C38.0517 83.5324 37.0936 84.9177 36.8198 87.1341C36.8198 87.1341 35.7248 86.9956 35.9986 85.6103C36.2723 83.3939 38.7361 81.316 39.6942 80.4848C38.5992 80.6233 38.0517 80.4848 38.0517 80.4848C38.0517 80.4848 37.9149 80.2077 37.9149 79.6536C35.3142 80.4848 34.2192 81.1774 33.2611 82.2857C33.2611 82.2857 32.7136 82.1471 32.9873 81.316C33.3979 80.3463 35.9986 79.5151 37.778 78.961C37.0936 78.961 35.9986 78.4069 35.9986 78.4069C33.1242 79.238 31.4817 79.6536 29.976 78.961C30.3867 80.0692 31.2079 80.4848 32.1661 80.4848C30.7973 81.0389 29.4285 82.2857 29.1548 83.8095C30.1129 87.5497 33.2611 88.6579 33.2611 88.6579C32.4398 86.8571 32.8504 83.3939 37.5042 80.9004C34.6298 83.8095 33.5348 86.4415 34.2192 88.935C34.9036 91.29 37.2305 92.1212 39.0099 92.2597C37.778 88.3809 38.3255 85.0562 40.9261 82.2857C39.8311 85.3333 38.3255 94.6147 42.7055 96.1385C47.0855 94.6147 45.5799 85.3333 44.4849 82.2857C47.0855 85.0562 47.633 88.5194 46.4012 92.2597C48.1806 92.2597 50.5074 91.29 51.1918 88.935C52.0131 86.4415 50.7812 83.8095 47.9068 80.9004C52.6975 83.3939 52.9712 86.8571 52.15 88.6579C52.15 88.6579 55.2981 87.5497 56.2562 83.8095C55.7087 82.2857 54.34 80.9004 52.9712 80.4848Z" fill="white"/>
<path d="M22.4474 61.2295C23.4055 60.5369 24.0899 59.4287 24.7743 58.0434C24.3637 58.1819 23.8162 58.459 23.1318 58.459C22.5843 59.5672 21.763 59.1516 21.763 59.0131C21.8999 58.8746 22.1737 58.459 22.3105 58.3204C22.0368 57.9049 21.763 57.2122 21.6262 56.7966C20.8049 58.5975 19.2993 60.2598 18.0674 60.9525C18.6149 62.0607 20.9418 62.1992 22.4474 61.2295Z" fill="white"/>
<path d="M10.9498 41.1431C9.30729 40.0349 8.21228 39.0652 7.5279 38.0955C6.15914 37.5414 4.37975 36.7102 3.55849 36.0176C2.32661 35.0479 2.73724 34.0782 2.87411 33.9396C3.96912 35.0479 6.15914 36.5717 7.80165 37.2643C8.75978 36.8487 10.2654 36.5717 11.6342 36.4332C7.5279 34.7708 3.28474 31.7232 0.95785 28.9526C0.547222 29.9223 -1.36904 34.0782 2.18973 37.5414C3.96912 39.3422 7.80165 40.589 10.9498 41.1431Z" fill="white"/>
<path d="M11.6345 35.6015C11.087 34.4933 10.5395 33.108 10.4026 31.8613C8.76009 30.476 6.84383 28.8136 5.74882 26.8743C5.06444 25.766 5.33819 24.7963 5.74882 24.3807C6.15945 25.6275 8.34946 28.9522 10.4026 30.753C10.4026 29.6448 10.5395 28.3981 10.9501 27.4284C8.62321 24.7963 5.88569 20.2249 5.33819 17.4543C4.65381 18.0085 2.87442 20.502 3.0113 22.9955C2.73755 25.2119 3.42193 27.4284 5.06444 29.6448C6.29632 31.4457 9.17072 33.9392 11.6345 35.6015Z" fill="white"/>
<path d="M10.6763 48.4847C10.95 47.9306 11.4975 47.2379 12.045 46.5453C10.1288 47.0994 7.665 47.2379 6.43311 47.2379C4.92748 47.2379 3.42184 47.0994 2.60059 46.9609C2.60059 48.4847 3.96935 51.2552 6.98062 51.5323C7.11749 51.5323 7.25437 51.5323 7.52812 51.5323C9.30751 51.5323 12.1819 50.8397 14.235 50.147C12.8663 50.0085 11.4975 49.5929 11.2238 49.4544C10.2656 49.5929 8.48625 49.87 7.93875 49.87C6.70687 49.7314 6.56999 48.7617 6.56999 48.7617C6.56999 48.7617 8.89688 48.9003 10.6763 48.4847Z" fill="white"/>
<path d="M3.69574 45.7141C4.79075 46.1296 6.43326 46.2682 8.34953 46.2682C9.58141 46.2682 10.8133 46.1296 11.7714 45.9911C10.6764 45.5755 9.30766 45.0214 8.4864 44.4673C7.39139 44.4673 5.88576 44.4673 4.92763 44.1902C3.55887 43.7747 3.55887 42.805 3.55887 42.5279C4.79075 43.082 6.84389 43.4976 8.34953 43.6361C8.89703 43.082 9.71829 42.3894 10.6764 41.8353C7.11764 41.8353 2.46386 40.45 8.96193e-05 39.0647C-0.547414 43.9132 2.73761 45.2985 3.69574 45.7141Z" fill="white"/>
<path d="M10.4026 56.3808C10.5395 56.3808 10.6764 56.3808 10.6764 56.3808C12.8664 56.1038 15.4671 54.7185 17.1096 53.6103C16.5621 53.7488 15.1933 53.7488 14.5089 53.6103C14.2352 53.7488 13.277 54.4414 12.4558 54.58C10.9502 54.7185 10.8133 53.7488 10.8133 53.7488C11.7714 53.6103 13.0033 53.3332 14.0983 52.7791C14.2352 51.9479 14.3721 51.2553 14.5089 50.7012C12.182 52.0865 8.21263 53.0562 5.88574 53.0562C6.29637 54.0258 8.07576 56.3808 10.4026 56.3808Z" fill="white"/>
<path d="M14.5088 59.9825C14.7826 59.9825 15.1932 59.9825 15.4669 59.8439C17.5201 59.2898 19.5732 57.489 20.8051 55.9652C20.1207 56.2422 19.4363 56.3807 18.6151 56.3807C18.6151 56.3807 18.0676 57.0734 17.6569 57.2119C17.3832 57.3504 17.2463 57.3504 17.1094 57.3504C16.5619 57.3504 16.2882 56.7963 16.2882 56.7963C16.2882 56.7963 17.2463 56.3807 17.7938 55.6881C17.7938 55.411 17.6569 54.7184 17.6569 54.0258C16.0144 55.6881 12.8663 57.3504 10.6763 57.6275C11.0869 58.5972 12.5925 59.9825 14.5088 59.9825Z" fill="white"/>
<path d="M41.7476 5.26391C41.7476 5.67949 42.1582 6.09508 42.5688 6.09508C42.9794 6.09508 43.3901 5.67949 43.3901 5.26391C43.3901 4.84832 42.9794 4.43274 42.5688 4.43274C42.0213 4.43274 41.7476 4.84832 41.7476 5.26391Z" fill="white"/>
<path d="M42.0213 3.4632H43.1163L42.9794 2.07792L44.0744 2.21645V1.24675L42.9794 1.38528L43.1163 0H42.0213L42.1582 1.38528L40.9263 1.24675V2.21645L42.1582 2.07792L42.0213 3.4632Z" fill="white"/>
<path d="M38.1885 16.7616C38.3253 16.7616 38.4622 16.7616 38.5991 16.7616H46.5379C46.6748 16.7616 46.8117 16.7616 46.9485 16.7616C47.2223 16.6231 47.3592 16.4846 47.3592 16.2075H37.7778C37.7778 16.4846 37.9147 16.6231 38.1885 16.7616Z" fill="white"/>
<path d="M46.8118 15.5152C46.9487 15.5152 46.9487 15.5153 46.9487 15.3767V14.8226C46.9487 14.6841 46.9487 14.6841 46.8118 14.6841H38.1886C38.0518 14.6841 38.0518 14.6841 38.0518 14.8226V15.3767C38.0518 15.5153 38.0518 15.5152 38.1886 15.5152H46.8118Z" fill="white"/>
<path d="M47.77 13.9914C48.0438 13.7143 49.1388 11.4979 49.1388 9.41993C49.1388 7.48054 46.675 6.37231 45.3063 6.37231C45.1694 9.14288 44.0744 13.5758 42.7056 13.5758C41.3369 13.5758 40.2419 9.14288 40.105 6.37231C38.5994 6.37231 36.2725 7.48054 36.2725 9.41993C36.2725 11.6364 37.3675 13.7143 37.6412 13.9914H47.77Z" fill="white"/>
<path d="M42.5685 12.052C43.2528 12.052 44.0741 9.97411 44.3478 7.89619C44.3478 7.4806 43.6635 6.78796 42.5685 6.78796C41.4734 6.78796 40.7891 7.4806 40.7891 7.89619C40.9259 9.83558 41.8841 12.052 42.5685 12.052Z" fill="white"/>
<path d="M55.0239 44.883C55.0239 44.6059 54.7501 44.3289 54.4764 44.3289H30.5231C30.2493 44.3289 29.9756 44.6059 29.9756 44.883V61.5063V61.6449V61.7834C29.9756 61.7834 29.9756 62.6146 30.3862 63.7228C30.9337 64.9696 32.9869 66.9089 35.5875 68.2942C39.2832 70.2336 41.4732 71.7574 42.4313 72.5886C43.5263 71.7574 45.7163 70.2336 49.2751 68.2942C51.8758 66.9089 53.9289 64.9696 54.4764 63.7228C54.887 62.6146 54.887 61.7834 54.887 61.7834L55.0239 44.883ZM46.9482 50.9782V51.1167C47.222 52.3635 47.4957 53.6102 47.6326 54.857C48.5907 55.6882 49.5489 56.5193 50.2332 57.3505C51.7389 55.6882 52.4233 54.0258 52.5601 52.7791C51.8758 52.7791 51.3282 52.225 51.3282 51.5323C51.3282 51.2553 51.4651 51.1167 51.602 50.8397C50.9176 50.4241 50.0964 50.4241 49.412 50.4241C48.8645 50.4241 48.1801 50.4241 47.4957 50.5626H47.3588H47.222V50.4241C47.3588 50.2856 47.3588 50.147 47.3588 50.0085C49.2751 49.5929 50.9176 49.87 51.8758 50.4241C52.0126 50.2856 52.2864 50.2856 52.5601 50.2856C53.2445 50.2856 53.792 50.8397 53.792 51.5323C53.792 51.9479 53.5183 52.3635 53.1076 52.6405C53.1076 54.0258 52.2864 55.8267 50.6439 57.7661C50.7807 57.9046 50.7807 58.0431 50.9176 58.0431L51.0545 58.1817C50.9176 58.3202 50.9176 58.3202 50.7807 58.4587L50.6439 58.3202C50.6439 58.1817 50.507 58.1817 50.507 58.0431C50.3701 58.1817 50.0964 58.4587 49.9595 58.5973L49.8226 58.7358C49.5489 59.0128 49.2751 59.0128 49.0014 58.8743H48.8645L49.0014 58.7358C49.5489 58.3202 49.9595 57.9046 50.2332 57.489C49.5489 56.7964 48.8645 56.1037 48.0432 55.4111C48.0432 56.1037 48.1801 56.7964 48.1801 57.489C48.1801 58.0431 48.1801 58.7358 48.0432 59.567C47.9063 59.567 47.7695 59.7055 47.6326 59.844H47.4957V59.7055C47.6326 58.8743 47.6326 58.1817 47.6326 57.489C47.6326 57.212 47.6326 57.0734 47.6326 56.7964V56.6579C47.6326 56.2423 47.4957 54.7185 47.3588 53.8873C47.222 53.0561 47.0851 52.225 46.9482 51.5323C46.6745 51.3938 46.8113 51.2553 46.9482 50.9782ZM38.7357 49.1773C39.6938 46.8224 41.0625 45.5756 42.5682 45.5756C43.9369 45.5756 45.3057 46.8224 46.4007 49.1773C46.4007 49.1773 46.2638 49.3159 45.9901 49.3159C45.0319 47.2379 43.9369 45.9912 42.7051 45.9912C41.4732 45.9912 40.3782 47.2379 39.42 49.3159C39.0094 49.3159 38.8725 49.3159 38.7357 49.1773ZM38.4619 49.7315C38.8725 50.0085 39.6938 50.4241 40.6519 50.147C41.4732 49.87 42.5682 49.87 42.5682 49.87C42.5682 49.87 43.6632 49.87 44.4844 50.147C45.4426 50.4241 46.2638 50.0085 46.6745 49.7315C46.6745 49.7315 46.8113 49.7315 46.8113 49.87C46.6745 50.2856 46.4007 51.2553 44.8951 51.6708C43.5263 51.9479 42.8419 53.6102 42.7051 54.3029C42.7051 54.4414 42.5682 54.4414 42.5682 54.3029C42.2944 53.6102 41.7469 52.0864 40.3782 51.6708C38.7357 51.2553 38.4619 50.2856 38.4619 49.7315C38.325 49.7315 38.325 49.7315 38.4619 49.7315ZM40.7888 53.7488C41.0625 53.7488 41.1994 53.6102 41.4732 53.4717C41.61 53.7488 41.7469 53.8873 41.7469 54.1644C41.4732 54.3029 41.0625 54.4414 40.7888 54.4414C39.6938 54.4414 38.8725 53.6102 38.8725 52.502C38.8725 52.225 38.8725 51.9479 39.0094 51.8094C39.1463 51.9479 39.42 52.0864 39.6938 52.0864C39.6938 52.225 39.5569 52.3635 39.5569 52.502C39.6938 53.1947 40.2413 53.7488 40.7888 53.7488ZM40.2413 52.6405C40.2413 52.502 40.2413 52.502 40.2413 52.3635C40.515 52.502 40.7888 52.7791 41.0625 53.0561C40.9257 53.0561 40.9257 53.1947 40.7888 53.1947C40.515 53.1947 40.2413 52.9176 40.2413 52.6405ZM40.7888 55.1341C41.1994 55.1341 41.6101 54.9955 42.0207 54.7185C42.1576 54.857 42.2944 55.2726 42.4313 55.2726C42.5682 55.2726 42.7051 54.857 42.8419 54.7185C43.2526 54.9955 43.6632 55.1341 44.0738 55.1341C44.7582 55.1341 45.4426 54.857 45.8532 54.4414C46.127 55.2726 46.127 56.2423 46.127 56.6579C46.127 57.0734 45.9901 57.489 45.8532 57.9046C45.7163 58.4587 45.5795 58.7358 45.5795 58.7358C45.5795 58.7358 45.5795 58.8743 45.4426 59.0128C45.3057 59.4284 45.0319 60.1211 44.6213 60.8137C43.9369 60.3981 42.9788 60.1211 42.0207 60.1211C41.1994 60.1211 40.3782 60.3981 39.6938 60.6752C39.42 59.9825 39.1463 59.4284 39.0094 59.0128C38.8725 58.7358 38.8725 58.7358 38.8725 58.7358C38.8725 58.7358 38.7357 58.3202 38.4619 57.7661C38.325 57.489 38.325 57.0734 38.1881 56.6579C38.1881 56.3808 38.1881 55.2726 38.325 54.4414C38.325 54.3029 38.4619 54.1644 38.4619 54.1644C39.42 54.857 40.1044 55.1341 40.7888 55.1341ZM44.2107 53.7488C44.8951 53.7488 45.4426 53.1947 45.4426 52.502C45.4426 52.3635 45.4426 52.225 45.3057 52.0864C45.5795 51.9479 45.7163 51.9479 45.9901 51.8094C46.127 52.0864 46.127 52.225 46.127 52.502C46.127 53.6102 45.3057 54.4414 44.2107 54.4414C43.8001 54.4414 43.5263 54.3029 43.2526 54.1644C43.2526 54.0258 43.3894 53.7488 43.5263 53.4717C43.8001 53.7488 44.0738 53.7488 44.2107 53.7488ZM43.9369 53.0561C44.2107 52.7791 44.4844 52.502 44.7582 52.3635C44.7582 52.3635 44.7582 52.502 44.7582 52.6405C44.7582 52.9176 44.4844 53.1947 44.2107 53.1947C44.0738 53.1947 44.0738 53.0561 43.9369 53.0561ZM32.4394 50.147C32.7131 50.147 32.85 50.2856 33.1237 50.4241C33.8081 50.0085 34.6294 49.7315 35.7244 49.7315C36.2719 49.7315 36.9563 49.7315 37.6406 49.87H37.7775C37.7775 50.0085 37.9144 50.147 37.9144 50.2856V50.4241H37.6406H37.5038C36.8194 50.2856 36.2719 50.2856 35.7244 50.2856C35.04 50.2856 34.2187 50.4241 33.5344 50.7011C33.6712 50.8397 33.6712 51.1167 33.6712 51.3938C33.6712 52.0864 33.1237 52.6405 32.4394 52.6405C32.4394 53.8873 33.2606 55.4111 34.7662 57.212C35.5875 56.3808 36.4088 55.5496 37.3669 54.7185C37.5038 53.4717 37.7775 52.225 38.0513 50.9782V50.8397L38.1881 50.9782C38.325 51.1167 38.325 51.2553 38.4619 51.2553C38.325 51.9479 38.0513 52.7791 38.0513 53.6102C37.9144 54.1644 37.9144 54.9955 37.9144 55.8267C37.9144 56.3808 37.9144 56.9349 37.9144 57.3505C37.9144 57.9046 37.9144 58.5973 38.0513 59.2899V59.4284H37.9144C37.7775 59.4284 37.6406 59.2899 37.5038 59.2899C37.5038 58.7358 37.3669 58.0431 37.3669 57.489C37.3669 56.7964 37.3669 56.1037 37.5038 55.4111C36.6825 56.1037 35.9981 56.7964 35.3138 57.489C35.8613 58.0431 36.5456 58.7358 37.23 59.2899L37.3669 59.4284H37.23C36.9563 59.4284 36.6825 59.4284 36.5456 59.4284C35.8613 58.8743 35.4506 58.3202 35.04 57.9046C34.9031 58.0431 34.9031 58.0431 34.7662 58.1817L34.6294 58.3202C34.4925 58.3202 34.3556 58.4587 34.2187 58.4587C34.2187 58.4587 34.2187 58.4587 34.0819 58.3202C34.0819 58.3202 34.0819 58.3202 33.945 58.3202C34.2187 58.0431 34.3556 57.7661 34.4925 57.6276C32.85 55.6882 32.0287 53.8873 32.0287 52.502C31.6181 52.225 31.3443 51.8094 31.3443 51.3938C31.2075 50.7011 31.755 50.147 32.4394 50.147ZM46.5376 65.6622C45.8532 67.6016 44.7582 68.9869 43.8001 69.6795C43.6632 70.2336 43.2526 70.7877 42.5682 70.7877C41.8838 70.7877 41.4732 70.3721 41.3363 69.6795C40.2413 69.1254 39.2832 67.7401 38.5988 65.8007V65.6622L39.1463 65.5237C39.8307 67.186 40.515 68.4328 41.4732 68.9869C41.61 68.4328 42.1576 68.1557 42.7051 68.1557C43.2526 68.1557 43.6632 68.5713 43.9369 68.9869C44.7582 68.4328 45.5795 67.186 46.2638 65.5237C46.2638 65.5237 46.4007 65.6622 46.5376 65.6622ZM41.4732 65.6622C41.4732 65.2466 41.61 64.1384 41.7469 63.8613C42.0207 63.7228 42.2944 63.5843 42.5682 63.5843C42.8419 63.5843 43.2526 63.7228 43.3894 63.8613C43.5263 64.2769 43.6632 65.2466 43.6632 65.6622C43.6632 66.0778 42.7051 66.3548 42.5682 66.3548C42.4313 66.3548 41.4732 66.0778 41.4732 65.6622ZM54.2026 61.5063C54.2026 61.6449 54.0658 61.6449 53.9289 61.6449C53.792 61.6449 53.6551 61.7834 53.5183 61.7834H53.3814C53.2445 61.7834 52.9708 61.7834 52.8339 61.6449C52.8339 61.6449 52.697 61.6449 52.697 61.5063C52.4233 61.5063 51.7389 61.7834 51.4651 61.7834C51.602 61.7834 52.4233 61.9219 53.1076 62.3375C53.3814 62.476 53.9289 62.6146 54.2026 62.6146C54.2026 62.7531 53.2445 63.4457 51.3282 63.0302L50.9176 62.8916C50.0964 62.6146 49.2751 62.6146 48.317 62.6146C48.4538 62.6146 48.4539 62.6146 48.5907 62.7531C48.8645 62.8916 49.0014 62.8916 49.2751 63.0302C49.2751 63.0302 49.2751 63.0302 49.412 63.0302H49.5489C49.6857 63.0302 49.6857 63.0302 49.8226 63.0302C49.9595 63.0302 50.0964 63.1687 50.0964 63.1687C50.2332 63.3072 50.3701 63.3072 50.3701 63.4457C50.3701 63.4457 50.507 63.5843 50.507 63.7228C50.507 63.8613 50.507 63.9999 50.3701 64.1384C49.9595 64.554 49.6857 64.554 49.2751 64.1384C49.2751 64.1384 49.2751 64.1384 49.1382 63.9999C49.1382 63.9999 49.0014 63.7228 48.8645 63.5843V63.4457C48.7276 63.3072 48.5907 63.1687 48.317 63.1687C47.9063 63.0302 47.6326 62.8916 47.3588 62.8916C47.222 62.8916 47.222 62.8916 47.0851 62.8916C47.3588 63.0302 47.6326 63.3072 47.7695 63.5843C47.9063 63.8613 47.9063 64.1384 48.0432 64.4154C48.317 65.1081 48.4538 65.1081 48.7276 65.3851C48.4538 65.5237 46.9482 65.3851 46.2638 64.4154C46.2638 64.4154 46.2638 64.2769 46.127 64.2769C45.9901 63.8613 45.8532 63.4457 45.7163 63.1687C45.5795 62.8916 45.7163 62.6146 45.5795 62.476C45.4426 62.3375 45.3057 62.476 45.3057 62.476C45.1688 62.476 45.1688 62.6146 45.1688 62.6146V62.7531C45.1688 62.7531 45.1688 62.7531 45.1688 62.8916H45.032C45.032 62.8916 45.0319 62.8916 44.8951 62.8916C44.7582 62.8916 44.7582 62.8916 44.6213 62.8916C44.4844 62.8916 44.4844 62.7531 44.4844 62.7531V62.6146H44.3476C44.2107 62.6146 44.2107 62.6146 44.2107 62.476C44.2107 62.3375 44.2107 62.3375 44.2107 62.199L44.0738 62.3375C43.9369 62.3375 43.9369 62.3375 43.9369 62.3375L43.8001 62.199V62.0605C43.6632 62.0605 43.5263 61.9219 43.3894 61.9219C43.2526 61.9219 43.1157 62.0605 42.9788 62.0605C42.9788 62.0605 42.9788 62.0605 42.8419 62.0605V61.9219H42.7051V62.0605V62.199C42.7051 62.3375 42.7051 62.3375 42.7051 62.476C42.7051 62.476 42.5682 62.6146 42.5682 62.476C42.5682 62.476 42.5682 62.476 42.4313 62.476C42.4313 62.476 42.4313 62.476 42.2944 62.3375C42.2944 62.3375 42.2944 62.3375 42.2944 62.476V62.6146C42.2944 62.7531 42.1576 62.7531 42.0207 62.7531C42.0207 62.7531 42.0207 62.7531 41.8838 62.7531C41.8838 62.7531 41.8838 62.7531 41.7469 62.7531C41.7469 62.7531 41.8838 62.8916 41.7469 62.8916C41.7469 63.0302 41.61 63.0302 41.61 63.0302C41.4732 63.0302 41.4732 63.0302 41.3363 63.0302C41.3363 63.0302 41.3363 63.0302 41.1994 63.0302C41.1994 63.0302 41.1994 63.0302 41.0625 63.0302C41.0625 63.0302 40.9257 63.0302 40.9257 62.8916H40.7888L40.6519 62.7531C40.3782 62.6146 40.1044 63.3072 40.1044 63.3072C39.1463 65.2466 37.0931 65.5237 36.9563 65.5237C36.9563 65.5237 37.5038 65.2466 37.6406 64.554C37.7775 64.1384 37.7775 63.9999 37.9144 63.7228L38.0513 63.5843C38.1881 63.4457 38.4619 63.1687 38.5988 63.0302C38.4619 63.0302 38.4619 63.0302 38.325 63.0302C38.0513 63.0302 37.6406 63.1687 37.3669 63.3072C37.23 63.3072 37.0931 63.4457 36.8194 63.5843V63.7228C36.8194 63.8613 36.6825 63.9999 36.5456 64.1384C36.5456 64.1384 36.5456 64.1384 36.4088 64.2769C35.9981 64.6925 35.7244 64.6925 35.3138 64.2769C35.3138 64.2769 35.3138 64.1384 35.1769 64.1384C35.1769 63.9999 35.04 63.8613 35.1769 63.7228C35.1769 63.5843 35.3138 63.4457 35.3138 63.4457C35.4506 63.3072 35.4506 63.3072 35.5875 63.3072C35.7244 63.3072 35.8613 63.1687 35.8613 63.1687C35.9981 63.1687 35.9981 63.1687 36.135 63.1687H36.2719C36.2719 63.1687 36.2719 63.1687 36.4088 63.1687C36.5456 63.1687 36.5456 63.0302 36.6825 63.0302C36.8194 63.0302 36.8194 62.8916 36.9563 62.8916H37.0931C36.2719 62.8916 35.4506 62.8916 34.6294 63.1687C34.4925 63.1687 34.3556 63.3072 34.0819 63.3072C33.1237 63.5843 31.2075 63.0302 31.2075 62.8916C31.2075 62.7531 31.6181 62.7531 32.3025 62.476C32.7131 62.3375 32.9869 62.0605 33.2606 62.0605C33.5344 61.9219 34.0819 61.9219 34.0819 61.9219C33.8081 61.7834 32.9869 61.6449 32.7131 61.6449L32.5762 61.7834C32.4394 61.9219 32.1656 61.9219 31.8918 61.9219C31.755 61.9219 31.6181 61.9219 31.4812 61.7834C31.3443 61.7834 31.2075 61.6449 31.2075 61.6449C31.2075 61.5063 31.0706 61.3678 31.0706 61.2293C31.2075 60.8137 31.4812 60.6752 32.0287 60.8137C32.3025 60.9522 32.4394 60.9522 32.5762 61.0908C32.5762 61.0908 32.5762 61.0908 32.7131 61.2293C32.9869 61.2293 33.3975 61.3678 33.8081 61.5063C34.2187 61.6449 34.4925 61.7834 34.7662 61.7834C34.6294 61.7834 34.6294 61.6449 34.4925 61.6449C34.4925 61.6449 34.3556 61.5063 34.2187 61.5063C34.0819 61.5063 33.945 61.3678 33.945 61.3678C33.3975 61.0908 32.7131 60.8137 32.3025 60.3981C31.4812 59.844 31.4812 59.567 31.3443 59.2899C31.2075 58.4587 30.7968 58.0431 30.9337 57.9046C31.0706 57.7661 32.4394 58.4587 32.85 59.0128C33.1237 59.4284 33.2606 59.7055 33.3975 59.9825C33.5344 60.2596 33.8081 60.5366 34.2187 60.9522L34.3556 61.0908C34.2187 60.9522 34.0819 60.8137 34.0819 60.6752C34.0819 60.6752 34.0819 60.6752 34.0819 60.5367C34.0819 60.5367 33.945 60.5366 33.945 60.3981L33.8081 60.2596C33.8081 60.1211 33.6712 60.1211 33.6712 59.9825C33.5344 59.7055 33.5344 59.4284 33.6712 59.2899C33.6712 59.1514 33.8081 59.0128 34.0819 59.0128C34.4925 58.8743 34.7662 59.1514 34.9031 59.7055C34.9031 59.844 34.9031 59.9825 34.9031 59.9825C34.9031 60.1211 34.9031 60.1211 34.9031 60.2596C34.9031 60.2596 34.9031 60.2596 34.9031 60.3981C35.1769 61.0908 35.5875 61.5063 36.135 61.9219C35.4506 61.3678 35.04 59.9825 35.1769 59.844C35.3138 59.844 35.8613 60.1211 36.5456 60.3981C36.8194 60.5366 37.0931 60.6752 37.3669 60.8137C37.5038 60.9522 37.7775 61.0908 37.9144 61.2293C38.0513 61.3678 38.1881 61.5063 38.325 61.6449C38.4619 61.7834 38.4619 61.7834 38.5988 61.9219C38.5988 61.9219 38.7357 62.0605 38.8725 62.0605C39.0094 62.199 39.2832 62.0605 39.2832 62.0605C39.2832 62.0605 39.42 62.0605 39.5569 62.0605C39.6938 61.9219 39.8307 61.9219 39.8307 61.9219C39.8307 61.9219 39.8307 61.9219 39.8307 61.7834C39.8307 61.6449 39.9675 61.5063 40.1044 61.3678H40.2413C40.2413 61.3678 40.2413 61.3678 40.3782 61.3678C40.3782 61.3678 40.3782 61.3678 40.515 61.3678H40.6519C40.6519 61.2293 40.7888 61.2293 40.7888 61.2293C41.0625 61.0908 41.3363 61.2293 41.4732 61.3678C41.61 61.5063 41.61 61.5063 41.61 61.6449V61.7834V61.9219V62.0605C41.7469 62.0605 41.8838 62.0605 42.0207 62.0605H42.1576C42.2944 62.0605 42.2944 62.0605 42.4313 62.0605C42.5682 62.0605 42.5682 62.0605 42.7051 61.9219H42.8419H42.9788C42.9788 61.7834 42.9788 61.7834 42.9788 61.6449C42.9788 61.5063 42.9788 61.5063 42.9788 61.3678C42.9788 61.3678 42.9788 61.2293 43.1157 61.2293C43.1157 61.2293 43.1157 61.2293 43.2526 61.0908C43.3894 60.9522 43.6632 60.9522 43.8001 61.0908C43.9369 61.0908 43.9369 61.2293 43.9369 61.2293C44.0738 61.2293 44.0738 61.2293 44.2107 61.2293H44.3476C44.3476 61.2293 44.3476 61.2293 44.4844 61.2293C44.6213 61.3678 44.7582 61.5063 44.7582 61.6449H44.8951C44.8951 61.6449 45.4426 61.6449 45.5795 61.6449H46.127L46.2638 61.5063C46.4007 61.3678 46.5376 61.2293 46.6745 61.0908C46.8113 60.9522 46.9482 60.8137 47.222 60.6752C47.4957 60.5366 47.9063 60.3981 48.1801 60.2596C49.1382 59.844 49.2751 59.2899 49.412 59.2899C49.5489 59.2899 49.1382 60.9522 48.4539 61.6449C49.0014 61.2293 49.5489 60.8137 49.6857 60.1211C49.6857 60.1211 49.6857 60.1211 49.6857 59.9825C49.6857 59.844 49.6857 59.844 49.6857 59.7055C49.6857 59.567 49.6857 59.567 49.6857 59.4284C49.8226 58.8743 50.0964 58.5973 50.507 58.7358C50.7807 58.7358 50.9176 58.8743 50.9176 59.0128C51.0545 59.1514 51.0545 59.4284 50.9176 59.7055C50.9176 59.844 50.7807 59.9825 50.7807 59.9825C50.7807 60.1211 50.6439 60.1211 50.6439 60.1211C50.6439 60.1211 50.507 60.1211 50.507 60.2596C50.507 60.2596 50.507 60.2596 50.507 60.3981C50.3701 60.5366 50.3701 60.6752 50.0964 60.9522C50.2332 60.9522 50.2332 60.8137 50.3701 60.8137C50.9176 60.3981 51.1914 60.1211 51.1914 59.844C51.3283 59.567 51.3282 59.2899 51.7389 58.8743C52.1495 58.3202 52.2864 58.1817 52.8339 57.9046C52.9708 57.9046 53.6551 57.6276 53.6551 57.7661C53.6551 57.9046 53.1076 58.0431 52.9708 59.1514C52.8339 59.4284 52.8339 59.9825 52.4233 60.2596C52.0126 60.6752 51.602 60.8137 51.0545 61.0908H50.9176C50.7807 61.0908 50.6439 61.2293 50.507 61.2293C50.3701 61.3678 50.2332 61.3678 50.0964 61.5063C50.3701 61.5063 50.6439 61.3678 51.0545 61.2293C51.3282 61.0908 51.7389 60.9522 52.1495 60.9522C52.1495 60.9522 52.1495 60.8137 52.2864 60.8137C52.4233 60.6752 52.5601 60.5367 52.8339 60.5367C53.3814 60.3981 53.6551 60.5366 53.792 60.9522C54.3395 61.3678 54.2026 61.5063 54.2026 61.5063Z" fill="white"/>
<path d="M71.4493 41.4201C72.9549 40.7275 75.4187 39.0651 76.3768 37.8184C75.0081 37.4028 72.1337 36.9872 70.628 36.9872C73.9131 34.7708 74.0499 29.9223 73.0918 26.3206C72.4074 29.2296 70.3543 31.4461 68.9855 32.8314C69.1224 34.2167 68.7118 36.5716 67.8905 38.0954C68.9855 38.511 70.2174 39.0651 71.1755 39.7578C70.628 40.4504 69.2593 41.6972 68.438 42.3898C69.1224 43.0825 70.2174 44.4677 70.7649 45.1604C69.9437 45.7145 68.438 46.4071 67.4799 46.6842C67.8905 47.5154 68.438 49.1777 68.7118 50.1474C67.7536 50.2859 66.3849 50.4245 65.0161 50.4245C65.0161 51.3942 64.8792 53.0565 64.7424 54.0262C63.5105 53.8877 62.0049 53.3335 61.3205 53.0565C60.9098 54.4418 60.0886 55.8271 60.0886 55.9656C58.8567 54.5803 57.6248 54.0262 56.6667 54.0262V53.0565C57.7617 53.0565 58.8567 53.4721 59.8148 54.3032C60.2255 53.6106 60.6361 52.2253 60.773 51.5327C61.5942 51.9483 62.8261 52.3638 63.9211 52.6409C64.058 51.6712 64.058 50.4245 63.9211 49.3162C65.0161 49.4548 66.248 49.4548 67.4799 49.1777C67.343 48.3465 66.5218 46.8227 65.9743 45.9916C67.0693 45.7145 68.438 45.1604 69.1224 44.7448C68.5749 43.9136 67.4799 42.8054 66.7955 42.2513C67.6168 41.6972 68.8487 40.589 69.3962 40.0348C68.5749 39.4807 67.343 38.7881 66.3849 38.511C67.7536 36.5716 68.0274 32.6929 67.7536 30.892C66.5218 35.0478 62.963 37.9569 60.9098 39.3422C60.773 39.4807 60.6361 39.4807 60.6361 39.6193C60.4992 39.7578 60.0886 40.1734 60.3623 40.866C60.3623 41.0045 60.4992 41.1431 60.4992 41.2816C60.6361 42.1128 60.6361 43.3595 59.5411 44.4677C58.583 45.4374 57.3511 45.4374 56.6667 45.2989V43.0825C56.6667 42.8054 56.3929 42.5284 56.1192 42.5284H54.6135L53.9292 41.8357C53.9292 41.8357 54.6135 41.8357 55.4348 41.8357C56.2561 41.8357 57.0773 41.4201 57.0773 41.4201C57.0773 41.4201 56.2561 41.4201 55.7086 41.2816C55.2979 41.1431 54.2029 40.7275 53.2448 39.7578C52.971 39.3422 52.6973 38.9266 52.4235 38.511C51.6023 37.8184 50.781 36.8487 50.2335 35.6019C49.8229 34.7708 49.686 33.3855 49.5491 32.5543C49.2754 32.8314 49.0016 33.1084 48.591 33.6625C47.9066 34.6322 47.6329 35.879 47.6329 35.879L47.3591 36.8487L46.8116 36.0175C46.8116 36.0175 46.1272 34.9093 45.9904 33.3855C45.9904 32.6929 45.9904 32.1387 46.1272 31.5846C45.8535 31.7232 45.5797 31.8617 45.306 32.1387C44.0741 32.9699 43.5266 33.9396 43.5266 33.9396C42.8422 34.7708 42.5685 35.4634 42.4316 35.7405C42.2947 35.3249 42.021 34.7708 41.3366 33.9396C41.3366 33.9396 40.6522 32.9699 39.5572 32.1387C39.2834 32.0002 39.0097 31.7232 38.7359 31.5846C38.7359 32.1387 38.8728 32.6929 38.8728 33.3855C38.7359 34.9093 38.0515 36.0175 38.0515 36.0175L37.504 36.8487L37.2303 35.879C37.2303 35.879 36.8197 34.4937 36.2722 33.6625C35.8615 33.1084 35.5878 32.8314 35.314 32.5543C35.1772 33.3855 35.0403 34.7708 34.6296 35.6019C34.0821 36.8487 33.2609 37.8184 32.4396 38.511C32.3028 38.9266 32.029 39.3422 31.6184 39.7578C30.7971 40.866 29.5652 41.2816 29.1546 41.2816C28.744 41.4201 27.7858 41.4201 27.7858 41.4201C27.7858 41.4201 28.6071 41.8357 29.4284 41.8357C30.2496 41.8357 30.934 41.8357 30.934 41.8357L30.2496 42.5284H28.744C28.4702 42.5284 28.1965 42.8054 28.1965 43.0825V45.2989C27.5121 45.4374 26.2802 45.2989 25.3221 44.4677C24.2271 43.3595 24.2271 42.1128 24.3639 41.2816C24.3639 41.1431 24.5008 41.0045 24.5008 40.866C24.7746 40.1734 24.2271 39.7578 24.2271 39.6193C24.0902 39.4807 24.0902 39.4807 23.9533 39.3422C21.7633 37.9569 18.3414 34.9093 17.1095 30.892C16.8358 32.6929 17.2464 36.5716 18.4783 38.511C17.5201 38.9266 16.2883 39.4807 15.467 40.0348C16.0145 40.589 17.2464 41.6972 18.0676 42.2513C17.3833 42.8054 16.2883 44.0522 15.7408 44.7448C16.4251 45.1604 17.7939 45.7145 18.8889 45.9916C18.3414 46.8227 17.657 48.3465 17.3833 49.1777C18.6152 49.4548 19.847 49.4548 20.942 49.3162C20.8052 50.4245 20.942 51.6712 20.942 52.6409C22.0371 52.5024 23.2689 51.9483 24.0902 51.5327C24.2271 52.2253 24.6377 53.6106 25.0483 54.3032C26.0065 53.4721 27.1015 52.918 28.1965 53.0565V54.0262C27.1015 54.0262 26.0065 54.5803 24.7746 55.9656C24.7746 55.8271 23.8164 54.4418 23.5427 53.0565C22.8583 53.3335 21.3527 53.8877 20.1208 54.0262C19.9839 53.0565 19.847 51.3942 19.847 50.4245C18.4783 50.4245 17.1095 50.2859 16.1514 50.1474C16.2883 49.0392 16.9726 47.5154 17.3833 46.6842C16.562 46.4071 14.9195 45.7145 14.0982 45.1604C14.6457 44.3292 15.7408 43.0825 16.4251 42.3898C15.6039 41.6972 14.372 40.589 13.6876 39.7578C14.6457 39.0651 15.8776 38.511 16.9726 38.0954C16.2883 36.5716 15.7408 34.2167 15.8776 32.8314C14.5089 31.4461 12.5926 29.2296 11.7714 26.3206C10.8132 29.7838 10.9501 34.6322 14.2351 36.9872C12.5926 36.9872 9.85509 37.4028 8.48633 37.8184C9.44446 38.9266 11.9082 40.7275 13.4139 41.4201C12.182 41.8357 10.1288 42.9439 9.30758 43.7751C10.4026 44.4677 12.8664 45.2989 14.0982 45.576C13.4139 46.1301 12.0451 47.7924 11.4976 48.6236C12.4557 48.9006 14.5089 49.1777 15.7408 49.3162C15.3301 50.1474 14.9195 51.6712 14.7826 52.6409C15.467 52.6409 17.5201 52.6409 18.4783 52.3638C18.3414 53.195 18.4783 54.7188 18.6152 55.4115C19.5733 55.2729 21.0789 54.8574 21.7633 54.5803C21.9002 55.4115 22.7214 56.9353 22.8583 57.3509C23.2689 57.2123 23.8164 57.0738 24.3639 56.9353C25.7327 56.3812 27.2383 57.0738 27.7858 58.3206C28.744 60.6755 28.3334 63.3076 26.4171 62.7535C24.2271 63.169 25.7327 65.9396 24.5008 66.7708C26.1433 68.0175 26.6908 65.1084 28.744 65.6626C28.4702 66.7708 28.6071 68.5716 28.744 69.4028C29.4284 68.8487 30.3865 68.4331 31.0709 68.4331C30.934 68.9872 30.7971 70.511 31.0709 71.3422C31.4815 71.0651 34.3559 70.234 34.3559 70.234C34.3559 70.234 33.2609 72.4504 33.9453 74.6669C34.3559 74.9439 36.8197 73.6972 36.9565 72.866C37.0934 73.8357 35.9984 75.7751 34.3559 76.1907C36.1353 77.9916 37.7778 77.853 37.9147 77.853C38.1884 77.853 38.4622 77.853 38.5991 77.7145C38.4622 78.2686 38.4622 78.8227 38.4622 79.3768C38.5991 79.3768 38.7359 79.3768 38.7359 79.3768C39.1466 79.3768 39.5572 79.2383 39.9678 79.0998C39.9678 79.5154 40.2416 80.208 40.6522 80.4851C40.7891 80.6236 40.7891 80.6236 40.9259 80.6236C41.3366 80.6236 42.2947 80.208 42.5685 79.7924C42.8422 80.0695 43.8003 80.6236 44.211 80.6236C44.3478 80.6236 44.3478 80.4851 44.4847 80.4851C44.8953 80.0695 45.0322 79.5154 45.1691 79.0998C45.5797 79.2383 45.8535 79.3768 46.401 79.3768C46.5379 79.3768 46.6747 79.3768 46.6747 79.3768C46.8116 78.9613 46.6747 78.2686 46.5379 77.7145C46.8116 77.853 46.9485 77.853 47.2222 77.853C47.496 77.853 49.0016 77.853 50.781 76.1907C49.1385 75.7751 48.0435 73.8357 48.1804 72.866C48.1804 73.6972 50.781 74.9439 51.1916 74.6669C51.876 72.4504 50.781 70.234 50.781 70.234C50.781 70.234 53.5185 70.9266 54.066 71.3422C54.3398 70.511 54.2029 68.9872 54.066 68.4331C54.7504 68.4331 55.7086 68.8487 56.3929 69.4028C56.5298 68.5716 56.5298 66.7708 56.3929 65.6626C58.4461 65.247 58.9936 68.0175 60.6361 66.7708C59.4042 65.9396 60.9098 63.0305 58.7198 62.7535C56.8036 63.3076 56.3929 60.537 57.3511 58.3206C57.8986 56.9353 59.5411 56.3812 60.773 56.9353C61.3205 57.0738 61.7311 57.2123 62.2786 57.3509C62.5524 56.9353 63.2367 55.2729 63.3736 54.5803C64.058 54.8574 65.5636 55.2729 66.5218 55.4115C66.6586 54.7188 66.6586 53.195 66.6586 52.3638C67.7536 52.6409 69.8068 52.6409 70.3543 52.6409C70.2174 51.6712 69.8068 50.1474 69.3962 49.3162C70.628 49.1777 72.6812 49.0392 73.6393 48.6236C73.0918 47.7924 71.7231 46.1301 71.0387 45.576C72.2706 45.2989 74.7343 44.4677 75.8293 43.7751C74.5975 43.0825 72.5443 41.9742 71.4493 41.4201ZM55.4348 64.0002C55.4348 64.1387 55.2979 64.2773 55.161 64.5543L55.0242 64.6929C54.8873 64.8314 54.8873 64.9699 54.7504 65.1084L54.6135 65.247C54.4767 65.3855 54.3398 65.524 54.2029 65.8011C54.066 65.9396 53.9292 66.0781 53.9292 66.0781C53.7923 66.2167 53.7923 66.2167 53.6554 66.3552C53.5185 66.4937 53.3817 66.6322 53.2448 66.7708C53.1079 66.7708 53.1079 66.9093 52.971 66.9093C52.6973 67.1864 52.2867 67.4634 51.876 67.7405C51.3285 68.1561 50.9179 68.4331 50.3704 68.7102C50.2335 68.8487 49.9598 68.9872 49.8229 68.9872C45.4429 71.3422 43.2528 73.0045 42.5685 73.6972C41.8841 73.1431 39.6941 71.3422 35.314 68.9872C35.1772 68.8487 34.9034 68.7102 34.7665 68.7102C34.219 68.4331 33.6715 68.0175 33.2609 67.7405C32.8503 67.4634 32.5765 67.1864 32.1659 66.9093C32.029 66.9093 32.029 66.7708 31.8921 66.7708C31.6184 66.4937 31.4815 66.3552 31.4815 66.2167C31.3446 66.0781 31.3446 66.0781 31.2077 65.9396C31.0709 65.8011 30.934 65.6626 30.934 65.6626C30.7971 65.524 30.6602 65.3855 30.5234 65.1084L30.3865 64.9699C30.2496 64.8314 30.2496 64.6929 30.1127 64.5543L29.9759 64.4158C29.839 64.2773 29.839 64.1387 29.7021 63.8617C29.1546 62.6149 29.1546 61.5067 29.1546 61.5067V44.0522C29.1546 43.7751 29.4284 43.498 29.7021 43.498H31.2077H42.5685H53.9292H55.4348C55.7086 43.498 55.9823 43.7751 55.9823 44.0522V61.5067C55.8454 61.6452 55.9823 62.6149 55.4348 64.0002Z" fill="white"/>
<path d="M54.8875 15.9307C55.2981 15.9307 55.5719 15.6536 55.5719 15.2381C55.5719 14.8225 55.2981 14.5454 54.8875 14.5454C54.4769 14.5454 54.2031 14.8225 54.2031 15.2381C54.2031 15.6536 54.4769 15.9307 54.8875 15.9307Z" fill="white"/>
<path d="M54.8877 19.6711C55.2983 19.6711 55.7089 18.0088 55.7089 17.1776C55.7089 16.762 55.2983 16.485 54.8877 16.485C54.477 16.485 54.0664 16.762 54.0664 17.1776C54.0664 18.0088 54.477 19.6711 54.8877 19.6711Z" fill="white"/>
<path d="M54.4767 13.5757H55.2979L55.1611 12.4675L56.2561 12.606V11.7749L55.1611 11.9134L55.2979 10.8052H54.4767V11.9134L53.5186 11.7749V12.606L54.4767 12.4675V13.5757Z" fill="white"/>
<path d="M51.055 21.7489C51.3287 21.7489 51.6025 21.8875 52.0131 21.8875C52.0131 21.8875 52.0131 21.8875 52.15 21.8875H52.2869H52.4237H52.5606C52.6975 21.8875 52.6975 21.8875 52.8344 21.8875H52.9713C53.1081 21.8875 53.1081 21.8875 53.245 21.8875C54.0663 21.8875 54.8875 21.6104 55.5719 21.4719C56.3932 21.3333 57.2144 21.0563 58.0357 21.0563H58.1725H58.3094H58.4463C58.4463 21.0563 58.4463 21.0563 58.5832 21.0563C58.8569 20.2251 58.9938 19.1169 58.9938 18.5628C58.9938 17.316 58.3094 16.0693 55.9825 15.6537C55.9825 17.1775 55.2981 20.6407 54.4769 20.6407H54.7506C53.9294 20.6407 53.245 17.039 53.245 15.6537C50.9181 16.0693 50.3706 17.316 50.3706 18.5628C50.3706 19.2554 50.6444 20.5022 50.9181 21.4719C50.9181 21.6104 50.9181 21.6104 51.055 21.7489Z" fill="white"/>
<path d="M62.8265 15.3769C62.8265 15.3769 62.1422 13.7146 63.2372 13.299C64.3322 12.8834 62.9634 13.1604 63.6478 10.944C64.6059 8.31197 66.5222 8.86608 66.5222 8.86608C65.1534 7.75785 64.0584 7.89638 63.3741 8.45049C62.9634 8.86608 62.279 9.55872 61.7315 11.2211C61.0472 13.299 61.7315 15.2384 62.8265 15.3769Z" fill="white"/>
<path d="M68.0275 11.4978C68.1644 14.8225 73.6394 16.2078 73.6394 16.2078C73.6394 16.2078 70.4913 13.8528 71.1757 12.1905C71.1757 12.1905 73.2288 13.1602 75.6926 12.7446C70.6282 11.6364 72.2707 10.1125 71.0388 8.72727C69.8069 7.34198 67.7538 7.20346 67.3431 7.20346C66.1113 7.06493 65.9744 7.06493 64.4688 7.48051C67.6169 7.48051 67.8907 9.28138 68.0275 11.4978Z" fill="white"/>
<path d="M67.2064 17.7318C67.8908 15.0998 66.6589 13.9915 66.6589 13.9915C66.2483 13.576 64.1951 13.576 63.5108 14.1301C63.5108 14.1301 65.427 14.1301 65.1533 17.0392C64.8795 19.9483 60.9101 20.5024 59.8151 20.6409L59.6782 21.0565C61.4576 20.918 66.522 20.3638 67.2064 17.7318Z" fill="white"/>
<path d="M46.6747 17.593H44.6216C45.5797 20.3636 48.4541 21.3333 50.3704 21.6103L50.2335 21.3333C48.3172 20.5021 47.2222 19.6709 46.6747 17.593Z" fill="white"/>
<path d="M30.2498 15.9307C30.6604 15.9307 30.9342 15.6536 30.9342 15.2381C30.9342 14.8225 30.6604 14.5454 30.2498 14.5454C29.8392 14.5454 29.5654 14.8225 29.5654 15.2381C29.5654 15.6536 29.8392 15.9307 30.2498 15.9307Z" fill="white"/>
<path d="M30.25 19.6711C30.6606 19.6711 31.0712 18.0088 31.0712 17.1776C31.0712 16.762 30.6606 16.485 30.25 16.485C29.8393 16.485 29.4287 16.762 29.4287 17.1776C29.4287 18.0088 29.7025 19.6711 30.25 19.6711Z" fill="white"/>
<path d="M29.8395 13.5757H30.6607L30.5239 12.4675L31.6189 12.606V11.7749L30.5239 11.9134L30.6607 10.8052H29.8395V11.9134L28.8813 11.7749V12.606L29.8395 12.4675V13.5757Z" fill="white"/>
<path d="M26.2806 21.0564H26.4174H26.5543H26.6912C27.5125 21.0564 28.4706 21.3335 29.155 21.472C29.8393 21.6105 30.6606 21.8876 31.4819 21.8876C31.6187 21.8876 31.6187 21.8876 31.7556 21.8876H31.8925C32.0294 21.8876 32.0294 21.8876 32.1662 21.8876H32.3031H32.44H32.5769C32.5769 21.8876 32.5769 21.8876 32.7137 21.8876C32.9875 21.8876 33.3981 21.7491 33.6719 21.7491V21.6105C33.9456 20.7794 34.2194 19.3941 34.2194 18.7014C34.2194 17.4547 33.535 16.2079 31.345 15.7924C31.345 17.1776 30.6606 20.7794 29.8393 20.7794H30.1131C29.2918 20.7794 28.6075 17.3162 28.6075 15.7924C26.2806 16.2079 25.5962 17.4547 25.5962 18.7014C25.7331 19.2556 25.8699 20.2253 26.2806 21.0564C26.1437 21.195 26.2806 21.0564 26.2806 21.0564Z" fill="white"/>
<path d="M18.4785 8.86608C18.4785 8.86608 20.5317 8.31197 21.3529 10.944C22.1742 13.1604 20.6685 12.8834 21.7635 13.299C22.8585 13.7146 22.1742 15.3769 22.1742 15.3769C23.2692 15.2384 23.9536 13.299 23.2692 11.2211C22.7217 9.55872 22.0373 8.86608 21.6267 8.45049C20.9423 7.89638 19.8473 7.75785 18.4785 8.86608Z" fill="white"/>
<path d="M13.9616 12.1906C14.646 13.853 11.4978 16.2079 11.4978 16.2079C11.4978 16.2079 16.9728 14.8227 17.1097 11.498C17.1097 9.28154 17.5204 7.48067 20.8054 7.48067C19.2997 7.20361 19.1629 7.20361 17.931 7.20361C17.5204 7.20361 15.4672 7.34214 14.2353 8.72742C13.0034 10.1127 14.646 11.6365 9.58154 12.7447C11.9084 13.0218 13.9616 12.1906 13.9616 12.1906Z" fill="white"/>
<path d="M19.984 16.9005C19.7103 13.9914 21.6265 13.9914 21.6265 13.9914C20.9421 13.4373 18.7521 13.4373 18.4784 13.8529C18.4784 13.8529 17.1096 14.9611 17.9309 17.5931C18.6153 20.2252 23.6797 20.7793 25.4591 20.7793L25.3222 20.3637C24.2272 20.3637 20.2578 19.8096 19.984 16.9005Z" fill="white"/>
<path d="M40.3787 17.593H38.3255C37.6412 19.6709 36.683 20.5021 34.7668 21.1947L34.6299 21.4718C36.683 21.3333 39.4205 20.3636 40.3787 17.593Z" fill="white"/>
<path d="M45.0325 29.9219C44.485 30.8916 43.9375 31.8613 43.5269 32.831C43.8006 32.4154 44.3481 31.9998 44.8956 31.7227C45.8537 31.0301 46.5381 30.7531 46.5381 30.7531L47.3594 30.476L47.2225 31.3072C47.2225 31.3072 46.9488 32.5539 46.9488 33.8007C46.9488 34.3548 47.0856 34.7704 47.2225 35.186C47.3594 34.7704 47.6331 34.2163 48.0438 33.6621C49.0019 32.4154 49.8232 31.8613 49.8232 31.8613L50.3707 31.5842V32.2769C50.3707 32.2769 50.5075 34.6318 51.055 35.7401C52.0132 37.818 53.6557 38.9262 54.6138 39.3418C54.4769 39.2033 54.3401 39.0647 54.0663 38.7877C53.6557 38.2336 53.1082 37.4024 52.8344 35.463C52.5607 33.8007 53.245 32.2769 53.5188 31.7227C53.6557 32.1383 53.7926 32.5539 54.0663 32.6924C54.0663 32.6924 54.0663 32.2769 54.2032 31.8613C54.3401 30.7531 55.5719 29.0907 57.2145 27.9825C57.4882 27.7054 57.762 27.5669 58.0357 27.4284C58.3095 27.2898 58.4463 27.1513 58.7201 27.0128C58.4463 27.0128 58.0357 27.1513 57.762 27.1513H57.6251C57.3513 27.1513 57.0776 27.1513 56.8038 27.1513C56.1194 27.1513 55.1613 27.0128 54.4769 26.4587C53.7926 25.9046 53.5188 25.2119 53.3819 24.7963C53.1082 24.7963 52.6975 24.7963 52.15 24.7963C51.6025 24.7963 51.055 24.6578 50.7813 24.5193C49.96 25.0734 49.1388 25.2119 48.1806 25.2119C48.0438 25.2119 47.9069 25.2119 47.77 25.2119C48.0438 25.489 48.4544 25.6275 48.865 25.9046L48.5913 26.0431C48.4544 25.9046 47.2225 26.7357 45.0325 29.9219Z" fill="white"/>
<path d="M58.0354 24.2424C57.6248 24.2424 57.3511 24.2424 56.9404 24.2424C56.9404 24.5195 56.9404 24.658 56.9404 24.9351C56.9404 25.2121 57.2142 25.4892 57.3511 25.6277C57.6248 25.3507 57.8986 24.9351 58.0354 24.2424Z" fill="white"/>
<path d="M58.7198 22.0261C58.583 22.0261 58.5829 22.0261 58.5829 22.0261C58.4461 22.0261 58.4461 22.0261 58.3092 22.0261C57.4879 22.0261 56.8036 22.3031 55.9823 22.4417C55.161 22.5802 54.3398 22.8572 53.5185 22.8572C53.3817 22.8572 53.2448 22.8572 52.971 22.8572C52.8342 22.8572 52.8342 22.8572 52.6973 22.8572H52.5604H52.4235C50.6441 22.5802 49.4123 22.0261 48.8647 21.749C49.0016 21.8876 49.1385 22.1646 49.4122 22.4417C49.5491 22.5802 49.5491 22.5802 49.686 22.7187C49.9598 22.8572 50.2335 23.1343 50.5073 23.2728C50.9179 23.5499 52.5604 24.104 54.7504 23.8269C57.2142 23.4114 57.6248 23.5499 58.3092 23.5499H58.5829C59.4042 23.5499 60.773 24.2425 61.1836 24.5196C61.4573 24.104 61.5942 23.5499 61.7311 22.9958C61.5942 22.8572 61.4573 22.7187 61.0467 22.5802C60.9098 22.5802 60.773 22.4417 60.6361 22.4417C60.3623 22.3031 60.0886 22.3031 59.8148 22.1646C59.1305 22.0261 58.9936 22.0261 58.7198 22.0261Z" fill="white"/>
<path d="M65.7008 30.199C65.564 30.199 64.7427 30.7532 62.8264 29.5064C60.9102 28.2597 59.5414 27.7055 58.7202 27.567C58.5833 27.7055 58.4464 27.8441 58.1726 27.8441C57.8989 27.9826 57.762 28.1211 57.3514 28.3982C57.2145 28.3982 57.2145 28.5367 57.0776 28.6752H57.2145C58.9939 28.8138 60.3627 29.922 60.4995 30.3376C60.6364 29.7835 60.4995 29.2294 60.4995 29.2294C60.4995 29.2294 61.3208 29.7835 62.9633 30.6146C64.7427 31.5843 65.4271 30.6146 65.7008 30.199Z" fill="white"/>
<path d="M56.2561 25.2121C56.1192 25.0736 55.9823 24.9351 55.9823 24.7966C55.8455 24.658 55.8455 24.5195 55.8455 24.381C55.4348 24.381 55.0242 24.5195 54.3398 24.5195C54.203 24.5195 54.0661 24.5195 53.9292 24.5195C54.203 25.0736 54.7505 25.7663 55.7086 25.9048H55.8455H55.9823C56.393 25.9048 56.8036 26.0433 57.2142 26.0433C57.8986 26.0433 58.7199 25.9048 59.4042 25.7663C59.5411 25.4892 59.678 25.3507 59.9517 25.0736C59.9517 25.0736 59.8149 25.0736 59.8149 24.9351C59.678 24.7966 59.1305 24.5195 58.8567 24.381C58.7199 24.658 58.583 24.9351 58.3092 25.2121C58.0355 25.4892 57.6249 25.4892 57.2142 25.4892C56.8036 25.4892 56.393 25.3507 56.1192 25.2121C56.393 25.3507 56.2561 25.3507 56.2561 25.2121Z" fill="white"/>
<path d="M61.5943 23.8267C61.0468 25.3505 60.0887 26.5972 59.4043 27.1513C63.7843 25.9046 64.6056 28.2596 64.6056 28.2596C64.6056 28.3981 64.6056 28.3981 64.7425 28.2596C64.8793 28.121 66.2481 26.5972 65.29 25.0734C64.195 23.9652 62.1418 23.8267 61.5943 23.8267ZM61.5943 24.9349C61.7312 24.6578 61.8681 24.3808 61.8681 24.3808C62.1418 24.3808 62.8262 24.5193 62.8262 24.9349C62.4156 24.7964 61.8681 24.7964 61.5943 24.9349Z" fill="white"/>
<path d="M28.1961 24.9351C28.1961 24.7965 28.1961 24.5195 28.1961 24.2424C27.7855 24.2424 27.3748 24.2424 27.1011 24.2424C27.238 24.9351 27.5117 25.3507 27.7855 25.4892C27.9223 25.4892 28.0592 25.2121 28.1961 24.9351Z" fill="white"/>
<path d="M33.1238 22.7188C32.987 22.7188 32.987 22.7188 32.987 22.7188H32.8501H32.7132C32.5763 22.7188 32.5763 22.7188 32.4395 22.7188C32.3026 22.7188 32.1657 22.7188 31.892 22.7188C31.0707 22.7188 30.2494 22.4417 29.4282 22.3032C28.6069 22.1647 27.9225 21.8876 27.1013 21.8876C26.9644 21.8876 26.9644 21.8876 26.8275 21.8876C26.6907 21.8876 26.4169 21.8876 26.28 21.8876C25.8694 21.8876 25.5957 22.0262 25.4588 22.1647C25.3219 22.1647 25.185 22.3032 25.0481 22.3032C24.7744 22.4417 24.5006 22.5803 24.3638 22.7188C24.5006 23.2729 24.7744 23.827 24.9113 24.2426C25.4588 23.9656 26.6907 23.4114 27.5119 23.2729H27.7857C28.3332 23.2729 28.8807 23.1344 31.3444 23.55C33.5345 23.827 35.177 23.1344 35.5876 22.9959C35.8614 22.8573 36.1351 22.5803 36.4089 22.4417C36.5457 22.3032 36.6826 22.3032 36.6826 22.1647C36.9564 21.8876 37.0932 21.7491 37.2301 21.472C36.1351 21.8876 34.9032 22.4417 33.1238 22.7188C33.2607 22.7188 33.2607 22.7188 33.1238 22.7188Z" fill="white"/>
<path d="M19.2998 30.199C19.5736 30.4761 20.2579 31.5843 21.9004 30.6146C23.543 29.6449 24.3642 29.2294 24.3642 29.2294C24.3642 29.2294 24.0905 29.6449 24.3642 30.3376C24.5011 29.922 25.8699 28.8138 27.6492 28.6752C27.7861 28.6752 27.7861 28.6752 27.7861 28.6752C27.6492 28.5367 27.6492 28.5367 27.5124 28.3982C27.2386 28.1211 26.9649 27.9826 26.6911 27.8441C26.5542 27.7055 26.4174 27.7055 26.1436 27.567C25.3224 27.7055 23.9536 28.2597 22.0373 29.5064C20.2579 30.7532 19.4367 30.199 19.2998 30.199C19.4367 30.199 19.2998 30.199 19.2998 30.199Z" fill="white"/>
<path d="M26.0066 24.6581C25.7329 24.7966 25.1854 25.0737 25.0485 25.2122C24.9116 25.2122 24.9116 25.2122 24.9116 25.3507C25.0485 25.6278 25.1854 25.9048 25.4591 26.0434C26.2804 26.1819 27.1016 26.3204 27.6491 26.3204C28.0598 26.3204 28.4704 26.3204 28.881 26.1819C29.0179 26.1819 29.0179 26.1819 29.0179 26.1819C29.1548 26.1819 29.1548 26.1819 29.1548 26.1819C30.1129 25.9048 30.6604 25.3507 30.9342 24.7966C30.7973 24.7966 30.6604 24.7966 30.5235 24.7966C29.8392 24.6581 29.4285 24.6581 29.0179 24.6581C29.0179 24.7966 28.881 24.9351 28.881 25.0737C28.7441 25.2122 28.7441 25.3507 28.6073 25.4893L28.4704 25.6278C28.1966 25.9048 27.786 25.9048 27.3754 25.9048C26.9648 25.9048 26.5541 25.7663 26.2804 25.6278C26.2804 25.2122 26.1435 24.9351 26.0066 24.6581Z" fill="white"/>
<path d="M19.8467 25.2123C18.7517 26.7361 20.2573 28.2599 20.3942 28.3984C20.3942 28.5369 20.5311 28.3984 20.5311 28.3984C20.5311 28.2599 21.3524 26.0434 25.7324 27.2902C25.048 26.7361 24.0899 25.4893 23.5424 23.9655C22.858 23.827 20.8048 23.9655 19.8467 25.2123ZM23.5424 24.9352C23.1317 24.7967 22.7211 24.7967 22.3105 24.7967C22.3105 24.3811 22.858 24.2426 23.2686 24.2426C23.2686 24.3811 23.4055 24.7967 23.5424 24.9352Z" fill="white"/>
<path d="M37.3676 25.2119C37.2307 25.2119 37.0938 25.2119 36.9569 25.2119C35.9988 25.2119 35.1776 24.9349 34.3563 24.5193C34.0825 24.6578 33.535 24.6578 32.9875 24.7963C32.44 24.7963 32.0294 24.7963 31.7556 24.7963C31.6188 25.2119 31.345 25.9046 30.6606 26.4587C29.9763 27.0128 29.0181 27.1513 28.3337 27.1513C27.9231 27.1513 27.6494 27.1513 27.5125 27.1513H27.3756C27.1019 27.1513 26.6912 27.0128 26.4175 27.0128C26.6912 27.1513 26.965 27.2898 27.1019 27.4284C27.3756 27.5669 27.6494 27.7054 27.9231 27.9825C29.4288 29.0907 30.6606 30.7531 30.9344 31.8613C31.0713 32.2769 30.9344 32.6924 31.0713 32.6924C31.345 32.5539 31.4819 32.1383 31.6188 31.7227C31.8925 32.1383 32.44 33.8007 32.3032 35.463C32.0294 37.4024 31.4819 38.2336 31.0713 38.7877C30.9344 39.0647 30.6606 39.2033 30.5238 39.3418C31.4819 38.7877 33.1244 37.818 34.0825 35.7401C34.63 34.6318 34.7669 32.2769 34.7669 32.2769V31.5842L35.3144 31.8613C35.3144 31.8613 36.1357 32.2769 37.0938 33.6621C37.3676 34.0777 37.6413 34.6318 37.9151 35.186C38.0519 34.7704 38.1888 34.3548 38.1888 33.8007C38.3257 32.6924 38.0519 31.4457 37.9151 31.3072L37.7782 30.476L38.5995 30.7531C38.5995 30.7531 39.4207 31.0301 40.242 31.7227C40.7895 32.1383 41.2001 32.5539 41.6107 32.831C41.2001 31.8613 40.7895 30.8916 40.1051 29.9219C38.0519 26.7357 36.6832 26.0431 36.6832 26.0431L36.4094 25.9046C36.8201 25.6275 37.0938 25.489 37.3676 25.2119Z" fill="white"/>
</g>
<defs>
<clipPath id="clip0_355:54">
<rect width="85" height="96" fill="white"/>
</clipPath>
</defs>
</svg>
