<svg width="61" height="64" viewBox="0 0 61 64" fill="none" xmlns="http://www.w3.org/2000/svg">
<path d="M23.3673 5.8944C25.1095 2.94726 27.0434 1.25586 29.1689 1.25586C35.2316 1.25586 40.1441 15.0148 40.1441 32.0001C40.1441 48.9854 35.2316 62.7272 29.1689 62.7272C23.1062 62.7272 18.2106 48.9679 18.2106 32.0001C18.1086 25.0687 19.048 18.1613 20.9978 11.5096" stroke="#003DFF" stroke-width="2.5" stroke-linecap="round" stroke-linejoin="round"/>
<path d="M10.0576 50.0494C6.36422 50.1715 3.6812 49.3169 2.56622 47.3638C-0.465137 42.1322 8.97713 30.9714 23.6635 22.4787C38.35 13.9861 52.7231 11.3705 55.7544 16.6196C58.7858 21.8686 49.3257 33.012 34.6392 41.5046C28.9451 44.9072 22.8063 47.5012 16.3989 49.2124" stroke="#003DFF" stroke-width="2.5" stroke-linecap="round" stroke-linejoin="round"/>
<path d="M55.0224 48.2878C50.8587 52.2464 37.4092 49.439 23.6635 41.5044C8.97713 33.0117 -0.465137 21.8684 2.56622 16.6193C5.59758 11.3703 19.9877 14.0033 34.6392 22.4785C45.8413 28.9482 53.9946 36.9703 55.8935 42.7425" stroke="#003DFF" stroke-width="2.5" stroke-linecap="round" stroke-linejoin="round"/>
<path d="M21.869 5.71973C22.4513 5.71973 23.0206 5.89231 23.5048 6.21615C23.989 6.53999 24.3665 7.00043 24.5894 7.53895C24.8122 8.07747 24.8706 8.66984 24.757 9.24152C24.6434 9.81321 24.3627 10.3386 23.951 10.7508C23.5392 11.163 23.0147 11.4435 22.4436 11.5572C21.8725 11.6709 21.2802 11.6125 20.7423 11.3894C20.2043 11.1664 19.7447 10.7888 19.4212 10.3042C19.0977 9.81954 18.9248 9.24965 18.9248 8.66676C18.9248 7.88513 19.2352 7.13542 19.7874 6.58272C20.3395 6.03002 21.0881 5.71973 21.869 5.71973ZM13.2977 46.9795C13.88 46.9795 14.4493 47.1525 14.9335 47.4764C15.4177 47.8002 15.7948 48.2602 16.0177 48.7987C16.2405 49.3373 16.2988 49.9301 16.1852 50.5017C16.0716 51.0734 15.7914 51.5984 15.3797 52.0106C14.9679 52.4228 14.4434 52.7037 13.8723 52.8174C13.3012 52.9311 12.709 52.8727 12.171 52.6496C11.633 52.4266 11.173 52.0486 10.8495 51.564C10.5259 51.0793 10.3535 50.5094 10.3535 49.9266C10.3535 49.1449 10.6635 48.3956 11.2157 47.8429C11.7678 47.2902 12.5168 46.9795 13.2977 46.9795ZM56.5382 42.6373C57.1205 42.6373 57.6899 42.8103 58.174 43.1341C58.6582 43.458 59.0354 43.918 59.2582 44.4565C59.481 44.995 59.5394 45.5878 59.4258 46.1595C59.3122 46.7312 59.032 47.2562 58.6202 47.6684C58.2084 48.0805 57.6835 48.3615 57.1124 48.4752C56.5413 48.5889 55.9495 48.5305 55.4115 48.3074C54.8735 48.0844 54.4135 47.7064 54.09 47.2218C53.7665 46.7371 53.5941 46.1672 53.5941 45.5843C53.5917 45.1967 53.666 44.8126 53.8131 44.454C53.9602 44.0954 54.1772 43.7693 54.4511 43.4952C54.725 43.2211 55.0503 43.0043 55.4085 42.857C55.7668 42.7097 56.1509 42.635 56.5382 42.6373ZM29.1515 26.9425C30.1542 26.9425 31.1343 27.2402 31.968 27.7978C32.8017 28.3554 33.4515 29.1479 33.8353 30.0751C34.219 31.0024 34.3192 32.0229 34.1236 33.0073C33.928 33.9917 33.4452 34.8959 32.7362 35.6056C32.0272 36.3153 31.1238 36.7986 30.1404 36.9944C29.157 37.1902 28.1375 37.0894 27.2111 36.7053C26.2848 36.3212 25.4931 35.6708 24.936 34.8363C24.379 34.0018 24.0815 33.0207 24.0815 32.017C24.0815 30.6711 24.6156 29.3805 25.5664 28.4288C26.5171 27.4771 27.8069 26.9425 29.1515 26.9425Z" stroke="#003DFF" stroke-width="2.5" stroke-linecap="round" stroke-linejoin="round"/>
</svg>
