<svg width="84" height="78" viewBox="0 0 84 78" fill="none" xmlns="http://www.w3.org/2000/svg">
<path d="M43.4756 5.1654H46.8184L44.4694 7.42994L45.6251 10.5282L42.1054 9.13275L38.0512 10.6731L39.6511 7.55005L37.1816 5.1654H40.498L41.9059 2L43.4756 5.1654Z" stroke="#003DFF" stroke-width="2.5" stroke-linecap="round" stroke-linejoin="round"/>
<path d="M56.1217 56.6806H46.6107L41.796 51.002L36.9846 56.6806H27.8584" stroke="#003DFF" stroke-width="2.5" stroke-linecap="round" stroke-linejoin="round"/>
<path d="M42.0888 9.62548L37.159 28.3445H34.209L36.5736 32.0236V37.9256L32.956 33.3633V46.7769L28.0229 42.2946V76.0001H56.306V42.2946L51.3729 46.7769V33.3633L47.4264 38.1389V32.0236L49.7318 28.3445H46.7786L42.0888 9.54883" stroke="#003DFF" stroke-width="2.5" stroke-linecap="round" stroke-linejoin="round"/>
<path d="M62.5548 56.8373V56.6807V60.6697H56.4707" stroke="#003DFF" stroke-width="2.5" stroke-linecap="round" stroke-linejoin="round"/>
<path d="M67.8165 56.8373V56.6807V60.6697H62.3901" stroke="#003DFF" stroke-width="2.5" stroke-linecap="round" stroke-linejoin="round"/>
<path d="M72.4205 56.8373V56.6807V60.6697H67.6519" stroke="#003DFF" stroke-width="2.5" stroke-linecap="round" stroke-linejoin="round"/>
<path d="M77.683 56.8373V56.6807V60.6697H72.5854" stroke="#003DFF" stroke-width="2.5" stroke-linecap="round" stroke-linejoin="round"/>
<path d="M56.4707 75.9997H82.2872V60.6699H77.8474" stroke="#003DFF" stroke-width="2.5" stroke-linecap="round" stroke-linejoin="round"/>
<path d="M21.4453 56.8373V56.6807V60.6697H28.1872" stroke="#003DFF" stroke-width="2.5" stroke-linecap="round" stroke-linejoin="round"/>
<path d="M16.8413 56.8373V56.6807V60.6697H21.61" stroke="#003DFF" stroke-width="2.5" stroke-linecap="round" stroke-linejoin="round"/>
<path d="M11.5791 56.8373V56.6807V60.6697H16.6766" stroke="#003DFF" stroke-width="2.5" stroke-linecap="round" stroke-linejoin="round"/>
<path d="M6.646 56.8373V56.6807V60.6697H11.4147" stroke="#003DFF" stroke-width="2.5" stroke-linecap="round" stroke-linejoin="round"/>
<path d="M28.1871 75.9997H1.71289V60.6699H6.48154" stroke="#003DFF" stroke-width="2.5" stroke-linecap="round" stroke-linejoin="round"/>
</svg>
