<svg width="68" height="68" viewBox="0 0 68 68" fill="none" xmlns="http://www.w3.org/2000/svg">
<path d="M45.9065 55.2244L51.2476 51.3799C51.2476 51.3799 51.6866 44.7949 45.0119 43.7307L45.1017 38.5492L52.834 41.8283C52.834 41.8283 63.3633 43.4646 65.382 30.2082C67.4007 16.9518 61.2448 11.5176 61.2448 11.5176L48.1614 26.4435C48.1614 26.4435 49.3054 29.8657 44.9121 30.3047C44.9121 30.3047 40.9645 25.3892 43.1594 22.3229C45.3544 19.2566 47.3399 18.2322 49.6214 18.9373L49.3586 16.6525L44.2137 14.0684L35.6366 23.6L27.0695 14.0618L21.6053 16.7224L21.3426 19.0038C23.6241 18.3021 25.9288 19.2399 28.1238 22.3129C30.3188 25.3859 26.3678 30.2947 26.3678 30.2947C21.9778 29.8557 23.1185 26.4335 23.1185 26.4335L10.0284 11.5176C10.0284 11.5176 3.88249 16.9585 5.90121 30.2182C7.91993 43.4779 19.2873 42.4702 19.2873 42.4702L26.1849 38.5592L26.2714 43.7406C19.5999 44.7949 20.0389 51.3898 20.0389 51.3898L25.4299 55.2344" stroke="#003DFF" stroke-width="2.5" stroke-linecap="round" stroke-linejoin="round"/>
<path d="M17.0591 58.0349L28.2103 54.4365C27.2425 48.2007 31.4595 48.3038 31.4595 48.3038L32.8663 53.1361L23.644 60.6855L35.6167 66.2794H35.6466H35.6732L47.6459 60.6589L38.4269 53.1394L39.8304 48.3071C39.8304 48.3071 44.0474 48.204 43.0797 54.4398L54.2309 58.0382" stroke="#003DFF" stroke-width="2.5" stroke-linecap="round" stroke-linejoin="round"/>
<path d="M40.4455 9.20694C39.3912 7.36448 36.9269 7.1084 35.6464 7.1084C34.366 7.1084 31.8983 7.36448 30.8441 9.20694C29.7898 11.0494 32.8661 15.0037 32.8661 15.0037H38.4268C38.4268 15.0037 41.4997 11.0527 40.4455 9.20694Z" stroke="#003DFF" stroke-width="2.5" stroke-linecap="round" stroke-linejoin="round"/>
<path d="M2 40.5781L20.0887 60.4228" stroke="#003DFF" stroke-width="2.5" stroke-linecap="round" stroke-linejoin="round"/>
<path d="M61.9732 55.0655C61.9738 55.9084 61.7244 56.7326 61.2566 57.4337C60.7887 58.1348 60.1234 58.6814 59.3448 59.0042C58.5662 59.3271 57.7093 59.4117 56.8826 59.2474C56.0558 59.0832 55.2965 58.6773 54.7005 58.0813C54.1044 57.4853 53.6986 56.7259 53.5343 55.8992C53.3701 55.0725 53.4547 54.2156 53.7776 53.437C54.1004 52.6584 54.647 51.9931 55.3481 51.5252C56.0492 51.0573 56.8734 50.8079 57.7162 50.8086C58.8452 50.8086 59.928 51.2571 60.7263 52.0554C61.5247 52.8538 61.9732 53.9365 61.9732 55.0655V55.0655Z" stroke="#003DFF" stroke-width="2.5" stroke-linecap="round" stroke-linejoin="round"/>
<path d="M35.8062 8.06282V2" stroke="#003DFF" stroke-width="2.5" stroke-linecap="round" stroke-linejoin="round"/>
<path d="M33.4946 4.01172H38.1174" stroke="#003DFF" stroke-width="2.5" stroke-linecap="round" stroke-linejoin="round"/>
</svg>
