<svg width="78" height="72" viewBox="0 0 78 72" fill="none" xmlns="http://www.w3.org/2000/svg">
<path d="M63.4842 28.1787V42.6012C63.4842 48.843 53.1695 53.8931 40.4276 53.8931C27.6858 53.8931 17.3711 48.843 17.3711 42.6012V28.845" stroke="#003DFF" stroke-width="2.5" stroke-linecap="round" stroke-linejoin="round"/>
<path d="M9.98886 48.8633C9.84729 58.8016 15.0454 63.9725 8.22953 70.2546L2 65.649C6.4091 63.124 9.84729 57.1654 9.98886 48.8633Z" stroke="#003DFF" stroke-width="2.5" stroke-linecap="round" stroke-linejoin="round"/>
<path d="M10.6768 39.1872C10.7779 33.6929 9.90806 28.0369 11.4856 24.5828L4.69023 21.5325C4.40458 21.3722 4.16183 21.1449 3.98363 20.8702C3.80544 20.5956 3.69697 20.2814 3.66712 19.9554C3.63727 19.6295 3.68695 19.3016 3.81229 18.9992C3.93764 18.6968 4.13478 18.429 4.38656 18.2195L38.1023 2.32244C38.7865 2.07402 39.5137 1.96711 40.2404 2.00879C40.9672 2.05046 41.6779 2.23959 42.3291 2.56458L75.438 17.9773C75.7237 18.1377 75.9659 18.365 76.1441 18.6397C76.3223 18.9143 76.4308 19.2281 76.4606 19.554C76.4905 19.8799 76.4408 20.2083 76.3155 20.5107C76.1901 20.8131 75.993 21.0804 75.7412 21.2899L42.0259 37.1672C41.3418 37.4157 40.6141 37.5221 39.8874 37.4804C39.1606 37.4387 38.4498 37.2496 37.7987 36.9246L11.5059 24.5828L39.6795 18.7851" stroke="#003DFF" stroke-width="2.5" stroke-linecap="round" stroke-linejoin="round"/>
<path d="M10.4338 40.379C11.1276 40.375 11.8067 40.5775 12.3852 40.9599C12.9637 41.3424 13.4156 41.8878 13.6829 42.5272C13.9502 43.1665 14.0212 43.8709 13.8868 44.5506C13.7525 45.2304 13.4189 45.8548 12.9284 46.3447C12.4378 46.8347 11.8121 47.1678 11.1315 47.302C10.4509 47.4362 9.74621 47.3653 9.10604 47.0983C8.46587 46.8313 7.91924 46.3805 7.53632 45.8028C7.15339 45.225 6.95114 44.5466 6.95514 43.8538C6.95514 42.9323 7.32191 42.0484 7.9743 41.3968C8.62669 40.7453 9.5112 40.379 10.4338 40.379V40.379Z" stroke="#003DFF" stroke-width="2.5" stroke-linecap="round" stroke-linejoin="round"/>
</svg>
