<svg width="65" height="64" viewBox="0 0 65 64" fill="none" xmlns="http://www.w3.org/2000/svg">
<path fill-rule="evenodd" clip-rule="evenodd" d="M25.5019 16.3467C25.7813 16.35 26.0534 16.4367 26.2841 16.5956C26.5148 16.7545 26.6937 16.9785 26.7983 17.2396C26.9029 17.5008 26.9285 17.7874 26.872 18.0633C26.8154 18.3391 26.6792 18.5918 26.4805 18.7898C26.2817 18.9878 26.0294 19.122 25.7551 19.1757C25.4808 19.2294 25.1969 19.2002 24.9391 19.0917C24.6812 18.9831 24.4608 18.8001 24.3059 18.5657C24.151 18.3313 24.0684 18.0561 24.0684 17.7745C24.0728 17.3943 24.2257 17.0311 24.4941 16.7639C24.7624 16.4966 25.1246 16.3467 25.5019 16.3467V16.3467Z" stroke="#003DFF" stroke-width="2.5" stroke-linecap="round" stroke-linejoin="round"/>
<path d="M25.502 11.1466C26.795 11.18 28.0494 11.597 29.1085 12.3453C30.1675 13.0937 30.9843 14.1401 31.4563 15.3538C31.9283 16.5675 32.0347 17.8945 31.7622 19.1689C31.4897 20.4432 30.8505 21.6083 29.9244 22.5184C28.9983 23.4285 27.8265 24.0431 26.5555 24.2854C25.2846 24.5277 23.971 24.3869 22.7791 23.8806C21.5872 23.3743 20.5699 22.525 19.8544 21.439C19.139 20.3529 18.7573 19.0785 18.7568 17.7749C18.7634 16.892 18.9433 16.019 19.2867 15.2067C19.6301 14.3944 20.13 13.6588 20.7573 13.0424C21.3845 12.426 22.1269 11.9411 22.9413 11.6157C23.7557 11.2902 24.6261 11.1308 25.502 11.1466V11.1466ZM39.4815 11.1466C40.7745 11.18 42.0288 11.597 43.0879 12.3453C44.147 13.0937 44.9638 14.1401 45.4358 15.3538C45.9078 16.5675 46.0142 17.8945 45.7417 19.1689C45.4692 20.4432 44.83 21.6083 43.9039 22.5184C42.9778 23.4285 41.8059 24.0431 40.535 24.2854C39.2641 24.5277 37.9504 24.3869 36.7585 23.8806C35.5666 23.3743 34.5493 22.525 33.8339 21.439C33.1184 20.3529 32.7367 19.0785 32.7363 17.7749C32.7428 16.892 32.9228 16.019 33.2661 15.2067C33.6095 14.3944 34.1094 13.6588 34.7367 13.0424C35.364 12.426 36.1063 11.9411 36.9207 11.6157C37.7351 11.2902 38.6055 11.1308 39.4815 11.1466V11.1466Z" stroke="#003DFF" stroke-width="2.5" stroke-linecap="round" stroke-linejoin="round"/>
<path fill-rule="evenodd" clip-rule="evenodd" d="M39.4814 16.3467C39.7608 16.35 40.0329 16.4367 40.2636 16.5956C40.4943 16.7545 40.6732 16.9785 40.7778 17.2396C40.8824 17.5008 40.908 17.7874 40.8515 18.0633C40.7949 18.3391 40.6587 18.5918 40.46 18.7898C40.2612 18.9878 40.0089 19.122 39.7346 19.1757C39.4603 19.2294 39.1764 19.2002 38.9186 19.0917C38.6607 18.9831 38.4403 18.8001 38.2854 18.5657C38.1305 18.3313 38.0479 18.0561 38.0479 17.7745C38.0523 17.3943 38.2052 17.0311 38.4735 16.7639C38.7419 16.4966 39.1041 16.3467 39.4814 16.3467V16.3467Z" stroke="#003DFF" stroke-width="2.5" stroke-linecap="round" stroke-linejoin="round"/>
<path d="M37.1542 24.08L32.5 29.2975L27.8458 24.08M21.2525 50.8651C15.7215 50.8651 9.71812 36.8946 9.71812 32.0508C9.71812 25.7114 13.7988 26.2383 13.7988 19.5421C13.7988 12.8458 10.2241 8.24008 10.6288 2.22363C13.7697 3.59042 17.0046 4.72642 20.3081 5.62276C28.2586 8.04357 36.7414 8.04357 44.6919 5.62276C47.9954 4.72642 51.2303 3.59042 54.3712 2.22363C54.9277 12.8459 51.2012 12.9818 51.2012 19.5421C51.2012 26.1024 55.2819 25.7114 55.2819 32.0508C55.2819 36.8776 49.7507 50.8651 44.2197 50.8651M15.4518 50.4232C11.2645 48.493 7.77149 45.3052 5.45174 41.2965C0.932472 33.9714 1.28673 26.0005 5.58678 24.063C6.71386 23.6671 7.91163 23.517 9.10058 23.6225C10.2895 23.728 11.4427 24.0866 12.4839 24.6748M49.5824 50.4232C53.7746 48.494 57.273 45.3064 59.5989 41.2965C64.1013 33.9714 63.747 26.0005 59.447 24.063C58.3223 23.6696 57.1276 23.5208 55.9418 23.6262C54.756 23.7317 53.6061 24.089 52.5671 24.6748M17.5765 13.1009L32.2472 18.4713M32.854 18.4713L47.5083 13.1009M33.3938 54.6381H53.2753M44.1521 58.0372H53.4436M12.7367 61.7591H57.5585C55.2483 61.7591 53.3597 59.3288 53.3597 56.3376C53.3597 53.3634 55.2483 50.9161 57.5585 50.9161H12.7367C10.4433 50.9161 8.5378 53.3634 8.5378 56.3376C8.5378 59.3288 10.4264 61.7591 12.7367 61.7591Z" stroke="#003DFF" stroke-width="2.5" stroke-linecap="round" stroke-linejoin="round"/>
</svg>
