<svg width="68" height="68" viewBox="0 0 68 68" fill="none" xmlns="http://www.w3.org/2000/svg">
<path d="M45.3537 34.2061C47.6492 34.2061 49.8929 34.8876 51.8016 36.1645C53.7103 37.4413 55.1982 39.2559 56.0766 41.3792C56.9551 43.5024 57.1847 45.8391 56.7369 48.0932C56.289 50.3472 55.1836 52.4175 53.5604 54.0426C51.9372 55.6677 49.8692 56.7744 47.6178 57.2228C45.3663 57.6711 43.0328 57.4408 40.9119 56.5613C38.7911 55.6818 36.9781 54.1927 35.7028 52.2818C34.4274 50.3709 33.7471 48.1242 33.7471 45.826C33.7471 42.7442 34.9698 39.7886 37.1465 37.6094C39.3232 35.4302 42.2754 34.2061 45.3537 34.2061Z" stroke="#003DFF" stroke-width="2.5" stroke-linecap="round" stroke-linejoin="round"/>
<path d="M66.2451 17.4933V45.1682C66.2212 45.7923 65.9632 46.3842 65.5221 46.8259C65.081 47.2675 64.4892 47.5263 63.8658 47.5502L58.0625 47.8018M32.7217 47.8018L4.01457 47.5502C3.38509 47.5452 2.78265 47.2923 2.33753 46.8467C1.8924 46.401 1.64031 45.7984 1.63525 45.1682V4.38205C1.63525 3.75028 1.88611 3.14413 2.33233 2.6974C2.77855 2.25068 3.38353 2 4.01457 2H50.7697M9.95341 12.3414H42.3939M9.95341 19.7784H42.3939M9.95341 27.1959H42.3939M66.2451 17.4933H53.1296C52.5019 17.4881 51.9017 17.2349 51.4597 16.7888C51.0176 16.3426 50.7697 15.7396 50.7697 15.1112V2L66.2451 17.4933Z" stroke="#003DFF" stroke-width="2.5" stroke-linecap="round" stroke-linejoin="round"/>
<path d="M45.3537 40.3262C46.4555 40.3262 47.5323 40.6533 48.4485 41.2662C49.3647 41.879 50.0788 42.7501 50.5005 43.7693C50.9222 44.7884 51.0324 45.9096 50.8174 46.9915C50.6024 48.0734 50.0721 49.0673 49.2929 49.8473C48.5138 50.6274 47.5211 51.1588 46.4404 51.374C45.3597 51.5893 44.2394 51.4789 43.2214 51.0568C42.2034 50.6346 41.3333 49.9196 40.7211 49.0024C40.109 48.0852 39.7823 47.0067 39.7823 45.9036C39.7797 45.1704 39.9221 44.4438 40.2012 43.7659C40.4802 43.0881 40.8905 42.4725 41.4083 41.9541C41.9261 41.4357 42.5414 41.0245 43.2185 40.7451C43.8956 40.4657 44.6213 40.3236 45.3537 40.3262V40.3262Z" stroke="#003DFF" stroke-width="2.5" stroke-linecap="round" stroke-linejoin="round"/>
<path d="M35.2553 51.7716L29.8389 61.6292L40.0527 66.6064L45.4691 58.1819L50.8662 66.6064L61.2347 61.6679L55.7603 51.21" stroke="#003DFF" stroke-width="2.5" stroke-linecap="round" stroke-linejoin="round"/>
</svg>
