<svg width="66" height="66" viewBox="0 0 66 66" fill="none" xmlns="http://www.w3.org/2000/svg">
<path d="M35 59C35 60.3261 35.5268 61.5978 36.4645 62.5355C37.4022 63.4732 38.6739 64 40 64H45C46.3261 64 47.5978 63.4732 48.5355 62.5355C49.4732 61.5978 50 60.3261 50 59V59" stroke="#003DFF" stroke-width="2.5" stroke-linecap="round" stroke-linejoin="round"/>
<path d="M43 2V4" stroke="#003DFF" stroke-width="2.5" stroke-linecap="round" stroke-linejoin="round"/>
<path d="M59.9102 10.7403L61.3802 9.32031" stroke="#003DFF" stroke-width="2.5" stroke-linecap="round" stroke-linejoin="round"/>
<path d="M52.1499 5.75039L52.9499 3.90039" stroke="#003DFF" stroke-width="2.5" stroke-linecap="round" stroke-linejoin="round"/>
<path d="M33.8498 5.75039L33.0498 3.90039" stroke="#003DFF" stroke-width="2.5" stroke-linecap="round" stroke-linejoin="round"/>
<path d="M35 51C35 51 34.21 46.85 32.63 44.77C29 40 25 34.15 25 28C25 23.2261 26.8964 18.6477 30.2721 15.2721C33.6477 11.8964 38.2261 10 43 10C47.7739 10 52.3523 11.8964 55.7279 15.2721C59.1036 18.6477 61 23.2261 61 28L64 37H59V43C59 44.0609 58.5786 45.0783 57.8284 45.8284C57.0783 46.5786 56.0609 47 55 47H53.34C52.6714 47 52.0218 47.2233 51.4946 47.6346C50.9674 48.0458 50.5927 48.6214 50.43 49.27V49.27C50.1475 50.4187 50.0031 51.5971 50 52.78V55H35" stroke="#003DFF" stroke-width="2.5" stroke-linecap="round" stroke-linejoin="round"/>
<path d="M40 45C40 39 40 33 36 29H50C46 33 46 39 46 45" stroke="#003DFF" stroke-width="2.5" stroke-linecap="round" stroke-linejoin="round"/>
<path d="M29 10H26C25.4696 10 24.9609 10.2107 24.5858 10.5858C24.2107 10.9609 24 11.4696 24 12V12.84C24.0008 13.2354 23.8844 13.6222 23.6655 13.9515C23.4465 14.2808 23.135 14.5378 22.77 14.69L17.63 16.81C17.2648 16.9619 16.8628 17.0021 16.4748 16.9256C16.0868 16.8491 15.7301 16.6592 15.45 16.38L14.86 15.79C14.6742 15.6041 14.4537 15.4565 14.2109 15.3559C13.9681 15.2552 13.7078 15.2034 13.445 15.2034C13.1822 15.2034 12.9219 15.2552 12.6791 15.3559C12.4363 15.4565 12.2158 15.6041 12.03 15.79L7.78998 20C7.60403 20.1857 7.45654 20.4063 7.3559 20.6491C7.25525 20.8919 7.20343 21.1522 7.20343 21.415C7.20343 21.6778 7.25525 21.9381 7.3559 22.1809C7.45654 22.4237 7.60403 22.6442 7.78998 22.83L8.84998 23.89C8.99041 24.0295 9.08632 24.2076 9.12549 24.4016C9.16465 24.5957 9.14534 24.797 9.07001 24.98L6.69 30.74C6.53777 31.1049 6.28076 31.4166 5.95148 31.6355C5.6222 31.8544 5.23544 31.9708 4.84003 31.97H4C3.46957 31.97 2.96089 32.1807 2.58582 32.5558C2.21074 32.9309 2 33.4396 2 33.97V39.97C2 40.5004 2.21074 41.0091 2.58582 41.3842C2.96089 41.7593 3.46957 41.97 4 41.97H4.84003C5.23544 41.9692 5.6222 42.0856 5.95148 42.3045C6.28076 42.5234 6.53777 42.8351 6.69 43.2L8.81 48.34C8.96191 48.7052 9.00214 49.1072 8.9256 49.4952C8.84906 49.8832 8.6592 50.2399 8.38 50.52L7.78998 51.11C7.60403 51.2957 7.45654 51.5163 7.3559 51.7591C7.25525 52.0019 7.20343 52.2622 7.20343 52.525C7.20343 52.7878 7.25525 53.0481 7.3559 53.2909C7.45654 53.5337 7.60403 53.7543 7.78998 53.94L12.03 58.18C12.2158 58.3659 12.4363 58.5135 12.6791 58.6141C12.9219 58.7148 13.1822 58.7666 13.445 58.7666C13.7078 58.7666 13.9681 58.7148 14.2109 58.6141C14.4537 58.5135 14.6742 58.3659 14.86 58.18L15.45 57.59C15.7301 57.3108 16.0868 57.1209 16.4748 57.0444C16.8628 56.9679 17.2648 57.0081 17.63 57.16L22.77 59.28C23.135 59.4322 23.4465 59.6892 23.6655 60.0185C23.8844 60.3478 24.0008 60.7346 24 61.13V62C24 62.5304 24.2107 63.0391 24.5858 63.4142C24.9609 63.7893 25.4696 64 26 64H30" stroke="#003DFF" stroke-width="2.5" stroke-linecap="round" stroke-linejoin="round"/>
<path d="M18.5099 29C17.0481 31.0993 16.1895 33.5591 16.0272 36.112C15.865 38.665 16.4053 41.2136 17.5895 43.4811C18.7738 45.7486 20.5567 47.6483 22.7446 48.9738C24.9325 50.2994 27.4417 51.0002 29.9999 51H34.9999" stroke="#003DFF" stroke-width="2.5" stroke-linecap="round" stroke-linejoin="round"/>
</svg>
