<svg width="68" height="61" viewBox="0 0 68 61" fill="none" xmlns="http://www.w3.org/2000/svg">
<path d="M55.4897 16.1875C58.327 16.1875 61.048 17.3146 63.0543 19.3208C65.0605 21.3271 66.1876 24.0481 66.1876 26.8854C66.1876 29.7226 65.0605 32.4437 63.0543 34.4499C61.048 36.4562 58.327 37.5833 55.4897 37.5833M26.962 16.1875V55.4131C26.962 56.3588 26.5863 57.2658 25.9176 57.9346C25.2488 58.6033 24.3418 58.979 23.3961 58.979H19.8301C18.8844 58.979 17.9774 58.6033 17.3086 57.9346C16.6399 57.2658 16.2642 56.3588 16.2642 55.4131V37.5833" stroke="#003DFF" stroke-width="2.5" stroke-linecap="round" stroke-linejoin="round"/>
<path d="M34.0936 16.187L50.2261 2.74337C50.6948 2.35293 51.2651 2.10418 51.8702 2.02628C52.4753 1.94837 53.09 2.04454 53.6424 2.30351C54.1948 2.56248 54.6619 2.97353 54.989 3.48848C55.3162 4.00343 55.4897 4.60095 55.4894 5.21102V48.5588C55.4897 49.1689 55.3162 49.7664 54.989 50.2814C54.6619 50.7963 54.1948 51.2074 53.6424 51.4663C53.09 51.7253 52.4753 51.8215 51.8702 51.7436C51.2651 51.6657 50.6948 51.4169 50.2261 51.0265L34.0936 37.5828H5.56596C4.62021 37.5828 3.71319 37.2071 3.04445 36.5384C2.3757 35.8696 2 34.9626 2 34.0168V19.753C2 18.8073 2.3757 17.9002 3.04445 17.2315C3.71319 16.5627 4.62021 16.187 5.56596 16.187H34.0936Z" stroke="#003DFF" stroke-width="2.5" stroke-linecap="round" stroke-linejoin="round"/>
</svg>
